<?xml version="1.0" encoding="utf-8"?>
<!-- Generator: Adobe Illustrator 18.0.0, SVG Export Plug-In . SVG Version: 6.00 Build 0)  -->
<!DOCTYPE svg PUBLIC "-//W3C//DTD SVG 1.1//EN" "http://www.w3.org/Graphics/SVG/1.1/DTD/svg11.dtd">
<svg version="1.1" xmlns="http://www.w3.org/2000/svg" xmlns:xlink="http://www.w3.org/1999/xlink" x="0px" y="0px"
	 viewBox="0 0 100 100" enable-background="new 0 0 100 100" xml:space="preserve">
<g id="图层_1" display="none">
	<rect x="-450" y="-450" display="inline" fill="#777676" width="1000" height="1000"/>
	<path display="inline" fill="#333333" d="M14-94.8c-5,0-9,3.1-9,8.1l6,1h12.1C23.1-90.8,19-94.8,14-94.8z"/>
	<path display="inline" fill="#535353" d="M15.6-93.9c1.2,0,2.4,0.2,3.5,0.7c-1.5-1-3.2-1.6-5.1-1.6c-5,0-9,3.1-9,8.1l1.7,0.3
		C6.9-91.1,10.9-93.9,15.6-93.9z"/>
	<path display="inline" d="M22.5-85.8L22.5-85.8l0.5,0.1c0-2.5-1-4.8-2.7-6.4C21.8-90.5,22.6-88.3,22.5-85.8L22.5-85.8z"/>
	<path display="inline" fill="#8C6239" d="M-114.7-114.5c-1.4-2.4-3.9-3.1-6.3-1.7c-0.1,0-7.5,4.7-5.4,8.3c0.6,1.1,1.9,1.5,3.3,1.5
		c2.7,0,6.1-1.4,6.7-1.8c1.6-0.9,2.1-2.1,2.3-3C-113.9-112.3-114.1-113.4-114.7-114.5z"/>
	<path display="inline" fill="#744D28" d="M-121.5-115c-0.4,0-0.8,0-1.2,0.1c-2.1,1.7-5,4.6-3.7,7c0.6,1.1,1.9,1.5,3.3,1.5
		c2.7,0,6.1-1.4,6.7-1.8c1.6-0.9,2.1-2.1,2.3-3c0-0.2,0-0.4,0.1-0.6C-116.2-113.8-118.8-115-121.5-115z"/>
	<path display="inline" fill="#C69C6D" d="M-257.8-90.7c-5,0-9.1,4.1-9.1,9.1h18.3C-248.6-86.6-252.7-90.7-257.8-90.7z"/>
	<path display="inline" fill="#BD9261" d="M-256.5-90.6c-0.4-0.1-0.8-0.1-1.3-0.1c-5,0-9.1,4.1-9.1,9.1h3.1
		C-263.8-85.9-260.7-89.7-256.5-90.6z"/>
	<path display="inline" fill="#333333" d="M-292.2-90.7c-5,0-9.1,4.1-9.1,9.1h18.3C-283.1-86.6-287.2-90.7-292.2-90.7z"/>
	<path display="inline" d="M-290.7-90.6c3.9,1.1,6.7,4.8,6.7,9h0.8C-283.1-86.1-286.4-89.8-290.7-90.6z"/>
	<path display="inline" fill="#535353" d="M-291.5-90.6c-0.2,0-0.4,0-0.7,0c-5,0-9.1,4.1-9.1,9.1h1.3
		C-300-86.4-296.3-90.3-291.5-90.6z"/>
	<path display="inline" fill="#8C6239" d="M-265-291.8l-5.4-1.9l3.1,4.8c7.5,11.8,10.8,13.3,12.3,13.3c0.3,0,0.5-0.1,0.7-0.1
		c0.8-0.2,2.1-0.9,2.2-3.3C-251.6-286.9-263.6-291.3-265-291.8z"/>
	<path display="inline" fill="#744D28" d="M-263.9-291.4c-0.5-0.2-0.9-0.3-1.1-0.4l-5.2-1.8c4,2.4,7,7.3,7.9,12.1
		c1.9,2.5,3.4,3.9,4.5,4.8c0-0.4,0.1-0.8,0.1-1.2C-257.6-282.6-260.1-288.1-263.9-291.4z"/>
	<path display="inline" fill="#8C6239" d="M-113-291.8l-5.4-1.9l3.1,4.8c7.5,11.8,10.8,13.3,12.3,13.3c0.3,0,0.5-0.1,0.7-0.1
		c0.8-0.2,2.1-0.9,2.2-3.3C-99.6-286.9-111.6-291.3-113-291.8z"/>
	<path display="inline" fill="#744D28" d="M-111.9-291.3c-0.5-0.2-0.9-0.3-1.1-0.4l-5.2-1.8c4,2.4,7,7.3,7.9,12.1
		c1.9,2.5,3.4,3.9,4.5,4.8c0-0.4,0.1-0.8,0.1-1.2C-105.6-282.6-108.1-288.1-111.9-291.3z"/>
	<path display="inline" fill="#C69C6D" d="M45.9-274.7c-5,0-9.1,4.1-9.1,9.1h18.3C55.1-270.6,51-274.7,45.9-274.7z"/>
	<path display="inline" fill="#BD9261" d="M47.2-274.6c-0.4-0.1-0.8-0.1-1.3-0.1c-5,0-9.1,4.1-9.1,9.1h3.1
		C39.9-269.9,43-273.7,47.2-274.6z"/>
	<path display="inline" fill="#333333" d="M11.5-274.7c-5,0-9.1,4.1-9.1,9.1h18.3C20.6-270.6,16.5-274.7,11.5-274.7z"/>
	<path display="inline" d="M13-274.5c3.9,1.1,6.7,4.8,6.7,9h0.8C20.6-270.1,17.4-273.8,13-274.5z"/>
	<path display="inline" fill="#535353" d="M12.2-274.6c-0.2,0-0.4,0-0.7,0c-5,0-9.1,4.1-9.1,9.1h1.3C3.7-270.4,7.4-274.3,12.2-274.6
		z"/>
	<path display="inline" fill="#8C6239" d="M-135.3-290.6c-1.4-2.2-2.7-4.1-3.8-5.6c1-1.2,1.7-2.7,1.7-4.4c0-3.7-3-6.7-6.7-6.7
		c-3.7,0-6.7,3-6.7,6.7c0,0.8,0.2,1.6,0.4,2.3c1.5,6.6,11.5,10.2,12.7,10.7l5.4,1.9L-135.3-290.6z"/>
	<path display="inline" fill="#744D28" d="M-135.3-290.7c-1.4-2.2-2.7-4.1-3.8-5.6c1-1.2,1.7-2.7,1.7-4.4c0-3-2-5.5-4.7-6.4
		c2.3,1.1,3.9,3.4,3.9,6.1c0,1.7-0.6,3.2-1.7,4.4c1.1,1.5,2.4,3.4,3.8,5.6l3.1,4.8l-5.4-1.9c-0.1,0-0.2-0.1-0.3-0.1
		c0.5,0.2,0.9,0.4,1.1,0.4l5.4,1.9L-135.3-290.7z"/>
	<path display="inline" fill="#333333" d="M-140.2-274.7c-5,0-9.1,4.1-9.1,9.1h18.3C-131.1-270.6-135.2-274.7-140.2-274.7z"/>
	<path display="inline" d="M-138.7-274.5c3.9,1.1,6.7,4.8,6.7,9h0.8C-131.1-270.1-134.3-273.8-138.7-274.5z"/>
	<path display="inline" fill="#535353" d="M-139.5-274.6c-0.2,0-0.4,0-0.7,0c-5,0-9.1,4.1-9.1,9.1h1.3
		C-148-270.4-144.3-274.3-139.5-274.6z"/>
	<path display="inline" fill="#8C6239" stroke="#8C6239" stroke-width="4" stroke-miterlimit="10" d="M207.3-348
		c0-1.1,0.7-1.5,1.6-1.5s1.6,0.4,1.6,1.5s-0.7,2.3-1.6,2.3S207.3-347,207.3-348z"/>
	<polygon display="inline" fill="#C69C6D" points="158.6,-374.7 217.8,-374.7 190.5,-311 	"/>
	<polygon display="inline" fill="#B18451" points="191.8,-318.2 183.8,-331.8 192.2,-315 211,-359 	"/>
	<polygon display="inline" fill="#DCB890" points="162.6,-372.6 217.7,-374.6 217.8,-374.7 158.6,-374.7 182.4,-327.1 	"/>
	<path display="inline" fill="#8C6239" d="M-271.8-271.2c0,2.6-0.9,4.7-3.5,4.7s-3.5-2.1-3.5-4.7c0-2.6,0.9-4.7,3.5-4.7
		S-271.8-273.7-271.8-271.2z"/>
	<path display="inline" fill="#333333" d="M-292.2-274.7c-5,0-9.1,4.1-9.1,9.1h18.3C-283.1-270.6-287.2-274.7-292.2-274.7z"/>
	<path display="inline" d="M-290.7-274.5c3.9,1.1,6.7,4.8,6.7,9h0.8C-283.1-270-286.3-273.8-290.7-274.5z"/>
	<path display="inline" fill="#C69C6D" d="M-258-274.7c-5,0-9.1,4.1-9.1,9.1h18.3C-248.8-270.6-252.9-274.7-258-274.7z"/>
	<path display="inline" fill="#8C6239" stroke="#8C6239" stroke-width="4" stroke-miterlimit="10" d="M-285-289.9
		c0,0-12,4.1-11.5,10.8C-296.1-272.4-285-289.9-285-289.9z"/>
	<path display="inline" fill="#744D28" d="M-280.9-293.4l-2.9,4.5c-7.5,11.8-10.8,13.3-12.3,13.3c0,0,0,0,0,0c0.2,0,0.3,0.1,0.5,0.1
		c1.5,0,4.8-1.5,12.3-13.3l3.1-4.8L-280.9-293.4z"/>
	<path display="inline" fill="#AA8561" d="M-297.5-278.4c-0.5-8,11.5-12.3,12.9-12.8l3.5-1.2l0.8-1.2l-5.4,1.9
		c-1.4,0.5-13.4,4.9-12.9,12.8c0.2,2.4,1.5,3.1,2.2,3.3c0,0,0,0,0.1,0C-296.8-276.1-297.4-276.9-297.5-278.4z"/>
	<path display="inline" fill="#AA8561" d="M-264.4-290.6c1.1,0.4,8.6,3.1,11.7,8.1c-2.5-5.7-11.1-8.8-12.2-9.2l-5.4-1.9l0.8,1.2
		L-264.4-290.6z"/>
	<path display="inline" fill="#C69C6D" d="M-262-278.6c0,7.4-6,10.3-13.4,10.3s-13.4-2.9-13.4-10.3s6-16.4,13.4-16.4
		S-262-286-262-278.6z"/>
	<path display="inline" fill="#BD9261" d="M-265.7-289.4c1.9,3,3,6.5,3,9.7c0,7.4-6,10.3-13.4,10.3c-4.8,0-9-1.2-11.3-4.1
		c2.1,3.7,6.7,5.2,12.1,5.2c7.4,0,13.4-2.9,13.4-10.3C-261.9-282.2-263.4-286.2-265.7-289.4z"/>
	<path display="inline" fill="#DCB890" d="M-287.8-277.8c0-7.4,6-16.4,13.4-16.4c2.7,0,5.1,1.2,7.2,3c-2.2-2.3-5-3.9-8.1-3.9
		c-7.4,0-13.4,9.1-13.4,16.4c0,3.3,1.2,5.7,3.1,7.3C-286.9-272.9-287.8-275-287.8-277.8z"/>
	<path display="inline" fill="#8C6239" d="M-271.8-87.2c0,2.6-0.9,4.7-3.5,4.7s-3.5-2.1-3.5-4.7c0-2.6,0.9-4.7,3.5-4.7
		S-271.8-89.7-271.8-87.2z"/>
	<path display="inline" fill="#C69C6D" d="M-262-94.6c0,7.4-6,10.3-13.4,10.3s-13.4-2.9-13.4-10.3s6-16.4,13.4-16.4
		S-262-102-262-94.6z"/>
	<path display="inline" fill="#B18451" d="M-265.8-105.4c1.7,2.9,2.8,6.3,2.8,9.3c0,7.4-6,10.3-13.4,10.3c-4.8,0-9-1.2-11.3-4.1
		c2,4,6.8,5.6,12.3,5.6c7.4,0,13.4-2.9,13.4-10.3C-262-98.2-263.5-102.3-265.8-105.4z"/>
	<path display="inline" fill="#DCB890" d="M-286.7-92.6c0-7.4,6-16.4,13.4-16.4c2.5,0,4.9,1.1,6.9,2.7c-2.4-2.8-5.5-4.7-8.9-4.7
		c-7.4,0-13.4,9.1-13.4,16.4c0,3.6,1.4,6.1,3.7,7.7C-286.1-88.4-286.7-90.3-286.7-92.6z"/>
	<path display="inline" fill="#8C6239" d="M-264.2-104.4l-4.2-3.9l0.8,5.7c2.4,16.6,5.3,17.1,6.4,17.3c0.1,0,0.3,0,0.5,0
		c0.8,0,2-0.4,2.9-2.1C-254-94.4-263.1-103.4-264.2-104.4z"/>
	<path display="inline" fill="#744D28" d="M-260.5-100.1c1.9,3.9,3.6,9.2,1.4,13.3c-0.4,0.8-0.9,1.3-1.4,1.6
		c0.8-0.1,1.9-0.5,2.7-2.1C-255.4-91.6-257.9-96.6-260.5-100.1z"/>
	<path display="inline" fill="#AA8561" d="M-265.7-102.9l-0.5-3.3l-2.2-2.1l0.8,5.7c1.8,12.6,3.9,16,5.3,16.9
		C-263.2-88.6-264.4-93.8-265.7-102.9z"/>
	<path display="inline" fill="#8C6239" d="M-286.6-103.6c-1,1.1-9.3,10.8-4.9,17.5c1,1.5,2.1,1.9,2.9,1.9c0.3,0,0.5,0,0.7-0.1
		c1.1-0.3,4-1.1,4.9-17.8l0.3-5.7L-286.6-103.6z"/>
	<path display="inline" fill="#744D28" d="M-289.1-85.2c-0.2,0.1-0.4,0.1-0.7,0.1c-0.3,0-0.7-0.1-1-0.2c0.8,0.8,1.6,1,2.2,1
		c0.3,0,0.5,0,0.7-0.1c1-0.3,3.5-1,4.6-14.1C-285-88.4-288.3-85.4-289.1-85.2z"/>
	<path display="inline" fill="#AA8561" d="M-285.9-102.4l3-3.4l0.1-2.2l-3.8,4.3c-1,1.1-9.3,10.8-4.9,17.5c0,0,0.1,0.1,0.1,0.1
		C-294.3-92.6-286.8-101.3-285.9-102.4z"/>
	<path display="inline" fill="#C69C6D" d="M169.2-274.7c-5,0-9.1,4.1-9.1,9.1h18.3C178.4-270.6,174.3-274.7,169.2-274.7z"/>
	<path display="inline" fill="#BD9261" d="M177.6-265.6h0.8c0-4-2.6-7.4-6.1-8.6C175.3-272.8,177.5-269.5,177.6-265.6z"/>
	<path display="inline" fill="#DCB890" d="M170-274.7c-0.2,0-0.5,0-0.8,0c-5,0-9.1,4.1-9.1,9.1h1.5
		C161.6-270.4,165.3-274.3,170-274.7z"/>
	<path display="inline" fill="#333333" d="M203.7-274.7c-5,0-9.1,4.1-9.1,9.1h18.3C212.8-270.6,208.7-274.7,203.7-274.7z"/>
	<path display="inline" fill="#0E0E0E" d="M207.5-273.8c-1.2-0.5-2.5-0.9-3.8-0.9c-5,0-9.1,4.1-9.1,9.1h7.7
		C202.2-269.2,204.4-272.4,207.5-273.8z"/>
	<path display="inline" fill="#C69C6D" d="M224-297.8c0,18.1-16.6,25.2-37.1,25.2s-37.1-7.1-37.1-25.2c0-18.1,16.6-40.4,37.1-40.4
		S224-315.9,224-297.8z"/>
	<path display="inline" fill="#DCB890" d="M154.5-294.2c0-18.1,16.6-40.4,37.1-40.4c6.2,0,12,2,17.1,5.4c-6.1-5.4-13.7-9-21.9-9
		c-20.5,0-37.1,22.2-37.1,40.4c0,9.1,4.2,15.4,11,19.5C156.8-282.3,154.5-287.5,154.5-294.2z"/>
	<path display="inline" fill="#BD9261" d="M195.7-336.8c7.8,8.7,12.6,20.2,12.6,30.5c0,20-18.3,27.9-40.9,27.9c-2.3,0-4.6,0-6.9-0.1
		c6.7,4.1,16,5.9,26.3,5.9c20.5,0,37.1-7.1,37.1-25.2C223.9-313.2,211.9-331.6,195.7-336.8z"/>
	<path display="inline" fill="#8C6239" d="M186.1-353c-9.4,0-15,3.9-15,10.4c0,7,6.7,15.4,15,15.4s15-8.4,15-15.4
		C201.1-349.2,195.5-353,186.1-353z"/>
	<path display="inline" fill="#744D28" d="M199.8-347.5c0.3,0.9,0.5,1.9,0.5,3c0,7.3-7,16-15.6,16c-2.7,0-5.2-0.8-7.3-2.2
		c2.5,2.1,5.5,3.4,8.8,3.4c8.3,0,15-8.4,15-15.4C201.1-344.5,200.7-346.1,199.8-347.5z"/>
	<path display="inline" fill="#AA8561" d="M173.2-340.2c0-6.5,5.6-10.4,15-10.4c5.2,0,9.2,1.2,11.8,3.4c-2.1-3.7-6.9-5.9-13.9-5.9
		c-9.4,0-15,3.9-15,10.4c0,3.7,1.9,7.8,5,10.9C174.3-334.4,173.2-337.4,173.2-340.2z"/>
	<path display="inline" fill="#8C6239" d="M31.8-271.2c0,2.6-0.9,4.7-3.5,4.7s-3.5-2.1-3.5-4.7c0-2.6,0.9-4.7,3.5-4.7
		S31.8-273.7,31.8-271.2z"/>
	<path display="inline" fill="#8C6239" d="M17.7-288.8c-1.2,0.8-11.7,8.2-9.1,15.7c0.8,2.3,2.2,2.6,3,2.6c0,0,0,0,0,0
		c1.1,0,4.1-0.1,9.1-16.1l1.7-5.5L17.7-288.8z"/>
	<path display="inline" fill="#744D28" d="M21-291l-1.7,5.4c-3,9.6-5.3,13.5-6.9,15c1.5-0.5,4.2-3,8.3-16l1.7-5.5L21-291z"/>
	<path display="inline" fill="#AA8561" d="M9.7-271.4c-2.6-7.5,6.9-15.8,8.1-16.6l4.4-3.2l0.2-0.6l-4.7,3.2
		c-1.2,0.8-11.7,8.2-9.1,15.7c0.4,1,0.9,1.7,1.4,2C9.9-271.1,9.8-271.3,9.7-271.4z"/>
	<path display="inline" fill="#8C6239" d="M38.3-288.8l-4.7-3.2l1.7,5.5c5,16,8,16.1,9.1,16.1c0,0,0,0,0,0c0.8,0,2.2-0.3,3-2.6
		C50-280.6,39.5-287.9,38.3-288.8z"/>
	<path display="inline" fill="#C69C6D" d="M41.7-278.6c0,7.4-6,10.3-13.4,10.3S15-271.2,15-278.6s6-16.4,13.4-16.4
		S41.7-286,41.7-278.6z"/>
	<path display="inline" fill="#744D28" d="M42.2-285.6c-1.6-1.5-3.1-2.6-3.7-3.1c2,3,3.2,6.7,3.2,10c0,2-0.4,3.6-1.2,5
		c0.2,0.4,0.5,0.7,0.7,1c1.5-1.6,2.4-3.8,2.4-6.6C43.5-281.3,43.1-283.5,42.2-285.6z"/>
	<path display="inline" fill="#8C6239" d="M-119.8-271.2c0,2.6-0.9,4.7-3.5,4.7c-2.6,0-3.5-2.1-3.5-4.7c0-2.6,0.9-4.7,3.5-4.7
		C-120.7-275.8-119.8-273.7-119.8-271.2z"/>
	<path display="inline" fill="#C69C6D" d="M-106-274.7c-5,0-9.1,4.1-9.1,9.1h18.3C-96.8-270.6-100.9-274.7-106-274.7z"/>
	<path display="inline" fill="#AA8561" d="M-113-291.8l-5.4-1.9l0.3,0.4l5.1,1.7c1.4,0.5,13.4,4.9,12.9,12.8c0,0.5-0.1,0.9-0.2,1.3
		c0.2-0.4,0.3-0.9,0.3-1.6C-99.6-286.9-111.6-291.3-113-291.8z"/>
	<path display="inline" fill="#C69C6D" d="M-110-278.6c0,7.4-6,10.3-13.4,10.3c-7.4,0-13.4-2.9-13.4-10.3s6-16.4,13.4-16.4
		C-116-295.1-110-286-110-278.6z"/>
	<path display="inline" fill="#F6F3F0" d="M211.9-354.1c5.2,0,7.1-4.9,7.1-11h-18.8C200.2-359,206.7-354.1,211.9-354.1z"/>
	<path display="inline" fill="#E6E6E6" d="M216.1-365.2c-0.2,5.6-2.2,9.9-7.1,9.9c-1.3,0-2.7-0.3-4-0.9c1.9,1.3,4.1,2,6.2,2
		c5.2,0,7.1-4.9,7.1-11H216.1z"/>
	<path display="inline" fill="#FFFFFF" d="M203.4-362.4H220c0-0.5,0.1-1,0.1-1.6h-18.8c0,3.9,2.7,7.4,6.1,9.3
		C205-356.6,203.4-359.3,203.4-362.4z"/>
	<path display="inline" fill="#8C6239" d="M211.9-352.1c-6.2,0-13.7-5.8-13.7-13v-2H221v2C221-356.8,217.7-352.1,211.9-352.1z
		 M202.5-363.1c1.2,3.9,5.7,7,9.4,7c3.6,0,4.8-3.5,5.1-7H202.5z"/>
	<g display="inline">
		<path fill="#744D28" d="M202.5-363.1h13.1c0-0.1,0-0.3,0-0.4h-14.5c1,3.3,4.4,6,7.7,6.8C206-357.8,203.4-360.2,202.5-363.1z"/>
		<path fill="#744D28" d="M219.7-367.1v1.6c0,8.3-3.3,13-9.1,13c-0.9,0-1.9-0.1-2.8-0.4c1.4,0.5,2.8,0.8,4.2,0.8
			c5.8,0,9.1-4.7,9.1-13v-2H219.7z"/>
	</g>
	<g display="inline">
		<path fill="#AA8561" d="M212.8-355.2c3.6,0,4.8-3.5,5.1-7h-1c-0.4,3.2-1.7,6.2-5,6.2c-2,0-4.3-0.9-6.1-2.4
			C207.7-356.5,210.4-355.2,212.8-355.2z"/>
		<path fill="#AA8561" d="M199.1-364.2v-2H221v-0.8h-22.8v2c0,3.8,2,7.1,4.9,9.5C200.7-357.8,199.1-360.9,199.1-364.2z"/>
	</g>
	<path display="inline" fill="#F6F3F0" d="M119.3-310.2c0.1,0,0.2,0,0.3,0c1.4,7.1,7.7,12.4,15.2,12.4c3.7,0,7.1-1.3,9.8-3.5
		c1.3,0.9,2.8,1.5,4.5,1.5c3,0,5.5-1.7,6.8-4.3c0.9,0.2,1.9,0.3,2.9,0.3c0.3,0,0.6,0,0.9,0c2.9-0.2,24.3,8.6,26.4,6.7
		c1.9-1.7-15.5-14-14.9-16.6c0.2-0.8,0.3-1.6,0.3-2.4c0,0,0,0,0.1,0c5.3,0,9.6-4.3,9.6-9.6c0-5.3-4.3-9.6-9.6-9.6
		c-0.8,0-1.5,0.1-2.2,0.3c-1.8-2.1-4.4-3.5-7.4-3.5c-1.2,0-2.4,0.2-3.5,0.7c-2.3-2.6-5.7-4.2-9.4-4.2c-4.1,0-7.7,1.9-10,4.9
		c-1.3-0.7-2.8-1.1-4.3-1.1c-3.7,0-6.8,2.1-8.3,5.1c-2-1.4-4.5-2.2-7.1-2.2c-6.9,0-12.5,5.6-12.5,12.5
		C106.8-315.8,112.4-310.2,119.3-310.2z"/>
	<path display="inline" fill="#E6E6E6" d="M157.6-306.2c-0.4,0-0.7,0-1.1,0c-1.1,0-2.2-0.1-3.3-0.4c-1.4,2.8-4.3,4.8-7.6,4.8
		c-1.9,0-3.6-0.6-5.1-1.7c-3,2.5-6.9,3.9-11,3.9c-0.7,0-1.4-0.1-2.1-0.1c2.1,1,4.4,1.6,6.9,1.6c3.7,0,7.1-1.3,9.8-3.5
		c1.3,0.9,2.8,1.5,4.5,1.5c3,0,5.5-1.7,6.8-4.3c0.9,0.2,1.9,0.3,2.9,0.3c0.3,0,0.6,0,0.9,0c2.9-0.2,24.3,8.6,26.4,6.7
		c0.2-0.2,0.2-0.6-0.1-1.1C179.3-298.9,160.5-306.4,157.6-306.2z"/>
	<path display="inline" fill="#E6E6E6" d="M173.4-316.6C173.4-316.6,173.4-316.6,173.4-316.6c3.8,0,6.9-3.1,6.9-6.8
		c0-0.1,0-0.1,0-0.2c-1.3,2.6-3.9,4.3-6.9,4.3c0,0,0,0-0.1,0c0,0.7-0.1,1.3-0.3,1.9c-0.1,0.2,0.1,0.6,0.3,1
		C173.4-316.5,173.4-316.6,173.4-316.6z"/>
	<path display="inline" fill="#FFFFFF" d="M110.6-314.7c0-7.3,5.9-13.3,13.3-13.3c2.8,0,5.4,0.9,7.6,2.4c1.6-3.2,5-5.4,8.8-5.4
		c1.6,0,3.2,0.4,4.6,1.1c2.4-3.1,6.3-5.2,10.6-5.2c4,0,7.5,1.7,10,4.5c1.1-0.4,2.4-0.7,3.7-0.7c3.1,0,5.9,1.4,7.8,3.7
		c0.8-0.2,1.6-0.3,2.4-0.3c0.6,0,1.2,0.1,1.8,0.2c-1-4.2-4.8-7.4-9.4-7.4c-0.8,0-1.5,0.1-2.2,0.3c-1.8-2.1-4.4-3.5-7.4-3.5
		c-1.2,0-2.4,0.2-3.5,0.7c-2.3-2.6-5.7-4.2-9.4-4.2c-4.1,0-7.7,1.9-10,4.9c-1.3-0.7-2.8-1.1-4.3-1.1c-3.7,0-6.8,2.1-8.3,5.1
		c-2-1.4-4.5-2.2-7.1-2.2c-6.9,0-12.5,5.6-12.5,12.5c0,3.6,1.5,6.8,3.9,9C110.6-314,110.6-314.4,110.6-314.7z"/>
	<path display="inline" fill="#8C6239" d="M337-273.8c-0.3,2.6-1.4,4.6-4,4.3c-2.6-0.3-3.3-2.4-3-5c0.3-2.6,1.4-4.6,4-4.3
		C336.6-278.6,337.3-276.4,337-273.8z"/>
	<path display="inline" fill="#333333" d="M316.4-278.8c-3.6,3.6-3.5,9.4,0,12.9l12.9-13C325.7-282.3,320-282.3,316.4-278.8z"/>
	<path display="inline" fill="#0E0E0E" d="M315.5-266.9c0.3,0.4,0.6,0.8,0.9,1.1l11.6-11.6L315.5-266.9z"/>
	<path display="inline" fill="#535353" d="M317.5-276.8c3-3.1,7.3-4.1,10.7-2.9c-3.6-2.6-8.6-2.2-11.8,1c-2.5,2.5-3.2,6-2.3,9.1
		C314.3-272.2,315.4-274.8,317.5-276.8z"/>
	<path display="inline" fill="#C69C6D" d="M350.7-276.2c-4.9-1.1-9.8,2.1-10.9,7l9.9,3.6l8,0.2C358.8-270.3,355.6-275.1,350.7-276.2
		z"/>
	<path display="inline" fill="#BD9261" d="M355.5-272.5c0.3,0.1,0.6,0.1,0.9,0.2c-1.3-1.9-3.3-3.4-5.7-3.9c-4.9-1.1-9.8,2.1-10.9,7
		l5.4,2C346.9-271.1,351.2-273.5,355.5-272.5z"/>
	<path display="inline" fill="#8C6239" d="M326.7-293.9c-4.8-16.1-7.8-16.2-8.9-16.2c-0.8,0-2.2,0.3-3.1,2.6
		c-2.7,7.5,7.7,15,8.9,15.8l4.7,3.3L326.7-293.9z"/>
	<path display="inline" fill="#744D28" d="M326-294.4l1.3,5.4l1.3,0.9l-1.6-5.5c-1-3.4-1.9-6-2.8-8.1
		C324.7-299.8,325.4-297.4,326-294.4z"/>
	<path display="inline" fill="#AA8561" d="M316-305.7c0.8-2.3,2.3-2.6,3.1-2.6c0.5,0,1.5,0,2.9,1.8c-2.1-3.7-3.4-3.7-4.1-3.7
		c-0.8,0-2.2,0.3-3.1,2.6c-1.2,3.4,0.2,6.7,2.3,9.5C315.8-300.4,315.1-303,316-305.7z"/>
	<path display="inline" fill="#8C6239" d="M351-307.3c-1.6-1.8-3.1-1.6-3.8-1.3c-1,0.4-3.8,1.6-2.3,18.3l0.5,5.7l3.2-4.8
		C349.3-290.5,356.2-301.3,351-307.3z"/>
	<path display="inline" fill="#744D28" d="M352.8-303.2c-0.7,5.4-4.8,11-5.4,11.9l-2.3,3.6l0.3,3.4l3.2-4.8
		C349.2-290,353.8-297.3,352.8-303.2z"/>
	<path display="inline" fill="#AA8561" d="M347.5-306.5c0.7-0.3,2.2-0.6,3.8,1.3c0.8,0.9,1.3,1.9,1.6,3c-0.1-1.8-0.6-3.6-1.9-5.1
		c-1.6-1.8-3.1-1.6-3.8-1.3c-0.9,0.4-3.2,1.4-2.7,13.3C344.4-305.1,346.7-306.1,347.5-306.5z"/>
	<path display="inline" fill="#C69C6D" d="M348.4-282c-0.9,7.3-7.2,9.5-14.5,8.5s-12.9-4.5-12-11.9c0.9-7.3,8-15.6,15.3-14.6
		S349.3-289.3,348.4-282z"/>
	<path display="inline" fill="#BD9261" d="M344.6-295.2c2.6,3.7,3.9,8.5,3.4,12.6c-0.9,7.5-7.7,9.6-15.5,8.6
		c-1.8-0.2-3.4-0.6-4.9-1.1c1.8,0.9,4,1.5,6.3,1.8c7.3,0.9,13.6-1.2,14.5-8.5C349-286.3,347.5-291.5,344.6-295.2z"/>
	<path display="inline" fill="#DCB890" d="M323.6-283.7c0.9-7.3,8-15.6,15.3-14.6c1.8,0.2,3.4,1,4.8,2.1c-1.8-2-4-3.4-6.6-3.7
		c-7.3-0.9-14.4,7.3-15.3,14.6c-0.5,4.1,1,7,3.7,9C324-278.2,323.2-280.7,323.6-283.7z"/>
	<g display="inline">
		<g>
			<path fill="#333333" d="M-274.8-275c-0.2-0.9-1.6-1.7-1.6-1.7l0-0.1c0.1,0,1.6,0.7,1.8,1.7L-274.8-275z"/>
		</g>
		<g>
			<path fill="#333333" d="M-276.1-275.1l-0.1,0c0.2-1.2,1.7-1.8,1.8-1.9l0.1,0.3C-274.3-276.6-275.9-276.1-276.1-275.1z"/>
		</g>
		<g>
			<path fill="#333333" d="M-275.3-273.4c-1.5,0-2.7-1.2-2.7-2.7c0-0.8,0.4-1.6,1-2.1c0.1-0.1,0.3-0.1,0.4,0c0.1,0.1,0.1,0.3,0,0.4
				c-0.5,0.4-0.8,1-0.8,1.7c0,1.2,1,2.2,2.2,2.2s2.2-1,2.2-2.2c0-0.6-0.3-1.2-0.7-1.6c-0.1-0.1-0.1-0.2,0-0.4c0.1-0.1,0.2-0.1,0.4,0
				c0.6,0.5,0.9,1.2,0.9,2C-272.7-274.6-273.9-273.4-275.3-273.4z"/>
		</g>
	</g>
	<g display="inline">
		<g>
			<path fill="#333333" d="M-274.6-91.4c-0.2-0.9-1.6-1.7-1.6-1.7l0-0.1c0.1,0,1.6,0.7,1.8,1.7L-274.6-91.4z"/>
		</g>
		<g>
			<path fill="#333333" d="M-275.9-91.5l-0.1,0c0.2-1.2,1.7-1.8,1.8-1.9l0.1,0.3C-274.1-93-275.7-92.5-275.9-91.5z"/>
		</g>
		<g>
			<path fill="#333333" d="M-275.1-89.8c-1.5,0-2.7-1.2-2.7-2.7c0-0.8,0.4-1.6,1-2.1c0.1-0.1,0.3-0.1,0.4,0c0.1,0.1,0.1,0.3,0,0.4
				c-0.5,0.4-0.8,1-0.8,1.7c0,1.2,1,2.2,2.2,2.2s2.2-1,2.2-2.2c0-0.6-0.3-1.2-0.7-1.6c-0.1-0.1-0.1-0.2,0-0.4c0.1-0.1,0.2-0.1,0.4,0
				c0.6,0.5,0.9,1.2,0.9,2C-272.5-91-273.7-89.8-275.1-89.8z"/>
		</g>
	</g>
	<path display="inline" fill="#8C6239" d="M346.2-89.2c0,2.6-0.9,4.7-3.5,4.7s-3.5-2.1-3.5-4.7c0-2.6,0.9-4.7,3.5-4.7
		S346.2-91.7,346.2-89.2z"/>
	<path display="inline" fill="#333333" d="M325.8-92.7c-5,0-9.1,4.1-9.1,9.1h18.3C334.9-88.6,330.8-92.7,325.8-92.7z"/>
	<path display="inline" d="M333.2-83.6h1.7c0-4.2-2.9-7.8-6.8-8.8C331.2-91,333.2-87.4,333.2-83.6z"/>
	<path display="inline" fill="#535353" d="M326.6-92.7c-0.3,0-0.6,0-0.9,0c-5,0-9.1,4.1-9.1,9.1h1.8C318.4-88.3,322-92.2,326.6-92.7
		z"/>
	<path display="inline" fill="#C69C6D" d="M360.2-92.7c-5,0-9.1,4.1-9.1,9.1h18.3C369.4-88.6,365.3-92.7,360.2-92.7z"/>
	<path display="inline" fill="#C69C6D" d="M356-96.6c0,7.4-6,10.3-13.4,10.3s-13.4-2.9-13.4-10.3s6-16.4,13.4-16.4S356-104,356-96.6
		z"/>
	<path display="inline" fill="#B18451" d="M342.7-112.9c-1,0-1.9,0.2-2.8,0.4c0.3,0,0.5-0.1,0.8-0.1c7.4,0,13.4,9.1,13.4,16.4
		c0,5.5-3.3,8.5-8,9.7c5.8-0.8,10-3.8,10-10.1C356.1-103.8,350.1-112.9,342.7-112.9z"/>
	<path display="inline" fill="#DCB890" d="M332.1-95.1c0-7.4,6-16.4,13.4-16.4c1,0,2,0.2,3,0.5c-1.7-1.2-3.7-1.9-5.7-1.9
		c-7.4,0-13.4,9.1-13.4,16.4c0,4.9,2.7,7.8,6.6,9.2C333.5-88.9,332.1-91.5,332.1-95.1z"/>
	<g display="inline">
		<path fill="#333333" d="M343.2-93c-0.2-0.9-1.6-1.7-1.6-1.7l0-0.1c0.1,0,1.6,0.7,1.8,1.7L343.2-93z"/>
	</g>
	<g display="inline">
		<path fill="#333333" d="M341.9-93.1l-0.1,0c0.2-1.2,1.7-1.8,1.8-1.9l0.1,0.3C343.7-94.6,342.1-94.1,341.9-93.1z"/>
	</g>
	<path display="inline" fill="none" stroke="#333333" stroke-width="0.5" stroke-linecap="round" stroke-miterlimit="10" d="
		M344.3-95.9c0.5,0.4,0.8,1.1,0.8,1.8c0,1.3-1.1,2.4-2.4,2.4s-2.4-1.1-2.4-2.4c0-0.8,0.4-1.4,0.9-1.9"/>
	<path display="inline" fill="#8C6239" d="M-150.4-144.3c-0.2-0.1-0.3-0.1-0.5-0.2l-0.2-7.3l0.2-1c-6.4-1.2-10-1-10.7,0.6
		c-0.1,0.3-0.5,1-0.1,1.9c0.5,1.2,2.2,2.1,5.3,3c0.2,0.1,0.3,0.2,0.4,0.3c-1.1,0.7-2.5,2-3.3,2.7c-0.4,0.4-0.7,0.9-0.7,1.4
		c0,0.9,0.2,1.7,0.8,2.2c0.5,0.5,1.1,0.7,1.9,0.7c0.1,0,0.3,0,0.4,0c1.5-0.1,2.9-1,4-1.7c0.5-0.3,1.3-0.8,1.6-0.8c0,0-0.1,0-0.1,0
		L-150.4-144.3z"/>
	<g display="inline">
		<path fill="#744D28" d="M-160.1-148.8c0.8,0.5,2,0.9,3.4,1.4c-0.1-0.1-0.2-0.2-0.3-0.2C-158.3-148-159.3-148.4-160.1-148.8z"/>
		<path fill="#744D28" d="M-150.4-144.3c-0.2-0.1-0.3-0.1-0.5-0.2l-0.2-7.3l0.2-1c-0.2,0-0.4-0.1-0.7-0.1l-0.1,0.8l0.2,7.3
			c0.2,0,0.3,0.1,0.5,0.2l-1,1.7c0.1,0,0.1,0,0.1,0c-0.3,0-1.1,0.5-1.6,0.8c-1.1,0.7-2.5,1.5-4,1.7c-0.1,0-0.3,0-0.4,0
			c-0.4,0-0.7-0.1-1-0.2c0.4,0.3,1,0.5,1.7,0.5c0.1,0,0.3,0,0.4,0c1.5-0.1,2.9-1,4-1.7c0.5-0.3,1.3-0.8,1.6-0.8c0,0-0.1,0-0.1,0
			L-150.4-144.3z"/>
	</g>
	<g display="inline">
		<path fill="#AA8561" d="M-161-149.9c-0.4-0.9-0.1-1.6,0.1-1.9c0.7-1.5,4.1-1.8,10-0.7l0.1-0.3c-6.4-1.2-10-1-10.7,0.6
			c-0.1,0.3-0.5,1-0.1,1.9c0.3,0.6,0.9,1.1,1.8,1.6C-160.5-149.1-160.8-149.5-161-149.9z"/>
		<path fill="#AA8561" d="M-158.5-140.3c-0.6-0.5-0.8-1.3-0.8-2.2c0-0.5,0.3-1,0.7-1.4c0.8-0.7,2.2-2,3.3-2.7
			c-0.1-0.1-0.3-0.2-0.4-0.3c-0.1,0-0.2-0.1-0.3-0.1c-1.1,0.8-2.5,2-3.3,2.7c-0.4,0.4-0.7,0.9-0.7,1.4c0,0.9,0.2,1.7,0.8,2.2
			C-159-140.5-158.7-140.4-158.5-140.3C-158.5-140.3-158.5-140.3-158.5-140.3z"/>
	</g>
	<polygon display="inline" fill="#C69C6D" points="-147.8,-212.8 -72.2,-176.4 -143,-118.4 	"/>
	<polygon display="inline" fill="#B18451" points="-143.3,-124.6 -143,-118.4 -72.7,-176 	"/>
	<polygon display="inline" fill="#DCB890" points="-144.3,-208.9 -86.5,-183.3 -147.8,-212.9 -144.1,-139.4 	"/>
	<polygon display="inline" fill="#C69C6D" points="-100.9,-217.8 -80.5,-192.7 -122.2,-200.5 	"/>
	<polygon display="inline" fill="#B18451" points="-111.8,-198.5 -80.5,-192.7 -83.7,-196.7 	"/>
	<polygon display="inline" fill="#DCB890" points="-95.4,-211.1 -100.9,-217.8 -122.2,-200.5 -117.6,-199.6 	"/>
	<path display="inline" fill="#C69C6D" d="M-125.6-103.9c0,7.4-6,10.3-13.4,10.3s-13.4-2.9-13.4-10.3c0-7.4,6-16.4,13.4-16.4
		S-125.6-111.2-125.6-103.9z"/>
	<g display="inline">
		<path fill="#B18451" d="M-130.1-115.6c2.5,3.2,4.1,7.2,4.1,10.9c0,7.4-6.3,10.3-14.2,10.3c-2.8,0-5.5-0.4-7.7-1.2
			c2.4,1.4,5.5,2.1,8.9,2.1c7.4,0,13.4-2.9,13.4-10.3C-125.6-107.8-127.3-112.3-130.1-115.6z"/>
		<path fill="#B18451" d="M-130.3-115.9c-0.1-0.1-0.1-0.1-0.2-0.2C-130.4-116-130.4-115.9-130.3-115.9z"/>
	</g>
	<path display="inline" fill="#DCB890" d="M-149.8-101.1c0-7.4,6-16.4,13.4-16.4c2.6,0,5.1,1.2,7.1,3c-2.4-3.3-5.8-5.7-9.6-5.7
		c-7.4,0-13.4,9.1-13.4,16.4c0,3.6,1.4,6.1,3.7,7.8C-149.3-97.5-149.8-99.1-149.8-101.1z"/>
	
		<ellipse transform="matrix(0.9668 -0.2557 0.2557 0.9668 19.4141 -45.6028)" display="inline" fill="#C69C6D" cx="-165.7" cy="-97.5" rx="5.7" ry="7.7"/>
	<path display="inline" fill="#DCB890" d="M-169.5-94c-1.1-4.1,0.5-8.1,3.6-8.9c1.6-0.4,3.3,0.1,4.7,1.3c-1.5-2.6-4.1-4.1-6.5-3.5
		c-3.1,0.8-4.7,4.8-3.6,8.9c0.5,2,1.5,3.6,2.8,4.7C-168.9-92.2-169.2-93.1-169.5-94z"/>
	<ellipse display="inline" fill="#333333" cx="-154.5" cy="-83.5" rx="3.6" ry="4.9"/>
	<path display="inline" fill="#535353" d="M-156.2-82c0-2.7,1.6-4.9,3.6-4.9c0.2,0,0.4,0,0.7,0.1c-0.7-1-1.6-1.6-2.7-1.6
		c-2,0-3.6,2.2-3.6,4.9c0,2.4,1.3,4.4,3,4.8C-155.8-79.6-156.2-80.8-156.2-82z"/>
	
		<ellipse transform="matrix(0.866 0.5 -0.5 0.866 -58.7923 51.4372)" display="inline" fill="#333333" cx="-125.4" cy="-84" rx="4.6" ry="5.7"/>
	<path display="inline" fill="#535353" d="M-128.2-84.9c1.6-2.7,4.6-3.9,6.8-2.6c0.1,0.1,0.3,0.2,0.4,0.3c-0.3-0.7-0.8-1.3-1.5-1.7
		c-2.2-1.3-5.2-0.1-6.8,2.6c-1.5,2.5-1.1,5.5,0.7,6.9C-129.4-80.9-129.3-83-128.2-84.9z"/>
	
		<ellipse transform="matrix(0.9851 -0.1722 0.1722 0.9851 11.8074 -25.2727)" display="inline" fill="#C69C6D" cx="-139.8" cy="-80.7" rx="6.1" ry="8.3"/>
	<path display="inline" fill="#DCB890" d="M-144-77.1c-0.8-4.5,1.3-8.6,4.6-9.2c1.6-0.3,3.3,0.3,4.6,1.5c-1.4-2.8-3.9-4.5-6.5-4
		c-3.3,0.6-5.4,4.7-4.6,9.2c0.4,2.3,1.5,4.3,2.9,5.5C-143.4-75-143.8-76-144-77.1z"/>
	
		<ellipse transform="matrix(0.99 0.1411 -0.1411 0.99 -14.3802 15.6598)" display="inline" fill="#C69C6D" cx="-117.6" cy="-93.6" rx="2.3" ry="3.1"/>
	<path display="inline" fill="#DCB890" d="M-119.3-93.2c0.2-1.7,1.5-2.9,2.7-2.7c0.3,0,0.6,0.2,0.9,0.4c-0.3-0.6-0.8-1-1.5-1.1
		c-1.3-0.2-2.5,1-2.7,2.7c-0.2,1.2,0.2,2.4,1,3C-119.3-91.5-119.4-92.4-119.3-93.2z"/>
	<g display="inline">
		<path fill="#333333" d="M-133.5-177.7c-0.4-9-6.2-6.6-8.8-2.8c-0.3,0.5-0.9,0.6-1.4,0.3c-0.5-0.3-0.6-0.9-0.3-1.4
			c2.2-3.4,4.9-5.1,7.2-4.5c2.3,0.6,3.9,3.3,4.3,7.4C-132.4-178.2-132.9-177.8-133.5-177.7C-133.4-177.7-133.5-177.7-133.5-177.7z"
			/>
	</g>
	<g display="inline">
		<path d="M-142.4-180.6c-0.3,0.4-0.8,0.6-1.2,0.4c0,0,0,0,0,0c0.5,0.3,1.1,0.1,1.4-0.3c1.5-2.3,4.3-4.1,6.3-3.1
			C-138-184.8-140.8-183-142.4-180.6z"/>
		<path d="M-136-185.9c1.8,1,3.1,3.5,3.3,7c0,0.5-0.3,1-0.8,1.1c0,0,0,0.1,0,0.1c0,0,0.1,0,0.1,0c0.6,0,1-0.5,0.9-1.1
			C-132.8-182.4-134.1-184.9-136-185.9z"/>
	</g>
	<g display="inline">
		<path fill="#535353" d="M-143.6-181.4c2.2-3.4,4.9-5.1,7.2-4.5c0.5,0.1,0.9,0.4,1.4,0.7c-0.5-0.4-1.1-0.8-1.7-0.9
			c-2.3-0.6-5,1.1-7.2,4.5c-0.3,0.5-0.2,1.1,0.3,1.4c0,0,0.1,0,0.1,0C-143.8-180.5-143.9-181-143.6-181.4z"/>
		<path fill="#535353" d="M-135.3-183.2c1,0.9,1.7,2.6,1.8,5.5c0,0,0.1,0,0.1,0c0.1,0,0.2,0,0.2-0.1
			C-133.4-180.8-134.2-182.5-135.3-183.2z"/>
	</g>
	<path display="inline" fill="#F9F3F3" d="M-143.3-169.4c-0.1-0.3-0.3-0.6-0.5-0.8c-0.7-0.6-1.5-0.9-2.3-0.9c-3.7,0-10.5,0-10.5,9.9
		c0,4.2,1.3,10,3.4,15.1c1.3,3.3,4,8.7,7.1,8.7c1.5,0,2.8-1.1,3.2-2.6C-139.3-155.9-142.9-168-143.3-169.4z"/>
	<path display="inline" fill="#E6E6E6" d="M-141.5-158.1c-0.2,5-1.1,11.3-3.9,18.1c-0.4,1-1.4,1.8-2.6,2.1c0.6,0.4,1.2,0.6,1.8,0.6
		c1.5,0,2.8-1.1,3.2-2.6C-141.4-147-141.2-153.2-141.5-158.1z"/>
	<path display="inline" fill="#FFFFFF" d="M-152.1-143.9c-2.1-5.1-3.4-10.8-3.4-15.1c0-9.9,6.9-9.9,10.5-9.9c0.7,0,1.4,0.3,2,0.7
		c-0.2-0.6-0.3-1-0.3-1.2c-0.1-0.3-0.3-0.6-0.5-0.8c-0.7-0.6-1.5-0.9-2.3-0.9c-3.7,0-10.5,0-10.5,9.9c0,4.2,1.3,10,3.4,15.1
		c0.5,1.3,1.2,2.8,2.1,4.3C-151.6-142.6-151.9-143.3-152.1-143.9z"/>
	<path display="inline" fill="#8C6239" d="M-152.3-167.4c-0.1-1.8-0.7-3.6-1.6-5.1c-1.9-3.2-5-4.1-7.8-2.4c-2.9,1.7-3.5,4.9-1.7,8h0
		c1.4,2.4,4.4,5,7.2,5c0.7,0,1.3-0.2,1.9-0.5C-152.9-163.3-152.2-165.1-152.3-167.4z"/>
	<g display="inline">
		<path fill="#744D28" d="M-152.5-168.7c0,0.1,0,0.1,0,0.2C-152.5-168.6-152.5-168.7-152.5-168.7z"/>
		<path fill="#744D28" d="M-152.3-167.4c0-0.1,0-0.2,0-0.3c0.2,2.3-0.6,4.1-2.1,4.9c-0.6,0.4-1.3,0.5-2,0.5c-1.6,0-3.2-0.8-4.6-1.9
			c1.4,1.3,3.2,2.2,4.9,2.2c0.7,0,1.3-0.2,1.9-0.5C-152.9-163.3-152.2-165.1-152.3-167.4z"/>
	</g>
	<path display="inline" fill="#AA8561" d="M-160.2-172.4c2.4-1.4,5-1,6.9,1.1c-0.2-0.5-0.4-0.9-0.7-1.3c-1.9-3.2-5-4.1-7.8-2.4
		c-2.9,1.7-3.5,4.9-1.7,8h0c0.3,0.5,0.6,1,1,1.4C-163.5-168.3-162.7-170.9-160.2-172.4z"/>
	<path display="inline" fill="#8C6239" d="M-103.5-113.9l2.9-6.4l-41.5-19.1c-1.7-0.8-3.7-0.1-4.6,1.6c-0.9,1.7-0.2,3.8,1.5,4.7
		C-145.1-133-103.5-113.9-103.5-113.9z"/>
	<path display="inline" fill="#AA8561" d="M-142.8-132.1c-1.7-0.9-2.4-3-1.5-4.7c0.7-1.5,2.4-2.2,3.9-1.8l-1.7-0.8
		c-1.7-0.8-3.7-0.1-4.6,1.6c-0.9,1.7-0.2,3.8,1.5,4.7C-145.1-133-142.7-132.1-142.8-132.1z"/>
	<g display="inline">
		<path fill="#BC4444" d="M-139.7-165c-0.3,0.2-0.6,0.3-0.8,0.2c-2.1-1.3,1.1-7.3,1.2-7.5c0.2-0.3,0.6-0.7,0.9-0.6
			C-133.6-172-141.1-167-139.7-165z"/>
	</g>
	<g display="inline">
		<path fill="#BC4444" d="M-134.8-171.5c0.2-0.1,0.4-0.2,0.6-0.1c1.4,1,0.6,3.9-0.2,4.8c-0.6,0.7-1.4,0.8-1.6,0.8
			C-139.3-166.9-133.9-170-134.8-171.5z"/>
	</g>
	<g display="inline">
		<path fill="#BC4444" d="M-131.8-166.1c-0.1,0.1-0.2-0.3-0.3-0.5c-0.4-1-0.1-2.2,0.4-2.7c0.4-0.5,0.9-0.5,1-0.5
			C-128.6-169.4-132.4-167.1-131.8-166.1z"/>
	</g>
	<polygon display="inline" fill="#C69C6D" points="-23.2,-193.4 69,-193.4 26.5,-115.1 	"/>
	<polygon display="inline" fill="#B18451" points="26.5,-118.7 19.3,-126.4 26.5,-115.1 56,-169.4 	"/>
	<polygon display="inline" fill="#DCB890" points="-18.4,-190.5 56.1,-193.2 -23.2,-193.2 14.8,-133.4 	"/>
	<path display="inline" fill="#8C6239" d="M15.1-168l0.4-0.6c-4.4,0.2-5.3,3.4-5.4,3.6l0.2,0.1c0-0.1,0.8-2,3.8-2.4
		C14.5-167.4,14.9-167.7,15.1-168z"/>
	<path display="inline" fill="#8C6239" d="M15.4-177.3c0.2-0.4,0.1-0.9-0.1-1.2c-1.6-2.6-0.6-4.4-0.5-4.5l-0.2,0
		c-0.1,0.1-2,2.9,0.5,6.4L15.4-177.3z"/>
	<path display="inline" fill="#8C6239" d="M34.2-91.3c0,2.6-0.9,4.6-3.5,4.6s-3.5-2.1-3.5-4.6c0-2.6,0.9-4.6,3.5-4.6
		S34.2-93.9,34.2-91.3z"/>
	<path display="inline" fill="#AFC8CE" d="M19.4-172.3l-29.3-6c-0.5,2.3-1,4.5-1.7,6.5l29.6,4.2c0.5-0.2,0.8-0.3,0.9-0.3
		c-0.4-0.5-0.6-0.9-0.7-1.4c-0.1-1,0.8-1.5,1.6-1.7l0.8-0.2l-0.6-0.5C19.8-171.8,19.6-172,19.4-172.3z"/>
	<path display="inline" fill="#D5E7EB" d="M-11.6-171.7c-0.1,0.2-0.1,0.3-0.2,0.5c-0.1,0.2-0.1,0.3-0.2,0.5l28.6,4.1
		c0.2-0.2,0.4-0.3,0.6-0.4c0.3-0.2,0.5-0.3,0.7-0.4L-11.6-171.7z"/>
	<path display="inline" fill="#F0F5F6" d="M17.9-179c-0.1-0.2-0.1-0.3-0.2-0.6l-26.5-6.6c0,0.2,0,0.3,0,0.5c0,0.2,0,0.3,0,0.5
		l27.2,6.8C18.2-178.6,18-178.8,17.9-179z"/>
	<path display="inline" fill="#8BB3BC" d="M-9.9-178.4C-9.9-178.3-9.9-178.3-9.9-178.4l29.2,6.1c-0.3-0.3-0.5-0.7-0.7-1.1l-28.4-5.8
		C-9.8-178.9-9.8-178.7-9.9-178.4z"/>
	<path display="inline" fill="#8C6239" d="M22.2-177.4c0.7-0.8,1.8-1.5,3.3-2l-0.1-0.3c-1.2,0.4-2.2,0.8-3.1,1.2
		c-0.2,0.1-0.5,0.2-0.7,0.3c-0.2,0.1-0.4,0.2-0.6,0.4l-0.4-0.1c-0.1-0.2-0.2-0.4-0.2-0.6c0-0.2-0.1-0.3-0.1-0.5
		c-0.1-2,1.6-4.6,4.4-6c0,0-6.9,2.9-7,4.9c0,0.2,0,0.3,0,0.4c0,0.2,0.1,0.4,0.2,0.6c0.1,0.2,0.3,0.5,0.5,0.6
		c0.8,0.7,2.1,0.8,2.3,0.8c-1.4,0.9-2.1,1.9-2.2,3c0,0.4,0,0.7,0.2,1.1c0.2,0.4,0.4,0.8,0.7,1.1c0.2,0.2,0.4,0.5,0.6,0.7
		c0.1,0.1,0.3,0.3,0.4,0.4c0.1,0.1,0.1,0.1,0.2,0.2c-0.1,0-0.2,0-0.3,0c-0.2,0-0.3,0.1-0.5,0.1c-0.8,0.2-1.7,0.7-1.6,1.7
		c0,0.4,0.3,0.9,0.7,1.4c-0.1,0-0.4,0.1-0.9,0.3c-0.2,0.1-0.5,0.2-0.7,0.4c-0.2,0.1-0.4,0.3-0.6,0.4c-0.8,0.7-1.7,1.9-2,3.8l0.7-0.3
		c0.4-0.2,0.7-0.5,0.8-0.9c0.3-1.1,0.8-1.9,1.2-2.4c0.2-0.2,0.3-0.3,0.5-0.4c0.2-0.2,0.5-0.3,0.6-0.4c0.3-0.1,0.5-0.2,0.5-0.2l0,0
		c0.1,0.1,0.1,0.1,0.2,0.2c0.1,0.1,0.3,0.3,0.4,0.4c0.1,0.1,0.3,0.3,0.4,0.4c0.7,0.7,1.4,1.1,1.4,1.1c-0.4-0.4-0.9-0.9-1.4-1.4
		c-0.1-0.2-0.3-0.3-0.4-0.5c-0.2-0.2-0.3-0.4-0.4-0.7c-0.2-0.6-0.2-1.3,0.4-1.9c0.2-0.2,0.4-0.3,0.6-0.5c0.2-0.1,0.4-0.2,0.6-0.3
		c0,0,0,0,0,0c0.5,0.3,0.9,0.5,1,0.6l0.1-1.5c0-0.4-0.2-0.8-0.5-1.2c-0.1-0.1-0.1-0.1-0.2-0.2c-0.2-0.2-0.3-0.5-0.3-0.8
		c-0.2-0.8,0-1.7,0.5-2.6C21.7-176.9,21.9-177.2,22.2-177.4z"/>
	<path display="inline" fill="#C69C6D" d="M38.7-94.8c-4.2,0-7.6,4.1-7.6,9h15.2C46.3-90.8,42.9-94.8,38.7-94.8z"/>
	<path display="inline" fill="#8C6239" d="M20.4-111c-1.2,0.8-11.5,8.2-8.9,15.6c0.8,2.2,2.2,2.6,3,2.6c0,0,0,0,0.1,0
		c1.1,0,4.1-0.1,8.9-16l1.7-5.5L20.4-111z"/>
	<path display="inline" fill="#AA8561" d="M12.9-94.7c-1.3-3.8,0.2-8.1,2.2-11.5c-2.6,3-5,6.9-3.6,10.9c0.7,2,1.9,2.5,2.7,2.6
		C13.7-93.2,13.3-93.8,12.9-94.7z"/>
	<path display="inline" fill="#C69C6D" d="M40-98.7c0,7.3-5.9,10.2-13.2,10.2s-13.2-2.9-13.2-10.2S19.4-115,26.7-115S40-106,40-98.7
		z"/>
	<path display="inline" fill="#BD9261" d="M31.1-86.1c5.6-0.4,10-2.7,11.1-7.6c-0.9-0.6-1.9-1-3-1.1c-1.2,3.1-4,4.9-7.6,5.7
		C31.3-88.1,31.1-87.1,31.1-86.1z"/>
	<path display="inline" fill="#B18451" d="M33.3-112.5c3.4,3.3,5.7,8.4,5.7,12.9c0,7.3-5.9,10.2-13.2,10.2c-3.9,0-7.3-0.8-9.7-2.6
		c2.4,2.4,6.3,3.5,10.7,3.5c7.3,0,13.2-2.9,13.2-10.2C40-103.6,37.3-109.3,33.3-112.5z"/>
	<path display="inline" fill="#DCB890" d="M15.6-97c0-7.3,5.9-16.3,13.2-16.3c2,0,3.8,0.7,5.5,1.8c-2.2-2.1-4.8-3.4-7.6-3.4
		c-7.3,0-13.2,9-13.2,16.3c0,3.9,1.7,6.5,4.4,8.1C16.4-92.2,15.6-94.3,15.6-97z"/>
	<g display="inline">
		<g>
			<path fill="#333333" d="M22.8-95.2c-0.2-0.9-1.3-1.7-1.3-1.7l0-0.1c0.1,0,1.3,0.7,1.5,1.7L22.8-95.2z"/>
		</g>
		<g>
			<g>
				<path fill="#333333" d="M21.7-95.2L21.7-95.2c0.1-1.2,1.3-1.8,1.3-1.9l0.1,0.3C23.1-96.8,21.9-96.3,21.7-95.2z"/>
			</g>
			<path fill="none" stroke="#333333" stroke-width="0.5" stroke-linecap="round" stroke-miterlimit="10" d="M23.6-98
				c0.4,0.4,0.7,1.1,0.7,1.8c0,1.3-0.9,2.4-1.9,2.4c-1.1,0-1.9-1.1-1.9-2.4c0-0.8,0.3-1.4,0.7-1.9"/>
		</g>
	</g>
	<path display="inline" fill="#8C6239" d="M34.5-109.8l-4.2-3.9l0.9,5.7c2.6,16.4,5.5,16.9,6.6,17.1c0.1,0,0.3,0,0.4,0
		c0.8,0,2-0.4,2.9-2.1C44.8-100.1,35.6-108.8,34.5-109.8z"/>
	<path display="inline" fill="#744D28" d="M40.2-102.7c1.1,3.3,1.5,7-0.1,10c-0.5,0.9-1,1.4-1.5,1.7c0.8-0.1,1.7-0.6,2.5-2.1
		C42.7-96.2,41.8-99.7,40.2-102.7z"/>
	<path display="inline" fill="#AA8561" d="M33.4-106.3l-0.8-5.4l-2.2-2l0.9,5.7c2.4,15.6,5.2,16.8,6.4,17.1
		C36.3-92.9,34.8-97.1,33.4-106.3z"/>
	<path display="inline" fill="#D4E1E4" d="M18.7-173.4c-0.1-0.3-0.2-0.7-0.2-1.1c0.1-1.1,0.8-2.1,2.2-3c-0.3,0-1.5-0.2-2.3-0.8
		l-27.2-6.8c-0.2,1.9-0.5,3.9-0.9,5.9L18.7-173.4z"/>
	<path display="inline" fill="#D4E1E4" d="M-8.9-195.7c-0.7-5-2.5-8-5-8.6c-2.5-0.5-5.3,1.6-8,5.9c-1.4,2.3-2.7,5.1-3.8,8.3l0.5,0.2
		l0.5,0.2l3.8,1.2l0,0c2.1,0.6,3.1,4.3,2.3,8.4c-0.8,4.1-3.2,7.1-5.4,6.8l0,0l-4-0.4l-0.5,0l-0.5,0c-0.7,9.6,1.3,16.8,5.2,17.7
		c0.2,0.1,0.5,0.1,0.7,0.1c2.3,0,4.8-2.1,7.2-6c1.5-2.4,2.8-5.4,3.9-8.8c0.1-0.2,0.1-0.3,0.2-0.5c0.1-0.2,0.1-0.3,0.2-0.5
		c0.7-2.1,1.2-4.3,1.7-6.5c0,0,0-0.1,0-0.1c0.1-0.3,0.1-0.6,0.2-0.9c0.4-2,0.7-4,0.9-5.9c0-0.2,0-0.3,0-0.5c0-0.2,0-0.3,0-0.5
		C-8.5-189.6-8.5-192.9-8.9-195.7z"/>
	<path display="inline" fill="#8C6239" d="M192.4-92.8c0,2.5-0.9,4.5-3.4,4.5c-2.5,0-3.4-2-3.4-4.5c0-2.5,0.9-4.5,3.4-4.5
		C191.5-97.2,192.4-95.2,192.4-92.8z"/>
	<path display="inline" fill="#F9F3F3" d="M199.1-146.2c0,7-5.7,9.8-12.7,9.8s-12.7-2.8-12.7-9.8s5.7-15.7,12.7-15.7
		S199.1-153.2,199.1-146.2z"/>
	<path display="inline" fill="#E6E6E6" d="M195.2-156.9c2.1,3,3.4,6.7,3.4,10c0,7-5.7,9.8-12.7,9.8c-4.5,0-8.5-1.2-10.8-3.8
		c2.1,3.2,6.4,4.6,11.3,4.6c7,0,12.7-2.8,12.7-9.8C199.2-149.8,197.7-153.8,195.2-156.9z"/>
	<path display="inline" fill="#FFFFFF" d="M174.7-144.5c0-7,5.7-15.7,12.7-15.7c3.7,0,7,2.3,9.3,5.6c-2.3-4.1-6.1-7.4-10.4-7.4
		c-7,0-12.7,8.6-12.7,15.7c0,2.5,0.7,4.5,2,6C175-141.5,174.7-142.9,174.7-144.5z"/>
	<path display="inline" fill="#8C6239" d="M186.4-169.6c-5,0-8,2.2-8,5.9c0,3.8,3.5,8.2,8,8.2s8-4.4,8-8.2
		C194.4-167.4,191.4-169.6,186.4-169.6z"/>
	<path display="inline" fill="#744D28" d="M190.7-168.9c1.9,1,3,2.6,3,4.8c0,3.8-3.5,8.2-8,8.2c-0.9,0-1.7-0.2-2.5-0.5
		c1,0.5,2.1,0.8,3.3,0.8c4.5,0,8-4.4,8-8.2C194.4-166.2,193.1-168,190.7-168.9z"/>
	<path display="inline" fill="#AA8561" d="M179.4-162.9c0-3.7,3-5.9,8-5.9c2.2,0,4.1,0.4,5.4,1.2c-1.4-1.4-3.6-2.1-6.6-2.1
		c-5,0-8,2.2-8,5.9c0,2.5,1.6,5.3,4,6.9C180.5-158.5,179.4-160.8,179.4-162.9z"/>
	<path display="inline" fill="#C69C6D" d="M194.1-90.9c-2.2,0-4,7.1-4,15.9h7.9C198.1-83.8,196.3-90.9,194.1-90.9z"/>
	<path display="inline" fill="#B18451" d="M195.5-90c1.4,2.4,2.4,8.1,2.4,14.6l-4.9,0.4h5.2C198.1-82,197-87.9,195.5-90z"/>
	<path display="inline" fill="#DCB890" d="M195-90.5c-0.3-0.3-0.6-0.5-1-0.5c-2.2,0-4,7.1-4,15.9h1.2C191.3-83.3,193-90,195-90.5z"
		/>
	<path display="inline" fill="#8C6239" d="M213.2-105c0-3.5-1.8-6.4-4.1-6.4c-1.6,0-3,1.4-3.6,3.5c-1.9-1.1-4.4-2.3-7.6-3.7
		l-5.2-2.3l2.7,5.1c0.6,1.1,5.8,10.5,12.5,10.5c0.5,0,1-0.1,1.6-0.2c2.1-0.5,2.7-1.6,2.8-2.4C212.8-102,213.2-103.4,213.2-105z"/>
	<path display="inline" fill="#C69C6D" d="M201.8-99.9c0,7-5.7,9.8-12.7,9.8s-12.7-2.8-12.7-9.8c0-7,5.7-15.7,12.7-15.7
		S201.8-106.9,201.8-99.9z"/>
	<path display="inline" fill="#B18451" d="M197.3-111.4c2.2,3,3.6,6.8,3.6,10.2c0,7-5.7,9.8-12.7,9.8c-4.3,0-8-1-10.3-3.4
		c2.1,3.3,6.4,4.6,11.3,4.6c7,0,12.7-2.8,12.7-9.8C201.9-103.8,200.1-108.2,197.3-111.4z"/>
	<path display="inline" fill="#DCB890" d="M178.2-98.2c0-7,5.7-15.7,12.7-15.7c2.2,0,4.2,0.8,6,2.2c-2.2-2.3-4.9-3.9-7.9-3.9
		c-7,0-12.7,8.6-12.7,15.7c0,3.5,1.4,6,3.8,7.6C178.9-93.8,178.2-95.8,178.2-98.2z"/>
	<path display="inline" fill="#744D28" d="M205.8-108c0,0.1-0.1,0.1-0.1,0.2c-1.9-1.1-4.4-2.3-7.6-3.7l-1.3-0.6c3,3,5,7.4,5.2,11.4
		c1.8,1.4,3.8,2.4,6,2.4c0,0,0,0,0.1,0c0.1-0.4,0.1-0.9,0.1-1.4C208.1-102.3,207.3-105.3,205.8-108z"/>
	<g display="inline">
		<path fill="#333333" d="M189.6-96.5c-0.2-0.9-1.5-1.6-1.5-1.6l0-0.1c0.1,0,1.5,0.6,1.8,1.6L189.6-96.5z"/>
	</g>
	<g display="inline">
		<path fill="#333333" d="M188.3-96.5l-0.1,0c0.2-1.2,1.7-1.7,1.7-1.8l0.1,0.3C190-98,188.5-97.5,188.3-96.5z"/>
	</g>
	<path display="inline" fill="none" stroke="#333333" stroke-width="0.5" stroke-linecap="round" stroke-miterlimit="10" d="
		M190.6-99.2c0.5,0.4,0.8,1,0.8,1.7c0,1.3-1,2.3-2.3,2.3c-1.3,0-2.3-1-2.3-2.3c0-0.7,0.3-1.4,0.9-1.8"/>
	<path display="inline" fill="#333333" d="M180.3-99.9c-2.5,0.5-3.3,7.1-1.6,14.7l9.2-2C186.3-94.7,182.9-100.4,180.3-99.9z"/>
	<path display="inline" fill="#535353" d="M181.1-98.9c0.8-0.2,1.8,0.3,2.7,1.3c-1.2-1.6-2.4-2.5-3.4-2.3c-2.5,0.5-3.3,7.1-1.6,14.7
		l0.5-0.1C177.9-92.4,178.7-98.4,181.1-98.9z"/>
	<path display="inline" fill="#8C6239" d="M188-111.4l-5.4-1.9l3.1,4.8c7.2,11.3,10.3,12.7,11.8,12.7c0.3,0,0.5-0.1,0.7-0.1
		c0.8-0.2,2.1-0.9,2.2-3.2C200.8-106.7,189.3-110.9,188-111.4z"/>
	<path display="inline" fill="#744D28" d="M195.6-107.4c2.3,2,4.1,4.5,3.9,7.6c-0.2,2.4-1.5,3-2.2,3.2c-0.2,0-0.4,0.1-0.7,0.1
		c-0.5,0-1.3-0.2-2.4-1c1.6,1.4,2.6,1.7,3.3,1.7c0.3,0,0.5-0.1,0.7-0.1c0.8-0.2,2.1-0.9,2.2-3.2
		C200.5-102.5,198.2-105.3,195.6-107.4z"/>
	<path display="inline" fill="#AA8561" d="M187-107.5l-3.1-4.8l5.4,1.9c0.6,0.2,3.6,1.3,6.5,3.2c-3.3-2.6-7.4-4.1-8.1-4.4l-5.4-1.9
		l3.1,4.8c5.2,8.1,8.3,11.1,10.1,12.2C193.6-98.1,190.9-101.4,187-107.5z"/>
	<path display="inline" fill="#8C6239" d="M353.4-106.4c-5.7-15.8-8.7-15.7-9.8-15.6c-0.8,0-2.2,0.4-2.9,2.7
		c-2.2,7.7,8.6,14.5,9.8,15.3l4.9,3L353.4-106.4z"/>
	<path display="inline" fill="#8C6239" d="M344.2-123.2c-0.6,0-1.1,0.1-1.6,0.2c-0.3,0-0.6,0.1-1,0.3c-1.9,0.8-3.3,2.4-3.8,4.4
		c-1.4,2.3-3.1,5.6-5.1,10.5l-2.2,5.3l5-2.8c0.6-0.4,3.8-2.2,6.6-5c0.7,0.2,1.4,0.4,2.1,0.4c3.7,0,6.7-3,6.7-6.7
		S347.8-123.2,344.2-123.2z"/>
	<path display="inline" fill="#744D28" d="M352.7-108.4c-0.8-2.2-1.6-4.1-2.3-5.6c-1,2.4-3.4,4.1-6.2,4.1c-0.2,0-0.4,0-0.6-0.1
		c1.1,1.4,2.4,2.5,3.6,3.5c0.3,0,0.5,0.1,0.8,0.1C349.8-106.4,351.5-107.1,352.7-108.4z"/>
	<path display="inline" fill="#AA8561" d="M333.7-107.4c2-4.9,3.7-8.3,5.1-10.5c0.5-2,2-3.6,3.8-4.4c0.4-0.2,0.7-0.3,1-0.3
		c0.5-0.1,1-0.2,1.6-0.2c0.5,0,1.1,0.1,1.6,0.2c-0.8-0.4-1.7-0.6-2.7-0.6c-0.6,0-1.1,0.1-1.6,0.2c-0.3,0-0.6,0.1-1,0.3
		c-1.9,0.8-3.3,2.4-3.8,4.4c-1.4,2.3-3.1,5.6-5.1,10.5l-2.2,5.3l1.7-0.9L333.7-107.4z"/>
	<path display="inline" fill="#744D28" d="M347.8-122.1c1.1,1.2,1.8,2.8,1.8,4.5c0,3.7-3,6.7-6.7,6.7c-0.7,0-1.5-0.1-2.1-0.4
		c-2.5,2.5-5.3,5.6-6.3,6.5l0.9-0.5c0.6-0.4,3.8-2.2,6.6-5c0.7,0.2,1.4,0.4,2.1,0.4c3.7,0,6.7-3,6.7-6.7
		C350.8-118.8,349.6-120.9,347.8-122.1z"/>
	<path display="inline" fill="#535353" d="M-291.5-274.6c-0.2,0-0.4,0-0.7,0c-5,0-9.1,4.1-9.1,9.1h1.3
		C-300-270.3-296.3-274.3-291.5-274.6z"/>
	<path display="inline" fill="#BD9261" d="M-256.7-274.6c-0.4-0.1-0.8-0.1-1.3-0.1c-5,0-9.1,4.1-9.1,9.1h3.1
		C-264-269.9-260.8-273.7-256.7-274.6z"/>
	<path display="inline" fill="#BD9261" d="M361.5-92.6c-0.4-0.1-0.8-0.1-1.3-0.1c-5,0-9.1,4.1-9.1,9.1h3.1
		C354.2-88,357.3-91.7,361.5-92.6z"/>
	<path display="inline" fill="#BD9261" d="M-104.7-274.6c-0.4-0.1-0.8-0.1-1.3-0.1c-5,0-9.1,4.1-9.1,9.1h3.1
		C-112-270-108.9-273.7-104.7-274.6z"/>
	<polygon display="inline" fill="#F6F3F0" points="-94.8,-358.4 -96.7,-364.6 -101.9,-366.4 -96.7,-368.3 -94.8,-374.5 -93,-368.3 
		-87.8,-366.4 -93,-364.6 	"/>
	<polygon display="inline" fill="#F6F3F0" points="201.3,-370.6 202.8,-365.7 206.9,-364.2 202.8,-362.7 201.3,-357.8 199.8,-362.7 
		195.7,-364.2 199.8,-365.7 	"/>
	<path display="inline" fill="#BD9261" d="M-113.7-289.4c1.9,3,3,6.5,3,9.7c0,7.4-6,10.3-13.4,10.3c-4.8,0-9-1.2-11.3-4.1
		c2.1,3.7,6.7,5.2,12.1,5.2c7.4,0,13.4-2.9,13.4-10.3C-110-282.2-111.4-286.3-113.7-289.4z"/>
	<path display="inline" fill="#DCB890" d="M-135.8-277.8c0-7.4,6-16.4,13.4-16.4c2.7,0,5.1,1.2,7.2,3c-2.2-2.3-5-3.9-8.1-3.9
		c-7.4,0-13.4,9.1-13.4,16.4c0,3.3,1.2,5.7,3.1,7.3C-135-272.9-135.8-275-135.8-277.8z"/>
	<g display="inline">
		<path fill="#333333" d="M-122.8-275c-0.2-0.9-1.6-1.7-1.6-1.7l0-0.1c0.1,0,1.6,0.7,1.8,1.7L-122.8-275z"/>
	</g>
	<g display="inline">
		<path fill="#333333" d="M-124.1-275.1l-0.1,0c0.2-1.2,1.7-1.8,1.8-1.9l0.1,0.3C-122.3-276.6-123.9-276.1-124.1-275.1z"/>
	</g>
	<g display="inline">
		<path fill="#333333" d="M-123.4-273.5c-1.5,0-2.7-1.2-2.7-2.7c0-0.8,0.4-1.6,1-2.1c0.1-0.1,0.3-0.1,0.4,0c0.1,0.1,0.1,0.3,0,0.4
			c-0.5,0.4-0.8,1-0.8,1.7c0,1.2,1,2.2,2.2,2.2s2.2-1,2.2-2.2c0-0.6-0.3-1.2-0.7-1.6c-0.1-0.1-0.1-0.2,0-0.4c0.1-0.1,0.2-0.1,0.4,0
			c0.6,0.5,0.9,1.2,0.9,2C-120.7-274.7-121.9-273.5-123.4-273.5z"/>
	</g>
	<path display="inline" fill="#BD9261" d="M37.9-289.4c1.9,3,3,6.5,3,9.7c0,7.4-6,10.3-13.4,10.3c-4.8,0-9-1.2-11.3-4.1
		c2.1,3.7,6.7,5.2,12.1,5.2c7.4,0,13.4-2.9,13.4-10.3C41.7-282.2,40.3-286.3,37.9-289.4z"/>
	<path display="inline" fill="#DCB890" d="M15.9-277.8c0-7.4,6-16.4,13.4-16.4c2.7,0,5.1,1.2,7.2,3c-2.2-2.3-5-3.9-8.1-3.9
		C21-295.1,15-286,15-278.6c0,3.3,1.2,5.7,3.1,7.3C16.7-272.9,15.9-275,15.9-277.8z"/>
	<g display="inline">
		<path fill="#333333" d="M28.9-275c-0.2-0.9-1.6-1.7-1.6-1.7l0-0.1c0.1,0,1.6,0.7,1.8,1.7L28.9-275z"/>
	</g>
	<g display="inline">
		<path fill="#333333" d="M27.5-275.1l-0.1,0c0.2-1.2,1.7-1.8,1.8-1.9l0.1,0.3C29.3-276.6,27.7-276.1,27.5-275.1z"/>
	</g>
	<g display="inline">
		<path fill="#333333" d="M28.3-273.5c-1.5,0-2.7-1.2-2.7-2.7c0-0.8,0.4-1.6,1-2.1c0.1-0.1,0.3-0.1,0.4,0c0.1,0.1,0.1,0.3,0,0.4
			c-0.5,0.4-0.8,1-0.8,1.7c0,1.2,1,2.2,2.2,2.2s2.2-1,2.2-2.2c0-0.6-0.3-1.2-0.7-1.6c-0.1-0.1-0.1-0.2,0-0.4c0.1-0.1,0.2-0.1,0.4,0
			c0.6,0.5,0.9,1.2,0.9,2C31-274.7,29.8-273.5,28.3-273.5z"/>
	</g>
	<g display="inline">
		<g>
			<path fill="#333333" d="M335.9-281c-0.2-0.9-1.6-1.7-1.6-1.7l0-0.1c0.1,0,1.6,0.7,1.8,1.7L335.9-281z"/>
		</g>
		<g>
			<path fill="#333333" d="M334.5-281l-0.1,0c0.2-1.2,1.7-1.8,1.8-1.9l0.1,0.3C336.3-282.6,334.7-282.1,334.5-281z"/>
		</g>
		<g>
			<path fill="#333333" d="M335.3-279.4c-1.5,0-2.7-1.2-2.7-2.7c0-0.8,0.4-1.6,1-2.1c0.1-0.1,0.3-0.1,0.4,0c0.1,0.1,0.1,0.3,0,0.4
				c-0.5,0.4-0.8,1-0.8,1.7c0,1.2,1,2.2,2.2,2.2s2.2-1,2.2-2.2c0-0.6-0.3-1.2-0.7-1.6c-0.1-0.1-0.1-0.2,0-0.4c0.1-0.1,0.2-0.1,0.4,0
				c0.6,0.5,0.9,1.2,0.9,2C338-280.6,336.8-279.4,335.3-279.4z"/>
		</g>
	</g>
	<path display="inline" fill="#AA8561" d="M-149.6-297.4c-0.3-0.7-0.4-1.5-0.4-2.3c0-3.7,3-6.7,6.7-6.7c1.8,0,3.4,0.7,4.6,1.8
		c-1.2-1.7-3.2-2.8-5.4-2.8c-3.7,0-6.7,3-6.7,6.7c0,0.8,0.2,1.6,0.4,2.3c0.4,1.8,1.4,3.3,2.7,4.7
		C-148.6-294.8-149.3-296-149.6-297.4z"/>
	<path display="inline" fill="#8C6239" d="M-128.5-135.8c-0.5-0.2-1.2-0.2-2.1,0c-7.8,1.6-8.9,14.3-9,15.8l-0.4,5.7l3.9-4.2
		c1.6-1.8,2.9-3.3,4.1-4.7c0.9,0.5,2,0.7,3.1,0.7c3.7,0,6.7-3,6.7-6.7C-122.4-132.6-125.1-135.5-128.5-135.8z"/>
	<path display="inline" fill="#744D28" d="M-122.7-131.2c0.1,0.4,0.1,0.7,0.1,1.1c0,3.7-3,6.7-6.7,6.7c-1.1,0-2.1-0.3-3.1-0.7
		c-0.7,0.9-2.4,3.6-3.9,5.8l0.1-0.1c1.6-1.8,2.9-3.3,4.1-4.7c0.9,0.5,2,0.7,3.1,0.7c3.7,0,6.7-3,6.7-6.7
		C-122.4-129.9-122.5-130.6-122.7-131.2z"/>
	<path display="inline" fill="#AA8561" d="M-129.7-133.4c0.9-0.2,1.6-0.1,2.1,0c2.1,0.2,3.9,1.3,5,2.9c-0.6-2.9-3-5.1-6-5.3
		c-0.5-0.2-1.2-0.2-2.1,0c-7.8,1.6-8.9,14.3-9,15.8l-0.1,1.7C-139.3-121.3-136.8-132-129.7-133.4z"/>
	<path display="inline" fill="#8C6239" d="M-76.5-104.2c4.2-9.1,5.2-18.4,3.1-24.6l0,0c-0.1-1.4-2.6-3.6-6.1-5.2
		c-3.5-1.6-6.8-2.1-7.9-1.3l0,0c-6.1,2.5-12.5,9.2-16.7,18.4c-4.2,9.1-5.2,18.4-3.1,24.6l14,6.5C-87.1-88.3-80.7-95-76.5-104.2z"/>
	<path display="inline" fill="#AA8561" d="M-99.8-112.4c4.2-9.1,10.6-15.9,16.7-18.4l0,0c1.1-0.8,4.4-0.3,7.9,1.3
		c0.7,0.3,1.3,0.6,1.9,1c0-0.1-0.1-0.2-0.1-0.3l0,0c-0.1-1.4-2.6-3.6-6.1-5.2s-6.8-2.1-7.9-1.3l0,0c-6.1,2.5-12.5,9.2-16.7,18.4
		s-5.2,18.4-3.1,24.6l3.7,1.7C-104.6-96.6-103.4-104.5-99.8-112.4z"/>
	<g display="inline">
		<path fill="#C7B299" d="M-92.7-127.8c-0.1-0.2-0.1-0.4,0-0.6c1.9-3,5.8-4.9,5.9-5c0.2-0.1,0.5,0,0.7,0.2c0.1,0.2,0,0.5-0.2,0.7
			c0,0-3.8,1.9-5.5,4.7c-0.1,0.2-0.5,0.3-0.7,0.2C-92.6-127.7-92.6-127.8-92.7-127.8z"/>
	</g>
	<g display="inline">
		<path fill="#C7B299" d="M-94.5-124.9c-0.1-0.2-0.1-0.4,0-0.6l0.9-1.3c0.2-0.2,0.5-0.3,0.7-0.1c0.2,0.2,0.3,0.5,0.1,0.7l-0.9,1.3
			c-0.2,0.2-0.5,0.3-0.7,0.1C-94.4-124.8-94.4-124.9-94.5-124.9z"/>
	</g>
	
		<ellipse transform="matrix(-0.3992 0.9169 -0.9169 -0.3992 -221.731 -33.3952)" display="inline" fill="#B18451" cx="-99.9" cy="-89.3" rx="2.6" ry="7.8"/>
	<path display="inline" fill="#F0F5F6" d="M-27-160.6c0-0.1,0-0.2,0-0.2c0-0.1,0-0.2-0.1-0.3c0-0.1,0-0.2,0-0.3
		c-0.1-0.6-0.2-1.3-0.2-1.9c0,0,0,0,0,0c-0.2-2.1-0.2-4.4,0-6.9l0,0c0-0.2,0-0.3,0-0.5c0-0.2,0-0.3,0-0.5c0-0.2,0-0.3,0-0.5
		c0.2-1.9,0.5-3.9,0.9-5.9c0.1-0.3,0.1-0.6,0.2-0.9c0,0,0-0.1,0-0.1c0.5-2.3,1-4.5,1.7-6.5c0.1-0.2,0.1-0.3,0.2-0.5
		c0.1-0.2,0.1-0.3,0.2-0.5c0.1-0.2,0.1-0.3,0.2-0.5l0,0c0.1-0.2,0.2-0.4,0.2-0.6c0.2-0.5,0.4-1.1,0.6-1.6c0.1-0.2,0.2-0.5,0.3-0.7
		c0.2-0.5,0.4-1,0.6-1.5c0.1-0.2,0.2-0.5,0.3-0.7c0.2-0.4,0.4-0.9,0.6-1.3c0.2-0.3,0.3-0.6,0.5-0.9c0.2-0.3,0.3-0.6,0.5-0.9
		c0,0,0,0,0-0.1c0.3-0.4,0.5-0.8,0.8-1.2c0-0.1,0.1-0.1,0.1-0.2c0.3-0.4,0.5-0.7,0.8-1c0-0.1,0.1-0.1,0.1-0.2
		c0.3-0.3,0.5-0.6,0.8-0.9c0,0,0.1-0.1,0.1-0.1c0.3-0.3,0.6-0.5,0.8-0.8c0,0,0,0,0,0c0.9-0.7,1.8-1.2,2.7-1.4c0,0,0,0,0,0
		c0.6-0.1,1.1-0.1,1.6,0c0.9,0.2,1.8,0.7,2.5,1.6c-0.9-2.9-2.4-4.7-4.2-5.1c-0.5-0.1-1.1-0.1-1.6,0c0,0,0,0,0,0
		c-0.9,0.2-1.8,0.7-2.7,1.4c0,0,0,0,0,0c-0.3,0.2-0.6,0.5-0.8,0.8c0,0-0.1,0.1-0.1,0.1c-0.3,0.3-0.5,0.6-0.8,0.9
		c0,0.1-0.1,0.1-0.1,0.2c-0.3,0.3-0.5,0.7-0.8,1c0,0.1-0.1,0.1-0.1,0.2c-0.3,0.4-0.5,0.8-0.8,1.2c0,0,0,0,0,0.1
		c-0.2,0.3-0.3,0.6-0.5,0.9c-0.2,0.3-0.4,0.6-0.5,0.9c-0.2,0.4-0.4,0.9-0.6,1.3c-0.1,0.2-0.2,0.5-0.3,0.7c-0.2,0.5-0.4,1-0.6,1.5
		c-0.1,0.2-0.2,0.5-0.3,0.7c-0.2,0.5-0.4,1-0.6,1.6c-0.1,0.2-0.2,0.4-0.2,0.6l0,0c-0.1,0.2-0.1,0.3-0.2,0.5
		c-0.1,0.2-0.1,0.3-0.2,0.5c-0.1,0.2-0.1,0.3-0.2,0.5c-0.7,2.1-1.2,4.3-1.7,6.5c0,0,0,0.1,0,0.1c-0.1,0.3-0.1,0.6-0.2,0.9
		c-0.4,2-0.7,4-0.9,5.9c0,0.2,0,0.3,0,0.5c0,0.2,0,0.3,0,0.5c0,0.2,0,0.3,0,0.5l0,0c-0.2,2.5-0.2,4.8,0,6.9c0,0,0,0,0,0
		c0.1,0.7,0.1,1.3,0.2,1.9c0,0.1,0,0.2,0,0.3c0,0.1,0,0.2,0.1,0.3c0,0.1,0,0.2,0,0.2c0.5,2.8,1.3,5,2.4,6.3
		C-26.6-158.6-26.8-159.5-27-160.6z"/>
	<path display="inline" fill="#4381A9" d="M-20.9-188.5L-20.9-188.5l-3.8-1.3l-0.5-0.2l-0.5-0.2l-14.7-4.8c0.7,0.7,1.2,1.7,1.5,2.9
		c0.6,2.2,0.7,4.9,0.1,7.7c-0.9,4.6-3.2,8-5.7,9.1l15.4,1.4l0.5,0l0.5,0l4,0.4l0,0c2.2,0.3,4.5-2.7,5.4-6.8
		C-17.8-184.3-18.8-187.9-20.9-188.5z"/>
	<path display="inline" fill="#2B688F" d="M-23.8-175.1L-23.8-175.1l-4-0.3l-0.5,0l-0.5,0l-13.5-1.2c-0.7,0.7-1.4,1.3-2.1,1.6
		l15.4,1.4l0.5,0l0.5,0l4,0.4l0,0c2.2,0.3,4.5-2.7,5.4-6.8c0.1-0.6,0.2-1.2,0.2-1.7C-19.2-177.8-21.6-174.8-23.8-175.1z"/>
	<path display="inline" fill="#D4E1E4" d="M-38.8-192c-0.4-1.2-0.9-2.2-1.5-2.9c-0.6-0.6-1.2-1-2-1.2c-3.2-0.7-6.7,3.5-8,9.4
		c-1.2,6,0.4,11.1,3.6,11.8c0.2,0,0.5,0.1,0.7,0.1c0.5,0,1.1-0.1,1.6-0.4c2.5-1.1,4.7-4.6,5.7-9.1C-38.2-187.1-38.2-189.8-38.8-192z
		"/>
	<g display="inline">
		<path fill="#F0F5F6" d="M-49.7-184.9c1.2-5.9,4.7-10.1,8-9.4c0.3,0.1,0.5,0.1,0.7,0.3c-0.2-0.3-0.5-0.6-0.8-0.8
			c0.3,0.2,0.6,0.5,0.8,0.8c0.5,0.2,0.9,0.5,1.2,0.9c0.3,0.3,0.6,0.7,0.8,1.1c0,0,0-0.1,0-0.1c-0.4-1.2-0.9-2.2-1.5-2.9
			c-0.6-0.6-1.2-1-2-1.2c-3.2-0.7-6.7,3.5-8,9.4c-0.8,3.8-0.4,7.3,0.8,9.5C-50.2-179.4-50.3-182-49.7-184.9z"/>
	</g>
	<path display="inline" fill="#66A3CB" d="M-25.2-188.3l0.5,0.2l0.5,0.2l3.8,1.2l0,0c0.8,0.2,1.5,1,1.9,2c-0.3-2-1.2-3.5-2.4-3.8
		l0,0l-3.8-1.2l-0.5-0.2l-0.5-0.2l-14.7-4.8c0.5,0.5,0.9,1.2,1.3,2.1L-25.2-188.3z"/>
	<path display="inline" fill="#F9F3F3" d="M82.3-133.5c0,7.4-6,10.3-13.4,10.3s-13.4-2.9-13.4-10.3s6-16.4,13.4-16.4
		S82.3-140.9,82.3-133.5z"/>
	<path display="inline" fill="#FFFFFF" d="M56.3-132.4c0-7.4,6-16.4,13.4-16.4c4.2,0,8,3,10.4,6.9c-2.4-4.5-6.5-8.1-11.1-8.1
		c-7.4,0-13.4,9.1-13.4,16.4c0,2.3,0.6,4.2,1.6,5.7C56.6-129.2,56.3-130.7,56.3-132.4z"/>
	<path display="inline" fill="#E6E6E6" d="M78.3-144.7c1.8,2.9,2.9,6.4,2.9,9.5c0,7.4-6,10.3-13.4,10.3c-4.6,0-8.7-1.1-11.1-3.8
		c2.1,3.8,6.8,5.4,12.2,5.4c7.4,0,13.4-2.9,13.4-10.3C82.4-137.2,80.8-141.5,78.3-144.7z"/>
	<path display="inline" fill="#8C6239" stroke="#8C6239" stroke-width="4" stroke-miterlimit="10" d="M62.6-151.9
		c0-2.9,2.8-4.1,6.3-4.1c3.5,0,6.3,1.1,6.3,4.1s-2.8,6.5-6.3,6.5C65.4-145.4,62.6-149,62.6-151.9z"/>
	<path display="inline" fill="#744D28" d="M74.8-156.5c1.2,1,1.8,2.4,1.8,4.1c0,3.9-3.6,8.5-8.3,8.5c-1.6,0-3.1-0.5-4.3-1.4
		c1.4,1.1,3.1,1.9,5,1.9c4.7,0,8.3-4.6,8.3-8.5C77.3-153.9,76.4-155.5,74.8-156.5z"/>
	<path display="inline" fill="#AA8561" d="M62.1-151.2c0-3.8,3.1-6.1,8.3-6.1c1.5,0,2.8,0.2,3.9,0.5c-1.4-0.8-3.2-1.2-5.5-1.2
		c-5.2,0-8.3,2.3-8.3,6.1c0,3.3,2.6,7.1,6.3,8.2C64-145.2,62.1-148.4,62.1-151.2z"/>
</g>
<g id="耳朵" display="none">
	<g id="耳朵9">
		<polygon display="inline" fill="#C69C6D" points="30.8,-226.7 62.2,-218.9 24.1,-200.1 		"/>
		<polygon display="inline" fill="#B18451" points="24.5,-201.9 24.1,-200.1 62.1,-218.9 61.9,-218.9 		"/>
		<polygon display="inline" fill="#DCB890" points="32.8,-223.4 53.8,-221 30.8,-226.8 24.7,-202.2 		"/>
		<polygon display="inline" fill="#C69C6D" points="-34.2,-226.6 -65.4,-218 -26.9,-200.2 		"/>
		<polygon display="inline" fill="#B18451" points="-29.6,-202.2 -35,-203.9 -26.9,-200.2 -34.2,-226.6 -35.1,-226.4 		"/>
		<polygon display="inline" fill="#DCB890" points="-57.4,-217.3 -38.5,-225.4 -65.4,-218 -32,-202.6 		"/>
	</g>
	<g id="耳朵8">
		<polygon display="inline" fill="#C69C6D" points="6.7,-216.5 33.1,-232.6 20.3,-194.2 		"/>
		<polygon display="inline" fill="#B18451" points="19.1,-196.2 20.3,-194.3 32,-229.3 		"/>
		<polygon display="inline" fill="#DCB890" points="9.6,-215.8 27.7,-229.3 6.7,-216.5 18.9,-196.4 		"/>
		<polygon display="inline" fill="#C69C6D" points="-14,-213.7 -37.6,-233.6 -30.8,-193.7 		"/>
		<polygon display="inline" fill="#B18451" points="-30,-227.2 -15.5,-214.1 -30.9,-194.1 -30.8,-193.7 -14,-213.7 		"/>
		<polygon display="inline" fill="#DCB890" points="-35.2,-230.4 -25.4,-223.4 -37.6,-233.7 -32.5,-203.5 		"/>
	</g>
	<g id="耳朵7">
		<polygon display="inline" fill="#C69C6D" points="25.1,-226.1 46.3,-218.7 16.2,-200.5 		"/>
		<polygon display="inline" fill="#B18451" points="17.1,-203.2 16.2,-200.5 46.3,-218.7 46.2,-218.7 		"/>
		<polygon display="inline" fill="#DCB890" points="26.5,-223.7 40,-220.9 25.2,-226.1 18,-205.4 		"/>
		<polygon display="inline" fill="#C69C6D" points="-28.4,-227.6 -49.4,-227.6 -28.4,-200.5 		"/>
		<polygon display="inline" fill="#B18451" points="-29.5,-203.1 -34.1,-207.8 -28.3,-200.4 -28.3,-222 		"/>
		<polygon display="inline" fill="#DCB890" points="-45.1,-225.5 -31.7,-227.6 -49.5,-227.6 -33.8,-207.5 		"/>
	</g>
	<g id="耳朵6">
		<polygon display="inline" fill="#C69C6D" points="-60.5,-227.9 -67.4,-196.3 -33.7,-222.1 		"/>
		<polygon display="inline" fill="#B18451" points="-66.5,-200.2 -67.4,-196.3 -33.7,-222.1 -33.9,-222.1 		"/>
		<polygon display="inline" fill="#DCB890" points="-57.8,-224.2 -39.7,-223.4 -60.5,-227.9 -66,-202.4 		"/>
		<polygon display="inline" fill="#C69C6D" points="51.9,-231.4 62.9,-201 26.1,-222 		"/>
		<polygon display="inline" fill="#B18451" points="54.9,-223.3 57.4,-207.7 33.6,-217.8 62.9,-201.1 		"/>
		<polygon display="inline" fill="#DCB890" points="53.2,-227.7 51.9,-231.4 26.1,-222 27,-221.5 		"/>
	</g>
	<g id="耳朵5">
		<polygon display="inline" fill="#C69C6D" points="23.8,-220.5 56.2,-220.5 23.8,-193.1 		"/>
		<polygon display="inline" fill="#B18451" points="50.5,-220.5 28.9,-197.4 56.1,-220.5 		"/>
		<polygon display="inline" fill="#DCB890" points="26.5,-219 40.9,-220.4 23.7,-220.4 23.7,-193 25.1,-194.2 		"/>
		<polygon display="inline" fill="#C69C6D" points="-59.2,-204.1 -46.7,-234 -33.9,-193.6 		"/>
		<polygon display="inline" fill="#B18451" points="-33.9,-193.6 -46.2,-232.3 -37.1,-196.4 -44.3,-197.9 		"/>
		<polygon display="inline" fill="#DCB890" points="-56.8,-204.7 -45,-228.9 -46.6,-233.9 -59.1,-204.1 -41.8,-196.8 		"/>
	</g>
	<g id="耳朵3">
		<polygon display="inline" fill="#C69C6D" points="-39.6,-225.8 -67.4,-209.3 -25.6,-202.3 		"/>
		<polygon display="inline" fill="#DCB890" points="-39.3,-224.4 -30.3,-210.2 -39.6,-225.8 -67.4,-209.3 -65.3,-208.9 		"/>
		<polygon display="inline" fill="#B18451" points="-33.4,-215.4 -26.8,-203.1 -66.8,-209.2 -25.6,-202.3 		"/>
		<polygon display="inline" fill="#C69C6D" points="34.6,-225.8 62.4,-209.3 20.6,-202.2 		"/>
		<polygon display="inline" fill="#B18451" points="46.5,-218.8 58.8,-210.1 30.7,-203.9 62.4,-209.4 		"/>
		<polygon display="inline" fill="#DCB890" points="35.2,-223.5 53,-214.9 34.6,-225.8 22,-204.4 		"/>
	</g>
	<g id="耳朵2">
		<polygon display="inline" fill="#C69C6D" points="27,-227.5 59.3,-227.5 27,-200.1 		"/>
		<polygon display="inline" fill="#C69C6D" points="-30,-227.5 -62.3,-227.5 -30,-200.1 		"/>
		<polygon display="inline" fill="#B18451" points="27,-202 27,-205.1 27,-200.1 52.5,-221.7 		"/>
		<polygon display="inline" fill="#DCB890" points="28.8,-225.7 50.6,-227.5 27,-227.5 27,-200.6 		"/>
		<polygon display="inline" fill="#B18451" points="-31.1,-201.5 -40.4,-208.9 -30,-200 -30,-223.5 		"/>
		<polygon display="inline" fill="#DCB890" points="-58.8,-226.4 -34.6,-227.5 -62.3,-227.5 -37.6,-206.5 		"/>
	</g>
	<g id="耳朵1">
		<polygon display="inline" fill="#C69C6D" points="67,-251.5 99.3,-251.5 67,-224.1 		"/>
		<polygon display="inline" fill="#B18451" points="67.1,-226 67,-229.1 67,-224.1 92.5,-245.7 		"/>
		<polygon display="inline" fill="#DCB890" points="68.8,-249.7 90.6,-251.5 67,-251.5 67,-224.6 		"/>
		<polygon display="inline" fill="#C69C6D" points="10,-251.5 -22.3,-251.5 10,-224.1 		"/>
		<polygon display="inline" fill="#B18451" points="8.9,-225.5 -0.4,-232.9 10,-224.1 10,-247.5 		"/>
		<polygon display="inline" fill="#DCB890" points="-18.8,-250.4 5.4,-251.5 -22.3,-251.5 2.4,-230.5 		"/>
	</g>
</g>
<g id="眼睛" display="none">
	<g id="眼睛1">
		<g display="inline">
			<path fill="#F6F3F0" d="M44,51.4C44,61.9,38,69,30.7,69s-13.4-7.1-13.4-17.6S23.3,31,30.7,31S44,40.9,44,51.4z"/>
			<path fill="#E6E6E6" d="M27.7,65.5c-3.1,0-6-1.3-8.3-3.6c2.4,3.5,6,5.6,9.9,5.6c7.4,0,13.4-7.1,13.4-17.6c0-0.4,0-0.8,0-1.2
				C41.6,58.1,34.5,65.5,27.7,65.5z"/>
			<path fill="#FFFFFF" d="M20,56c0-10.5,6-20.4,13.4-20.4c3.1,0,5.9,1.7,8.2,4.5c-2.4-5.4-6.4-9.2-11-9.2
				c-7.4,0-13.4,9.9-13.4,20.4c0,5.6,1.7,10.2,4.4,13.3C20.6,62.1,20,59.2,20,56z"/>
			<path fill="#8C6239" d="M30.7,71c-8.8,0-15.4-8.4-15.4-19.6c0-12.1,7-22.4,15.4-22.4S46,39.3,46,51.4C46,62.6,39.4,71,30.7,71z
				 M30.7,33c-5.9,0-11.4,8.8-11.4,18.4c0,9,4.8,15.6,11.4,15.6C37.2,67,42,60.4,42,51.4C42,41.8,36.6,33,30.7,33z"/>
			<g>
				<path fill="#AA8561" d="M15.8,52.5c0-12.1,7-22.4,15.4-22.4c5,0,9.6,3.7,12.4,9.4C40.8,33.2,36,29,30.7,29
					c-8.3,0-15.4,10.3-15.4,22.4c0,4.2,0.9,8,2.6,11.1C16.6,59.6,15.8,56.2,15.8,52.5z"/>
				<path fill="#AA8561" d="M31.2,68.1c6.6,0,11.4-6.6,11.4-15.6c0-4.1-1-7.9-2.5-11.1c1.3,2.9,2,6.4,2,10c0,9-4.8,15.6-11.4,15.6
					c-4,0-7.3-2.4-9.3-6.3C23.3,65.2,26.8,68.1,31.2,68.1z"/>
			</g>
			<g>
				<path fill="#744D28" d="M25.5,65.4c-3.7-2.5-6.2-7.6-6.2-14c0-9.6,5.4-18.4,11.4-18.4c1.1,0,2.2,0.3,3.2,0.8
					c-1.2-0.8-2.6-1.3-3.9-1.3c-5.9,0-11.4,8.8-11.4,18.4C18.6,57.8,21.3,63.2,25.5,65.4z"/>
				<path fill="#744D28" d="M36,30.5C41.4,34,45.3,42,45.3,51c0,11.2-6.6,19.6-15.4,19.6c-2.5,0-4.7-0.7-6.8-1.9
					c2.2,1.5,4.7,2.3,7.5,2.3C39.4,71,46,62.6,46,51.4C46,42,41.8,33.8,36,30.5z"/>
			</g>
			<path fill="#F6F3F0" d="M82.7,51.4c0,10.5-6,17.6-13.4,17.6C62,69,56,61.9,56,51.4S62,31,69.3,31C76.7,31,82.7,40.9,82.7,51.4z"
				/>
			<circle cx="33.5" cy="59.2" r="4.9"/>
			<circle cx="67.9" cy="59.2" r="4.9"/>
			<path fill="#FFFFFF" d="M58.8,55.9c0-10.5,6-20.4,13.4-20.4c3.1,0,5.9,1.7,8.2,4.5c-2.4-5.4-6.4-9.2-11-9.2
				c-7.4,0-13.4,9.9-13.4,20.4c0,5.6,1.7,10.2,4.4,13.3C59.4,62,58.8,59.1,58.8,55.9z"/>
			<path fill="#E6E6E6" d="M66.7,65.8c-3.1,0-6-1.3-8.3-3.6c2.4,3.5,6,5.6,9.9,5.6c7.4,0,13.4-7.1,13.4-17.6c0-0.4,0-0.8,0-1.2
				C80.6,58.4,73.5,65.8,66.7,65.8z"/>
			<path fill="#333333" d="M69.3,71C60.6,71,54,62.6,54,51.4C54,39.3,61,29,69.3,29s15.4,10.3,15.4,22.4C84.7,62.6,78.1,71,69.3,71z
				 M69.3,33C63.4,33,58,41.8,58,51.4c0,9,4.8,15.6,11.4,15.6c6.6,0,11.4-6.6,11.4-15.6C80.7,41.8,75.3,33,69.3,33z"/>
			<ellipse fill="#FFFFFF" cx="35.8" cy="57.3" rx="2.3" ry="2.9"/>
			<ellipse fill="#FFFFFF" cx="69.5" cy="57" rx="2.3" ry="2.9"/>
			<g>
				<path d="M64.1,65.4c-3.7-2.5-6.2-7.6-6.2-14c0-9.6,5.4-18.4,11.4-18.4c1.1,0,2.2,0.3,3.2,0.8c-1.2-0.8-2.6-1.3-3.9-1.3
					c-5.9,0-11.4,8.8-11.4,18.4C57.2,57.8,59.9,63.2,64.1,65.4z"/>
				<path d="M74.7,30.5C80.1,34,83.9,42,83.9,51c0,11.2-6.6,19.6-15.4,19.6c-2.5,0-4.7-0.7-6.8-1.9c2.2,1.5,4.7,2.3,7.5,2.3
					c8.8,0,15.4-8.4,15.4-19.6C84.7,42,80.4,33.8,74.7,30.5z"/>
			</g>
			<g>
				<path fill="#535353" d="M54.5,52.4c0-12.1,7-22.4,15.4-22.4c5,0,9.6,3.7,12.4,9.4C79.5,33.2,74.7,29,69.3,29
					C61,29,54,39.2,54,51.4c0,4.2,0.9,8,2.6,11.1C55.2,59.6,54.5,56.2,54.5,52.4z"/>
				<path fill="#535353" d="M69.8,68c6.6,0,11.4-6.6,11.4-15.6c0-4.1-1-7.9-2.5-11.1c1.3,2.9,2,6.4,2,10c0,9-4.8,15.6-11.4,15.6
					c-4,0-7.3-2.4-9.3-6.3C62,65.2,65.5,68,69.8,68z"/>
			</g>
		</g>
	</g>
	<g id="眼睛2">
		<path display="inline" fill="#F6F3F0" d="M-123.1-266.9c9.1,0,12.5-7.4,12.5-16.5h-33C-143.6-274.3-132.3-266.9-123.1-266.9z"/>
		<path display="inline" fill="#E6E6E6" d="M-113.3-284.2c-0.2,8.6-3.7,15.5-12.5,15.5c-4.1,0-8.6-1.5-12.4-4c4,3.1,9.2,5,13.8,5
			c9.1,0,12.5-7.4,12.5-16.5H-113.3z"/>
		<path display="inline" fill="#FFFFFF" d="M-139.1-280.2h28.5c0.1-0.8,0.1-1.6,0.1-2.4h-33c0,6.4,5.6,11.9,12.1,14.7
			C-135.8-270.9-139.1-275.3-139.1-280.2z"/>
		<path display="inline" fill="#8C6239" d="M-123.1-264.9c-10.2,0-22.5-8.3-22.5-18.5v-2h37v2C-108.6-271.6-113.9-264.9-123.1-264.9
			z M-141.4-281.4c1.5,6.9,10.7,12.5,18.3,12.5c7.8,0,10.1-6.4,10.4-12.5H-141.4z"/>
		<g display="inline">
			<path fill="#744D28" d="M-139.1-276.7c-1.1-1.4-1.9-3-2.3-4.7h28c0-0.3,0-0.5,0.1-0.8H-142C-141.6-280.1-140.5-278.3-139.1-276.7
				z"/>
			<path fill="#744D28" d="M-109.2-285.3v1.3c0,11.8-5.3,18.5-14.5,18.5c-6.5,0-13.9-3.4-18.4-8.5c4.4,5.5,12.2,9.2,19,9.2
				c9.2,0,14.5-6.7,14.5-18.5v-2H-109.2z"/>
		</g>
		<path display="inline" fill="#AA8561" d="M-145-282.6v-2h36.3v-0.8h-37v2c0,3.9,1.8,7.5,4.6,10.5
			C-143.5-275.7-145-279.1-145-282.6z"/>
		<path display="inline" fill="#AA8561" d="M-122.5-268.1c7.8,0,10-7,10.4-13.1l-0.6-0.2c-0.5,5.9-3,12.5-10.5,12.5
			c-5.2,0-11.1-2.6-14.8-6.5C-134.3-271.1-128-268.1-122.5-268.1z"/>
		<path display="inline" fill="#F6F3F0" d="M-81.1-266.9c-9.1,0-12.5-7.4-12.5-16.5h33C-60.6-274.3-72-266.9-81.1-266.9z"/>
		<path display="inline" fill="#E6E6E6" d="M-63.1-283.6c-1.2,8.4-11.8,15-20.4,15c-3.2,0-5.6-0.9-7.5-2.5c2,2.5,4.9,4,9,4
			c9.1,0,20.5-7.4,20.5-16.5H-63.1z"/>
		<path display="inline" fill="#FFFFFF" d="M-90.4-280.3h30.6c0.1-0.7,0.2-1.3,0.2-2h-33c0,6.4,1.7,11.9,5.8,14.7
			C-89.4-270.7-90.4-275.2-90.4-280.3z"/>
		<path display="inline" fill="#333333" d="M-81.1-264.9c-9.2,0-14.5-6.7-14.5-18.5v-2h37v2C-58.6-273.1-71-264.9-81.1-264.9z
			 M-91.6-281.4c0.4,6.1,2.6,12.5,10.4,12.5c7.6,0,16.8-5.6,18.3-12.5H-91.6z"/>
		<g display="inline">
			<path d="M-88-271.4c-2.4-2.4-3.3-6.2-3.5-9.9h28.3c0-0.1,0.1-0.2,0.1-0.3h-28.7C-91.7-277.8-90.7-273.8-88-271.4z"/>
			<path d="M-59-285.3v1.7c0,10.2-12.3,18.5-22.5,18.5c-3.9,0-7.1-1.2-9.5-3.6c2.4,2.5,5.8,3.9,9.9,3.9c10.2,0,22.5-8.3,22.5-18.5
				v-2H-59z"/>
		</g>
		<path display="inline" fill="#535353" d="M-95-282.6v-2h36.3v-0.8h-37v2c0,6.6,1.7,11.7,4.8,14.8C-93.5-271.8-95-276.5-95-282.6z"
			/>
		<path display="inline" fill="#535353" d="M-80.5-268.1c7.6,0,16.7-5.9,18.2-12.8l-0.6-0.4c-2,6.6-11,12.5-18.3,12.5
			c-3.1,0-5.3-1-6.9-2.6C-86.4-269.5-84-268.1-80.5-268.1z"/>
	</g>
	<g id="眼睛3">
		<g display="inline">
			<path fill="#8C6239" d="M-125.8-259.3c-3.4,0-6.2-1.4-7.8-3.4c-2.5-2.9-3.5-8.2,1.2-14.3c2.6-3.3,5.3-4.8,7.9-4.2
				c4.7,1,6.7,8,7,8.8c0.3,1.1-0.4,2.2-1.4,2.4c-1.1,0.3-2.2-0.3-2.4-1.4c-0.6-2.2-2.2-5.6-3.9-5.9c-1-0.2-2.4,0.8-3.9,2.8
				c-2.7,3.5-3.2,7-1.3,9.2c1.7,2,5.6,2.9,10.1,0.5c5.4-2.9,8-9.4,8.1-14.5c0.1-3.4-0.9-6.1-2.5-7.1c-3.1-1.9-7.6-2.4-11.6-1.4
				c-2.6,0.7-6.2,2.3-8.6,6.5c-0.6,1-1.8,1.3-2.7,0.7c-1-0.6-1.3-1.8-0.7-2.7c2.5-4.2,6.3-7.1,11.1-8.4c5-1.3,10.6-0.6,14.7,1.9
				c2.9,1.8,4.6,5.7,4.4,10.6c-0.2,6.3-3.4,14.2-10.2,17.9C-121.1-259.9-123.6-259.3-125.8-259.3z"/>
		</g>
		<g display="inline">
			<path fill="#744D28" d="M-117.9-273.5c0.1,0.3,0.2,0.6,0.2,0.7c0.3,1.1-0.4,2.2-1.4,2.4c-1,0.3-2-0.3-2.4-1.2
				c0,0.1,0.1,0.2,0.1,0.3c0.3,1.1,1.4,1.7,2.4,1.4c1.1-0.3,1.7-1.4,1.4-2.4C-117.6-272.5-117.7-272.9-117.9-273.5z"/>
			<path fill="#744D28" d="M-129.2-274.5c1.5-2,3-3,3.9-2.8c1.4,0.3,2.8,2.9,3.6,5c-0.7-2.2-2.2-5.2-3.8-5.5c-1-0.2-2.4,0.8-3.9,2.8
				c-2.2,2.8-2.9,5.6-2.2,7.7C-132-269.3-131.2-271.9-129.2-274.5z"/>
			<path fill="#744D28" d="M-135.1-281.4c2.4-4.2,6-5.8,8.6-6.5c4-1,8.5-0.4,11.6,1.4c0.8,0.5,1.4,1.4,1.8,2.5c-0.4-1.4-1.1-2.5-2-3
				c-3.1-1.9-7.6-2.4-11.6-1.4c-2.6,0.7-6.2,2.3-8.6,6.5c-0.6,1-1.8,1.3-2.7,0.7c-0.4-0.2-0.6-0.5-0.8-0.8c0.1,0.5,0.4,1,1,1.3
				C-136.9-280.1-135.6-280.4-135.1-281.4z"/>
			<path fill="#744D28" d="M-109.1-284.7c0.4,1.5,0.6,3.2,0.6,5c-0.2,6.3-3.4,14.2-10.2,17.9c-2.6,1.4-5,2-7.2,2
				c-3.4,0-6.2-1.4-7.8-3.4c-0.6-0.7-1.1-1.6-1.5-2.5c0.4,1.2,0.9,2.2,1.7,3c1.7,2,4.5,3.4,7.8,3.4c2.2,0,4.7-0.6,7.2-2
				c6.8-3.7,10-11.7,10.2-17.9C-108.3-281.3-108.5-283.1-109.1-284.7z"/>
		</g>
		<g display="inline">
			<path fill="#AA8561" d="M-123.8-276.1c1,1.3,1.9,3.3,2.3,4.8c0.1,0.5,0.5,1,1,1.2c-0.1-0.1-0.2-0.3-0.2-0.5
				C-121.2-272.4-122.5-275.1-123.8-276.1z"/>
			<path fill="#AA8561" d="M-119.8-264.1c5.4-2.9,8-9.4,8.1-14.5c0.1-3.2-0.8-5.8-2.3-6.9c1,1.3,1.6,3.5,1.5,6.2
				c-0.1,5.1-2.7,11.6-8.1,14.5c-4,2.2-7.5,1.7-9.4,0.2c0,0,0,0.1,0.1,0.1C-128.2-262.6-124.3-261.6-119.8-264.1z"/>
			<path fill="#AA8561" d="M-137.9-282.6c2.5-4.2,6.3-7.1,11.1-8.4c5-1.3,10.6-0.6,14.7,1.9c0.3,0.2,0.6,0.4,0.9,0.7
				c-0.5-0.6-1.1-1.1-1.7-1.4c-4-2.4-9.6-3.2-14.7-1.9c-4.8,1.2-8.7,4.1-11.1,8.4c-0.6,1-0.2,2.2,0.7,2.7c0,0,0,0,0,0
				C-138.2-281.3-138.3-282-137.9-282.6z"/>
			<path fill="#AA8561" d="M-132.9-261.9c-2.5-2.9-3.5-8.2,1.2-14.3c2.6-3.3,5.3-4.8,7.9-4.2c1.1,0.2,2.1,0.8,2.9,1.5
				c-1-1.1-2.2-2-3.6-2.3c-2.6-0.5-5.3,0.9-7.9,4.2c-4.7,6-3.7,11.3-1.2,14.3c0.3,0.3,0.5,0.6,0.8,0.9
				C-132.9-261.9-132.9-261.9-132.9-261.9z"/>
		</g>
		<path display="inline" fill="none" stroke="#333333" stroke-width="4" stroke-linecap="round" stroke-miterlimit="10" d="
			M-77.5-271.8c0,0-3.7-13.8-11.3-3.9s1.3,18.1,11.3,12.7s11.7-21.4,5.7-25.1c-6-3.7-17.7-3.5-23,5.8"/>
		<g display="inline">
			<path d="M-75.8-273.5c0.1,0.3,0.2,0.6,0.2,0.7c0.3,1.1-0.4,2.2-1.4,2.4c-1,0.3-2-0.3-2.4-1.2c0,0.1,0.1,0.2,0.1,0.3
				c0.3,1.1,1.4,1.7,2.4,1.4c1.1-0.3,1.7-1.4,1.4-2.4C-75.5-272.5-75.6-272.9-75.8-273.5z"/>
			<path d="M-87.1-274.4c1.5-2,3-3,3.9-2.8c1.4,0.3,2.8,2.9,3.6,5c-0.7-2.2-2.2-5.2-3.8-5.5c-1-0.2-2.4,0.8-3.9,2.8
				c-2.2,2.8-2.9,5.6-2.2,7.7C-89.9-269.3-89.1-271.8-87.1-274.4z"/>
			<path d="M-93-281.4c2.4-4.2,6-5.8,8.6-6.5c4-1,8.5-0.4,11.6,1.4c0.8,0.5,1.4,1.4,1.8,2.5c-0.4-1.4-1.1-2.5-2-3
				c-3.1-1.9-7.6-2.4-11.6-1.4c-2.6,0.7-6.2,2.3-8.6,6.5c-0.6,1-1.8,1.3-2.7,0.7c-0.4-0.2-0.6-0.5-0.8-0.8c0.1,0.5,0.4,1,1,1.3
				C-94.7-280.1-93.5-280.4-93-281.4z"/>
			<path d="M-66.9-284.7c0.4,1.5,0.6,3.2,0.6,5c-0.2,6.3-3.4,14.2-10.2,17.9c-2.6,1.4-5,2-7.2,2c-3.4,0-6.2-1.4-7.8-3.4
				c-0.6-0.7-1.1-1.6-1.5-2.5c0.4,1.2,0.9,2.2,1.7,3c1.7,2,4.5,3.4,7.8,3.4c2.2,0,4.7-0.6,7.2-2c6.8-3.7,10-11.7,10.2-17.9
				C-66.2-281.3-66.4-283.1-66.9-284.7z"/>
		</g>
		<g display="inline">
			<path fill="#535353" d="M-81.7-276.1c1,1.3,1.9,3.3,2.3,4.8c0.1,0.5,0.5,1,1,1.2c-0.1-0.1-0.2-0.3-0.2-0.5
				C-79.1-272.4-80.3-275-81.7-276.1z"/>
			<path fill="#535353" d="M-77.7-264c5.4-2.9,8-9.4,8.1-14.5c0.1-3.2-0.8-5.8-2.3-6.9c1,1.3,1.6,3.5,1.5,6.2
				c-0.1,5.1-2.7,11.6-8.1,14.5c-4,2.2-7.5,1.7-9.4,0.2c0,0,0,0.1,0.1,0.1C-86.1-262.5-82.2-261.5-77.7-264z"/>
			<path fill="#535353" d="M-95.8-282.6c2.5-4.2,6.3-7.1,11.1-8.4c5-1.3,10.6-0.6,14.7,1.9c0.3,0.2,0.6,0.4,0.9,0.7
				c-0.5-0.6-1.1-1.1-1.7-1.4c-4-2.4-9.6-3.2-14.7-1.9c-4.8,1.2-8.7,4.1-11.1,8.4c-0.6,1-0.2,2.2,0.7,2.7c0,0,0,0,0,0
				C-96.1-281.2-96.1-282-95.8-282.6z"/>
			<path fill="#535353" d="M-90.8-261.9c-2.5-2.9-3.5-8.2,1.2-14.3c2.6-3.3,5.3-4.8,7.9-4.2c1.1,0.2,2.1,0.8,2.9,1.5
				c-1-1.1-2.2-2-3.6-2.3c-2.6-0.5-5.3,0.9-7.9,4.2c-4.7,6-3.7,11.3-1.2,14.3c0.3,0.3,0.5,0.6,0.8,0.9
				C-90.8-261.8-90.8-261.9-90.8-261.9z"/>
		</g>
	</g>
	<g id="眼睛4">
		<path display="inline" fill="#F6F3F0" d="M164.4-273.5c0,10.5-6,17.6-13.4,17.6c-7.4,0-13.4-7.1-13.4-17.6s6-20.4,13.4-20.4
			C158.4-293.9,164.4-284,164.4-273.5z"/>
		<path display="inline" fill="#E6E6E6" d="M158.8-287.4c1.5,3.3,2.4,7.3,2.4,11.3c0,10.5-6,17.6-13.4,17.6c-4.2,0-7.9-2.2-10.3-6.1
			c2.3,5.3,6.6,8.5,11.6,8.5c7.4,0,13.4-7.1,13.4-17.6C162.5-278.7,161.1-283.6,158.8-287.4z"/>
		<path display="inline" fill="#FFFFFF" d="M139.8-268.8c0-10.5,6-20.4,13.4-20.4c3.5,0,6.7,2.3,9.1,5.8c-2.4-5.4-6.4-9.1-11-9.1
			c-7.4,0-13.4,9.9-13.4,20.4c0,4.9,1.3,9.1,3.5,12.2C140.4-262.6,139.8-265.5,139.8-268.8z"/>
		<path display="inline" fill="#8C6239" d="M151-253.9c-8.8,0-15.4-8.4-15.4-19.6c0-12.1,7-22.4,15.4-22.4s15.4,10.3,15.4,22.4
			C166.4-262.3,159.8-253.9,151-253.9z M151-291.9c-5.9,0-11.4,8.8-11.4,18.4c0,9,4.8,15.6,11.4,15.6s11.4-6.6,11.4-15.6
			C162.4-283.1,157-291.9,151-291.9z"/>
		<g display="inline">
			<path fill="#744D28" d="M139.6-273.6c0-9.6,5.4-18.4,11.4-18.4c3.9,0,7.6,3.8,9.7,9.2c-1.9-6-5.9-10.3-10.1-10.3
				c-5.9,0-11.4,8.8-11.4,18.4c0,2.9,0.5,5.6,1.4,7.9C139.9-268.9,139.6-271.2,139.6-273.6z"/>
			<path fill="#744D28" d="M164.4-284.3c1,2.9,1.5,6.1,1.5,9.5c0,11.2-6.6,19.6-15.4,19.6c-6.2,0-11.4-4.3-13.8-10.8
				c2.2,7.1,7.6,11.9,14.2,11.9c8.8,0,15.4-8.4,15.4-19.6C166.3-277.5,165.6-281.1,164.4-284.3z"/>
		</g>
		<g display="inline">
			<path fill="#AA8561" d="M151.8-256.9c6.6,0,11.4-6.6,11.4-15.6c0-6.3-2.3-12.1-5.5-15.5c2.8,3.5,4.7,8.8,4.7,14.5
				c0,9-4.8,15.6-11.4,15.6c-2.7,0-5.1-1.1-7-3.1C146-258.4,148.7-256.9,151.8-256.9z"/>
			<path fill="#AA8561" d="M136.5-272.5c0-12.1,7-22.4,15.4-22.4c3.3,0,6.4,1.6,8.9,4.3c-2.7-3.3-6.1-5.3-9.8-5.3
				c-8.3,0-15.4,10.3-15.4,22.4c0,6.3,2.1,11.7,5.5,15.3C138.2-261.7,136.5-266.7,136.5-272.5z"/>
		</g>
		<path display="inline" d="M142.1-268.3c-2.3,3.9-2.8,8.3-1.8,12.4c-2.2-4.1-2.4-9.2,0.1-13.3c2.4-4.1,6.8-6.3,11.4-6.4
			C147.9-274.6,144.4-272,142.1-268.3z"/>
		<path display="inline" fill="#F6F3F0" d="M203.1-273.5c0,10.5-6,17.6-13.4,17.6s-13.4-7.1-13.4-17.6s6-20.4,13.4-20.4
			S203.1-284,203.1-273.5z"/>
		<path display="inline" fill="#E6E6E6" d="M198.1-288.1c1.5,3.3,2.4,7.3,2.4,11.3c0,10.5-6,17.6-13.4,17.6c-4.2,0-7.9-2.2-10.3-6.1
			c2.3,5.3,6.6,8.5,11.6,8.5c7.4,0,13.4-7.1,13.4-17.6C201.8-279.5,200.4-284.4,198.1-288.1z"/>
		<path display="inline" fill="#FFFFFF" d="M179.1-269.6c0-10.5,6-20.4,13.4-20.4c3.5,0,6.7,2.3,9.1,5.8c-2.4-5.4-6.4-9.1-11-9.1
			c-7.4,0-13.4,9.9-13.4,20.4c0,4.9,1.3,9.1,3.5,12.2C179.7-263.3,179.1-266.3,179.1-269.6z"/>
		<path display="inline" fill="#333333" d="M189.7-253.9c-8.8,0-15.4-8.4-15.4-19.6c0-12.1,7-22.4,15.4-22.4s15.4,10.3,15.4,22.4
			C205.1-262.3,198.4-253.9,189.7-253.9z M189.7-291.9c-5.9,0-11.4,8.8-11.4,18.4c0,9,4.8,15.6,11.4,15.6s11.4-6.6,11.4-15.6
			C201.1-283.1,195.6-291.9,189.7-291.9z"/>
		<g display="inline">
			<path d="M178.3-273.6c0-9.6,5.4-18.4,11.4-18.4c3.9,0,7.6,3.8,9.7,9.2c-1.9-6-5.9-10.3-10.1-10.3c-5.9,0-11.4,8.8-11.4,18.4
				c0,2.9,0.5,5.6,1.4,7.9C178.7-268.9,178.3-271.2,178.3-273.6z"/>
			<path d="M203.1-284.3c1,2.9,1.5,6.1,1.5,9.5c0,11.2-6.6,19.6-15.4,19.6c-6.2,0-11.4-4.3-13.8-10.8c2.2,7.1,7.6,11.9,14.2,11.9
				c8.8,0,15.4-8.4,15.4-19.6C205-277.5,204.3-281.1,203.1-284.3z"/>
		</g>
		<g display="inline">
			<path fill="#535353" d="M190.6-256.9c6.6,0,11.4-6.6,11.4-15.6c0-6.3-2.3-12.1-5.5-15.5c2.8,3.5,4.7,8.8,4.7,14.5
				c0,9-4.8,15.6-11.4,15.6c-2.7,0-5.1-1.1-7-3.1C184.7-258.4,187.4-256.9,190.6-256.9z"/>
			<path fill="#535353" d="M175.2-272.5c0-12.1,7-22.4,15.4-22.4c3.3,0,6.4,1.6,8.9,4.3c-2.7-3.3-6.1-5.3-9.8-5.3
				c-8.3,0-15.4,10.3-15.4,22.4c0,6.3,2.1,11.7,5.5,15.3C177-261.7,175.2-266.7,175.2-272.5z"/>
		</g>
		<path display="inline" d="M197.8-268.5c3.1,3.3,4.6,7.5,4.5,11.7c1.3-4.5,0.3-9.5-3-13c-3.3-3.4-8-4.7-12.5-3.7
			C190.7-273.4,194.7-271.7,197.8-268.5z"/>
	</g>
	<g id="眼睛5">
		<path display="inline" fill="#F6F3F0" d="M-240.6-251.9c0,10-7.1,19.1-15.8,19.1c-8.8,0-15.8-7.2-15.8-17.3s7.1-19.1,15.8-19.1
			C-247.7-269.2-240.6-262-240.6-251.9z"/>
		<path display="inline" fill="#E6E6E6" d="M-244.2-263.2c1.1,2.3,1.7,5,1.7,7.9c0,10-7.1,19.1-15.8,19.1c-5,0-9.5-2.4-12.4-6.4
			c2.6,5.7,8,9.4,14.2,9.4c8.8,0,15.8-9,15.8-19.1C-240.7-256.5-242-260.3-244.2-263.2z"/>
		<g display="inline">
			<path fill="#29ABE2" d="M-255.9-238c-4.7,0-9.2-1-11.8-3.1c2.2,3.5,5.9,6.2,11.2,6.2c4.8,0,8.2-2.9,10.2-5.7
				C-248.9-239-252.2-238-255.9-238z"/>
		</g>
		<path display="inline" fill="#1498C6" d="M-250.5-238.7c-2.3,1.6-4.9,2.5-7.7,2.5c-2.3,0-4.5-0.5-6.4-1.4c2.1,1.7,4.9,2.8,8.3,2.8
			c4.8,0,8.2-2.9,10.2-5.7C-247.4-239.8-248.9-239.1-250.5-238.7z"/>
		<path display="inline" fill="#FFFFFF" d="M-270.3-244c0-10,7.1-19.1,15.8-19.1c5.6,0,10.4,2.9,13.3,7.6
			c-1.5-8.1-7.9-13.6-15.5-13.6c-8.8,0-15.8,9-15.8,19.1c0,3.7,1,7,2.6,9.7C-270.2-241.5-270.3-242.8-270.3-244z"/>
		<path display="inline" fill="#8C6239" d="M-256.5-230.8c-10,0-17.8-8.5-17.8-19.3c0-11.4,8.2-21.1,17.8-21.1
			c10,0,17.8,8.5,17.8,19.3C-238.6-240.5-246.8-230.8-256.5-230.8z M-256.5-267.2c-7.4,0-13.8,8-13.8,17.1c0,8.7,6,15.3,13.8,15.3
			c7.4,0,13.8-8,13.8-17.1C-242.6-260.6-248.6-267.2-256.5-267.2z"/>
		<g display="inline">
			<path fill="#744D28" d="M-264.7-237.6c-3.5-2.7-5.7-7.2-5.7-12.5c0-9.1,6.5-17.1,13.8-17.1c2.9,0,5.5,0.9,7.7,2.5
				c-2.3-1.8-5.1-2.8-8.2-2.8c-7.4,0-13.8,8-13.8,17.1C-270.8-245-268.4-240.3-264.7-237.6z"/>
			<path fill="#744D28" d="M-246.5-268c4.5,3.5,7.4,9.2,7.4,15.7c0,11.4-8.2,21.1-17.8,21.1c-3.7,0-7.1-1.2-10-3.2
				c2.9,2.2,6.5,3.5,10.4,3.5c9.7,0,17.8-9.7,17.8-21.1C-238.6-258.7-241.7-264.6-246.5-268z"/>
		</g>
		<g display="inline">
			<path fill="#AA8561" d="M-273.4-249.3c0-11.4,8.2-21.1,17.8-21.1c4.2,0,8,1.5,11,4.1c-3.1-3-7.3-4.9-12-4.9
				c-9.7,0-17.8,9.7-17.8,21.1c0,6.3,2.6,11.7,6.8,15.2C-271.2-238.4-273.4-243.5-273.4-249.3z"/>
			<path fill="#AA8561" d="M-247.1-263.3c2.8,2.8,4.5,6.8,4.5,11.4c0,9.1-6.5,17.1-13.8,17.1c-3.2,0-6.1-1.1-8.5-3
				c2.4,2.4,5.7,3.9,9.4,3.9c7.4,0,13.8-8,13.8-17.1C-241.8-256.2-243.8-260.6-247.1-263.3z"/>
		</g>
		<g display="inline">
			<circle cx="-256.5" cy="-249.5" r="1.6"/>
		</g>
		<path display="inline" fill="#F6F3F0" d="M-233.6-249.8c0.7,8.9,7.6,16.5,15.3,15.9c7.8-0.6,13.6-7.5,12.9-16.4
			c-0.7-8.9-7.6-16.5-15.3-15.9C-228.4-265.6-234.3-258.7-233.6-249.8z"/>
		<path display="inline" fill="#E6E6E6" d="M-206.6-250.1c-0.5-6.7-4.5-12.6-9.7-14.9c4.2,2.8,7.2,8,7.7,13.8
			c0.7,8.9-5.2,15.8-12.9,16.4c-2,0.1-3.9-0.2-5.7-1c2.3,1.5,4.9,2.4,7.7,2.2C-211.8-234.3-205.9-241.2-206.6-250.1z"/>
		<path display="inline" fill="#FFFFFF" d="M-230.2-246.4c-0.7-8.9,5.2-15.8,12.9-16.4c3.3-0.2,6.5,1,9,3.2c-2.9-4-7.2-6.5-11.8-6.2
			c-7.8,0.6-13.6,7.5-12.9,16.4c0.4,5.1,2.8,9.8,6.3,12.7C-228.6-239.4-229.9-242.8-230.2-246.4z"/>
		<path display="inline" fill="#29ABE2" d="M-219.1-238.4c4.2-0.3,8.1-1.5,10.3-3.5c-1.7,3.3-4.9,5.9-9.6,6.3
			c-4.3,0.3-7.5-2-9.5-4.4C-225.4-238.8-222.4-238.1-219.1-238.4z"/>
		<path display="inline" fill="#1498C6" d="M-208.7-241.9c-0.8,0.7-1.8,1.3-3,1.8c-1.5,2-3.6,3.5-5.9,4.3
			C-213.2-236.3-210.3-238.8-208.7-241.9z"/>
		<circle display="inline" cx="-219.4" cy="-248.7" r="1.4"/>
		<path display="inline" fill="#333333" d="M-219.1-231.8c-8.3,0-15.8-7.9-16.5-17.8c-0.4-4.8,1-9.3,3.7-12.7
			c2.8-3.4,6.7-5.5,11-5.8c8.7-0.6,16.7,7.5,17.5,17.8c0.4,4.8-1,9.3-3.7,12.7c-2.8,3.4-6.7,5.5-11,5.8
			C-218.5-231.8-218.8-231.8-219.1-231.8z M-219.9-264.2c-0.2,0-0.4,0-0.7,0c-3.2,0.2-6.2,1.8-8.2,4.3c-2.1,2.6-3.2,6.2-2.9,9.9
			c0.6,8,6.8,14.6,13.2,14.1c3.2-0.2,6.2-1.8,8.2-4.3c2.1-2.6,3.2-6.2,2.9-9.9C-207.9-257.8-213.7-264.2-219.9-264.2z"/>
		<g display="inline">
			<path d="M-203.3-250.4c-0.4-5.9-3.3-11.1-7.2-14.3c3.7,3.3,6.2,8.2,6.7,13.8c0.4,4.8-1,9.3-3.7,12.7c-2.8,3.4-6.7,5.5-11,5.8
				c-0.3,0-0.6,0-1,0c-3.5,0-6.8-1.4-9.5-3.7c2.8,2.6,6.4,4.2,10.1,4.2c0.3,0,0.6,0,1,0c4.4-0.3,8.3-2.4,11-5.8
				C-204.3-241.1-203-245.6-203.3-250.4z"/>
			<path d="M-226.4-238.9c-2.8-2.6-4.9-6.6-5.2-11c-0.3-3.8,0.7-7.3,2.9-9.9c2.1-2.6,5-4.1,8.2-4.3c0.2,0,0.4,0,0.7,0
				c2.3,0,4.6,0.9,6.5,2.4c-2.1-1.8-4.6-2.9-7.1-2.9c-0.2,0-0.4,0-0.7,0c-3.2,0.2-6.2,1.8-8.2,4.3c-2.1,2.6-3.2,6.2-2.9,9.9
				C-231.8-245.7-229.5-241.5-226.4-238.9z"/>
		</g>
		<g display="inline">
			<path fill="#535353" d="M-213.1-261.6c3.1,2.6,5.4,6.8,5.7,11.5c0.3,3.8-0.7,7.3-2.9,9.9c-2.1,2.6-5,4.1-8.2,4.3
				c-2.3,0.2-4.5-0.6-6.5-1.9c2.2,1.8,4.8,2.8,7.5,2.6c3.2-0.2,6.2-1.8,8.2-4.3c2.1-2.6,3.2-6.2,2.9-9.9
				C-206.7-254.6-209.4-259.1-213.1-261.6z"/>
			<path fill="#535353" d="M-234.6-248.9c-0.4-4.8,1-9.3,3.7-12.7c2.8-3.4,6.7-5.5,11-5.8c3.2-0.2,6.4,0.7,9.1,2.6
				c-2.9-2.3-6.4-3.6-10.1-3.3c-4.4,0.3-8.3,2.4-11,5.8c-2.8,3.4-4.1,8-3.7,12.7c0.5,6.4,3.8,12,8.3,15.1
				C-231.3-237.8-234.2-243-234.6-248.9z"/>
		</g>
	</g>
	<g id="眼睛6">
		<path display="inline" fill="#F6F3F0" d="M-10.7-262.2c0,8.9-6.1,14.7-13.6,14.7S-38-253.3-38-262.2s6.1-17.4,13.6-17.4
			S-10.7-271-10.7-262.2z"/>
		<path display="inline" fill="#E6E6E6" d="M-12.1-266.5c0,0.4,0.1,0.9,0.1,1.3c0,8.9-6.7,14.7-14.9,14.7c-2.8,0-5.5-0.7-7.7-2
			c2.4,2.3,5.6,3.6,9.2,3.6c7.5,0,13.6-5.8,13.6-14.7C-11.9-264.5-12-265.5-12.1-266.5z"/>
		<path display="inline" fill="#FFFFFF" d="M-34.7-259.2c0-8.9,6.1-17.4,13.6-17.4c1.6,0,3.2,0.4,4.6,1.1c-2.1-1.8-4.6-3-7.4-3
			c-7.5,0-13.6,8.6-13.6,17.4c0,6.3,3.1,11,7.6,13.2C-32.8-250.3-34.7-254.3-34.7-259.2z"/>
		<path display="inline" fill="#8C6239" d="M-24.3-245.6c-9,0-14.6-7-14.6-16.6c0-10.3,6.3-17.4,14.6-17.4s14.6,7.1,14.6,17.4
			C-9.7-252.5-15.3-245.6-24.3-245.6z M-24.3-277.7c-6.1,0-11.7,7.4-11.7,15.5c0,7.4,4.9,12.7,11.7,12.7s11.7-5.3,11.7-12.7
			C-12.6-270.3-18.2-277.7-24.3-277.7z"/>
		<g display="inline">
			<path fill="#744D28" d="M-14.4-275.2c2.6,3.1,4.1,7.4,4.1,12.5c0,9.6-5.6,16.6-14.6,16.6c-4.3,0-7.7-1.6-10.2-4.2
				c2.5,3,6.2,4.8,10.7,4.8c9,0,14.6-7,14.6-16.6C-9.7-267.6-11.5-272.1-14.4-275.2z"/>
			<path fill="#744D28" d="M-24.8-278.1c-6.1,0-11.7,7.4-11.7,15.5c0,3.8,1.3,7.1,3.6,9.4c-1.9-2.2-3.1-5.3-3.1-8.8
				c0-8.1,5.6-15.5,11.7-15.5c2.6,0,5,1.3,7,3.4C-19.4-276.6-22.1-278.1-24.8-278.1z"/>
		</g>
		<g display="inline">
			<path fill="#AA8561" d="M-23.8-248.8c6.8,0,11.7-5.3,11.7-12.7c0-4.7-1.9-9.1-4.6-12c2.4,2.9,4,7,4,11.3
				c0,7.4-4.9,12.7-11.7,12.7c-3.3,0-6.2-1.3-8.3-3.4C-30.5-250.4-27.4-248.8-23.8-248.8z"/>
			<path fill="#AA8561" d="M-38.4-261.5c0-10.3,6.3-17.4,14.6-17.4c4,0,7.4,1.6,10,4.4c-2.6-3.2-6.4-5.1-10.6-5.1
				c-8.3,0-14.6,7.1-14.6,17.4c0,5,1.5,9.3,4.3,12.3C-37.1-252.8-38.4-256.9-38.4-261.5z"/>
		</g>
		<circle display="inline" cx="-24" cy="-263" r="1.6"/>
		<path display="inline" fill="#F6F3F0" d="M12-279.2c-6.8,0-13,8.2-13,17.1c0,8.1,5.5,14,13,14s13-5.9,13-14
			C25-271.1,18.8-279.2,12-279.2z"/>
		<path display="inline" fill="#FFFFFF" d="M1.9-258.5c0-9,6.2-17.1,13-17.1c2.5,0,5,1.1,7.1,3c-2.4-3.5-5.8-5.8-9.4-5.8
			c-6.8,0-13,8.2-13,17.1c0,4.6,1.8,8.5,4.7,11C2.8-252.5,1.9-255.3,1.9-258.5z"/>
		<path display="inline" fill="#E6E6E6" d="M21.1-272.2c1,2.3,1.6,5,1.6,7.7c0,8.1-5.7,14-13.6,14c-2.6,0-4.9-0.6-6.9-1.8
			c2.1,1.7,4.8,2.6,7.8,2.6c7.5,0,13-5.9,13-14C23.1-266.7,22.3-269.6,21.1-272.2z"/>
		<path display="inline" fill="#333333" d="M12-246.6c-8.7,0-14-6.8-14-16.1c0-10.2,6-17.1,14-17.1s14,6.9,14,17.1
			C26-253.4,20.7-246.6,12-246.6z M12-277.7c-5.6,0-10.9,7.3-10.9,15c0,7,4.5,11.9,10.9,11.9s10.9-4.9,10.9-11.9
			C22.9-270.5,17.6-277.7,12-277.7z"/>
		<g display="inline">
			<path d="M4.1-254.3c-1.9-2.1-3-5.1-3-8.6c0-7.7,5.3-15,10.9-15c2,0,3.9,0.9,5.6,2.5c-1.8-2-4.1-3.2-6.4-3.2
				c-5.6,0-10.9,7.3-10.9,15C0.3-259.6,1.7-256.4,4.1-254.3z"/>
			<path d="M20.7-276.5c2.8,3,4.5,7.5,4.5,13c0,9.4-5.3,16.1-14,16.1c-3.7,0-6.8-1.2-9.1-3.3c2.4,2.6,5.7,4.1,9.8,4.1
				c8.7,0,14-6.8,14-16.1C25.9-268.8,23.9-273.5,20.7-276.5z"/>
		</g>
		<g display="inline">
			<path fill="#535353" d="M12.5-250.2c6.4,0,10.9-4.9,10.9-11.9c0-4.1-1.5-8-3.7-10.8c1.9,2.8,3.2,6.4,3.2,10.2
				c0,7-4.5,11.9-10.9,11.9c-3.4,0-6.3-1.4-8.2-3.8C5.7-251.9,8.8-250.2,12.5-250.2z"/>
			<path fill="#535353" d="M-1.5-262.2c0-10.2,6-17.1,14-17.1c4.2,0,7.9,1.9,10.4,5.2c-2.5-3.7-6.4-5.9-10.9-5.9
				c-8,0-14,6.9-14,17.1c0,4.4,1.2,8.3,3.4,11.1C-0.5-254.5-1.5-258.1-1.5-262.2z"/>
		</g>
		<circle display="inline" cx="12.3" cy="-263.6" r="1.6"/>
	</g>
	<g id="眼睛7">
		<path display="inline" fill="#F6F3F0" d="M-27.9-260.9c5-0.3,9.2,1.1,12.1,4.6c0.7,0.8,1.7,0,1.3-1c-2.1-5.5-6.5-11.7-14.9-12
			c-7.5-0.3-11.7,4.4-13.7,9.8c-1.1,2.8,1.8,5.5,3.8,3.5C-36.3-258.9-32.2-260.7-27.9-260.9z"/>
		<path display="inline" fill="#E6E6E6" d="M-14.9-257.9c-0.7-1.7-1.6-3.5-2.7-5.2c0.9,1.5,1.7,3,2.2,4.5c0.4,1-0.7,1.8-1.3,1
			c-2.9-3.4-7.1-4.8-12.1-4.6c-4.4,0.2-8.5,2-11.4,4.8c-1.1,1-2.4,0.8-3.2-0.1c0.7,1.5,2.4,2.2,3.7,0.9c2.9-2.8,7-4.6,11.4-4.8
			c5-0.3,9.2,1.1,12.1,4.6C-15.6-256.1-14.6-256.9-14.9-257.9z"/>
		<path display="inline" fill="#FFFFFF" d="M-41.6-257.9c2-5.4,6.2-10.2,13.7-9.8c3.1,0.1,5.6,1.1,7.7,2.4c-2.3-2-5.3-3.4-9.2-3.5
			c-7.5-0.3-11.7,4.4-13.7,9.8c-0.7,1.9,0.4,3.8,1.8,4.1C-41.8-255.7-42-256.8-41.6-257.9z"/>
		<path display="inline" fill="#8C6239" d="M-40.8-254.4c-0.6,0-1.2-0.2-1.7-0.5c-1.3-0.9-2.3-2.9-1.5-5c2.6-7.1,7.9-10.8,14.7-10.5
			c7.2,0.3,12.8,4.8,15.8,12.7c0.4,0.9,0,2-0.8,2.5c-0.8,0.4-1.7,0.3-2.2-0.4c-2.5-3-6.4-4.5-11.3-4.2l0,0c-4,0.2-8,1.9-10.8,4.6
			C-39.2-254.7-40-254.4-40.8-254.4z M-30.1-268.4c-7.1,0-10.4,5-12,9.2c-0.4,1.1,0,2.2,0.7,2.6c0.4,0.2,0.9,0.4,1.5-0.2
			c3.1-3,7.5-4.9,12.1-5.1c5.1-0.3,9.3,1.2,12.2,4.2c-2-4.9-6-10.3-13.7-10.7C-29.7-268.4-29.9-268.4-30.1-268.4z"/>
		<g display="inline">
			<path fill="#744D28" d="M-42.2-259.2c1.6-4.2,5-9.2,12-9.2c0.2,0,0.5,0,0.7,0c7.5,0.3,11.4,5.5,13.5,10.2c0,0,0,0,0,0
				c-2-4.9-6-10.3-13.7-10.7c-0.2,0-0.5,0-0.7,0c-7.1,0-10.4,5-12,9.2c-0.3,0.7-0.2,1.4,0.1,1.9C-42.4-258.1-42.4-258.7-42.2-259.2z
				"/>
			<path fill="#744D28" d="M-13.5-257.7c0-0.1-0.1-0.2-0.2-0.4c0.3,0.9,0,1.9-0.8,2.4c-0.8,0.4-1.7,0.3-2.2-0.4
				c-2.5-3-6.4-4.5-11.3-4.2c-4,0.2-8,1.9-10.8,4.6c-0.7,0.6-1.4,0.9-2.2,0.9c-0.6,0-1.2-0.2-1.7-0.5c-0.6-0.4-1.1-1-1.4-1.7
				c0.3,0.9,0.9,1.7,1.6,2.1c0.5,0.4,1.1,0.5,1.7,0.5c0.8,0,1.6-0.3,2.2-0.9c2.8-2.7,6.7-4.4,10.8-4.6c4.9-0.3,8.8,1.2,11.3,4.2
				c0.6,0.7,1.5,0.9,2.2,0.4C-13.5-255.8-13.2-256.8-13.5-257.7z"/>
		</g>
		<g display="inline">
			<path fill="#AA8561" d="M-41.1-256.1c0.4,0.2,0.9,0.4,1.5-0.2c3.1-3,7.5-4.9,12.1-5.1c5.1-0.3,9.3,1.2,12.2,4.2
				c-0.8-1.9-1.9-3.9-3.4-5.7c1.3,1.6,2.3,3.4,3,5.2c-2.9-3-7.1-4.4-12.2-4.2c-4.5,0.2-8.9,2.1-12.1,5.1c-0.6,0.6-1.1,0.4-1.5,0.2
				c-0.1,0-0.1-0.1-0.1-0.1C-41.5-256.5-41.3-256.3-41.1-256.1z"/>
			<path fill="#AA8561" d="M-43.6-259.5c2.6-7.1,7.9-10.8,14.7-10.5c4.8,0.2,8.8,2.3,11.9,5.9c-3.1-4-7.4-6.2-12.3-6.4
				c-6.8-0.3-12.1,3.4-14.7,10.5c-0.7,1.8-0.1,3.5,0.9,4.5C-43.9-256.5-44.2-257.9-43.6-259.5z"/>
		</g>
		<path display="inline" d="M-38.7-265.1c0.7,1.4,2.3,2.1,3.4,1.3c1.2-0.7,1.5-2.6,0.9-4C-35.8-267.4-37.5-266.7-38.7-265.1z"/>
		<path display="inline" fill="#F6F3F0" d="M15.5-261.1c-5-0.3-9.2,1.1-12.1,4.6c-0.7,0.8-1.7,0-1.3-1c2.1-5.5,6.5-11.7,14.9-12
			c7.5-0.3,11.7,4.4,13.7,9.8c1.1,2.8-1.8,5.5-3.8,3.5C24-259.1,19.8-260.9,15.5-261.1z"/>
		<path display="inline" fill="#E6E6E6" d="M31.2-259.9c-0.1-0.4-0.3-0.7-0.4-1.1c0.3,2.5-2.2,4.5-4,2.7c-2.9-2.8-7-4.6-11.4-4.8
			c-5-0.3-9.2,1.1-12.1,4.6c-0.1,0.2-0.3,0.3-0.5,0.3c-0.1,0.2-0.2,0.4-0.2,0.6c-0.4,1,0.7,1.8,1.3,1c2.9-3.4,7.1-4.8,12.1-4.6
			c4.4,0.2,8.5,2,11.4,4.8C29.4-254.4,32.3-257,31.2-259.9z"/>
		<path display="inline" fill="#FFFFFF" d="M3.8-256.9c2.3-5.1,6.6-10.3,14.4-10.7c5.7-0.3,9.4,2.4,11.8,6c-2.2-4.6-6.3-8.3-12.9-8
			c-8.5,0.4-12.8,6.6-14.9,12c-0.4,1,0.7,1.8,1.3,1C3.5-256.7,3.6-256.8,3.8-256.9z"/>
		<path display="inline" fill="#333333" d="M28.4-254.6c-0.8,0-1.6-0.3-2.2-0.9c-2.8-2.7-6.7-4.4-10.8-4.6l0,0
			c-4.9-0.3-8.8,1.2-11.3,4.2c-0.6,0.7-1.5,0.9-2.2,0.4c-0.8-0.5-1.1-1.5-0.8-2.5c3-7.9,8.6-12.4,15.8-12.7
			c6.9-0.3,12.1,3.4,14.7,10.5c0.8,2.1-0.1,4.1-1.5,5C29.6-254.8,29-254.6,28.4-254.6z M14.3-262.1c0.4,0,0.8,0,1.2,0l0,0
			c4.5,0.2,8.9,2.1,12.1,5.1c0.6,0.6,1.1,0.4,1.5,0.2c0.7-0.4,1.1-1.5,0.7-2.6c-1.6-4.4-5.2-9.5-12.7-9.2
			c-7.7,0.3-11.7,5.9-13.8,10.7C6-260.7,9.8-262.1,14.3-262.1z"/>
		<g display="inline">
			<path d="M17-268.5c7.6-0.3,11.1,4.8,12.7,9.2c0,0,0,0.1,0,0.1c0-0.3,0-0.6-0.2-0.9c-1.6-4.4-5.2-9.5-12.7-9.2
				c-7.7,0.3-11.7,5.9-13.8,10.7c0.3-0.3,0.5-0.5,0.8-0.8C6.1-263.7,10.1-268.2,17-268.5z"/>
			<path d="M31.8-259.5c0.1,1.6-0.7,3-1.7,3.7c-0.5,0.4-1.1,0.5-1.7,0.5c-0.8,0-1.6-0.3-2.2-0.9c-2.8-2.7-6.7-4.4-10.8-4.6
				c-4.9-0.3-8.8,1.2-11.3,4.2c-0.6,0.7-1.5,0.9-2.2,0.4c-0.4-0.2-0.7-0.6-0.8-1c0,0.7,0.3,1.4,0.9,1.7c0.8,0.4,1.7,0.3,2.2-0.4
				c2.5-3,6.4-4.5,11.3-4.2c4,0.2,8,1.9,10.8,4.6c0.7,0.6,1.4,0.9,2.2,0.9c0.6,0,1.2-0.2,1.7-0.5C31.4-255.8,32.3-257.6,31.8-259.5z
				"/>
		</g>
		<g display="inline">
			<path fill="#535353" d="M15.5-262c-0.4,0-0.8,0-1.2,0c-3.9,0-7.3,1.1-9.9,3.2c-0.2,0.5-0.5,1-0.7,1.5c2.7-2.8,6.5-4.2,11.1-4.2
				c0.4,0,0.8,0,1.2,0c3.9,0.2,7.7,1.6,10.7,4C23.7-260.2,19.7-261.8,15.5-262z"/>
			<path fill="#535353" d="M25.7-265.6c2,1.8,3.3,4.1,4.1,6.3c0.4,1.1,0,2.2-0.7,2.6c-0.3,0.2-0.8,0.3-1.3,0
				c0.1,0.1,0.2,0.1,0.3,0.2c0.6,0.6,1.1,0.4,1.5,0.2c0.7-0.4,1.1-1.5,0.7-2.6C29.4-261.3,28-263.8,25.7-265.6z"/>
			<path fill="#535353" d="M1.6-257.5c3-7.9,8.6-12.4,15.8-12.7c3.7-0.2,6.9,0.9,9.5,2.9c-2.7-2.4-6.1-3.5-10-3.4
				c-7.2,0.3-12.8,4.8-15.8,12.7c-0.4,0.9,0,2,0.8,2.5c0,0,0,0,0,0C1.5-255.9,1.3-256.7,1.6-257.5z"/>
			<path fill="#535353" d="M25.5-256.1c0.2,0.2,0.5,0.4,0.7,0.6c0.1,0.1,0.2,0.1,0.3,0.2C26.2-255.6,25.8-255.8,25.5-256.1z"/>
		</g>
		<path display="inline" d="M26.3-265.3c-0.7,1.4-2.3,2.1-3.4,1.3c-1.2-0.7-1.5-2.6-0.9-4C23.4-267.6,25.2-266.9,26.3-265.3z"/>
	</g>
</g>
<g id="嘴巴">
	<g id="嘴巴1" display="none">
		<g display="inline">
			<g>
				<path fill="#8C6239" d="M50.4,56.3c-1.9,0-3.7-0.5-4.3-1.1c-0.9-0.9-0.4-2.3,0.1-3.3c-0.9-0.9-2.3-2.6-2.4-4.3
					c0-0.9,0.3-1.6,0.9-2.2c1.9-1.9,6.2-1.8,8.5-1.4c1.7,0.3,2.7,0.9,3,1.7c0.7,1.7-0.7,4.2-1.7,5.6c0.5,0.5,1.1,1.2,1.1,2
					c0,0.6-0.2,1.4-1.2,2.1C53.3,56,51.8,56.3,50.4,56.3z M47.5,53.8c0.8,0.4,4.1,0.9,5.7-0.2c0.3-0.2,0.3-0.3,0.3-0.3
					c0-0.2-0.5-0.7-1-1l-1-0.6l0.7-0.9c1.2-1.5,2.3-3.7,2-4.4c-0.2-0.2-1.5-0.7-3.6-0.7c-2.1-0.1-3.9,0.4-4.6,1
					c-0.2,0.2-0.3,0.4-0.3,0.7c0,1.1,1.5,2.7,2.3,3.4l0.7,0.6l-0.5,0.7C47.9,52.8,47.6,53.5,47.5,53.8z"/>
			</g>
			<g>
				<path fill="#744D28" d="M47.1,53.6c0.1,0.1,0.2,0.1,0.4,0.2c0.1-0.4,0.4-1,0.7-1.6l0.5-0.7l-0.7-0.6c-0.9-0.7-2.3-2.3-2.3-3.4
					c0-0.3,0.1-0.5,0.3-0.7c0.7-0.7,2.5-1.1,4.6-1c1.5,0,2.6,0.3,3.2,0.5c0,0,0,0,0,0c-0.2-0.2-1.5-0.7-3.6-0.7
					c-2.1-0.1-3.9,0.4-4.6,1c-0.2,0.2-0.3,0.4-0.3,0.7c0,1.1,1.5,2.7,2.3,3.4l0.7,0.6L47.8,52C47.5,52.6,47.2,53.3,47.1,53.6z"/>
				<path fill="#744D28" d="M56.1,45.7c-0.2-0.5-0.6-0.9-1.3-1.2c0.4,0.3,0.7,0.6,0.9,0.9c0.7,1.7-0.7,4.2-1.7,5.6
					c0.5,0.5,1.1,1.2,1.1,2c0,0.6-0.2,1.4-1.2,2.1c-1,0.7-2.5,1-4,1c-1.4,0-2.8-0.3-3.7-0.7c0.8,0.5,2.4,0.9,4.1,0.9
					c1.4,0,2.9-0.3,4-1c1-0.7,1.2-1.5,1.2-2.1c0-0.8-0.6-1.5-1.1-2C55.4,49.9,56.8,47.4,56.1,45.7z"/>
			</g>
			<path fill="#AA8561" d="M46.3,55.4c-0.9-0.9-0.4-2.3,0.1-3.3c-0.9-0.9-2.3-2.6-2.4-4.3c0-0.9,0.3-1.6,0.9-2.2
				c1.9-1.9,6.2-1.8,8.5-1.4c0.9,0.2,1.6,0.4,2.1,0.7c-0.5-0.4-1.3-0.7-2.4-1c-2.3-0.5-6.6-0.5-8.5,1.4c-0.6,0.6-0.9,1.4-0.9,2.2
				c0.1,1.7,1.5,3.4,2.4,4.3c-0.5,1-1,2.4-0.1,3.3C46.1,55.3,46.2,55.4,46.3,55.4C46.4,55.4,46.3,55.4,46.3,55.4z"/>
			<path d="M49,51.4c0,0,1-3.7,2.5-0.1C51.5,51.3,50.5,55,49,51.4z"/>
		</g>
	</g>
	<g id="嘴巴2" display="none">
		<g display="inline">
			<path fill="#8C6239" d="M38.8,52.7c0,0,19.7-2,21.4-5.4C60.2,47.3,68.4,52.5,38.8,52.7z"/>
			<path fill="#744D28" d="M60.2,47.3C60.2,47.3,60.2,47.3,60.2,47.3c1,0.9,4.8,5-20.3,5.3c-0.7,0.1-1.1,0.1-1.1,0.1
				C68.4,52.5,60.2,47.3,60.2,47.3z"/>
			<path fill="#AA8561" d="M60.4,47.5c0,0,0.2,0.2,0.5,0.4c-0.3-0.4-0.7-0.7-0.7-0.7c-1.8,3.4-21.4,5.4-21.4,5.4c0.9,0,1.8,0,2.6,0
				C46.7,52,59,50.2,60.4,47.5z"/>
		</g>
	</g>
	<g id="嘴巴3" display="none">
		<g display="inline">
			<path fill="#F6F3F0" d="M61.2,45.6c0,0-0.1,0-0.1,0c-0.6-3.2-3.4-5.5-6.8-5.5c-1.7,0-3.2,0.6-4.4,1.6c-0.6-0.4-1.3-0.7-2-0.7
				c-1.3,0-2.5,0.8-3,1.9c-0.4-0.1-0.9-0.2-1.3-0.2c-3.1,0-5.6,2.4-5.7,5.5c0,0,0,0,0,0c-2.4,0-4.3,1.9-4.3,4.3
				c0,2.4,1.9,4.3,4.3,4.3c0.3,0,0.7,0,1-0.1c0.8,0.9,2,1.5,3.3,1.5c0.6,0,1.1-0.1,1.6-0.3c1,1.2,2.5,1.9,4.2,1.9
				c1.8,0,3.4-0.9,4.5-2.2c0.6,0.3,1.2,0.5,1.9,0.5c1.6,0,3-0.9,3.7-2.3c0.9,0.6,2,1,3.2,1c3.1,0,5.6-2.5,5.6-5.6
				C66.8,48.2,64.3,45.6,61.2,45.6z"/>
			<g>
				<path fill="#FFFFFF" d="M64.8,49.1c0,0,0.1,0,0.1,0c0.4,0,0.8,0,1.2,0.1c-0.5-1.3-1.5-2.3-2.7-2.9
					C64.1,47.1,64.6,48.1,64.8,49.1z"/>
				<path fill="#FFFFFF" d="M37.2,56c0-2.4,1.9-4.3,4.3-4.3c0,0,0,0,0,0c0.1-3.1,2.6-5.5,5.7-5.5c0.5,0,0.9,0.1,1.3,0.2
					c0.5-1.1,1.7-1.9,3-1.9c0.8,0,1.4,0.3,2,0.7c1.2-1,2.7-1.6,4.4-1.6c0.8,0,1.5,0.1,2.1,0.4c-1.2-2.2-3.5-3.8-6.1-3.8
					c-1.7,0-3.2,0.6-4.4,1.6c-0.6-0.4-1.3-0.7-2-0.7c-1.3,0-2.5,0.8-3,1.9c-0.4-0.1-0.9-0.2-1.3-0.2c-3.1,0-5.6,2.4-5.7,5.5
					c0,0,0,0,0,0c-2.4,0-4.3,1.9-4.3,4.3c0,2.3,1.8,4.2,4.1,4.3C37.2,56.6,37.2,56.3,37.2,56z"/>
			</g>
			<path fill="#E6E6E6" d="M64.2,46.6c0.7,0.9,1.2,2.1,1.2,3.4c0,3.1-2.5,5.6-5.6,5.6c-1.2,0-2.3-0.4-3.2-1C55.9,56,54.4,57,52.8,57
				c-0.7,0-1.4-0.2-1.9-0.5c-1,1.3-2.6,2.2-4.5,2.2c-1.7,0-3.2-0.7-4.2-1.9c-0.5,0.2-1,0.3-1.6,0.3c-0.4,0-0.8,0.1-1.3,0.3
				c0.7,0.4,1.5,0.7,2.3,0.7c0.6,0,1.1-0.1,1.6-0.3c1,1.2,2.5,1.9,4.2,1.9c1.8,0,3.4-0.9,4.5-2.2c0.6,0.3,1.2,0.5,1.9,0.5
				c1.6,0,3-0.9,3.7-2.3c0.9,0.6,2,1,3.2,1c3.1,0,5.6-2.5,5.6-5.6C66.4,49.2,65.5,47.6,64.2,46.6z"/>
		</g>
	</g>
	<g id="嘴巴4" display="none">
		<g display="inline">
			<path fill="#8C6239" d="M68,40.5c2.3,16.7-3,38.6-12.9,39.9c-9.9,1.4-20.8-18.3-23.1-35s4.9-24.3,14.9-25.6
				C56.7,18.4,65.7,23.7,68,40.5z"/>
			<path fill="#744D28" d="M67.9,40.4c-1.3-9.7-4.9-15.6-9.6-18.6c4.3,3.1,7.6,8.8,8.9,18.1c2.3,16.7-3,38.6-12.9,39.9
				c-2,0.3-4.1-0.3-6.1-1.6c2.3,1.6,4.6,2.4,6.9,2.1C65,79,70.2,57.2,67.9,40.4z"/>
			<path fill="#AA8561" d="M32.9,46.2C30.6,29.5,37.8,22,47.8,20.6c4.8-0.7,9.3,0.3,13,3.2c-3.9-3.7-8.8-4.8-14-4.1
				c-9.9,1.4-17.1,8.9-14.9,25.6c1.7,12.4,8.1,26.3,15.3,32.2C40.4,71.2,34.5,58,32.9,46.2z"/>
			<path fill="#333333" d="M65.6,42.9c2,14.7-2.4,33.9-10.9,35c-8.5,1.2-17.9-16.1-19.9-30.8s4.1-21.3,12.7-22.4
				C55.9,23.5,63.6,28.2,65.6,42.9z"/>
			<path fill="#EC5A5A" d="M51.8,54c-1.3,0-3.7,3.5-3.7,4.6c0,1.1,0.9,2,2,2c0.8,0,1.4-0.4,1.7-1.1c0.3,0.6,1,1.1,1.7,1.1
				c1.1,0,2-0.9,2-2C55.5,57.6,53.1,54.1,51.8,54z"/>
		</g>
	</g>
	<g id="嘴巴5">
		<g>
			<g>
				<g>
					<path fill="#8C6239" d="M39.4,49.5c-3.1,0-4.8-2.9-4.9-3.1c-0.3-0.5-0.1-1.1,0.4-1.4c0.5-0.3,1.1-0.1,1.4,0.4
						c0.1,0.1,1.4,2.4,3.6,2c0.5-0.1,1.1-0.2,1.8-0.4c3.6-0.9,9.6-2.5,18.6,0.5c0.7-0.1,2.9-0.4,3.3-2.3c0.1-0.5,0.6-0.9,1.2-0.8
						c0.5,0.1,0.9,0.7,0.8,1.2c-0.8,3.4-4.5,3.9-5.2,3.9c-0.2,0-0.4,0-0.5-0.1c-8.5-2.8-14.2-1.4-17.6-0.5c-0.8,0.2-1.5,0.4-2,0.5
						C39.9,49.5,39.7,49.5,39.4,49.5z"/>
				</g>
				<g>
					<g>
						<path fill="#FFFFFF" d="M44.9,47.8c0,0-3.3,2-2.7,7.5"/>
					</g>
					<g>
						<path fill="#8C6239" d="M42.5,55.6c-0.2,0-0.4-0.2-0.5-0.4c-0.6-5.7,2.8-7.9,2.9-8c0.2-0.1,0.5-0.1,0.6,0.2
							c0.1,0.2,0,0.5-0.2,0.6C41.9,51,42.8,55.6,42.5,55.6C42.5,55.6,42.5,55.6,42.5,55.6z"/>
					</g>
				</g>
				<g>
					<g>
						<path fill="#FFFFFF" d="M47,47.8c0,0-0.9,2.1-0.7,4.5"/>
					</g>
					<g>
						<path fill="#8C6239" d="M46.2,52.7c-0.2,0-0.4-0.2-0.5-0.4c-0.2-2.4,0.7-4.6,0.8-4.7c0.1-0.2,0.4-0.3,0.6-0.2
							c0.2,0.1,0.3,0.4,0.2,0.6C47.4,48,45.7,51.3,46.2,52.7C46.3,52.8,46.2,52.7,46.2,52.7z"/>
					</g>
				</g>
				<g>
					<g>
						<path fill="#FFFFFF" d="M51.7,47.3c0,0,2.1,1.8,2.6,6.2"/>
					</g>
					<g>
						<path fill="#8C6239" d="M54.3,54c-0.6-3.5-2.9-6.2-3-6.3c-0.2-0.2-0.2-0.5,0-0.6c0.2-0.2,0.5-0.2,0.6,0c0.1,0.1,2.2,2,2.8,6.4
							C54.8,53.7,54.6,53.9,54.3,54C54.3,54,54.3,54,54.3,54z"/>
					</g>
				</g>
				<g>
					<g>
						<path fill="#8C6239" d="M59,51.5C58.9,51.5,58.9,51.5,59,51.5c-0.3,0,0.4-0.6-1.7-3.1c-0.2-0.2-0.1-0.5,0.1-0.6
							c0.2-0.2,0.5-0.1,0.6,0.1c0.2,0.2,1.5,2,1.4,3.2C59.4,51.3,59.2,51.5,59,51.5z"/>
					</g>
				</g>
			</g>
			<g>
				<path fill="#744D28" d="M46,47.9c-0.2,0-0.4,0.1-0.6,0.1c-0.1,0.1-0.2,0.2-0.3,0.3c0.3-0.1,0.6-0.1,0.9-0.2
					C46,48.1,46,48,46,47.9z"/>
				<path fill="#744D28" d="M36.5,45.8c-0.1-0.2-0.2-0.3-0.2-0.3c0-0.1-0.1-0.1-0.1-0.2C36.2,45.4,36.3,45.6,36.5,45.8z"/>
				<path fill="#744D28" d="M57.3,48.6c-1.7-0.4-3.2-0.7-4.7-0.9c0,0.1,0.1,0.1,0.1,0.2c1.4,0.1,3,0.4,4.6,0.8
					C57.3,48.7,57.3,48.7,57.3,48.6z"/>
				<path fill="#744D28" d="M65.3,44.7c0.1,0.2,0.2,0.4,0.1,0.7c-0.3,1.3-1,2.2-1.8,2.8c-1.4,1-3,1.2-3.5,1.2c-0.2,0-0.4,0-0.5-0.1
					c-0.2-0.1-0.4-0.1-0.7-0.2c0,0,0,0.1,0,0.1c0.3,0.1,0.6,0.2,1,0.3c0.2,0.1,0.4,0.1,0.5,0.1c0.7-0.1,4.5-0.5,5.2-3.9
					C65.7,45.2,65.5,44.9,65.3,44.7z"/>
				<path fill="#744D28" d="M51.1,47.6c-1.4-0.1-2.6,0-3.7,0.1c0,0.1,0,0.2,0,0.2c1.2-0.1,2.5-0.2,3.9-0.1
					C51.2,47.7,51.2,47.7,51.1,47.6z"/>
				<path fill="#744D28" d="M42.9,48.8c0.1-0.1,0.1-0.2,0.2-0.3c-0.4,0.1-0.8,0.2-1.2,0.3c-0.8,0.2-1.5,0.4-2,0.5
					c-0.3,0-0.5,0.1-0.8,0.1c-0.8,0-1.6-0.2-2.2-0.5c0.7,0.4,1.6,0.7,2.6,0.7c0.3,0,0.5,0,0.8-0.1c0.6-0.1,1.3-0.3,2-0.5
					C42.4,48.9,42.7,48.9,42.9,48.8z"/>
			</g>
			<g>
				<path fill="#AA8561" d="M40.1,47.7c0.5-0.1,1.1-0.2,1.8-0.4c3.6-0.9,9.6-2.5,18.6,0.5c0.7-0.1,2.9-0.4,3.3-2.3
					c0.1-0.5,0.6-0.9,1.2-0.8c0.1,0,0.1,0.1,0.2,0.1c-0.1-0.1-0.3-0.2-0.5-0.3c-0.5-0.1-1.1,0.2-1.2,0.8c-0.4,1.9-2.6,2.3-3.3,2.3
					c-9-3-15-1.4-18.6-0.5c-0.7,0.2-1.4,0.4-1.8,0.4c-0.8,0.1-1.5-0.1-2.1-0.4C38.4,47.5,39.2,47.8,40.1,47.7z"/>
				<path fill="#AA8561" d="M34.8,46.6c-0.3-0.5-0.1-1.1,0.4-1.4c0.3-0.2,0.6-0.2,0.9,0c-0.3-0.3-0.8-0.4-1.2-0.2
					c-0.5,0.3-0.6,0.9-0.4,1.4c0.1,0.1,0.8,1.4,2.2,2.3C35.5,47.8,34.8,46.7,34.8,46.6z"/>
			</g>
		</g>
	</g>
	<g id="嘴巴6" display="none">
		<path display="inline" fill="#EC5A5A" d="M-17.2-190.4h-16.9c-0.6,0-1-0.4-1-1v-28.9c0-3.8,3.1-7,7-7h4.9c3.8,0,7,3.1,7,7v28.9
			C-16.2-190.9-16.7-190.4-17.2-190.4z"/>
		<path display="inline" fill="#8C6239" d="M-17.2-189.4h-16.9c-1.1,0-2-0.9-2-2v-28.9c0-4.4,3.6-8,8-8h4.9c4.4,0,8,3.6,8,8v28.9
			C-15.2-190.3-16.1-189.4-17.2-189.4z M-28.1-226.3c-3.3,0-6,2.7-6,6v28.9h16.9l0-28.9c0-3.3-2.7-6-6-6H-28.1z"/>
		<g display="inline">
			<path fill="#AA8561" d="M-17.2-220.3l0,28.9H-33v0.5h16.9l0-28.9c0-2.7-1.7-4.9-4.1-5.7C-18.4-224.5-17.2-222.5-17.2-220.3z"/>
			<path fill="#AA8561" d="M-35-190.9v-28.9c0-4.4,3.6-8,8-8h4.9c0.9,0,1.9,0.2,2.7,0.5c-1.1-0.6-2.4-1-3.8-1h-4.9c-4.4,0-8,3.6-8,8
				v28.9c0,1,0.8,1.9,1.8,2C-34.7-189.8-35-190.3-35-190.9z"/>
		</g>
	</g>
	<g id="嘴巴7" display="none">
		<path display="inline" fill="#EC5A5A" d="M-25.2-209.2c-8.9,0-15.8-3.4-19.7-8.5c-0.7-0.9-2.2-0.5-2.3,0.7
			c-0.1,0.4-0.1,0.9-0.1,1.3c0,8.2,9.6,13.2,21.5,13.2s21.5-5,21.5-13.2l0,0c0-1.1-1.4-1.7-2.2-0.9C-10.6-212.1-17-209.2-25.2-209.2
			z"/>
		<path display="inline" fill="#8C6239" d="M-25.8-201.4c-13.2,0-22.5-5.9-22.5-14.2c0-0.5,0-1,0.1-1.4c0.1-0.9,0.8-1.7,1.7-2
			c0.9-0.2,1.8,0.1,2.4,0.8c4,5.1,10.9,8.1,18.9,8.1c7.3,0,13.7-2.5,18-7c0.6-0.7,1.6-0.9,2.5-0.5c0.9,0.3,1.4,1.2,1.4,2.1
			C-3.3-207.3-12.5-201.4-25.8-201.4z M-45.8-217.1C-45.9-217.1-45.9-217.1-45.8-217.1c-0.2,0-0.3,0.1-0.3,0.3
			c-0.1,0.4-0.1,0.8-0.1,1.2c0,7.2,8.4,12.2,20.5,12.2s20.5-5,20.5-12.2c0-0.1-0.1-0.2-0.2-0.3c-0.1,0-0.2,0-0.3,0.1
			c-4.7,4.9-11.6,7.7-19.5,7.7c-8.6,0-16.1-3.2-20.5-8.9C-45.7-217.1-45.7-217.1-45.8-217.1z"/>
		<g display="inline">
			<path fill="#AA8561" d="M-25.4-202.4c12.1,0,20.5-5,20.5-12.2c0-0.1-0.1-0.2-0.2-0.3c-0.1,0-0.2,0-0.3,0.1
				c-0.6,6.8-8.8,11.4-20.4,11.4c-10,0-17.5-3.5-19.8-8.7C-43.8-206.3-36-202.4-25.4-202.4z"/>
			<path fill="#AA8561" d="M-47.9-214.7c0-0.5,0-1,0.1-1.4c0.1-0.9,0.8-1.7,1.7-2c0.9-0.2,1.8,0.1,2.4,0.8c4,5.1,10.9,8.1,18.9,8.1
				c7.3,0,13.7-2.5,18-7c0.6-0.7,1.6-0.9,2.5-0.5c0.4,0.2,0.8,0.4,1,0.8c-0.1-0.8-0.6-1.5-1.4-1.8c-0.9-0.3-1.8-0.1-2.5,0.5
				c-4.3,4.5-10.7,7-18,7c-8,0-14.9-2.9-18.9-8.1c-0.6-0.7-1.5-1-2.4-0.8c-0.9,0.3-1.6,1-1.7,2c-0.1,0.5-0.1,1-0.1,1.4
				c0,1.6,0.3,3.1,1,4.5C-47.6-212.3-47.9-213.5-47.9-214.7z"/>
		</g>
		<g display="inline">
			<path fill="#29ABE2" d="M-42.8-208.1c0,0,5.7,4.9,16.5,4.9C-15.4-203.2-44.2-212.8-42.8-208.1z"/>
		</g>
		<g display="inline">
			<path fill="#29ABE2" d="M-38.1-199.7c0,1.2-0.8,2.1-1.9,2.1s-1.9-0.9-1.9-2.1c0-1.2,0.8-7.1,1.9-7.1S-38.1-200.9-38.1-199.7z"/>
		</g>
		<path display="inline" fill="#4CC7F2" d="M-41-198.9c0-1.2,0.8-6.5,1.7-7c-0.2-0.6-0.5-0.9-0.7-0.9c-1,0-1.9,5.9-1.9,7.1
			c0,0.9,0.5,1.7,1.1,2C-40.9-198.1-41-198.5-41-198.9z"/>
	</g>
	<g id="嘴巴8" display="none">
		<path display="inline" fill="#BC4444" d="M-14.2-236.3c0-0.2-0.2-0.3-0.4-0.3c-0.5,0-1.8,0.2-3.5,0.3c-6.5,0.6-12,5.7-14.3,13
			c-3.9,12.5-8.3,31.4-2.1,39.1c0.4,0.5,1.1,0.3,1.2-0.4c0.5-2.8,1.6-8.7,2.1-8.6c0.7,0.1-0.1,0.6-0.3,7.4c0,0.3-0.3,4.5,0.3,4.1
			c0.7-0.5,1.4-1.3,2.2-2.6c0.3-0.4,0.8-0.3,1,0.2c0.1,0.7,0.3,1,0.5,1.1c0.5,0,1-2.2,1.4-5.8c0.1-1.2,0.4-2.4,0.9-3.5
			c0.3-0.8,0.6-1.7,1-2.6c0.2-0.7,1.1-0.6,1.2,0.1c0.8,3.1,1.6,5,2.1,5c0.9,0,0.8-4.6,0.7-11.2c-0.1-4,0.4-8,1.4-11.8
			C-15.7-224-13.7-234.2-14.2-236.3z"/>
		<path display="inline" fill="#C75656" d="M-27-221.1c2.1-6.7,7-11.5,12.8-12.7c0.1-1.1,0.1-2,0-2.4c0-0.2-0.2-0.3-0.4-0.3
			c-0.5,0-1.8,0.2-3.5,0.3c-6.5,0.6-12,5.7-14.3,13c-3.9,12.5-8.3,31.4-2.1,39.1c0.4,0.5,1.1,0.3,1.2-0.4c0.3-1.6,0.7-4.2,1.2-6.1
			C-32.9-199.7-29.9-212-27-221.1z"/>
		<path display="inline" fill="#BC4444" d="M-15.6-188.9c0.1,4.3-0.5,5-1.3,5c-0.8,0-1.5-0.6-1.6-4.9s0.4-10.5,1.2-10.5
			C-16.5-199.4-15.7-193.2-15.6-188.9z"/>
		<path display="inline" fill="#BC4444" d="M-11.3-225.2c0,1.7-0.6,2-1.4,2s-1.4-0.2-1.5-2s0.5-4.2,1.3-4.3S-11.4-227-11.3-225.2z"
			/>
		<path display="inline" fill="#BC4444" d="M-21.7-182.3c0,1-0.4,1.2-0.8,1.2s-0.9-0.1-0.9-1.2c0-1-0.3-2.6,0.2-2.6
			S-21.7-183.4-21.7-182.3z"/>
		<path display="inline" fill="#BC4444" d="M-37.2-209.8c-1.7,5.3-2.3,6.1-2.8,5.9c-0.5-0.1-0.6-1.1,1.1-6.4s4.5-13,4.9-12.9
			S-35.5-215.2-37.2-209.8z"/>
	</g>
</g>
</svg>
