<?xml version="1.0" encoding="utf-8"?>
<!-- Generator: Adobe Illustrator 18.0.0, SVG Export Plug-In . SVG Version: 6.00 Build 0)  -->
<!DOCTYPE svg PUBLIC "-//W3C//DTD SVG 1.1//EN" "http://www.w3.org/Graphics/SVG/1.1/DTD/svg11.dtd">
<svg version="1.1" xmlns="http://www.w3.org/2000/svg" xmlns:xlink="http://www.w3.org/1999/xlink" x="0px" y="0px"
	 viewBox="0 0 80 80" enable-background="new 0 0 80 80" xml:space="preserve">
<g id="图层_1" display="none">
	<rect x="-460" y="-460" display="inline" fill="#777676" width="1000" height="1000"/>
	<path display="inline" fill="#C69C6D" d="M-91.8-121.7"/>
</g>
<g id="身体" display="none">
	<g id="身体1">
		<g display="inline">
			<path fill="#8C6239" d="M50.1,28.5l-5.4-1.9l3.1,4.8C55.3,43.3,58.5,44.7,60,44.7c0.3,0,0.5-0.1,0.7-0.1c0.8-0.2,2.1-0.9,2.2-3.3
				C63.5,33.4,51.5,29,50.1,28.5z"/>
			<path fill="#744D28" d="M51.2,28.9c-0.5-0.2-0.9-0.3-1.1-0.4l-5.2-1.8c4,2.4,7,7.3,7.9,12.1c1.9,2.5,3.4,3.9,4.5,4.8
				c0-0.4,0.1-0.8,0.1-1.2C57.4,37.6,54.9,32.2,51.2,28.9z"/>
			<path fill="#8C6239" d="M43.3,49.1c0,2.6-0.9,4.7-3.5,4.7c-2.6,0-3.5-2.1-3.5-4.7c0-2.6,0.9-4.7,3.5-4.7
				C42.3,44.4,43.3,46.5,43.3,49.1z"/>
			<path fill="#333333" d="M22.9,45.6c-5,0-9.1,4.1-9.1,9.1H32C32,49.7,27.9,45.6,22.9,45.6z"/>
			<path d="M24.4,45.8c3.9,1.1,6.7,4.8,6.7,9H32C32,50.2,28.7,46.5,24.4,45.8z"/>
			<path fill="#C69C6D" d="M57.1,45.6c-5,0-9.1,4.1-9.1,9.1h18.3C66.3,49.7,62.2,45.6,57.1,45.6z"/>
			<path fill="#8C6239" stroke="#8C6239" stroke-width="4" stroke-miterlimit="10" d="M30,30.4c0,0-12,4.1-11.5,10.8
				C18.9,47.9,30,30.4,30,30.4z"/>
			<path fill="#744D28" d="M34.2,26.9l-2.9,4.5C23.8,43.2,20.5,44.7,19,44.7c0,0,0,0,0,0c0.2,0,0.3,0.1,0.5,0.1
				c1.5,0,4.8-1.5,12.3-13.3l3.1-4.8L34.2,26.9z"/>
			<path fill="#AA8561" d="M17.6,41.9c-0.5-8,11.5-12.3,12.9-12.8l3.5-1.2l0.8-1.2l-5.4,1.9C28,29,16,33.4,16.5,41.3
				c0.2,2.4,1.5,3.1,2.2,3.3c0,0,0,0,0.1,0C18.2,44.2,17.7,43.3,17.6,41.9z"/>
			<path fill="#AA8561" d="M50.7,29.7c1.1,0.4,8.6,3.1,11.7,8.1c-2.5-5.7-11.1-8.8-12.2-9.2l-5.4-1.9l0.8,1.2L50.7,29.7z"/>
			<path fill="#C69C6D" d="M53.1,41.7c0,7.4-6,10.3-13.4,10.3S26.4,49,26.4,41.7s6-16.4,13.4-16.4S53.1,34.3,53.1,41.7z"/>
			<path fill="#BD9261" d="M49.4,30.9c1.9,3,3,6.5,3,9.7c0,7.4-6,10.3-13.4,10.3c-4.8,0-9-1.2-11.3-4.1c2.1,3.7,6.7,5.2,12.1,5.2
				c7.4,0,13.4-2.9,13.4-10.3C53.1,38.1,51.7,34,49.4,30.9z"/>
			<path fill="#DCB890" d="M27.3,42.5c0-7.4,6-16.4,13.4-16.4c2.7,0,5.1,1.2,7.2,3c-2.2-2.3-5-3.9-8.1-3.9
				c-7.4,0-13.4,9.1-13.4,16.4c0,3.3,1.2,5.7,3.1,7.3C28.1,47.4,27.3,45.3,27.3,42.5z"/>
			<g>
				<g>
					<path fill="#333333" d="M40.3,45.3c-0.2-0.9-1.6-1.7-1.6-1.7l0-0.1c0.1,0,1.6,0.7,1.8,1.7L40.3,45.3z"/>
				</g>
				<g>
					<path fill="#333333" d="M39,45.2l-0.1,0c0.2-1.2,1.7-1.8,1.8-1.9l0.1,0.3C40.8,43.7,39.2,44.2,39,45.2z"/>
				</g>
				<g>
					<path fill="#333333" d="M39.7,46.8c-1.5,0-2.7-1.2-2.7-2.7c0-0.8,0.4-1.6,1-2.1c0.1-0.1,0.3-0.1,0.4,0c0.1,0.1,0.1,0.3,0,0.4
						c-0.5,0.4-0.8,1-0.8,1.7c0,1.2,1,2.2,2.2,2.2s2.2-1,2.2-2.2c0-0.6-0.3-1.2-0.7-1.6c-0.1-0.1-0.1-0.2,0-0.4
						c0.1-0.1,0.2-0.1,0.4,0c0.6,0.5,0.9,1.2,0.9,2C42.4,45.6,41.2,46.8,39.7,46.8z"/>
				</g>
			</g>
			<path fill="#535353" d="M23.6,45.7c-0.2,0-0.4,0-0.7,0c-5,0-9.1,4.1-9.1,9.1h1.3C15.1,50,18.8,46,23.6,45.7z"/>
			<path fill="#BD9261" d="M58.4,45.7c-0.4-0.1-0.8-0.1-1.3-0.1c-5,0-9.1,4.1-9.1,9.1h3.1C51.1,50.3,54.2,46.6,58.4,45.7z"/>
		</g>
	</g>
	<g id="身体2">
		<g display="inline">
			<path fill="#8C6239" d="M50.8,34.7l-5.4-1.9l3.1,4.8C56,49.4,59.3,50.9,60.8,50.9c0.3,0,0.5-0.1,0.7-0.1c0.8-0.2,2.1-0.9,2.2-3.3
				C64.3,39.5,52.2,35.1,50.8,34.7z"/>
			<path fill="#744D28" d="M51.9,35.1c-0.5-0.2-0.9-0.3-1.1-0.4l-5.2-1.8c4,2.4,7,7.3,7.9,12.1c1.9,2.5,3.4,3.9,4.5,4.8
				c0-0.4,0.1-0.8,0.1-1.2C58.2,43.8,55.7,38.4,51.9,35.1z"/>
			<path fill="#8C6239" d="M28.5,35.8c-1.4-2.2-2.7-4.1-3.8-5.6c1-1.2,1.7-2.7,1.7-4.4c0-3.7-3-6.7-6.7-6.7c-3.7,0-6.7,3-6.7,6.7
				c0,0.8,0.2,1.6,0.4,2.3c1.5,6.6,11.5,10.2,12.7,10.7l5.4,1.9L28.5,35.8z"/>
			<path fill="#744D28" d="M28.5,35.8c-1.4-2.2-2.7-4.1-3.8-5.6c1-1.2,1.7-2.7,1.7-4.4c0-3-2-5.5-4.7-6.4c2.3,1.1,3.9,3.4,3.9,6.1
				c0,1.7-0.6,3.2-1.7,4.4c1.1,1.5,2.4,3.4,3.8,5.6l3.1,4.8l-5.4-1.9c-0.1,0-0.2-0.1-0.3-0.1c0.5,0.2,0.9,0.4,1.1,0.4l5.4,1.9
				L28.5,35.8z"/>
			<path fill="#333333" d="M23.6,51.8c-5,0-9.1,4.1-9.1,9.1h18.3C32.8,55.9,28.7,51.8,23.6,51.8z"/>
			<path d="M25.2,51.9c3.9,1.1,6.7,4.8,6.7,9h0.8C32.8,56.4,29.5,52.6,25.2,51.9z"/>
			<path fill="#535353" d="M24.3,51.8c-0.2,0-0.4,0-0.7,0c-5,0-9.1,4.1-9.1,9.1h1.3C15.8,56.1,19.6,52.1,24.3,51.8z"/>
			<path fill="#8C6239" d="M44,55.3c0,2.6-0.9,4.7-3.5,4.7S37,57.9,37,55.3c0-2.6,0.9-4.7,3.5-4.7S44,52.7,44,55.3z"/>
			<path fill="#C69C6D" d="M57.9,51.8c-5,0-9.1,4.1-9.1,9.1H67C67,55.9,62.9,51.8,57.9,51.8z"/>
			<path fill="#AA8561" d="M50.8,34.7l-5.4-1.9l0.3,0.4l5.1,1.7c1.4,0.5,13.4,4.9,12.9,12.8c0,0.5-0.1,0.9-0.2,1.3
				c0.2-0.4,0.3-0.9,0.3-1.6C64.2,39.5,52.2,35.1,50.8,34.7z"/>
			<path fill="#C69C6D" d="M53.9,47.8c0,7.4-6,10.3-13.4,10.3s-13.4-2.9-13.4-10.3s6-16.4,13.4-16.4S53.9,40.4,53.9,47.8z"/>
			<path fill="#BD9261" d="M59.1,51.8c-0.4-0.1-0.8-0.1-1.3-0.1c-5,0-9.1,4.1-9.1,9.1h3.1C51.9,56.5,55,52.7,59.1,51.8z"/>
			<path fill="#BD9261" d="M50.1,37c1.9,3,3,6.5,3,9.7c0,7.4-6,10.3-13.4,10.3c-4.8,0-9-1.2-11.3-4.1c2.1,3.7,6.7,5.2,12.1,5.2
				c7.4,0,13.4-2.9,13.4-10.3C53.9,44.2,52.4,40.2,50.1,37z"/>
			<path fill="#DCB890" d="M28,48.7c0-7.4,6-16.4,13.4-16.4c2.7,0,5.1,1.2,7.2,3c-2.2-2.3-5-3.9-8.1-3.9c-7.4,0-13.4,9.1-13.4,16.4
				c0,3.3,1.2,5.7,3.1,7.3C28.9,53.5,28,51.4,28,48.7z"/>
			<g>
				<path fill="#333333" d="M41.1,51.4c-0.2-0.9-1.6-1.7-1.6-1.7l0-0.1c0.1,0,1.6,0.7,1.8,1.7L41.1,51.4z"/>
			</g>
			<g>
				<path fill="#333333" d="M39.7,51.4l-0.1,0c0.2-1.2,1.7-1.8,1.8-1.9l0.1,0.3C41.5,49.8,39.9,50.3,39.7,51.4z"/>
			</g>
			<g>
				<path fill="#333333" d="M40.5,53c-1.5,0-2.7-1.2-2.7-2.7c0-0.8,0.4-1.6,1-2.1c0.1-0.1,0.3-0.1,0.4,0c0.1,0.1,0.1,0.3,0,0.4
					c-0.5,0.4-0.8,1-0.8,1.7c0,1.2,1,2.2,2.2,2.2s2.2-1,2.2-2.2c0-0.6-0.3-1.2-0.7-1.6c-0.1-0.1-0.1-0.2,0-0.4
					c0.1-0.1,0.2-0.1,0.4,0c0.6,0.5,0.9,1.2,0.9,2C43.1,51.8,41.9,53,40.5,53z"/>
			</g>
			<path fill="#AA8561" d="M14.3,29.1c-0.3-0.7-0.4-1.5-0.4-2.3c0-3.7,3-6.7,6.7-6.7c1.8,0,3.4,0.7,4.6,1.8
				c-1.2-1.7-3.2-2.8-5.4-2.8c-3.7,0-6.7,3-6.7,6.7c0,0.8,0.2,1.6,0.4,2.3c0.4,1.8,1.4,3.3,2.7,4.7C15.2,31.7,14.6,30.4,14.3,29.1z"
				/>
		</g>
	</g>
	<g id="身体3">
		<g display="inline">
			<path fill="#C69C6D" d="M57.2,45.6c-5,0-9.1,4.1-9.1,9.1h18.3C66.4,49.7,62.3,45.6,57.2,45.6z"/>
			<path fill="#BD9261" d="M58.5,45.7c-0.4-0.1-0.8-0.1-1.3-0.1c-5,0-9.1,4.1-9.1,9.1h3.1C51.2,50.4,54.3,46.6,58.5,45.7z"/>
			<path fill="#333333" d="M22.8,45.6c-5,0-9.1,4.1-9.1,9.1h18.3C31.9,49.7,27.8,45.6,22.8,45.6z"/>
			<path d="M24.4,45.8c3.9,1.1,6.7,4.8,6.7,9h0.8C31.9,50.2,28.7,46.5,24.4,45.8z"/>
			<path fill="#535353" d="M23.5,45.7c-0.2,0-0.4,0-0.7,0c-5,0-9.1,4.1-9.1,9.1H15C15,49.9,18.7,46,23.5,45.7z"/>
			<path fill="#8C6239" d="M43.2,49.1c0,2.6-0.9,4.7-3.5,4.7s-3.5-2.1-3.5-4.7c0-2.6,0.9-4.7,3.5-4.7S43.2,46.6,43.2,49.1z"/>
			<path fill="#8C6239" d="M29,31.5c-1.2,0.8-11.7,8.2-9.1,15.7c0.8,2.3,2.2,2.6,3,2.6c0,0,0,0,0,0c1.1,0,4.1-0.1,9.1-16.1l1.7-5.5
				L29,31.5z"/>
			<path fill="#744D28" d="M32.4,29.3l-1.7,5.4c-3,9.6-5.3,13.5-6.9,15c1.5-0.5,4.2-3,8.3-16l1.7-5.5L32.4,29.3z"/>
			<path fill="#AA8561" d="M21.1,48.9C18.5,41.3,28,33,29.2,32.2l4.4-3.2l0.2-0.6L29,31.6c-1.2,0.8-11.7,8.2-9.1,15.7
				c0.4,1,0.9,1.7,1.4,2C21.2,49.2,21.1,49,21.1,48.9z"/>
			<path fill="#8C6239" d="M49.6,31.5l-4.7-3.2l1.7,5.5c5,16,8,16.1,9.1,16.1c0,0,0,0,0,0c0.8,0,2.2-0.3,3-2.6
				C61.3,39.7,50.8,32.4,49.6,31.5z"/>
			<path fill="#C69C6D" d="M53,41.7C53,49.1,47,52,39.6,52s-13.4-2.9-13.4-10.3s6-16.4,13.4-16.4S53,34.3,53,41.7z"/>
			<path fill="#744D28" d="M53.5,34.7c-1.6-1.5-3.1-2.6-3.7-3.1c2,3,3.2,6.7,3.2,10c0,2-0.4,3.6-1.2,5c0.2,0.4,0.5,0.7,0.7,1
				c1.5-1.6,2.4-3.8,2.4-6.6C54.9,39,54.4,36.8,53.5,34.7z"/>
			<path fill="#BD9261" d="M49.2,30.9c1.9,3,3,6.5,3,9.7c0,7.4-6,10.3-13.4,10.3c-4.8,0-9-1.2-11.3-4.1c2.1,3.7,6.7,5.2,12.1,5.2
				C47,51.9,53,49,53,41.7C53,38.1,51.6,34,49.2,30.9z"/>
			<path fill="#DCB890" d="M27.2,42.5c0-7.4,6-16.4,13.4-16.4c2.7,0,5.1,1.2,7.2,3c-2.2-2.3-5-3.9-8.1-3.9
				c-7.4,0-13.4,9.1-13.4,16.4c0,3.3,1.2,5.7,3.1,7.3C28,47.4,27.2,45.3,27.2,42.5z"/>
			<g>
				<path fill="#333333" d="M40.2,45.3c-0.2-0.9-1.6-1.7-1.6-1.7l0-0.1c0.1,0,1.6,0.7,1.8,1.7L40.2,45.3z"/>
			</g>
			<g>
				<path fill="#333333" d="M38.9,45.2l-0.1,0c0.2-1.2,1.7-1.8,1.8-1.9l0.1,0.3C40.6,43.7,39,44.2,38.9,45.2z"/>
			</g>
			<g>
				<path fill="#333333" d="M39.6,46.8c-1.5,0-2.7-1.2-2.7-2.7c0-0.8,0.4-1.6,1-2.1c0.1-0.1,0.3-0.1,0.4,0c0.1,0.1,0.1,0.3,0,0.4
					c-0.5,0.4-0.8,1-0.8,1.7c0,1.2,1,2.2,2.2,2.2s2.2-1,2.2-2.2c0-0.6-0.3-1.2-0.7-1.6c-0.1-0.1-0.1-0.2,0-0.4
					c0.1-0.1,0.2-0.1,0.4,0c0.6,0.5,0.9,1.2,0.9,2C42.3,45.6,41.1,46.8,39.6,46.8z"/>
			</g>
		</g>
	</g>
	<g id="身体4">
		<g display="inline">
			<path fill="#8C6239" d="M41.2,53.9c-0.3,2.6-1.4,4.6-4,4.3s-3.3-2.4-3-5c0.3-2.6,1.4-4.6,4-4.3C40.7,49.2,41.4,51.4,41.2,53.9z"
				/>
			<path fill="#333333" d="M20.6,49c-3.6,3.6-3.5,9.4,0,12.9l12.9-13C29.9,45.4,24.1,45.4,20.6,49z"/>
			<path fill="#0E0E0E" d="M19.7,60.8c0.3,0.4,0.6,0.8,0.9,1.1l11.6-11.6L19.7,60.8z"/>
			<path fill="#535353" d="M21.6,50.9c3-3.1,7.3-4.1,10.7-2.9c-3.6-2.6-8.6-2.2-11.8,1c-2.5,2.5-3.2,6-2.3,9.1
				C18.5,55.6,19.6,53,21.6,50.9z"/>
			<path fill="#C69C6D" d="M54.9,51.5c-4.9-1.1-9.8,2.1-10.9,7l9.9,3.6l8,0.2C62.9,57.5,59.8,52.6,54.9,51.5z"/>
			<path fill="#BD9261" d="M59.7,55.2c0.3,0.1,0.6,0.1,0.9,0.2c-1.3-1.9-3.3-3.4-5.7-3.9c-4.9-1.1-9.8,2.1-10.9,7l5.4,2
				C51.1,56.6,55.3,54.3,59.7,55.2z"/>
			<path fill="#8C6239" d="M30.9,33.8c-4.8-16.1-7.8-16.2-8.9-16.2c-0.8,0-2.2,0.3-3.1,2.6c-2.7,7.5,7.7,15,8.9,15.8l4.7,3.3
				L30.9,33.8z"/>
			<path fill="#744D28" d="M30.2,33.3l1.3,5.4l1.3,0.9L31,34.1c-1-3.4-1.9-6-2.8-8.1C28.9,28,29.5,30.4,30.2,33.3z"/>
			<path fill="#AA8561" d="M20.2,22.1c0.8-2.3,2.3-2.6,3.1-2.6c0.5,0,1.5,0,2.9,1.8c-2.1-3.7-3.4-3.7-4.1-3.7
				c-0.8,0-2.2,0.3-3.1,2.6c-1.2,3.4,0.2,6.7,2.3,9.5C19.9,27.3,19.3,24.7,20.2,22.1z"/>
			<path fill="#8C6239" d="M55.1,20.4c-1.6-1.8-3.1-1.6-3.8-1.3c-1,0.4-3.8,1.6-2.3,18.3l0.5,5.7l3.2-4.8
				C53.5,37.2,60.4,26.4,55.1,20.4z"/>
			<path fill="#744D28" d="M57,24.6c-0.7,5.4-4.8,11-5.4,11.9L49.3,40l0.3,3.4l3.2-4.8C53.4,37.7,58,30.5,57,24.6z"/>
			<path fill="#AA8561" d="M51.7,21.2c0.7-0.3,2.2-0.6,3.8,1.3c0.8,0.9,1.3,1.9,1.6,3c-0.1-1.8-0.6-3.6-1.9-5.1
				c-1.6-1.8-3.1-1.6-3.8-1.3c-0.9,0.4-3.2,1.4-2.7,13.3C48.6,22.6,50.8,21.6,51.7,21.2z"/>
			<path fill="#C69C6D" d="M52.6,45.8c-0.9,7.3-7.2,9.5-14.5,8.5c-7.3-0.9-12.9-4.5-12-11.9s8-15.6,15.3-14.6S53.5,38.4,52.6,45.8z"
				/>
			<path fill="#BD9261" d="M48.8,32.5c2.6,3.7,3.9,8.5,3.4,12.6c-0.9,7.5-7.7,9.6-15.5,8.6c-1.8-0.2-3.4-0.6-4.9-1.1
				c1.8,0.9,4,1.5,6.3,1.8c7.3,0.9,13.6-1.2,14.5-8.5C53.2,41.4,51.7,36.2,48.8,32.5z"/>
			<path fill="#DCB890" d="M27.8,44c0.9-7.3,8-15.6,15.3-14.6c1.8,0.2,3.4,1,4.8,2.1c-1.8-2-4-3.4-6.6-3.7
				C34,26.8,26.9,35.1,26,42.4c-0.5,4.1,1,7,3.7,9C28.1,49.5,27.4,47.1,27.8,44z"/>
			<g>
				<g>
					<path fill="#333333" d="M40.1,46.7c-0.2-0.9-1.6-1.7-1.6-1.7l0-0.1c0.1,0,1.6,0.7,1.8,1.7L40.1,46.7z"/>
				</g>
				<g>
					<path fill="#333333" d="M38.7,46.7l-0.1,0c0.2-1.2,1.7-1.8,1.8-1.9l0.1,0.3C40.5,45.1,38.9,45.7,38.7,46.7z"/>
				</g>
				<g>
					<path fill="#333333" d="M39.5,48.3c-1.5,0-2.7-1.2-2.7-2.7c0-0.8,0.4-1.6,1-2.1c0.1-0.1,0.3-0.1,0.4,0c0.1,0.1,0.1,0.3,0,0.4
						c-0.5,0.4-0.8,1-0.8,1.7c0,1.2,1,2.2,2.2,2.2s2.2-1,2.2-2.2c0-0.6-0.3-1.2-0.7-1.6c-0.1-0.1-0.1-0.2,0-0.4
						c0.1-0.1,0.2-0.1,0.4,0c0.6,0.5,0.9,1.2,0.9,2C42.2,47.1,41,48.3,39.5,48.3z"/>
				</g>
			</g>
		</g>
	</g>
	<g id="身体5">
		<g display="inline">
			<path fill="#C69C6D" d="M57.2,45.6c-5,0-9.1,4.1-9.1,9.1h18.3C66.4,49.7,62.3,45.6,57.2,45.6z"/>
			<path fill="#BD9261" d="M58.5,45.7c-0.4-0.1-0.8-0.1-1.3-0.1c-5,0-9.1,4.1-9.1,9.1h3.1C51.2,50.4,54.3,46.6,58.5,45.7z"/>
			<path fill="#333333" d="M22.8,45.6c-5,0-9.1,4.1-9.1,9.1h18.3C31.9,49.7,27.8,45.6,22.8,45.6z"/>
			<path d="M24.3,45.8c3.9,1.1,6.7,4.8,6.7,9h0.8C31.9,50.2,28.6,46.5,24.3,45.8z"/>
			<path fill="#535353" d="M23.4,45.7c-0.2,0-0.4,0-0.7,0c-5,0-9.1,4.1-9.1,9.1H15C15,50,18.7,46,23.4,45.7z"/>
			<path fill="#8C6239" d="M43.2,49.2c0,2.6-0.9,4.7-3.5,4.7s-3.5-2.1-3.5-4.7c0-2.6,0.9-4.7,3.5-4.7S43.2,46.6,43.2,49.2z"/>
			<path fill="#C69C6D" d="M53,41.7C53,49.1,47,52,39.6,52s-13.4-2.9-13.4-10.3s6-16.4,13.4-16.4S53,34.3,53,41.7z"/>
			<path fill="#B18451" d="M49.2,30.9c1.7,2.9,2.8,6.3,2.8,9.3c0,7.4-6,10.3-13.4,10.3c-4.8,0-9-1.2-11.3-4.1c2,4,6.8,5.6,12.3,5.6
				C47,52,53,49.1,53,41.7C53,38.1,51.5,34.1,49.2,30.9z"/>
			<path fill="#DCB890" d="M28.3,43.7c0-7.4,6-16.4,13.4-16.4c2.5,0,4.9,1.1,6.9,2.7c-2.4-2.8-5.5-4.7-8.9-4.7
				c-7.4,0-13.4,9.1-13.4,16.4c0,3.6,1.4,6.1,3.7,7.7C28.9,47.9,28.3,46,28.3,43.7z"/>
			<path fill="#8C6239" d="M50.8,32L46.6,28l0.8,5.7c2.4,16.6,5.3,17.1,6.4,17.3c0.1,0,0.3,0,0.5,0c0.8,0,2-0.4,2.9-2.1
				C61,41.9,51.9,33,50.8,32z"/>
			<path fill="#744D28" d="M54.5,36.2c1.9,3.9,3.6,9.2,1.4,13.3c-0.4,0.8-0.9,1.3-1.4,1.6c0.8-0.1,1.9-0.5,2.7-2.1
				C59.6,44.7,57.1,39.7,54.5,36.2z"/>
			<path fill="#AA8561" d="M49.3,33.4L48.8,30L46.6,28l0.8,5.7c1.8,12.6,3.9,16,5.3,16.9C51.8,47.7,50.6,42.5,49.3,33.4z"/>
			<path fill="#8C6239" d="M28.4,32.7c-1,1.1-9.3,10.8-4.9,17.5c1,1.5,2.1,1.9,2.9,1.9c0.3,0,0.5,0,0.7-0.1c1.1-0.3,4-1.1,4.9-17.8
				l0.3-5.7L28.4,32.7z"/>
			<path fill="#744D28" d="M25.8,51.1c-0.2,0.1-0.4,0.1-0.7,0.1c-0.3,0-0.7-0.1-1-0.2c0.8,0.8,1.6,1,2.2,1c0.3,0,0.5,0,0.7-0.1
				c1-0.3,3.5-1,4.6-14.1C29.9,47.9,26.7,50.9,25.8,51.1z"/>
			<path fill="#AA8561" d="M29.1,34l3-3.4l0.1-2.2l-3.8,4.3c-1,1.1-9.3,10.8-4.9,17.5c0,0,0.1,0.1,0.1,0.1
				C20.7,43.7,28.1,35,29.1,34z"/>
			<g>
				<g>
					<path fill="#333333" d="M40.4,44.9c-0.2-0.9-1.6-1.7-1.6-1.7l0-0.1c0.1,0,1.6,0.7,1.8,1.7L40.4,44.9z"/>
				</g>
				<g>
					<path fill="#333333" d="M39.1,44.9l-0.1,0c0.2-1.2,1.7-1.8,1.8-1.9l0.1,0.3C40.9,43.3,39.3,43.8,39.1,44.9z"/>
				</g>
				<g>
					<path fill="#333333" d="M39.8,46.5c-1.5,0-2.7-1.2-2.7-2.7c0-0.8,0.4-1.6,1-2.1c0.1-0.1,0.3-0.1,0.4,0c0.1,0.1,0.1,0.3,0,0.4
						c-0.5,0.4-0.8,1-0.8,1.7c0,1.2,1,2.2,2.2,2.2s2.2-1,2.2-2.2c0-0.6-0.3-1.2-0.7-1.6c-0.1-0.1-0.1-0.2,0-0.4
						c0.1-0.1,0.2-0.1,0.4,0c0.6,0.5,0.9,1.2,0.9,2C42.5,45.3,41.3,46.5,39.8,46.5z"/>
				</g>
			</g>
		</g>
	</g>
	<g id="身体6">
		<g display="inline">
			<path fill="#8C6239" d="M64.6,29.7c-1.4-2.4-3.9-3.1-6.3-1.7c-0.1,0-7.5,4.7-5.4,8.3c0.6,1.1,1.9,1.5,3.3,1.5
				c2.7,0,6.1-1.4,6.7-1.8c1.6-0.9,2.1-2.1,2.3-3C65.5,31.9,65.2,30.8,64.6,29.7z"/>
			<path fill="#744D28" d="M57.8,29.2c-0.4,0-0.8,0-1.2,0.1c-2.1,1.7-5,4.6-3.7,7c0.6,1.1,1.9,1.5,3.3,1.5c2.7,0,6.1-1.4,6.7-1.8
				c1.6-0.9,2.1-2.1,2.3-3c0-0.2,0-0.4,0.1-0.6C63.2,30.5,60.6,29.2,57.8,29.2z"/>
			<line fill="#B18451" x1="36" y1="19.6" x2="36.3" y2="25.8"/>
			<path fill="#C69C6D" d="M53.8,40.3c0,7.4-6,10.3-13.4,10.3s-13.4-2.9-13.4-10.3s6-16.4,13.4-16.4S53.8,33,53.8,40.3z"/>
			<g>
				<path fill="#B18451" d="M49.3,28.6c2.5,3.2,4.1,7.2,4.1,10.9c0,7.4-6.3,10.3-14.2,10.3c-2.8,0-5.5-0.4-7.7-1.2
					c2.4,1.4,5.5,2.1,8.9,2.1c7.4,0,13.4-2.9,13.4-10.3C53.8,36.4,52,31.9,49.3,28.6z"/>
				<path fill="#B18451" d="M49,28.4c-0.1-0.1-0.1-0.1-0.2-0.2C48.9,28.2,49,28.3,49,28.4z"/>
			</g>
			<path fill="#DCB890" d="M29.6,43.1c0-7.4,6-16.4,13.4-16.4c2.6,0,5.1,1.2,7.1,3c-2.4-3.3-5.8-5.7-9.6-5.7
				c-7.4,0-13.4,9.1-13.4,16.4c0,3.6,1.4,6.1,3.7,7.8C30,46.7,29.6,45.1,29.6,43.1z"/>
			
				<ellipse transform="matrix(0.9668 -0.2557 0.2557 0.9668 -11.4964 5.0465)" fill="#C69C6D" cx="13.7" cy="46.7" rx="5.7" ry="7.7"/>
			<path fill="#DCB890" d="M9.9,50.2c-1.1-4.1,0.5-8.1,3.6-8.9c1.6-0.4,3.3,0.1,4.7,1.3c-1.5-2.6-4.1-4.1-6.5-3.5
				C8.6,40,7,44,8.1,48.1c0.5,2,1.5,3.6,2.8,4.7C10.5,52,10.1,51.1,9.9,50.2z"/>
			<ellipse fill="#333333" cx="24.9" cy="60.8" rx="3.6" ry="4.9"/>
			<path fill="#535353" d="M23.2,62.2c0-2.7,1.6-4.9,3.6-4.9c0.2,0,0.4,0,0.7,0.1c-0.7-1-1.6-1.6-2.7-1.6c-2,0-3.6,2.2-3.6,4.9
				c0,2.4,1.3,4.4,3,4.8C23.5,64.6,23.2,63.4,23.2,62.2z"/>
			<ellipse transform="matrix(0.866 0.5 -0.5 0.866 37.341 -18.9164)" fill="#333333" cx="54" cy="60.2" rx="4.6" ry="5.7"/>
			<path fill="#535353" d="M51.1,59.3c1.6-2.7,4.6-3.9,6.8-2.6c0.1,0.1,0.3,0.2,0.4,0.3c-0.3-0.7-0.8-1.3-1.5-1.7
				c-2.2-1.3-5.2-0.1-6.8,2.6c-1.5,2.5-1.1,5.5,0.7,6.9C50,63.3,50,61.2,51.1,59.3z"/>
			
				<ellipse transform="matrix(0.9851 -0.1722 0.1722 0.9851 -10.3426 7.7582)" fill="#C69C6D" cx="39.6" cy="63.5" rx="6.1" ry="8.3"/>
			<path fill="#DCB890" d="M35.4,67.1c-0.8-4.5,1.3-8.6,4.6-9.2c1.6-0.3,3.3,0.3,4.6,1.5c-1.4-2.8-3.9-4.5-6.5-4
				c-3.3,0.6-5.4,4.7-4.6,9.2c0.4,2.3,1.5,4.3,2.9,5.5C35.9,69.2,35.6,68.2,35.4,67.1z"/>
			<ellipse transform="matrix(0.99 0.1411 -0.1411 0.99 7.7605 -8.2018)" fill="#C69C6D" cx="61.7" cy="50.6" rx="2.3" ry="3.1"/>
			<path fill="#DCB890" d="M60,51c0.2-1.7,1.5-2.9,2.7-2.7c0.3,0,0.6,0.2,0.9,0.4c-0.3-0.6-0.8-1-1.5-1.1c-1.3-0.2-2.5,1-2.7,2.7
				c-0.2,1.2,0.2,2.4,1,3C60.1,52.7,59.9,51.9,60,51z"/>
			<path fill="#8C6239" d="M50.8,8.4c-0.5-0.2-1.2-0.2-2.1,0c-7.8,1.6-8.9,14.3-9,15.8l-0.4,5.7l3.9-4.2c1.6-1.8,2.9-3.3,4.1-4.7
				c0.9,0.5,2,0.7,3.1,0.7c3.7,0,6.7-3,6.7-6.7C57,11.6,54.3,8.7,50.8,8.4z"/>
			<path fill="#744D28" d="M56.6,13c0.1,0.4,0.1,0.7,0.1,1.1c0,3.7-3,6.7-6.7,6.7c-1.1,0-2.1-0.3-3.1-0.7c-0.7,0.9-2.4,3.6-3.9,5.8
				l0.1-0.1c1.6-1.8,2.9-3.3,4.1-4.7c0.9,0.5,2,0.7,3.1,0.7c3.7,0,6.7-3,6.7-6.7C57,14.4,56.8,13.6,56.6,13z"/>
			<path fill="#AA8561" d="M49.7,10.8c0.9-0.2,1.6-0.1,2.1,0c2.1,0.2,3.9,1.3,5,2.9c-0.6-2.9-3-5.1-6-5.3c-0.5-0.2-1.2-0.2-2.1,0
				c-7.8,1.6-8.9,14.3-9,15.8l-0.1,1.7C40.1,22.9,42.6,12.2,49.7,10.8z"/>
			<path fill="#8C6239" d="M72.2,52"/>
			<path fill="#AA8561" d="M72.1,51.9"/>
			<path fill="#B18451" d="M72.2,51.7"/>
		</g>
	</g>
	<g id="身体7">
		<g display="inline">
			<path fill="#333333" d="M28.4,45.6c-5,0-9,3.1-9,8.1l6,1h12.1C37.4,49.6,33.4,45.6,28.4,45.6z"/>
			<path fill="#535353" d="M30,46.5c1.2,0,2.4,0.2,3.5,0.7c-1.5-1-3.2-1.6-5.1-1.6c-5,0-9,3.1-9,8.1l1.7,0.3
				C21.3,49.3,25.2,46.5,30,46.5z"/>
			<path d="M36.9,54.6L36.9,54.6l0.5,0.1c0-2.5-1-4.8-2.7-6.4C36.2,49.9,37,52.1,36.9,54.6L36.9,54.6z"/>
			<path fill="#8C6239" d="M48.6,49c0,2.6-0.9,4.6-3.5,4.6c-2.6,0-3.5-2.1-3.5-4.6c0-2.6,0.9-4.6,3.5-4.6
				C47.7,44.4,48.6,46.5,48.6,49z"/>
			<path fill="#C69C6D" d="M53.1,45.6c-4.2,0-7.6,4.1-7.6,9h15.2C60.7,49.6,57.3,45.6,53.1,45.6z"/>
			<path fill="#8C6239" d="M34.8,29.4c-1.2,0.8-11.5,8.2-8.9,15.6c0.8,2.2,2.2,2.6,3,2.6c0,0,0,0,0.1,0c1.1,0,4.1-0.1,8.9-16
				l1.7-5.5L34.8,29.4z"/>
			<path fill="#AA8561" d="M27.3,45.6c-1.3-3.8,0.2-8.1,2.2-11.5c-2.6,3-5,6.9-3.6,10.9c0.7,2,1.9,2.5,2.7,2.6
				C28.1,47.2,27.6,46.6,27.3,45.6z"/>
			<path fill="#C69C6D" d="M54.4,41.6c0,7.3-5.9,10.2-13.2,10.2S27.9,49,27.9,41.6s5.9-16.3,13.2-16.3S54.4,34.3,54.4,41.6z"/>
			<path fill="#BD9261" d="M45.5,54.3c5.6-0.4,10-2.7,11.1-7.6c-0.9-0.6-1.9-1-3-1.1c-1.2,3.1-4,4.9-7.6,5.7
				C45.7,52.3,45.5,53.3,45.5,54.3z"/>
			<path fill="#B18451" d="M47.7,27.9c3.4,3.3,5.7,8.4,5.7,12.9c0,7.3-5.9,10.2-13.2,10.2c-3.9,0-7.3-0.8-9.7-2.6
				c2.4,2.4,6.3,3.5,10.7,3.5c7.3,0,13.2-2.9,13.2-10.2C54.4,36.8,51.7,31.1,47.7,27.9z"/>
			<path fill="#DCB890" d="M30,43.3c0-7.3,5.9-16.3,13.2-16.3c2,0,3.8,0.7,5.5,1.8c-2.2-2.1-4.8-3.4-7.6-3.4
				c-7.3,0-13.2,9-13.2,16.3c0,3.9,1.7,6.5,4.4,8.1C30.8,48.2,30,46.1,30,43.3z"/>
			<g>
				<g>
					<path fill="#333333" d="M37.2,45.2c-0.2-0.9-1.3-1.7-1.3-1.7l0-0.1c0.1,0,1.3,0.7,1.5,1.7L37.2,45.2z"/>
				</g>
				<g>
					<g>
						<path fill="#333333" d="M36.1,45.2L36.1,45.2c0.1-1.2,1.3-1.8,1.3-1.9l0.1,0.3C37.5,43.6,36.3,44.1,36.1,45.2z"/>
					</g>
					<path fill="none" stroke="#333333" stroke-width="0.5" stroke-linecap="round" stroke-miterlimit="10" d="M38,42.3
						c0.4,0.4,0.7,1.1,0.7,1.8c0,1.3-0.9,2.4-1.9,2.4s-1.9-1.1-1.9-2.4c0-0.8,0.3-1.4,0.7-1.9"/>
				</g>
			</g>
			<path fill="#8C6239" d="M48.9,30.6l-4.2-3.9l0.9,5.7c2.6,16.4,5.5,16.9,6.6,17.1c0.1,0,0.3,0,0.4,0c0.8,0,2-0.4,2.9-2.1
				C59.2,40.3,50,31.6,48.9,30.6z"/>
			<path fill="#744D28" d="M54.5,37.7c1.1,3.3,1.5,7-0.1,10c-0.5,0.9-1,1.4-1.5,1.7c0.8-0.1,1.7-0.6,2.5-2.1
				C57.1,44.2,56.2,40.7,54.5,37.7z"/>
			<path fill="#AA8561" d="M47.7,34.1l-0.8-5.4l-2.2-2l0.9,5.7C48,48,50.8,49.2,52,49.4C50.7,47.5,49.2,43.3,47.7,34.1z"/>
		</g>
	</g>
	<g id="身体8">
		<g display="inline">
			<path fill="#8C6239" d="M37.7,42.5c0,2.5-0.9,4.5-3.4,4.5S31,45,31,42.5s0.9-4.5,3.4-4.5S37.7,40.1,37.7,42.5z"/>
			<path fill="#C69C6D" d="M39.4,44.4c-2.2,0-4,7.1-4,15.9h7.9C43.3,51.5,41.6,44.4,39.4,44.4z"/>
			<path fill="#B18451" d="M40.7,45.3c1.4,2.4,2.4,8.1,2.4,14.6l-4.9,0.4h5.2C43.4,53.3,42.3,47.4,40.7,45.3z"/>
			<path fill="#DCB890" d="M40.3,44.8c-0.3-0.3-0.6-0.5-1-0.5c-2.2,0-4,7.1-4,15.9h1.2C36.6,52,38.2,45.3,40.3,44.8z"/>
			<path fill="#8C6239" d="M58.4,30.3c0-3.5-1.8-6.4-4.1-6.4c-1.6,0-3,1.4-3.6,3.5c-1.9-1.1-4.4-2.3-7.6-3.7l-5.2-2.3l2.7,5.1
				C41.2,27.7,46.3,37,53.1,37c0.5,0,1-0.1,1.6-0.2c2.1-0.5,2.7-1.6,2.8-2.4C58.1,33.3,58.4,31.9,58.4,30.3z"/>
			<path fill="#C69C6D" d="M47.1,35.4c0,7-5.7,9.8-12.7,9.8s-12.7-2.8-12.7-9.8s5.7-15.7,12.7-15.7S47.1,28.4,47.1,35.4z"/>
			<path fill="#B18451" d="M42.6,23.9c2.2,3,3.6,6.8,3.6,10.2c0,7-5.7,9.8-12.7,9.8c-4.3,0-8-1-10.3-3.4c2.1,3.3,6.4,4.6,11.3,4.6
				c7,0,12.7-2.8,12.7-9.8C47.2,31.5,45.4,27.1,42.6,23.9z"/>
			<path fill="#DCB890" d="M23.4,37.1c0-7,5.7-15.7,12.7-15.7c2.2,0,4.2,0.8,6,2.2c-2.2-2.3-4.9-3.9-7.9-3.9
				c-7,0-12.7,8.6-12.7,15.7c0,3.5,1.4,6,3.8,7.6C24.1,41.5,23.4,39.5,23.4,37.1z"/>
			<path fill="#744D28" d="M51,27.3c0,0.1-0.1,0.1-0.1,0.2c-1.9-1.1-4.4-2.3-7.6-3.7L42,23.3c3,3,5,7.4,5.2,11.4
				c1.8,1.4,3.8,2.4,6,2.4c0,0,0,0,0.1,0c0.1-0.4,0.1-0.9,0.1-1.4C53.4,33,52.5,30,51,27.3z"/>
			<g>
				<path fill="#333333" d="M34.9,38.8c-0.2-0.9-1.5-1.6-1.5-1.6l0-0.1c0.1,0,1.5,0.6,1.8,1.6L34.9,38.8z"/>
			</g>
			<g>
				<path fill="#333333" d="M33.6,38.8l-0.1,0c0.2-1.2,1.7-1.7,1.7-1.8l0.1,0.3C35.3,37.3,33.8,37.8,33.6,38.8z"/>
			</g>
			<path fill="none" stroke="#333333" stroke-width="0.5" stroke-linecap="round" stroke-miterlimit="10" d="M35.9,36.1
				c0.5,0.4,0.8,1,0.8,1.7c0,1.3-1,2.3-2.3,2.3s-2.3-1-2.3-2.3c0-0.7,0.3-1.4,0.9-1.8"/>
			<path fill="#333333" d="M25.6,35.4c-2.5,0.5-3.3,7.1-1.6,14.7l9.2-2C31.5,40.6,28.1,34.9,25.6,35.4z"/>
			<path fill="#535353" d="M26.3,36.4c0.8-0.2,1.8,0.3,2.7,1.3c-1.2-1.6-2.4-2.5-3.4-2.3c-2.5,0.5-3.3,7.1-1.6,14.7l0.5-0.1
				C23.2,42.9,23.9,36.9,26.3,36.4z"/>
			<path fill="#8C6239" d="M33.2,23.9l-5.4-1.9l3.1,4.8c7.2,11.3,10.3,12.7,11.8,12.7c0.3,0,0.5-0.1,0.7-0.1
				c0.8-0.2,2.1-0.9,2.2-3.2C46.1,28.6,34.6,24.4,33.2,23.9z"/>
			<path fill="#744D28" d="M40.8,27.9c2.3,2,4.1,4.5,3.9,7.6c-0.2,2.4-1.5,3-2.2,3.2c-0.2,0-0.4,0.1-0.7,0.1c-0.5,0-1.3-0.2-2.4-1
				c1.6,1.4,2.6,1.7,3.3,1.7c0.3,0,0.5-0.1,0.7-0.1c0.8-0.2,2.1-0.9,2.2-3.2C45.8,32.7,43.5,30,40.8,27.9z"/>
			<path fill="#AA8561" d="M32.3,27.8L29.2,23l5.4,1.9c0.6,0.2,3.6,1.3,6.5,3.2c-3.3-2.6-7.4-4.1-8.1-4.4l-5.4-1.9l3.1,4.8
				c5.2,8.1,8.3,11.1,10.1,12.2C38.9,37.2,36.2,33.9,32.3,27.8z"/>
		</g>
	</g>
	<g id="身体9">
		<g display="inline">
			<path fill="#8C6239" d="M43.2,54.2c0,2.6-0.9,4.7-3.5,4.7s-3.5-2.1-3.5-4.7c0-2.6,0.9-4.7,3.5-4.7S43.2,51.6,43.2,54.2z"/>
			<path fill="#333333" d="M22.8,50.7c-5,0-9.1,4.1-9.1,9.1h18.3C31.9,54.8,27.8,50.7,22.8,50.7z"/>
			<path d="M30.2,59.8h1.7c0-4.2-2.9-7.8-6.8-8.8C28.2,52.4,30.2,55.9,30.2,59.8z"/>
			<path fill="#535353" d="M23.6,50.7c-0.3,0-0.6,0-0.9,0c-5,0-9.1,4.1-9.1,9.1h1.8C15.4,55,19,51.1,23.6,50.7z"/>
			<path fill="#C69C6D" d="M57.2,50.7c-5,0-9.1,4.1-9.1,9.1h18.3C66.4,54.8,62.3,50.7,57.2,50.7z"/>
			<path fill="#C69C6D" d="M53,46.7C53,54.1,47,57,39.7,57s-13.4-2.9-13.4-10.3s6-16.4,13.4-16.4S53,39.3,53,46.7z"/>
			<path fill="#B18451" d="M39.7,30.5c-1,0-1.9,0.2-2.8,0.4c0.3,0,0.5-0.1,0.8-0.1c7.4,0,13.4,9.1,13.4,16.4c0,5.5-3.3,8.5-8,9.7
				c5.8-0.8,10-3.8,10-10.1C53.1,39.6,47.1,30.5,39.7,30.5z"/>
			<path fill="#DCB890" d="M29.1,48.2c0-7.4,6-16.4,13.4-16.4c1,0,2,0.2,3,0.5c-1.7-1.2-3.7-1.9-5.7-1.9c-7.4,0-13.4,9.1-13.4,16.4
				c0,4.9,2.7,7.8,6.6,9.2C30.5,54.4,29.1,51.9,29.1,48.2z"/>
			<g>
				<path fill="#333333" d="M40.2,50.3c-0.2-0.9-1.6-1.7-1.6-1.7l0-0.1c0.1,0,1.6,0.7,1.8,1.7L40.2,50.3z"/>
			</g>
			<g>
				<path fill="#333333" d="M38.9,50.3l-0.1,0c0.2-1.2,1.7-1.8,1.8-1.9l0.1,0.3C40.7,48.7,39.1,49.2,38.9,50.3z"/>
			</g>
			<path fill="none" stroke="#333333" stroke-width="0.5" stroke-linecap="round" stroke-miterlimit="10" d="M41.3,47.4
				c0.5,0.4,0.8,1.1,0.8,1.8c0,1.3-1.1,2.4-2.4,2.4s-2.4-1.1-2.4-2.4c0-0.8,0.4-1.4,0.9-1.9"/>
			<path fill="#8C6239" d="M50.4,37c-5.7-15.8-8.7-15.7-9.8-15.6c-0.8,0-2.2,0.4-2.9,2.7c-2.2,7.7,8.6,14.5,9.8,15.3l4.9,3L50.4,37z
				"/>
			<path fill="#8C6239" d="M41.2,20.2c-0.6,0-1.1,0.1-1.6,0.2c-0.3,0-0.6,0.1-1,0.3c-1.9,0.8-3.3,2.4-3.8,4.4
				c-1.4,2.3-3.1,5.6-5.1,10.5l-2.2,5.3l5-2.8c0.6-0.4,3.8-2.2,6.6-5c0.7,0.2,1.4,0.4,2.1,0.4c3.7,0,6.7-3,6.7-6.7
				S44.8,20.2,41.2,20.2z"/>
			<path fill="#744D28" d="M49.7,35c-0.8-2.2-1.6-4.1-2.3-5.6c-1,2.4-3.4,4.1-6.2,4.1c-0.2,0-0.4,0-0.6-0.1c1.1,1.4,2.4,2.5,3.6,3.5
				c0.3,0,0.5,0.1,0.8,0.1C46.8,37,48.5,36.2,49.7,35z"/>
			<path fill="#AA8561" d="M30.7,36c2-4.9,3.7-8.3,5.1-10.5c0.5-2,2-3.6,3.8-4.4c0.4-0.2,0.7-0.3,1-0.3c0.5-0.1,1-0.2,1.6-0.2
				c0.5,0,1.1,0.1,1.6,0.2c-0.8-0.4-1.7-0.6-2.7-0.6c-0.6,0-1.1,0.1-1.6,0.2c-0.3,0-0.6,0.1-1,0.3c-1.9,0.8-3.3,2.4-3.8,4.4
				c-1.4,2.3-3.1,5.6-5.1,10.5l-2.2,5.3l1.7-0.9L30.7,36z"/>
			<path fill="#744D28" d="M44.8,21.3c1.1,1.2,1.8,2.8,1.8,4.5c0,3.7-3,6.7-6.7,6.7c-0.7,0-1.5-0.1-2.1-0.4
				c-2.5,2.5-5.3,5.6-6.3,6.5l0.9-0.5c0.6-0.4,3.8-2.2,6.6-5c0.7,0.2,1.4,0.4,2.1,0.4c3.7,0,6.7-3,6.7-6.7
				C47.8,24.5,46.6,22.5,44.8,21.3z"/>
			<path fill="#BD9261" d="M58.5,50.7c-0.4-0.1-0.8-0.1-1.3-0.1c-5,0-9.1,4.1-9.1,9.1h3.1C51.2,55.4,54.3,51.6,58.5,50.7z"/>
		</g>
	</g>
</g>
<g id="武器">
	<g id="武器1" display="none">
		<g display="inline">
			<path fill="#AFC8CE" d="M65.6,34.9l-21.5,3.9c0.3,1.7,0.5,3.3,0.6,4.9l21.2-5.2"/>
			<path fill="#D5E7EB" d="M44.8,43.7c0,0.1,0,0.2,0,0.4c0,0.1,0,0.2,0,0.4l20.5-5.1c0.1-0.2,0.2-0.3,0.3-0.4
				c0.1-0.2,0.3-0.3,0.4-0.5L44.8,43.7z"/>
			<path fill="#F0F5F6" d="M62.5,30.4l-19.8,2.8c0,0.1,0.1,0.2,0.1,0.3c0,0.1,0.1,0.2,0.1,0.4L63.3,31"/>
			<path fill="#8BB3BC" d="M44.1,38.8C44.1,38.8,44.1,38.8,44.1,38.8l21.5-3.9c-0.3-0.2-0.6-0.4-0.8-0.6L44,38.1
				C44,38.4,44.1,38.6,44.1,38.8z"/>
			<path fill="#D4E1E4" d="M63.3,31l-20.3,2.9c0.4,1.4,0.7,2.8,1,4.2l20.8-3.8"/>
			<path fill="#D4E1E4" d="M40,26.8c-1.9-3.2-3.9-4.8-5.7-4.4c-1.8,0.3-3.2,2.5-3.8,6.2c-0.3,2-0.4,4.2-0.3,6.6l0.4,0l0.4,0l2.9-0.2
				l0,0c1.6-0.2,3.3,2,3.8,5.1c0.6,3-0.2,5.7-1.8,6.1l0,0l-2.8,0.9L32.7,47l-0.4,0.1c2.2,6.7,5.5,11.1,8.4,10.5
				c0.2,0,0.4-0.1,0.5-0.2c1.6-0.6,2.7-2.7,3.3-6c0.3-2.1,0.4-4.5,0.3-7c0-0.1,0-0.2,0-0.4c0-0.1,0-0.2,0-0.4
				c-0.1-1.6-0.3-3.2-0.6-4.9c0,0,0,0,0-0.1c0-0.2-0.1-0.4-0.1-0.6c-0.3-1.5-0.6-2.9-1-4.2c0-0.1-0.1-0.2-0.1-0.4
				c0-0.1-0.1-0.2-0.1-0.3C42,30.8,41,28.6,40,26.8z"/>
			<path fill="#F0F5F6" d="M37.4,55.5c0-0.1-0.1-0.1-0.1-0.2c0-0.1-0.1-0.1-0.1-0.2c0-0.1-0.1-0.1-0.1-0.2c-0.2-0.4-0.5-0.8-0.7-1.2
				c0,0,0,0,0,0c-0.7-1.4-1.3-3-1.9-4.7l0,0c0-0.1-0.1-0.2-0.1-0.3c0-0.1-0.1-0.2-0.1-0.3c0-0.1-0.1-0.2-0.1-0.4
				c-0.4-1.4-0.7-2.8-1-4.2c0-0.2-0.1-0.4-0.1-0.6c0,0,0,0,0-0.1c-0.3-1.7-0.5-3.3-0.6-4.9c0-0.1,0-0.2,0-0.4c0-0.1,0-0.2,0-0.4
				c0-0.1,0-0.2,0-0.4l0,0c0-0.2,0-0.3,0-0.5c0-0.4,0-0.8,0-1.2c0-0.2,0-0.4,0-0.5c0-0.4,0-0.8,0-1.2c0-0.2,0-0.4,0-0.6
				c0-0.4,0-0.7,0.1-1.1c0-0.3,0.1-0.5,0.1-0.8c0-0.3,0.1-0.5,0.1-0.8c0,0,0,0,0-0.1c0.1-0.3,0.1-0.7,0.2-1c0-0.1,0-0.1,0-0.2
				c0.1-0.3,0.2-0.6,0.2-0.9c0-0.1,0-0.1,0-0.2c0.1-0.3,0.2-0.6,0.3-0.8c0,0,0-0.1,0-0.1c0.1-0.3,0.2-0.5,0.4-0.8c0,0,0,0,0,0
				c0.4-0.7,0.9-1.3,1.4-1.7c0,0,0,0,0,0c0.3-0.2,0.7-0.4,1.1-0.5c0.7-0.1,1.4,0,2.1,0.4c-1.4-1.7-2.9-2.6-4.3-2.3
				c-0.4,0.1-0.8,0.2-1.1,0.5c0,0,0,0,0,0c-0.5,0.4-1,0.9-1.4,1.7c0,0,0,0,0,0c-0.1,0.2-0.2,0.5-0.4,0.8c0,0,0,0.1,0,0.1
				c-0.1,0.3-0.2,0.5-0.3,0.8c0,0.1,0,0.1,0,0.2c-0.1,0.3-0.2,0.6-0.2,0.9c0,0.1,0,0.1,0,0.2c-0.1,0.3-0.1,0.7-0.2,1c0,0,0,0,0,0.1
				c0,0.2-0.1,0.5-0.1,0.8c0,0.3-0.1,0.5-0.1,0.8c0,0.3-0.1,0.7-0.1,1.1c0,0.2,0,0.4,0,0.6c0,0.4,0,0.8,0,1.2c0,0.2,0,0.4,0,0.5
				c0,0.4,0,0.8,0,1.2c0,0.2,0,0.3,0,0.5l0,0c0,0.1,0,0.2,0,0.4c0,0.1,0,0.2,0,0.4c0,0.1,0,0.2,0,0.4c0.1,1.6,0.3,3.2,0.6,4.9
				c0,0,0,0,0,0.1c0,0.2,0.1,0.4,0.1,0.6c0.3,1.5,0.6,2.9,1,4.2c0,0.1,0.1,0.2,0.1,0.4c0,0.1,0.1,0.2,0.1,0.3c0,0.1,0.1,0.2,0.1,0.3
				l0,0c0.6,1.7,1.2,3.3,1.9,4.7c0,0,0,0,0,0c0.2,0.4,0.4,0.9,0.7,1.2c0,0.1,0.1,0.1,0.1,0.2c0,0.1,0.1,0.1,0.1,0.2
				c0,0.1,0.1,0.1,0.1,0.2c1.1,1.8,2.2,3,3.4,3.6C38.2,56.8,37.8,56.2,37.4,55.5z"/>
			<path fill="#4381A9" d="M33.8,34.9L33.8,34.9l-2.9,0.2l-0.4,0l-0.4,0l-11.3,0.8c0.6,0.3,1.3,0.8,1.8,1.6c1,1.3,1.8,3.2,2.2,5.2
				c0.6,3.3,0,6.3-1.3,7.7l10.8-3.3l0.4-0.1l0.4-0.1l2.8-0.9l0,0c1.5-0.4,2.3-3.1,1.8-6.1C37.1,37,35.4,34.8,33.8,34.9z"/>
			<path fill="#2B688F" d="M35.6,44.8L35.6,44.8l-2.8,0.9l-0.4,0.1l-0.4,0.1l-9.5,2.9c-0.3,0.7-0.6,1.2-1,1.7l10.8-3.3l0.4-0.1
				l0.4-0.1l2.8-0.9l0,0c1.5-0.4,2.3-3.1,1.8-6.1c-0.1-0.4-0.2-0.8-0.3-1.2C37.9,41.7,37.1,44.4,35.6,44.8z"/>
			<path fill="#D4E1E4" d="M20.7,37.5c-0.6-0.7-1.2-1.3-1.8-1.6c-0.6-0.3-1.1-0.3-1.7-0.2c-2.4,0.4-3.6,4.2-2.8,8.6
				c0.8,4.4,3.3,7.4,5.7,7c0.2,0,0.3-0.1,0.5-0.1c0.4-0.1,0.7-0.4,1-0.7c1.4-1.4,2-4.4,1.3-7.7C22.6,40.6,21.8,38.8,20.7,37.5z"/>
			<g>
				<path fill="#F0F5F6" d="M15.3,45.3c-0.8-4.4,0.4-8.1,2.8-8.6c0.2,0,0.4,0,0.6,0c-0.3-0.1-0.5-0.3-0.8-0.3c0.3,0,0.5,0.2,0.8,0.3
					c0.4,0,0.7,0.1,1.1,0.3c0.3,0.1,0.6,0.3,0.9,0.6c0,0,0,0,0-0.1c-0.6-0.7-1.2-1.3-1.8-1.6c-0.6-0.3-1.1-0.3-1.7-0.2
					c-2.4,0.4-3.6,4.2-2.8,8.6c0.5,2.8,1.7,5.1,3.2,6.2C16.5,49.1,15.7,47.4,15.3,45.3z"/>
			</g>
			<path fill="#66A3CB" d="M31,36.3l0.4,0l0.4,0l2.9-0.2l0,0c0.6-0.1,1.3,0.2,1.9,0.8c-0.8-1.3-1.8-2-2.7-1.9l0,0l-2.9,0.2l-0.4,0
				l-0.4,0l-11.3,0.8c0.5,0.2,1,0.6,1.4,1.1L31,36.3z"/>
		</g>
	</g>
	<g id="武器2">
		<g>
			<path fill="#8C6239" d="M12.5,26.6c0,0,32.1,11.8,32.1,11.8l1.8-4.9l-32-11.7"/>
			<path fill="#8C6239" d="M43.2,54.6l10.8,4c4.3-2.2,8.7-7.6,11.3-14.7c2.6-7.1,2.7-14,0.9-18.5l0,0c-0.1-1-2.2-2.5-4.9-3.5
				c-2.7-1-5.2-1.2-5.9-0.5l0,0c-4.3,2.2-8.7,7.6-11.3,14.7C41.5,43.2,41.3,50.1,43.2,54.6"/>
			<path fill="#AA8561" d="M43.2,54.6l2.8,1c-1.1-4.4-0.7-10.4,1.5-16.4c2.6-7.1,6.9-12.5,11.3-14.7l0,0c0.8-0.7,3.2-0.5,5.9,0.5
				c0.5,0.2,1,0.4,1.4,0.6c0-0.1-0.1-0.1-0.1-0.2l0,0c-0.1-1-2.2-2.5-4.9-3.5c-2.7-1-5.2-1.2-5.9-0.5l0,0C51,23.7,46.6,29.1,44,36.1
				S41.3,50.1,43.2,54.6"/>
			<g>
				<path fill="#C7B299" d="M51.9,27.3c-0.1-0.1-0.1-0.3,0-0.4c1.2-2.3,4-4,4.1-4.1c0.2-0.1,0.4,0,0.5,0.1c0.1,0.2,0,0.4-0.1,0.5
					c0,0-2.7,1.7-3.8,3.8c-0.1,0.2-0.3,0.3-0.5,0.2C51.9,27.4,51.9,27.3,51.9,27.3z"/>
			</g>
			<g>
				<path fill="#C7B299" d="M50.7,29.6c-0.1-0.1-0.1-0.3,0-0.4l0.6-1c0.1-0.2,0.3-0.2,0.5-0.1c0.2,0.1,0.2,0.3,0.1,0.5l-0.6,1
					C51.2,29.7,51,29.7,50.7,29.6C50.7,29.6,50.7,29.6,50.7,29.6z"/>
			</g>
			<path fill="#B18451" d="M43.3,54.4c0.3-1,3.1-1,6.2,0.1s5.3,2.7,4.9,3.7c-0.3,1-3.1,1-6.2-0.1S42.9,55.5,43.3,54.4"/>
		</g>
	</g>
</g>
<g id="脸" display="none">
	<polygon display="inline" fill="#C69C6D" points="-29.2,-201.4 63,-201.4 20.5,-123.1 	"/>
	<polygon display="inline" fill="#B18451" points="20.5,-126.6 13.3,-134.4 20.5,-123.1 50,-177.4 	"/>
	<polygon display="inline" fill="#DCB890" points="-24.4,-198.5 50.1,-201.2 -29.2,-201.2 8.8,-141.4 	"/>
</g>
<g id="鼻子_x2B_嘴窝" display="none">
	<path display="inline" fill="#F9F3F3" d="M30.3-155.5c0,7.4-6,10.3-13.4,10.3s-13.4-2.9-13.4-10.3s6-16.4,13.4-16.4
		S30.3-162.9,30.3-155.5z"/>
	<path display="inline" fill="#FFFFFF" d="M4.3-154.4c0-7.4,6-16.4,13.4-16.4c4.2,0,8,3,10.4,6.9c-2.4-4.5-6.5-8.1-11.1-8.1
		c-7.4,0-13.4,9.1-13.4,16.4c0,2.3,0.6,4.2,1.6,5.7C4.6-151.2,4.3-152.7,4.3-154.4z"/>
	<path display="inline" fill="#E6E6E6" d="M26.3-166.7c1.8,2.9,2.9,6.4,2.9,9.5c0,7.4-6,10.3-13.4,10.3c-4.6,0-8.7-1.1-11.1-3.8
		c2.1,3.8,6.8,5.4,12.2,5.4c7.4,0,13.4-2.9,13.4-10.3C30.4-159.2,28.8-163.4,26.3-166.7z"/>
	<path display="inline" fill="#8C6239" stroke="#8C6239" stroke-width="4" stroke-miterlimit="10" d="M10.6-173.9
		c0-2.9,2.8-4.1,6.3-4.1s6.3,1.1,6.3,4.1c0,2.9-2.8,6.5-6.3,6.5S10.6-171,10.6-173.9z"/>
	<path display="inline" fill="#744D28" d="M22.8-178.5c1.2,1,1.8,2.4,1.8,4.1c0,3.9-3.6,8.5-8.3,8.5c-1.6,0-3.1-0.5-4.3-1.4
		c1.4,1.1,3.1,1.9,5,1.9c4.7,0,8.3-4.6,8.3-8.5C25.3-175.9,24.4-177.4,22.8-178.5z"/>
	<path display="inline" fill="#AA8561" d="M10.1-173.2c0-3.8,3.1-6.1,8.3-6.1c1.5,0,2.8,0.2,3.9,0.5c-1.4-0.8-3.2-1.2-5.5-1.2
		c-5.2,0-8.3,2.3-8.3,6.1c0,3.3,2.6,7.1,6.3,8.2C12-167.2,10.1-170.4,10.1-173.2z"/>
</g>
<g id="害羞脸" display="none">
	<g display="inline">
		<path fill="#BC4444" d="M-89.7-166c-0.3,0.2-0.6,0.3-0.8,0.2c-2.1-1.3,1.1-7.3,1.2-7.5c0.2-0.3,0.6-0.7,0.9-0.6
			C-83.6-173-91.1-168-89.7-166z"/>
	</g>
	<g display="inline">
		<path fill="#BC4444" d="M-84.8-172.5c0.2-0.1,0.4-0.2,0.6-0.1c1.4,1,0.6,3.9-0.2,4.8c-0.6,0.7-1.4,0.8-1.6,0.8
			C-89.3-167.9-83.9-171-84.8-172.5z"/>
	</g>
	<g display="inline">
		<path fill="#BC4444" d="M-81.8-167.1c-0.1,0.1-0.2-0.3-0.3-0.5c-0.4-1-0.1-2.2,0.4-2.7c0.4-0.5,0.9-0.5,1-0.5
			C-78.6-170.4-82.4-168.1-81.8-167.1z"/>
	</g>
</g>
<g id="闪光眼" display="none">
	<g display="inline">
		<polygon fill="#F6F3F0" points="40,48 38.2,41.8 33,40 38.2,38.2 40,32 41.8,38.2 47,40 41.8,41.8 		"/>
	</g>
</g>
<g id="耳朵" display="none">
	<g id="耳朵9">
		<polygon display="inline" fill="#C69C6D" points="20.8,-236.7 52.2,-228.8 14.1,-210.1 		"/>
		<polygon display="inline" fill="#B18451" points="14.5,-211.9 14.1,-210.1 52.1,-228.8 51.9,-228.9 		"/>
		<polygon display="inline" fill="#DCB890" points="22.8,-233.4 43.8,-231 20.8,-236.8 14.7,-212.2 		"/>
		<polygon display="inline" fill="#C69C6D" points="-44.2,-236.6 -75.4,-227.9 -36.9,-210.2 		"/>
		<polygon display="inline" fill="#B18451" points="-39.6,-212.2 -45,-213.9 -36.9,-210.2 -44.2,-236.6 -45.1,-236.4 		"/>
		<polygon display="inline" fill="#DCB890" points="-67.4,-227.3 -48.5,-235.4 -75.4,-227.9 -42,-212.6 		"/>
	</g>
	<g id="耳朵8">
		<polygon display="inline" fill="#C69C6D" points="-3.3,-226.5 23.1,-242.6 10.3,-204.2 		"/>
		<polygon display="inline" fill="#B18451" points="9.1,-206.2 10.3,-204.3 22,-239.3 		"/>
		<polygon display="inline" fill="#DCB890" points="-0.4,-225.8 17.7,-239.2 -3.3,-226.5 8.9,-206.4 		"/>
		<polygon display="inline" fill="#C69C6D" points="-24,-223.7 -47.6,-243.6 -40.8,-203.7 		"/>
		<polygon display="inline" fill="#B18451" points="-40,-237.2 -25.5,-224.1 -40.9,-204.1 -40.8,-203.7 -24,-223.7 		"/>
		<polygon display="inline" fill="#DCB890" points="-45.2,-240.4 -35.4,-233.4 -47.6,-243.7 -42.5,-213.4 		"/>
	</g>
	<g id="耳朵7">
		<polygon display="inline" fill="#C69C6D" points="15.1,-236.1 36.3,-228.7 6.2,-210.4 		"/>
		<polygon display="inline" fill="#B18451" points="7.1,-213.2 6.2,-210.4 36.3,-228.7 36.2,-228.7 		"/>
		<polygon display="inline" fill="#DCB890" points="16.5,-233.7 30,-230.9 15.2,-236.1 8,-215.4 		"/>
		<polygon display="inline" fill="#C69C6D" points="-38.4,-237.6 -59.4,-237.6 -38.4,-210.4 		"/>
		<polygon display="inline" fill="#B18451" points="-39.5,-213.1 -44.1,-217.8 -38.3,-210.4 -38.3,-232 		"/>
		<polygon display="inline" fill="#DCB890" points="-55.1,-235.5 -41.7,-237.6 -59.5,-237.6 -43.8,-217.5 		"/>
	</g>
	<g id="耳朵6">
		<polygon display="inline" fill="#C69C6D" points="-70.5,-237.9 -77.4,-206.3 -43.7,-232.1 		"/>
		<polygon display="inline" fill="#B18451" points="-76.5,-210.2 -77.4,-206.3 -43.7,-232.1 -43.9,-232.1 		"/>
		<polygon display="inline" fill="#DCB890" points="-67.8,-234.2 -49.7,-233.4 -70.5,-237.9 -76,-212.4 		"/>
		<polygon display="inline" fill="#C69C6D" points="41.9,-241.4 52.9,-211 16.1,-232 		"/>
		<polygon display="inline" fill="#B18451" points="44.9,-233.3 47.4,-217.7 23.6,-227.8 52.9,-211.1 		"/>
		<polygon display="inline" fill="#DCB890" points="43.2,-237.7 41.9,-241.4 16.1,-232 17,-231.5 		"/>
	</g>
	<g id="耳朵5">
		<polygon display="inline" fill="#C69C6D" points="13.8,-230.5 46.2,-230.5 13.8,-203.1 		"/>
		<polygon display="inline" fill="#B18451" points="40.5,-230.5 18.9,-207.4 46.1,-230.5 		"/>
		<polygon display="inline" fill="#DCB890" points="16.5,-229 30.9,-230.4 13.7,-230.4 13.7,-203 15.1,-204.2 		"/>
		<polygon display="inline" fill="#C69C6D" points="-69.2,-214.1 -56.7,-244 -43.9,-203.6 		"/>
		<polygon display="inline" fill="#B18451" points="-43.9,-203.6 -56.2,-242.3 -47.1,-206.4 -54.3,-207.9 		"/>
		<polygon display="inline" fill="#DCB890" points="-66.8,-214.7 -55,-238.9 -56.6,-243.9 -69.1,-214.1 -51.8,-206.8 		"/>
	</g>
	<g id="耳朵3">
		<polygon display="inline" fill="#C69C6D" points="-49.6,-235.8 -77.4,-219.2 -35.6,-212.3 		"/>
		<polygon display="inline" fill="#DCB890" points="-49.3,-234.4 -40.3,-220.2 -49.6,-235.8 -77.4,-219.3 -75.3,-218.9 		"/>
		<polygon display="inline" fill="#B18451" points="-43.4,-225.4 -36.8,-213.1 -76.8,-219.2 -35.6,-212.3 		"/>
		<polygon display="inline" fill="#C69C6D" points="24.6,-235.8 52.4,-219.3 10.6,-212.2 		"/>
		<polygon display="inline" fill="#B18451" points="36.5,-228.8 48.8,-220.1 20.7,-213.9 52.4,-219.4 		"/>
		<polygon display="inline" fill="#DCB890" points="25.2,-233.5 43,-224.9 24.6,-235.8 12,-214.4 		"/>
	</g>
	<g id="耳朵2">
		<polygon display="inline" fill="#C69C6D" points="17,-237.5 49.3,-237.5 17,-210.1 		"/>
		<polygon display="inline" fill="#C69C6D" points="-40,-237.5 -72.3,-237.5 -40,-210.1 		"/>
		<polygon display="inline" fill="#B18451" points="17,-212 17,-215.1 17,-210.1 42.5,-231.7 		"/>
		<polygon display="inline" fill="#DCB890" points="18.8,-235.7 40.6,-237.5 17,-237.5 17,-210.6 		"/>
		<polygon display="inline" fill="#B18451" points="-41.1,-211.5 -50.4,-218.9 -40,-210 -40,-233.5 		"/>
		<polygon display="inline" fill="#DCB890" points="-68.8,-236.4 -44.6,-237.5 -72.3,-237.5 -47.6,-216.5 		"/>
	</g>
	<g id="耳朵1">
		<polygon display="inline" fill="#C69C6D" points="57,-261.5 89.3,-261.5 57,-234.1 		"/>
		<polygon display="inline" fill="#B18451" points="57.1,-236 57,-239.1 57,-234.1 82.5,-255.7 		"/>
		<polygon display="inline" fill="#DCB890" points="58.8,-259.7 80.6,-261.5 57,-261.5 57,-234.6 		"/>
		<polygon display="inline" fill="#C69C6D" points="0,-261.5 -32.3,-261.5 0,-234.1 		"/>
		<polygon display="inline" fill="#B18451" points="-1.1,-235.5 -10.4,-242.9 0,-234.1 0,-257.5 		"/>
		<polygon display="inline" fill="#DCB890" points="-28.8,-260.4 -4.6,-261.5 -32.3,-261.5 -7.6,-240.5 		"/>
	</g>
</g>
<g id="眼睛" display="none">
	<g id="眼睛1">
		<g display="inline">
			<path fill="#F6F3F0" d="M34,41.4C34,51.9,28,59,20.7,59S7.3,51.9,7.3,41.4S13.3,21,20.7,21S34,30.9,34,41.4z"/>
			<path fill="#E6E6E6" d="M17.7,55.5c-3.1,0-6-1.3-8.3-3.6c2.4,3.5,6,5.6,9.9,5.6c7.4,0,13.4-7.1,13.4-17.6c0-0.4,0-0.8,0-1.2
				C31.6,48.1,24.5,55.5,17.7,55.5z"/>
			<path fill="#FFFFFF" d="M10,46c0-10.5,6-20.4,13.4-20.4c3.1,0,5.9,1.7,8.2,4.5c-2.4-5.4-6.4-9.2-11-9.2
				c-7.4,0-13.4,9.9-13.4,20.4c0,5.6,1.7,10.2,4.4,13.3C10.6,52.2,10,49.2,10,46z"/>
			<path fill="#8C6239" d="M20.7,61c-8.8,0-15.4-8.4-15.4-19.6c0-12.1,7-22.4,15.4-22.4S36,29.3,36,41.4C36,52.6,29.4,61,20.7,61z
				 M20.7,23c-5.9,0-11.4,8.8-11.4,18.4c0,9,4.8,15.6,11.4,15.6C27.2,57,32,50.4,32,41.4C32,31.8,26.6,23,20.7,23z"/>
			<g>
				<path fill="#AA8561" d="M5.8,42.5c0-12.1,7-22.4,15.4-22.4c5,0,9.6,3.7,12.4,9.4C30.8,23.2,26,19,20.7,19
					C12.3,19,5.3,29.3,5.3,41.4c0,4.2,0.9,8,2.6,11.1C6.6,49.6,5.8,46.2,5.8,42.5z"/>
				<path fill="#AA8561" d="M21.2,58.1c6.6,0,11.4-6.6,11.4-15.6c0-4.1-1-7.9-2.5-11.1c1.3,2.9,2,6.4,2,10c0,9-4.8,15.6-11.4,15.6
					c-4,0-7.3-2.4-9.3-6.3C13.3,55.2,16.8,58.1,21.2,58.1z"/>
			</g>
			<g>
				<path fill="#744D28" d="M15.5,55.4c-3.7-2.5-6.2-7.6-6.2-14c0-9.6,5.4-18.4,11.4-18.4c1.1,0,2.2,0.3,3.2,0.8
					c-1.2-0.8-2.6-1.3-3.9-1.3C14,22.6,8.6,31.3,8.6,41C8.6,47.8,11.3,53.2,15.5,55.4z"/>
				<path fill="#744D28" d="M26,20.5C31.4,24,35.3,32,35.3,41c0,11.2-6.6,19.6-15.4,19.6c-2.5,0-4.7-0.7-6.8-1.9
					c2.2,1.5,4.7,2.3,7.5,2.3C29.4,61,36,52.6,36,41.4C36,32,31.8,23.8,26,20.5z"/>
			</g>
			<path fill="#F6F3F0" d="M72.7,41.4c0,10.5-6,17.6-13.4,17.6S46,51.9,46,41.4S52,21,59.3,21S72.7,30.9,72.7,41.4z"/>
			<circle cx="23.5" cy="49.2" r="4.9"/>
			<circle cx="57.9" cy="49.2" r="4.9"/>
			<path fill="#FFFFFF" d="M48.8,45.9c0-10.5,6-20.4,13.4-20.4c3.1,0,5.9,1.7,8.2,4.5c-2.4-5.4-6.4-9.2-11-9.2
				c-7.4,0-13.4,9.9-13.4,20.4c0,5.6,1.7,10.2,4.4,13.3C49.4,52,48.8,49.1,48.8,45.9z"/>
			<path fill="#E6E6E6" d="M56.7,55.8c-3.1,0-6-1.3-8.3-3.6c2.4,3.5,6,5.6,9.9,5.6c7.4,0,13.4-7.1,13.4-17.6c0-0.4,0-0.8,0-1.2
				C70.6,48.4,63.5,55.8,56.7,55.8z"/>
			<path fill="#333333" d="M59.3,61C50.6,61,44,52.6,44,41.4C44,29.3,51,19,59.3,19s15.4,10.3,15.4,22.4C74.7,52.6,68.1,61,59.3,61z
				 M59.3,23C53.4,23,48,31.8,48,41.4c0,9,4.8,15.6,11.4,15.6c6.6,0,11.4-6.6,11.4-15.6C70.7,31.8,65.3,23,59.3,23z"/>
			<ellipse fill="#FFFFFF" cx="25.8" cy="47.3" rx="2.3" ry="2.9"/>
			<ellipse fill="#FFFFFF" cx="59.5" cy="47.1" rx="2.3" ry="2.9"/>
			<g>
				<path d="M54.1,55.4c-3.7-2.5-6.2-7.6-6.2-14c0-9.6,5.4-18.4,11.4-18.4c1.1,0,2.2,0.3,3.2,0.8c-1.2-0.8-2.6-1.3-3.9-1.3
					c-5.9,0-11.4,8.8-11.4,18.4C47.2,47.8,49.9,53.2,54.1,55.4z"/>
				<path d="M64.7,20.5C70.1,24,73.9,32,73.9,41c0,11.2-6.6,19.6-15.4,19.6c-2.5,0-4.7-0.7-6.8-1.9c2.2,1.5,4.7,2.3,7.5,2.3
					c8.8,0,15.4-8.4,15.4-19.6C74.7,32,70.4,23.8,64.7,20.5z"/>
			</g>
			<g>
				<path fill="#535353" d="M44.5,42.5c0-12.1,7-22.4,15.4-22.4c5,0,9.6,3.7,12.4,9.4C69.5,23.2,64.7,19,59.3,19
					C51,19,44,29.2,44,41.4c0,4.2,0.9,8,2.6,11.1C45.2,49.6,44.5,46.2,44.5,42.5z"/>
				<path fill="#535353" d="M59.8,58c6.6,0,11.4-6.6,11.4-15.6c0-4.1-1-7.9-2.5-11.1c1.3,2.9,2,6.4,2,10c0,9-4.8,15.6-11.4,15.6
					c-4,0-7.3-2.4-9.3-6.3C52,55.2,55.5,58,59.8,58z"/>
			</g>
		</g>
	</g>
	<g id="眼睛2">
		<path display="inline" fill="#F6F3F0" d="M-133.1-276.9c9.1,0,12.5-7.4,12.5-16.5h-33C-153.6-284.3-142.3-276.9-133.1-276.9z"/>
		<path display="inline" fill="#E6E6E6" d="M-123.3-294.2c-0.2,8.6-3.7,15.5-12.5,15.5c-4.1,0-8.6-1.5-12.4-4c4,3.1,9.2,5,13.8,5
			c9.1,0,12.5-7.4,12.5-16.5H-123.3z"/>
		<path display="inline" fill="#FFFFFF" d="M-149.1-290.2h28.5c0.1-0.8,0.1-1.6,0.1-2.4h-33c0,6.4,5.6,11.9,12.1,14.7
			C-145.8-280.9-149.1-285.3-149.1-290.2z"/>
		<path display="inline" fill="#8C6239" d="M-133.1-274.9c-10.2,0-22.5-8.3-22.5-18.5v-2h37v2C-118.6-281.6-123.9-274.9-133.1-274.9
			z M-151.4-291.4c1.5,6.9,10.7,12.5,18.3,12.5c7.8,0,10.1-6.4,10.4-12.5H-151.4z"/>
		<g display="inline">
			<path fill="#744D28" d="M-149.1-286.7c-1.1-1.4-1.9-3-2.3-4.7h28c0-0.3,0-0.5,0.1-0.8H-152C-151.6-290.1-150.5-288.3-149.1-286.7
				z"/>
			<path fill="#744D28" d="M-119.2-295.3v1.3c0,11.8-5.3,18.5-14.5,18.5c-6.5,0-13.9-3.4-18.4-8.5c4.4,5.5,12.2,9.2,19,9.2
				c9.2,0,14.5-6.7,14.5-18.5v-2H-119.2z"/>
		</g>
		<path display="inline" fill="#AA8561" d="M-155-292.6v-2h36.3v-0.8h-37v2c0,3.9,1.8,7.5,4.6,10.5
			C-153.5-285.7-155-289.1-155-292.6z"/>
		<path display="inline" fill="#AA8561" d="M-132.5-278.1c7.8,0,10-7,10.4-13.1l-0.6-0.2c-0.5,5.9-3,12.5-10.5,12.5
			c-5.2,0-11.1-2.6-14.8-6.5C-144.3-281.1-138-278.1-132.5-278.1z"/>
		<path display="inline" fill="#F6F3F0" d="M-91.1-276.9c-9.1,0-12.5-7.4-12.5-16.5h33C-70.6-284.3-82-276.9-91.1-276.9z"/>
		<path display="inline" fill="#E6E6E6" d="M-73.1-293.6c-1.2,8.4-11.8,15-20.4,15c-3.2,0-5.6-0.9-7.5-2.5c2,2.5,4.9,4,9,4
			c9.1,0,20.5-7.4,20.5-16.5H-73.1z"/>
		<path display="inline" fill="#FFFFFF" d="M-100.4-290.3h30.6c0.1-0.7,0.2-1.3,0.2-2h-33c0,6.4,1.7,11.9,5.8,14.7
			C-99.4-280.7-100.4-285.2-100.4-290.3z"/>
		<path display="inline" fill="#333333" d="M-91.1-274.9c-9.2,0-14.5-6.7-14.5-18.5v-2h37v2C-68.6-283.1-81-274.9-91.1-274.9z
			 M-101.6-291.4c0.4,6.1,2.6,12.5,10.4,12.5c7.6,0,16.8-5.6,18.3-12.5H-101.6z"/>
		<g display="inline">
			<path d="M-98-281.4c-2.4-2.4-3.3-6.2-3.5-9.9h28.3c0-0.1,0.1-0.2,0.1-0.3h-28.7C-101.7-287.8-100.7-283.8-98-281.4z"/>
			<path d="M-69-295.3v1.7c0,10.2-12.3,18.5-22.5,18.5c-3.9,0-7.1-1.2-9.5-3.6c2.4,2.5,5.8,3.9,9.9,3.9c10.2,0,22.5-8.3,22.5-18.5
				v-2H-69z"/>
		</g>
		<path display="inline" fill="#535353" d="M-105-292.6v-2h36.3v-0.8h-37v2c0,6.6,1.7,11.7,4.8,14.8
			C-103.5-281.7-105-286.5-105-292.6z"/>
		<path display="inline" fill="#535353" d="M-90.5-278.1c7.6,0,16.7-5.9,18.2-12.8l-0.6-0.4c-2,6.6-11,12.5-18.3,12.5
			c-3.1,0-5.3-1-6.9-2.6C-96.4-279.5-94-278.1-90.5-278.1z"/>
	</g>
	<g id="眼睛3">
		<g display="inline">
			<path fill="#8C6239" d="M-135.8-269.3c-3.4,0-6.2-1.4-7.8-3.4c-2.5-2.9-3.5-8.2,1.2-14.3c2.6-3.3,5.3-4.8,7.9-4.2
				c4.7,1,6.7,8,7,8.8c0.3,1.1-0.4,2.2-1.4,2.4c-1.1,0.3-2.2-0.3-2.4-1.4c-0.6-2.2-2.2-5.6-3.9-5.9c-1-0.2-2.4,0.8-3.9,2.8
				c-2.7,3.5-3.2,7-1.3,9.2c1.7,2,5.6,2.9,10.1,0.5c5.4-2.9,8-9.4,8.1-14.5c0.1-3.4-0.9-6.1-2.5-7.1c-3.1-1.9-7.6-2.4-11.6-1.4
				c-2.6,0.7-6.2,2.3-8.6,6.5c-0.6,1-1.8,1.3-2.7,0.7c-1-0.6-1.3-1.8-0.7-2.7c2.5-4.2,6.3-7.1,11.1-8.4c5-1.3,10.6-0.6,14.7,1.9
				c2.9,1.8,4.6,5.7,4.4,10.6c-0.2,6.3-3.4,14.2-10.2,17.9C-131.1-269.9-133.6-269.3-135.8-269.3z"/>
		</g>
		<g display="inline">
			<path fill="#744D28" d="M-127.9-283.5c0.1,0.3,0.2,0.6,0.2,0.7c0.3,1.1-0.4,2.2-1.4,2.4c-1,0.3-2-0.3-2.4-1.2
				c0,0.1,0.1,0.2,0.1,0.3c0.3,1.1,1.4,1.7,2.4,1.4c1.1-0.3,1.7-1.4,1.4-2.4C-127.6-282.5-127.7-282.9-127.9-283.5z"/>
			<path fill="#744D28" d="M-139.2-284.5c1.5-2,3-3,3.9-2.8c1.4,0.3,2.8,2.9,3.6,5c-0.7-2.2-2.2-5.2-3.8-5.5c-1-0.2-2.4,0.8-3.9,2.8
				c-2.2,2.8-2.9,5.6-2.2,7.7C-142-279.3-141.2-281.9-139.2-284.5z"/>
			<path fill="#744D28" d="M-145.1-291.4c2.4-4.2,6-5.8,8.6-6.5c4-1,8.5-0.4,11.6,1.4c0.8,0.5,1.4,1.4,1.8,2.5c-0.4-1.4-1.1-2.5-2-3
				c-3.1-1.9-7.6-2.4-11.6-1.4c-2.6,0.7-6.2,2.3-8.6,6.5c-0.6,1-1.8,1.3-2.7,0.7c-0.4-0.2-0.6-0.5-0.8-0.8c0.1,0.5,0.4,1,1,1.3
				C-146.9-290.1-145.6-290.4-145.1-291.4z"/>
			<path fill="#744D28" d="M-119.1-294.7c0.4,1.5,0.6,3.2,0.6,5c-0.2,6.3-3.4,14.2-10.2,17.9c-2.6,1.4-5,2-7.2,2
				c-3.4,0-6.2-1.4-7.8-3.4c-0.6-0.7-1.1-1.6-1.5-2.5c0.4,1.2,0.9,2.2,1.7,3c1.7,2,4.5,3.4,7.8,3.4c2.2,0,4.7-0.6,7.2-2
				c6.8-3.7,10-11.7,10.2-17.9C-118.3-291.3-118.5-293.1-119.1-294.7z"/>
		</g>
		<g display="inline">
			<path fill="#AA8561" d="M-133.8-286.1c1,1.3,1.9,3.3,2.3,4.8c0.1,0.5,0.5,1,1,1.2c-0.1-0.1-0.2-0.3-0.2-0.5
				C-131.2-282.4-132.5-285.1-133.8-286.1z"/>
			<path fill="#AA8561" d="M-129.8-274.1c5.4-2.9,8-9.4,8.1-14.5c0.1-3.2-0.8-5.8-2.3-6.9c1,1.3,1.6,3.5,1.5,6.2
				c-0.1,5.1-2.7,11.6-8.1,14.5c-4,2.2-7.5,1.7-9.4,0.2c0,0,0,0.1,0.1,0.1C-138.2-272.6-134.3-271.6-129.8-274.1z"/>
			<path fill="#AA8561" d="M-147.9-292.6c2.5-4.2,6.3-7.1,11.1-8.4c5-1.3,10.6-0.6,14.7,1.9c0.3,0.2,0.6,0.4,0.9,0.7
				c-0.5-0.6-1.1-1.1-1.7-1.4c-4-2.4-9.6-3.2-14.7-1.9c-4.8,1.2-8.7,4.1-11.1,8.4c-0.6,1-0.2,2.2,0.7,2.7c0,0,0,0,0,0
				C-148.2-291.3-148.3-292-147.9-292.6z"/>
			<path fill="#AA8561" d="M-142.9-271.9c-2.5-2.9-3.5-8.2,1.2-14.3c2.6-3.3,5.3-4.8,7.9-4.2c1.1,0.2,2.1,0.8,2.9,1.5
				c-1-1.1-2.2-2-3.6-2.3c-2.6-0.5-5.3,0.9-7.9,4.2c-4.7,6-3.7,11.3-1.2,14.3c0.3,0.3,0.5,0.6,0.8,0.9
				C-142.9-271.9-142.9-271.9-142.9-271.9z"/>
		</g>
		<path display="inline" fill="none" stroke="#333333" stroke-width="4" stroke-linecap="round" stroke-miterlimit="10" d="
			M-87.5-281.8c0,0-3.7-13.8-11.3-3.9c-7.7,9.9,1.3,18.1,11.3,12.7c10-5.4,11.7-21.4,5.7-25.1c-6-3.7-17.7-3.5-23,5.8"/>
		<g display="inline">
			<path d="M-85.8-283.5c0.1,0.3,0.2,0.6,0.2,0.7c0.3,1.1-0.4,2.2-1.4,2.4c-1,0.3-2-0.3-2.4-1.2c0,0.1,0.1,0.2,0.1,0.3
				c0.3,1.1,1.4,1.7,2.4,1.4c1.1-0.3,1.7-1.4,1.4-2.4C-85.5-282.5-85.6-282.9-85.8-283.5z"/>
			<path d="M-97.1-284.4c1.5-2,3-3,3.9-2.8c1.4,0.3,2.8,2.9,3.6,5c-0.7-2.2-2.2-5.2-3.8-5.5c-1-0.2-2.4,0.8-3.9,2.8
				c-2.2,2.8-2.9,5.6-2.2,7.7C-99.9-279.3-99.1-281.8-97.1-284.4z"/>
			<path d="M-103-291.3c2.4-4.2,6-5.8,8.6-6.5c4-1,8.5-0.4,11.6,1.4c0.8,0.5,1.4,1.4,1.8,2.5c-0.4-1.4-1.1-2.5-2-3
				c-3.1-1.9-7.6-2.4-11.6-1.4c-2.6,0.7-6.2,2.3-8.6,6.5c-0.6,1-1.8,1.3-2.7,0.7c-0.4-0.2-0.6-0.5-0.8-0.8c0.1,0.5,0.4,1,1,1.3
				C-104.7-290.1-103.5-290.4-103-291.3z"/>
			<path d="M-76.9-294.7c0.4,1.5,0.6,3.2,0.6,5c-0.2,6.3-3.4,14.2-10.2,17.9c-2.6,1.4-5,2-7.2,2c-3.4,0-6.2-1.4-7.8-3.4
				c-0.6-0.7-1.1-1.6-1.5-2.5c0.4,1.2,0.9,2.2,1.7,3c1.7,2,4.5,3.4,7.8,3.4c2.2,0,4.7-0.6,7.2-2c6.8-3.7,10-11.7,10.2-17.9
				C-76.2-291.3-76.4-293.1-76.9-294.7z"/>
		</g>
		<g display="inline">
			<path fill="#535353" d="M-91.7-286.1c1,1.3,1.9,3.3,2.3,4.8c0.1,0.5,0.5,1,1,1.2c-0.1-0.1-0.2-0.3-0.2-0.5
				C-89.1-282.4-90.3-285-91.7-286.1z"/>
			<path fill="#535353" d="M-87.7-274c5.4-2.9,8-9.4,8.1-14.5c0.1-3.2-0.8-5.8-2.3-6.9c1,1.3,1.6,3.5,1.5,6.2
				c-0.1,5.1-2.7,11.6-8.1,14.5c-4,2.2-7.5,1.7-9.4,0.2c0,0,0,0.1,0.1,0.1C-96.1-272.5-92.2-271.5-87.7-274z"/>
			<path fill="#535353" d="M-105.8-292.6c2.5-4.2,6.3-7.1,11.1-8.4c5-1.3,10.6-0.6,14.7,1.9c0.3,0.2,0.6,0.4,0.9,0.7
				c-0.5-0.6-1.1-1.1-1.7-1.4c-4-2.4-9.6-3.2-14.7-1.9c-4.8,1.2-8.7,4.1-11.1,8.4c-0.6,1-0.2,2.2,0.7,2.7c0,0,0,0,0,0
				C-106.1-291.2-106.1-292-105.8-292.6z"/>
			<path fill="#535353" d="M-100.8-271.9c-2.5-2.9-3.5-8.2,1.2-14.3c2.6-3.3,5.3-4.8,7.9-4.2c1.1,0.2,2.1,0.8,2.9,1.5
				c-1-1.1-2.2-2-3.6-2.3c-2.6-0.5-5.3,0.9-7.9,4.2c-4.7,6-3.7,11.3-1.2,14.3c0.3,0.3,0.5,0.6,0.8,0.9
				C-100.8-271.8-100.8-271.9-100.8-271.9z"/>
		</g>
	</g>
	<g id="眼睛4">
		<path display="inline" fill="#F6F3F0" d="M154.4-283.5c0,10.5-6,17.6-13.4,17.6c-7.4,0-13.4-7.1-13.4-17.6
			c0-10.5,6-20.4,13.4-20.4C148.4-303.9,154.4-294,154.4-283.5z"/>
		<path display="inline" fill="#E6E6E6" d="M148.8-297.4c1.5,3.3,2.4,7.3,2.4,11.3c0,10.5-6,17.6-13.4,17.6c-4.2,0-7.9-2.2-10.3-6.1
			c2.3,5.3,6.6,8.5,11.6,8.5c7.4,0,13.4-7.1,13.4-17.6C152.5-288.7,151.1-293.6,148.8-297.4z"/>
		<path display="inline" fill="#FFFFFF" d="M129.8-278.8c0-10.5,6-20.4,13.4-20.4c3.5,0,6.7,2.3,9.1,5.8c-2.4-5.4-6.4-9.1-11-9.1
			c-7.4,0-13.4,9.9-13.4,20.4c0,4.9,1.3,9.1,3.5,12.2C130.4-272.6,129.8-275.5,129.8-278.8z"/>
		<path display="inline" fill="#8C6239" d="M141-263.9c-8.8,0-15.4-8.4-15.4-19.6c0-12.1,7-22.4,15.4-22.4s15.4,10.3,15.4,22.4
			C156.4-272.3,149.8-263.9,141-263.9z M141-301.9c-5.9,0-11.4,8.8-11.4,18.4c0,9,4.8,15.6,11.4,15.6s11.4-6.6,11.4-15.6
			C152.4-293.1,147-301.9,141-301.9z"/>
		<g display="inline">
			<path fill="#744D28" d="M129.6-283.6c0-9.6,5.4-18.4,11.4-18.4c3.9,0,7.6,3.8,9.7,9.2c-1.9-6-5.9-10.3-10.1-10.3
				c-5.9,0-11.4,8.8-11.4,18.4c0,2.9,0.5,5.6,1.4,7.9C129.9-278.9,129.6-281.2,129.6-283.6z"/>
			<path fill="#744D28" d="M154.4-294.3c1,2.9,1.5,6.1,1.5,9.5c0,11.2-6.6,19.6-15.4,19.6c-6.2,0-11.4-4.3-13.8-10.8
				c2.2,7.1,7.6,11.9,14.2,11.9c8.8,0,15.4-8.4,15.4-19.6C156.3-287.5,155.6-291.1,154.4-294.3z"/>
		</g>
		<g display="inline">
			<path fill="#AA8561" d="M141.8-266.9c6.6,0,11.4-6.6,11.4-15.6c0-6.3-2.3-12.1-5.5-15.5c2.8,3.5,4.7,8.8,4.7,14.5
				c0,9-4.8,15.6-11.4,15.6c-2.7,0-5.1-1.1-7-3.1C136-268.4,138.7-266.9,141.8-266.9z"/>
			<path fill="#AA8561" d="M126.5-282.5c0-12.1,7-22.4,15.4-22.4c3.3,0,6.4,1.6,8.9,4.3c-2.7-3.3-6.1-5.3-9.8-5.3
				c-8.3,0-15.4,10.3-15.4,22.4c0,6.3,2.1,11.7,5.5,15.3C128.2-271.7,126.5-276.7,126.5-282.5z"/>
		</g>
		<path display="inline" d="M132.1-278.3c-2.3,3.9-2.8,8.3-1.8,12.4c-2.2-4.1-2.4-9.2,0.1-13.3c2.4-4.1,6.8-6.3,11.4-6.4
			C137.9-284.6,134.4-282,132.1-278.3z"/>
		<path display="inline" fill="#F6F3F0" d="M193.1-283.5c0,10.5-6,17.6-13.4,17.6s-13.4-7.1-13.4-17.6c0-10.5,6-20.4,13.4-20.4
			S193.1-294,193.1-283.5z"/>
		<path display="inline" fill="#E6E6E6" d="M188.1-298.1c1.5,3.3,2.4,7.3,2.4,11.3c0,10.5-6,17.6-13.4,17.6c-4.2,0-7.9-2.2-10.3-6.1
			c2.3,5.3,6.6,8.5,11.6,8.5c7.4,0,13.4-7.1,13.4-17.6C191.8-289.5,190.4-294.4,188.1-298.1z"/>
		<path display="inline" fill="#FFFFFF" d="M169.1-279.6c0-10.5,6-20.4,13.4-20.4c3.5,0,6.7,2.3,9.1,5.8c-2.4-5.4-6.4-9.1-11-9.1
			c-7.4,0-13.4,9.9-13.4,20.4c0,4.9,1.3,9.1,3.5,12.2C169.7-273.3,169.1-276.3,169.1-279.6z"/>
		<path display="inline" fill="#333333" d="M179.7-263.9c-8.8,0-15.4-8.4-15.4-19.6c0-12.1,7-22.4,15.4-22.4s15.4,10.3,15.4,22.4
			C195.1-272.3,188.4-263.9,179.7-263.9z M179.7-301.9c-5.9,0-11.4,8.8-11.4,18.4c0,9,4.8,15.6,11.4,15.6s11.4-6.6,11.4-15.6
			C191.1-293.1,185.6-301.9,179.7-301.9z"/>
		<g display="inline">
			<path d="M168.3-283.6c0-9.6,5.4-18.4,11.4-18.4c3.9,0,7.6,3.8,9.7,9.2c-1.9-6-5.9-10.3-10.1-10.3c-5.9,0-11.4,8.8-11.4,18.4
				c0,2.9,0.5,5.6,1.4,7.9C168.7-278.9,168.3-281.2,168.3-283.6z"/>
			<path d="M193.1-294.3c1,2.9,1.5,6.1,1.5,9.5c0,11.2-6.6,19.6-15.4,19.6c-6.2,0-11.4-4.3-13.8-10.8c2.2,7.1,7.6,11.9,14.2,11.9
				c8.8,0,15.4-8.4,15.4-19.6C195-287.5,194.3-291.1,193.1-294.3z"/>
		</g>
		<g display="inline">
			<path fill="#535353" d="M180.6-266.9c6.6,0,11.4-6.6,11.4-15.6c0-6.3-2.3-12.1-5.5-15.5c2.8,3.5,4.7,8.8,4.7,14.5
				c0,9-4.8,15.6-11.4,15.6c-2.7,0-5.1-1.1-7-3.1C174.7-268.4,177.4-266.9,180.6-266.9z"/>
			<path fill="#535353" d="M165.2-282.5c0-12.1,7-22.4,15.4-22.4c3.3,0,6.4,1.6,8.9,4.3c-2.7-3.3-6.1-5.3-9.8-5.3
				c-8.3,0-15.4,10.3-15.4,22.4c0,6.3,2.1,11.7,5.5,15.3C167-271.7,165.2-276.7,165.2-282.5z"/>
		</g>
		<path display="inline" d="M187.8-278.5c3.1,3.3,4.6,7.5,4.5,11.7c1.3-4.5,0.3-9.5-3-13c-3.3-3.4-8-4.7-12.5-3.7
			C180.7-283.4,184.7-281.7,187.8-278.5z"/>
	</g>
	<g id="眼睛5">
		<path display="inline" fill="#F6F3F0" d="M-250.6-261.9c0,10-7.1,19.1-15.8,19.1c-8.8,0-15.8-7.2-15.8-17.3
			c0-10,7.1-19.1,15.8-19.1C-257.7-279.2-250.6-272-250.6-261.9z"/>
		<path display="inline" fill="#E6E6E6" d="M-254.2-273.2c1.1,2.3,1.7,5,1.7,7.9c0,10-7.1,19.1-15.8,19.1c-5,0-9.5-2.4-12.4-6.4
			c2.6,5.7,8,9.4,14.2,9.4c8.8,0,15.8-9,15.8-19.1C-250.7-266.5-252-270.3-254.2-273.2z"/>
		<g display="inline">
			<path fill="#29ABE2" d="M-265.9-248c-4.7,0-9.2-1-11.8-3.1c2.2,3.5,5.9,6.2,11.2,6.2c4.8,0,8.2-2.9,10.2-5.7
				C-258.9-249-262.2-248-265.9-248z"/>
		</g>
		<path display="inline" fill="#1498C6" d="M-260.5-248.7c-2.3,1.6-4.9,2.5-7.7,2.5c-2.3,0-4.5-0.5-6.4-1.4c2.1,1.7,4.9,2.8,8.3,2.8
			c4.8,0,8.2-2.9,10.2-5.7C-257.4-249.8-258.9-249.1-260.5-248.7z"/>
		<path display="inline" fill="#FFFFFF" d="M-280.3-254c0-10,7.1-19.1,15.8-19.1c5.6,0,10.4,2.9,13.3,7.6
			c-1.5-8.1-7.9-13.6-15.5-13.6c-8.8,0-15.8,9-15.8,19.1c0,3.7,1,7,2.6,9.7C-280.2-251.5-280.3-252.8-280.3-254z"/>
		<path display="inline" fill="#8C6239" d="M-266.5-240.8c-10,0-17.8-8.5-17.8-19.3c0-11.4,8.2-21.1,17.8-21.1
			c10,0,17.8,8.5,17.8,19.3C-248.6-250.5-256.8-240.8-266.5-240.8z M-266.5-277.2c-7.4,0-13.8,8-13.8,17.1c0,8.7,6,15.3,13.8,15.3
			c7.4,0,13.8-8,13.8-17.1C-252.6-270.6-258.6-277.2-266.5-277.2z"/>
		<g display="inline">
			<path fill="#744D28" d="M-274.7-247.6c-3.5-2.7-5.7-7.2-5.7-12.5c0-9.1,6.5-17.1,13.8-17.1c2.9,0,5.5,0.9,7.7,2.5
				c-2.3-1.8-5.1-2.8-8.2-2.8c-7.4,0-13.8,8-13.8,17.1C-280.8-255-278.4-250.3-274.7-247.6z"/>
			<path fill="#744D28" d="M-256.5-278c4.5,3.5,7.4,9.2,7.4,15.7c0,11.4-8.2,21.1-17.8,21.1c-3.7,0-7.1-1.2-10-3.2
				c2.9,2.2,6.5,3.5,10.4,3.5c9.7,0,17.8-9.7,17.8-21.1C-248.6-268.7-251.7-274.6-256.5-278z"/>
		</g>
		<g display="inline">
			<path fill="#AA8561" d="M-283.4-259.3c0-11.4,8.2-21.1,17.8-21.1c4.2,0,8,1.5,11,4.1c-3.1-3-7.3-4.9-12-4.9
				c-9.7,0-17.8,9.7-17.8,21.1c0,6.3,2.6,11.7,6.8,15.2C-281.2-248.4-283.4-253.5-283.4-259.3z"/>
			<path fill="#AA8561" d="M-257.1-273.3c2.8,2.8,4.5,6.8,4.5,11.4c0,9.1-6.5,17.1-13.8,17.1c-3.2,0-6.1-1.1-8.5-3
				c2.4,2.4,5.7,3.9,9.4,3.9c7.4,0,13.8-8,13.8-17.1C-251.8-266.2-253.8-270.6-257.1-273.3z"/>
		</g>
		<g display="inline">
			<circle cx="-266.5" cy="-259.5" r="1.6"/>
		</g>
		<path display="inline" fill="#F6F3F0" d="M-243.6-259.8c0.7,8.9,7.6,16.5,15.3,15.9c7.8-0.6,13.6-7.5,12.9-16.4
			c-0.7-8.9-7.6-16.5-15.3-15.9S-244.3-268.7-243.6-259.8z"/>
		<path display="inline" fill="#E6E6E6" d="M-216.6-260.1c-0.5-6.7-4.5-12.6-9.7-14.9c4.2,2.8,7.2,8,7.7,13.8
			c0.7,8.9-5.2,15.8-12.9,16.4c-2,0.1-3.9-0.2-5.7-1c2.3,1.5,4.9,2.4,7.7,2.2C-221.8-244.3-215.9-251.2-216.6-260.1z"/>
		<path display="inline" fill="#FFFFFF" d="M-240.2-256.4c-0.7-8.9,5.2-15.8,12.9-16.4c3.3-0.2,6.5,1,9,3.2c-2.9-4-7.2-6.5-11.8-6.2
			c-7.8,0.6-13.6,7.5-12.9,16.4c0.4,5.1,2.8,9.8,6.3,12.7C-238.6-249.4-239.9-252.8-240.2-256.4z"/>
		<path display="inline" fill="#29ABE2" d="M-229.1-248.4c4.2-0.3,8.1-1.5,10.3-3.5c-1.7,3.3-4.9,5.9-9.6,6.3
			c-4.3,0.3-7.5-2-9.5-4.4C-235.4-248.8-232.4-248.1-229.1-248.4z"/>
		<path display="inline" fill="#1498C6" d="M-218.7-251.9c-0.8,0.7-1.8,1.3-3,1.8c-1.5,2-3.6,3.5-5.9,4.3
			C-223.2-246.3-220.3-248.8-218.7-251.9z"/>
		<circle display="inline" cx="-229.4" cy="-258.7" r="1.4"/>
		<path display="inline" fill="#333333" d="M-229.1-241.8c-8.3,0-15.8-7.9-16.5-17.8c-0.4-4.8,1-9.3,3.7-12.7
			c2.8-3.4,6.7-5.5,11-5.8c8.7-0.6,16.7,7.5,17.5,17.8c0.4,4.8-1,9.3-3.7,12.7c-2.8,3.4-6.7,5.5-11,5.8
			C-228.5-241.8-228.8-241.8-229.1-241.8z M-229.9-274.2c-0.2,0-0.4,0-0.7,0c-3.2,0.2-6.2,1.8-8.2,4.3c-2.1,2.6-3.2,6.2-2.9,9.9
			c0.6,8,6.8,14.6,13.2,14.1c3.2-0.2,6.2-1.8,8.2-4.3c2.1-2.6,3.2-6.2,2.9-9.9C-217.9-267.8-223.7-274.2-229.9-274.2z"/>
		<g display="inline">
			<path d="M-213.3-260.4c-0.4-5.9-3.3-11.1-7.2-14.3c3.7,3.3,6.2,8.2,6.7,13.8c0.4,4.8-1,9.3-3.7,12.7c-2.8,3.4-6.7,5.5-11,5.8
				c-0.3,0-0.6,0-1,0c-3.5,0-6.8-1.4-9.5-3.7c2.8,2.6,6.4,4.2,10.1,4.2c0.3,0,0.6,0,1,0c4.4-0.3,8.3-2.4,11-5.8
				C-214.3-251.1-213-255.6-213.3-260.4z"/>
			<path d="M-236.4-248.9c-2.8-2.6-4.9-6.6-5.2-11c-0.3-3.8,0.7-7.3,2.9-9.9c2.1-2.6,5-4.1,8.2-4.3c0.2,0,0.4,0,0.7,0
				c2.3,0,4.6,0.9,6.5,2.4c-2.1-1.8-4.6-2.9-7.1-2.9c-0.2,0-0.4,0-0.7,0c-3.2,0.2-6.2,1.8-8.2,4.3c-2.1,2.6-3.2,6.2-2.9,9.9
				C-241.8-255.7-239.5-251.5-236.4-248.9z"/>
		</g>
		<g display="inline">
			<path fill="#535353" d="M-223.1-271.6c3.1,2.6,5.4,6.8,5.7,11.5c0.3,3.8-0.7,7.3-2.9,9.9c-2.1,2.6-5,4.1-8.2,4.3
				c-2.3,0.2-4.5-0.6-6.5-1.9c2.2,1.8,4.8,2.8,7.5,2.6c3.2-0.2,6.2-1.8,8.2-4.3c2.1-2.6,3.2-6.2,2.9-9.9
				C-216.7-264.6-219.4-269.1-223.1-271.6z"/>
			<path fill="#535353" d="M-244.6-258.9c-0.4-4.8,1-9.3,3.7-12.7c2.8-3.4,6.7-5.5,11-5.8c3.2-0.2,6.4,0.7,9.1,2.6
				c-2.9-2.3-6.4-3.6-10.1-3.3c-4.4,0.3-8.3,2.4-11,5.8c-2.8,3.4-4.1,8-3.7,12.7c0.5,6.4,3.8,12,8.3,15.1
				C-241.3-247.8-244.2-253-244.6-258.9z"/>
		</g>
	</g>
	<g id="眼睛6">
		<path display="inline" fill="#F6F3F0" d="M-20.7-272.2c0,8.9-6.1,14.7-13.6,14.7S-48-263.3-48-272.2s6.1-17.4,13.6-17.4
			S-20.7-281-20.7-272.2z"/>
		<path display="inline" fill="#E6E6E6" d="M-22.1-276.5c0,0.4,0.1,0.9,0.1,1.3c0,8.9-6.7,14.7-14.9,14.7c-2.8,0-5.5-0.7-7.7-2
			c2.4,2.3,5.6,3.6,9.2,3.6c7.5,0,13.6-5.8,13.6-14.7C-21.9-274.5-22-275.5-22.1-276.5z"/>
		<path display="inline" fill="#FFFFFF" d="M-44.7-269.1c0-8.9,6.1-17.4,13.6-17.4c1.6,0,3.2,0.4,4.6,1.1c-2.1-1.8-4.6-3-7.4-3
			c-7.5,0-13.6,8.6-13.6,17.4c0,6.3,3.1,11,7.6,13.2C-42.8-260.3-44.7-264.3-44.7-269.1z"/>
		<path display="inline" fill="#8C6239" d="M-34.3-255.6c-9,0-14.6-7-14.6-16.6c0-10.3,6.3-17.4,14.6-17.4s14.6,7.1,14.6,17.4
			C-19.7-262.5-25.3-255.6-34.3-255.6z M-34.3-287.7c-6.1,0-11.7,7.4-11.7,15.5c0,7.4,4.9,12.7,11.7,12.7s11.7-5.3,11.7-12.7
			C-22.6-280.3-28.2-287.7-34.3-287.7z"/>
		<g display="inline">
			<path fill="#744D28" d="M-24.4-285.2c2.6,3.1,4.1,7.4,4.1,12.5c0,9.6-5.6,16.6-14.6,16.6c-4.3,0-7.7-1.6-10.2-4.2
				c2.5,3,6.2,4.8,10.7,4.8c9,0,14.6-7,14.6-16.6C-19.7-277.6-21.5-282.1-24.4-285.2z"/>
			<path fill="#744D28" d="M-34.8-288.1c-6.1,0-11.7,7.4-11.7,15.5c0,3.8,1.3,7.1,3.6,9.4c-1.9-2.2-3.1-5.3-3.1-8.8
				c0-8.1,5.6-15.5,11.7-15.5c2.6,0,5,1.3,7,3.4C-29.4-286.6-32.1-288.1-34.8-288.1z"/>
		</g>
		<g display="inline">
			<path fill="#AA8561" d="M-33.8-258.8c6.8,0,11.7-5.3,11.7-12.7c0-4.7-1.9-9.1-4.6-12c2.4,2.9,4,7,4,11.3
				c0,7.4-4.9,12.7-11.7,12.7c-3.3,0-6.2-1.3-8.3-3.4C-40.5-260.4-37.4-258.8-33.8-258.8z"/>
			<path fill="#AA8561" d="M-48.4-271.5c0-10.3,6.3-17.4,14.6-17.4c4,0,7.4,1.6,10,4.4c-2.6-3.2-6.4-5.1-10.6-5.1
				c-8.3,0-14.6,7.1-14.6,17.4c0,5,1.5,9.3,4.3,12.3C-47.1-262.8-48.4-266.9-48.4-271.5z"/>
		</g>
		<circle display="inline" cx="-34" cy="-273" r="1.6"/>
		<path display="inline" fill="#F6F3F0" d="M2-289.2c-6.8,0-13,8.2-13,17.1c0,8.1,5.5,14,13,14s13-5.9,13-14
			C15-281.1,8.8-289.2,2-289.2z"/>
		<path display="inline" fill="#FFFFFF" d="M-8.1-268.5c0-9,6.2-17.1,13-17.1c2.5,0,5,1.1,7.1,3c-2.4-3.5-5.8-5.8-9.4-5.8
			c-6.8,0-13,8.2-13,17.1c0,4.6,1.8,8.5,4.7,11C-7.2-262.5-8.1-265.3-8.1-268.5z"/>
		<path display="inline" fill="#E6E6E6" d="M11.1-282.2c1,2.3,1.6,5,1.6,7.7c0,8.1-5.7,14-13.6,14c-2.6,0-4.9-0.6-6.9-1.8
			c2.1,1.7,4.8,2.6,7.8,2.6c7.5,0,13-5.9,13-14C13.1-276.7,12.3-279.6,11.1-282.2z"/>
		<path display="inline" fill="#333333" d="M2-256.6c-8.7,0-14-6.8-14-16.1c0-10.2,6-17.1,14-17.1s14,6.9,14,17.1
			C16-263.4,10.7-256.6,2-256.6z M2-287.7c-5.6,0-10.9,7.3-10.9,15c0,7,4.5,11.9,10.9,11.9s10.9-4.9,10.9-11.9
			C12.9-280.4,7.6-287.7,2-287.7z"/>
		<g display="inline">
			<path d="M-5.9-264.3c-1.9-2.1-3-5.1-3-8.6c0-7.7,5.3-15,10.9-15c2,0,3.9,0.9,5.6,2.5c-1.8-2-4.1-3.2-6.4-3.2
				c-5.6,0-10.9,7.3-10.9,15C-9.7-269.6-8.3-266.4-5.9-264.3z"/>
			<path d="M10.7-286.5c2.8,3,4.5,7.5,4.5,13c0,9.4-5.3,16.1-14,16.1c-3.7,0-6.8-1.2-9.1-3.3c2.4,2.6,5.7,4.1,9.8,4.1
				c8.7,0,14-6.8,14-16.1C15.9-278.8,13.9-283.5,10.7-286.5z"/>
		</g>
		<g display="inline">
			<path fill="#535353" d="M2.5-260.2c6.4,0,10.9-4.9,10.9-11.9c0-4.1-1.5-8-3.7-10.8c1.9,2.8,3.2,6.4,3.2,10.2
				c0,7-4.5,11.9-10.9,11.9c-3.4,0-6.3-1.4-8.2-3.8C-4.3-261.9-1.2-260.2,2.5-260.2z"/>
			<path fill="#535353" d="M-11.5-272.2c0-10.2,6-17.1,14-17.1c4.2,0,7.9,1.9,10.4,5.2c-2.5-3.7-6.4-5.9-10.9-5.9
				c-8,0-14,6.9-14,17.1c0,4.4,1.2,8.3,3.4,11.1C-10.5-264.5-11.5-268.1-11.5-272.2z"/>
		</g>
		<circle display="inline" cx="2.3" cy="-273.6" r="1.6"/>
	</g>
	<g id="眼睛7">
		<path display="inline" fill="#F6F3F0" d="M-37.9-270.9c5-0.3,9.2,1.1,12.1,4.6c0.7,0.8,1.7,0,1.3-1c-2.1-5.5-6.5-11.7-14.9-12
			c-7.5-0.3-11.7,4.4-13.7,9.8c-1.1,2.8,1.8,5.5,3.8,3.5C-46.3-268.9-42.2-270.7-37.9-270.9z"/>
		<path display="inline" fill="#E6E6E6" d="M-24.9-267.9c-0.7-1.7-1.6-3.5-2.7-5.2c0.9,1.5,1.7,3,2.2,4.5c0.4,1-0.7,1.8-1.3,1
			c-2.9-3.4-7.1-4.8-12.1-4.6c-4.4,0.2-8.5,2-11.4,4.8c-1.1,1-2.4,0.8-3.2-0.1c0.7,1.5,2.4,2.2,3.7,0.9c2.9-2.8,7-4.6,11.4-4.8
			c5-0.3,9.2,1.1,12.1,4.6C-25.6-266.1-24.6-266.9-24.9-267.9z"/>
		<path display="inline" fill="#FFFFFF" d="M-51.6-267.9c2-5.4,6.2-10.2,13.7-9.8c3.1,0.1,5.6,1.1,7.7,2.4c-2.3-2-5.3-3.4-9.2-3.5
			c-7.5-0.3-11.7,4.4-13.7,9.8c-0.7,1.9,0.4,3.8,1.8,4.1C-51.8-265.7-52-266.8-51.6-267.9z"/>
		<path display="inline" fill="#8C6239" d="M-50.8-264.4c-0.6,0-1.2-0.2-1.7-0.5c-1.3-0.9-2.3-2.9-1.5-5c2.6-7.1,7.9-10.8,14.7-10.5
			c7.2,0.3,12.8,4.8,15.8,12.7c0.4,0.9,0,2-0.8,2.5c-0.8,0.4-1.7,0.3-2.2-0.4c-2.5-3-6.4-4.5-11.3-4.2l0,0c-4,0.2-8,1.9-10.8,4.6
			C-49.2-264.7-50-264.4-50.8-264.4z M-40.1-278.4c-7.1,0-10.4,5-12,9.2c-0.4,1.1,0,2.2,0.7,2.6c0.4,0.2,0.9,0.4,1.5-0.2
			c3.1-3,7.5-4.9,12.1-5.1c5.1-0.3,9.3,1.2,12.2,4.2c-2-4.9-6-10.3-13.7-10.7C-39.7-278.4-39.9-278.4-40.1-278.4z"/>
		<g display="inline">
			<path fill="#744D28" d="M-52.2-269.2c1.6-4.2,5-9.2,12-9.2c0.2,0,0.5,0,0.7,0c7.5,0.3,11.4,5.5,13.5,10.2c0,0,0,0,0,0
				c-2-4.9-6-10.3-13.7-10.7c-0.2,0-0.5,0-0.7,0c-7.1,0-10.4,5-12,9.2c-0.3,0.7-0.2,1.4,0.1,1.9C-52.4-268.1-52.4-268.7-52.2-269.2z
				"/>
			<path fill="#744D28" d="M-23.5-267.7c0-0.1-0.1-0.2-0.2-0.4c0.3,0.9,0,1.9-0.8,2.4c-0.8,0.4-1.7,0.3-2.2-0.4
				c-2.5-3-6.4-4.5-11.3-4.2c-4,0.2-8,1.9-10.8,4.6c-0.7,0.6-1.4,0.9-2.2,0.9c-0.6,0-1.2-0.2-1.7-0.5c-0.6-0.4-1.1-1-1.4-1.7
				c0.3,0.9,0.9,1.7,1.6,2.1c0.5,0.4,1.1,0.5,1.7,0.5c0.8,0,1.6-0.3,2.2-0.9c2.8-2.7,6.7-4.4,10.8-4.6c4.9-0.3,8.8,1.2,11.3,4.2
				c0.6,0.7,1.5,0.9,2.2,0.4C-23.5-265.8-23.2-266.8-23.5-267.7z"/>
		</g>
		<g display="inline">
			<path fill="#AA8561" d="M-51.1-266.1c0.4,0.2,0.9,0.4,1.5-0.2c3.1-3,7.5-4.9,12.1-5.1c5.1-0.3,9.3,1.2,12.2,4.2
				c-0.8-1.9-1.9-3.9-3.4-5.7c1.3,1.6,2.3,3.4,3,5.2c-2.9-3-7.1-4.4-12.2-4.2c-4.5,0.2-8.9,2.1-12.1,5.1c-0.6,0.6-1.1,0.4-1.5,0.2
				c-0.1,0-0.1-0.1-0.1-0.1C-51.5-266.5-51.3-266.3-51.1-266.1z"/>
			<path fill="#AA8561" d="M-53.6-269.5c2.6-7.1,7.9-10.8,14.7-10.5c4.8,0.2,8.8,2.3,11.9,5.9c-3.1-4-7.4-6.2-12.3-6.4
				c-6.8-0.3-12.1,3.4-14.7,10.5c-0.7,1.8-0.1,3.5,0.9,4.5C-53.9-266.5-54.2-267.9-53.6-269.5z"/>
		</g>
		<path display="inline" d="M-48.7-275.1c0.7,1.4,2.3,2.1,3.4,1.3c1.2-0.7,1.5-2.6,0.9-4C-45.8-277.4-47.5-276.7-48.7-275.1z"/>
		<path display="inline" fill="#F6F3F0" d="M5.5-271.1c-5-0.3-9.2,1.1-12.1,4.6c-0.7,0.8-1.7,0-1.3-1c2.1-5.5,6.5-11.7,14.9-12
			c7.5-0.3,11.7,4.4,13.7,9.8c1.1,2.8-1.8,5.5-3.8,3.5C14-269.1,9.8-270.9,5.5-271.1z"/>
		<path display="inline" fill="#E6E6E6" d="M21.2-269.9c-0.1-0.4-0.3-0.7-0.4-1.1c0.3,2.5-2.2,4.5-4,2.7c-2.9-2.8-7-4.6-11.4-4.8
			c-5-0.3-9.2,1.1-12.1,4.6c-0.1,0.2-0.3,0.3-0.5,0.3c-0.1,0.2-0.2,0.4-0.2,0.6c-0.4,1,0.7,1.8,1.3,1c2.9-3.4,7.1-4.8,12.1-4.6
			c4.4,0.2,8.5,2,11.4,4.8C19.4-264.4,22.3-267,21.2-269.9z"/>
		<path display="inline" fill="#FFFFFF" d="M-6.2-266.9c2.3-5.1,6.6-10.3,14.4-10.7c5.7-0.3,9.4,2.4,11.8,6c-2.2-4.6-6.3-8.3-12.9-8
			c-8.5,0.4-12.8,6.6-14.9,12c-0.4,1,0.7,1.8,1.3,1C-6.5-266.7-6.4-266.8-6.2-266.9z"/>
		<path display="inline" fill="#333333" d="M18.4-264.6c-0.8,0-1.6-0.3-2.2-0.9c-2.8-2.7-6.7-4.4-10.8-4.6l0,0
			c-4.9-0.3-8.8,1.2-11.3,4.2c-0.6,0.7-1.5,0.9-2.2,0.4c-0.8-0.5-1.1-1.5-0.8-2.5c3-7.9,8.6-12.4,15.8-12.7
			c6.9-0.3,12.1,3.4,14.7,10.5c0.8,2.1-0.1,4.1-1.5,5C19.6-264.7,19-264.6,18.4-264.6z M4.3-272.1c0.4,0,0.8,0,1.2,0l0,0
			c4.5,0.2,8.9,2.1,12.1,5.1c0.6,0.6,1.1,0.4,1.5,0.2c0.7-0.4,1.1-1.5,0.7-2.6c-1.6-4.4-5.2-9.5-12.7-9.2
			c-7.7,0.3-11.7,5.9-13.8,10.7C-4-270.7-0.2-272.1,4.3-272.1z"/>
		<g display="inline">
			<path d="M7-278.5c7.6-0.3,11.1,4.8,12.7,9.2c0,0,0,0.1,0,0.1c0-0.3,0-0.6-0.2-0.9c-1.6-4.4-5.2-9.5-12.7-9.2
				c-7.7,0.3-11.7,5.9-13.8,10.7c0.3-0.3,0.5-0.5,0.8-0.8C-3.9-273.7,0.1-278.2,7-278.5z"/>
			<path d="M21.8-269.5c0.1,1.6-0.7,3-1.7,3.7c-0.5,0.4-1.1,0.5-1.7,0.5c-0.8,0-1.6-0.3-2.2-0.9c-2.8-2.7-6.7-4.4-10.8-4.6
				c-4.9-0.3-8.8,1.2-11.3,4.2c-0.6,0.7-1.5,0.9-2.2,0.4c-0.4-0.2-0.7-0.6-0.8-1c0,0.7,0.3,1.4,0.9,1.7c0.8,0.4,1.7,0.3,2.2-0.4
				c2.5-3,6.4-4.5,11.3-4.2c4,0.2,8,1.9,10.8,4.6c0.7,0.6,1.4,0.9,2.2,0.9c0.6,0,1.2-0.2,1.7-0.5C21.4-265.8,22.3-267.6,21.8-269.5z
				"/>
		</g>
		<g display="inline">
			<path fill="#535353" d="M5.5-272c-0.4,0-0.8,0-1.2,0c-3.9,0-7.3,1.1-9.9,3.2c-0.2,0.5-0.5,1-0.7,1.5c2.7-2.8,6.5-4.2,11.1-4.2
				c0.4,0,0.8,0,1.2,0c3.9,0.2,7.7,1.6,10.7,4C13.7-270.2,9.7-271.8,5.5-272z"/>
			<path fill="#535353" d="M15.7-275.6c2,1.8,3.3,4.1,4.1,6.3c0.4,1.1,0,2.2-0.7,2.6c-0.3,0.2-0.8,0.3-1.3,0
				c0.1,0.1,0.2,0.1,0.3,0.2c0.6,0.6,1.1,0.4,1.5,0.2c0.7-0.4,1.1-1.5,0.7-2.6C19.4-271.3,18-273.8,15.7-275.6z"/>
			<path fill="#535353" d="M-8.4-267.5c3-7.9,8.6-12.4,15.8-12.7c3.7-0.2,6.9,0.9,9.5,2.9c-2.7-2.4-6.1-3.5-10-3.4
				c-7.2,0.3-12.8,4.8-15.8,12.7c-0.4,0.9,0,2,0.8,2.5c0,0,0,0,0,0C-8.5-265.9-8.7-266.7-8.4-267.5z"/>
			<path fill="#535353" d="M15.5-266.1c0.2,0.2,0.5,0.4,0.7,0.6c0.1,0.1,0.2,0.1,0.3,0.2C16.2-265.6,15.8-265.8,15.5-266.1z"/>
		</g>
		<path display="inline" d="M16.3-275.3c-0.7,1.4-2.3,2.1-3.4,1.3c-1.2-0.7-1.5-2.6-0.9-4C13.4-277.5,15.2-276.9,16.3-275.3z"/>
	</g>
</g>
<g id="嘴巴" display="none">
	<g id="嘴巴1">
		<g display="inline">
			<g>
				<path fill="#8C6239" d="M40.4,46.3c-1.9,0-3.7-0.5-4.3-1.1c-0.9-0.9-0.4-2.3,0.1-3.3c-0.9-0.9-2.3-2.6-2.4-4.3
					c0-0.9,0.3-1.6,0.9-2.2c1.9-1.9,6.2-1.8,8.5-1.4c1.7,0.3,2.7,0.9,3,1.7c0.7,1.7-0.7,4.2-1.7,5.6c0.5,0.5,1.1,1.2,1.1,2
					c0,0.6-0.2,1.4-1.2,2.1C43.3,46,41.8,46.3,40.4,46.3z M37.5,43.8c0.8,0.4,4.1,0.9,5.7-0.2c0.3-0.2,0.3-0.3,0.3-0.3
					c0-0.2-0.5-0.7-1-1l-1-0.6l0.7-0.9c1.2-1.5,2.3-3.7,2-4.4c-0.2-0.2-1.5-0.7-3.6-0.7c-2.1-0.1-3.9,0.4-4.6,1
					c-0.2,0.2-0.3,0.4-0.3,0.7c0,1.1,1.5,2.7,2.3,3.4l0.7,0.6l-0.5,0.7C37.9,42.8,37.6,43.5,37.5,43.8z"/>
			</g>
			<g>
				<path fill="#744D28" d="M37.1,43.6c0.1,0.1,0.2,0.1,0.4,0.2c0.1-0.4,0.4-1,0.7-1.6l0.5-0.7l-0.7-0.6c-0.9-0.7-2.3-2.3-2.3-3.4
					c0-0.3,0.1-0.5,0.3-0.7c0.7-0.7,2.5-1.1,4.6-1c1.5,0,2.6,0.3,3.2,0.5c0,0,0,0,0,0c-0.2-0.2-1.5-0.7-3.6-0.7
					c-2.1-0.1-3.9,0.4-4.6,1c-0.2,0.2-0.3,0.4-0.3,0.7c0,1.1,1.5,2.7,2.3,3.4l0.7,0.6L37.8,42C37.5,42.6,37.2,43.3,37.1,43.6z"/>
				<path fill="#744D28" d="M46.1,35.7c-0.2-0.5-0.6-0.9-1.3-1.2c0.4,0.3,0.7,0.6,0.9,0.9c0.7,1.7-0.7,4.2-1.7,5.6
					c0.5,0.5,1.1,1.2,1.1,2c0,0.6-0.2,1.4-1.2,2.1c-1,0.7-2.5,1-4,1c-1.4,0-2.8-0.3-3.7-0.7c0.8,0.5,2.4,0.9,4.1,0.9
					c1.4,0,2.9-0.3,4-1c1-0.7,1.2-1.5,1.2-2.1c0-0.8-0.6-1.5-1.1-2C45.4,39.9,46.8,37.4,46.1,35.7z"/>
			</g>
			<path fill="#AA8561" d="M36.3,45.4c-0.9-0.9-0.4-2.3,0.1-3.3c-0.9-0.9-2.3-2.6-2.4-4.3c0-0.9,0.3-1.6,0.9-2.2
				c1.9-1.9,6.2-1.8,8.5-1.4c0.9,0.2,1.6,0.4,2.1,0.7c-0.5-0.4-1.3-0.7-2.4-1c-2.3-0.5-6.6-0.5-8.5,1.4c-0.6,0.6-0.9,1.4-0.9,2.2
				c0.1,1.7,1.5,3.4,2.4,4.3c-0.5,1-1,2.4-0.1,3.3C36.1,45.3,36.2,45.4,36.3,45.4C36.4,45.5,36.3,45.4,36.3,45.4z"/>
			<path d="M39,41.4c0,0,1-3.7,2.5-0.1C41.5,41.3,40.5,45,39,41.4z"/>
		</g>
	</g>
	<g id="嘴巴2">
		<g display="inline">
			<path fill="#8C6239" d="M28.8,42.7c0,0,19.7-2,21.4-5.4C50.2,37.3,58.4,42.5,28.8,42.7z"/>
			<path fill="#744D28" d="M50.2,37.3C50.2,37.3,50.2,37.3,50.2,37.3c1,0.9,4.8,5-20.3,5.3c-0.7,0.1-1.1,0.1-1.1,0.1
				C58.4,42.6,50.2,37.3,50.2,37.3z"/>
			<path fill="#AA8561" d="M50.4,37.5c0,0,0.2,0.2,0.5,0.4c-0.3-0.4-0.7-0.7-0.7-0.7c-1.8,3.4-21.4,5.4-21.4,5.4c0.9,0,1.8,0,2.6,0
				C36.7,42,49,40.2,50.4,37.5z"/>
		</g>
	</g>
	<g id="嘴巴3">
		<g display="inline">
			<path fill="#F6F3F0" d="M51.2,35.6c0,0-0.1,0-0.1,0c-0.6-3.2-3.4-5.5-6.8-5.5c-1.7,0-3.2,0.6-4.4,1.6c-0.6-0.4-1.3-0.7-2-0.7
				c-1.3,0-2.5,0.8-3,1.9c-0.4-0.1-0.9-0.2-1.3-0.2c-3.1,0-5.6,2.4-5.7,5.5c0,0,0,0,0,0c-2.4,0-4.3,1.9-4.3,4.3
				c0,2.4,1.9,4.3,4.3,4.3c0.3,0,0.7,0,1-0.1c0.8,0.9,2,1.5,3.3,1.5c0.6,0,1.1-0.1,1.6-0.3c1,1.2,2.5,1.9,4.2,1.9
				c1.8,0,3.4-0.9,4.5-2.2c0.6,0.3,1.2,0.5,1.9,0.5c1.6,0,3-0.9,3.7-2.3c0.9,0.6,2,1,3.2,1c3.1,0,5.6-2.5,5.6-5.6
				C56.8,38.2,54.3,35.6,51.2,35.6z"/>
			<g>
				<path fill="#FFFFFF" d="M54.8,39.1c0,0,0.1,0,0.1,0c0.4,0,0.8,0,1.2,0.1c-0.5-1.3-1.5-2.3-2.7-2.9
					C54.1,37.1,54.6,38.1,54.8,39.1z"/>
				<path fill="#FFFFFF" d="M27.2,46c0-2.4,1.9-4.3,4.3-4.3c0,0,0,0,0,0c0.1-3.1,2.6-5.5,5.7-5.5c0.5,0,0.9,0.1,1.3,0.2
					c0.5-1.1,1.7-1.9,3-1.9c0.8,0,1.4,0.3,2,0.7c1.2-1,2.7-1.6,4.4-1.6c0.8,0,1.5,0.1,2.1,0.4c-1.2-2.2-3.5-3.8-6.1-3.8
					c-1.7,0-3.2,0.6-4.4,1.6c-0.6-0.4-1.3-0.7-2-0.7c-1.3,0-2.5,0.8-3,1.9c-0.4-0.1-0.9-0.2-1.3-0.2c-3.1,0-5.6,2.4-5.7,5.5
					c0,0,0,0,0,0c-2.4,0-4.3,1.9-4.3,4.3c0,2.3,1.8,4.2,4.1,4.3C27.2,46.6,27.2,46.3,27.2,46z"/>
			</g>
			<path fill="#E6E6E6" d="M54.2,36.6c0.7,0.9,1.2,2.1,1.2,3.4c0,3.1-2.5,5.6-5.6,5.6c-1.2,0-2.3-0.4-3.2-1C45.9,46,44.4,47,42.8,47
				c-0.7,0-1.4-0.2-1.9-0.5c-1,1.3-2.6,2.2-4.5,2.2c-1.7,0-3.2-0.7-4.2-1.9c-0.5,0.2-1,0.3-1.6,0.3c-0.4,0-0.8,0.1-1.3,0.3
				c0.7,0.4,1.5,0.7,2.3,0.7c0.6,0,1.1-0.1,1.6-0.3c1,1.2,2.5,1.9,4.2,1.9c1.8,0,3.4-0.9,4.5-2.2c0.6,0.3,1.2,0.5,1.9,0.5
				c1.6,0,3-0.9,3.7-2.3c0.9,0.6,2,1,3.2,1c3.1,0,5.6-2.5,5.6-5.6C56.4,39.2,55.5,37.6,54.2,36.6z"/>
		</g>
	</g>
	<g id="嘴巴4">
		<g display="inline">
			<path fill="#8C6239" d="M58,30.5c2.3,16.7-3,38.6-12.9,39.9c-9.9,1.4-20.8-18.3-23.1-35s4.9-24.3,14.9-25.6S55.7,13.7,58,30.5z"
				/>
			<path fill="#744D28" d="M57.9,30.4c-1.3-9.7-4.9-15.6-9.6-18.6c4.3,3.1,7.6,8.8,8.9,18.1c2.3,16.7-3,38.6-12.9,39.9
				c-2,0.3-4.1-0.3-6.1-1.6c2.3,1.6,4.6,2.4,6.9,2.1C55,69,60.2,47.2,57.9,30.4z"/>
			<path fill="#AA8561" d="M22.9,36.2C20.6,19.5,27.8,12,37.8,10.6c4.8-0.7,9.3,0.3,13,3.2C47,10.2,42,9,36.8,9.7
				c-9.9,1.4-17.1,8.9-14.9,25.6c1.7,12.4,8.1,26.3,15.3,32.2C30.4,61.2,24.5,48,22.9,36.2z"/>
			<path fill="#333333" d="M55.6,32.9c2,14.7-2.4,33.9-10.9,35S26.8,51.8,24.8,37.1s4.1-21.3,12.7-22.4S53.6,18.2,55.6,32.9z"/>
			<path fill="#EC5A5A" d="M41.8,44c-1.3,0-3.7,3.5-3.7,4.6c0,1.1,0.9,2,2,2c0.8,0,1.4-0.4,1.7-1.1c0.3,0.6,1,1.1,1.7,1.1
				c1.1,0,2-0.9,2-2C45.5,47.6,43.1,44.1,41.8,44z"/>
		</g>
	</g>
	<g id="嘴巴5">
		<g display="inline">
			<g>
				<g>
					<path fill="#8C6239" d="M29.4,39.5c-3.1,0-4.8-2.9-4.9-3.1c-0.3-0.5-0.1-1.1,0.4-1.4c0.5-0.3,1.1-0.1,1.4,0.4
						c0.1,0.1,1.4,2.4,3.6,2c0.5-0.1,1.1-0.2,1.8-0.4c3.6-0.9,9.6-2.5,18.6,0.5c0.7-0.1,2.9-0.4,3.3-2.3c0.1-0.5,0.6-0.9,1.2-0.8
						c0.5,0.1,0.9,0.7,0.8,1.2c-0.8,3.4-4.5,3.9-5.2,3.9c-0.2,0-0.4,0-0.5-0.1c-8.5-2.8-14.2-1.4-17.6-0.5c-0.8,0.2-1.5,0.4-2,0.5
						C29.9,39.5,29.7,39.5,29.4,39.5z"/>
				</g>
				<g>
					<g>
						<path fill="#FFFFFF" d="M34.9,37.8c0,0-3.3,2-2.7,7.5"/>
					</g>
					<g>
						<path fill="#8C6239" d="M32.5,45.6c-0.2,0-0.4-0.2-0.5-0.4c-0.6-5.7,2.8-7.9,2.9-8c0.2-0.1,0.5-0.1,0.6,0.2
							c0.1,0.2,0,0.5-0.2,0.6C31.9,41,32.8,45.6,32.5,45.6C32.5,45.6,32.5,45.6,32.5,45.6z"/>
					</g>
				</g>
				<g>
					<g>
						<path fill="#FFFFFF" d="M37,37.8c0,0-0.9,2.1-0.7,4.5"/>
					</g>
					<g>
						<path fill="#8C6239" d="M36.2,42.8c-0.2,0-0.4-0.2-0.5-0.4c-0.2-2.4,0.7-4.6,0.8-4.7c0.1-0.2,0.4-0.3,0.6-0.2
							c0.2,0.1,0.3,0.4,0.2,0.6C37.4,38,35.7,41.3,36.2,42.8C36.3,42.8,36.2,42.8,36.2,42.8z"/>
					</g>
				</g>
				<g>
					<g>
						<path fill="#FFFFFF" d="M41.7,37.3c0,0,2.1,1.8,2.6,6.2"/>
					</g>
					<g>
						<path fill="#8C6239" d="M44.3,44c-0.6-3.5-2.9-6.2-3-6.3c-0.2-0.2-0.2-0.5,0-0.6c0.2-0.2,0.5-0.2,0.6,0c0.1,0.1,2.2,2,2.8,6.4
							C44.8,43.7,44.6,43.9,44.3,44C44.3,44,44.3,44,44.3,44z"/>
					</g>
				</g>
				<g>
					<g>
						<path fill="#8C6239" d="M49,41.5C48.9,41.5,48.9,41.5,49,41.5c-0.3,0,0.4-0.6-1.7-3.1c-0.2-0.2-0.1-0.5,0.1-0.6
							c0.2-0.2,0.5-0.1,0.6,0.1c0.2,0.2,1.5,2,1.4,3.2C49.4,41.3,49.2,41.5,49,41.5z"/>
					</g>
				</g>
			</g>
			<g>
				<path fill="#744D28" d="M36,37.9c-0.2,0-0.4,0.1-0.6,0.1c-0.1,0.1-0.2,0.2-0.3,0.3c0.3-0.1,0.6-0.1,0.9-0.2
					C36,38.1,36,38,36,37.9z"/>
				<path fill="#744D28" d="M26.5,35.8c-0.1-0.2-0.2-0.3-0.2-0.3c0-0.1-0.1-0.1-0.1-0.2C26.2,35.4,26.3,35.6,26.5,35.8z"/>
				<path fill="#744D28" d="M47.3,38.6c-1.7-0.4-3.2-0.7-4.7-0.9c0,0.1,0.1,0.1,0.1,0.2c1.4,0.1,3,0.4,4.6,0.8
					C47.3,38.7,47.3,38.7,47.3,38.6z"/>
				<path fill="#744D28" d="M55.3,34.7c0.1,0.2,0.2,0.4,0.1,0.7c-0.3,1.3-1,2.2-1.8,2.8c-1.4,1-3,1.2-3.5,1.2c-0.2,0-0.4,0-0.5-0.1
					c-0.2-0.1-0.4-0.1-0.7-0.2c0,0,0,0.1,0,0.1c0.3,0.1,0.6,0.2,1,0.3c0.2,0.1,0.4,0.1,0.5,0.1c0.7-0.1,4.5-0.5,5.2-3.9
					C55.7,35.3,55.5,34.9,55.3,34.7z"/>
				<path fill="#744D28" d="M41.1,37.6c-1.4-0.1-2.6,0-3.7,0.1c0,0.1,0,0.2,0,0.2c1.2-0.1,2.5-0.2,3.9-0.1
					C41.2,37.7,41.2,37.7,41.1,37.6z"/>
				<path fill="#744D28" d="M32.9,38.8c0.1-0.1,0.1-0.2,0.2-0.3c-0.4,0.1-0.8,0.2-1.2,0.3c-0.8,0.2-1.5,0.4-2,0.5
					c-0.3,0-0.5,0.1-0.8,0.1c-0.8,0-1.6-0.2-2.2-0.5c0.7,0.4,1.6,0.7,2.6,0.7c0.3,0,0.5,0,0.8-0.1c0.6-0.1,1.3-0.3,2-0.5
					C32.4,38.9,32.7,38.9,32.9,38.8z"/>
			</g>
			<g>
				<path fill="#AA8561" d="M30.1,37.7c0.5-0.1,1.1-0.2,1.8-0.4c3.6-0.9,9.6-2.5,18.6,0.5c0.7-0.1,2.9-0.4,3.3-2.3
					c0.1-0.5,0.6-0.9,1.2-0.8c0.1,0,0.1,0.1,0.2,0.1c-0.1-0.1-0.3-0.2-0.5-0.3c-0.5-0.1-1.1,0.2-1.2,0.8c-0.4,1.9-2.6,2.3-3.3,2.3
					c-9-3-15-1.4-18.6-0.5c-0.7,0.2-1.4,0.4-1.8,0.4c-0.8,0.1-1.5-0.1-2.1-0.4C28.4,37.5,29.2,37.8,30.1,37.7z"/>
				<path fill="#AA8561" d="M24.8,36.6c-0.3-0.5-0.1-1.1,0.4-1.4c0.3-0.2,0.6-0.2,0.9,0c-0.3-0.3-0.8-0.4-1.2-0.2
					c-0.5,0.3-0.6,0.9-0.4,1.4c0.1,0.1,0.8,1.4,2.2,2.3C25.5,37.8,24.8,36.7,24.8,36.6z"/>
			</g>
		</g>
	</g>
	<g id="嘴巴6">
		<g display="inline">
			<path fill="#EC5A5A" d="M48.4,58.4H31.6c-0.6,0-1-0.4-1-1V28.5c0-3.8,3.1-7,7-7h4.9c3.8,0,7,3.1,7,7v28.9
				C49.4,58,49,58.4,48.4,58.4z"/>
			<path fill="#8C6239" d="M48.4,59.4H31.6c-1.1,0-2-0.9-2-2V28.5c0-4.4,3.6-8,8-8h4.9c4.4,0,8,3.6,8,8v28.9
				C50.4,58.5,49.5,59.4,48.4,59.4z M37.5,22.6c-3.3,0-6,2.7-6,6v28.9h16.9l0-28.9c0-3.3-2.7-6-6-6H37.5z"/>
			<g>
				<path fill="#AA8561" d="M48.4,28.6l0,28.9H32.7V58h16.9l0-28.9c0-2.7-1.7-4.9-4.1-5.7C47.2,24.4,48.4,26.3,48.4,28.6z"/>
				<path fill="#AA8561" d="M30.7,58V29.1c0-4.4,3.6-8,8-8h4.9c0.9,0,1.9,0.2,2.7,0.5c-1.1-0.6-2.4-1-3.8-1h-4.9c-4.4,0-8,3.6-8,8
					v28.9c0,1,0.8,1.9,1.8,2C30.9,59.1,30.7,58.6,30.7,58z"/>
			</g>
		</g>
	</g>
	<g id="嘴巴7">
		<g display="inline">
			<path fill="#EC5A5A" d="M40.6,39.2c-8.9,0-15.8-3.4-19.7-8.5c-0.7-0.9-2.2-0.5-2.3,0.7c-0.1,0.4-0.1,0.9-0.1,1.3
				C18.5,40.9,28.1,46,40,46s21.5-5,21.5-13.2v0c0-1.1-1.4-1.7-2.2-0.9C55.2,36.3,48.8,39.2,40.6,39.2z"/>
			<path fill="#8C6239" d="M40,47c-13.2,0-22.5-5.9-22.5-14.2c0-0.5,0-1,0.1-1.4c0.1-0.9,0.8-1.7,1.7-2c0.9-0.2,1.8,0.1,2.4,0.8
				c4,5.1,10.9,8.1,18.9,8.1c7.3,0,13.7-2.5,18-7c0.6-0.7,1.6-0.9,2.5-0.5c0.9,0.3,1.4,1.2,1.4,2.1C62.5,41.1,53.2,47,40,47z
				 M19.9,31.2C19.9,31.2,19.9,31.2,19.9,31.2c-0.2,0-0.3,0.1-0.3,0.3c-0.1,0.4-0.1,0.8-0.1,1.2C19.5,39.9,27.9,45,40,45
				s20.5-5,20.5-12.2c0-0.1-0.1-0.2-0.2-0.3c-0.1,0-0.2,0-0.3,0.1c-4.7,4.9-11.6,7.7-19.5,7.7c-8.6,0-16.1-3.2-20.5-8.9
				C20.1,31.3,20,31.2,19.9,31.2z"/>
			<g>
				<path fill="#AA8561" d="M40.4,45.9c12.1,0,20.5-5,20.5-12.2c0-0.1-0.1-0.2-0.2-0.3c-0.1,0-0.2,0-0.3,0.1
					c-0.6,6.8-8.8,11.4-20.4,11.4c-10,0-17.5-3.5-19.8-8.7C22,42,29.8,45.9,40.4,45.9z"/>
				<path fill="#AA8561" d="M17.9,33.7c0-0.5,0-1,0.1-1.4c0.1-0.9,0.8-1.7,1.7-2c0.9-0.2,1.8,0.1,2.4,0.8c4,5.1,10.9,8.1,18.9,8.1
					c7.3,0,13.7-2.5,18-7c0.6-0.7,1.6-0.9,2.5-0.5c0.4,0.2,0.8,0.4,1,0.8c-0.1-0.8-0.6-1.5-1.4-1.8c-0.9-0.3-1.8-0.1-2.5,0.5
					c-4.3,4.5-10.7,7-18,7c-8,0-14.9-2.9-18.9-8.1c-0.6-0.7-1.5-1-2.4-0.8c-0.9,0.3-1.6,1-1.7,2c-0.1,0.5-0.1,1-0.1,1.4
					c0,1.6,0.3,3.1,1,4.5C18.1,36.1,17.9,34.9,17.9,33.7z"/>
			</g>
			<g>
				<path fill="#29ABE2" d="M23,40.3c0,0,5.7,4.9,16.5,4.9S21.5,35.6,23,40.3z"/>
			</g>
			<g>
				<path fill="#29ABE2" d="M27.6,48.7c0,1.2-0.8,2.1-1.9,2.1s-1.9-0.9-1.9-2.1s0.8-7.1,1.9-7.1S27.6,47.4,27.6,48.7z"/>
			</g>
			<path fill="#4CC7F2" d="M24.8,49.5c0-1.2,0.8-6.5,1.7-7c-0.2-0.6-0.5-0.9-0.7-0.9c-1,0-1.9,5.9-1.9,7.1c0,0.9,0.5,1.7,1.1,2
				C24.9,50.3,24.8,49.9,24.8,49.5z"/>
		</g>
	</g>
	<g id="嘴巴8" display="inline">
		<g>
			<path fill="#BC4444" d="M51.6,12.5c0-0.2-0.2-0.3-0.4-0.3c-0.5,0-1.8,0.2-3.5,0.3c-6.5,0.6-12,5.7-14.3,13
				c-3.9,12.5-8.3,31.4-2.1,39.1c0.4,0.5,1.1,0.3,1.2-0.4c0.5-2.8,1.6-8.7,2.1-8.6c0.7,0.1-0.1,0.6-0.3,7.4c0,0.3-0.3,4.5,0.3,4.1
				c0.7-0.5,1.4-1.3,2.2-2.6c0.3-0.4,0.8-0.3,1,0.2c0.1,0.7,0.3,1,0.5,1.1c0.5,0,1-2.2,1.4-5.8c0.1-1.2,0.4-2.4,0.9-3.5
				c0.3-0.8,0.6-1.7,1-2.6c0.2-0.7,1.1-0.6,1.2,0.1c0.8,3.1,1.6,5,2.1,5c0.9,0,0.8-4.6,0.7-11.2c-0.1-4,0.4-8,1.4-11.8
				C50.1,24.9,52,14.6,51.6,12.5z"/>
			<path fill="#C75656" d="M38.7,27.8c2.1-6.7,7-11.5,12.8-12.7c0.1-1.1,0.1-2,0-2.4c0-0.2-0.2-0.3-0.4-0.3c-0.5,0-1.8,0.2-3.5,0.3
				c-6.5,0.6-12,5.7-14.3,13c-3.9,12.5-8.3,31.4-2.1,39.1c0.4,0.5,1.1,0.3,1.2-0.4c0.3-1.6,0.7-4.2,1.2-6.1
				C32.9,49.1,35.9,36.8,38.7,27.8z"/>
			<path fill="#BC4444" d="M50.2,59.9c0.1,4.3-0.5,5-1.3,5c-0.8,0-1.5-0.6-1.6-4.9c-0.1-4.3,0.4-10.5,1.2-10.5S50.1,55.7,50.2,59.9z
				"/>
			<path fill="#BC4444" d="M54.5,23.6c0,1.7-0.6,2-1.4,2c-0.8,0-1.4-0.2-1.5-2c0-1.7,0.5-4.2,1.3-4.3C53.7,19.4,54.4,21.9,54.5,23.6
				z"/>
			<path fill="#BC4444" d="M44.1,66.5c0,1-0.4,1.2-0.8,1.2c-0.5,0-0.9-0.1-0.9-1.2c0-1-0.3-2.6,0.2-2.6C43.1,64,44.1,65.5,44.1,66.5
				z"/>
			<path fill="#BC4444" d="M28.6,39c-1.7,5.3-2.3,6.1-2.8,5.9c-0.5-0.1-0.6-1.1,1.1-6.4s4.5-13,4.9-12.9
				C32.3,25.8,30.3,33.7,28.6,39z"/>
		</g>
	</g>
</g>
</svg>
