<?xml version="1.0" encoding="utf-8"?>
<!-- Generator: Adobe Illustrator 18.0.0, SVG Export Plug-In . SVG Version: 6.00 Build 0)  -->
<!DOCTYPE svg PUBLIC "-//W3C//DTD SVG 1.1//EN" "http://www.w3.org/Graphics/SVG/1.1/DTD/svg11.dtd">
<svg version="1.1" xmlns="http://www.w3.org/2000/svg" xmlns:xlink="http://www.w3.org/1999/xlink" x="0px" y="0px"
	 viewBox="0 0 100 50" enable-background="new 0 0 100 50" xml:space="preserve">
<g id="图层_1" display="none">
	<rect x="-450" y="-475" display="inline" fill="#777676" width="1000" height="1000"/>
	<path display="inline" fill="#333333" d="M14-119.8c-5,0-9,3.1-9,8.1l6,1h12.1C23.1-115.8,19-119.8,14-119.8z"/>
	<path display="inline" fill="#535353" d="M15.6-118.9c1.2,0,2.4,0.2,3.5,0.7c-1.5-1-3.2-1.6-5.1-1.6c-5,0-9,3.1-9,8.1l1.7,0.3
		C6.9-116.1,10.9-118.9,15.6-118.9z"/>
	<path display="inline" d="M22.5-110.8L22.5-110.8l0.5,0.1c0-2.5-1-4.8-2.7-6.4C21.8-115.5,22.6-113.3,22.5-110.8L22.5-110.8z"/>
	<path display="inline" fill="#8C6239" d="M-114.7-139.5c-1.4-2.4-3.9-3.1-6.3-1.7c-0.1,0-7.5,4.7-5.4,8.3c0.6,1.1,1.9,1.5,3.3,1.5
		c2.7,0,6.1-1.4,6.7-1.8c1.6-0.9,2.1-2.1,2.3-3C-113.9-137.3-114.1-138.4-114.7-139.5z"/>
	<path display="inline" fill="#744D28" d="M-121.5-140c-0.4,0-0.8,0-1.2,0.1c-2.1,1.7-5,4.6-3.7,7c0.6,1.1,1.9,1.5,3.3,1.5
		c2.7,0,6.1-1.4,6.7-1.8c1.6-0.9,2.1-2.1,2.3-3c0-0.2,0-0.4,0.1-0.6C-116.2-138.7-118.8-140-121.5-140z"/>
	<path display="inline" fill="#C69C6D" d="M-257.8-115.7c-5,0-9.1,4.1-9.1,9.1h18.3C-248.6-111.6-252.7-115.7-257.8-115.7z"/>
	<path display="inline" fill="#BD9261" d="M-256.5-115.6c-0.4-0.1-0.8-0.1-1.3-0.1c-5,0-9.1,4.1-9.1,9.1h3.1
		C-263.8-110.9-260.7-114.7-256.5-115.6z"/>
	<path display="inline" fill="#333333" d="M-292.2-115.7c-5,0-9.1,4.1-9.1,9.1h18.3C-283.1-111.6-287.2-115.7-292.2-115.7z"/>
	<path display="inline" d="M-290.7-115.5c3.9,1.1,6.7,4.8,6.7,9h0.8C-283.1-111.1-286.4-114.8-290.7-115.5z"/>
	<path display="inline" fill="#535353" d="M-291.5-115.6c-0.2,0-0.4,0-0.7,0c-5,0-9.1,4.1-9.1,9.1h1.3
		C-300-111.3-296.3-115.3-291.5-115.6z"/>
	<path display="inline" fill="#8C6239" d="M-265-316.8l-5.4-1.9l3.1,4.8c7.5,11.8,10.8,13.3,12.3,13.3c0.3,0,0.5-0.1,0.7-0.1
		c0.8-0.2,2.1-0.9,2.2-3.3C-251.6-311.9-263.6-316.3-265-316.8z"/>
	<path display="inline" fill="#744D28" d="M-263.9-316.4c-0.5-0.2-0.9-0.3-1.1-0.4l-5.2-1.8c4,2.4,7,7.3,7.9,12.1
		c1.9,2.5,3.4,3.9,4.5,4.8c0-0.4,0.1-0.8,0.1-1.2C-257.6-307.6-260.1-313.1-263.9-316.4z"/>
	<path display="inline" fill="#8C6239" d="M-113-316.8l-5.4-1.9l3.1,4.8c7.5,11.8,10.8,13.3,12.3,13.3c0.3,0,0.5-0.1,0.7-0.1
		c0.8-0.2,2.1-0.9,2.2-3.3C-99.6-311.9-111.6-316.3-113-316.8z"/>
	<path display="inline" fill="#744D28" d="M-111.9-316.3c-0.5-0.2-0.9-0.3-1.1-0.4l-5.2-1.8c4,2.4,7,7.3,7.9,12.1
		c1.9,2.5,3.4,3.9,4.5,4.8c0-0.4,0.1-0.8,0.1-1.2C-105.6-307.6-108.1-313.1-111.9-316.3z"/>
	<path display="inline" fill="#C69C6D" d="M45.9-299.7c-5,0-9.1,4.1-9.1,9.1h18.3C55.1-295.6,51-299.7,45.9-299.7z"/>
	<path display="inline" fill="#BD9261" d="M47.2-299.6c-0.4-0.1-0.8-0.1-1.3-0.1c-5,0-9.1,4.1-9.1,9.1h3.1
		C39.9-294.9,43-298.7,47.2-299.6z"/>
	<path display="inline" fill="#333333" d="M11.5-299.7c-5,0-9.1,4.1-9.1,9.1h18.3C20.6-295.6,16.5-299.7,11.5-299.7z"/>
	<path display="inline" d="M13-299.5c3.9,1.1,6.7,4.8,6.7,9h0.8C20.6-295,17.4-298.8,13-299.5z"/>
	<path display="inline" fill="#535353" d="M12.2-299.6c-0.2,0-0.4,0-0.7,0c-5,0-9.1,4.1-9.1,9.1h1.3C3.7-295.3,7.4-299.3,12.2-299.6
		z"/>
	<path display="inline" fill="#8C6239" d="M-135.3-315.6c-1.4-2.2-2.7-4.1-3.8-5.6c1-1.2,1.7-2.7,1.7-4.4c0-3.7-3-6.7-6.7-6.7
		c-3.7,0-6.7,3-6.7,6.7c0,0.8,0.2,1.6,0.4,2.3c1.5,6.6,11.5,10.2,12.7,10.7l5.4,1.9L-135.3-315.6z"/>
	<path display="inline" fill="#744D28" d="M-135.3-315.6c-1.4-2.2-2.7-4.1-3.8-5.6c1-1.2,1.7-2.7,1.7-4.4c0-3-2-5.5-4.7-6.4
		c2.3,1.1,3.9,3.4,3.9,6.1c0,1.7-0.6,3.2-1.7,4.4c1.1,1.5,2.4,3.4,3.8,5.6l3.1,4.8l-5.4-1.9c-0.1,0-0.2-0.1-0.3-0.1
		c0.5,0.2,0.9,0.4,1.1,0.4l5.4,1.9L-135.3-315.6z"/>
	<path display="inline" fill="#333333" d="M-140.2-299.7c-5,0-9.1,4.1-9.1,9.1h18.3C-131.1-295.6-135.2-299.7-140.2-299.7z"/>
	<path display="inline" d="M-138.7-299.5c3.9,1.1,6.7,4.8,6.7,9h0.8C-131.1-295-134.3-298.8-138.7-299.5z"/>
	<path display="inline" fill="#535353" d="M-139.5-299.6c-0.2,0-0.4,0-0.7,0c-5,0-9.1,4.1-9.1,9.1h1.3
		C-148-295.3-144.3-299.3-139.5-299.6z"/>
	<path display="inline" fill="#8C6239" stroke="#8C6239" stroke-width="4" stroke-miterlimit="10" d="M207.3-373
		c0-1.1,0.7-1.5,1.6-1.5s1.6,0.4,1.6,1.5c0,1.1-0.7,2.3-1.6,2.3S207.3-372,207.3-373z"/>
	<polygon display="inline" fill="#C69C6D" points="158.6,-399.7 217.8,-399.7 190.5,-336 	"/>
	<polygon display="inline" fill="#B18451" points="191.8,-343.2 183.8,-356.8 192.2,-340 211,-383.9 	"/>
	<polygon display="inline" fill="#DCB890" points="162.6,-397.5 217.7,-399.6 217.8,-399.7 158.6,-399.7 182.4,-352.1 	"/>
	<path display="inline" fill="#8C6239" d="M-271.8-296.2c0,2.6-0.9,4.7-3.5,4.7s-3.5-2.1-3.5-4.7s0.9-4.7,3.5-4.7
		S-271.8-298.7-271.8-296.2z"/>
	<path display="inline" fill="#F9F3F3" d="M-264.8-352.1c0,7.4-6,10.3-13.4,10.3c-7.4,0-13.4-2.9-13.4-10.3s6-16.4,13.4-16.4
		C-270.8-368.6-264.8-359.5-264.8-352.1z"/>
	<path display="inline" fill="#FFFFFF" d="M-290.8-350.9c0-7.4,6-16.4,13.4-16.4c4.2,0,8,3,10.4,6.9c-2.4-4.5-6.5-8.1-11.1-8.1
		c-7.4,0-13.4,9.1-13.4,16.4c0,2.3,0.6,4.2,1.6,5.7C-290.5-347.7-290.8-349.2-290.8-350.9z"/>
	<path display="inline" fill="#E6E6E6" d="M-268.8-363.3c1.8,2.9,2.9,6.4,2.9,9.5c0,7.4-6,10.3-13.4,10.3c-4.6,0-8.7-1.1-11.1-3.8
		c2.1,3.8,6.8,5.4,12.2,5.4c7.4,0,13.4-2.9,13.4-10.3C-264.7-355.9-266.3-360.1-268.8-363.3z"/>
	<path display="inline" fill="#8C6239" stroke="#8C6239" stroke-width="4" stroke-miterlimit="10" d="M-284.5-370.5
		c0-2.9,2.8-4.1,6.3-4.1s6.3,1.1,6.3,4.1s-2.8,6.5-6.3,6.5S-284.5-367.6-284.5-370.5z"/>
	<path display="inline" fill="#AA8561" d="M-284.9-369.8c0-3.8,3.1-6.1,8.3-6.1c1.5,0,2.8,0.2,3.9,0.5c-1.4-0.8-3.2-1.2-5.5-1.2
		c-5.2,0-8.3,2.3-8.3,6.1c0,3.3,2.6,7.1,6.3,8.2C-283-363.9-284.9-367-284.9-369.8z"/>
	<path display="inline" fill="#744D28" d="M-272.3-375.1c1.2,1,1.8,2.4,1.8,4.1c0,3.9-3.6,8.5-8.3,8.5c-1.6,0-3.1-0.5-4.3-1.4
		c1.4,1.1,3.1,1.9,5,1.9c4.7,0,8.3-4.6,8.3-8.5C-269.9-372.5-270.7-374.1-272.3-375.1z"/>
	<path display="inline" fill="#333333" d="M-292.2-299.7c-5,0-9.1,4.1-9.1,9.1h18.3C-283.1-295.6-287.2-299.7-292.2-299.7z"/>
	<path display="inline" d="M-290.7-299.5c3.9,1.1,6.7,4.8,6.7,9h0.8C-283.1-295-286.3-298.8-290.7-299.5z"/>
	<path display="inline" fill="#C69C6D" d="M-258-299.7c-5,0-9.1,4.1-9.1,9.1h18.3C-248.8-295.6-252.9-299.7-258-299.7z"/>
	<path display="inline" fill="#8C6239" stroke="#8C6239" stroke-width="4" stroke-miterlimit="10" d="M-285-314.9
		c0,0-12,4.1-11.5,10.8C-296.1-297.4-285-314.9-285-314.9z"/>
	<path display="inline" fill="#744D28" d="M-280.9-318.4l-2.9,4.5c-7.5,11.8-10.8,13.3-12.3,13.3c0,0,0,0,0,0c0.2,0,0.3,0.1,0.5,0.1
		c1.5,0,4.8-1.5,12.3-13.3l3.1-4.8L-280.9-318.4z"/>
	<path display="inline" fill="#AA8561" d="M-297.5-303.4c-0.5-8,11.5-12.3,12.9-12.8l3.5-1.2l0.8-1.2l-5.4,1.9
		c-1.4,0.5-13.4,4.9-12.9,12.8c0.2,2.4,1.5,3.1,2.2,3.3c0,0,0,0,0.1,0C-296.8-301.1-297.4-301.9-297.5-303.4z"/>
	<path display="inline" fill="#AA8561" d="M-264.4-315.6c1.1,0.4,8.6,3.1,11.7,8.1c-2.5-5.7-11.1-8.8-12.2-9.2l-5.4-1.9l0.8,1.2
		L-264.4-315.6z"/>
	<path display="inline" fill="#C69C6D" d="M-262-303.6c0,7.4-6,10.3-13.4,10.3s-13.4-2.9-13.4-10.3c0-7.4,6-16.4,13.4-16.4
		S-262-311-262-303.6z"/>
	<path display="inline" fill="#BD9261" d="M-265.7-314.4c1.9,3,3,6.5,3,9.7c0,7.4-6,10.3-13.4,10.3c-4.8,0-9-1.2-11.3-4.1
		c2.1,3.7,6.7,5.2,12.1,5.2c7.4,0,13.4-2.9,13.4-10.3C-261.9-307.2-263.4-311.2-265.7-314.4z"/>
	<path display="inline" fill="#DCB890" d="M-287.8-302.8c0-7.4,6-16.4,13.4-16.4c2.7,0,5.1,1.2,7.2,3c-2.2-2.3-5-3.9-8.1-3.9
		c-7.4,0-13.4,9.1-13.4,16.4c0,3.3,1.2,5.7,3.1,7.3C-286.9-297.9-287.8-300-287.8-302.8z"/>
	<g display="inline">
		<path fill="#8C6239" d="M-277.7-346.7c-1.9,0-3.7-0.5-4.3-1.1c-0.9-0.9-0.4-2.3,0.1-3.3c-0.9-0.9-2.3-2.6-2.4-4.3
			c0-0.9,0.3-1.6,0.9-2.2c1.9-1.9,6.2-1.8,8.5-1.4c1.7,0.3,2.7,0.9,3,1.7c0.7,1.7-0.7,4.2-1.7,5.6c0.5,0.5,1.1,1.2,1.1,2
			c0,0.6-0.2,1.4-1.2,2.1C-274.8-347-276.2-346.7-277.7-346.7z M-280.5-349.2c0.8,0.4,4.1,0.9,5.7-0.2c0.3-0.2,0.3-0.3,0.3-0.3
			c0-0.2-0.5-0.7-1-1l-1-0.6l0.7-0.9c1.2-1.5,2.3-3.7,2-4.4c-0.2-0.2-1.5-0.7-3.6-0.7c-2.1-0.1-3.9,0.4-4.6,1
			c-0.2,0.2-0.3,0.4-0.3,0.7c0,1.1,1.5,2.7,2.3,3.4l0.7,0.6l-0.5,0.7C-280.1-350.3-280.5-349.5-280.5-349.2z"/>
	</g>
	<g display="inline">
		<path fill="#744D28" d="M-280.9-349.4c0.1,0.1,0.2,0.1,0.4,0.2c0.1-0.4,0.4-1,0.7-1.6l0.5-0.7l-0.7-0.6c-0.9-0.7-2.3-2.3-2.3-3.4
			c0-0.3,0.1-0.5,0.3-0.7c0.7-0.7,2.5-1.1,4.6-1c1.5,0,2.6,0.3,3.2,0.5c0,0,0,0,0,0c-0.2-0.2-1.5-0.7-3.6-0.7
			c-2.1-0.1-3.9,0.4-4.6,1c-0.2,0.2-0.3,0.4-0.3,0.7c0,1.1,1.5,2.7,2.3,3.4l0.7,0.6l-0.5,0.7C-280.6-350.5-280.9-349.7-280.9-349.4z
			"/>
		<path fill="#744D28" d="M-272-357.4c-0.2-0.5-0.6-0.9-1.3-1.2c0.4,0.3,0.7,0.6,0.9,0.9c0.7,1.7-0.7,4.2-1.7,5.6
			c0.5,0.5,1.1,1.2,1.1,2c0,0.6-0.2,1.4-1.2,2.1c-1,0.7-2.5,1-4,1c-1.4,0-2.8-0.3-3.7-0.7c0.8,0.5,2.4,0.9,4.1,0.9
			c1.4,0,2.9-0.3,4-1c1-0.7,1.2-1.5,1.2-2.1c0-0.8-0.6-1.5-1.1-2C-272.7-353.1-271.2-355.7-272-357.4z"/>
	</g>
	<path display="inline" fill="#AA8561" d="M-281.7-347.6c-0.9-0.9-0.4-2.3,0.1-3.3c-0.9-0.9-2.3-2.6-2.4-4.3c0-0.9,0.3-1.6,0.9-2.2
		c1.9-1.9,6.2-1.8,8.5-1.4c0.9,0.2,1.6,0.4,2.1,0.7c-0.5-0.4-1.3-0.7-2.4-1c-2.3-0.5-6.6-0.5-8.5,1.4c-0.6,0.6-0.9,1.4-0.9,2.2
		c0.1,1.7,1.5,3.4,2.4,4.3c-0.5,1-1,2.4-0.1,3.3C-281.9-347.7-281.8-347.6-281.7-347.6C-281.7-347.6-281.7-347.6-281.7-347.6z"/>
	<path display="inline" d="M-279.1-351.6c0,0,1-3.7,2.5-0.1C-276.5-351.7-277.5-348-279.1-351.6z"/>
	<path display="inline" fill="#8C6239" d="M-271.8-112.2c0,2.6-0.9,4.7-3.5,4.7s-3.5-2.1-3.5-4.7c0-2.6,0.9-4.7,3.5-4.7
		S-271.8-114.7-271.8-112.2z"/>
	<path display="inline" fill="#F9F3F3" d="M-264.8-168.1c0,7.4-6,10.3-13.4,10.3c-7.4,0-13.4-2.9-13.4-10.3s6-16.4,13.4-16.4
		C-270.8-184.6-264.8-175.5-264.8-168.1z"/>
	<path display="inline" fill="#C69C6D" d="M-262-119.6c0,7.4-6,10.3-13.4,10.3s-13.4-2.9-13.4-10.3s6-16.4,13.4-16.4
		S-262-127-262-119.6z"/>
	<path display="inline" fill="#B18451" d="M-265.8-130.4c1.7,2.9,2.8,6.3,2.8,9.3c0,7.4-6,10.3-13.4,10.3c-4.8,0-9-1.2-11.3-4.1
		c2,4,6.8,5.6,12.3,5.6c7.4,0,13.4-2.9,13.4-10.3C-262-123.2-263.5-127.2-265.8-130.4z"/>
	<path display="inline" fill="#DCB890" d="M-286.7-117.6c0-7.4,6-16.4,13.4-16.4c2.5,0,4.9,1.1,6.9,2.7c-2.4-2.8-5.5-4.7-8.9-4.7
		c-7.4,0-13.4,9.1-13.4,16.4c0,3.6,1.4,6.1,3.7,7.7C-286.1-113.4-286.7-115.3-286.7-117.6z"/>
	<path display="inline" fill="#8C6239" d="M-264.2-129.3l-4.2-3.9l0.8,5.7c2.4,16.6,5.3,17.1,6.4,17.3c0.1,0,0.3,0,0.5,0
		c0.8,0,2-0.4,2.9-2.1C-254-119.4-263.1-128.3-264.2-129.3z"/>
	<path display="inline" fill="#744D28" d="M-260.5-125.1c1.9,3.9,3.6,9.2,1.4,13.3c-0.4,0.8-0.9,1.3-1.4,1.6
		c0.8-0.1,1.9-0.5,2.7-2.1C-255.4-116.6-257.9-121.6-260.5-125.1z"/>
	<path display="inline" fill="#AA8561" d="M-265.7-127.9l-0.5-3.3l-2.2-2.1l0.8,5.7c1.8,12.6,3.9,16,5.3,16.9
		C-263.2-113.6-264.4-118.8-265.7-127.9z"/>
	<path display="inline" fill="#8C6239" d="M-286.6-128.6c-1,1.1-9.3,10.8-4.9,17.5c1,1.5,2.1,1.9,2.9,1.9c0.3,0,0.5,0,0.7-0.1
		c1.1-0.3,4-1.1,4.9-17.8l0.3-5.7L-286.6-128.6z"/>
	<path display="inline" fill="#744D28" d="M-289.1-110.2c-0.2,0.1-0.4,0.1-0.7,0.1c-0.3,0-0.7-0.1-1-0.2c0.8,0.8,1.6,1,2.2,1
		c0.3,0,0.5,0,0.7-0.1c1-0.3,3.5-1,4.6-14.1C-285-113.4-288.3-110.4-289.1-110.2z"/>
	<path display="inline" fill="#AA8561" d="M-285.9-127.3l3-3.4l0.1-2.2l-3.8,4.3c-1,1.1-9.3,10.8-4.9,17.5c0,0,0.1,0.1,0.1,0.1
		C-294.3-117.6-286.8-126.3-285.9-127.3z"/>
	<path display="inline" fill="#C69C6D" d="M169.2-299.7c-5,0-9.1,4.1-9.1,9.1h18.3C178.4-295.6,174.3-299.7,169.2-299.7z"/>
	<path display="inline" fill="#BD9261" d="M177.6-290.6h0.8c0-4-2.6-7.4-6.1-8.6C175.3-297.8,177.5-294.5,177.6-290.6z"/>
	<path display="inline" fill="#DCB890" d="M170-299.7c-0.2,0-0.5,0-0.8,0c-5,0-9.1,4.1-9.1,9.1h1.5
		C161.6-295.4,165.3-299.3,170-299.7z"/>
	<path display="inline" fill="#333333" d="M203.7-299.7c-5,0-9.1,4.1-9.1,9.1h18.3C212.8-295.6,208.7-299.7,203.7-299.7z"/>
	<path display="inline" fill="#0E0E0E" d="M207.5-298.8c-1.2-0.5-2.5-0.9-3.8-0.9c-5,0-9.1,4.1-9.1,9.1h7.7
		C202.2-294.2,204.4-297.4,207.5-298.8z"/>
	<path display="inline" fill="#C69C6D" d="M224-322.8c0,18.1-16.6,25.2-37.1,25.2s-37.1-7.1-37.1-25.2s16.6-40.4,37.1-40.4
		S224-340.9,224-322.8z"/>
	<path display="inline" fill="#DCB890" d="M154.5-319.2c0-18.1,16.6-40.4,37.1-40.4c6.2,0,12,2,17.1,5.4c-6.1-5.4-13.7-9-21.9-9
		c-20.5,0-37.1,22.2-37.1,40.4c0,9.1,4.2,15.4,11,19.5C156.8-307.3,154.5-312.5,154.5-319.2z"/>
	<path display="inline" fill="#BD9261" d="M195.7-361.8c7.8,8.7,12.6,20.2,12.6,30.5c0,20-18.3,27.9-40.9,27.9c-2.3,0-4.6,0-6.9-0.1
		c6.7,4.1,16,5.9,26.3,5.9c20.5,0,37.1-7.1,37.1-25.2C223.9-338.2,211.9-356.6,195.7-361.8z"/>
	<path display="inline" fill="#8C6239" d="M186.1-378c-9.4,0-15,3.9-15,10.4c0,7,6.7,15.4,15,15.4s15-8.4,15-15.4
		C201.1-374.2,195.5-378,186.1-378z"/>
	<path display="inline" fill="#744D28" d="M199.8-372.5c0.3,0.9,0.5,1.9,0.5,3c0,7.3-7,16-15.6,16c-2.7,0-5.2-0.8-7.3-2.2
		c2.5,2.1,5.5,3.4,8.8,3.4c8.3,0,15-8.4,15-15.4C201.1-369.5,200.7-371.1,199.8-372.5z"/>
	<path display="inline" fill="#AA8561" d="M173.2-365.2c0-6.5,5.6-10.4,15-10.4c5.2,0,9.2,1.2,11.8,3.4c-2.1-3.7-6.9-5.9-13.9-5.9
		c-9.4,0-15,3.9-15,10.4c0,3.7,1.9,7.8,5,10.9C174.3-359.4,173.2-362.4,173.2-365.2z"/>
	<path display="inline" fill="#8C6239" d="M31.8-296.2c0,2.6-0.9,4.7-3.5,4.7s-3.5-2.1-3.5-4.7s0.9-4.7,3.5-4.7
		S31.8-298.7,31.8-296.2z"/>
	<path display="inline" fill="#F9F3F3" d="M38.9-352.1c0,7.4-6,10.3-13.4,10.3s-13.4-2.9-13.4-10.3s6-16.4,13.4-16.4
		S38.9-359.5,38.9-352.1z"/>
	<path display="inline" fill="#8C6239" d="M17.7-313.7c-1.2,0.8-11.7,8.2-9.1,15.7c0.8,2.3,2.2,2.6,3,2.6c0,0,0,0,0,0
		c1.1,0,4.1-0.1,9.1-16.1l1.7-5.5L17.7-313.7z"/>
	<path display="inline" fill="#744D28" d="M21-316l-1.7,5.4c-3,9.6-5.3,13.5-6.9,15c1.5-0.5,4.2-3,8.3-16l1.7-5.5L21-316z"/>
	<path display="inline" fill="#AA8561" d="M9.7-296.4c-2.6-7.5,6.9-15.8,8.1-16.6l4.4-3.2l0.2-0.6l-4.7,3.2
		c-1.2,0.8-11.7,8.2-9.1,15.7c0.4,1,0.9,1.7,1.4,2C9.9-296.1,9.8-296.3,9.7-296.4z"/>
	<path display="inline" fill="#8C6239" d="M38.3-313.7l-4.7-3.2l1.7,5.5c5,16,8,16.1,9.1,16.1c0,0,0,0,0,0c0.8,0,2.2-0.3,3-2.6
		C50-305.6,39.5-312.9,38.3-313.7z"/>
	<path display="inline" fill="#C69C6D" d="M41.7-303.6c0,7.4-6,10.3-13.4,10.3S15-296.2,15-303.6c0-7.4,6-16.4,13.4-16.4
		S41.7-311,41.7-303.6z"/>
	<path display="inline" fill="#744D28" d="M42.2-310.6c-1.6-1.5-3.1-2.6-3.7-3.1c2,3,3.2,6.7,3.2,10c0,2-0.4,3.6-1.2,5
		c0.2,0.4,0.5,0.7,0.7,1c1.5-1.6,2.4-3.8,2.4-6.6C43.5-306.3,43.1-308.5,42.2-310.6z"/>
	<path display="inline" fill="#8C6239" d="M-119.8-296.2c0,2.6-0.9,4.7-3.5,4.7c-2.6,0-3.5-2.1-3.5-4.7s0.9-4.7,3.5-4.7
		C-120.7-300.8-119.8-298.7-119.8-296.2z"/>
	<path display="inline" fill="#F9F3F3" d="M-112.8-352.1c0,7.4-6,10.3-13.4,10.3s-13.4-2.9-13.4-10.3s6-16.4,13.4-16.4
		S-112.8-359.5-112.8-352.1z"/>
	<path display="inline" fill="#C69C6D" d="M-106-299.7c-5,0-9.1,4.1-9.1,9.1h18.3C-96.8-295.6-100.9-299.7-106-299.7z"/>
	<path display="inline" fill="#AA8561" d="M-113-316.8l-5.4-1.9l0.3,0.4l5.1,1.7c1.4,0.5,13.4,4.9,12.9,12.8c0,0.5-0.1,0.9-0.2,1.3
		c0.2-0.4,0.3-0.9,0.3-1.6C-99.6-311.9-111.6-316.3-113-316.8z"/>
	<path display="inline" fill="#C69C6D" d="M-110-303.6c0,7.4-6,10.3-13.4,10.3c-7.4,0-13.4-2.9-13.4-10.3c0-7.4,6-16.4,13.4-16.4
		C-116-320.1-110-311-110-303.6z"/>
	<path display="inline" fill="#F6F3F0" d="M211.9-379.1c5.2,0,7.1-4.9,7.1-11h-18.8C200.2-384,206.7-379.1,211.9-379.1z"/>
	<path display="inline" fill="#E6E6E6" d="M216.1-390.2c-0.2,5.6-2.2,9.9-7.1,9.9c-1.3,0-2.7-0.3-4-0.9c1.9,1.3,4.1,2,6.2,2
		c5.2,0,7.1-4.9,7.1-11H216.1z"/>
	<path display="inline" fill="#FFFFFF" d="M203.4-387.3H220c0-0.5,0.1-1,0.1-1.6h-18.8c0,3.9,2.7,7.4,6.1,9.3
		C205-381.6,203.4-384.3,203.4-387.3z"/>
	<path display="inline" fill="#8C6239" d="M211.9-377.1c-6.2,0-13.7-5.8-13.7-13v-2H221v2C221-381.8,217.7-377.1,211.9-377.1z
		 M202.5-388.1c1.2,3.9,5.7,7,9.4,7c3.6,0,4.8-3.5,5.1-7H202.5z"/>
	<g display="inline">
		<path fill="#744D28" d="M202.5-388.1h13.1c0-0.1,0-0.3,0-0.4h-14.5c1,3.3,4.4,6,7.7,6.8C206-382.8,203.4-385.2,202.5-388.1z"/>
		<path fill="#744D28" d="M219.7-392.1v1.6c0,8.3-3.3,13-9.1,13c-0.9,0-1.9-0.1-2.8-0.4c1.4,0.5,2.8,0.8,4.2,0.8
			c5.8,0,9.1-4.7,9.1-13v-2H219.7z"/>
	</g>
	<g display="inline">
		<path fill="#AA8561" d="M212.8-380.2c3.6,0,4.8-3.5,5.1-7h-1c-0.4,3.2-1.7,6.2-5,6.2c-2,0-4.3-0.9-6.1-2.4
			C207.7-381.5,210.4-380.2,212.8-380.2z"/>
		<path fill="#AA8561" d="M199.1-389.2v-2H221v-0.8h-22.8v2c0,3.8,2,7.1,4.9,9.5C200.7-382.8,199.1-385.8,199.1-389.2z"/>
	</g>
	<path display="inline" fill="#8C6239" d="M-137.3-350.7c0,0,19.7-2,21.4-5.4C-115.8-356.1-107.6-350.8-137.3-350.7z"/>
	<path display="inline" fill="#744D28" d="M-115.8-356.1C-115.8-356-115.9-356-115.8-356.1c1,0.9,4.8,5-20.3,5.3
		c-0.7,0.1-1.1,0.1-1.1,0.1C-107.6-350.8-115.8-356.1-115.8-356.1z"/>
	<path display="inline" fill="#AA8561" d="M-115.6-355.8c0,0,0.2,0.2,0.5,0.4c-0.3-0.4-0.7-0.7-0.7-0.7c-1.8,3.4-21.4,5.4-21.4,5.4
		c0.9,0,1.8,0,2.6,0C-129.3-351.4-117-353.2-115.6-355.8z"/>
	<path display="inline" fill="#F6F3F0" d="M119.3-335.1c0.1,0,0.2,0,0.3,0c1.4,7.1,7.7,12.4,15.2,12.4c3.7,0,7.1-1.3,9.8-3.5
		c1.3,0.9,2.8,1.5,4.5,1.5c3,0,5.5-1.7,6.8-4.3c0.9,0.2,1.9,0.3,2.9,0.3c0.3,0,0.6,0,0.9,0c2.9-0.2,24.3,8.6,26.4,6.7
		c1.9-1.7-15.5-14-14.9-16.6c0.2-0.8,0.3-1.6,0.3-2.4c0,0,0,0,0.1,0c5.3,0,9.6-4.3,9.6-9.6c0-5.3-4.3-9.6-9.6-9.6
		c-0.8,0-1.5,0.1-2.2,0.3c-1.8-2.1-4.4-3.5-7.4-3.5c-1.2,0-2.4,0.2-3.5,0.7c-2.3-2.6-5.7-4.2-9.4-4.2c-4.1,0-7.7,1.9-10,4.9
		c-1.3-0.7-2.8-1.1-4.3-1.1c-3.7,0-6.8,2.1-8.3,5.1c-2-1.4-4.5-2.2-7.1-2.2c-6.9,0-12.5,5.6-12.5,12.5
		C106.8-340.8,112.4-335.1,119.3-335.1z"/>
	<path display="inline" fill="#E6E6E6" d="M157.6-331.2c-0.4,0-0.7,0-1.1,0c-1.1,0-2.2-0.1-3.3-0.4c-1.4,2.8-4.3,4.8-7.6,4.8
		c-1.9,0-3.6-0.6-5.1-1.7c-3,2.5-6.9,3.9-11,3.9c-0.7,0-1.4-0.1-2.1-0.1c2.1,1,4.4,1.6,6.9,1.6c3.7,0,7.1-1.3,9.8-3.5
		c1.3,0.9,2.8,1.5,4.5,1.5c3,0,5.5-1.7,6.8-4.3c0.9,0.2,1.9,0.3,2.9,0.3c0.3,0,0.6,0,0.9,0c2.9-0.2,24.3,8.6,26.4,6.7
		c0.2-0.2,0.2-0.6-0.1-1.1C179.3-323.9,160.5-331.4,157.6-331.2z"/>
	<path display="inline" fill="#E6E6E6" d="M173.4-341.6C173.4-341.6,173.4-341.6,173.4-341.6c3.8,0,6.9-3.1,6.9-6.8
		c0-0.1,0-0.1,0-0.2c-1.3,2.6-3.9,4.3-6.9,4.3c0,0,0,0-0.1,0c0,0.7-0.1,1.3-0.3,1.9c-0.1,0.2,0.1,0.6,0.3,1
		C173.4-341.5,173.4-341.6,173.4-341.6z"/>
	<path display="inline" fill="#FFFFFF" d="M110.6-339.7c0-7.3,5.9-13.3,13.3-13.3c2.8,0,5.4,0.9,7.6,2.4c1.6-3.2,5-5.4,8.8-5.4
		c1.6,0,3.2,0.4,4.6,1.1c2.4-3.1,6.3-5.2,10.6-5.2c4,0,7.5,1.7,10,4.5c1.1-0.4,2.4-0.7,3.7-0.7c3.1,0,5.9,1.4,7.8,3.7
		c0.8-0.2,1.6-0.3,2.4-0.3c0.6,0,1.2,0.1,1.8,0.2c-1-4.2-4.8-7.4-9.4-7.4c-0.8,0-1.5,0.1-2.2,0.3c-1.8-2.1-4.4-3.5-7.4-3.5
		c-1.2,0-2.4,0.2-3.5,0.7c-2.3-2.6-5.7-4.2-9.4-4.2c-4.1,0-7.7,1.9-10,4.9c-1.3-0.7-2.8-1.1-4.3-1.1c-3.7,0-6.8,2.1-8.3,5.1
		c-2-1.4-4.5-2.2-7.1-2.2c-6.9,0-12.5,5.6-12.5,12.5c0,3.6,1.5,6.8,3.9,9C110.6-339,110.6-339.4,110.6-339.7z"/>
	<path display="inline" fill="#8C6239" d="M337-298.8c-0.3,2.6-1.4,4.6-4,4.3c-2.6-0.3-3.3-2.4-3-5c0.3-2.6,1.4-4.6,4-4.3
		C336.6-303.6,337.3-301.4,337-298.8z"/>
	<path display="inline" fill="#333333" d="M316.4-303.7c-3.6,3.6-3.5,9.4,0,12.9l12.9-13C325.7-307.3,320-307.3,316.4-303.7z"/>
	<path display="inline" fill="#0E0E0E" d="M315.5-291.9c0.3,0.4,0.6,0.8,0.9,1.1l11.6-11.6L315.5-291.9z"/>
	<path display="inline" fill="#535353" d="M317.5-301.8c3-3.1,7.3-4.1,10.7-2.9c-3.6-2.6-8.6-2.2-11.8,1c-2.5,2.5-3.2,6-2.3,9.1
		C314.3-297.2,315.4-299.8,317.5-301.8z"/>
	<path display="inline" fill="#C69C6D" d="M350.7-301.2c-4.9-1.1-9.8,2.1-10.9,7l9.9,3.6l8,0.2C358.8-295.3,355.6-300.1,350.7-301.2
		z"/>
	<path display="inline" fill="#BD9261" d="M355.5-297.5c0.3,0.1,0.6,0.1,0.9,0.2c-1.3-1.9-3.3-3.4-5.7-3.9c-4.9-1.1-9.8,2.1-10.9,7
		l5.4,2C346.9-296.1,351.2-298.5,355.5-297.5z"/>
	<path display="inline" fill="#8C6239" d="M326.7-318.9c-4.8-16.1-7.8-16.2-8.9-16.2c-0.8,0-2.2,0.3-3.1,2.6
		c-2.7,7.5,7.7,15,8.9,15.8l4.7,3.3L326.7-318.9z"/>
	<path display="inline" fill="#744D28" d="M326-319.4l1.3,5.4l1.3,0.9l-1.6-5.5c-1-3.4-1.9-6-2.8-8.1
		C324.7-324.8,325.4-322.4,326-319.4z"/>
	<path display="inline" fill="#AA8561" d="M316-330.7c0.8-2.3,2.3-2.6,3.1-2.6c0.5,0,1.5,0,2.9,1.8c-2.1-3.7-3.4-3.7-4.1-3.7
		c-0.8,0-2.2,0.3-3.1,2.6c-1.2,3.4,0.2,6.7,2.3,9.5C315.8-325.4,315.1-328,316-330.7z"/>
	<path display="inline" fill="#8C6239" d="M351-332.3c-1.6-1.8-3.1-1.6-3.8-1.3c-1,0.4-3.8,1.6-2.3,18.3l0.5,5.7l3.2-4.8
		C349.3-315.5,356.2-326.3,351-332.3z"/>
	<path display="inline" fill="#744D28" d="M352.8-328.2c-0.7,5.4-4.8,11-5.4,11.9l-2.3,3.6l0.3,3.4l3.2-4.8
		C349.2-315,353.8-322.3,352.8-328.2z"/>
	<path display="inline" fill="#AA8561" d="M347.5-331.5c0.7-0.3,2.2-0.6,3.8,1.3c0.8,0.9,1.3,1.9,1.6,3c-0.1-1.8-0.6-3.6-1.9-5.1
		c-1.6-1.8-3.1-1.6-3.8-1.3c-0.9,0.4-3.2,1.4-2.7,13.3C344.4-330.1,346.7-331.1,347.5-331.5z"/>
	<path display="inline" fill="#C69C6D" d="M348.4-307c-0.9,7.3-7.2,9.5-14.5,8.5s-12.9-4.5-12-11.9c0.9-7.3,8-15.6,15.3-14.6
		C344.5-324,349.3-314.3,348.4-307z"/>
	<path display="inline" fill="#BD9261" d="M344.6-320.2c2.6,3.7,3.9,8.5,3.4,12.6c-0.9,7.5-7.7,9.6-15.5,8.6
		c-1.8-0.2-3.4-0.6-4.9-1.1c1.8,0.9,4,1.5,6.3,1.8c7.3,0.9,13.6-1.2,14.5-8.5C349-311.3,347.5-316.5,344.6-320.2z"/>
	<path display="inline" fill="#DCB890" d="M323.6-308.7c0.9-7.3,8-15.6,15.3-14.6c1.8,0.2,3.4,1,4.8,2.1c-1.8-2-4-3.4-6.6-3.7
		c-7.3-0.9-14.4,7.3-15.3,14.6c-0.5,4.1,1,7,3.7,9C324-303.2,323.2-305.7,323.6-308.7z"/>
	<g display="inline">
		<g>
			<path fill="#333333" d="M-274.8-300c-0.2-0.9-1.6-1.7-1.6-1.7l0-0.1c0.1,0,1.6,0.7,1.8,1.7L-274.8-300z"/>
		</g>
		<g>
			<path fill="#333333" d="M-276.1-300l-0.1,0c0.2-1.2,1.7-1.8,1.8-1.9l0.1,0.3C-274.3-301.6-275.9-301.1-276.1-300z"/>
		</g>
		<g>
			<path fill="#333333" d="M-275.3-298.4c-1.5,0-2.7-1.2-2.7-2.7c0-0.8,0.4-1.6,1-2.1c0.1-0.1,0.3-0.1,0.4,0c0.1,0.1,0.1,0.3,0,0.4
				c-0.5,0.4-0.8,1-0.8,1.7c0,1.2,1,2.2,2.2,2.2s2.2-1,2.2-2.2c0-0.6-0.3-1.2-0.7-1.6c-0.1-0.1-0.1-0.2,0-0.4c0.1-0.1,0.2-0.1,0.4,0
				c0.6,0.5,0.9,1.2,0.9,2C-272.7-299.6-273.9-298.4-275.3-298.4z"/>
		</g>
	</g>
	<g display="inline">
		<g>
			<path fill="#333333" d="M-274.6-116.4c-0.2-0.9-1.6-1.7-1.6-1.7l0-0.1c0.1,0,1.6,0.7,1.8,1.7L-274.6-116.4z"/>
		</g>
		<g>
			<path fill="#333333" d="M-275.9-116.4l-0.1,0c0.2-1.2,1.7-1.8,1.8-1.9l0.1,0.3C-274.1-118-275.7-117.5-275.9-116.4z"/>
		</g>
		<g>
			<path fill="#333333" d="M-275.1-114.8c-1.5,0-2.7-1.2-2.7-2.7c0-0.8,0.4-1.6,1-2.1c0.1-0.1,0.3-0.1,0.4,0c0.1,0.1,0.1,0.3,0,0.4
				c-0.5,0.4-0.8,1-0.8,1.7c0,1.2,1,2.2,2.2,2.2s2.2-1,2.2-2.2c0-0.6-0.3-1.2-0.7-1.6c-0.1-0.1-0.1-0.2,0-0.4c0.1-0.1,0.2-0.1,0.4,0
				c0.6,0.5,0.9,1.2,0.9,2C-272.5-116-273.7-114.8-275.1-114.8z"/>
		</g>
	</g>
	<path display="inline" fill="#8C6239" d="M346.2-114.2c0,2.6-0.9,4.7-3.5,4.7s-3.5-2.1-3.5-4.7c0-2.6,0.9-4.7,3.5-4.7
		S346.2-116.7,346.2-114.2z"/>
	<path display="inline" fill="#333333" d="M325.8-117.7c-5,0-9.1,4.1-9.1,9.1h18.3C334.9-113.6,330.8-117.7,325.8-117.7z"/>
	<path display="inline" d="M333.2-108.6h1.7c0-4.2-2.9-7.8-6.8-8.8C331.2-116,333.2-112.4,333.2-108.6z"/>
	<path display="inline" fill="#535353" d="M326.6-117.6c-0.3,0-0.6,0-0.9,0c-5,0-9.1,4.1-9.1,9.1h1.8
		C318.4-113.3,322-117.2,326.6-117.6z"/>
	<path display="inline" fill="#C69C6D" d="M360.2-117.7c-5,0-9.1,4.1-9.1,9.1h18.3C369.4-113.6,365.3-117.7,360.2-117.7z"/>
	<path display="inline" fill="#C69C6D" d="M356-121.6c0,7.4-6,10.3-13.4,10.3s-13.4-2.9-13.4-10.3s6-16.4,13.4-16.4
		S356-129,356-121.6z"/>
	<path display="inline" fill="#B18451" d="M342.7-137.9c-1,0-1.9,0.2-2.8,0.4c0.3,0,0.5-0.1,0.8-0.1c7.4,0,13.4,9.1,13.4,16.4
		c0,5.5-3.3,8.5-8,9.7c5.8-0.8,10-3.8,10-10.1C356.1-128.8,350.1-137.9,342.7-137.9z"/>
	<path display="inline" fill="#DCB890" d="M332.1-120.1c0-7.4,6-16.4,13.4-16.4c1,0,2,0.2,3,0.5c-1.7-1.2-3.7-1.9-5.7-1.9
		c-7.4,0-13.4,9.1-13.4,16.4c0,4.9,2.7,7.8,6.6,9.2C333.5-113.9,332.1-116.5,332.1-120.1z"/>
	<g display="inline">
		<path fill="#333333" d="M343.2-118c-0.2-0.9-1.6-1.7-1.6-1.7l0-0.1c0.1,0,1.6,0.7,1.8,1.7L343.2-118z"/>
	</g>
	<g display="inline">
		<path fill="#333333" d="M341.9-118l-0.1,0c0.2-1.2,1.7-1.8,1.8-1.9l0.1,0.3C343.7-119.6,342.1-119.1,341.9-118z"/>
	</g>
	<path display="inline" fill="none" stroke="#333333" stroke-width="0.5" stroke-linecap="round" stroke-miterlimit="10" d="
		M344.3-120.9c0.5,0.4,0.8,1.1,0.8,1.8c0,1.3-1.1,2.4-2.4,2.4s-2.4-1.1-2.4-2.4c0-0.8,0.4-1.4,0.9-1.9"/>
	<path display="inline" fill="#8C6239" d="M-150.4-169.3c-0.2-0.1-0.3-0.1-0.5-0.2l-0.2-7.3l0.2-1c-6.4-1.2-10-1-10.7,0.6
		c-0.1,0.3-0.5,1-0.1,1.9c0.5,1.2,2.2,2.1,5.3,3c0.2,0.1,0.3,0.2,0.4,0.3c-1.1,0.7-2.5,2-3.3,2.7c-0.4,0.4-0.7,0.9-0.7,1.4
		c0,0.9,0.2,1.7,0.8,2.2c0.5,0.5,1.1,0.7,1.9,0.7c0.1,0,0.3,0,0.4,0c1.5-0.1,2.9-1,4-1.7c0.5-0.3,1.3-0.8,1.6-0.8c0,0-0.1,0-0.1,0
		L-150.4-169.3z"/>
	<g display="inline">
		<path fill="#744D28" d="M-160.1-173.8c0.8,0.5,2,0.9,3.4,1.4c-0.1-0.1-0.2-0.2-0.3-0.2C-158.3-173-159.3-173.4-160.1-173.8z"/>
		<path fill="#744D28" d="M-150.4-169.3c-0.2-0.1-0.3-0.1-0.5-0.2l-0.2-7.3l0.2-1c-0.2,0-0.4-0.1-0.7-0.1l-0.1,0.8l0.2,7.3
			c0.2,0,0.3,0.1,0.5,0.2l-1,1.7c0.1,0,0.1,0,0.1,0c-0.3,0-1.1,0.5-1.6,0.8c-1.1,0.7-2.5,1.5-4,1.7c-0.1,0-0.3,0-0.4,0
			c-0.4,0-0.7-0.1-1-0.2c0.4,0.3,1,0.5,1.7,0.5c0.1,0,0.3,0,0.4,0c1.5-0.1,2.9-1,4-1.7c0.5-0.3,1.3-0.8,1.6-0.8c0,0-0.1,0-0.1,0
			L-150.4-169.3z"/>
	</g>
	<g display="inline">
		<path fill="#AA8561" d="M-161-174.9c-0.4-0.9-0.1-1.6,0.1-1.9c0.7-1.5,4.1-1.8,10-0.7l0.1-0.3c-6.4-1.2-10-1-10.7,0.6
			c-0.1,0.3-0.5,1-0.1,1.9c0.3,0.6,0.9,1.1,1.8,1.6C-160.5-174.1-160.8-174.5-161-174.9z"/>
		<path fill="#AA8561" d="M-158.5-165.3c-0.6-0.5-0.8-1.3-0.8-2.2c0-0.5,0.3-1,0.7-1.4c0.8-0.7,2.2-2,3.3-2.7
			c-0.1-0.1-0.3-0.2-0.4-0.3c-0.1,0-0.2-0.1-0.3-0.1c-1.1,0.8-2.5,2-3.3,2.7c-0.4,0.4-0.7,0.9-0.7,1.4c0,0.9,0.2,1.7,0.8,2.2
			C-159-165.5-158.7-165.3-158.5-165.3C-158.5-165.2-158.5-165.3-158.5-165.3z"/>
	</g>
	<polygon display="inline" fill="#C69C6D" points="-147.8,-237.8 -72.2,-201.4 -143,-143.4 	"/>
	<polygon display="inline" fill="#B18451" points="-143.3,-149.6 -143,-143.4 -72.7,-201 	"/>
	<polygon display="inline" fill="#DCB890" points="-144.3,-233.9 -86.5,-208.3 -147.8,-237.9 -144.1,-164.4 	"/>
	<polygon display="inline" fill="#C69C6D" points="-100.9,-242.8 -80.5,-217.7 -122.2,-225.5 	"/>
	<polygon display="inline" fill="#B18451" points="-111.8,-223.5 -80.5,-217.7 -83.7,-221.7 	"/>
	<polygon display="inline" fill="#DCB890" points="-95.4,-236.1 -100.9,-242.8 -122.2,-225.5 -117.6,-224.6 	"/>
	<path display="inline" fill="#C69C6D" d="M-125.6-128.9c0,7.4-6,10.3-13.4,10.3s-13.4-2.9-13.4-10.3c0-7.4,6-16.4,13.4-16.4
		S-125.6-136.2-125.6-128.9z"/>
	<g display="inline">
		<path fill="#B18451" d="M-130.1-140.6c2.5,3.2,4.1,7.2,4.1,10.9c0,7.4-6.3,10.3-14.2,10.3c-2.8,0-5.5-0.4-7.7-1.2
			c2.4,1.4,5.5,2.1,8.9,2.1c7.4,0,13.4-2.9,13.4-10.3C-125.6-132.8-127.3-137.3-130.1-140.6z"/>
		<path fill="#B18451" d="M-130.3-140.9c-0.1-0.1-0.1-0.1-0.2-0.2C-130.4-141-130.4-140.9-130.3-140.9z"/>
	</g>
	<path display="inline" fill="#DCB890" d="M-149.8-126.1c0-7.4,6-16.4,13.4-16.4c2.6,0,5.1,1.2,7.1,3c-2.4-3.3-5.8-5.7-9.6-5.7
		c-7.4,0-13.4,9.1-13.4,16.4c0,3.6,1.4,6.1,3.7,7.8C-149.3-122.5-149.8-124.1-149.8-126.1z"/>
	
		<ellipse transform="matrix(0.9668 -0.2557 0.2557 0.9668 25.8046 -46.4335)" display="inline" fill="#C69C6D" cx="-165.7" cy="-122.5" rx="5.7" ry="7.7"/>
	<path display="inline" fill="#DCB890" d="M-169.5-119c-1.1-4.1,0.5-8.1,3.6-8.9c1.6-0.4,3.3,0.1,4.7,1.3c-1.5-2.6-4.1-4.1-6.5-3.5
		c-3.1,0.8-4.7,4.8-3.6,8.9c0.5,2,1.5,3.6,2.8,4.7C-168.9-117.2-169.2-118.1-169.5-119z"/>
	<ellipse display="inline" fill="#333333" cx="-154.5" cy="-108.5" rx="3.6" ry="4.9"/>
	<path display="inline" fill="#535353" d="M-156.2-107c0-2.7,1.6-4.9,3.6-4.9c0.2,0,0.4,0,0.7,0.1c-0.7-1-1.6-1.6-2.7-1.6
		c-2,0-3.6,2.2-3.6,4.9c0,2.4,1.3,4.4,3,4.8C-155.8-104.6-156.2-105.8-156.2-107z"/>
	
		<ellipse transform="matrix(0.866 0.5 -0.5 0.866 -71.2893 48.0887)" display="inline" fill="#333333" cx="-125.4" cy="-109" rx="4.6" ry="5.7"/>
	<path display="inline" fill="#535353" d="M-128.2-109.9c1.6-2.7,4.6-3.9,6.8-2.6c0.1,0.1,0.3,0.2,0.4,0.3c-0.3-0.7-0.8-1.3-1.5-1.7
		c-2.2-1.3-5.2-0.1-6.8,2.6c-1.5,2.5-1.1,5.5,0.7,6.9C-129.4-105.9-129.3-108-128.2-109.9z"/>
	
		<ellipse transform="matrix(0.9851 -0.1722 0.1722 0.9851 16.1105 -25.6459)" display="inline" fill="#C69C6D" cx="-139.8" cy="-105.7" rx="6.1" ry="8.3"/>
	<path display="inline" fill="#DCB890" d="M-144-102.1c-0.8-4.5,1.3-8.6,4.6-9.2c1.6-0.3,3.3,0.3,4.6,1.5c-1.4-2.8-3.9-4.5-6.5-4
		c-3.3,0.6-5.4,4.7-4.6,9.2c0.4,2.3,1.5,4.3,2.9,5.5C-143.4-100-143.8-101-144-102.1z"/>
	
		<ellipse transform="matrix(0.99 0.1411 -0.1411 0.99 -17.9066 15.4098)" display="inline" fill="#C69C6D" cx="-117.6" cy="-118.6" rx="2.3" ry="3.1"/>
	<path display="inline" fill="#DCB890" d="M-119.3-118.2c0.2-1.7,1.5-2.9,2.7-2.7c0.3,0,0.6,0.2,0.9,0.4c-0.3-0.6-0.8-1-1.5-1.1
		c-1.3-0.2-2.5,1-2.7,2.7c-0.2,1.2,0.2,2.4,1,3C-119.3-116.5-119.4-117.3-119.3-118.2z"/>
	<g display="inline">
		<path fill="#333333" d="M-133.5-202.7c-0.4-9-6.2-6.6-8.8-2.8c-0.3,0.5-0.9,0.6-1.4,0.3c-0.5-0.3-0.6-0.9-0.3-1.4
			c2.2-3.4,4.9-5.1,7.2-4.5c2.3,0.6,3.9,3.3,4.3,7.4C-132.4-203.2-132.9-202.7-133.5-202.7C-133.4-202.7-133.5-202.7-133.5-202.7z"
			/>
	</g>
	<g display="inline">
		<path d="M-142.4-205.6c-0.3,0.4-0.8,0.6-1.2,0.4c0,0,0,0,0,0c0.5,0.3,1.1,0.1,1.4-0.3c1.5-2.3,4.3-4.1,6.3-3.1
			C-138-209.8-140.8-208-142.4-205.6z"/>
		<path d="M-136-210.9c1.8,1,3.1,3.5,3.3,7c0,0.5-0.3,1-0.8,1.1c0,0,0,0.1,0,0.1c0,0,0.1,0,0.1,0c0.6,0,1-0.5,0.9-1.1
			C-132.8-207.4-134.1-209.9-136-210.9z"/>
	</g>
	<g display="inline">
		<path fill="#535353" d="M-143.6-206.4c2.2-3.4,4.9-5.1,7.2-4.5c0.5,0.1,0.9,0.4,1.4,0.7c-0.5-0.4-1.1-0.8-1.7-0.9
			c-2.3-0.6-5,1.1-7.2,4.5c-0.3,0.5-0.2,1.1,0.3,1.4c0,0,0.1,0,0.1,0C-143.8-205.5-143.9-206-143.6-206.4z"/>
		<path fill="#535353" d="M-135.3-208.2c1,0.9,1.7,2.6,1.8,5.5c0,0,0.1,0,0.1,0c0.1,0,0.2,0,0.2-0.1
			C-133.4-205.8-134.2-207.5-135.3-208.2z"/>
	</g>
	<path display="inline" fill="#F9F3F3" d="M-143.3-194.3c-0.1-0.3-0.3-0.6-0.5-0.8c-0.7-0.6-1.5-0.9-2.3-0.9c-3.7,0-10.5,0-10.5,9.9
		c0,4.2,1.3,10,3.4,15.1c1.3,3.3,4,8.7,7.1,8.7c1.5,0,2.8-1.1,3.2-2.6C-139.3-180.9-142.9-193-143.3-194.3z"/>
	<path display="inline" fill="#E6E6E6" d="M-141.5-183.1c-0.2,5-1.1,11.3-3.9,18.1c-0.4,1-1.4,1.8-2.6,2.1c0.6,0.4,1.2,0.6,1.8,0.6
		c1.5,0,2.8-1.1,3.2-2.6C-141.4-172-141.2-178.2-141.5-183.1z"/>
	<path display="inline" fill="#FFFFFF" d="M-152.1-168.9c-2.1-5.1-3.4-10.8-3.4-15.1c0-9.9,6.9-9.9,10.5-9.9c0.7,0,1.4,0.3,2,0.7
		c-0.2-0.6-0.3-1-0.3-1.2c-0.1-0.3-0.3-0.6-0.5-0.8c-0.7-0.6-1.5-0.9-2.3-0.9c-3.7,0-10.5,0-10.5,9.9c0,4.2,1.3,10,3.4,15.1
		c0.5,1.3,1.2,2.8,2.1,4.3C-151.6-167.6-151.9-168.3-152.1-168.9z"/>
	<path display="inline" fill="#8C6239" d="M-152.3-192.4c-0.1-1.8-0.7-3.6-1.6-5.1c-1.9-3.2-5-4.1-7.8-2.4c-2.9,1.7-3.5,4.9-1.7,8h0
		c1.4,2.4,4.4,5,7.2,5c0.7,0,1.3-0.2,1.9-0.5C-152.9-188.3-152.2-190.1-152.3-192.4z"/>
	<g display="inline">
		<path fill="#744D28" d="M-152.5-193.7c0,0.1,0,0.1,0,0.2C-152.5-193.6-152.5-193.7-152.5-193.7z"/>
		<path fill="#744D28" d="M-152.3-192.4c0-0.1,0-0.2,0-0.3c0.2,2.3-0.6,4.1-2.1,4.9c-0.6,0.4-1.3,0.5-2,0.5c-1.6,0-3.2-0.8-4.6-1.9
			c1.4,1.3,3.2,2.2,4.9,2.2c0.7,0,1.3-0.2,1.9-0.5C-152.9-188.3-152.2-190-152.3-192.4z"/>
	</g>
	<path display="inline" fill="#AA8561" d="M-160.2-197.4c2.4-1.4,5-1,6.9,1.1c-0.2-0.5-0.4-0.9-0.7-1.3c-1.9-3.2-5-4.1-7.8-2.4
		c-2.9,1.7-3.5,4.9-1.7,8h0c0.3,0.5,0.6,1,1,1.4C-163.5-193.3-162.7-195.9-160.2-197.4z"/>
	<path display="inline" fill="#8C6239" d="M-103.5-138.9l2.9-6.4l-41.5-19.1c-1.7-0.8-3.7-0.1-4.6,1.6c-0.9,1.7-0.2,3.8,1.5,4.7
		C-145.1-158-103.5-138.9-103.5-138.9z"/>
	<path display="inline" fill="#AA8561" d="M-142.8-157.1c-1.7-0.9-2.4-3-1.5-4.7c0.7-1.5,2.4-2.2,3.9-1.8l-1.7-0.8
		c-1.7-0.8-3.7-0.1-4.6,1.6c-0.9,1.7-0.2,3.8,1.5,4.7C-145.1-158-142.7-157-142.8-157.1z"/>
	<g display="inline">
		<path fill="#BC4444" d="M-139.7-190c-0.3,0.2-0.6,0.3-0.8,0.2c-2.1-1.3,1.1-7.3,1.2-7.5c0.2-0.3,0.6-0.7,0.9-0.6
			C-133.6-197-141.1-192-139.7-190z"/>
	</g>
	<g display="inline">
		<path fill="#BC4444" d="M-134.8-196.5c0.2-0.1,0.4-0.2,0.6-0.1c1.4,1,0.6,3.9-0.2,4.8c-0.6,0.7-1.4,0.8-1.6,0.8
			C-139.3-191.9-133.9-195-134.8-196.5z"/>
	</g>
	<g display="inline">
		<path fill="#BC4444" d="M-131.8-191.1c-0.1,0.1-0.2-0.3-0.3-0.5c-0.4-1-0.1-2.2,0.4-2.7c0.4-0.5,0.9-0.5,1-0.5
			C-128.6-194.4-132.4-192.1-131.8-191.1z"/>
	</g>
	<polygon display="inline" fill="#C69C6D" points="-23.2,-218.4 69,-218.4 26.5,-140.1 	"/>
	<polygon display="inline" fill="#B18451" points="26.5,-143.6 19.3,-151.4 26.5,-140.1 56,-194.4 	"/>
	<polygon display="inline" fill="#DCB890" points="-18.4,-215.5 56.1,-218.2 -23.2,-218.2 14.8,-158.4 	"/>
	<path display="inline" fill="#BC4444" d="M19.8-195.3c0-0.2-0.2-0.3-0.4-0.3c-0.5,0-1.8,0.2-3.5,0.3c-6.5,0.6-12,5.7-14.3,13
		c-3.9,12.5-8.3,31.4-2.1,39.1c0.4,0.5,1.1,0.3,1.2-0.4c0.5-2.8,1.6-8.7,2.1-8.6c0.7,0.1-0.1,0.6-0.3,7.4c0,0.3-0.3,4.5,0.3,4.1
		c0.7-0.5,1.4-1.3,2.2-2.6c0.3-0.4,0.8-0.3,1,0.2c0.1,0.7,0.3,1,0.5,1.1c0.5,0,1-2.2,1.4-5.8c0.1-1.2,0.4-2.4,0.9-3.5
		c0.3-0.8,0.6-1.7,1-2.6c0.2-0.7,1.1-0.6,1.2,0.1c0.8,3.1,1.6,5,2.1,5c0.9,0,0.8-4.6,0.7-11.2c-0.1-4,0.4-8,1.4-11.8
		C18.3-183,20.3-193.2,19.8-195.3z"/>
	<path display="inline" fill="#C75656" d="M7-180.1c2.1-6.7,7-11.5,12.8-12.7c0.1-1.1,0.1-2,0-2.4c0-0.2-0.2-0.3-0.4-0.3
		c-0.5,0-1.8,0.2-3.5,0.3c-6.5,0.6-12,5.7-14.3,13c-3.9,12.5-8.3,31.4-2.1,39.1c0.4,0.5,1.1,0.3,1.2-0.4c0.3-1.6,0.7-4.2,1.2-6.1
		C1.1-158.7,4.1-171,7-180.1z"/>
	<path display="inline" fill="#8C6239" d="M15.1-193l0.4-0.6c-4.4,0.2-5.3,3.4-5.4,3.6l0.2,0.1c0-0.1,0.8-2,3.8-2.4
		C14.5-192.4,14.9-192.7,15.1-193z"/>
	<path display="inline" fill="#8C6239" d="M15.4-202.3c0.2-0.4,0.1-0.9-0.1-1.2c-1.6-2.6-0.6-4.4-0.5-4.5l-0.2,0
		c-0.1,0.1-2,2.9,0.5,6.4L15.4-202.3z"/>
	<path display="inline" fill="#8C6239" d="M34.2-116.3c0,2.6-0.9,4.6-3.5,4.6s-3.5-2.1-3.5-4.6c0-2.6,0.9-4.6,3.5-4.6
		S34.2-118.9,34.2-116.3z"/>
	<path display="inline" fill="#AFC8CE" d="M19.4-197.3l-29.3-6c-0.5,2.3-1,4.5-1.7,6.5l29.6,4.2c0.5-0.2,0.8-0.3,0.9-0.3
		c-0.4-0.5-0.6-0.9-0.7-1.4c-0.1-1,0.8-1.5,1.6-1.7l0.8-0.2l-0.6-0.5C19.8-196.8,19.6-197,19.4-197.3z"/>
	<path display="inline" fill="#D5E7EB" d="M-11.6-196.7c-0.1,0.2-0.1,0.3-0.2,0.5c-0.1,0.2-0.1,0.3-0.2,0.5l28.6,4.1
		c0.2-0.2,0.4-0.3,0.6-0.4c0.3-0.2,0.5-0.3,0.7-0.4L-11.6-196.7z"/>
	<path display="inline" fill="#F0F5F6" d="M17.9-204c-0.1-0.2-0.1-0.3-0.2-0.6l-26.5-6.6c0,0.2,0,0.3,0,0.5c0,0.2,0,0.3,0,0.5
		l27.2,6.8C18.2-203.5,18-203.8,17.9-204z"/>
	<path display="inline" fill="#8BB3BC" d="M-9.9-203.4C-9.9-203.3-9.9-203.3-9.9-203.4l29.2,6.1c-0.3-0.3-0.5-0.7-0.7-1.1l-28.4-5.8
		C-9.8-203.9-9.8-203.6-9.9-203.4z"/>
	<path display="inline" fill="#8C6239" d="M22.2-202.4c0.7-0.8,1.8-1.5,3.3-2l-0.1-0.3c-1.2,0.4-2.2,0.8-3.1,1.2
		c-0.2,0.1-0.5,0.2-0.7,0.3c-0.2,0.1-0.4,0.2-0.6,0.4l-0.4-0.1c-0.1-0.2-0.2-0.4-0.2-0.6c0-0.2-0.1-0.3-0.1-0.5
		c-0.1-2,1.6-4.6,4.4-6c0,0-6.9,2.9-7,4.9c0,0.2,0,0.3,0,0.4c0,0.2,0.1,0.4,0.2,0.6c0.1,0.2,0.3,0.5,0.5,0.6
		c0.8,0.7,2.1,0.8,2.3,0.8c-1.4,0.9-2.1,1.9-2.2,3c0,0.4,0,0.7,0.2,1.1c0.2,0.4,0.4,0.8,0.7,1.1c0.2,0.2,0.4,0.5,0.6,0.7
		c0.1,0.1,0.3,0.3,0.4,0.4c0.1,0.1,0.1,0.1,0.2,0.2c-0.1,0-0.2,0-0.3,0c-0.2,0-0.3,0.1-0.5,0.1c-0.8,0.2-1.7,0.7-1.6,1.7
		c0,0.4,0.3,0.9,0.7,1.4c-0.1,0-0.4,0.1-0.9,0.3c-0.2,0.1-0.5,0.2-0.7,0.4c-0.2,0.1-0.4,0.3-0.6,0.4c-0.8,0.7-1.7,1.9-2,3.8l0.7-0.3
		c0.4-0.2,0.7-0.5,0.8-0.9c0.3-1.1,0.8-1.9,1.2-2.4c0.2-0.2,0.3-0.3,0.5-0.4c0.2-0.2,0.5-0.3,0.6-0.4c0.3-0.1,0.5-0.2,0.5-0.2l0,0
		c0.1,0.1,0.1,0.1,0.2,0.2c0.1,0.1,0.3,0.3,0.4,0.4c0.1,0.1,0.3,0.3,0.4,0.4c0.7,0.7,1.4,1.1,1.4,1.1c-0.4-0.4-0.9-0.9-1.4-1.4
		c-0.1-0.2-0.3-0.3-0.4-0.5c-0.2-0.2-0.3-0.4-0.4-0.7c-0.2-0.6-0.2-1.3,0.4-1.9c0.2-0.2,0.4-0.3,0.6-0.5c0.2-0.1,0.4-0.2,0.6-0.3
		c0,0,0,0,0,0c0.5,0.3,0.9,0.5,1,0.6l0.1-1.5c0-0.4-0.2-0.8-0.5-1.2c-0.1-0.1-0.1-0.1-0.2-0.2c-0.2-0.2-0.3-0.5-0.3-0.8
		c-0.2-0.8,0-1.7,0.5-2.6C21.7-201.9,21.9-202.1,22.2-202.4z"/>
	<path display="inline" fill="#C69C6D" d="M38.7-119.8c-4.2,0-7.6,4.1-7.6,9h15.2C46.3-115.8,42.9-119.8,38.7-119.8z"/>
	<path display="inline" fill="#8C6239" d="M20.4-136c-1.2,0.8-11.5,8.2-8.9,15.6c0.8,2.2,2.2,2.6,3,2.6c0,0,0,0,0.1,0
		c1.1,0,4.1-0.1,8.9-16l1.7-5.5L20.4-136z"/>
	<path display="inline" fill="#AA8561" d="M12.9-119.7c-1.3-3.8,0.2-8.1,2.2-11.5c-2.6,3-5,6.9-3.6,10.9c0.7,2,1.9,2.5,2.7,2.6
		C13.7-118.2,13.3-118.8,12.9-119.7z"/>
	<path display="inline" fill="#C69C6D" d="M40-123.7c0,7.3-5.9,10.2-13.2,10.2s-13.2-2.9-13.2-10.2c0-7.3,5.9-16.3,13.2-16.3
		S40-131,40-123.7z"/>
	<path display="inline" fill="#BD9261" d="M31.1-111.1c5.6-0.4,10-2.7,11.1-7.6c-0.9-0.6-1.9-1-3-1.1c-1.2,3.1-4,4.9-7.6,5.7
		C31.3-113.1,31.1-112.1,31.1-111.1z"/>
	<path display="inline" fill="#B18451" d="M33.3-137.5c3.4,3.3,5.7,8.4,5.7,12.9c0,7.3-5.9,10.2-13.2,10.2c-3.9,0-7.3-0.8-9.7-2.6
		c2.4,2.4,6.3,3.5,10.7,3.5c7.3,0,13.2-2.9,13.2-10.2C40-128.6,37.3-134.3,33.3-137.5z"/>
	<path display="inline" fill="#DCB890" d="M15.6-122c0-7.3,5.9-16.3,13.2-16.3c2,0,3.8,0.7,5.5,1.8c-2.2-2.1-4.8-3.4-7.6-3.4
		c-7.3,0-13.2,9-13.2,16.3c0,3.9,1.7,6.5,4.4,8.1C16.4-117.2,15.6-119.3,15.6-122z"/>
	<g display="inline">
		<g>
			<path fill="#333333" d="M22.8-120.2c-0.2-0.9-1.3-1.7-1.3-1.7l0-0.1c0.1,0,1.3,0.7,1.5,1.7L22.8-120.2z"/>
		</g>
		<g>
			<g>
				<path fill="#333333" d="M21.7-120.2L21.7-120.2c0.1-1.2,1.3-1.8,1.3-1.9l0.1,0.3C23.1-121.8,21.9-121.2,21.7-120.2z"/>
			</g>
			<path fill="none" stroke="#333333" stroke-width="0.5" stroke-linecap="round" stroke-miterlimit="10" d="M23.6-123
				c0.4,0.4,0.7,1.1,0.7,1.8c0,1.3-0.9,2.4-1.9,2.4c-1.1,0-1.9-1.1-1.9-2.4c0-0.8,0.3-1.4,0.7-1.9"/>
		</g>
	</g>
	<path display="inline" fill="#8C6239" d="M34.5-134.8l-4.2-3.9l0.9,5.7c2.6,16.4,5.5,16.9,6.6,17.1c0.1,0,0.3,0,0.4,0
		c0.8,0,2-0.4,2.9-2.1C44.8-125.1,35.6-133.8,34.5-134.8z"/>
	<path display="inline" fill="#744D28" d="M40.2-127.7c1.1,3.3,1.5,7-0.1,10c-0.5,0.9-1,1.4-1.5,1.7c0.8-0.1,1.7-0.6,2.5-2.1
		C42.7-121.2,41.8-124.7,40.2-127.7z"/>
	<path display="inline" fill="#AA8561" d="M33.4-131.3l-0.8-5.4l-2.2-2l0.9,5.7c2.4,15.6,5.2,16.8,6.4,17.1
		C36.3-117.9,34.8-122.1,33.4-131.3z"/>
	<path display="inline" fill="#D4E1E4" d="M18.7-198.4c-0.1-0.3-0.2-0.7-0.2-1.1c0.1-1.1,0.8-2.1,2.2-3c-0.3,0-1.5-0.2-2.3-0.8
		l-27.2-6.8c-0.2,1.9-0.5,3.9-0.9,5.9L18.7-198.4z"/>
	<path display="inline" fill="#D4E1E4" d="M-8.9-220.7c-0.7-5-2.5-8-5-8.6c-2.5-0.5-5.3,1.6-8,5.9c-1.4,2.3-2.7,5.1-3.8,8.3l0.5,0.2
		l0.5,0.2l3.8,1.2l0,0c2.1,0.6,3.1,4.3,2.3,8.4c-0.8,4.1-3.2,7.1-5.4,6.8l0,0l-4-0.4l-0.5,0l-0.5,0c-0.7,9.6,1.3,16.8,5.2,17.7
		c0.2,0.1,0.5,0.1,0.7,0.1c2.3,0,4.8-2.1,7.2-6c1.5-2.4,2.8-5.4,3.9-8.8c0.1-0.2,0.1-0.3,0.2-0.5c0.1-0.2,0.1-0.3,0.2-0.5
		c0.7-2.1,1.2-4.3,1.7-6.5c0,0,0-0.1,0-0.1c0.1-0.3,0.1-0.6,0.2-0.9c0.4-2,0.7-4,0.9-5.9c0-0.2,0-0.3,0-0.5c0-0.2,0-0.3,0-0.5
		C-8.5-214.6-8.5-217.9-8.9-220.7z"/>
	<path display="inline" fill="#BC4444" d="M18.4-147.9c0.1,4.3-0.5,5-1.3,5c-0.8,0-1.5-0.6-1.6-4.9c-0.1-4.3,0.4-10.5,1.2-10.5
		C17.5-158.4,18.3-152.2,18.4-147.9z"/>
	<path display="inline" fill="#BC4444" d="M22.7-184.2c0,1.7-0.6,2-1.4,2c-0.8,0-1.4-0.2-1.5-2c0-1.7,0.5-4.2,1.3-4.3
		C21.9-188.4,22.6-186,22.7-184.2z"/>
	<path display="inline" fill="#BC4444" d="M12.3-141.3c0,1-0.4,1.2-0.8,1.2s-0.9-0.1-0.9-1.2c0-1-0.3-2.6,0.2-2.6
		C11.3-143.9,12.3-142.4,12.3-141.3z"/>
	<path display="inline" fill="#BC4444" d="M-3.2-168.8c-1.7,5.3-2.3,6.1-2.8,5.9s-0.6-1.1,1.1-6.4s4.5-13,4.9-12.9
		C0.5-182.1-1.5-174.1-3.2-168.8z"/>
	<path display="inline" fill="#8C6239" d="M192.4-117.8c0,2.5-0.9,4.5-3.4,4.5c-2.5,0-3.4-2-3.4-4.5c0-2.5,0.9-4.5,3.4-4.5
		C191.5-122.2,192.4-120.2,192.4-117.8z"/>
	<path display="inline" fill="#F9F3F3" d="M199.1-171.2c0,7-5.7,9.8-12.7,9.8s-12.7-2.8-12.7-9.8s5.7-15.7,12.7-15.7
		S199.1-178.2,199.1-171.2z"/>
	<path display="inline" fill="#E6E6E6" d="M195.2-181.9c2.1,3,3.4,6.7,3.4,10c0,7-5.7,9.8-12.7,9.8c-4.5,0-8.5-1.2-10.8-3.8
		c2.1,3.2,6.4,4.6,11.3,4.6c7,0,12.7-2.8,12.7-9.8C199.2-174.7,197.7-178.8,195.2-181.9z"/>
	<path display="inline" fill="#FFFFFF" d="M174.7-169.5c0-7,5.7-15.7,12.7-15.7c3.7,0,7,2.3,9.3,5.6c-2.3-4.1-6.1-7.4-10.4-7.4
		c-7,0-12.7,8.6-12.7,15.7c0,2.5,0.7,4.5,2,6C175-166.5,174.7-167.9,174.7-169.5z"/>
	<path display="inline" fill="#8C6239" d="M186.4-194.6c-5,0-8,2.2-8,5.9c0,3.8,3.5,8.2,8,8.2s8-4.4,8-8.2
		C194.4-192.4,191.4-194.6,186.4-194.6z"/>
	<path display="inline" fill="#744D28" d="M190.7-193.9c1.9,1,3,2.6,3,4.8c0,3.8-3.5,8.2-8,8.2c-0.9,0-1.7-0.2-2.5-0.5
		c1,0.5,2.1,0.8,3.3,0.8c4.5,0,8-4.4,8-8.2C194.4-191.2,193.1-193,190.7-193.9z"/>
	<path display="inline" fill="#AA8561" d="M179.4-187.9c0-3.7,3-5.9,8-5.9c2.2,0,4.1,0.4,5.4,1.2c-1.4-1.4-3.6-2.1-6.6-2.1
		c-5,0-8,2.2-8,5.9c0,2.5,1.6,5.3,4,6.9C180.5-183.4,179.4-185.8,179.4-187.9z"/>
	<path display="inline" fill="#C69C6D" d="M194.1-115.9c-2.2,0-4,7.1-4,15.9h7.9C198.1-108.8,196.3-115.9,194.1-115.9z"/>
	<path display="inline" fill="#B18451" d="M195.5-115c1.4,2.4,2.4,8.1,2.4,14.6l-4.9,0.4h5.2C198.1-107,197-112.9,195.5-115z"/>
	<path display="inline" fill="#DCB890" d="M195-115.5c-0.3-0.3-0.6-0.5-1-0.5c-2.2,0-4,7.1-4,15.9h1.2
		C191.3-108.3,193-115,195-115.5z"/>
	<path display="inline" fill="#8C6239" d="M213.2-130c0-3.5-1.8-6.4-4.1-6.4c-1.6,0-3,1.4-3.6,3.5c-1.9-1.1-4.4-2.3-7.6-3.7
		l-5.2-2.3l2.7,5.1c0.6,1.1,5.8,10.5,12.5,10.5c0.5,0,1-0.1,1.6-0.2c2.1-0.5,2.7-1.6,2.8-2.4C212.8-127,213.2-128.4,213.2-130z"/>
	<path display="inline" fill="#C69C6D" d="M201.8-124.9c0,7-5.7,9.8-12.7,9.8s-12.7-2.8-12.7-9.8c0-7,5.7-15.7,12.7-15.7
		S201.8-131.9,201.8-124.9z"/>
	<path display="inline" fill="#B18451" d="M197.3-136.4c2.2,3,3.6,6.8,3.6,10.2c0,7-5.7,9.8-12.7,9.8c-4.3,0-8-1-10.3-3.4
		c2.1,3.3,6.4,4.6,11.3,4.6c7,0,12.7-2.8,12.7-9.8C201.9-128.8,200.1-133.2,197.3-136.4z"/>
	<path display="inline" fill="#DCB890" d="M178.2-123.2c0-7,5.7-15.7,12.7-15.7c2.2,0,4.2,0.8,6,2.2c-2.2-2.3-4.9-3.9-7.9-3.9
		c-7,0-12.7,8.6-12.7,15.7c0,3.5,1.4,6,3.8,7.6C178.9-118.8,178.2-120.7,178.2-123.2z"/>
	<path display="inline" fill="#744D28" d="M205.8-133c0,0.1-0.1,0.1-0.1,0.2c-1.9-1.1-4.4-2.3-7.6-3.7l-1.3-0.6c3,3,5,7.4,5.2,11.4
		c1.8,1.4,3.8,2.4,6,2.4c0,0,0,0,0.1,0c0.1-0.4,0.1-0.9,0.1-1.4C208.1-127.3,207.3-130.3,205.8-133z"/>
	<g display="inline">
		<path fill="#333333" d="M189.6-121.4c-0.2-0.9-1.5-1.6-1.5-1.6l0-0.1c0.1,0,1.5,0.6,1.8,1.6L189.6-121.4z"/>
	</g>
	<g display="inline">
		<path fill="#333333" d="M188.3-121.5l-0.1,0c0.2-1.2,1.7-1.7,1.7-1.8l0.1,0.3C190-123,188.5-122.5,188.3-121.5z"/>
	</g>
	<path display="inline" fill="none" stroke="#333333" stroke-width="0.5" stroke-linecap="round" stroke-miterlimit="10" d="
		M190.6-124.2c0.5,0.4,0.8,1,0.8,1.7c0,1.3-1,2.3-2.3,2.3c-1.3,0-2.3-1-2.3-2.3c0-0.7,0.3-1.4,0.9-1.8"/>
	<path display="inline" fill="#EC5A5A" d="M195.8-141.4h-16.9c-0.6,0-1-0.4-1-1v-28.9c0-3.8,3.1-7,7-7h4.9c3.8,0,7,3.1,7,7v28.9
		C196.8-141.9,196.3-141.4,195.8-141.4z"/>
	<path display="inline" fill="#8C6239" d="M195.8-140.4h-16.9c-1.1,0-2-0.9-2-2v-28.9c0-4.4,3.6-8,8-8h4.9c4.4,0,8,3.6,8,8v28.9
		C197.8-141.3,196.9-140.4,195.8-140.4z M184.9-177.3c-3.3,0-6,2.7-6,6v28.9h16.9l0-28.9c0-3.3-2.7-6-6-6H184.9z"/>
	<g display="inline">
		<path fill="#AA8561" d="M195.8-171.3l0,28.9H180v0.5h16.9l0-28.9c0-2.7-1.7-4.9-4.1-5.7C194.6-175.5,195.8-173.5,195.8-171.3z"/>
		<path fill="#AA8561" d="M178-141.9v-28.9c0-4.4,3.6-8,8-8h4.9c0.9,0,1.9,0.2,2.7,0.5c-1.1-0.6-2.4-1-3.8-1h-4.9c-4.4,0-8,3.6-8,8
			v28.9c0,1,0.8,1.9,1.8,2C178.3-140.8,178-141.3,178-141.9z"/>
	</g>
	<path display="inline" fill="#333333" d="M180.3-124.9c-2.5,0.5-3.3,7.1-1.6,14.7l9.2-2C186.3-119.7,182.9-125.4,180.3-124.9z"/>
	<path display="inline" fill="#535353" d="M181.1-123.9c0.8-0.2,1.8,0.3,2.7,1.3c-1.2-1.6-2.4-2.5-3.4-2.3
		c-2.5,0.5-3.3,7.1-1.6,14.7l0.5-0.1C177.9-117.4,178.7-123.4,181.1-123.9z"/>
	<path display="inline" fill="#8C6239" d="M188-136.4l-5.4-1.9l3.1,4.8c7.2,11.3,10.3,12.7,11.8,12.7c0.3,0,0.5-0.1,0.7-0.1
		c0.8-0.2,2.1-0.9,2.2-3.2C200.8-131.7,189.3-135.9,188-136.4z"/>
	<path display="inline" fill="#744D28" d="M195.6-132.3c2.3,2,4.1,4.5,3.9,7.6c-0.2,2.4-1.5,3-2.2,3.2c-0.2,0-0.4,0.1-0.7,0.1
		c-0.5,0-1.3-0.2-2.4-1c1.6,1.4,2.6,1.7,3.3,1.7c0.3,0,0.5-0.1,0.7-0.1c0.8-0.2,2.1-0.9,2.2-3.2
		C200.5-127.5,198.2-130.3,195.6-132.3z"/>
	<path display="inline" fill="#AA8561" d="M187-132.5l-3.1-4.8l5.4,1.9c0.6,0.2,3.6,1.3,6.5,3.2c-3.3-2.6-7.4-4.1-8.1-4.4l-5.4-1.9
		l3.1,4.8c5.2,8.1,8.3,11.1,10.1,12.2C193.6-123.1,190.9-126.3,187-132.5z"/>
	<path display="inline" fill="#F9F3F3" d="M353.2-168.2c0,7.4-6,10.3-13.4,10.3s-13.4-2.9-13.4-10.3s6-16.4,13.4-16.4
		S353.2-175.6,353.2-168.2z"/>
	<path display="inline" fill="#E6E6E6" d="M341-184.4c5.8,2.1,10.2,9.6,10.2,15.9c0,7.4-6,10.3-13.4,10.3c-1.5,0-3-0.1-4.4-0.4
		c1.9,0.6,4.1,0.9,6.4,0.9c7.4,0,13.4-2.9,13.4-10.3C353.2-175.1,347.8-183.5,341-184.4z"/>
	<path display="inline" fill="#FFFFFF" d="M328.7-166.7c0-7.4,6-16.4,13.4-16.4c1.5,0,3,0.4,4.3,1.1c-2-1.6-4.2-2.6-6.7-2.6
		c-7.4,0-13.4,9.1-13.4,16.4c0,4.4,2.1,7.2,5.4,8.7C329.8-161.1,328.7-163.4,328.7-166.7z"/>
	<path display="inline" fill="#8C6239" d="M339.9-194.6c-5.2,0-8.3,2.3-8.3,6.1c0,3.9,3.6,8.5,8.3,8.5s8.3-4.6,8.3-8.5
		C348.2-192.3,345.1-194.6,339.9-194.6z"/>
	<path display="inline" fill="#744D28" d="M346.3-192.7c0.6,0.9,0.9,1.9,0.9,3.2c0,3.9-3.6,8.5-8.3,8.5c-2.1,0-4-0.9-5.4-2.3
		c1.5,1.9,3.8,3.3,6.4,3.3c4.7,0,8.3-4.6,8.3-8.5C348.2-190.3,347.5-191.7,346.3-192.7z"/>
	<path display="inline" fill="#AA8561" d="M332.7-187.6c0-3.8,3.1-6.1,8.3-6.1c2.3,0,4.3,0.5,5.7,1.3c-1.4-1.4-3.7-2.2-6.8-2.2
		c-5.2,0-8.3,2.3-8.3,6.1c0,2.6,1.6,5.5,4.1,7.2C333.8-183,332.7-185.4,332.7-187.6z"/>
	<path display="inline" fill="#EC5A5A" d="M340.8-171.2c-8.9,0-15.8-3.4-19.7-8.5c-0.7-0.9-2.2-0.5-2.3,0.7
		c-0.1,0.4-0.1,0.9-0.1,1.3c0,8.2,9.6,13.2,21.5,13.2s21.5-5,21.5-13.2l0,0c0-1.1-1.4-1.7-2.2-0.9
		C355.4-174.1,349-171.2,340.8-171.2z"/>
	<path display="inline" fill="#8C6239" d="M340.3-163.4c-13.2,0-22.5-5.9-22.5-14.2c0-0.5,0-1,0.1-1.4c0.1-0.9,0.8-1.7,1.7-2
		c0.9-0.2,1.8,0.1,2.4,0.8c4,5.1,10.9,8.1,18.9,8.1c7.3,0,13.7-2.5,18-7c0.6-0.7,1.6-0.9,2.5-0.5c0.9,0.3,1.4,1.2,1.4,2.1
		C362.8-169.2,353.5-163.4,340.3-163.4z M320.2-179.1C320.1-179.1,320.1-179.1,320.2-179.1c-0.2,0-0.3,0.1-0.3,0.3
		c-0.1,0.4-0.1,0.8-0.1,1.2c0,7.2,8.4,12.2,20.5,12.2s20.5-5,20.5-12.2c0-0.1-0.1-0.2-0.2-0.3c-0.1,0-0.2,0-0.3,0.1
		c-4.7,4.9-11.6,7.7-19.5,7.7c-8.6,0-16.1-3.2-20.5-8.9C320.3-179,320.3-179.1,320.2-179.1z"/>
	<g display="inline">
		<path fill="#AA8561" d="M340.6-164.4c12.1,0,20.5-5,20.5-12.2c0-0.1-0.1-0.2-0.2-0.3c-0.1,0-0.2,0-0.3,0.1
			c-0.6,6.8-8.8,11.4-20.4,11.4c-10,0-17.5-3.5-19.8-8.7C322.2-168.3,330-164.4,340.6-164.4z"/>
		<path fill="#AA8561" d="M318.1-176.7c0-0.5,0-1,0.1-1.4c0.1-0.9,0.8-1.7,1.7-2c0.9-0.2,1.8,0.1,2.4,0.8c4,5.1,10.9,8.1,18.9,8.1
			c7.3,0,13.7-2.5,18-7c0.6-0.7,1.6-0.9,2.5-0.5c0.4,0.2,0.8,0.4,1,0.8c-0.1-0.8-0.6-1.5-1.4-1.8c-0.9-0.3-1.8-0.1-2.5,0.5
			c-4.3,4.5-10.7,7-18,7c-8,0-14.9-2.9-18.9-8.1c-0.6-0.7-1.5-1-2.4-0.8c-0.9,0.3-1.6,1-1.7,2c-0.1,0.5-0.1,1-0.1,1.4
			c0,1.6,0.3,3.1,1,4.5C318.4-174.3,318.1-175.5,318.1-176.7z"/>
	</g>
	<g display="inline">
		<path fill="#29ABE2" d="M323.2-170.1c0,0,5.7,4.9,16.5,4.9C350.6-165.2,321.8-174.8,323.2-170.1z"/>
	</g>
	<g display="inline">
		<path fill="#29ABE2" d="M327.9-161.7c0,1.2-0.8,2.1-1.9,2.1c-1,0-1.9-0.9-1.9-2.1s0.8-7.1,1.9-7.1
			C327-168.8,327.9-162.9,327.9-161.7z"/>
	</g>
	<path display="inline" fill="#4CC7F2" d="M325-160.9c0-1.2,0.8-6.5,1.7-7c-0.2-0.6-0.5-0.9-0.7-0.9c-1,0-1.9,5.9-1.9,7.1
		c0,0.9,0.5,1.7,1.1,2C325.1-160.1,325-160.5,325-160.9z"/>
	<path display="inline" fill="#8C6239" d="M353.4-131.4c-5.7-15.8-8.7-15.7-9.8-15.6c-0.8,0-2.2,0.4-2.9,2.7
		c-2.2,7.7,8.6,14.5,9.8,15.3l4.9,3L353.4-131.4z"/>
	<path display="inline" fill="#8C6239" d="M344.2-148.2c-0.6,0-1.1,0.1-1.6,0.2c-0.3,0-0.6,0.1-1,0.3c-1.9,0.8-3.3,2.4-3.8,4.4
		c-1.4,2.3-3.1,5.6-5.1,10.5l-2.2,5.3l5-2.8c0.6-0.4,3.8-2.2,6.6-5c0.7,0.2,1.4,0.4,2.1,0.4c3.7,0,6.7-3,6.7-6.7
		S347.8-148.2,344.2-148.2z"/>
	<path display="inline" fill="#744D28" d="M352.7-133.4c-0.8-2.2-1.6-4.1-2.3-5.6c-1,2.4-3.4,4.1-6.2,4.1c-0.2,0-0.4,0-0.6-0.1
		c1.1,1.4,2.4,2.5,3.6,3.5c0.3,0,0.5,0.1,0.8,0.1C349.8-131.4,351.5-132.1,352.7-133.4z"/>
	<path display="inline" fill="#AA8561" d="M333.7-132.4c2-4.9,3.7-8.3,5.1-10.5c0.5-2,2-3.6,3.8-4.4c0.4-0.2,0.7-0.3,1-0.3
		c0.5-0.1,1-0.2,1.6-0.2c0.5,0,1.1,0.1,1.6,0.2c-0.8-0.4-1.7-0.6-2.7-0.6c-0.6,0-1.1,0.1-1.6,0.2c-0.3,0-0.6,0.1-1,0.3
		c-1.9,0.8-3.3,2.4-3.8,4.4c-1.4,2.3-3.1,5.6-5.1,10.5l-2.2,5.3l1.7-0.9L333.7-132.4z"/>
	<path display="inline" fill="#744D28" d="M347.8-147.1c1.1,1.2,1.8,2.8,1.8,4.5c0,3.7-3,6.7-6.7,6.7c-0.7,0-1.5-0.1-2.1-0.4
		c-2.5,2.5-5.3,5.6-6.3,6.5l0.9-0.5c0.6-0.4,3.8-2.2,6.6-5c0.7,0.2,1.4,0.4,2.1,0.4c3.7,0,6.7-3,6.7-6.7
		C350.8-143.8,349.6-145.9,347.8-147.1z"/>
	<path display="inline" fill="#535353" d="M-291.5-299.6c-0.2,0-0.4,0-0.7,0c-5,0-9.1,4.1-9.1,9.1h1.3
		C-300-295.3-296.3-299.3-291.5-299.6z"/>
	<path display="inline" fill="#BD9261" d="M-256.7-299.6c-0.4-0.1-0.8-0.1-1.3-0.1c-5,0-9.1,4.1-9.1,9.1h3.1
		C-264-294.9-260.8-298.7-256.7-299.6z"/>
	<path display="inline" fill="#BD9261" d="M361.5-117.6c-0.4-0.1-0.8-0.1-1.3-0.1c-5,0-9.1,4.1-9.1,9.1h3.1
		C354.2-113,357.3-116.7,361.5-117.6z"/>
	<path display="inline" fill="#BD9261" d="M-104.7-299.6c-0.4-0.1-0.8-0.1-1.3-0.1c-5,0-9.1,4.1-9.1,9.1h3.1
		C-112-295-108.9-298.7-104.7-299.6z"/>
	<polygon display="inline" fill="#F6F3F0" points="-94.8,-383.4 -96.7,-389.6 -101.9,-391.4 -96.7,-393.3 -94.8,-399.4 -93,-393.3 
		-87.8,-391.4 -93,-389.6 	"/>
	<polygon display="inline" fill="#F6F3F0" points="201.3,-395.6 202.8,-390.7 206.9,-389.2 202.8,-387.7 201.3,-382.8 199.8,-387.7 
		195.7,-389.2 199.8,-390.7 	"/>
	<path display="inline" fill="#FFFFFF" d="M-138.9-350.9c0-7.4,6-16.4,13.4-16.4c4.2,0,8,3,10.4,6.9c-2.4-4.5-6.5-8.1-11.1-8.1
		c-7.4,0-13.4,9.1-13.4,16.4c0,2.3,0.6,4.2,1.6,5.7C-138.5-347.7-138.9-349.2-138.9-350.9z"/>
	<path display="inline" fill="#FFFFFF" d="M12.9-351.1c0-7.4,6-16.4,13.4-16.4c4.2,0,8,3,10.4,6.9c-2.4-4.5-6.5-8.1-11.1-8.1
		c-7.4,0-13.4,9.1-13.4,16.4c0,2.3,0.6,4.2,1.6,5.7C13.2-347.8,12.9-349.3,12.9-351.1z"/>
	<path display="inline" fill="#E6E6E6" d="M-116.9-363.3c1.8,2.9,2.9,6.4,2.9,9.5c0,7.4-6,10.3-13.4,10.3c-4.6,0-8.7-1.1-11.1-3.8
		c2.1,3.8,6.8,5.4,12.2,5.4c7.4,0,13.4-2.9,13.4-10.3C-112.8-355.9-114.4-360.1-116.9-363.3z"/>
	<path display="inline" fill="#E6E6E6" d="M34.9-363.3c1.8,2.9,2.9,6.4,2.9,9.5c0,7.4-6,10.3-13.4,10.3c-4.6,0-8.7-1.1-11.1-3.8
		c2.1,3.8,6.8,5.4,12.2,5.4c7.4,0,13.4-2.9,13.4-10.3C39-355.9,37.4-360.1,34.9-363.3z"/>
	<path display="inline" fill="#8C6239" stroke="#8C6239" stroke-width="4" stroke-miterlimit="10" d="M-132.5-370.5
		c0-2.9,2.8-4.1,6.3-4.1c3.5,0,6.3,1.1,6.3,4.1s-2.8,6.5-6.3,6.5C-129.6-364-132.5-367.6-132.5-370.5z"/>
	<path display="inline" fill="#744D28" d="M-120.3-375.1c1.2,1,1.8,2.4,1.8,4.1c0,3.9-3.6,8.5-8.3,8.5c-1.6,0-3.1-0.5-4.3-1.4
		c1.4,1.1,3.1,1.9,5,1.9c4.7,0,8.3-4.6,8.3-8.5C-117.8-372.5-118.7-374.1-120.3-375.1z"/>
	<path display="inline" fill="#AA8561" d="M-132.9-369.8c0-3.8,3.1-6.1,8.3-6.1c1.5,0,2.8,0.2,3.9,0.5c-1.4-0.8-3.2-1.2-5.5-1.2
		c-5.2,0-8.3,2.3-8.3,6.1c0,3.3,2.6,7.1,6.3,8.2C-131-363.9-132.9-367-132.9-369.8z"/>
	<path display="inline" fill="#BD9261" d="M-113.7-314.4c1.9,3,3,6.5,3,9.7c0,7.4-6,10.3-13.4,10.3c-4.8,0-9-1.2-11.3-4.1
		c2.1,3.7,6.7,5.2,12.1,5.2c7.4,0,13.4-2.9,13.4-10.3C-110-307.2-111.4-311.2-113.7-314.4z"/>
	<path display="inline" fill="#DCB890" d="M-135.8-302.8c0-7.4,6-16.4,13.4-16.4c2.7,0,5.1,1.2,7.2,3c-2.2-2.3-5-3.9-8.1-3.9
		c-7.4,0-13.4,9.1-13.4,16.4c0,3.3,1.2,5.7,3.1,7.3C-135-297.9-135.8-300-135.8-302.8z"/>
	<g display="inline">
		<path fill="#333333" d="M-122.8-300c-0.2-0.9-1.6-1.7-1.6-1.7l0-0.1c0.1,0,1.6,0.7,1.8,1.7L-122.8-300z"/>
	</g>
	<g display="inline">
		<path fill="#333333" d="M-124.1-300.1l-0.1,0c0.2-1.2,1.7-1.8,1.8-1.9l0.1,0.3C-122.3-301.6-123.9-301.1-124.1-300.1z"/>
	</g>
	<g display="inline">
		<path fill="#333333" d="M-123.4-298.4c-1.5,0-2.7-1.2-2.7-2.7c0-0.8,0.4-1.6,1-2.1c0.1-0.1,0.3-0.1,0.4,0c0.1,0.1,0.1,0.3,0,0.4
			c-0.5,0.4-0.8,1-0.8,1.7c0,1.2,1,2.2,2.2,2.2s2.2-1,2.2-2.2c0-0.6-0.3-1.2-0.7-1.6c-0.1-0.1-0.1-0.2,0-0.4c0.1-0.1,0.2-0.1,0.4,0
			c0.6,0.5,0.9,1.2,0.9,2C-120.7-299.6-121.9-298.4-123.4-298.4z"/>
	</g>
	<path display="inline" fill="#BD9261" d="M37.9-314.4c1.9,3,3,6.5,3,9.7c0,7.4-6,10.3-13.4,10.3c-4.8,0-9-1.2-11.3-4.1
		c2.1,3.7,6.7,5.2,12.1,5.2c7.4,0,13.4-2.9,13.4-10.3C41.7-307.2,40.3-311.2,37.9-314.4z"/>
	<path display="inline" fill="#DCB890" d="M15.9-302.8c0-7.4,6-16.4,13.4-16.4c2.7,0,5.1,1.2,7.2,3c-2.2-2.3-5-3.9-8.1-3.9
		C21-320.1,15-311,15-303.6c0,3.3,1.2,5.7,3.1,7.3C16.7-297.9,15.9-300,15.9-302.8z"/>
	<g display="inline">
		<path fill="#333333" d="M28.9-300c-0.2-0.9-1.6-1.7-1.6-1.7l0-0.1c0.1,0,1.6,0.7,1.8,1.7L28.9-300z"/>
	</g>
	<g display="inline">
		<path fill="#333333" d="M27.5-300.1l-0.1,0c0.2-1.2,1.7-1.8,1.8-1.9l0.1,0.3C29.3-301.6,27.7-301.1,27.5-300.1z"/>
	</g>
	<g display="inline">
		<path fill="#333333" d="M28.3-298.4c-1.5,0-2.7-1.2-2.7-2.7c0-0.8,0.4-1.6,1-2.1c0.1-0.1,0.3-0.1,0.4,0c0.1,0.1,0.1,0.3,0,0.4
			c-0.5,0.4-0.8,1-0.8,1.7c0,1.2,1,2.2,2.2,2.2s2.2-1,2.2-2.2c0-0.6-0.3-1.2-0.7-1.6c-0.1-0.1-0.1-0.2,0-0.4c0.1-0.1,0.2-0.1,0.4,0
			c0.6,0.5,0.9,1.2,0.9,2C31-299.6,29.8-298.4,28.3-298.4z"/>
	</g>
	<g display="inline">
		<g>
			<path fill="#333333" d="M335.9-306c-0.2-0.9-1.6-1.7-1.6-1.7l0-0.1c0.1,0,1.6,0.7,1.8,1.7L335.9-306z"/>
		</g>
		<g>
			<path fill="#333333" d="M334.5-306l-0.1,0c0.2-1.2,1.7-1.8,1.8-1.9l0.1,0.3C336.3-307.6,334.7-307.1,334.5-306z"/>
		</g>
		<g>
			<path fill="#333333" d="M335.3-304.4c-1.5,0-2.7-1.2-2.7-2.7c0-0.8,0.4-1.6,1-2.1c0.1-0.1,0.3-0.1,0.4,0c0.1,0.1,0.1,0.3,0,0.4
				c-0.5,0.4-0.8,1-0.8,1.7c0,1.2,1,2.2,2.2,2.2s2.2-1,2.2-2.2c0-0.6-0.3-1.2-0.7-1.6c-0.1-0.1-0.1-0.2,0-0.4c0.1-0.1,0.2-0.1,0.4,0
				c0.6,0.5,0.9,1.2,0.9,2C338-305.6,336.8-304.4,335.3-304.4z"/>
		</g>
	</g>
	<path display="inline" fill="#AA8561" d="M-149.6-322.4c-0.3-0.7-0.4-1.5-0.4-2.3c0-3.7,3-6.7,6.7-6.7c1.8,0,3.4,0.7,4.6,1.8
		c-1.2-1.7-3.2-2.8-5.4-2.8c-3.7,0-6.7,3-6.7,6.7c0,0.8,0.2,1.6,0.4,2.3c0.4,1.8,1.4,3.3,2.7,4.7
		C-148.6-319.8-149.3-321-149.6-322.4z"/>
	<path display="inline" fill="#F6F3F0" d="M37.1-352.6c0,0-0.1,0-0.1,0c-0.6-3.2-3.4-5.5-6.8-5.5c-1.7,0-3.2,0.6-4.4,1.6
		c-0.6-0.4-1.3-0.7-2-0.7c-1.3,0-2.5,0.8-3,1.9c-0.4-0.1-0.9-0.2-1.3-0.2c-3.1,0-5.6,2.4-5.7,5.5c0,0,0,0,0,0
		c-2.4,0-4.3,1.9-4.3,4.3c0,2.4,1.9,4.3,4.3,4.3c0.3,0,0.7,0,1-0.1c0.8,0.9,2,1.5,3.3,1.5c0.6,0,1.1-0.1,1.6-0.3
		c1,1.2,2.5,1.9,4.2,1.9c1.8,0,3.4-0.9,4.5-2.2c0.6,0.3,1.2,0.5,1.9,0.5c1.6,0,3-0.9,3.7-2.3c0.9,0.6,2,1,3.2,1
		c3.1,0,5.6-2.5,5.6-5.6C42.7-350.1,40.2-352.6,37.1-352.6z"/>
	<g display="inline">
		<path fill="#FFFFFF" d="M40.7-349.2c0,0,0.1,0,0.1,0c0.4,0,0.8,0,1.2,0.1c-0.5-1.3-1.5-2.3-2.7-2.9
			C40-351.2,40.5-350.2,40.7-349.2z"/>
		<path fill="#FFFFFF" d="M13.1-342.3c0-2.4,1.9-4.3,4.3-4.3c0,0,0,0,0,0c0.1-3.1,2.6-5.5,5.7-5.5c0.5,0,0.9,0.1,1.3,0.2
			c0.5-1.1,1.7-1.9,3-1.9c0.8,0,1.4,0.3,2,0.7c1.2-1,2.7-1.6,4.4-1.6c0.8,0,1.5,0.1,2.1,0.4c-1.2-2.2-3.5-3.8-6.1-3.8
			c-1.7,0-3.2,0.6-4.4,1.6c-0.6-0.4-1.3-0.7-2-0.7c-1.3,0-2.5,0.8-3,1.9c-0.4-0.1-0.9-0.2-1.3-0.2c-3.1,0-5.6,2.4-5.7,5.5
			c0,0,0,0,0,0c-2.4,0-4.3,1.9-4.3,4.3c0,2.3,1.8,4.2,4.1,4.3C13.1-341.7,13.1-342,13.1-342.3z"/>
	</g>
	<path display="inline" fill="#E6E6E6" d="M40.1-351.7c0.7,0.9,1.2,2.1,1.2,3.4c0,3.1-2.5,5.6-5.6,5.6c-1.2,0-2.3-0.4-3.2-1
		c-0.7,1.4-2.1,2.3-3.7,2.3c-0.7,0-1.4-0.2-1.9-0.5c-1,1.3-2.6,2.2-4.5,2.2c-1.7,0-3.2-0.7-4.2-1.9c-0.5,0.2-1,0.3-1.6,0.3
		c-0.4,0-0.8,0.1-1.3,0.3c0.7,0.4,1.5,0.7,2.3,0.7c0.6,0,1.1-0.1,1.6-0.3c1,1.2,2.5,1.9,4.2,1.9c1.8,0,3.4-0.9,4.5-2.2
		c0.6,0.3,1.2,0.5,1.9,0.5c1.6,0,3-0.9,3.7-2.3c0.9,0.6,2,1,3.2,1c3.1,0,5.6-2.5,5.6-5.6C42.2-349,41.4-350.6,40.1-351.7z"/>
	<path display="inline" fill="#8C6239" stroke="#8C6239" stroke-width="4" stroke-miterlimit="10" d="M19.2-370.5
		c0-2.9,2.8-4.1,6.3-4.1s6.3,1.1,6.3,4.1S29-364,25.5-364S19.2-367.6,19.2-370.5z"/>
	<path display="inline" fill="#744D28" d="M31.4-375.1c1.2,1,1.8,2.4,1.8,4.1c0,3.9-3.6,8.5-8.3,8.5c-1.6,0-3.1-0.5-4.3-1.4
		c1.4,1.1,3.1,1.9,5,1.9c4.7,0,8.3-4.6,8.3-8.5C33.9-372.5,33-374.1,31.4-375.1z"/>
	<path display="inline" fill="#AA8561" d="M18.7-369.8c0-3.8,3.1-6.1,8.3-6.1c1.5,0,2.8,0.2,3.9,0.5c-1.4-0.8-3.2-1.2-5.5-1.2
		c-5.2,0-8.3,2.3-8.3,6.1c0,3.3,2.6,7.1,6.3,8.2C20.6-363.9,18.7-367,18.7-369.8z"/>
	<path display="inline" fill="#8C6239" d="M349-379.5c2.3,16.7-3,38.6-12.9,39.9c-9.9,1.4-20.8-18.3-23.1-35s4.9-24.3,14.9-25.6
		C337.8-401.5,346.7-396.2,349-379.5z"/>
	<path display="inline" fill="#744D28" d="M348.9-379.5c-1.3-9.7-4.9-15.6-9.6-18.6c4.3,3.1,7.6,8.8,8.9,18.1
		c2.3,16.7-3,38.6-12.9,39.9c-2,0.3-4.1-0.3-6.1-1.6c2.3,1.6,4.6,2.4,6.9,2.1C346-340.9,351.2-362.8,348.9-379.5z"/>
	<path display="inline" fill="#AA8561" d="M313.9-373.7c-2.3-16.7,4.9-24.3,14.9-25.6c4.8-0.7,9.3,0.3,13,3.2
		c-3.9-3.7-8.8-4.8-14-4.1c-9.9,1.4-17.1,8.9-14.9,25.6c1.7,12.4,8.1,26.3,15.3,32.2C321.4-348.7,315.5-361.9,313.9-373.7z"/>
	<path display="inline" fill="#333333" d="M346.6-377c2,14.7-2.4,33.9-10.9,35c-8.5,1.2-17.9-16.1-19.9-30.8
		c-2-14.7,4.1-21.3,12.7-22.4C337-396.4,344.6-391.7,346.6-377z"/>
	<path display="inline" fill="#EC5A5A" d="M332.8-365.9c-1.3,0-3.7,3.5-3.7,4.6c0,1.1,0.9,2,2,2c0.8,0,1.4-0.4,1.7-1.1
		c0.3,0.6,1,1.1,1.7,1.1c1.1,0,2-0.9,2-2C336.5-362.4,334.1-365.8,332.8-365.9z"/>
	<path display="inline" fill="#FFFFFF" d="M-290.9-166.9c0-7.4,6-16.4,13.4-16.4c4.2,0,8,3,10.4,6.9c-2.4-4.5-6.5-8.1-11.1-8.1
		c-7.4,0-13.4,9.1-13.4,16.4c0,2.3,0.6,4.2,1.6,5.7C-290.5-163.7-290.9-165.2-290.9-166.9z"/>
	<path display="inline" fill="#E6E6E6" d="M-268.9-179.3c1.8,2.9,2.9,6.4,2.9,9.5c0,7.4-6,10.3-13.4,10.3c-4.6,0-8.7-1.1-11.1-3.8
		c2.1,3.8,6.8,5.4,12.2,5.4c7.4,0,13.4-2.9,13.4-10.3C-264.8-171.9-266.3-176.1-268.9-179.3z"/>
	<path display="inline" fill="#8C6239" stroke="#8C6239" stroke-width="4" stroke-miterlimit="10" d="M-284.5-186.5
		c0-2.9,2.8-4.1,6.3-4.1s6.3,1.1,6.3,4.1s-2.8,6.5-6.3,6.5S-284.5-183.6-284.5-186.5z"/>
	<path display="inline" fill="#AA8561" d="M-284.9-185.9c0-3.8,3.1-6.1,8.3-6.1c1.5,0,2.8,0.2,3.9,0.5c-1.4-0.8-3.2-1.2-5.5-1.2
		c-5.2,0-8.3,2.3-8.3,6.1c0,3.3,2.6,7.1,6.3,8.2C-283-179.9-284.9-183.1-284.9-185.9z"/>
	<path display="inline" fill="#744D28" d="M-272.3-191.2c1.2,1,1.8,2.4,1.8,4.1c0,3.9-3.6,8.5-8.3,8.5c-1.6,0-3.1-0.5-4.3-1.4
		c1.4,1.1,3.1,1.9,5,1.9c4.7,0,8.3-4.6,8.3-8.5C-269.8-188.6-270.7-190.2-272.3-191.2z"/>
	<g display="inline">
		<g>
			<path fill="#8C6239" d="M-288.5-166.6c-3.1,0-4.8-2.9-4.9-3.1c-0.3-0.5-0.1-1.1,0.4-1.4c0.5-0.3,1.1-0.1,1.4,0.4
				c0.1,0.1,1.4,2.4,3.6,2c0.5-0.1,1.1-0.2,1.8-0.4c3.6-0.9,9.6-2.5,18.6,0.5c0.7-0.1,2.9-0.4,3.3-2.3c0.1-0.5,0.6-0.9,1.2-0.8
				c0.5,0.1,0.9,0.7,0.8,1.2c-0.8,3.4-4.5,3.9-5.2,3.9c-0.2,0-0.4,0-0.5-0.1c-8.5-2.8-14.2-1.4-17.6-0.5c-0.8,0.2-1.5,0.4-2,0.5
				C-287.9-166.7-288.2-166.6-288.5-166.6z"/>
		</g>
		<g>
			<g>
				<path fill="#FFFFFF" d="M-283-168.4c0,0-3.3,2-2.7,7.5"/>
			</g>
			<g>
				<path fill="#8C6239" d="M-285.4-160.6c-0.2,0-0.4-0.2-0.5-0.4c-0.6-5.7,2.8-7.9,2.9-8c0.2-0.1,0.5-0.1,0.6,0.2
					c0.1,0.2,0,0.5-0.2,0.6C-285.9-165.2-285.1-160.6-285.4-160.6C-285.4-160.6-285.4-160.6-285.4-160.6z"/>
			</g>
		</g>
		<g>
			<g>
				<path fill="#FFFFFF" d="M-280.9-168.4c0,0-0.9,2.1-0.7,4.5"/>
			</g>
			<g>
				<path fill="#8C6239" d="M-281.6-163.4c-0.2,0-0.4-0.2-0.5-0.4c-0.2-2.4,0.7-4.6,0.8-4.7c0.1-0.2,0.4-0.3,0.6-0.2
					c0.2,0.1,0.3,0.4,0.2,0.6C-280.5-168.2-282.1-164.9-281.6-163.4C-281.6-163.4-281.6-163.4-281.6-163.4z"/>
			</g>
		</g>
		<g>
			<g>
				<path fill="#FFFFFF" d="M-276.2-168.8c0,0,2.1,1.8,2.6,6.2"/>
			</g>
			<g>
				<path fill="#8C6239" d="M-273.6-162.2c-0.6-3.5-2.9-6.2-3-6.3c-0.2-0.2-0.2-0.5,0-0.6c0.2-0.2,0.5-0.2,0.6,0
					c0.1,0.1,2.2,2,2.8,6.4C-273.1-162.5-273.3-162.3-273.6-162.2C-273.5-162.2-273.5-162.2-273.6-162.2z"/>
			</g>
		</g>
		<g>
			<g>
				<path fill="#8C6239" d="M-268.9-164.7C-268.9-164.7-268.9-164.7-268.9-164.7c-0.3,0,0.4-0.6-1.7-3.1c-0.2-0.2-0.1-0.5,0.1-0.6
					c0.2-0.2,0.5-0.1,0.6,0.1c0.2,0.2,1.5,2,1.4,3.2C-268.5-164.9-268.7-164.7-268.9-164.7z"/>
			</g>
		</g>
	</g>
	<g display="inline">
		<path fill="#744D28" d="M-281.8-168.3c-0.2,0-0.4,0.1-0.6,0.1c-0.1,0.1-0.2,0.2-0.3,0.3c0.3-0.1,0.6-0.1,0.9-0.2
			C-281.9-168.1-281.9-168.2-281.8-168.3z"/>
		<path fill="#744D28" d="M-291.4-170.4c-0.1-0.2-0.2-0.3-0.2-0.3c0-0.1-0.1-0.1-0.1-0.2C-291.7-170.8-291.6-170.6-291.4-170.4z"/>
		<path fill="#744D28" d="M-270.6-167.6c-1.7-0.4-3.2-0.7-4.7-0.9c0,0.1,0.1,0.1,0.1,0.2c1.4,0.1,3,0.4,4.6,0.8
			C-270.5-167.5-270.5-167.5-270.6-167.6z"/>
		<path fill="#744D28" d="M-262.6-171.5c0.1,0.2,0.2,0.4,0.1,0.7c-0.3,1.3-1,2.2-1.8,2.8c-1.4,1-3,1.2-3.5,1.2c-0.2,0-0.4,0-0.5-0.1
			c-0.2-0.1-0.4-0.1-0.7-0.2c0,0,0,0.1,0,0.1c0.3,0.1,0.6,0.2,1,0.3c0.2,0.1,0.4,0.1,0.5,0.1c0.7-0.1,4.5-0.5,5.2-3.9
			C-262.2-170.9-262.3-171.3-262.6-171.5z"/>
		<path fill="#744D28" d="M-276.7-168.6c-1.4-0.1-2.6,0-3.7,0.1c0,0.1,0,0.2,0,0.2c1.2-0.1,2.5-0.2,3.9-0.1
			C-276.6-168.4-276.7-168.5-276.7-168.6z"/>
		<path fill="#744D28" d="M-285-167.4c0.1-0.1,0.1-0.2,0.2-0.3c-0.4,0.1-0.8,0.2-1.2,0.3c-0.8,0.2-1.5,0.4-2,0.5
			c-0.3,0-0.5,0.1-0.8,0.1c-0.8,0-1.6-0.2-2.2-0.5c0.7,0.4,1.6,0.7,2.6,0.7c0.3,0,0.5,0,0.8-0.1c0.6-0.1,1.3-0.3,2-0.5
			C-285.4-167.3-285.2-167.3-285-167.4z"/>
	</g>
	<g display="inline">
		<path fill="#AA8561" d="M-287.7-168.5c0.5-0.1,1.1-0.2,1.8-0.4c3.6-0.9,9.6-2.5,18.6,0.5c0.7-0.1,2.9-0.4,3.3-2.3
			c0.1-0.5,0.6-0.9,1.2-0.8c0.1,0,0.1,0.1,0.2,0.1c-0.1-0.1-0.3-0.2-0.5-0.3c-0.5-0.1-1.1,0.2-1.2,0.8c-0.4,1.9-2.6,2.3-3.3,2.3
			c-9-3-15-1.4-18.6-0.5c-0.7,0.2-1.4,0.4-1.8,0.4c-0.8,0.1-1.5-0.1-2.1-0.4C-289.4-168.7-288.7-168.4-287.7-168.5z"/>
		<path fill="#AA8561" d="M-293.1-169.6c-0.3-0.5-0.1-1.1,0.4-1.4c0.3-0.2,0.6-0.2,0.9,0c-0.3-0.3-0.8-0.4-1.2-0.2
			c-0.5,0.3-0.6,0.9-0.4,1.4c0.1,0.1,0.8,1.4,2.2,2.3C-292.4-168.4-293.1-169.5-293.1-169.6z"/>
	</g>
	<path display="inline" fill="#8C6239" d="M-128.5-160.8c-0.5-0.2-1.2-0.2-2.1,0c-7.8,1.6-8.9,14.3-9,15.8l-0.4,5.7l3.9-4.2
		c1.6-1.8,2.9-3.3,4.1-4.7c0.9,0.5,2,0.7,3.1,0.7c3.7,0,6.7-3,6.7-6.7C-122.4-157.6-125.1-160.5-128.5-160.8z"/>
	<path display="inline" fill="#744D28" d="M-122.7-156.2c0.1,0.4,0.1,0.7,0.1,1.1c0,3.7-3,6.7-6.7,6.7c-1.1,0-2.1-0.3-3.1-0.7
		c-0.7,0.9-2.4,3.6-3.9,5.8l0.1-0.1c1.6-1.8,2.9-3.3,4.1-4.7c0.9,0.5,2,0.7,3.1,0.7c3.7,0,6.7-3,6.7-6.7
		C-122.4-154.8-122.5-155.6-122.7-156.2z"/>
	<path display="inline" fill="#AA8561" d="M-129.7-158.4c0.9-0.2,1.6-0.1,2.1,0c2.1,0.2,3.9,1.3,5,2.9c-0.6-2.9-3-5.1-6-5.3
		c-0.5-0.2-1.2-0.2-2.1,0c-7.8,1.6-8.9,14.3-9,15.8l-0.1,1.7C-139.3-146.3-136.8-157-129.7-158.4z"/>
	<path display="inline" fill="#8C6239" d="M-76.5-129.2c4.2-9.1,5.2-18.4,3.1-24.6l0,0c-0.1-1.4-2.6-3.6-6.1-5.2s-6.8-2.1-7.9-1.3
		l0,0c-6.1,2.5-12.5,9.2-16.7,18.4c-4.2,9.1-5.2,18.4-3.1,24.6l14,6.5C-87.1-113.3-80.7-120-76.5-129.2z"/>
	<path display="inline" fill="#AA8561" d="M-99.8-137.4c4.2-9.1,10.6-15.9,16.7-18.4l0,0c1.1-0.8,4.4-0.3,7.9,1.3
		c0.7,0.3,1.3,0.6,1.9,1c0-0.1-0.1-0.2-0.1-0.3l0,0c-0.1-1.4-2.6-3.6-6.1-5.2s-6.8-2.1-7.9-1.3l0,0c-6.1,2.5-12.5,9.2-16.7,18.4
		s-5.2,18.4-3.1,24.6l3.7,1.7C-104.6-121.6-103.4-129.5-99.8-137.4z"/>
	<g display="inline">
		<path fill="#C7B299" d="M-92.7-152.8c-0.1-0.2-0.1-0.4,0-0.6c1.9-3,5.8-4.9,5.9-5c0.2-0.1,0.5,0,0.7,0.2c0.1,0.2,0,0.5-0.2,0.7
			c0,0-3.8,1.9-5.5,4.7c-0.1,0.2-0.5,0.3-0.7,0.2C-92.6-152.7-92.6-152.7-92.7-152.8z"/>
	</g>
	<g display="inline">
		<path fill="#C7B299" d="M-94.5-149.9c-0.1-0.2-0.1-0.4,0-0.6l0.9-1.3c0.2-0.2,0.5-0.3,0.7-0.1c0.2,0.2,0.3,0.5,0.1,0.7l-0.9,1.3
			c-0.2,0.2-0.5,0.3-0.7,0.1C-94.4-149.8-94.4-149.9-94.5-149.9z"/>
	</g>
	
		<ellipse transform="matrix(-0.3992 0.9169 -0.9169 -0.3992 -244.6471 -68.3671)" display="inline" fill="#B18451" cx="-99.9" cy="-114.3" rx="2.6" ry="7.8"/>
	<path display="inline" fill="#F0F5F6" d="M-27-185.6c0-0.1,0-0.2,0-0.2c0-0.1,0-0.2-0.1-0.3c0-0.1,0-0.2,0-0.3
		c-0.1-0.6-0.2-1.3-0.2-1.9c0,0,0,0,0,0c-0.2-2.1-0.2-4.4,0-6.9l0,0c0-0.2,0-0.3,0-0.5c0-0.2,0-0.3,0-0.5c0-0.2,0-0.3,0-0.5
		c0.2-1.9,0.5-3.9,0.9-5.9c0.1-0.3,0.1-0.6,0.2-0.9c0,0,0-0.1,0-0.1c0.5-2.3,1-4.5,1.7-6.5c0.1-0.2,0.1-0.3,0.2-0.5
		c0.1-0.2,0.1-0.3,0.2-0.5c0.1-0.2,0.1-0.3,0.2-0.5l0,0c0.1-0.2,0.2-0.4,0.2-0.6c0.2-0.5,0.4-1.1,0.6-1.6c0.1-0.2,0.2-0.5,0.3-0.7
		c0.2-0.5,0.4-1,0.6-1.5c0.1-0.2,0.2-0.5,0.3-0.7c0.2-0.4,0.4-0.9,0.6-1.3c0.2-0.3,0.3-0.6,0.5-0.9c0.2-0.3,0.3-0.6,0.5-0.9
		c0,0,0,0,0-0.1c0.3-0.4,0.5-0.8,0.8-1.2c0-0.1,0.1-0.1,0.1-0.2c0.3-0.4,0.5-0.7,0.8-1c0-0.1,0.1-0.1,0.1-0.2
		c0.3-0.3,0.5-0.6,0.8-0.9c0,0,0.1-0.1,0.1-0.1c0.3-0.3,0.6-0.5,0.8-0.8c0,0,0,0,0,0c0.9-0.7,1.8-1.2,2.7-1.4c0,0,0,0,0,0
		c0.6-0.1,1.1-0.1,1.6,0c0.9,0.2,1.8,0.7,2.5,1.6c-0.9-2.9-2.4-4.7-4.2-5.1c-0.5-0.1-1.1-0.1-1.6,0c0,0,0,0,0,0
		c-0.9,0.2-1.8,0.7-2.7,1.4c0,0,0,0,0,0c-0.3,0.2-0.6,0.5-0.8,0.8c0,0-0.1,0.1-0.1,0.1c-0.3,0.3-0.5,0.6-0.8,0.9
		c0,0.1-0.1,0.1-0.1,0.2c-0.3,0.3-0.5,0.7-0.8,1c0,0.1-0.1,0.1-0.1,0.2c-0.3,0.4-0.5,0.8-0.8,1.2c0,0,0,0,0,0.1
		c-0.2,0.3-0.3,0.6-0.5,0.9c-0.2,0.3-0.4,0.6-0.5,0.9c-0.2,0.4-0.4,0.9-0.6,1.3c-0.1,0.2-0.2,0.5-0.3,0.7c-0.2,0.5-0.4,1-0.6,1.5
		c-0.1,0.2-0.2,0.5-0.3,0.7c-0.2,0.5-0.4,1-0.6,1.6c-0.1,0.2-0.2,0.4-0.2,0.6l0,0c-0.1,0.2-0.1,0.3-0.2,0.5
		c-0.1,0.2-0.1,0.3-0.2,0.5c-0.1,0.2-0.1,0.3-0.2,0.5c-0.7,2.1-1.2,4.3-1.7,6.5c0,0,0,0.1,0,0.1c-0.1,0.3-0.1,0.6-0.2,0.9
		c-0.4,2-0.7,4-0.9,5.9c0,0.2,0,0.3,0,0.5c0,0.2,0,0.3,0,0.5c0,0.2,0,0.3,0,0.5l0,0c-0.2,2.5-0.2,4.8,0,6.9c0,0,0,0,0,0
		c0.1,0.7,0.1,1.3,0.2,1.9c0,0.1,0,0.2,0,0.3c0,0.1,0,0.2,0.1,0.3c0,0.1,0,0.2,0,0.2c0.5,2.8,1.3,5,2.4,6.3
		C-26.6-183.6-26.8-184.5-27-185.6z"/>
	<path display="inline" fill="#4381A9" d="M-20.9-213.5L-20.9-213.5l-3.8-1.3l-0.5-0.2l-0.5-0.2l-14.7-4.8c0.7,0.7,1.2,1.7,1.5,2.9
		c0.6,2.2,0.7,4.9,0.1,7.7c-0.9,4.6-3.2,8-5.7,9.1l15.4,1.4l0.5,0l0.5,0l4,0.4l0,0c2.2,0.3,4.5-2.7,5.4-6.8
		C-17.8-209.3-18.8-212.9-20.9-213.5z"/>
	<path display="inline" fill="#2B688F" d="M-23.8-200.1L-23.8-200.1l-4-0.3l-0.5,0l-0.5,0l-13.5-1.2c-0.7,0.7-1.4,1.3-2.1,1.6
		l15.4,1.4l0.5,0l0.5,0l4,0.4l0,0c2.2,0.3,4.5-2.7,5.4-6.8c0.1-0.6,0.2-1.2,0.2-1.7C-19.2-202.8-21.6-199.8-23.8-200.1z"/>
	<path display="inline" fill="#D4E1E4" d="M-38.8-217c-0.4-1.2-0.9-2.2-1.5-2.9c-0.6-0.6-1.2-1-2-1.2c-3.2-0.7-6.7,3.5-8,9.4
		c-1.2,6,0.4,11.1,3.6,11.8c0.2,0,0.5,0.1,0.7,0.1c0.5,0,1.1-0.1,1.6-0.4c2.5-1.1,4.7-4.6,5.7-9.1C-38.2-212-38.2-214.8-38.8-217z"
		/>
	<g display="inline">
		<path fill="#F0F5F6" d="M-49.7-209.9c1.2-5.9,4.7-10.1,8-9.4c0.3,0.1,0.5,0.1,0.7,0.3c-0.2-0.3-0.5-0.6-0.8-0.8
			c0.3,0.2,0.6,0.5,0.8,0.8c0.5,0.2,0.9,0.5,1.2,0.9c0.3,0.3,0.6,0.7,0.8,1.1c0,0,0-0.1,0-0.1c-0.4-1.2-0.9-2.2-1.5-2.9
			c-0.6-0.6-1.2-1-2-1.2c-3.2-0.7-6.7,3.5-8,9.4c-0.8,3.8-0.4,7.3,0.8,9.5C-50.2-204.4-50.3-207-49.7-209.9z"/>
	</g>
	<path display="inline" fill="#66A3CB" d="M-25.2-213.3l0.5,0.2l0.5,0.2l3.8,1.2l0,0c0.8,0.2,1.5,1,1.9,2c-0.3-2-1.2-3.5-2.4-3.8
		l0,0l-3.8-1.2l-0.5-0.2l-0.5-0.2l-14.7-4.8c0.5,0.5,0.9,1.2,1.3,2.1L-25.2-213.3z"/>
</g>
<g id="耳朵" display="none">
	<g id="耳朵9">
		<polygon display="inline" fill="#C69C6D" points="30.8,-251.7 62.2,-243.8 24.1,-225.1 		"/>
		<polygon display="inline" fill="#B18451" points="24.5,-226.9 24.1,-225.1 62.1,-243.8 61.9,-243.9 		"/>
		<polygon display="inline" fill="#DCB890" points="32.8,-248.4 53.8,-246 30.8,-251.8 24.7,-227.2 		"/>
		<polygon display="inline" fill="#C69C6D" points="-34.2,-251.6 -65.4,-242.9 -26.9,-225.2 		"/>
		<polygon display="inline" fill="#B18451" points="-29.6,-227.2 -35,-228.9 -26.9,-225.2 -34.2,-251.6 -35.1,-251.4 		"/>
		<polygon display="inline" fill="#DCB890" points="-57.4,-242.3 -38.5,-250.4 -65.4,-242.9 -32,-227.6 		"/>
	</g>
	<g id="耳朵8">
		<polygon display="inline" fill="#C69C6D" points="6.7,-241.5 33.1,-257.6 20.3,-219.2 		"/>
		<polygon display="inline" fill="#B18451" points="19.1,-221.2 20.3,-219.3 32,-254.3 		"/>
		<polygon display="inline" fill="#DCB890" points="9.6,-240.8 27.7,-254.2 6.7,-241.5 18.9,-221.4 		"/>
		<polygon display="inline" fill="#C69C6D" points="-14,-238.7 -37.6,-258.6 -30.8,-218.7 		"/>
		<polygon display="inline" fill="#B18451" points="-30,-252.2 -15.5,-239.1 -30.9,-219.1 -30.8,-218.7 -14,-238.7 		"/>
		<polygon display="inline" fill="#DCB890" points="-35.2,-255.4 -25.4,-248.4 -37.6,-258.7 -32.5,-228.4 		"/>
	</g>
	<g id="耳朵7">
		<polygon display="inline" fill="#C69C6D" points="25.1,-251.1 46.3,-243.7 16.2,-225.4 		"/>
		<polygon display="inline" fill="#B18451" points="17.1,-228.2 16.2,-225.4 46.3,-243.7 46.2,-243.7 		"/>
		<polygon display="inline" fill="#DCB890" points="26.5,-248.7 40,-245.9 25.2,-251.1 18,-230.4 		"/>
		<polygon display="inline" fill="#C69C6D" points="-28.4,-252.6 -49.4,-252.6 -28.4,-225.4 		"/>
		<polygon display="inline" fill="#B18451" points="-29.5,-228.1 -34.1,-232.8 -28.3,-225.4 -28.3,-247 		"/>
		<polygon display="inline" fill="#DCB890" points="-45.1,-250.5 -31.7,-252.6 -49.5,-252.6 -33.8,-232.5 		"/>
	</g>
	<g id="耳朵6">
		<polygon display="inline" fill="#C69C6D" points="-60.5,-252.9 -67.4,-221.3 -33.7,-247.1 		"/>
		<polygon display="inline" fill="#B18451" points="-66.5,-225.2 -67.4,-221.3 -33.7,-247.1 -33.9,-247.1 		"/>
		<polygon display="inline" fill="#DCB890" points="-57.8,-249.2 -39.7,-248.4 -60.5,-252.9 -66,-227.4 		"/>
		<polygon display="inline" fill="#C69C6D" points="51.9,-256.4 62.9,-226 26.1,-247 		"/>
		<polygon display="inline" fill="#B18451" points="54.9,-248.3 57.4,-232.7 33.6,-242.8 62.9,-226.1 		"/>
		<polygon display="inline" fill="#DCB890" points="53.2,-252.7 51.9,-256.4 26.1,-247 27,-246.5 		"/>
	</g>
	<g id="耳朵5">
		<polygon display="inline" fill="#C69C6D" points="23.8,-245.5 56.2,-245.5 23.8,-218 		"/>
		<polygon display="inline" fill="#B18451" points="50.5,-245.5 28.9,-222.4 56.1,-245.5 		"/>
		<polygon display="inline" fill="#DCB890" points="26.5,-244 40.9,-245.4 23.7,-245.4 23.7,-218 25.1,-219.2 		"/>
		<polygon display="inline" fill="#C69C6D" points="-59.2,-229.1 -46.7,-259 -33.9,-218.5 		"/>
		<polygon display="inline" fill="#B18451" points="-33.9,-218.5 -46.2,-257.3 -37.1,-221.4 -44.3,-222.9 		"/>
		<polygon display="inline" fill="#DCB890" points="-56.8,-229.7 -45,-253.9 -46.6,-258.9 -59.1,-229.1 -41.8,-221.8 		"/>
	</g>
	<g id="耳朵3">
		<polygon display="inline" fill="#C69C6D" points="-39.6,-250.8 -67.4,-234.2 -25.6,-227.3 		"/>
		<polygon display="inline" fill="#DCB890" points="-39.3,-249.4 -30.3,-235.2 -39.6,-250.8 -67.4,-234.3 -65.3,-233.9 		"/>
		<polygon display="inline" fill="#B18451" points="-33.4,-240.4 -26.8,-228.1 -66.8,-234.1 -25.6,-227.3 		"/>
		<polygon display="inline" fill="#C69C6D" points="34.6,-250.8 62.4,-234.3 20.6,-227.2 		"/>
		<polygon display="inline" fill="#B18451" points="46.5,-243.8 58.8,-235.1 30.7,-228.9 62.4,-234.3 		"/>
		<polygon display="inline" fill="#DCB890" points="35.2,-248.5 53,-239.9 34.6,-250.8 22,-229.4 		"/>
	</g>
	<g id="耳朵2">
		<polygon display="inline" fill="#C69C6D" points="27,-252.5 59.3,-252.5 27,-225 		"/>
		<polygon display="inline" fill="#C69C6D" points="-30,-252.5 -62.3,-252.5 -30,-225 		"/>
		<polygon display="inline" fill="#B18451" points="27,-227 27,-230.1 27,-225.1 52.5,-246.7 		"/>
		<polygon display="inline" fill="#DCB890" points="28.8,-250.7 50.6,-252.5 27,-252.5 27,-225.6 		"/>
		<polygon display="inline" fill="#B18451" points="-31.1,-226.5 -40.4,-233.9 -30,-225 -30,-248.5 		"/>
		<polygon display="inline" fill="#DCB890" points="-58.8,-251.4 -34.6,-252.5 -62.3,-252.5 -37.6,-231.5 		"/>
	</g>
	<g id="耳朵1">
		<polygon display="inline" fill="#C69C6D" points="67,-276.5 99.3,-276.5 67,-249 		"/>
		<polygon display="inline" fill="#B18451" points="67.1,-251 67,-254.1 67,-249.1 92.5,-270.7 		"/>
		<polygon display="inline" fill="#DCB890" points="68.8,-274.7 90.6,-276.5 67,-276.5 67,-249.6 		"/>
		<polygon display="inline" fill="#C69C6D" points="10,-276.5 -22.3,-276.5 10,-249 		"/>
		<polygon display="inline" fill="#B18451" points="8.9,-250.5 -0.4,-257.9 10,-249.1 10,-272.5 		"/>
		<polygon display="inline" fill="#DCB890" points="-18.8,-275.4 5.4,-276.5 -22.3,-276.5 2.4,-255.5 		"/>
	</g>
</g>
<g id="眼睛">
	<g id="眼睛1" display="none">
		<g display="inline">
			<path fill="#F6F3F0" d="M44,26.4C44,36.9,38,44,30.7,44s-13.4-7.1-13.4-17.6S23.3,6,30.7,6S44,15.9,44,26.4z"/>
			<path fill="#E6E6E6" d="M27.7,40.5c-3.1,0-6-1.3-8.3-3.6c2.4,3.5,6,5.6,9.9,5.6c7.4,0,13.4-7.1,13.4-17.6c0-0.4,0-0.8,0-1.2
				C41.6,33.1,34.5,40.5,27.7,40.5z"/>
			<path fill="#FFFFFF" d="M20,31c0-10.5,6-20.4,13.4-20.4c3.1,0,5.9,1.7,8.2,4.5c-2.4-5.4-6.4-9.2-11-9.2
				c-7.4,0-13.4,9.9-13.4,20.4c0,5.6,1.7,10.2,4.4,13.3C20.6,37.2,20,34.2,20,31z"/>
			<path fill="#8C6239" d="M30.7,46c-8.8,0-15.4-8.4-15.4-19.6c0-12.1,7-22.4,15.4-22.4S46,14.3,46,26.4C46,37.6,39.4,46,30.7,46z
				 M30.7,8c-5.9,0-11.4,8.8-11.4,18.4c0,9,4.8,15.6,11.4,15.6C37.2,42,42,35.5,42,26.4C42,16.8,36.6,8,30.7,8z"/>
			<g>
				<path fill="#AA8561" d="M15.8,27.5c0-12.1,7-22.4,15.4-22.4c5,0,9.6,3.7,12.4,9.4C40.8,8.3,36,4,30.7,4
					c-8.3,0-15.4,10.3-15.4,22.4c0,4.2,0.9,8,2.6,11.1C16.6,34.7,15.8,31.2,15.8,27.5z"/>
				<path fill="#AA8561" d="M31.2,43.1c6.6,0,11.4-6.6,11.4-15.6c0-4.1-1-7.9-2.5-11.1c1.3,2.9,2,6.4,2,10c0,9-4.8,15.6-11.4,15.6
					c-4,0-7.3-2.4-9.3-6.3C23.3,40.2,26.8,43.1,31.2,43.1z"/>
			</g>
			<g>
				<path fill="#744D28" d="M25.5,40.4c-3.7-2.5-6.2-7.6-6.2-14C19.3,16.8,24.7,8,30.7,8c1.1,0,2.2,0.3,3.2,0.8
					c-1.2-0.8-2.6-1.3-3.9-1.3C24,7.6,18.6,16.3,18.6,26C18.6,32.8,21.3,38.2,25.5,40.4z"/>
				<path fill="#744D28" d="M36,5.5C41.4,9,45.3,17,45.3,26c0,11.2-6.6,19.6-15.4,19.6c-2.5,0-4.7-0.7-6.8-1.9
					c2.2,1.5,4.7,2.3,7.5,2.3C39.4,46,46,37.6,46,26.4C46,17,41.8,8.8,36,5.5z"/>
			</g>
			<path fill="#F6F3F0" d="M82.7,26.4c0,10.5-6,17.6-13.4,17.6C62,44,56,36.9,56,26.4S62,6,69.3,6C76.7,6,82.7,15.9,82.7,26.4z"/>
			<circle cx="33.5" cy="34.2" r="4.9"/>
			<circle cx="67.9" cy="34.2" r="4.9"/>
			<path fill="#FFFFFF" d="M58.8,30.9c0-10.5,6-20.4,13.4-20.4c3.1,0,5.9,1.7,8.2,4.5c-2.4-5.4-6.4-9.2-11-9.2
				C61.9,5.8,56,15.7,56,26.2c0,5.6,1.7,10.2,4.4,13.3C59.4,37,58.8,34.1,58.8,30.9z"/>
			<path fill="#E6E6E6" d="M66.7,40.8c-3.1,0-6-1.3-8.3-3.6c2.4,3.5,6,5.6,9.9,5.6c7.4,0,13.4-7.1,13.4-17.6c0-0.4,0-0.8,0-1.2
				C80.6,33.4,73.5,40.8,66.7,40.8z"/>
			<path fill="#333333" d="M69.3,46C60.6,46,54,37.6,54,26.4C54,14.3,61,4,69.3,4s15.4,10.3,15.4,22.4C84.7,37.6,78.1,46,69.3,46z
				 M69.3,8C63.4,8,58,16.8,58,26.4c0,9,4.8,15.6,11.4,15.6c6.6,0,11.4-6.6,11.4-15.6C80.7,16.8,75.3,8,69.3,8z"/>
			<ellipse fill="#FFFFFF" cx="35.8" cy="32.3" rx="2.3" ry="2.9"/>
			<ellipse fill="#FFFFFF" cx="69.5" cy="32.1" rx="2.3" ry="2.9"/>
			<g>
				<path d="M64.1,40.4c-3.7-2.5-6.2-7.6-6.2-14C57.9,16.8,63.3,8,69.3,8c1.1,0,2.2,0.3,3.2,0.8c-1.2-0.8-2.6-1.3-3.9-1.3
					c-5.9,0-11.4,8.8-11.4,18.4C57.2,32.8,59.9,38.2,64.1,40.4z"/>
				<path d="M74.7,5.5C80.1,9,83.9,17,83.9,26c0,11.2-6.6,19.6-15.4,19.6c-2.5,0-4.7-0.7-6.8-1.9c2.2,1.5,4.7,2.3,7.5,2.3
					c8.8,0,15.4-8.4,15.4-19.6C84.7,17,80.4,8.8,74.7,5.5z"/>
			</g>
			<g>
				<path fill="#535353" d="M54.5,27.5c0-12.1,7-22.4,15.4-22.4c5,0,9.6,3.7,12.4,9.4C79.5,8.2,74.7,4,69.3,4C61,4,54,14.3,54,26.4
					c0,4.2,0.9,8,2.6,11.1C55.2,34.6,54.5,31.2,54.5,27.5z"/>
				<path fill="#535353" d="M69.8,43c6.6,0,11.4-6.6,11.4-15.6c0-4.1-1-7.9-2.5-11.1c1.3,2.9,2,6.4,2,10c0,9-4.8,15.6-11.4,15.6
					c-4,0-7.3-2.4-9.3-6.3C62,40.2,65.5,43,69.8,43z"/>
			</g>
		</g>
	</g>
	<g id="眼睛2">
		<g>
			<path fill="#F6F3F0" d="M29,33.2c9.1,0,12.5-7.4,12.5-16.5h-33C8.5,25.8,19.9,33.2,29,33.2z"/>
			<path fill="#E6E6E6" d="M38.8,15.9c-0.2,8.6-3.7,15.5-12.5,15.5c-4.1,0-8.6-1.5-12.4-4c4,3.1,9.2,5,13.8,5
				c9.1,0,12.5-7.4,12.5-16.5H38.8z"/>
			<path fill="#FFFFFF" d="M13,19.9h28.5c0.1-0.8,0.1-1.6,0.1-2.4h-33c0,6.4,5.6,11.9,12.1,14.7C16.3,29.2,13,24.8,13,19.9z"/>
			<path fill="#8C6239" d="M29,35.2C18.8,35.2,6.5,27,6.5,16.7v-2h37v2C43.5,28.5,38.2,35.2,29,35.2z M10.7,18.7
				c1.5,6.9,10.7,12.5,18.3,12.5c7.8,0,10.1-6.4,10.4-12.5H10.7z"/>
			<g>
				<path fill="#744D28" d="M13,23.4c-1.1-1.4-1.9-3-2.3-4.7h28c0-0.3,0-0.5,0.1-0.8H10.1C10.6,19.9,11.6,21.8,13,23.4z"/>
				<path fill="#744D28" d="M42.9,14.7V16c0,11.8-5.3,18.5-14.5,18.5c-6.5,0-13.9-3.4-18.4-8.5c4.4,5.5,12.2,9.2,19,9.2
					c9.2,0,14.5-6.7,14.5-18.5v-2H42.9z"/>
			</g>
			<path fill="#AA8561" d="M7.2,17.5v-2h36.3v-0.8h-37v2c0,3.9,1.8,7.5,4.6,10.5C8.7,24.4,7.2,21,7.2,17.5z"/>
			<path fill="#AA8561" d="M29.7,32c7.8,0,10-7,10.4-13.1l-0.6-0.2c-0.5,5.9-3,12.5-10.5,12.5c-5.2,0-11.1-2.6-14.8-6.5
				C17.8,29,24.1,32,29.7,32z"/>
			<path fill="#F6F3F0" d="M71,33.2c-9.1,0-12.5-7.4-12.5-16.5h33C91.5,25.8,80.1,33.2,71,33.2z"/>
			<path fill="#E6E6E6" d="M89,16.5c-1.2,8.4-11.8,15-20.4,15c-3.2,0-5.6-0.9-7.5-2.5c2,2.5,4.9,4,9,4c9.1,0,20.5-7.4,20.5-16.5H89z
				"/>
			<path fill="#FFFFFF" d="M61.7,19.8h30.6c0.1-0.7,0.2-1.3,0.2-2h-33c0,6.4,1.7,11.9,5.8,14.7C62.8,29.4,61.7,24.9,61.7,19.8z"/>
			<path fill="#333333" d="M71,35.2c-9.2,0-14.5-6.7-14.5-18.5v-2h37v2C93.5,27,81.2,35.2,71,35.2z M60.6,18.7
				c0.4,6.1,2.6,12.5,10.4,12.5c7.6,0,16.8-5.6,18.3-12.5H60.6z"/>
			<g>
				<path d="M64.1,28.7c-2.4-2.4-3.3-6.2-3.5-9.9h28.3c0-0.1,0.1-0.2,0.1-0.3H60.2C60.5,22.3,61.5,26.3,64.1,28.7z"/>
				<path d="M93.2,14.8v1.7C93.2,26.7,80.9,35,70.7,35c-3.9,0-7.1-1.2-9.5-3.6c2.4,2.5,5.8,3.9,9.9,3.9c10.2,0,22.5-8.3,22.5-18.5
					v-2H93.2z"/>
			</g>
			<path fill="#535353" d="M57.2,17.5v-2h36.3v-0.8h-37v2c0,6.6,1.7,11.7,4.8,14.8C58.6,28.3,57.2,23.6,57.2,17.5z"/>
			<path fill="#535353" d="M71.7,32c7.6,0,16.7-5.9,18.2-12.8l-0.6-0.4c-2,6.6-11,12.5-18.3,12.5c-3.1,0-5.3-1-6.9-2.6
				C65.7,30.6,68.1,32,71.7,32z"/>
		</g>
	</g>
	<g id="眼睛3" display="none">
		<g display="inline">
			<path fill="#8C6239" d="M-125.8-284.3c-3.4,0-6.2-1.4-7.8-3.4c-2.5-2.9-3.5-8.2,1.2-14.3c2.6-3.3,5.3-4.8,7.9-4.2
				c4.7,1,6.7,8,7,8.8c0.3,1.1-0.4,2.2-1.4,2.4c-1.1,0.3-2.2-0.3-2.4-1.4c-0.6-2.2-2.2-5.6-3.9-5.9c-1-0.2-2.4,0.8-3.9,2.8
				c-2.7,3.5-3.2,7-1.3,9.2c1.7,2,5.6,2.9,10.1,0.5c5.4-2.9,8-9.4,8.1-14.5c0.1-3.4-0.9-6.1-2.5-7.1c-3.1-1.9-7.6-2.4-11.6-1.4
				c-2.6,0.7-6.2,2.3-8.6,6.5c-0.6,1-1.8,1.3-2.7,0.7c-1-0.6-1.3-1.8-0.7-2.7c2.5-4.2,6.3-7.1,11.1-8.4c5-1.3,10.6-0.6,14.7,1.9
				c2.9,1.8,4.6,5.7,4.4,10.6c-0.2,6.3-3.4,14.2-10.2,17.9C-121.1-284.9-123.6-284.3-125.8-284.3z"/>
		</g>
		<g display="inline">
			<path fill="#744D28" d="M-117.9-298.5c0.1,0.3,0.2,0.6,0.2,0.7c0.3,1.1-0.4,2.2-1.4,2.4c-1,0.3-2-0.3-2.4-1.2
				c0,0.1,0.1,0.2,0.1,0.3c0.3,1.1,1.4,1.7,2.4,1.4c1.1-0.3,1.7-1.4,1.4-2.4C-117.6-297.5-117.7-297.9-117.9-298.5z"/>
			<path fill="#744D28" d="M-129.2-299.5c1.5-2,3-3,3.9-2.8c1.4,0.3,2.8,2.9,3.6,5c-0.7-2.2-2.2-5.2-3.8-5.5c-1-0.2-2.4,0.8-3.9,2.8
				c-2.2,2.8-2.9,5.6-2.2,7.7C-132-294.3-131.2-296.9-129.2-299.5z"/>
			<path fill="#744D28" d="M-135.1-306.4c2.4-4.2,6-5.8,8.6-6.5c4-1,8.5-0.4,11.6,1.4c0.8,0.5,1.4,1.4,1.8,2.5c-0.4-1.4-1.1-2.5-2-3
				c-3.1-1.9-7.6-2.4-11.6-1.4c-2.6,0.7-6.2,2.3-8.6,6.5c-0.6,1-1.8,1.3-2.7,0.7c-0.4-0.2-0.6-0.5-0.8-0.8c0.1,0.5,0.4,1,1,1.3
				C-136.9-305.1-135.6-305.4-135.1-306.4z"/>
			<path fill="#744D28" d="M-109.1-309.7c0.4,1.5,0.6,3.2,0.6,5c-0.2,6.3-3.4,14.2-10.2,17.9c-2.6,1.4-5,2-7.2,2
				c-3.4,0-6.2-1.4-7.8-3.4c-0.6-0.7-1.1-1.6-1.5-2.5c0.4,1.2,0.9,2.2,1.7,3c1.7,2,4.5,3.4,7.8,3.4c2.2,0,4.7-0.6,7.2-2
				c6.8-3.7,10-11.7,10.2-17.9C-108.3-306.3-108.5-308.1-109.1-309.7z"/>
		</g>
		<g display="inline">
			<path fill="#AA8561" d="M-123.8-301.1c1,1.3,1.9,3.3,2.3,4.8c0.1,0.5,0.5,1,1,1.2c-0.1-0.1-0.2-0.3-0.2-0.5
				C-121.2-297.4-122.5-300.1-123.8-301.1z"/>
			<path fill="#AA8561" d="M-119.8-289.1c5.4-2.9,8-9.4,8.1-14.5c0.1-3.2-0.8-5.8-2.3-6.9c1,1.3,1.6,3.5,1.5,6.2
				c-0.1,5.1-2.7,11.6-8.1,14.5c-4,2.2-7.5,1.7-9.4,0.2c0,0,0,0.1,0.1,0.1C-128.2-287.6-124.3-286.6-119.8-289.1z"/>
			<path fill="#AA8561" d="M-137.9-307.6c2.5-4.2,6.3-7.1,11.1-8.4c5-1.3,10.6-0.6,14.7,1.9c0.3,0.2,0.6,0.4,0.9,0.7
				c-0.5-0.6-1.1-1.1-1.7-1.4c-4-2.4-9.6-3.2-14.7-1.9c-4.8,1.2-8.7,4.1-11.1,8.4c-0.6,1-0.2,2.2,0.7,2.7c0,0,0,0,0,0
				C-138.2-306.2-138.3-307-137.9-307.6z"/>
			<path fill="#AA8561" d="M-132.9-286.9c-2.5-2.9-3.5-8.2,1.2-14.3c2.6-3.3,5.3-4.8,7.9-4.2c1.1,0.2,2.1,0.8,2.9,1.5
				c-1-1.1-2.2-2-3.6-2.3c-2.6-0.5-5.3,0.9-7.9,4.2c-4.7,6-3.7,11.3-1.2,14.3c0.3,0.3,0.5,0.6,0.8,0.9
				C-132.9-286.9-132.9-286.9-132.9-286.9z"/>
		</g>
		<path display="inline" fill="none" stroke="#333333" stroke-width="4" stroke-linecap="round" stroke-miterlimit="10" d="
			M-77.5-296.8c0,0-3.7-13.8-11.3-3.9s1.3,18.1,11.3,12.7c10-5.4,11.7-21.4,5.7-25.1s-17.7-3.5-23,5.8"/>
		<g display="inline">
			<path d="M-75.8-298.5c0.1,0.3,0.2,0.6,0.2,0.7c0.3,1.1-0.4,2.2-1.4,2.4c-1,0.3-2-0.3-2.4-1.2c0,0.1,0.1,0.2,0.1,0.3
				c0.3,1.1,1.4,1.7,2.4,1.4c1.1-0.3,1.7-1.4,1.4-2.4C-75.5-297.5-75.6-297.9-75.8-298.5z"/>
			<path d="M-87.1-299.4c1.5-2,3-3,3.9-2.8c1.4,0.3,2.8,2.9,3.6,5c-0.7-2.2-2.2-5.2-3.8-5.5c-1-0.2-2.4,0.8-3.9,2.8
				c-2.2,2.8-2.9,5.6-2.2,7.7C-89.9-294.3-89.1-296.8-87.1-299.4z"/>
			<path d="M-93-306.3c2.4-4.2,6-5.8,8.6-6.5c4-1,8.5-0.4,11.6,1.4c0.8,0.5,1.4,1.4,1.8,2.5c-0.4-1.4-1.1-2.5-2-3
				c-3.1-1.9-7.6-2.4-11.6-1.4c-2.6,0.7-6.2,2.3-8.6,6.5c-0.6,1-1.8,1.3-2.7,0.7c-0.4-0.2-0.6-0.5-0.8-0.8c0.1,0.5,0.4,1,1,1.3
				C-94.7-305.1-93.5-305.4-93-306.3z"/>
			<path d="M-66.9-309.7c0.4,1.5,0.6,3.2,0.6,5c-0.2,6.3-3.4,14.2-10.2,17.9c-2.6,1.4-5,2-7.2,2c-3.4,0-6.2-1.4-7.8-3.4
				c-0.6-0.7-1.1-1.6-1.5-2.5c0.4,1.2,0.9,2.2,1.7,3c1.7,2,4.5,3.4,7.8,3.4c2.2,0,4.7-0.6,7.2-2c6.8-3.7,10-11.7,10.2-17.9
				C-66.2-306.2-66.4-308.1-66.9-309.7z"/>
		</g>
		<g display="inline">
			<path fill="#535353" d="M-81.7-301.1c1,1.3,1.9,3.3,2.3,4.8c0.1,0.5,0.5,1,1,1.2c-0.1-0.1-0.2-0.3-0.2-0.5
				C-79.1-297.4-80.3-300-81.7-301.1z"/>
			<path fill="#535353" d="M-77.7-289c5.4-2.9,8-9.4,8.1-14.5c0.1-3.2-0.8-5.8-2.3-6.9c1,1.3,1.6,3.5,1.5,6.2
				c-0.1,5.1-2.7,11.6-8.1,14.5c-4,2.2-7.5,1.7-9.4,0.2c0,0,0,0.1,0.1,0.1C-86.1-287.5-82.2-286.5-77.7-289z"/>
			<path fill="#535353" d="M-95.8-307.6c2.5-4.2,6.3-7.1,11.1-8.4c5-1.3,10.6-0.6,14.7,1.9c0.3,0.2,0.6,0.4,0.9,0.7
				c-0.5-0.6-1.1-1.1-1.7-1.4c-4-2.4-9.6-3.2-14.7-1.9c-4.8,1.2-8.7,4.1-11.1,8.4c-0.6,1-0.2,2.2,0.7,2.7c0,0,0,0,0,0
				C-96.1-306.2-96.1-307-95.8-307.6z"/>
			<path fill="#535353" d="M-90.8-286.9c-2.5-2.9-3.5-8.2,1.2-14.3c2.6-3.3,5.3-4.8,7.9-4.2c1.1,0.2,2.1,0.8,2.9,1.5
				c-1-1.1-2.2-2-3.6-2.3c-2.6-0.5-5.3,0.9-7.9,4.2c-4.7,6-3.7,11.3-1.2,14.3c0.3,0.3,0.5,0.6,0.8,0.9
				C-90.8-286.8-90.8-286.9-90.8-286.9z"/>
		</g>
	</g>
	<g id="眼睛4" display="none">
		<path display="inline" fill="#F6F3F0" d="M164.4-298.5c0,10.5-6,17.6-13.4,17.6c-7.4,0-13.4-7.1-13.4-17.6s6-20.4,13.4-20.4
			C158.4-318.9,164.4-309,164.4-298.5z"/>
		<path display="inline" fill="#E6E6E6" d="M158.8-312.4c1.5,3.3,2.4,7.3,2.4,11.3c0,10.5-6,17.6-13.4,17.6c-4.2,0-7.9-2.2-10.3-6.1
			c2.3,5.3,6.6,8.5,11.6,8.5c7.4,0,13.4-7.1,13.4-17.6C162.5-303.7,161.1-308.6,158.8-312.4z"/>
		<path display="inline" fill="#FFFFFF" d="M139.8-293.8c0-10.5,6-20.4,13.4-20.4c3.5,0,6.7,2.3,9.1,5.8c-2.4-5.4-6.4-9.1-11-9.1
			c-7.4,0-13.4,9.9-13.4,20.4c0,4.9,1.3,9.1,3.5,12.2C140.4-287.6,139.8-290.5,139.8-293.8z"/>
		<path display="inline" fill="#8C6239" d="M151-278.9c-8.8,0-15.4-8.4-15.4-19.6c0-12.1,7-22.4,15.4-22.4s15.4,10.3,15.4,22.4
			C166.4-287.3,159.8-278.9,151-278.9z M151-316.9c-5.9,0-11.4,8.8-11.4,18.4c0,9,4.8,15.6,11.4,15.6s11.4-6.6,11.4-15.6
			C162.4-308.1,157-316.9,151-316.9z"/>
		<g display="inline">
			<path fill="#744D28" d="M139.6-298.6c0-9.6,5.4-18.4,11.4-18.4c3.9,0,7.6,3.8,9.7,9.2c-1.9-6-5.9-10.3-10.1-10.3
				c-5.9,0-11.4,8.8-11.4,18.4c0,2.9,0.5,5.6,1.4,7.9C139.9-293.9,139.6-296.2,139.6-298.6z"/>
			<path fill="#744D28" d="M164.4-309.3c1,2.9,1.5,6.1,1.5,9.5c0,11.2-6.6,19.6-15.4,19.6c-6.2,0-11.4-4.3-13.8-10.8
				c2.2,7.1,7.6,11.9,14.2,11.9c8.8,0,15.4-8.4,15.4-19.6C166.3-302.5,165.6-306.1,164.4-309.3z"/>
		</g>
		<g display="inline">
			<path fill="#AA8561" d="M151.8-281.9c6.6,0,11.4-6.6,11.4-15.6c0-6.3-2.3-12.1-5.5-15.5c2.8,3.5,4.7,8.8,4.7,14.5
				c0,9-4.8,15.6-11.4,15.6c-2.7,0-5.1-1.1-7-3.1C146-283.4,148.7-281.9,151.8-281.9z"/>
			<path fill="#AA8561" d="M136.5-297.5c0-12.1,7-22.4,15.4-22.4c3.3,0,6.4,1.6,8.9,4.3c-2.7-3.3-6.1-5.3-9.8-5.3
				c-8.3,0-15.4,10.3-15.4,22.4c0,6.3,2.1,11.7,5.5,15.3C138.2-286.7,136.5-291.7,136.5-297.5z"/>
		</g>
		<path display="inline" d="M142.1-293.3c-2.3,3.9-2.8,8.3-1.8,12.4c-2.2-4.1-2.4-9.2,0.1-13.3c2.4-4.1,6.8-6.3,11.4-6.4
			C147.9-299.6,144.4-297,142.1-293.3z"/>
		<path display="inline" fill="#F6F3F0" d="M203.1-298.5c0,10.5-6,17.6-13.4,17.6s-13.4-7.1-13.4-17.6s6-20.4,13.4-20.4
			S203.1-309,203.1-298.5z"/>
		<path display="inline" fill="#E6E6E6" d="M198.1-313.1c1.5,3.3,2.4,7.3,2.4,11.3c0,10.5-6,17.6-13.4,17.6c-4.2,0-7.9-2.2-10.3-6.1
			c2.3,5.3,6.6,8.5,11.6,8.5c7.4,0,13.4-7.1,13.4-17.6C201.8-304.4,200.4-309.4,198.1-313.1z"/>
		<path display="inline" fill="#FFFFFF" d="M179.1-294.6c0-10.5,6-20.4,13.4-20.4c3.5,0,6.7,2.3,9.1,5.8c-2.4-5.4-6.4-9.1-11-9.1
			c-7.4,0-13.4,9.9-13.4,20.4c0,4.9,1.3,9.1,3.5,12.2C179.7-288.3,179.1-291.3,179.1-294.6z"/>
		<path display="inline" fill="#333333" d="M189.7-278.9c-8.8,0-15.4-8.4-15.4-19.6c0-12.1,7-22.4,15.4-22.4s15.4,10.3,15.4,22.4
			C205.1-287.3,198.4-278.9,189.7-278.9z M189.7-316.9c-5.9,0-11.4,8.8-11.4,18.4c0,9,4.8,15.6,11.4,15.6s11.4-6.6,11.4-15.6
			C201.1-308.1,195.6-316.9,189.7-316.9z"/>
		<g display="inline">
			<path d="M178.3-298.6c0-9.6,5.4-18.4,11.4-18.4c3.9,0,7.6,3.8,9.7,9.2c-1.9-6-5.9-10.3-10.1-10.3c-5.9,0-11.4,8.8-11.4,18.4
				c0,2.9,0.5,5.6,1.4,7.9C178.7-293.9,178.3-296.2,178.3-298.6z"/>
			<path d="M203.1-309.3c1,2.9,1.5,6.1,1.5,9.5c0,11.2-6.6,19.6-15.4,19.6c-6.2,0-11.4-4.3-13.8-10.8c2.2,7.1,7.6,11.9,14.2,11.9
				c8.8,0,15.4-8.4,15.4-19.6C205-302.5,204.3-306.1,203.1-309.3z"/>
		</g>
		<g display="inline">
			<path fill="#535353" d="M190.6-281.9c6.6,0,11.4-6.6,11.4-15.6c0-6.3-2.3-12.1-5.5-15.5c2.8,3.5,4.7,8.8,4.7,14.5
				c0,9-4.8,15.6-11.4,15.6c-2.7,0-5.1-1.1-7-3.1C184.7-283.4,187.4-281.9,190.6-281.9z"/>
			<path fill="#535353" d="M175.2-297.5c0-12.1,7-22.4,15.4-22.4c3.3,0,6.4,1.6,8.9,4.3c-2.7-3.3-6.1-5.3-9.8-5.3
				c-8.3,0-15.4,10.3-15.4,22.4c0,6.3,2.1,11.7,5.5,15.3C177-286.7,175.2-291.7,175.2-297.5z"/>
		</g>
		<path display="inline" d="M197.8-293.5c3.1,3.3,4.6,7.5,4.5,11.7c1.3-4.5,0.3-9.5-3-13c-3.3-3.4-8-4.7-12.5-3.7
			C190.7-298.4,194.7-296.7,197.8-293.5z"/>
	</g>
	<g id="眼睛5" display="none">
		<path display="inline" fill="#F6F3F0" d="M-240.6-276.9c0,10-7.1,19.1-15.8,19.1c-8.8,0-15.8-7.2-15.8-17.3
			c0-10,7.1-19.1,15.8-19.1C-247.7-294.2-240.6-286.9-240.6-276.9z"/>
		<path display="inline" fill="#E6E6E6" d="M-244.2-288.2c1.1,2.3,1.7,5,1.7,7.9c0,10-7.1,19.1-15.8,19.1c-5,0-9.5-2.4-12.4-6.4
			c2.6,5.7,8,9.4,14.2,9.4c8.8,0,15.8-9,15.8-19.1C-240.7-281.5-242-285.3-244.2-288.2z"/>
		<g display="inline">
			<path fill="#29ABE2" d="M-255.9-263c-4.7,0-9.2-1-11.8-3.1c2.2,3.5,5.9,6.2,11.2,6.2c4.8,0,8.2-2.9,10.2-5.7
				C-248.9-264-252.2-263-255.9-263z"/>
		</g>
		<path display="inline" fill="#1498C6" d="M-250.5-263.7c-2.3,1.6-4.9,2.5-7.7,2.5c-2.3,0-4.5-0.5-6.4-1.4c2.1,1.7,4.9,2.8,8.3,2.8
			c4.8,0,8.2-2.9,10.2-5.7C-247.4-264.8-248.9-264.1-250.5-263.7z"/>
		<path display="inline" fill="#FFFFFF" d="M-270.3-269c0-10,7.1-19.1,15.8-19.1c5.6,0,10.4,2.9,13.3,7.6
			c-1.5-8.1-7.9-13.6-15.5-13.6c-8.8,0-15.8,9-15.8,19.1c0,3.7,1,7,2.6,9.7C-270.2-266.5-270.3-267.7-270.3-269z"/>
		<path display="inline" fill="#8C6239" d="M-256.5-255.8c-10,0-17.8-8.5-17.8-19.3c0-11.4,8.2-21.1,17.8-21.1
			c10,0,17.8,8.5,17.8,19.3C-238.6-265.5-246.8-255.8-256.5-255.8z M-256.5-292.2c-7.4,0-13.8,8-13.8,17.1c0,8.7,6,15.3,13.8,15.3
			c7.4,0,13.8-8,13.8-17.1C-242.6-285.6-248.6-292.2-256.5-292.2z"/>
		<g display="inline">
			<path fill="#744D28" d="M-264.7-262.6c-3.5-2.7-5.7-7.2-5.7-12.5c0-9.1,6.5-17.1,13.8-17.1c2.9,0,5.5,0.9,7.7,2.5
				c-2.3-1.8-5.1-2.8-8.2-2.8c-7.4,0-13.8,8-13.8,17.1C-270.8-270-268.4-265.3-264.7-262.6z"/>
			<path fill="#744D28" d="M-246.5-293c4.5,3.5,7.4,9.2,7.4,15.7c0,11.4-8.2,21.1-17.8,21.1c-3.7,0-7.1-1.2-10-3.2
				c2.9,2.2,6.5,3.5,10.4,3.5c9.7,0,17.8-9.7,17.8-21.1C-238.6-283.7-241.7-289.6-246.5-293z"/>
		</g>
		<g display="inline">
			<path fill="#AA8561" d="M-273.4-274.2c0-11.4,8.2-21.1,17.8-21.1c4.2,0,8,1.5,11,4.1c-3.1-3-7.3-4.9-12-4.9
				c-9.7,0-17.8,9.7-17.8,21.1c0,6.3,2.6,11.7,6.8,15.2C-271.2-263.4-273.4-268.5-273.4-274.2z"/>
			<path fill="#AA8561" d="M-247.1-288.3c2.8,2.8,4.5,6.8,4.5,11.4c0,9.1-6.5,17.1-13.8,17.1c-3.2,0-6.1-1.1-8.5-3
				c2.4,2.4,5.7,3.9,9.4,3.9c7.4,0,13.8-8,13.8-17.1C-241.8-281.2-243.8-285.6-247.1-288.3z"/>
		</g>
		<g display="inline">
			<circle cx="-256.5" cy="-274.5" r="1.6"/>
		</g>
		<path display="inline" fill="#F6F3F0" d="M-233.6-274.8c0.7,8.9,7.6,16.5,15.3,15.9c7.8-0.6,13.6-7.5,12.9-16.4
			c-0.7-8.9-7.6-16.5-15.3-15.9C-228.4-290.6-234.3-283.7-233.6-274.8z"/>
		<path display="inline" fill="#E6E6E6" d="M-206.6-275.1c-0.5-6.7-4.5-12.6-9.7-14.9c4.2,2.8,7.2,8,7.7,13.8
			c0.7,8.9-5.2,15.8-12.9,16.4c-2,0.1-3.9-0.2-5.7-1c2.3,1.5,4.9,2.4,7.7,2.2C-211.8-259.3-205.9-266.2-206.6-275.1z"/>
		<path display="inline" fill="#FFFFFF" d="M-230.2-271.4c-0.7-8.9,5.2-15.8,12.9-16.4c3.3-0.2,6.5,1,9,3.2c-2.9-4-7.2-6.5-11.8-6.2
			c-7.8,0.6-13.6,7.5-12.9,16.4c0.4,5.1,2.8,9.8,6.3,12.7C-228.6-264.4-229.9-267.8-230.2-271.4z"/>
		<path display="inline" fill="#29ABE2" d="M-219.1-263.4c4.2-0.3,8.1-1.5,10.3-3.5c-1.7,3.3-4.9,5.9-9.6,6.3
			c-4.3,0.3-7.5-2-9.5-4.4C-225.4-263.8-222.4-263.1-219.1-263.4z"/>
		<path display="inline" fill="#1498C6" d="M-208.7-266.9c-0.8,0.7-1.8,1.3-3,1.8c-1.5,2-3.6,3.5-5.9,4.3
			C-213.2-261.3-210.3-263.8-208.7-266.9z"/>
		<circle display="inline" cx="-219.4" cy="-273.7" r="1.4"/>
		<path display="inline" fill="#333333" d="M-219.1-256.8c-8.3,0-15.8-7.9-16.5-17.8c-0.4-4.8,1-9.3,3.7-12.7
			c2.8-3.4,6.7-5.5,11-5.8c8.7-0.6,16.7,7.5,17.5,17.8c0.4,4.8-1,9.3-3.7,12.7c-2.8,3.4-6.7,5.5-11,5.8
			C-218.5-256.8-218.8-256.8-219.1-256.8z M-219.9-289.2c-0.2,0-0.4,0-0.7,0c-3.2,0.2-6.2,1.8-8.2,4.3c-2.1,2.6-3.2,6.2-2.9,9.9
			c0.6,8,6.8,14.6,13.2,14.1c3.2-0.2,6.2-1.8,8.2-4.3c2.1-2.6,3.2-6.2,2.9-9.9C-207.9-282.8-213.7-289.2-219.9-289.2z"/>
		<g display="inline">
			<path d="M-203.3-275.4c-0.4-5.9-3.3-11.1-7.2-14.3c3.7,3.3,6.2,8.2,6.7,13.8c0.4,4.8-1,9.3-3.7,12.7c-2.8,3.4-6.7,5.5-11,5.8
				c-0.3,0-0.6,0-1,0c-3.5,0-6.8-1.4-9.5-3.7c2.8,2.6,6.4,4.2,10.1,4.2c0.3,0,0.6,0,1,0c4.4-0.3,8.3-2.4,11-5.8
				C-204.3-266.1-203-270.6-203.3-275.4z"/>
			<path d="M-226.4-263.9c-2.8-2.6-4.9-6.6-5.2-11c-0.3-3.8,0.7-7.3,2.9-9.9c2.1-2.6,5-4.1,8.2-4.3c0.2,0,0.4,0,0.7,0
				c2.3,0,4.6,0.9,6.5,2.4c-2.1-1.8-4.6-2.9-7.1-2.9c-0.2,0-0.4,0-0.7,0c-3.2,0.2-6.2,1.8-8.2,4.3c-2.1,2.6-3.2,6.2-2.9,9.9
				C-231.8-270.7-229.5-266.5-226.4-263.9z"/>
		</g>
		<g display="inline">
			<path fill="#535353" d="M-213.1-286.6c3.1,2.6,5.4,6.8,5.7,11.5c0.3,3.8-0.7,7.3-2.9,9.9c-2.1,2.6-5,4.1-8.2,4.3
				c-2.3,0.2-4.5-0.6-6.5-1.9c2.2,1.8,4.8,2.8,7.5,2.6c3.2-0.2,6.2-1.8,8.2-4.3c2.1-2.6,3.2-6.2,2.9-9.9
				C-206.7-279.6-209.4-284.1-213.1-286.6z"/>
			<path fill="#535353" d="M-234.6-273.9c-0.4-4.8,1-9.3,3.7-12.7c2.8-3.4,6.7-5.5,11-5.8c3.2-0.2,6.4,0.7,9.1,2.6
				c-2.9-2.3-6.4-3.6-10.1-3.3c-4.4,0.3-8.3,2.4-11,5.8c-2.8,3.4-4.1,8-3.7,12.7c0.5,6.4,3.8,12,8.3,15.1
				C-231.3-262.8-234.2-268-234.6-273.9z"/>
		</g>
	</g>
	<g id="眼睛6" display="none">
		<path display="inline" fill="#F6F3F0" d="M-10.7-287.2c0,8.9-6.1,14.7-13.6,14.7S-38-278.3-38-287.2s6.1-17.4,13.6-17.4
			S-10.7-296-10.7-287.2z"/>
		<path display="inline" fill="#E6E6E6" d="M-12.1-291.5c0,0.4,0.1,0.9,0.1,1.3c0,8.9-6.7,14.7-14.9,14.7c-2.8,0-5.5-0.7-7.7-2
			c2.4,2.3,5.6,3.6,9.2,3.6c7.5,0,13.6-5.8,13.6-14.7C-11.9-289.5-12-290.5-12.1-291.5z"/>
		<path display="inline" fill="#FFFFFF" d="M-34.7-284.1c0-8.9,6.1-17.4,13.6-17.4c1.6,0,3.2,0.4,4.6,1.1c-2.1-1.8-4.6-3-7.4-3
			c-7.5,0-13.6,8.6-13.6,17.4c0,6.3,3.1,11,7.6,13.2C-32.8-275.3-34.7-279.3-34.7-284.1z"/>
		<path display="inline" fill="#8C6239" d="M-24.3-270.5c-9,0-14.6-7-14.6-16.6c0-10.3,6.3-17.4,14.6-17.4s14.6,7.1,14.6,17.4
			C-9.7-277.5-15.3-270.5-24.3-270.5z M-24.3-302.7c-6.1,0-11.7,7.4-11.7,15.5c0,7.4,4.9,12.7,11.7,12.7s11.7-5.3,11.7-12.7
			C-12.6-295.3-18.2-302.7-24.3-302.7z"/>
		<g display="inline">
			<path fill="#744D28" d="M-14.4-300.2c2.6,3.1,4.1,7.4,4.1,12.5c0,9.6-5.6,16.6-14.6,16.6c-4.3,0-7.7-1.6-10.2-4.2
				c2.5,3,6.2,4.8,10.7,4.8c9,0,14.6-7,14.6-16.6C-9.7-292.6-11.5-297.1-14.4-300.2z"/>
			<path fill="#744D28" d="M-24.8-303.1c-6.1,0-11.7,7.4-11.7,15.5c0,3.8,1.3,7.1,3.6,9.4c-1.9-2.2-3.1-5.3-3.1-8.8
				c0-8.1,5.6-15.5,11.7-15.5c2.6,0,5,1.3,7,3.4C-19.4-301.6-22.1-303.1-24.8-303.1z"/>
		</g>
		<g display="inline">
			<path fill="#AA8561" d="M-23.8-273.8c6.8,0,11.7-5.3,11.7-12.7c0-4.7-1.9-9.1-4.6-12c2.4,2.9,4,7,4,11.3
				c0,7.4-4.9,12.7-11.7,12.7c-3.3,0-6.2-1.3-8.3-3.4C-30.5-275.4-27.4-273.8-23.8-273.8z"/>
			<path fill="#AA8561" d="M-38.4-286.5c0-10.3,6.3-17.4,14.6-17.4c4,0,7.4,1.6,10,4.4c-2.6-3.2-6.4-5.1-10.6-5.1
				c-8.3,0-14.6,7.1-14.6,17.4c0,5,1.5,9.3,4.3,12.3C-37.1-277.8-38.4-281.9-38.4-286.5z"/>
		</g>
		<circle display="inline" cx="-24" cy="-288" r="1.6"/>
		<path display="inline" fill="#F6F3F0" d="M12-304.2c-6.8,0-13,8.2-13,17.1c0,8.1,5.5,14,13,14s13-5.9,13-14
			C25-296,18.8-304.2,12-304.2z"/>
		<path display="inline" fill="#FFFFFF" d="M1.9-283.5c0-9,6.2-17.1,13-17.1c2.5,0,5,1.1,7.1,3c-2.4-3.5-5.8-5.8-9.4-5.8
			c-6.8,0-13,8.2-13,17.1c0,4.6,1.8,8.5,4.7,11C2.8-277.5,1.9-280.3,1.9-283.5z"/>
		<path display="inline" fill="#E6E6E6" d="M21.1-297.2c1,2.3,1.6,5,1.6,7.7c0,8.1-5.7,14-13.6,14c-2.6,0-4.9-0.6-6.9-1.8
			c2.1,1.7,4.8,2.6,7.8,2.6c7.5,0,13-5.9,13-14C23.1-291.7,22.3-294.6,21.1-297.2z"/>
		<path display="inline" fill="#333333" d="M12-271.6c-8.7,0-14-6.8-14-16.1c0-10.2,6-17.1,14-17.1s14,6.9,14,17.1
			C26-278.4,20.7-271.6,12-271.6z M12-302.7c-5.6,0-10.9,7.3-10.9,15c0,7,4.5,11.9,10.9,11.9s10.9-4.9,10.9-11.9
			C22.9-295.4,17.6-302.7,12-302.7z"/>
		<g display="inline">
			<path d="M4.1-279.3c-1.9-2.1-3-5.1-3-8.6c0-7.7,5.3-15,10.9-15c2,0,3.9,0.9,5.6,2.5c-1.8-2-4.1-3.2-6.4-3.2
				c-5.6,0-10.9,7.3-10.9,15C0.3-284.6,1.7-281.4,4.1-279.3z"/>
			<path d="M20.7-301.5c2.8,3,4.5,7.5,4.5,13c0,9.4-5.3,16.1-14,16.1c-3.7,0-6.8-1.2-9.1-3.3c2.4,2.6,5.7,4.1,9.8,4.1
				c8.7,0,14-6.8,14-16.1C25.9-293.8,23.9-298.5,20.7-301.5z"/>
		</g>
		<g display="inline">
			<path fill="#535353" d="M12.5-275.2c6.4,0,10.9-4.9,10.9-11.9c0-4.1-1.5-8-3.7-10.8c1.9,2.8,3.2,6.4,3.2,10.2
				c0,7-4.5,11.9-10.9,11.9c-3.4,0-6.3-1.4-8.2-3.8C5.7-276.9,8.8-275.2,12.5-275.2z"/>
			<path fill="#535353" d="M-1.5-287.2c0-10.2,6-17.1,14-17.1c4.2,0,7.9,1.9,10.4,5.2c-2.5-3.7-6.4-5.9-10.9-5.9
				c-8,0-14,6.9-14,17.1c0,4.4,1.2,8.3,3.4,11.1C-0.5-279.5-1.5-283.1-1.5-287.2z"/>
		</g>
		<circle display="inline" cx="12.3" cy="-288.6" r="1.6"/>
	</g>
	<g id="眼睛7" display="none">
		<path display="inline" fill="#F6F3F0" d="M-27.9-285.9c5-0.3,9.2,1.1,12.1,4.6c0.7,0.8,1.7,0,1.3-1c-2.1-5.5-6.5-11.7-14.9-12
			c-7.5-0.3-11.7,4.4-13.7,9.8c-1.1,2.8,1.8,5.5,3.8,3.5C-36.3-283.9-32.2-285.7-27.9-285.9z"/>
		<path display="inline" fill="#E6E6E6" d="M-14.9-282.9c-0.7-1.7-1.6-3.5-2.7-5.2c0.9,1.5,1.7,3,2.2,4.5c0.4,1-0.7,1.8-1.3,1
			c-2.9-3.4-7.1-4.8-12.1-4.6c-4.4,0.2-8.5,2-11.4,4.8c-1.1,1-2.4,0.8-3.2-0.1c0.7,1.5,2.4,2.2,3.7,0.9c2.9-2.8,7-4.6,11.4-4.8
			c5-0.3,9.2,1.1,12.1,4.6C-15.6-281.1-14.6-281.9-14.9-282.9z"/>
		<path display="inline" fill="#FFFFFF" d="M-41.6-282.9c2-5.4,6.2-10.2,13.7-9.8c3.1,0.1,5.6,1.1,7.7,2.4c-2.3-2-5.3-3.4-9.2-3.5
			c-7.5-0.3-11.7,4.4-13.7,9.8c-0.7,1.9,0.4,3.8,1.8,4.1C-41.8-280.7-42-281.8-41.6-282.9z"/>
		<path display="inline" fill="#8C6239" d="M-40.8-279.4c-0.6,0-1.2-0.2-1.7-0.5c-1.3-0.9-2.3-2.9-1.5-5c2.6-7.1,7.9-10.8,14.7-10.5
			c7.2,0.3,12.8,4.8,15.8,12.7c0.4,0.9,0,2-0.8,2.5c-0.8,0.4-1.7,0.3-2.2-0.4c-2.5-3-6.4-4.5-11.3-4.2l0,0c-4,0.2-8,1.9-10.8,4.6
			C-39.2-279.7-40-279.4-40.8-279.4z M-30.1-293.4c-7.1,0-10.4,5-12,9.2c-0.4,1.1,0,2.2,0.7,2.6c0.4,0.2,0.9,0.4,1.5-0.2
			c3.1-3,7.5-4.9,12.1-5.1c5.1-0.3,9.3,1.2,12.2,4.2c-2-4.9-6-10.3-13.7-10.7C-29.7-293.4-29.9-293.4-30.1-293.4z"/>
		<g display="inline">
			<path fill="#744D28" d="M-42.2-284.2c1.6-4.2,5-9.2,12-9.2c0.2,0,0.5,0,0.7,0c7.5,0.3,11.4,5.5,13.5,10.2c0,0,0,0,0,0
				c-2-4.9-6-10.3-13.7-10.7c-0.2,0-0.5,0-0.7,0c-7.1,0-10.4,5-12,9.2c-0.3,0.7-0.2,1.4,0.1,1.9C-42.4-283.1-42.4-283.7-42.2-284.2z
				"/>
			<path fill="#744D28" d="M-13.5-282.7c0-0.1-0.1-0.2-0.2-0.4c0.3,0.9,0,1.9-0.8,2.4c-0.8,0.4-1.7,0.3-2.2-0.4
				c-2.5-3-6.4-4.5-11.3-4.2c-4,0.2-8,1.9-10.8,4.6c-0.7,0.6-1.4,0.9-2.2,0.9c-0.6,0-1.2-0.2-1.7-0.5c-0.6-0.4-1.1-1-1.4-1.7
				c0.3,0.9,0.9,1.7,1.6,2.1c0.5,0.4,1.1,0.5,1.7,0.5c0.8,0,1.6-0.3,2.2-0.9c2.8-2.7,6.7-4.4,10.8-4.6c4.9-0.3,8.8,1.2,11.3,4.2
				c0.6,0.7,1.5,0.9,2.2,0.4C-13.5-280.8-13.2-281.8-13.5-282.7z"/>
		</g>
		<g display="inline">
			<path fill="#AA8561" d="M-41.1-281.1c0.4,0.2,0.9,0.4,1.5-0.2c3.1-3,7.5-4.9,12.1-5.1c5.1-0.3,9.3,1.2,12.2,4.2
				c-0.8-1.9-1.9-3.9-3.4-5.7c1.3,1.6,2.3,3.4,3,5.2c-2.9-3-7.1-4.4-12.2-4.2c-4.5,0.2-8.9,2.1-12.1,5.1c-0.6,0.6-1.1,0.4-1.5,0.2
				c-0.1,0-0.1-0.1-0.1-0.1C-41.5-281.5-41.3-281.3-41.1-281.1z"/>
			<path fill="#AA8561" d="M-43.6-284.5c2.6-7.1,7.9-10.8,14.7-10.5c4.8,0.2,8.8,2.3,11.9,5.9c-3.1-4-7.4-6.2-12.3-6.4
				c-6.8-0.3-12.1,3.4-14.7,10.5c-0.7,1.8-0.1,3.5,0.9,4.5C-43.9-281.5-44.2-282.9-43.6-284.5z"/>
		</g>
		<path display="inline" d="M-38.7-290.1c0.7,1.4,2.3,2.1,3.4,1.3c1.2-0.7,1.5-2.6,0.9-4C-35.8-292.3-37.5-291.7-38.7-290.1z"/>
		<path display="inline" fill="#F6F3F0" d="M15.5-286.1c-5-0.3-9.2,1.1-12.1,4.6c-0.7,0.8-1.7,0-1.3-1c2.1-5.5,6.5-11.7,14.9-12
			c7.5-0.3,11.7,4.4,13.7,9.8c1.1,2.8-1.8,5.5-3.8,3.5C24-284.1,19.8-285.9,15.5-286.1z"/>
		<path display="inline" fill="#E6E6E6" d="M31.2-284.9c-0.1-0.4-0.3-0.7-0.4-1.1c0.3,2.5-2.2,4.5-4,2.7c-2.9-2.8-7-4.6-11.4-4.8
			c-5-0.3-9.2,1.1-12.1,4.6c-0.1,0.2-0.3,0.3-0.5,0.3c-0.1,0.2-0.2,0.4-0.2,0.6c-0.4,1,0.7,1.8,1.3,1c2.9-3.4,7.1-4.8,12.1-4.6
			c4.4,0.2,8.5,2,11.4,4.8C29.4-279.4,32.3-282,31.2-284.9z"/>
		<path display="inline" fill="#FFFFFF" d="M3.8-281.9c2.3-5.1,6.6-10.3,14.4-10.7c5.7-0.3,9.4,2.4,11.8,6c-2.2-4.6-6.3-8.3-12.9-8
			c-8.5,0.4-12.8,6.6-14.9,12c-0.4,1,0.7,1.8,1.3,1C3.5-281.7,3.6-281.8,3.8-281.9z"/>
		<path display="inline" fill="#333333" d="M28.4-279.6c-0.8,0-1.6-0.3-2.2-0.9c-2.8-2.7-6.7-4.4-10.8-4.6l0,0
			c-4.9-0.3-8.8,1.2-11.3,4.2c-0.6,0.7-1.5,0.9-2.2,0.4c-0.8-0.5-1.1-1.5-0.8-2.5c3-7.9,8.6-12.4,15.8-12.7
			c6.9-0.3,12.1,3.4,14.7,10.5c0.8,2.1-0.1,4.1-1.5,5C29.6-279.7,29-279.6,28.4-279.6z M14.3-287.1c0.4,0,0.8,0,1.2,0l0,0
			c4.5,0.2,8.9,2.1,12.1,5.1c0.6,0.6,1.1,0.4,1.5,0.2c0.7-0.4,1.1-1.5,0.7-2.6c-1.6-4.4-5.2-9.5-12.7-9.2
			c-7.7,0.3-11.7,5.9-13.8,10.7C6-285.7,9.8-287.1,14.3-287.1z"/>
		<g display="inline">
			<path d="M17-293.5c7.6-0.3,11.1,4.8,12.7,9.2c0,0,0,0.1,0,0.1c0-0.3,0-0.6-0.2-0.9c-1.6-4.4-5.2-9.5-12.7-9.2
				c-7.7,0.3-11.7,5.9-13.8,10.7c0.3-0.3,0.5-0.5,0.8-0.8C6.1-288.7,10.1-293.2,17-293.5z"/>
			<path d="M31.8-284.5c0.1,1.6-0.7,3-1.7,3.7c-0.5,0.4-1.1,0.5-1.7,0.5c-0.8,0-1.6-0.3-2.2-0.9c-2.8-2.7-6.7-4.4-10.8-4.6
				c-4.9-0.3-8.8,1.2-11.3,4.2c-0.6,0.7-1.5,0.9-2.2,0.4c-0.4-0.2-0.7-0.6-0.8-1c0,0.7,0.3,1.4,0.9,1.7c0.8,0.4,1.7,0.3,2.2-0.4
				c2.5-3,6.4-4.5,11.3-4.2c4,0.2,8,1.9,10.8,4.6c0.7,0.6,1.4,0.9,2.2,0.9c0.6,0,1.2-0.2,1.7-0.5C31.4-280.8,32.3-282.6,31.8-284.5z
				"/>
		</g>
		<g display="inline">
			<path fill="#535353" d="M15.5-287c-0.4,0-0.8,0-1.2,0c-3.9,0-7.3,1.1-9.9,3.2c-0.2,0.5-0.5,1-0.7,1.5c2.7-2.8,6.5-4.2,11.1-4.2
				c0.4,0,0.8,0,1.2,0c3.9,0.2,7.7,1.6,10.7,4C23.7-285.2,19.7-286.8,15.5-287z"/>
			<path fill="#535353" d="M25.7-290.6c2,1.8,3.3,4.1,4.1,6.3c0.4,1.1,0,2.2-0.7,2.6c-0.3,0.2-0.8,0.3-1.3,0
				c0.1,0.1,0.2,0.1,0.3,0.2c0.6,0.6,1.1,0.4,1.5,0.2c0.7-0.4,1.1-1.5,0.7-2.6C29.4-286.3,28-288.8,25.7-290.6z"/>
			<path fill="#535353" d="M1.6-282.5c3-7.9,8.6-12.4,15.8-12.7c3.7-0.2,6.9,0.9,9.5,2.9c-2.7-2.4-6.1-3.5-10-3.4
				c-7.2,0.3-12.8,4.8-15.8,12.7c-0.4,0.9,0,2,0.8,2.5c0,0,0,0,0,0C1.5-280.9,1.3-281.7,1.6-282.5z"/>
			<path fill="#535353" d="M25.5-281.1c0.2,0.2,0.5,0.4,0.7,0.6c0.1,0.1,0.2,0.1,0.3,0.2C26.2-280.6,25.8-280.8,25.5-281.1z"/>
		</g>
		<path display="inline" d="M26.3-290.3c-0.7,1.4-2.3,2.1-3.4,1.3c-1.2-0.7-1.5-2.6-0.9-4C23.4-292.5,25.2-291.9,26.3-290.3z"/>
	</g>
</g>
</svg>
