<?xml version="1.0" encoding="utf-8"?>
<!-- Generator: Adobe Illustrator 18.0.0, SVG Export Plug-In . SVG Version: 6.00 Build 0)  -->
<!DOCTYPE svg PUBLIC "-//W3C//DTD SVG 1.1//EN" "http://www.w3.org/Graphics/SVG/1.1/DTD/svg11.dtd">
<svg version="1.1" xmlns="http://www.w3.org/2000/svg" xmlns:xlink="http://www.w3.org/1999/xlink" x="0px" y="0px"
	 viewBox="0 0 150 50" enable-background="new 0 0 150 50" xml:space="preserve">
<g id="图层_1" display="none">
	<rect x="-425" y="-475" display="inline" fill="#777676" width="1000" height="1000"/>
	<path display="inline" fill="#333333" d="M39-119.8c-5,0-9,3.1-9,8.1l6,1h12.1C48.1-115.8,44-119.8,39-119.8z"/>
	<path display="inline" fill="#535353" d="M40.6-118.9c1.2,0,2.4,0.2,3.5,0.7c-1.5-1-3.2-1.6-5.1-1.6c-5,0-9,3.1-9,8.1l1.7,0.3
		C31.9-116.1,35.9-118.9,40.6-118.9z"/>
	<path display="inline" d="M47.5-110.8L47.5-110.8l0.5,0.1c0-2.5-1-4.8-2.7-6.4C46.8-115.5,47.6-113.3,47.5-110.8L47.5-110.8z"/>
	<path display="inline" fill="#8C6239" d="M-89.7-139.5c-1.4-2.4-3.9-3.1-6.3-1.7c-0.1,0-7.5,4.7-5.4,8.3c0.6,1.1,1.9,1.5,3.3,1.5
		c2.7,0,6.1-1.4,6.7-1.8c1.6-0.9,2.1-2.1,2.3-3C-88.9-137.3-89.1-138.4-89.7-139.5z"/>
	<path display="inline" fill="#744D28" d="M-96.5-140c-0.4,0-0.8,0-1.2,0.1c-2.1,1.7-5,4.6-3.7,7c0.6,1.1,1.9,1.5,3.3,1.5
		c2.7,0,6.1-1.4,6.7-1.8c1.6-0.9,2.1-2.1,2.3-3c0-0.2,0-0.4,0.1-0.6C-91.2-138.7-93.8-140-96.5-140z"/>
	<path display="inline" fill="#C69C6D" d="M-232.8-115.7c-5,0-9.1,4.1-9.1,9.1h18.3C-223.6-111.6-227.7-115.7-232.8-115.7z"/>
	<path display="inline" fill="#BD9261" d="M-231.5-115.6c-0.4-0.1-0.8-0.1-1.3-0.1c-5,0-9.1,4.1-9.1,9.1h3.1
		C-238.8-110.9-235.7-114.7-231.5-115.6z"/>
	<path display="inline" fill="#333333" d="M-267.2-115.7c-5,0-9.1,4.1-9.1,9.1h18.3C-258.1-111.6-262.2-115.7-267.2-115.7z"/>
	<path display="inline" d="M-265.7-115.5c3.9,1.1,6.7,4.8,6.7,9h0.8C-258.1-111.1-261.4-114.8-265.7-115.5z"/>
	<path display="inline" fill="#535353" d="M-266.5-115.6c-0.2,0-0.4,0-0.7,0c-5,0-9.1,4.1-9.1,9.1h1.3
		C-275-111.3-271.3-115.3-266.5-115.6z"/>
	<path display="inline" fill="#8C6239" d="M-240-316.8l-5.4-1.9l3.1,4.8c7.5,11.8,10.8,13.3,12.3,13.3c0.3,0,0.5-0.1,0.7-0.1
		c0.8-0.2,2.1-0.9,2.2-3.3C-226.6-311.9-238.6-316.3-240-316.8z"/>
	<path display="inline" fill="#744D28" d="M-238.9-316.4c-0.5-0.2-0.9-0.3-1.1-0.4l-5.2-1.8c4,2.4,7,7.3,7.9,12.1
		c1.9,2.5,3.4,3.9,4.5,4.8c0-0.4,0.1-0.8,0.1-1.2C-232.6-307.6-235.1-313.1-238.9-316.4z"/>
	<path display="inline" fill="#8C6239" d="M-88-316.8l-5.4-1.9l3.1,4.8c7.5,11.8,10.8,13.3,12.3,13.3c0.3,0,0.5-0.1,0.7-0.1
		c0.8-0.2,2.1-0.9,2.2-3.3C-74.6-311.9-86.6-316.3-88-316.8z"/>
	<path display="inline" fill="#744D28" d="M-86.9-316.3c-0.5-0.2-0.9-0.3-1.1-0.4l-5.2-1.8c4,2.4,7,7.3,7.9,12.1
		c1.9,2.5,3.4,3.9,4.5,4.8c0-0.4,0.1-0.8,0.1-1.2C-80.6-307.6-83.1-313.1-86.9-316.3z"/>
	<path display="inline" fill="#C69C6D" d="M70.9-299.7c-5,0-9.1,4.1-9.1,9.1h18.3C80.1-295.6,76-299.7,70.9-299.7z"/>
	<path display="inline" fill="#BD9261" d="M72.2-299.6c-0.4-0.1-0.8-0.1-1.3-0.1c-5,0-9.1,4.1-9.1,9.1h3.1
		C64.9-294.9,68-298.7,72.2-299.6z"/>
	<path display="inline" fill="#333333" d="M36.5-299.7c-5,0-9.1,4.1-9.1,9.1h18.3C45.6-295.6,41.5-299.7,36.5-299.7z"/>
	<path display="inline" d="M38-299.5c3.9,1.1,6.7,4.8,6.7,9h0.8C45.6-295,42.4-298.8,38-299.5z"/>
	<path display="inline" fill="#535353" d="M37.2-299.6c-0.2,0-0.4,0-0.7,0c-5,0-9.1,4.1-9.1,9.1h1.3
		C28.7-295.3,32.4-299.3,37.2-299.6z"/>
	<path display="inline" fill="#8C6239" d="M-110.3-315.6c-1.4-2.2-2.7-4.1-3.8-5.6c1-1.2,1.7-2.7,1.7-4.4c0-3.7-3-6.7-6.7-6.7
		c-3.7,0-6.7,3-6.7,6.7c0,0.8,0.2,1.6,0.4,2.3c1.5,6.6,11.5,10.2,12.7,10.7l5.4,1.9L-110.3-315.6z"/>
	<path display="inline" fill="#744D28" d="M-110.3-315.6c-1.4-2.2-2.7-4.1-3.8-5.6c1-1.2,1.7-2.7,1.7-4.4c0-3-2-5.5-4.7-6.4
		c2.3,1.1,3.9,3.4,3.9,6.1c0,1.7-0.6,3.2-1.7,4.4c1.1,1.5,2.4,3.4,3.8,5.6l3.1,4.8l-5.4-1.9c-0.1,0-0.2-0.1-0.3-0.1
		c0.5,0.2,0.9,0.4,1.1,0.4l5.4,1.9L-110.3-315.6z"/>
	<path display="inline" fill="#333333" d="M-115.2-299.7c-5,0-9.1,4.1-9.1,9.1h18.3C-106.1-295.6-110.2-299.7-115.2-299.7z"/>
	<path display="inline" d="M-113.7-299.5c3.9,1.1,6.7,4.8,6.7,9h0.8C-106.1-295-109.3-298.8-113.7-299.5z"/>
	<path display="inline" fill="#535353" d="M-114.5-299.6c-0.2,0-0.4,0-0.7,0c-5,0-9.1,4.1-9.1,9.1h1.3
		C-123-295.3-119.3-299.3-114.5-299.6z"/>
	<path display="inline" fill="#8C6239" stroke="#8C6239" stroke-width="4" stroke-miterlimit="10" d="M232.3-373
		c0-1.1,0.7-1.5,1.6-1.5s1.6,0.4,1.6,1.5c0,1.1-0.7,2.3-1.6,2.3S232.3-372,232.3-373z"/>
	<polygon display="inline" fill="#C69C6D" points="183.6,-399.7 242.8,-399.7 215.5,-336 	"/>
	<polygon display="inline" fill="#B18451" points="216.8,-343.2 208.8,-356.8 217.2,-340 236,-383.9 	"/>
	<polygon display="inline" fill="#DCB890" points="187.6,-397.5 242.7,-399.6 242.8,-399.7 183.6,-399.7 207.4,-352.1 	"/>
	<path display="inline" fill="#8C6239" d="M-246.8-296.2c0,2.6-0.9,4.7-3.5,4.7c-2.6,0-3.5-2.1-3.5-4.7s0.9-4.7,3.5-4.7
		C-247.7-300.8-246.8-298.7-246.8-296.2z"/>
	<path display="inline" fill="#F9F3F3" d="M-239.8-352.1c0,7.4-6,10.3-13.4,10.3c-7.4,0-13.4-2.9-13.4-10.3s6-16.4,13.4-16.4
		C-245.8-368.6-239.8-359.5-239.8-352.1z"/>
	<path display="inline" fill="#FFFFFF" d="M-265.8-350.9c0-7.4,6-16.4,13.4-16.4c4.2,0,8,3,10.4,6.9c-2.4-4.5-6.5-8.1-11.1-8.1
		c-7.4,0-13.4,9.1-13.4,16.4c0,2.3,0.6,4.2,1.6,5.7C-265.5-347.7-265.8-349.2-265.8-350.9z"/>
	<path display="inline" fill="#E6E6E6" d="M-243.8-363.3c1.8,2.9,2.9,6.4,2.9,9.5c0,7.4-6,10.3-13.4,10.3c-4.6,0-8.7-1.1-11.1-3.8
		c2.1,3.8,6.8,5.4,12.2,5.4c7.4,0,13.4-2.9,13.4-10.3C-239.7-355.9-241.3-360.1-243.8-363.3z"/>
	<path display="inline" fill="#8C6239" stroke="#8C6239" stroke-width="4" stroke-miterlimit="10" d="M-259.5-370.5
		c0-2.9,2.8-4.1,6.3-4.1c3.5,0,6.3,1.1,6.3,4.1s-2.8,6.5-6.3,6.5C-256.6-364-259.5-367.6-259.5-370.5z"/>
	<path display="inline" fill="#AA8561" d="M-259.9-369.8c0-3.8,3.1-6.1,8.3-6.1c1.5,0,2.8,0.2,3.9,0.5c-1.4-0.8-3.2-1.2-5.5-1.2
		c-5.2,0-8.3,2.3-8.3,6.1c0,3.3,2.6,7.1,6.3,8.2C-258-363.9-259.9-367-259.9-369.8z"/>
	<path display="inline" fill="#744D28" d="M-247.3-375.1c1.2,1,1.8,2.4,1.8,4.1c0,3.9-3.6,8.5-8.3,8.5c-1.6,0-3.1-0.5-4.3-1.4
		c1.4,1.1,3.1,1.9,5,1.9c4.7,0,8.3-4.6,8.3-8.5C-244.9-372.5-245.7-374.1-247.3-375.1z"/>
	<path display="inline" fill="#333333" d="M-267.2-299.7c-5,0-9.1,4.1-9.1,9.1h18.3C-258.1-295.6-262.2-299.7-267.2-299.7z"/>
	<path display="inline" d="M-265.7-299.5c3.9,1.1,6.7,4.8,6.7,9h0.8C-258.1-295-261.3-298.8-265.7-299.5z"/>
	<path display="inline" fill="#C69C6D" d="M-233-299.7c-5,0-9.1,4.1-9.1,9.1h18.3C-223.8-295.6-227.9-299.7-233-299.7z"/>
	<path display="inline" fill="#8C6239" stroke="#8C6239" stroke-width="4" stroke-miterlimit="10" d="M-260-314.9
		c0,0-12,4.1-11.5,10.8C-271.1-297.4-260-314.9-260-314.9z"/>
	<path display="inline" fill="#744D28" d="M-255.9-318.4l-2.9,4.5c-7.5,11.8-10.8,13.3-12.3,13.3c0,0,0,0,0,0c0.2,0,0.3,0.1,0.5,0.1
		c1.5,0,4.8-1.5,12.3-13.3l3.1-4.8L-255.9-318.4z"/>
	<path display="inline" fill="#AA8561" d="M-272.5-303.4c-0.5-8,11.5-12.3,12.9-12.8l3.5-1.2l0.8-1.2l-5.4,1.9
		c-1.4,0.5-13.4,4.9-12.9,12.8c0.2,2.4,1.5,3.1,2.2,3.3c0,0,0,0,0.1,0C-271.8-301.1-272.4-301.9-272.5-303.4z"/>
	<path display="inline" fill="#AA8561" d="M-239.4-315.6c1.1,0.4,8.6,3.1,11.7,8.1c-2.5-5.7-11.1-8.8-12.2-9.2l-5.4-1.9l0.8,1.2
		L-239.4-315.6z"/>
	<path display="inline" fill="#C69C6D" d="M-237-303.6c0,7.4-6,10.3-13.4,10.3s-13.4-2.9-13.4-10.3c0-7.4,6-16.4,13.4-16.4
		S-237-311-237-303.6z"/>
	<path display="inline" fill="#BD9261" d="M-240.7-314.4c1.9,3,3,6.5,3,9.7c0,7.4-6,10.3-13.4,10.3c-4.8,0-9-1.2-11.3-4.1
		c2.1,3.7,6.7,5.2,12.1,5.2c7.4,0,13.4-2.9,13.4-10.3C-236.9-307.2-238.4-311.2-240.7-314.4z"/>
	<path display="inline" fill="#DCB890" d="M-262.8-302.8c0-7.4,6-16.4,13.4-16.4c2.7,0,5.1,1.2,7.2,3c-2.2-2.3-5-3.9-8.1-3.9
		c-7.4,0-13.4,9.1-13.4,16.4c0,3.3,1.2,5.7,3.1,7.3C-261.9-297.9-262.8-300-262.8-302.8z"/>
	<g display="inline">
		<path fill="#8C6239" d="M-252.7-346.7c-1.9,0-3.7-0.5-4.3-1.1c-0.9-0.9-0.4-2.3,0.1-3.3c-0.9-0.9-2.3-2.6-2.4-4.3
			c0-0.9,0.3-1.6,0.9-2.2c1.9-1.9,6.2-1.8,8.5-1.4c1.7,0.3,2.7,0.9,3,1.7c0.7,1.7-0.7,4.2-1.7,5.6c0.5,0.5,1.1,1.2,1.1,2
			c0,0.6-0.2,1.4-1.2,2.1C-249.8-347-251.2-346.7-252.7-346.7z M-255.5-349.2c0.8,0.4,4.1,0.9,5.7-0.2c0.3-0.2,0.3-0.3,0.3-0.3
			c0-0.2-0.5-0.7-1-1l-1-0.6l0.7-0.9c1.2-1.5,2.3-3.7,2-4.4c-0.2-0.2-1.5-0.7-3.6-0.7c-2.1-0.1-3.9,0.4-4.6,1
			c-0.2,0.2-0.3,0.4-0.3,0.7c0,1.1,1.5,2.7,2.3,3.4l0.7,0.6l-0.5,0.7C-255.1-350.3-255.5-349.5-255.5-349.2z"/>
	</g>
	<g display="inline">
		<path fill="#744D28" d="M-255.9-349.4c0.1,0.1,0.2,0.1,0.4,0.2c0.1-0.4,0.4-1,0.7-1.6l0.5-0.7l-0.7-0.6c-0.9-0.7-2.3-2.3-2.3-3.4
			c0-0.3,0.1-0.5,0.3-0.7c0.7-0.7,2.5-1.1,4.6-1c1.5,0,2.6,0.3,3.2,0.5c0,0,0,0,0,0c-0.2-0.2-1.5-0.7-3.6-0.7
			c-2.1-0.1-3.9,0.4-4.6,1c-0.2,0.2-0.3,0.4-0.3,0.7c0,1.1,1.5,2.7,2.3,3.4l0.7,0.6l-0.5,0.7C-255.6-350.5-255.9-349.7-255.9-349.4z
			"/>
		<path fill="#744D28" d="M-247-357.4c-0.2-0.5-0.6-0.9-1.3-1.2c0.4,0.3,0.7,0.6,0.9,0.9c0.7,1.7-0.7,4.2-1.7,5.6
			c0.5,0.5,1.1,1.2,1.1,2c0,0.6-0.2,1.4-1.2,2.1c-1,0.7-2.5,1-4,1c-1.4,0-2.8-0.3-3.7-0.7c0.8,0.5,2.4,0.9,4.1,0.9
			c1.4,0,2.9-0.3,4-1c1-0.7,1.2-1.5,1.2-2.1c0-0.8-0.6-1.5-1.1-2C-247.7-353.1-246.2-355.7-247-357.4z"/>
	</g>
	<path display="inline" fill="#AA8561" d="M-256.7-347.6c-0.9-0.9-0.4-2.3,0.1-3.3c-0.9-0.9-2.3-2.6-2.4-4.3c0-0.9,0.3-1.6,0.9-2.2
		c1.9-1.9,6.2-1.8,8.5-1.4c0.9,0.2,1.6,0.4,2.1,0.7c-0.5-0.4-1.3-0.7-2.4-1c-2.3-0.5-6.6-0.5-8.5,1.4c-0.6,0.6-0.9,1.4-0.9,2.2
		c0.1,1.7,1.5,3.4,2.4,4.3c-0.5,1-1,2.4-0.1,3.3C-256.9-347.7-256.8-347.6-256.7-347.6C-256.7-347.6-256.7-347.6-256.7-347.6z"/>
	<path display="inline" d="M-254.1-351.6c0,0,1-3.7,2.5-0.1C-251.5-351.7-252.5-348-254.1-351.6z"/>
	<path display="inline" fill="#8C6239" d="M-246.8-112.2c0,2.6-0.9,4.7-3.5,4.7c-2.6,0-3.5-2.1-3.5-4.7c0-2.6,0.9-4.7,3.5-4.7
		C-247.7-116.8-246.8-114.7-246.8-112.2z"/>
	<path display="inline" fill="#F9F3F3" d="M-239.8-168.1c0,7.4-6,10.3-13.4,10.3c-7.4,0-13.4-2.9-13.4-10.3s6-16.4,13.4-16.4
		C-245.8-184.6-239.8-175.5-239.8-168.1z"/>
	<path display="inline" fill="#C69C6D" d="M-237-119.6c0,7.4-6,10.3-13.4,10.3s-13.4-2.9-13.4-10.3s6-16.4,13.4-16.4
		S-237-127-237-119.6z"/>
	<path display="inline" fill="#B18451" d="M-240.8-130.4c1.7,2.9,2.8,6.3,2.8,9.3c0,7.4-6,10.3-13.4,10.3c-4.8,0-9-1.2-11.3-4.1
		c2,4,6.8,5.6,12.3,5.6c7.4,0,13.4-2.9,13.4-10.3C-237-123.2-238.5-127.2-240.8-130.4z"/>
	<path display="inline" fill="#DCB890" d="M-261.7-117.6c0-7.4,6-16.4,13.4-16.4c2.5,0,4.9,1.1,6.9,2.7c-2.4-2.8-5.5-4.7-8.9-4.7
		c-7.4,0-13.4,9.1-13.4,16.4c0,3.6,1.4,6.1,3.7,7.7C-261.1-113.4-261.7-115.3-261.7-117.6z"/>
	<path display="inline" fill="#8C6239" d="M-239.2-129.3l-4.2-3.9l0.8,5.7c2.4,16.6,5.3,17.1,6.4,17.3c0.1,0,0.3,0,0.5,0
		c0.8,0,2-0.4,2.9-2.1C-229-119.4-238.1-128.3-239.2-129.3z"/>
	<path display="inline" fill="#744D28" d="M-235.5-125.1c1.9,3.9,3.6,9.2,1.4,13.3c-0.4,0.8-0.9,1.3-1.4,1.6
		c0.8-0.1,1.9-0.5,2.7-2.1C-230.4-116.6-232.9-121.6-235.5-125.1z"/>
	<path display="inline" fill="#AA8561" d="M-240.7-127.9l-0.5-3.3l-2.2-2.1l0.8,5.7c1.8,12.6,3.9,16,5.3,16.9
		C-238.2-113.6-239.4-118.8-240.7-127.9z"/>
	<path display="inline" fill="#8C6239" d="M-261.6-128.6c-1,1.1-9.3,10.8-4.9,17.5c1,1.5,2.1,1.9,2.9,1.9c0.3,0,0.5,0,0.7-0.1
		c1.1-0.3,4-1.1,4.9-17.8l0.3-5.7L-261.6-128.6z"/>
	<path display="inline" fill="#744D28" d="M-264.1-110.2c-0.2,0.1-0.4,0.1-0.7,0.1c-0.3,0-0.7-0.1-1-0.2c0.8,0.8,1.6,1,2.2,1
		c0.3,0,0.5,0,0.7-0.1c1-0.3,3.5-1,4.6-14.1C-260-113.4-263.3-110.4-264.1-110.2z"/>
	<path display="inline" fill="#AA8561" d="M-260.9-127.3l3-3.4l0.1-2.2l-3.8,4.3c-1,1.1-9.3,10.8-4.9,17.5c0,0,0.1,0.1,0.1,0.1
		C-269.3-117.6-261.8-126.3-260.9-127.3z"/>
	<path display="inline" fill="#C69C6D" d="M194.2-299.7c-5,0-9.1,4.1-9.1,9.1h18.3C203.4-295.6,199.3-299.7,194.2-299.7z"/>
	<path display="inline" fill="#BD9261" d="M202.6-290.6h0.8c0-4-2.6-7.4-6.1-8.6C200.3-297.8,202.5-294.5,202.6-290.6z"/>
	<path display="inline" fill="#DCB890" d="M195-299.7c-0.2,0-0.5,0-0.8,0c-5,0-9.1,4.1-9.1,9.1h1.5
		C186.6-295.4,190.3-299.3,195-299.7z"/>
	<path display="inline" fill="#333333" d="M228.7-299.7c-5,0-9.1,4.1-9.1,9.1h18.3C237.8-295.6,233.7-299.7,228.7-299.7z"/>
	<path display="inline" fill="#0E0E0E" d="M232.5-298.8c-1.2-0.5-2.5-0.9-3.8-0.9c-5,0-9.1,4.1-9.1,9.1h7.7
		C227.2-294.2,229.4-297.4,232.5-298.8z"/>
	<path display="inline" fill="#C69C6D" d="M249-322.8c0,18.1-16.6,25.2-37.1,25.2s-37.1-7.1-37.1-25.2s16.6-40.4,37.1-40.4
		S249-340.9,249-322.8z"/>
	<path display="inline" fill="#DCB890" d="M179.5-319.2c0-18.1,16.6-40.4,37.1-40.4c6.2,0,12,2,17.1,5.4c-6.1-5.4-13.7-9-21.9-9
		c-20.5,0-37.1,22.2-37.1,40.4c0,9.1,4.2,15.4,11,19.5C181.8-307.3,179.5-312.5,179.5-319.2z"/>
	<path display="inline" fill="#BD9261" d="M220.7-361.8c7.8,8.7,12.6,20.2,12.6,30.5c0,20-18.3,27.9-40.9,27.9c-2.3,0-4.6,0-6.9-0.1
		c6.7,4.1,16,5.9,26.3,5.9c20.5,0,37.1-7.1,37.1-25.2C248.9-338.2,236.9-356.6,220.7-361.8z"/>
	<path display="inline" fill="#8C6239" d="M211.1-378c-9.4,0-15,3.9-15,10.4c0,7,6.7,15.4,15,15.4s15-8.4,15-15.4
		C226.1-374.2,220.5-378,211.1-378z"/>
	<path display="inline" fill="#744D28" d="M224.8-372.5c0.3,0.9,0.5,1.9,0.5,3c0,7.3-7,16-15.6,16c-2.7,0-5.2-0.8-7.3-2.2
		c2.5,2.1,5.5,3.4,8.8,3.4c8.3,0,15-8.4,15-15.4C226.1-369.5,225.7-371.1,224.8-372.5z"/>
	<path display="inline" fill="#AA8561" d="M198.2-365.2c0-6.5,5.6-10.4,15-10.4c5.2,0,9.2,1.2,11.8,3.4c-2.1-3.7-6.9-5.9-13.9-5.9
		c-9.4,0-15,3.9-15,10.4c0,3.7,1.9,7.8,5,10.9C199.3-359.4,198.2-362.4,198.2-365.2z"/>
	<path display="inline" fill="#8C6239" d="M56.8-296.2c0,2.6-0.9,4.7-3.5,4.7s-3.5-2.1-3.5-4.7s0.9-4.7,3.5-4.7
		S56.8-298.7,56.8-296.2z"/>
	<path display="inline" fill="#F9F3F3" d="M63.9-352.1c0,7.4-6,10.3-13.4,10.3s-13.4-2.9-13.4-10.3s6-16.4,13.4-16.4
		S63.9-359.5,63.9-352.1z"/>
	<path display="inline" fill="#8C6239" d="M42.7-313.7c-1.2,0.8-11.7,8.2-9.1,15.7c0.8,2.3,2.2,2.6,3,2.6c0,0,0,0,0,0
		c1.1,0,4.1-0.1,9.1-16.1l1.7-5.5L42.7-313.7z"/>
	<path display="inline" fill="#744D28" d="M46-316l-1.7,5.4c-3,9.6-5.3,13.5-6.9,15c1.5-0.5,4.2-3,8.3-16l1.7-5.5L46-316z"/>
	<path display="inline" fill="#AA8561" d="M34.7-296.4c-2.6-7.5,6.9-15.8,8.1-16.6l4.4-3.2l0.2-0.6l-4.7,3.2
		c-1.2,0.8-11.7,8.2-9.1,15.7c0.4,1,0.9,1.7,1.4,2C34.9-296.1,34.8-296.3,34.7-296.4z"/>
	<path display="inline" fill="#8C6239" d="M63.3-313.7l-4.7-3.2l1.7,5.5c5,16,8,16.1,9.1,16.1c0,0,0,0,0,0c0.8,0,2.2-0.3,3-2.6
		C75-305.6,64.5-312.9,63.3-313.7z"/>
	<path display="inline" fill="#C69C6D" d="M66.7-303.6c0,7.4-6,10.3-13.4,10.3S40-296.2,40-303.6c0-7.4,6-16.4,13.4-16.4
		S66.7-311,66.7-303.6z"/>
	<path display="inline" fill="#744D28" d="M67.2-310.6c-1.6-1.5-3.1-2.6-3.7-3.1c2,3,3.2,6.7,3.2,10c0,2-0.4,3.6-1.2,5
		c0.2,0.4,0.5,0.7,0.7,1c1.5-1.6,2.4-3.8,2.4-6.6C68.5-306.3,68.1-308.5,67.2-310.6z"/>
	<path display="inline" fill="#8C6239" d="M-94.8-296.2c0,2.6-0.9,4.7-3.5,4.7c-2.6,0-3.5-2.1-3.5-4.7s0.9-4.7,3.5-4.7
		C-95.7-300.8-94.8-298.7-94.8-296.2z"/>
	<path display="inline" fill="#F9F3F3" d="M-87.8-352.1c0,7.4-6,10.3-13.4,10.3s-13.4-2.9-13.4-10.3s6-16.4,13.4-16.4
		S-87.8-359.5-87.8-352.1z"/>
	<path display="inline" fill="#C69C6D" d="M-81-299.7c-5,0-9.1,4.1-9.1,9.1h18.3C-71.8-295.6-75.9-299.7-81-299.7z"/>
	<path display="inline" fill="#AA8561" d="M-88-316.8l-5.4-1.9l0.3,0.4l5.1,1.7c1.4,0.5,13.4,4.9,12.9,12.8c0,0.5-0.1,0.9-0.2,1.3
		c0.2-0.4,0.3-0.9,0.3-1.6C-74.6-311.9-86.6-316.3-88-316.8z"/>
	<path display="inline" fill="#C69C6D" d="M-85-303.6c0,7.4-6,10.3-13.4,10.3s-13.4-2.9-13.4-10.3c0-7.4,6-16.4,13.4-16.4
		S-85-311-85-303.6z"/>
	<path display="inline" fill="#F6F3F0" d="M236.9-379.1c5.2,0,7.1-4.9,7.1-11h-18.8C225.2-384,231.7-379.1,236.9-379.1z"/>
	<path display="inline" fill="#E6E6E6" d="M241.1-390.2c-0.2,5.6-2.2,9.9-7.1,9.9c-1.3,0-2.7-0.3-4-0.9c1.9,1.3,4.1,2,6.2,2
		c5.2,0,7.1-4.9,7.1-11H241.1z"/>
	<path display="inline" fill="#FFFFFF" d="M228.4-387.3H245c0-0.5,0.1-1,0.1-1.6h-18.8c0,3.9,2.7,7.4,6.1,9.3
		C230-381.6,228.4-384.3,228.4-387.3z"/>
	<path display="inline" fill="#8C6239" d="M236.9-377.1c-6.2,0-13.7-5.8-13.7-13v-2H246v2C246-381.8,242.7-377.1,236.9-377.1z
		 M227.5-388.1c1.2,3.9,5.7,7,9.4,7c3.6,0,4.8-3.5,5.1-7H227.5z"/>
	<g display="inline">
		<path fill="#744D28" d="M227.5-388.1h13.1c0-0.1,0-0.3,0-0.4h-14.5c1,3.3,4.4,6,7.7,6.8C231-382.8,228.4-385.2,227.5-388.1z"/>
		<path fill="#744D28" d="M244.7-392.1v1.6c0,8.3-3.3,13-9.1,13c-0.9,0-1.9-0.1-2.8-0.4c1.4,0.5,2.8,0.8,4.2,0.8
			c5.8,0,9.1-4.7,9.1-13v-2H244.7z"/>
	</g>
	<g display="inline">
		<path fill="#AA8561" d="M237.8-380.2c3.6,0,4.8-3.5,5.1-7h-1c-0.4,3.2-1.7,6.2-5,6.2c-2,0-4.3-0.9-6.1-2.4
			C232.7-381.5,235.4-380.2,237.8-380.2z"/>
		<path fill="#AA8561" d="M224.1-389.2v-2H246v-0.8h-22.8v2c0,3.8,2,7.1,4.9,9.5C225.7-382.8,224.1-385.8,224.1-389.2z"/>
	</g>
	<path display="inline" fill="#8C6239" d="M-112.3-350.7c0,0,19.7-2,21.4-5.4C-90.8-356.1-82.6-350.8-112.3-350.7z"/>
	<path display="inline" fill="#744D28" d="M-90.8-356.1C-90.8-356-90.9-356-90.8-356.1c1,0.9,4.8,5-20.3,5.3
		c-0.7,0.1-1.1,0.1-1.1,0.1C-82.6-350.8-90.8-356.1-90.8-356.1z"/>
	<path display="inline" fill="#AA8561" d="M-90.6-355.8c0,0,0.2,0.2,0.5,0.4c-0.3-0.4-0.7-0.7-0.7-0.7c-1.8,3.4-21.4,5.4-21.4,5.4
		c0.9,0,1.8,0,2.6,0C-104.3-351.4-92-353.2-90.6-355.8z"/>
	<path display="inline" fill="#F6F3F0" d="M144.3-335.1c0.1,0,0.2,0,0.3,0c1.4,7.1,7.7,12.4,15.2,12.4c3.7,0,7.1-1.3,9.8-3.5
		c1.3,0.9,2.8,1.5,4.5,1.5c3,0,5.5-1.7,6.8-4.3c0.9,0.2,1.9,0.3,2.9,0.3c0.3,0,0.6,0,0.9,0c2.9-0.2,24.3,8.6,26.4,6.7
		c1.9-1.7-15.5-14-14.9-16.6c0.2-0.8,0.3-1.6,0.3-2.4c0,0,0,0,0.1,0c5.3,0,9.6-4.3,9.6-9.6c0-5.3-4.3-9.6-9.6-9.6
		c-0.8,0-1.5,0.1-2.2,0.3c-1.8-2.1-4.4-3.5-7.4-3.5c-1.2,0-2.4,0.2-3.5,0.7c-2.3-2.6-5.7-4.2-9.4-4.2c-4.1,0-7.7,1.9-10,4.9
		c-1.3-0.7-2.8-1.1-4.3-1.1c-3.7,0-6.8,2.1-8.3,5.1c-2-1.4-4.5-2.2-7.1-2.2c-6.9,0-12.5,5.6-12.5,12.5
		C131.8-340.8,137.4-335.1,144.3-335.1z"/>
	<path display="inline" fill="#E6E6E6" d="M182.6-331.2c-0.4,0-0.7,0-1.1,0c-1.1,0-2.2-0.1-3.3-0.4c-1.4,2.8-4.3,4.8-7.6,4.8
		c-1.9,0-3.6-0.6-5.1-1.7c-3,2.5-6.9,3.9-11,3.9c-0.7,0-1.4-0.1-2.1-0.1c2.1,1,4.4,1.6,6.9,1.6c3.7,0,7.1-1.3,9.8-3.5
		c1.3,0.9,2.8,1.5,4.5,1.5c3,0,5.5-1.7,6.8-4.3c0.9,0.2,1.9,0.3,2.9,0.3c0.3,0,0.6,0,0.9,0c2.9-0.2,24.3,8.6,26.4,6.7
		c0.2-0.2,0.2-0.6-0.1-1.1C204.3-323.9,185.5-331.4,182.6-331.2z"/>
	<path display="inline" fill="#E6E6E6" d="M198.4-341.6C198.4-341.6,198.4-341.6,198.4-341.6c3.8,0,6.9-3.1,6.9-6.8
		c0-0.1,0-0.1,0-0.2c-1.3,2.6-3.9,4.3-6.9,4.3c0,0,0,0-0.1,0c0,0.7-0.1,1.3-0.3,1.9c-0.1,0.2,0.1,0.6,0.3,1
		C198.4-341.5,198.4-341.6,198.4-341.6z"/>
	<path display="inline" fill="#FFFFFF" d="M135.6-339.7c0-7.3,5.9-13.3,13.3-13.3c2.8,0,5.4,0.9,7.6,2.4c1.6-3.2,5-5.4,8.8-5.4
		c1.6,0,3.2,0.4,4.6,1.1c2.4-3.1,6.3-5.2,10.6-5.2c4,0,7.5,1.7,10,4.5c1.1-0.4,2.4-0.7,3.7-0.7c3.1,0,5.9,1.4,7.8,3.7
		c0.8-0.2,1.6-0.3,2.4-0.3c0.6,0,1.2,0.1,1.8,0.2c-1-4.2-4.8-7.4-9.4-7.4c-0.8,0-1.5,0.1-2.2,0.3c-1.8-2.1-4.4-3.5-7.4-3.5
		c-1.2,0-2.4,0.2-3.5,0.7c-2.3-2.6-5.7-4.2-9.4-4.2c-4.1,0-7.7,1.9-10,4.9c-1.3-0.7-2.8-1.1-4.3-1.1c-3.7,0-6.8,2.1-8.3,5.1
		c-2-1.4-4.5-2.2-7.1-2.2c-6.9,0-12.5,5.6-12.5,12.5c0,3.6,1.5,6.8,3.9,9C135.6-339,135.6-339.4,135.6-339.7z"/>
	<path display="inline" fill="#8C6239" d="M362-298.8c-0.3,2.6-1.4,4.6-4,4.3c-2.6-0.3-3.3-2.4-3-5c0.3-2.6,1.4-4.6,4-4.3
		C361.6-303.6,362.3-301.4,362-298.8z"/>
	<path display="inline" fill="#333333" d="M341.4-303.7c-3.6,3.6-3.5,9.4,0,12.9l12.9-13C350.7-307.3,345-307.3,341.4-303.7z"/>
	<path display="inline" fill="#0E0E0E" d="M340.5-291.9c0.3,0.4,0.6,0.8,0.9,1.1l11.6-11.6L340.5-291.9z"/>
	<path display="inline" fill="#535353" d="M342.5-301.8c3-3.1,7.3-4.1,10.7-2.9c-3.6-2.6-8.6-2.2-11.8,1c-2.5,2.5-3.2,6-2.3,9.1
		C339.3-297.2,340.4-299.8,342.5-301.8z"/>
	<path display="inline" fill="#C69C6D" d="M375.7-301.2c-4.9-1.1-9.8,2.1-10.9,7l9.9,3.6l8,0.2C383.8-295.3,380.6-300.1,375.7-301.2
		z"/>
	<path display="inline" fill="#BD9261" d="M380.5-297.5c0.3,0.1,0.6,0.1,0.9,0.2c-1.3-1.9-3.3-3.4-5.7-3.9c-4.9-1.1-9.8,2.1-10.9,7
		l5.4,2C371.9-296.1,376.2-298.5,380.5-297.5z"/>
	<path display="inline" fill="#8C6239" d="M351.7-318.9c-4.8-16.1-7.8-16.2-8.9-16.2c-0.8,0-2.2,0.3-3.1,2.6
		c-2.7,7.5,7.7,15,8.9,15.8l4.7,3.3L351.7-318.9z"/>
	<path display="inline" fill="#744D28" d="M351-319.4l1.3,5.4l1.3,0.9l-1.6-5.5c-1-3.4-1.9-6-2.8-8.1
		C349.7-324.8,350.4-322.4,351-319.4z"/>
	<path display="inline" fill="#AA8561" d="M341-330.7c0.8-2.3,2.3-2.6,3.1-2.6c0.5,0,1.5,0,2.9,1.8c-2.1-3.7-3.4-3.7-4.1-3.7
		c-0.8,0-2.2,0.3-3.1,2.6c-1.2,3.4,0.2,6.7,2.3,9.5C340.8-325.4,340.1-328,341-330.7z"/>
	<path display="inline" fill="#8C6239" d="M376-332.3c-1.6-1.8-3.1-1.6-3.8-1.3c-1,0.4-3.8,1.6-2.3,18.3l0.5,5.7l3.2-4.8
		C374.3-315.5,381.2-326.3,376-332.3z"/>
	<path display="inline" fill="#744D28" d="M377.8-328.2c-0.7,5.4-4.8,11-5.4,11.9l-2.3,3.6l0.3,3.4l3.2-4.8
		C374.2-315,378.8-322.3,377.8-328.2z"/>
	<path display="inline" fill="#AA8561" d="M372.5-331.5c0.7-0.3,2.2-0.6,3.8,1.3c0.8,0.9,1.3,1.9,1.6,3c-0.1-1.8-0.6-3.6-1.9-5.1
		c-1.6-1.8-3.1-1.6-3.8-1.3c-0.9,0.4-3.2,1.4-2.7,13.3C369.4-330.1,371.7-331.1,372.5-331.5z"/>
	<path display="inline" fill="#C69C6D" d="M373.4-307c-0.9,7.3-7.2,9.5-14.5,8.5s-12.9-4.5-12-11.9c0.9-7.3,8-15.6,15.3-14.6
		C369.5-324,374.3-314.3,373.4-307z"/>
	<path display="inline" fill="#BD9261" d="M369.6-320.2c2.6,3.7,3.9,8.5,3.4,12.6c-0.9,7.5-7.7,9.6-15.5,8.6
		c-1.8-0.2-3.4-0.6-4.9-1.1c1.8,0.9,4,1.5,6.3,1.8c7.3,0.9,13.6-1.2,14.5-8.5C374-311.3,372.5-316.5,369.6-320.2z"/>
	<path display="inline" fill="#DCB890" d="M348.6-308.7c0.9-7.3,8-15.6,15.3-14.6c1.8,0.2,3.4,1,4.8,2.1c-1.8-2-4-3.4-6.6-3.7
		c-7.3-0.9-14.4,7.3-15.3,14.6c-0.5,4.1,1,7,3.7,9C349-303.2,348.2-305.7,348.6-308.7z"/>
	<g display="inline">
		<g>
			<path fill="#333333" d="M-249.8-300c-0.2-0.9-1.6-1.7-1.6-1.7l0-0.1c0.1,0,1.6,0.7,1.8,1.7L-249.8-300z"/>
		</g>
		<g>
			<path fill="#333333" d="M-251.1-300l-0.1,0c0.2-1.2,1.7-1.8,1.8-1.9l0.1,0.3C-249.3-301.6-250.9-301.1-251.1-300z"/>
		</g>
		<g>
			<path fill="#333333" d="M-250.3-298.4c-1.5,0-2.7-1.2-2.7-2.7c0-0.8,0.4-1.6,1-2.1c0.1-0.1,0.3-0.1,0.4,0c0.1,0.1,0.1,0.3,0,0.4
				c-0.5,0.4-0.8,1-0.8,1.7c0,1.2,1,2.2,2.2,2.2s2.2-1,2.2-2.2c0-0.6-0.3-1.2-0.7-1.6c-0.1-0.1-0.1-0.2,0-0.4c0.1-0.1,0.2-0.1,0.4,0
				c0.6,0.5,0.9,1.2,0.9,2C-247.7-299.6-248.9-298.4-250.3-298.4z"/>
		</g>
	</g>
	<g display="inline">
		<g>
			<path fill="#333333" d="M-249.6-116.4c-0.2-0.9-1.6-1.7-1.6-1.7l0-0.1c0.1,0,1.6,0.7,1.8,1.7L-249.6-116.4z"/>
		</g>
		<g>
			<path fill="#333333" d="M-250.9-116.4l-0.1,0c0.2-1.2,1.7-1.8,1.8-1.9l0.1,0.3C-249.1-118-250.7-117.5-250.9-116.4z"/>
		</g>
		<g>
			<path fill="#333333" d="M-250.1-114.8c-1.5,0-2.7-1.2-2.7-2.7c0-0.8,0.4-1.6,1-2.1c0.1-0.1,0.3-0.1,0.4,0c0.1,0.1,0.1,0.3,0,0.4
				c-0.5,0.4-0.8,1-0.8,1.7c0,1.2,1,2.2,2.2,2.2s2.2-1,2.2-2.2c0-0.6-0.3-1.2-0.7-1.6c-0.1-0.1-0.1-0.2,0-0.4c0.1-0.1,0.2-0.1,0.4,0
				c0.6,0.5,0.9,1.2,0.9,2C-247.5-116-248.7-114.8-250.1-114.8z"/>
		</g>
	</g>
	<path display="inline" fill="#8C6239" d="M371.2-114.2c0,2.6-0.9,4.7-3.5,4.7s-3.5-2.1-3.5-4.7c0-2.6,0.9-4.7,3.5-4.7
		S371.2-116.7,371.2-114.2z"/>
	<path display="inline" fill="#333333" d="M350.8-117.7c-5,0-9.1,4.1-9.1,9.1h18.3C359.9-113.6,355.8-117.7,350.8-117.7z"/>
	<path display="inline" d="M358.2-108.6h1.7c0-4.2-2.9-7.8-6.8-8.8C356.2-116,358.2-112.4,358.2-108.6z"/>
	<path display="inline" fill="#535353" d="M351.6-117.6c-0.3,0-0.6,0-0.9,0c-5,0-9.1,4.1-9.1,9.1h1.8
		C343.4-113.3,347-117.2,351.6-117.6z"/>
	<path display="inline" fill="#C69C6D" d="M385.2-117.7c-5,0-9.1,4.1-9.1,9.1h18.3C394.4-113.6,390.3-117.7,385.2-117.7z"/>
	<path display="inline" fill="#C69C6D" d="M381-121.6c0,7.4-6,10.3-13.4,10.3s-13.4-2.9-13.4-10.3s6-16.4,13.4-16.4
		S381-129,381-121.6z"/>
	<path display="inline" fill="#B18451" d="M367.7-137.9c-1,0-1.9,0.2-2.8,0.4c0.3,0,0.5-0.1,0.8-0.1c7.4,0,13.4,9.1,13.4,16.4
		c0,5.5-3.3,8.5-8,9.7c5.8-0.8,10-3.8,10-10.1C381.1-128.8,375.1-137.9,367.7-137.9z"/>
	<path display="inline" fill="#DCB890" d="M357.1-120.1c0-7.4,6-16.4,13.4-16.4c1,0,2,0.2,3,0.5c-1.7-1.2-3.7-1.9-5.7-1.9
		c-7.4,0-13.4,9.1-13.4,16.4c0,4.9,2.7,7.8,6.6,9.2C358.5-113.9,357.1-116.5,357.1-120.1z"/>
	<g display="inline">
		<path fill="#333333" d="M368.2-118c-0.2-0.9-1.6-1.7-1.6-1.7l0-0.1c0.1,0,1.6,0.7,1.8,1.7L368.2-118z"/>
	</g>
	<g display="inline">
		<path fill="#333333" d="M366.9-118l-0.1,0c0.2-1.2,1.7-1.8,1.8-1.9l0.1,0.3C368.7-119.6,367.1-119.1,366.9-118z"/>
	</g>
	<path display="inline" fill="none" stroke="#333333" stroke-width="0.5" stroke-linecap="round" stroke-miterlimit="10" d="
		M369.3-120.9c0.5,0.4,0.8,1.1,0.8,1.8c0,1.3-1.1,2.4-2.4,2.4s-2.4-1.1-2.4-2.4c0-0.8,0.4-1.4,0.9-1.9"/>
	<path display="inline" fill="#8C6239" d="M-125.4-169.3c-0.2-0.1-0.3-0.1-0.5-0.2l-0.2-7.3l0.2-1c-6.4-1.2-10-1-10.7,0.6
		c-0.1,0.3-0.5,1-0.1,1.9c0.5,1.2,2.2,2.1,5.3,3c0.2,0.1,0.3,0.2,0.4,0.3c-1.1,0.7-2.5,2-3.3,2.7c-0.4,0.4-0.7,0.9-0.7,1.4
		c0,0.9,0.2,1.7,0.8,2.2c0.5,0.5,1.1,0.7,1.9,0.7c0.1,0,0.3,0,0.4,0c1.5-0.1,2.9-1,4-1.7c0.5-0.3,1.3-0.8,1.6-0.8c0,0-0.1,0-0.1,0
		L-125.4-169.3z"/>
	<g display="inline">
		<path fill="#744D28" d="M-135.1-173.8c0.8,0.5,2,0.9,3.4,1.4c-0.1-0.1-0.2-0.2-0.3-0.2C-133.3-173-134.3-173.4-135.1-173.8z"/>
		<path fill="#744D28" d="M-125.4-169.3c-0.2-0.1-0.3-0.1-0.5-0.2l-0.2-7.3l0.2-1c-0.2,0-0.4-0.1-0.7-0.1l-0.1,0.8l0.2,7.3
			c0.2,0,0.3,0.1,0.5,0.2l-1,1.7c0.1,0,0.1,0,0.1,0c-0.3,0-1.1,0.5-1.6,0.8c-1.1,0.7-2.5,1.5-4,1.7c-0.1,0-0.3,0-0.4,0
			c-0.4,0-0.7-0.1-1-0.2c0.4,0.3,1,0.5,1.7,0.5c0.1,0,0.3,0,0.4,0c1.5-0.1,2.9-1,4-1.7c0.5-0.3,1.3-0.8,1.6-0.8c0,0-0.1,0-0.1,0
			L-125.4-169.3z"/>
	</g>
	<g display="inline">
		<path fill="#AA8561" d="M-136-174.9c-0.4-0.9-0.1-1.6,0.1-1.9c0.7-1.5,4.1-1.8,10-0.7l0.1-0.3c-6.4-1.2-10-1-10.7,0.6
			c-0.1,0.3-0.5,1-0.1,1.9c0.3,0.6,0.9,1.1,1.8,1.6C-135.5-174.1-135.8-174.5-136-174.9z"/>
		<path fill="#AA8561" d="M-133.5-165.3c-0.6-0.5-0.8-1.3-0.8-2.2c0-0.5,0.3-1,0.7-1.4c0.8-0.7,2.2-2,3.3-2.7
			c-0.1-0.1-0.3-0.2-0.4-0.3c-0.1,0-0.2-0.1-0.3-0.1c-1.1,0.8-2.5,2-3.3,2.7c-0.4,0.4-0.7,0.9-0.7,1.4c0,0.9,0.2,1.7,0.8,2.2
			C-134-165.5-133.7-165.3-133.5-165.3C-133.5-165.2-133.5-165.3-133.5-165.3z"/>
	</g>
	<polygon display="inline" fill="#C69C6D" points="-122.8,-237.8 -47.2,-201.4 -118,-143.4 	"/>
	<polygon display="inline" fill="#B18451" points="-118.3,-149.6 -118,-143.4 -47.7,-201 	"/>
	<polygon display="inline" fill="#DCB890" points="-119.3,-233.9 -61.5,-208.3 -122.8,-237.9 -119.1,-164.4 	"/>
	<polygon display="inline" fill="#C69C6D" points="-75.9,-242.8 -55.5,-217.7 -97.2,-225.5 	"/>
	<polygon display="inline" fill="#B18451" points="-86.8,-223.5 -55.5,-217.7 -58.7,-221.7 	"/>
	<polygon display="inline" fill="#DCB890" points="-70.4,-236.1 -75.9,-242.8 -97.2,-225.5 -92.6,-224.6 	"/>
	<path display="inline" fill="#C69C6D" d="M-100.6-128.9c0,7.4-6,10.3-13.4,10.3c-7.4,0-13.4-2.9-13.4-10.3c0-7.4,6-16.4,13.4-16.4
		C-106.5-145.3-100.6-136.2-100.6-128.9z"/>
	<g display="inline">
		<path fill="#B18451" d="M-105.1-140.6c2.5,3.2,4.1,7.2,4.1,10.9c0,7.4-6.3,10.3-14.2,10.3c-2.8,0-5.5-0.4-7.7-1.2
			c2.4,1.4,5.5,2.1,8.9,2.1c7.4,0,13.4-2.9,13.4-10.3C-100.6-132.8-102.3-137.3-105.1-140.6z"/>
		<path fill="#B18451" d="M-105.3-140.9c-0.1-0.1-0.1-0.1-0.2-0.2C-105.4-141-105.4-140.9-105.3-140.9z"/>
	</g>
	<path display="inline" fill="#DCB890" d="M-124.8-126.1c0-7.4,6-16.4,13.4-16.4c2.6,0,5.1,1.2,7.1,3c-2.4-3.3-5.8-5.7-9.6-5.7
		c-7.4,0-13.4,9.1-13.4,16.4c0,3.6,1.4,6.1,3.7,7.8C-124.3-122.5-124.8-124.1-124.8-126.1z"/>
	
		<ellipse transform="matrix(0.9668 -0.2557 0.2557 0.9668 26.6356 -40.0415)" display="inline" fill="#C69C6D" cx="-140.7" cy="-122.5" rx="5.7" ry="7.7"/>
	<path display="inline" fill="#DCB890" d="M-144.5-119c-1.1-4.1,0.5-8.1,3.6-8.9c1.6-0.4,3.3,0.1,4.7,1.3c-1.5-2.6-4.1-4.1-6.5-3.5
		c-3.1,0.8-4.7,4.8-3.6,8.9c0.5,2,1.5,3.6,2.8,4.7C-143.9-117.2-144.2-118.1-144.5-119z"/>
	<ellipse display="inline" fill="#333333" cx="-129.5" cy="-108.5" rx="3.6" ry="4.9"/>
	<path display="inline" fill="#535353" d="M-131.2-107c0-2.7,1.6-4.9,3.6-4.9c0.2,0,0.4,0,0.7,0.1c-0.7-1-1.6-1.6-2.7-1.6
		c-2,0-3.6,2.2-3.6,4.9c0,2.4,1.3,4.4,3,4.8C-130.8-104.6-131.2-105.8-131.2-107z"/>
	
		<ellipse transform="matrix(0.866 0.5 -0.5 0.866 -67.9399 35.5887)" display="inline" fill="#333333" cx="-100.4" cy="-109" rx="4.6" ry="5.7"/>
	<path display="inline" fill="#535353" d="M-103.2-109.9c1.6-2.7,4.6-3.9,6.8-2.6c0.1,0.1,0.3,0.2,0.4,0.3c-0.3-0.7-0.8-1.3-1.5-1.7
		c-2.2-1.3-5.2-0.1-6.8,2.6c-1.5,2.5-1.1,5.5,0.7,6.9C-104.4-105.9-104.3-108-103.2-109.9z"/>
	
		<ellipse transform="matrix(0.9851 -0.1722 0.1722 0.9851 16.4838 -21.3418)" display="inline" fill="#C69C6D" cx="-114.8" cy="-105.7" rx="6.1" ry="8.3"/>
	<path display="inline" fill="#DCB890" d="M-119-102.1c-0.8-4.5,1.3-8.6,4.6-9.2c1.6-0.3,3.3,0.3,4.6,1.5c-1.4-2.8-3.9-4.5-6.5-4
		c-3.3,0.6-5.4,4.7-4.6,9.2c0.4,2.3,1.5,4.3,2.9,5.5C-118.4-100-118.8-101-119-102.1z"/>
	
		<ellipse transform="matrix(0.99 0.1411 -0.1411 0.99 -17.6565 11.8826)" display="inline" fill="#C69C6D" cx="-92.6" cy="-118.6" rx="2.3" ry="3.1"/>
	<path display="inline" fill="#DCB890" d="M-94.3-118.2c0.2-1.7,1.5-2.9,2.7-2.7c0.3,0,0.6,0.2,0.9,0.4c-0.3-0.6-0.8-1-1.5-1.1
		c-1.3-0.2-2.5,1-2.7,2.7c-0.2,1.2,0.2,2.4,1,3C-94.3-116.5-94.4-117.3-94.3-118.2z"/>
	<g display="inline">
		<path fill="#333333" d="M-108.5-202.7c-0.4-9-6.2-6.6-8.8-2.8c-0.3,0.5-0.9,0.6-1.4,0.3c-0.5-0.3-0.6-0.9-0.3-1.4
			c2.2-3.4,4.9-5.1,7.2-4.5c2.3,0.6,3.9,3.3,4.3,7.4C-107.4-203.2-107.9-202.7-108.5-202.7C-108.4-202.7-108.5-202.7-108.5-202.7z"
			/>
	</g>
	<g display="inline">
		<path d="M-117.4-205.6c-0.3,0.4-0.8,0.6-1.2,0.4c0,0,0,0,0,0c0.5,0.3,1.1,0.1,1.4-0.3c1.5-2.3,4.3-4.1,6.3-3.1
			C-113-209.8-115.8-208-117.4-205.6z"/>
		<path d="M-111-210.9c1.8,1,3.1,3.5,3.3,7c0,0.5-0.3,1-0.8,1.1c0,0,0,0.1,0,0.1c0,0,0.1,0,0.1,0c0.6,0,1-0.5,0.9-1.1
			C-107.8-207.4-109.1-209.9-111-210.9z"/>
	</g>
	<g display="inline">
		<path fill="#535353" d="M-118.6-206.4c2.2-3.4,4.9-5.1,7.2-4.5c0.5,0.1,0.9,0.4,1.4,0.7c-0.5-0.4-1.1-0.8-1.7-0.9
			c-2.3-0.6-5,1.1-7.2,4.5c-0.3,0.5-0.2,1.1,0.3,1.4c0,0,0.1,0,0.1,0C-118.8-205.5-118.9-206-118.6-206.4z"/>
		<path fill="#535353" d="M-110.3-208.2c1,0.9,1.7,2.6,1.8,5.5c0,0,0.1,0,0.1,0c0.1,0,0.2,0,0.2-0.1
			C-108.4-205.8-109.2-207.5-110.3-208.2z"/>
	</g>
	<path display="inline" fill="#F9F3F3" d="M-118.3-194.3c-0.1-0.3-0.3-0.6-0.5-0.8c-0.7-0.6-1.5-0.9-2.3-0.9c-3.7,0-10.5,0-10.5,9.9
		c0,4.2,1.3,10,3.4,15.1c1.3,3.3,4,8.7,7.1,8.7c1.5,0,2.8-1.1,3.2-2.6C-114.3-180.9-117.9-193-118.3-194.3z"/>
	<path display="inline" fill="#E6E6E6" d="M-116.5-183.1c-0.2,5-1.1,11.3-3.9,18.1c-0.4,1-1.4,1.8-2.6,2.1c0.6,0.4,1.2,0.6,1.8,0.6
		c1.5,0,2.8-1.1,3.2-2.6C-116.4-172-116.2-178.2-116.5-183.1z"/>
	<path display="inline" fill="#FFFFFF" d="M-127.1-168.9c-2.1-5.1-3.4-10.8-3.4-15.1c0-9.9,6.9-9.9,10.5-9.9c0.7,0,1.4,0.3,2,0.7
		c-0.2-0.6-0.3-1-0.3-1.2c-0.1-0.3-0.3-0.6-0.5-0.8c-0.7-0.6-1.5-0.9-2.3-0.9c-3.7,0-10.5,0-10.5,9.9c0,4.2,1.3,10,3.4,15.1
		c0.5,1.3,1.2,2.8,2.1,4.3C-126.6-167.6-126.9-168.3-127.1-168.9z"/>
	<path display="inline" fill="#8C6239" d="M-127.3-192.4c-0.1-1.8-0.7-3.6-1.6-5.1c-1.9-3.2-5-4.1-7.8-2.4c-2.9,1.7-3.5,4.9-1.7,8h0
		c1.4,2.4,4.4,5,7.2,5c0.7,0,1.3-0.2,1.9-0.5C-127.9-188.3-127.2-190.1-127.3-192.4z"/>
	<g display="inline">
		<path fill="#744D28" d="M-127.5-193.7c0,0.1,0,0.1,0,0.2C-127.5-193.6-127.5-193.7-127.5-193.7z"/>
		<path fill="#744D28" d="M-127.3-192.4c0-0.1,0-0.2,0-0.3c0.2,2.3-0.6,4.1-2.1,4.9c-0.6,0.4-1.3,0.5-2,0.5c-1.6,0-3.2-0.8-4.6-1.9
			c1.4,1.3,3.2,2.2,4.9,2.2c0.7,0,1.3-0.2,1.9-0.5C-127.9-188.3-127.2-190-127.3-192.4z"/>
	</g>
	<path display="inline" fill="#AA8561" d="M-135.2-197.4c2.4-1.4,5-1,6.9,1.1c-0.2-0.5-0.4-0.9-0.7-1.3c-1.9-3.2-5-4.1-7.8-2.4
		c-2.9,1.7-3.5,4.9-1.7,8h0c0.3,0.5,0.6,1,1,1.4C-138.5-193.3-137.7-195.9-135.2-197.4z"/>
	<path display="inline" fill="#8C6239" d="M-78.5-138.9l2.9-6.4l-41.5-19.1c-1.7-0.8-3.7-0.1-4.6,1.6c-0.9,1.7-0.2,3.8,1.5,4.7
		C-120.1-158-78.5-138.9-78.5-138.9z"/>
	<path display="inline" fill="#AA8561" d="M-117.8-157.1c-1.7-0.9-2.4-3-1.5-4.7c0.7-1.5,2.4-2.2,3.9-1.8l-1.7-0.8
		c-1.7-0.8-3.7-0.1-4.6,1.6c-0.9,1.7-0.2,3.8,1.5,4.7C-120.1-158-117.7-157-117.8-157.1z"/>
	<g display="inline">
		<path fill="#BC4444" d="M-114.7-190c-0.3,0.2-0.6,0.3-0.8,0.2c-2.1-1.3,1.1-7.3,1.2-7.5c0.2-0.3,0.6-0.7,0.9-0.6
			C-108.6-197-116.1-192-114.7-190z"/>
	</g>
	<g display="inline">
		<path fill="#BC4444" d="M-109.8-196.5c0.2-0.1,0.4-0.2,0.6-0.1c1.4,1,0.6,3.9-0.2,4.8c-0.6,0.7-1.4,0.8-1.6,0.8
			C-114.3-191.9-108.9-195-109.8-196.5z"/>
	</g>
	<g display="inline">
		<path fill="#BC4444" d="M-106.8-191.1c-0.1,0.1-0.2-0.3-0.3-0.5c-0.4-1-0.1-2.2,0.4-2.7c0.4-0.5,0.9-0.5,1-0.5
			C-103.6-194.4-107.4-192.1-106.8-191.1z"/>
	</g>
	<polygon display="inline" fill="#C69C6D" points="1.8,-218.4 94,-218.4 51.5,-140.1 	"/>
	<polygon display="inline" fill="#B18451" points="51.5,-143.6 44.3,-151.4 51.5,-140.1 81,-194.4 	"/>
	<polygon display="inline" fill="#DCB890" points="6.6,-215.5 81.1,-218.2 1.8,-218.2 39.8,-158.4 	"/>
	<path display="inline" fill="#BC4444" d="M44.8-195.3c0-0.2-0.2-0.3-0.4-0.3c-0.5,0-1.8,0.2-3.5,0.3c-6.5,0.6-12,5.7-14.3,13
		c-3.9,12.5-8.3,31.4-2.1,39.1c0.4,0.5,1.1,0.3,1.2-0.4c0.5-2.8,1.6-8.7,2.1-8.6c0.7,0.1-0.1,0.6-0.3,7.4c0,0.3-0.3,4.5,0.3,4.1
		c0.7-0.5,1.4-1.3,2.2-2.6c0.3-0.4,0.8-0.3,1,0.2c0.1,0.7,0.3,1,0.5,1.1c0.5,0,1-2.2,1.4-5.8c0.1-1.2,0.4-2.4,0.9-3.5
		c0.3-0.8,0.6-1.7,1-2.6c0.2-0.7,1.1-0.6,1.2,0.1c0.8,3.1,1.6,5,2.1,5c0.9,0,0.8-4.6,0.7-11.2c-0.1-4,0.4-8,1.4-11.8
		C43.3-183,45.3-193.2,44.8-195.3z"/>
	<path display="inline" fill="#C75656" d="M32-180.1c2.1-6.7,7-11.5,12.8-12.7c0.1-1.1,0.1-2,0-2.4c0-0.2-0.2-0.3-0.4-0.3
		c-0.5,0-1.8,0.2-3.5,0.3c-6.5,0.6-12,5.7-14.3,13c-3.9,12.5-8.3,31.4-2.1,39.1c0.4,0.5,1.1,0.3,1.2-0.4c0.3-1.6,0.7-4.2,1.2-6.1
		C26.1-158.7,29.1-171,32-180.1z"/>
	<path display="inline" fill="#8C6239" d="M40.1-193l0.4-0.6c-4.4,0.2-5.3,3.4-5.4,3.6l0.2,0.1c0-0.1,0.8-2,3.8-2.4
		C39.5-192.4,39.9-192.7,40.1-193z"/>
	<path display="inline" fill="#8C6239" d="M40.4-202.3c0.2-0.4,0.1-0.9-0.1-1.2c-1.6-2.6-0.6-4.4-0.5-4.5l-0.2,0
		c-0.1,0.1-2,2.9,0.5,6.4L40.4-202.3z"/>
	<path display="inline" fill="#8C6239" d="M59.2-116.3c0,2.6-0.9,4.6-3.5,4.6s-3.5-2.1-3.5-4.6c0-2.6,0.9-4.6,3.5-4.6
		S59.2-118.9,59.2-116.3z"/>
	<path display="inline" fill="#AFC8CE" d="M44.4-197.3l-29.3-6c-0.5,2.3-1,4.5-1.7,6.5l29.6,4.2c0.5-0.2,0.8-0.3,0.9-0.3
		c-0.4-0.5-0.6-0.9-0.7-1.4c-0.1-1,0.8-1.5,1.6-1.7l0.8-0.2l-0.6-0.5C44.8-196.8,44.6-197,44.4-197.3z"/>
	<path display="inline" fill="#D5E7EB" d="M13.4-196.7c-0.1,0.2-0.1,0.3-0.2,0.5c-0.1,0.2-0.1,0.3-0.2,0.5l28.6,4.1
		c0.2-0.2,0.4-0.3,0.6-0.4c0.3-0.2,0.5-0.3,0.7-0.4L13.4-196.7z"/>
	<path display="inline" fill="#F0F5F6" d="M42.9-204c-0.1-0.2-0.1-0.3-0.2-0.6l-26.5-6.6c0,0.2,0,0.3,0,0.5c0,0.2,0,0.3,0,0.5
		l27.2,6.8C43.2-203.5,43-203.8,42.9-204z"/>
	<path display="inline" fill="#8BB3BC" d="M15.1-203.4C15.1-203.3,15.1-203.3,15.1-203.4l29.2,6.1c-0.3-0.3-0.5-0.7-0.7-1.1
		l-28.4-5.8C15.2-203.9,15.2-203.6,15.1-203.4z"/>
	<path display="inline" fill="#8C6239" d="M47.2-202.4c0.7-0.8,1.8-1.5,3.3-2l-0.1-0.3c-1.2,0.4-2.2,0.8-3.1,1.2
		c-0.2,0.1-0.5,0.2-0.7,0.3c-0.2,0.1-0.4,0.2-0.6,0.4l-0.4-0.1c-0.1-0.2-0.2-0.4-0.2-0.6c0-0.2-0.1-0.3-0.1-0.5
		c-0.1-2,1.6-4.6,4.4-6c0,0-6.9,2.9-7,4.9c0,0.2,0,0.3,0,0.4c0,0.2,0.1,0.4,0.2,0.6c0.1,0.2,0.3,0.5,0.5,0.6
		c0.8,0.7,2.1,0.8,2.3,0.8c-1.4,0.9-2.1,1.9-2.2,3c0,0.4,0,0.7,0.2,1.1c0.2,0.4,0.4,0.8,0.7,1.1c0.2,0.2,0.4,0.5,0.6,0.7
		c0.1,0.1,0.3,0.3,0.4,0.4c0.1,0.1,0.1,0.1,0.2,0.2c-0.1,0-0.2,0-0.3,0c-0.2,0-0.3,0.1-0.5,0.1c-0.8,0.2-1.7,0.7-1.6,1.7
		c0,0.4,0.3,0.9,0.7,1.4c-0.1,0-0.4,0.1-0.9,0.3c-0.2,0.1-0.5,0.2-0.7,0.4c-0.2,0.1-0.4,0.3-0.6,0.4c-0.8,0.7-1.7,1.9-2,3.8l0.7-0.3
		c0.4-0.2,0.7-0.5,0.8-0.9c0.3-1.1,0.8-1.9,1.2-2.4c0.2-0.2,0.3-0.3,0.5-0.4c0.2-0.2,0.5-0.3,0.6-0.4c0.3-0.1,0.5-0.2,0.5-0.2l0,0
		c0.1,0.1,0.1,0.1,0.2,0.2c0.1,0.1,0.3,0.3,0.4,0.4c0.1,0.1,0.3,0.3,0.4,0.4c0.7,0.7,1.4,1.1,1.4,1.1c-0.4-0.4-0.9-0.9-1.4-1.4
		c-0.1-0.2-0.3-0.3-0.4-0.5c-0.2-0.2-0.3-0.4-0.4-0.7c-0.2-0.6-0.2-1.3,0.4-1.9c0.2-0.2,0.4-0.3,0.6-0.5c0.2-0.1,0.4-0.2,0.6-0.3
		c0,0,0,0,0,0c0.5,0.3,0.9,0.5,1,0.6l0.1-1.5c0-0.4-0.2-0.8-0.5-1.2c-0.1-0.1-0.1-0.1-0.2-0.2c-0.2-0.2-0.3-0.5-0.3-0.8
		c-0.2-0.8,0-1.7,0.5-2.6C46.7-201.9,46.9-202.1,47.2-202.4z"/>
	<path display="inline" fill="#C69C6D" d="M63.7-119.8c-4.2,0-7.6,4.1-7.6,9h15.2C71.3-115.8,67.9-119.8,63.7-119.8z"/>
	<path display="inline" fill="#8C6239" d="M45.4-136c-1.2,0.8-11.5,8.2-8.9,15.6c0.8,2.2,2.2,2.6,3,2.6c0,0,0,0,0.1,0
		c1.1,0,4.1-0.1,8.9-16l1.7-5.5L45.4-136z"/>
	<path display="inline" fill="#AA8561" d="M37.9-119.7c-1.3-3.8,0.2-8.1,2.2-11.5c-2.6,3-5,6.9-3.6,10.9c0.7,2,1.9,2.5,2.7,2.6
		C38.7-118.2,38.3-118.8,37.9-119.7z"/>
	<path display="inline" fill="#C69C6D" d="M65-123.7c0,7.3-5.9,10.2-13.2,10.2s-13.2-2.9-13.2-10.2c0-7.3,5.9-16.3,13.2-16.3
		S65-131,65-123.7z"/>
	<path display="inline" fill="#BD9261" d="M56.1-111.1c5.6-0.4,10-2.7,11.1-7.6c-0.9-0.6-1.9-1-3-1.1c-1.2,3.1-4,4.9-7.6,5.7
		C56.3-113.1,56.1-112.1,56.1-111.1z"/>
	<path display="inline" fill="#B18451" d="M58.3-137.5c3.4,3.3,5.7,8.4,5.7,12.9c0,7.3-5.9,10.2-13.2,10.2c-3.9,0-7.3-0.8-9.7-2.6
		c2.4,2.4,6.3,3.5,10.7,3.5c7.3,0,13.2-2.9,13.2-10.2C65-128.6,62.3-134.3,58.3-137.5z"/>
	<path display="inline" fill="#DCB890" d="M40.6-122c0-7.3,5.9-16.3,13.2-16.3c2,0,3.8,0.7,5.5,1.8c-2.2-2.1-4.8-3.4-7.6-3.4
		c-7.3,0-13.2,9-13.2,16.3c0,3.9,1.7,6.5,4.4,8.1C41.4-117.2,40.6-119.3,40.6-122z"/>
	<g display="inline">
		<g>
			<path fill="#333333" d="M47.8-120.2c-0.2-0.9-1.3-1.7-1.3-1.7l0-0.1c0.1,0,1.3,0.7,1.5,1.7L47.8-120.2z"/>
		</g>
		<g>
			<g>
				<path fill="#333333" d="M46.7-120.2L46.7-120.2c0.1-1.2,1.3-1.8,1.3-1.9l0.1,0.3C48.1-121.8,46.9-121.2,46.7-120.2z"/>
			</g>
			<path fill="none" stroke="#333333" stroke-width="0.5" stroke-linecap="round" stroke-miterlimit="10" d="M48.6-123
				c0.4,0.4,0.7,1.1,0.7,1.8c0,1.3-0.9,2.4-1.9,2.4c-1.1,0-1.9-1.1-1.9-2.4c0-0.8,0.3-1.4,0.7-1.9"/>
		</g>
	</g>
	<path display="inline" fill="#8C6239" d="M59.5-134.8l-4.2-3.9l0.9,5.7c2.6,16.4,5.5,16.9,6.6,17.1c0.1,0,0.3,0,0.4,0
		c0.8,0,2-0.4,2.9-2.1C69.8-125.1,60.6-133.8,59.5-134.8z"/>
	<path display="inline" fill="#744D28" d="M65.2-127.7c1.1,3.3,1.5,7-0.1,10c-0.5,0.9-1,1.4-1.5,1.7c0.8-0.1,1.7-0.6,2.5-2.1
		C67.7-121.2,66.8-124.7,65.2-127.7z"/>
	<path display="inline" fill="#AA8561" d="M58.4-131.3l-0.8-5.4l-2.2-2l0.9,5.7c2.4,15.6,5.2,16.8,6.4,17.1
		C61.3-117.9,59.8-122.1,58.4-131.3z"/>
	<path display="inline" fill="#D4E1E4" d="M43.7-198.4c-0.1-0.3-0.2-0.7-0.2-1.1c0.1-1.1,0.8-2.1,2.2-3c-0.3,0-1.5-0.2-2.3-0.8
		l-27.2-6.8c-0.2,1.9-0.5,3.9-0.9,5.9L43.7-198.4z"/>
	<path display="inline" fill="#D4E1E4" d="M16.1-220.7c-0.7-5-2.5-8-5-8.6c-2.5-0.5-5.3,1.6-8,5.9c-1.4,2.3-2.7,5.1-3.8,8.3l0.5,0.2
		l0.5,0.2l3.8,1.2l0,0c2.1,0.6,3.1,4.3,2.3,8.4c-0.8,4.1-3.2,7.1-5.4,6.8l0,0l-4-0.4l-0.5,0l-0.5,0c-0.7,9.6,1.3,16.8,5.2,17.7
		c0.2,0.1,0.5,0.1,0.7,0.1c2.3,0,4.8-2.1,7.2-6c1.5-2.4,2.8-5.4,3.9-8.8c0.1-0.2,0.1-0.3,0.2-0.5c0.1-0.2,0.1-0.3,0.2-0.5
		c0.7-2.1,1.2-4.3,1.7-6.5c0,0,0-0.1,0-0.1c0.1-0.3,0.1-0.6,0.2-0.9c0.4-2,0.7-4,0.9-5.9c0-0.2,0-0.3,0-0.5c0-0.2,0-0.3,0-0.5
		C16.5-214.6,16.5-217.9,16.1-220.7z"/>
	<path display="inline" fill="#BC4444" d="M43.4-147.9c0.1,4.3-0.5,5-1.3,5s-1.5-0.6-1.6-4.9c-0.1-4.3,0.4-10.5,1.2-10.5
		S43.3-152.2,43.4-147.9z"/>
	<path display="inline" fill="#BC4444" d="M47.7-184.2c0,1.7-0.6,2-1.4,2c-0.8,0-1.4-0.2-1.5-2c0-1.7,0.5-4.2,1.3-4.3
		C46.9-188.4,47.6-186,47.7-184.2z"/>
	<path display="inline" fill="#BC4444" d="M37.3-141.3c0,1-0.4,1.2-0.8,1.2c-0.5,0-0.9-0.1-0.9-1.2c0-1-0.3-2.6,0.2-2.6
		C36.3-143.9,37.3-142.4,37.3-141.3z"/>
	<path display="inline" fill="#BC4444" d="M21.8-168.8c-1.7,5.3-2.3,6.1-2.8,5.9c-0.5-0.1-0.6-1.1,1.1-6.4c1.7-5.3,4.5-13,4.9-12.9
		C25.5-182.1,23.5-174.1,21.8-168.8z"/>
	<path display="inline" fill="#8C6239" d="M217.4-117.8c0,2.5-0.9,4.5-3.4,4.5c-2.5,0-3.4-2-3.4-4.5c0-2.5,0.9-4.5,3.4-4.5
		C216.5-122.2,217.4-120.2,217.4-117.8z"/>
	<path display="inline" fill="#F9F3F3" d="M224.1-171.2c0,7-5.7,9.8-12.7,9.8s-12.7-2.8-12.7-9.8s5.7-15.7,12.7-15.7
		S224.1-178.2,224.1-171.2z"/>
	<path display="inline" fill="#E6E6E6" d="M220.2-181.9c2.1,3,3.4,6.7,3.4,10c0,7-5.7,9.8-12.7,9.8c-4.5,0-8.5-1.2-10.8-3.8
		c2.1,3.2,6.4,4.6,11.3,4.6c7,0,12.7-2.8,12.7-9.8C224.2-174.7,222.7-178.8,220.2-181.9z"/>
	<path display="inline" fill="#FFFFFF" d="M199.7-169.5c0-7,5.7-15.7,12.7-15.7c3.7,0,7,2.3,9.3,5.6c-2.3-4.1-6.1-7.4-10.4-7.4
		c-7,0-12.7,8.6-12.7,15.7c0,2.5,0.7,4.5,2,6C200-166.5,199.7-167.9,199.7-169.5z"/>
	<path display="inline" fill="#8C6239" d="M211.4-194.6c-5,0-8,2.2-8,5.9c0,3.8,3.5,8.2,8,8.2s8-4.4,8-8.2
		C219.4-192.4,216.4-194.6,211.4-194.6z"/>
	<path display="inline" fill="#744D28" d="M215.7-193.9c1.9,1,3,2.6,3,4.8c0,3.8-3.5,8.2-8,8.2c-0.9,0-1.7-0.2-2.5-0.5
		c1,0.5,2.1,0.8,3.3,0.8c4.5,0,8-4.4,8-8.2C219.4-191.2,218.1-193,215.7-193.9z"/>
	<path display="inline" fill="#AA8561" d="M204.4-187.9c0-3.7,3-5.9,8-5.9c2.2,0,4.1,0.4,5.4,1.2c-1.4-1.4-3.6-2.1-6.6-2.1
		c-5,0-8,2.2-8,5.9c0,2.5,1.6,5.3,4,6.9C205.5-183.4,204.4-185.8,204.4-187.9z"/>
	<path display="inline" fill="#C69C6D" d="M219.1-115.9c-2.2,0-4,7.1-4,15.9h7.9C223.1-108.8,221.3-115.9,219.1-115.9z"/>
	<path display="inline" fill="#B18451" d="M220.5-115c1.4,2.4,2.4,8.1,2.4,14.6l-4.9,0.4h5.2C223.1-107,222-112.9,220.5-115z"/>
	<path display="inline" fill="#DCB890" d="M220-115.5c-0.3-0.3-0.6-0.5-1-0.5c-2.2,0-4,7.1-4,15.9h1.2
		C216.3-108.3,218-115,220-115.5z"/>
	<path display="inline" fill="#8C6239" d="M238.2-130c0-3.5-1.8-6.4-4.1-6.4c-1.6,0-3,1.4-3.6,3.5c-1.9-1.1-4.4-2.3-7.6-3.7
		l-5.2-2.3l2.7,5.1c0.6,1.1,5.8,10.5,12.5,10.5c0.5,0,1-0.1,1.6-0.2c2.1-0.5,2.7-1.6,2.8-2.4C237.8-127,238.2-128.4,238.2-130z"/>
	<path display="inline" fill="#C69C6D" d="M226.8-124.9c0,7-5.7,9.8-12.7,9.8s-12.7-2.8-12.7-9.8c0-7,5.7-15.7,12.7-15.7
		S226.8-131.9,226.8-124.9z"/>
	<path display="inline" fill="#B18451" d="M222.3-136.4c2.2,3,3.6,6.8,3.6,10.2c0,7-5.7,9.8-12.7,9.8c-4.3,0-8-1-10.3-3.4
		c2.1,3.3,6.4,4.6,11.3,4.6c7,0,12.7-2.8,12.7-9.8C226.9-128.8,225.1-133.2,222.3-136.4z"/>
	<path display="inline" fill="#DCB890" d="M203.2-123.2c0-7,5.7-15.7,12.7-15.7c2.2,0,4.2,0.8,6,2.2c-2.2-2.3-4.9-3.9-7.9-3.9
		c-7,0-12.7,8.6-12.7,15.7c0,3.5,1.4,6,3.8,7.6C203.9-118.8,203.2-120.7,203.2-123.2z"/>
	<path display="inline" fill="#744D28" d="M230.8-133c0,0.1-0.1,0.1-0.1,0.2c-1.9-1.1-4.4-2.3-7.6-3.7l-1.3-0.6c3,3,5,7.4,5.2,11.4
		c1.8,1.4,3.8,2.4,6,2.4c0,0,0,0,0.1,0c0.1-0.4,0.1-0.9,0.1-1.4C233.1-127.3,232.3-130.3,230.8-133z"/>
	<g display="inline">
		<path fill="#333333" d="M214.6-121.4c-0.2-0.9-1.5-1.6-1.5-1.6l0-0.1c0.1,0,1.5,0.6,1.8,1.6L214.6-121.4z"/>
	</g>
	<g display="inline">
		<path fill="#333333" d="M213.3-121.5l-0.1,0c0.2-1.2,1.7-1.7,1.7-1.8l0.1,0.3C215-123,213.5-122.5,213.3-121.5z"/>
	</g>
	<path display="inline" fill="none" stroke="#333333" stroke-width="0.5" stroke-linecap="round" stroke-miterlimit="10" d="
		M215.6-124.2c0.5,0.4,0.8,1,0.8,1.7c0,1.3-1,2.3-2.3,2.3c-1.3,0-2.3-1-2.3-2.3c0-0.7,0.3-1.4,0.9-1.8"/>
	<path display="inline" fill="#EC5A5A" d="M220.8-141.4h-16.9c-0.6,0-1-0.4-1-1v-28.9c0-3.8,3.1-7,7-7h4.9c3.8,0,7,3.1,7,7v28.9
		C221.8-141.9,221.3-141.4,220.8-141.4z"/>
	<path display="inline" fill="#8C6239" d="M220.8-140.4h-16.9c-1.1,0-2-0.9-2-2v-28.9c0-4.4,3.6-8,8-8h4.9c4.4,0,8,3.6,8,8v28.9
		C222.8-141.3,221.9-140.4,220.8-140.4z M209.9-177.3c-3.3,0-6,2.7-6,6v28.9h16.9l0-28.9c0-3.3-2.7-6-6-6H209.9z"/>
	<g display="inline">
		<path fill="#AA8561" d="M220.8-171.3l0,28.9H205v0.5h16.9l0-28.9c0-2.7-1.7-4.9-4.1-5.7C219.6-175.5,220.8-173.5,220.8-171.3z"/>
		<path fill="#AA8561" d="M203-141.9v-28.9c0-4.4,3.6-8,8-8h4.9c0.9,0,1.9,0.2,2.7,0.5c-1.1-0.6-2.4-1-3.8-1h-4.9c-4.4,0-8,3.6-8,8
			v28.9c0,1,0.8,1.9,1.8,2C203.3-140.8,203-141.3,203-141.9z"/>
	</g>
	<path display="inline" fill="#333333" d="M205.3-124.9c-2.5,0.5-3.3,7.1-1.6,14.7l9.2-2C211.3-119.7,207.9-125.4,205.3-124.9z"/>
	<path display="inline" fill="#535353" d="M206.1-123.9c0.8-0.2,1.8,0.3,2.7,1.3c-1.2-1.6-2.4-2.5-3.4-2.3
		c-2.5,0.5-3.3,7.1-1.6,14.7l0.5-0.1C202.9-117.4,203.7-123.4,206.1-123.9z"/>
	<path display="inline" fill="#8C6239" d="M213-136.4l-5.4-1.9l3.1,4.8c7.2,11.3,10.3,12.7,11.8,12.7c0.3,0,0.5-0.1,0.7-0.1
		c0.8-0.2,2.1-0.9,2.2-3.2C225.8-131.7,214.3-135.9,213-136.4z"/>
	<path display="inline" fill="#744D28" d="M220.6-132.3c2.3,2,4.1,4.5,3.9,7.6c-0.2,2.4-1.5,3-2.2,3.2c-0.2,0-0.4,0.1-0.7,0.1
		c-0.5,0-1.3-0.2-2.4-1c1.6,1.4,2.6,1.7,3.3,1.7c0.3,0,0.5-0.1,0.7-0.1c0.8-0.2,2.1-0.9,2.2-3.2
		C225.5-127.5,223.2-130.3,220.6-132.3z"/>
	<path display="inline" fill="#AA8561" d="M212-132.5l-3.1-4.8l5.4,1.9c0.6,0.2,3.6,1.3,6.5,3.2c-3.3-2.6-7.4-4.1-8.1-4.4l-5.4-1.9
		l3.1,4.8c5.2,8.1,8.3,11.1,10.1,12.2C218.6-123.1,215.9-126.3,212-132.5z"/>
	<path display="inline" fill="#F9F3F3" d="M378.2-168.2c0,7.4-6,10.3-13.4,10.3s-13.4-2.9-13.4-10.3s6-16.4,13.4-16.4
		S378.2-175.6,378.2-168.2z"/>
	<path display="inline" fill="#E6E6E6" d="M366-184.4c5.8,2.1,10.2,9.6,10.2,15.9c0,7.4-6,10.3-13.4,10.3c-1.5,0-3-0.1-4.4-0.4
		c1.9,0.6,4.1,0.9,6.4,0.9c7.4,0,13.4-2.9,13.4-10.3C378.2-175.1,372.8-183.5,366-184.4z"/>
	<path display="inline" fill="#FFFFFF" d="M353.7-166.7c0-7.4,6-16.4,13.4-16.4c1.5,0,3,0.4,4.3,1.1c-2-1.6-4.2-2.6-6.7-2.6
		c-7.4,0-13.4,9.1-13.4,16.4c0,4.4,2.1,7.2,5.4,8.7C354.8-161.1,353.7-163.4,353.7-166.7z"/>
	<path display="inline" fill="#8C6239" d="M364.9-194.6c-5.2,0-8.3,2.3-8.3,6.1c0,3.9,3.6,8.5,8.3,8.5s8.3-4.6,8.3-8.5
		C373.2-192.3,370.1-194.6,364.9-194.6z"/>
	<path display="inline" fill="#744D28" d="M371.3-192.7c0.6,0.9,0.9,1.9,0.9,3.2c0,3.9-3.6,8.5-8.3,8.5c-2.1,0-4-0.9-5.4-2.3
		c1.5,1.9,3.8,3.3,6.4,3.3c4.7,0,8.3-4.6,8.3-8.5C373.2-190.3,372.5-191.7,371.3-192.7z"/>
	<path display="inline" fill="#AA8561" d="M357.7-187.6c0-3.8,3.1-6.1,8.3-6.1c2.3,0,4.3,0.5,5.7,1.3c-1.4-1.4-3.7-2.2-6.8-2.2
		c-5.2,0-8.3,2.3-8.3,6.1c0,2.6,1.6,5.5,4.1,7.2C358.8-183,357.7-185.4,357.7-187.6z"/>
	<path display="inline" fill="#EC5A5A" d="M365.8-171.2c-8.9,0-15.8-3.4-19.7-8.5c-0.7-0.9-2.2-0.5-2.3,0.7
		c-0.1,0.4-0.1,0.9-0.1,1.3c0,8.2,9.6,13.2,21.5,13.2s21.5-5,21.5-13.2l0,0c0-1.1-1.4-1.7-2.2-0.9
		C380.4-174.1,374-171.2,365.8-171.2z"/>
	<path display="inline" fill="#8C6239" d="M365.3-163.4c-13.2,0-22.5-5.9-22.5-14.2c0-0.5,0-1,0.1-1.4c0.1-0.9,0.8-1.7,1.7-2
		c0.9-0.2,1.8,0.1,2.4,0.8c4,5.1,10.9,8.1,18.9,8.1c7.3,0,13.7-2.5,18-7c0.6-0.7,1.6-0.9,2.5-0.5c0.9,0.3,1.4,1.2,1.4,2.1
		C387.8-169.2,378.5-163.4,365.3-163.4z M345.2-179.1C345.1-179.1,345.1-179.1,345.2-179.1c-0.2,0-0.3,0.1-0.3,0.3
		c-0.1,0.4-0.1,0.8-0.1,1.2c0,7.2,8.4,12.2,20.5,12.2s20.5-5,20.5-12.2c0-0.1-0.1-0.2-0.2-0.3c-0.1,0-0.2,0-0.3,0.1
		c-4.7,4.9-11.6,7.7-19.5,7.7c-8.6,0-16.1-3.2-20.5-8.9C345.3-179,345.3-179.1,345.2-179.1z"/>
	<g display="inline">
		<path fill="#AA8561" d="M365.6-164.4c12.1,0,20.5-5,20.5-12.2c0-0.1-0.1-0.2-0.2-0.3c-0.1,0-0.2,0-0.3,0.1
			c-0.6,6.8-8.8,11.4-20.4,11.4c-10,0-17.5-3.5-19.8-8.7C347.2-168.3,355-164.4,365.6-164.4z"/>
		<path fill="#AA8561" d="M343.1-176.7c0-0.5,0-1,0.1-1.4c0.1-0.9,0.8-1.7,1.7-2c0.9-0.2,1.8,0.1,2.4,0.8c4,5.1,10.9,8.1,18.9,8.1
			c7.3,0,13.7-2.5,18-7c0.6-0.7,1.6-0.9,2.5-0.5c0.4,0.2,0.8,0.4,1,0.8c-0.1-0.8-0.6-1.5-1.4-1.8c-0.9-0.3-1.8-0.1-2.5,0.5
			c-4.3,4.5-10.7,7-18,7c-8,0-14.9-2.9-18.9-8.1c-0.6-0.7-1.5-1-2.4-0.8c-0.9,0.3-1.6,1-1.7,2c-0.1,0.5-0.1,1-0.1,1.4
			c0,1.6,0.3,3.1,1,4.5C343.4-174.3,343.1-175.5,343.1-176.7z"/>
	</g>
	<g display="inline">
		<path fill="#29ABE2" d="M348.2-170.1c0,0,5.7,4.9,16.5,4.9C375.6-165.2,346.8-174.8,348.2-170.1z"/>
	</g>
	<g display="inline">
		<path fill="#29ABE2" d="M352.9-161.7c0,1.2-0.8,2.1-1.9,2.1c-1,0-1.9-0.9-1.9-2.1s0.8-7.1,1.9-7.1
			C352-168.8,352.9-162.9,352.9-161.7z"/>
	</g>
	<path display="inline" fill="#4CC7F2" d="M350-160.9c0-1.2,0.8-6.5,1.7-7c-0.2-0.6-0.5-0.9-0.7-0.9c-1,0-1.9,5.9-1.9,7.1
		c0,0.9,0.5,1.7,1.1,2C350.1-160.1,350-160.5,350-160.9z"/>
	<path display="inline" fill="#8C6239" d="M378.4-131.4c-5.7-15.8-8.7-15.7-9.8-15.6c-0.8,0-2.2,0.4-2.9,2.7
		c-2.2,7.7,8.6,14.5,9.8,15.3l4.9,3L378.4-131.4z"/>
	<path display="inline" fill="#8C6239" d="M369.2-148.2c-0.6,0-1.1,0.1-1.6,0.2c-0.3,0-0.6,0.1-1,0.3c-1.9,0.8-3.3,2.4-3.8,4.4
		c-1.4,2.3-3.1,5.6-5.1,10.5l-2.2,5.3l5-2.8c0.6-0.4,3.8-2.2,6.6-5c0.7,0.2,1.4,0.4,2.1,0.4c3.7,0,6.7-3,6.7-6.7
		S372.8-148.2,369.2-148.2z"/>
	<path display="inline" fill="#744D28" d="M377.7-133.4c-0.8-2.2-1.6-4.1-2.3-5.6c-1,2.4-3.4,4.1-6.2,4.1c-0.2,0-0.4,0-0.6-0.1
		c1.1,1.4,2.4,2.5,3.6,3.5c0.3,0,0.5,0.1,0.8,0.1C374.8-131.4,376.5-132.1,377.7-133.4z"/>
	<path display="inline" fill="#AA8561" d="M358.7-132.4c2-4.9,3.7-8.3,5.1-10.5c0.5-2,2-3.6,3.8-4.4c0.4-0.2,0.7-0.3,1-0.3
		c0.5-0.1,1-0.2,1.6-0.2c0.5,0,1.1,0.1,1.6,0.2c-0.8-0.4-1.7-0.6-2.7-0.6c-0.6,0-1.1,0.1-1.6,0.2c-0.3,0-0.6,0.1-1,0.3
		c-1.9,0.8-3.3,2.4-3.8,4.4c-1.4,2.3-3.1,5.6-5.1,10.5l-2.2,5.3l1.7-0.9L358.7-132.4z"/>
	<path display="inline" fill="#744D28" d="M372.8-147.1c1.1,1.2,1.8,2.8,1.8,4.5c0,3.7-3,6.7-6.7,6.7c-0.7,0-1.5-0.1-2.1-0.4
		c-2.5,2.5-5.3,5.6-6.3,6.5l0.9-0.5c0.6-0.4,3.8-2.2,6.6-5c0.7,0.2,1.4,0.4,2.1,0.4c3.7,0,6.7-3,6.7-6.7
		C375.8-143.8,374.6-145.9,372.8-147.1z"/>
	<path display="inline" fill="#535353" d="M-266.5-299.6c-0.2,0-0.4,0-0.7,0c-5,0-9.1,4.1-9.1,9.1h1.3
		C-275-295.3-271.3-299.3-266.5-299.6z"/>
	<path display="inline" fill="#BD9261" d="M-231.7-299.6c-0.4-0.1-0.8-0.1-1.3-0.1c-5,0-9.1,4.1-9.1,9.1h3.1
		C-239-294.9-235.8-298.7-231.7-299.6z"/>
	<path display="inline" fill="#BD9261" d="M386.5-117.6c-0.4-0.1-0.8-0.1-1.3-0.1c-5,0-9.1,4.1-9.1,9.1h3.1
		C379.2-113,382.3-116.7,386.5-117.6z"/>
	<path display="inline" fill="#BD9261" d="M-79.7-299.6c-0.4-0.1-0.8-0.1-1.3-0.1c-5,0-9.1,4.1-9.1,9.1h3.1
		C-87-295-83.9-298.7-79.7-299.6z"/>
	<polygon display="inline" fill="#F6F3F0" points="-69.8,-383.4 -71.7,-389.6 -76.9,-391.4 -71.7,-393.3 -69.8,-399.4 -68,-393.3 
		-62.8,-391.4 -68,-389.6 	"/>
	<polygon display="inline" fill="#F6F3F0" points="226.3,-395.6 227.8,-390.7 231.9,-389.2 227.8,-387.7 226.3,-382.8 224.8,-387.7 
		220.7,-389.2 224.8,-390.7 	"/>
	<path display="inline" fill="#FFFFFF" d="M-113.9-350.9c0-7.4,6-16.4,13.4-16.4c4.2,0,8,3,10.4,6.9c-2.4-4.5-6.5-8.1-11.1-8.1
		c-7.4,0-13.4,9.1-13.4,16.4c0,2.3,0.6,4.2,1.6,5.7C-113.5-347.7-113.9-349.2-113.9-350.9z"/>
	<path display="inline" fill="#FFFFFF" d="M37.9-351.1c0-7.4,6-16.4,13.4-16.4c4.2,0,8,3,10.4,6.9c-2.4-4.5-6.5-8.1-11.1-8.1
		c-7.4,0-13.4,9.1-13.4,16.4c0,2.3,0.6,4.2,1.6,5.7C38.2-347.8,37.9-349.3,37.9-351.1z"/>
	<path display="inline" fill="#E6E6E6" d="M-91.9-363.3c1.8,2.9,2.9,6.4,2.9,9.5c0,7.4-6,10.3-13.4,10.3c-4.6,0-8.7-1.1-11.1-3.8
		c2.1,3.8,6.8,5.4,12.2,5.4c7.4,0,13.4-2.9,13.4-10.3C-87.8-355.9-89.4-360.1-91.9-363.3z"/>
	<path display="inline" fill="#E6E6E6" d="M59.9-363.3c1.8,2.9,2.9,6.4,2.9,9.5c0,7.4-6,10.3-13.4,10.3c-4.6,0-8.7-1.1-11.1-3.8
		c2.1,3.8,6.8,5.4,12.2,5.4c7.4,0,13.4-2.9,13.4-10.3C64-355.9,62.4-360.1,59.9-363.3z"/>
	<path display="inline" fill="#8C6239" stroke="#8C6239" stroke-width="4" stroke-miterlimit="10" d="M-107.5-370.5
		c0-2.9,2.8-4.1,6.3-4.1s6.3,1.1,6.3,4.1s-2.8,6.5-6.3,6.5S-107.5-367.6-107.5-370.5z"/>
	<path display="inline" fill="#744D28" d="M-95.3-375.1c1.2,1,1.8,2.4,1.8,4.1c0,3.9-3.6,8.5-8.3,8.5c-1.6,0-3.1-0.5-4.3-1.4
		c1.4,1.1,3.1,1.9,5,1.9c4.7,0,8.3-4.6,8.3-8.5C-92.8-372.5-93.7-374.1-95.3-375.1z"/>
	<path display="inline" fill="#AA8561" d="M-107.9-369.8c0-3.8,3.1-6.1,8.3-6.1c1.5,0,2.8,0.2,3.9,0.5c-1.4-0.8-3.2-1.2-5.5-1.2
		c-5.2,0-8.3,2.3-8.3,6.1c0,3.3,2.6,7.1,6.3,8.2C-106-363.9-107.9-367-107.9-369.8z"/>
	<path display="inline" fill="#BD9261" d="M-88.7-314.4c1.9,3,3,6.5,3,9.7c0,7.4-6,10.3-13.4,10.3c-4.8,0-9-1.2-11.3-4.1
		c2.1,3.7,6.7,5.2,12.1,5.2c7.4,0,13.4-2.9,13.4-10.3C-85-307.2-86.4-311.2-88.7-314.4z"/>
	<path display="inline" fill="#DCB890" d="M-110.8-302.8c0-7.4,6-16.4,13.4-16.4c2.7,0,5.1,1.2,7.2,3c-2.2-2.3-5-3.9-8.1-3.9
		c-7.4,0-13.4,9.1-13.4,16.4c0,3.3,1.2,5.7,3.1,7.3C-110-297.9-110.8-300-110.8-302.8z"/>
	<g display="inline">
		<path fill="#333333" d="M-97.8-300c-0.2-0.9-1.6-1.7-1.6-1.7l0-0.1c0.1,0,1.6,0.7,1.8,1.7L-97.8-300z"/>
	</g>
	<g display="inline">
		<path fill="#333333" d="M-99.1-300.1l-0.1,0c0.2-1.2,1.7-1.8,1.8-1.9l0.1,0.3C-97.3-301.6-98.9-301.1-99.1-300.1z"/>
	</g>
	<g display="inline">
		<path fill="#333333" d="M-98.4-298.4c-1.5,0-2.7-1.2-2.7-2.7c0-0.8,0.4-1.6,1-2.1c0.1-0.1,0.3-0.1,0.4,0c0.1,0.1,0.1,0.3,0,0.4
			c-0.5,0.4-0.8,1-0.8,1.7c0,1.2,1,2.2,2.2,2.2s2.2-1,2.2-2.2c0-0.6-0.3-1.2-0.7-1.6c-0.1-0.1-0.1-0.2,0-0.4c0.1-0.1,0.2-0.1,0.4,0
			c0.6,0.5,0.9,1.2,0.9,2C-95.7-299.6-96.9-298.4-98.4-298.4z"/>
	</g>
	<path display="inline" fill="#BD9261" d="M62.9-314.4c1.9,3,3,6.5,3,9.7c0,7.4-6,10.3-13.4,10.3c-4.8,0-9-1.2-11.3-4.1
		c2.1,3.7,6.7,5.2,12.1,5.2c7.4,0,13.4-2.9,13.4-10.3C66.7-307.2,65.3-311.2,62.9-314.4z"/>
	<path display="inline" fill="#DCB890" d="M40.9-302.8c0-7.4,6-16.4,13.4-16.4c2.7,0,5.1,1.2,7.2,3c-2.2-2.3-5-3.9-8.1-3.9
		C46-320.1,40-311,40-303.6c0,3.3,1.2,5.7,3.1,7.3C41.7-297.9,40.9-300,40.9-302.8z"/>
	<g display="inline">
		<path fill="#333333" d="M53.9-300c-0.2-0.9-1.6-1.7-1.6-1.7l0-0.1c0.1,0,1.6,0.7,1.8,1.7L53.9-300z"/>
	</g>
	<g display="inline">
		<path fill="#333333" d="M52.5-300.1l-0.1,0c0.2-1.2,1.7-1.8,1.8-1.9l0.1,0.3C54.3-301.6,52.7-301.1,52.5-300.1z"/>
	</g>
	<g display="inline">
		<path fill="#333333" d="M53.3-298.4c-1.5,0-2.7-1.2-2.7-2.7c0-0.8,0.4-1.6,1-2.1c0.1-0.1,0.3-0.1,0.4,0c0.1,0.1,0.1,0.3,0,0.4
			c-0.5,0.4-0.8,1-0.8,1.7c0,1.2,1,2.2,2.2,2.2s2.2-1,2.2-2.2c0-0.6-0.3-1.2-0.7-1.6c-0.1-0.1-0.1-0.2,0-0.4c0.1-0.1,0.2-0.1,0.4,0
			c0.6,0.5,0.9,1.2,0.9,2C56-299.6,54.8-298.4,53.3-298.4z"/>
	</g>
	<g display="inline">
		<g>
			<path fill="#333333" d="M360.9-306c-0.2-0.9-1.6-1.7-1.6-1.7l0-0.1c0.1,0,1.6,0.7,1.8,1.7L360.9-306z"/>
		</g>
		<g>
			<path fill="#333333" d="M359.5-306l-0.1,0c0.2-1.2,1.7-1.8,1.8-1.9l0.1,0.3C361.3-307.6,359.7-307.1,359.5-306z"/>
		</g>
		<g>
			<path fill="#333333" d="M360.3-304.4c-1.5,0-2.7-1.2-2.7-2.7c0-0.8,0.4-1.6,1-2.1c0.1-0.1,0.3-0.1,0.4,0c0.1,0.1,0.1,0.3,0,0.4
				c-0.5,0.4-0.8,1-0.8,1.7c0,1.2,1,2.2,2.2,2.2s2.2-1,2.2-2.2c0-0.6-0.3-1.2-0.7-1.6c-0.1-0.1-0.1-0.2,0-0.4c0.1-0.1,0.2-0.1,0.4,0
				c0.6,0.5,0.9,1.2,0.9,2C363-305.6,361.8-304.4,360.3-304.4z"/>
		</g>
	</g>
	<path display="inline" fill="#AA8561" d="M-124.6-322.4c-0.3-0.7-0.4-1.5-0.4-2.3c0-3.7,3-6.7,6.7-6.7c1.8,0,3.4,0.7,4.6,1.8
		c-1.2-1.7-3.2-2.8-5.4-2.8c-3.7,0-6.7,3-6.7,6.7c0,0.8,0.2,1.6,0.4,2.3c0.4,1.8,1.4,3.3,2.7,4.7
		C-123.6-319.8-124.3-321-124.6-322.4z"/>
	<path display="inline" fill="#F6F3F0" d="M62.1-352.6c0,0-0.1,0-0.1,0c-0.6-3.2-3.4-5.5-6.8-5.5c-1.7,0-3.2,0.6-4.4,1.6
		c-0.6-0.4-1.3-0.7-2-0.7c-1.3,0-2.5,0.8-3,1.9c-0.4-0.1-0.9-0.2-1.3-0.2c-3.1,0-5.6,2.4-5.7,5.5c0,0,0,0,0,0
		c-2.4,0-4.3,1.9-4.3,4.3c0,2.4,1.9,4.3,4.3,4.3c0.3,0,0.7,0,1-0.1c0.8,0.9,2,1.5,3.3,1.5c0.6,0,1.1-0.1,1.6-0.3
		c1,1.2,2.5,1.9,4.2,1.9c1.8,0,3.4-0.9,4.5-2.2c0.6,0.3,1.2,0.5,1.9,0.5c1.6,0,3-0.9,3.7-2.3c0.9,0.6,2,1,3.2,1
		c3.1,0,5.6-2.5,5.6-5.6C67.7-350.1,65.2-352.6,62.1-352.6z"/>
	<g display="inline">
		<path fill="#FFFFFF" d="M65.7-349.2c0,0,0.1,0,0.1,0c0.4,0,0.8,0,1.2,0.1c-0.5-1.3-1.5-2.3-2.7-2.9
			C65-351.2,65.5-350.2,65.7-349.2z"/>
		<path fill="#FFFFFF" d="M38.1-342.3c0-2.4,1.9-4.3,4.3-4.3c0,0,0,0,0,0c0.1-3.1,2.6-5.5,5.7-5.5c0.5,0,0.9,0.1,1.3,0.2
			c0.5-1.1,1.7-1.9,3-1.9c0.8,0,1.4,0.3,2,0.7c1.2-1,2.7-1.6,4.4-1.6c0.8,0,1.5,0.1,2.1,0.4c-1.2-2.2-3.5-3.8-6.1-3.8
			c-1.7,0-3.2,0.6-4.4,1.6c-0.6-0.4-1.3-0.7-2-0.7c-1.3,0-2.5,0.8-3,1.9c-0.4-0.1-0.9-0.2-1.3-0.2c-3.1,0-5.6,2.4-5.7,5.5
			c0,0,0,0,0,0c-2.4,0-4.3,1.9-4.3,4.3c0,2.3,1.8,4.2,4.1,4.3C38.1-341.7,38.1-342,38.1-342.3z"/>
	</g>
	<path display="inline" fill="#E6E6E6" d="M65.1-351.7c0.7,0.9,1.2,2.1,1.2,3.4c0,3.1-2.5,5.6-5.6,5.6c-1.2,0-2.3-0.4-3.2-1
		c-0.7,1.4-2.1,2.3-3.7,2.3c-0.7,0-1.4-0.2-1.9-0.5c-1,1.3-2.6,2.2-4.5,2.2c-1.7,0-3.2-0.7-4.2-1.9c-0.5,0.2-1,0.3-1.6,0.3
		c-0.4,0-0.8,0.1-1.3,0.3c0.7,0.4,1.5,0.7,2.3,0.7c0.6,0,1.1-0.1,1.6-0.3c1,1.2,2.5,1.9,4.2,1.9c1.8,0,3.4-0.9,4.5-2.2
		c0.6,0.3,1.2,0.5,1.9,0.5c1.6,0,3-0.9,3.7-2.3c0.9,0.6,2,1,3.2,1c3.1,0,5.6-2.5,5.6-5.6C67.2-349,66.4-350.6,65.1-351.7z"/>
	<path display="inline" fill="#8C6239" stroke="#8C6239" stroke-width="4" stroke-miterlimit="10" d="M44.2-370.5
		c0-2.9,2.8-4.1,6.3-4.1c3.5,0,6.3,1.1,6.3,4.1S54-364,50.5-364C47-364,44.2-367.6,44.2-370.5z"/>
	<path display="inline" fill="#744D28" d="M56.4-375.1c1.2,1,1.8,2.4,1.8,4.1c0,3.9-3.6,8.5-8.3,8.5c-1.6,0-3.1-0.5-4.3-1.4
		c1.4,1.1,3.1,1.9,5,1.9c4.7,0,8.3-4.6,8.3-8.5C58.9-372.5,58-374.1,56.4-375.1z"/>
	<path display="inline" fill="#AA8561" d="M43.7-369.8c0-3.8,3.1-6.1,8.3-6.1c1.5,0,2.8,0.2,3.9,0.5c-1.4-0.8-3.2-1.2-5.5-1.2
		c-5.2,0-8.3,2.3-8.3,6.1c0,3.3,2.6,7.1,6.3,8.2C45.6-363.9,43.7-367,43.7-369.8z"/>
	<path display="inline" fill="#8C6239" d="M374-379.5c2.3,16.7-3,38.6-12.9,39.9c-9.9,1.4-20.8-18.3-23.1-35s4.9-24.3,14.9-25.6
		C362.8-401.5,371.7-396.2,374-379.5z"/>
	<path display="inline" fill="#744D28" d="M373.9-379.5c-1.3-9.7-4.9-15.6-9.6-18.6c4.3,3.1,7.6,8.8,8.9,18.1
		c2.3,16.7-3,38.6-12.9,39.9c-2,0.3-4.1-0.3-6.1-1.6c2.3,1.6,4.6,2.4,6.9,2.1C371-340.9,376.2-362.8,373.9-379.5z"/>
	<path display="inline" fill="#AA8561" d="M338.9-373.7c-2.3-16.7,4.9-24.3,14.9-25.6c4.8-0.7,9.3,0.3,13,3.2
		c-3.9-3.7-8.8-4.8-14-4.1c-9.9,1.4-17.1,8.9-14.9,25.6c1.7,12.4,8.1,26.3,15.3,32.2C346.4-348.7,340.5-361.9,338.9-373.7z"/>
	<path display="inline" fill="#333333" d="M371.6-377c2,14.7-2.4,33.9-10.9,35c-8.5,1.2-17.9-16.1-19.9-30.8
		c-2-14.7,4.1-21.3,12.7-22.4C362-396.4,369.6-391.7,371.6-377z"/>
	<path display="inline" fill="#EC5A5A" d="M357.8-365.9c-1.3,0-3.7,3.5-3.7,4.6c0,1.1,0.9,2,2,2c0.8,0,1.4-0.4,1.7-1.1
		c0.3,0.6,1,1.1,1.7,1.1c1.1,0,2-0.9,2-2C361.5-362.4,359.1-365.8,357.8-365.9z"/>
	<path display="inline" fill="#FFFFFF" d="M-265.9-166.9c0-7.4,6-16.4,13.4-16.4c4.2,0,8,3,10.4,6.9c-2.4-4.5-6.5-8.1-11.1-8.1
		c-7.4,0-13.4,9.1-13.4,16.4c0,2.3,0.6,4.2,1.6,5.7C-265.5-163.7-265.9-165.2-265.9-166.9z"/>
	<path display="inline" fill="#E6E6E6" d="M-243.9-179.3c1.8,2.9,2.9,6.4,2.9,9.5c0,7.4-6,10.3-13.4,10.3c-4.6,0-8.7-1.1-11.1-3.8
		c2.1,3.8,6.8,5.4,12.2,5.4c7.4,0,13.4-2.9,13.4-10.3C-239.8-171.9-241.3-176.1-243.9-179.3z"/>
	<path display="inline" fill="#8C6239" stroke="#8C6239" stroke-width="4" stroke-miterlimit="10" d="M-259.5-186.5
		c0-2.9,2.8-4.1,6.3-4.1c3.5,0,6.3,1.1,6.3,4.1s-2.8,6.5-6.3,6.5C-256.6-180-259.5-183.6-259.5-186.5z"/>
	<path display="inline" fill="#AA8561" d="M-259.9-185.9c0-3.8,3.1-6.1,8.3-6.1c1.5,0,2.8,0.2,3.9,0.5c-1.4-0.8-3.2-1.2-5.5-1.2
		c-5.2,0-8.3,2.3-8.3,6.1c0,3.3,2.6,7.1,6.3,8.2C-258-179.9-259.9-183.1-259.9-185.9z"/>
	<path display="inline" fill="#744D28" d="M-247.3-191.2c1.2,1,1.8,2.4,1.8,4.1c0,3.9-3.6,8.5-8.3,8.5c-1.6,0-3.1-0.5-4.3-1.4
		c1.4,1.1,3.1,1.9,5,1.9c4.7,0,8.3-4.6,8.3-8.5C-244.8-188.6-245.7-190.2-247.3-191.2z"/>
	<g display="inline">
		<g>
			<path fill="#8C6239" d="M-263.5-166.6c-3.1,0-4.8-2.9-4.9-3.1c-0.3-0.5-0.1-1.1,0.4-1.4c0.5-0.3,1.1-0.1,1.4,0.4
				c0.1,0.1,1.4,2.4,3.6,2c0.5-0.1,1.1-0.2,1.8-0.4c3.6-0.9,9.6-2.5,18.6,0.5c0.7-0.1,2.9-0.4,3.3-2.3c0.1-0.5,0.6-0.9,1.2-0.8
				c0.5,0.1,0.9,0.7,0.8,1.2c-0.8,3.4-4.5,3.9-5.2,3.9c-0.2,0-0.4,0-0.5-0.1c-8.5-2.8-14.2-1.4-17.6-0.5c-0.8,0.2-1.5,0.4-2,0.5
				C-262.9-166.7-263.2-166.6-263.5-166.6z"/>
		</g>
		<g>
			<g>
				<path fill="#FFFFFF" d="M-258-168.4c0,0-3.3,2-2.7,7.5"/>
			</g>
			<g>
				<path fill="#8C6239" d="M-260.4-160.6c-0.2,0-0.4-0.2-0.5-0.4c-0.6-5.7,2.8-7.9,2.9-8c0.2-0.1,0.5-0.1,0.6,0.2
					c0.1,0.2,0,0.5-0.2,0.6C-260.9-165.2-260.1-160.6-260.4-160.6C-260.4-160.6-260.4-160.6-260.4-160.6z"/>
			</g>
		</g>
		<g>
			<g>
				<path fill="#FFFFFF" d="M-255.9-168.4c0,0-0.9,2.1-0.7,4.5"/>
			</g>
			<g>
				<path fill="#8C6239" d="M-256.6-163.4c-0.2,0-0.4-0.2-0.5-0.4c-0.2-2.4,0.7-4.6,0.8-4.7c0.1-0.2,0.4-0.3,0.6-0.2
					c0.2,0.1,0.3,0.4,0.2,0.6C-255.5-168.2-257.1-164.9-256.6-163.4C-256.6-163.4-256.6-163.4-256.6-163.4z"/>
			</g>
		</g>
		<g>
			<g>
				<path fill="#FFFFFF" d="M-251.2-168.8c0,0,2.1,1.8,2.6,6.2"/>
			</g>
			<g>
				<path fill="#8C6239" d="M-248.6-162.2c-0.6-3.5-2.9-6.2-3-6.3c-0.2-0.2-0.2-0.5,0-0.6c0.2-0.2,0.5-0.2,0.6,0
					c0.1,0.1,2.2,2,2.8,6.4C-248.1-162.5-248.3-162.3-248.6-162.2C-248.5-162.2-248.5-162.2-248.6-162.2z"/>
			</g>
		</g>
		<g>
			<g>
				<path fill="#8C6239" d="M-243.9-164.7C-243.9-164.7-243.9-164.7-243.9-164.7c-0.3,0,0.4-0.6-1.7-3.1c-0.2-0.2-0.1-0.5,0.1-0.6
					c0.2-0.2,0.5-0.1,0.6,0.1c0.2,0.2,1.5,2,1.4,3.2C-243.5-164.9-243.7-164.7-243.9-164.7z"/>
			</g>
		</g>
	</g>
	<g display="inline">
		<path fill="#744D28" d="M-256.8-168.3c-0.2,0-0.4,0.1-0.6,0.1c-0.1,0.1-0.2,0.2-0.3,0.3c0.3-0.1,0.6-0.1,0.9-0.2
			C-256.9-168.1-256.9-168.2-256.8-168.3z"/>
		<path fill="#744D28" d="M-266.4-170.4c-0.1-0.2-0.2-0.3-0.2-0.3c0-0.1-0.1-0.1-0.1-0.2C-266.7-170.8-266.6-170.6-266.4-170.4z"/>
		<path fill="#744D28" d="M-245.6-167.6c-1.7-0.4-3.2-0.7-4.7-0.9c0,0.1,0.1,0.1,0.1,0.2c1.4,0.1,3,0.4,4.6,0.8
			C-245.5-167.5-245.5-167.5-245.6-167.6z"/>
		<path fill="#744D28" d="M-237.6-171.5c0.1,0.2,0.2,0.4,0.1,0.7c-0.3,1.3-1,2.2-1.8,2.8c-1.4,1-3,1.2-3.5,1.2c-0.2,0-0.4,0-0.5-0.1
			c-0.2-0.1-0.4-0.1-0.7-0.2c0,0,0,0.1,0,0.1c0.3,0.1,0.6,0.2,1,0.3c0.2,0.1,0.4,0.1,0.5,0.1c0.7-0.1,4.5-0.5,5.2-3.9
			C-237.2-170.9-237.3-171.3-237.6-171.5z"/>
		<path fill="#744D28" d="M-251.7-168.6c-1.4-0.1-2.6,0-3.7,0.1c0,0.1,0,0.2,0,0.2c1.2-0.1,2.5-0.2,3.9-0.1
			C-251.6-168.4-251.7-168.5-251.7-168.6z"/>
		<path fill="#744D28" d="M-260-167.4c0.1-0.1,0.1-0.2,0.2-0.3c-0.4,0.1-0.8,0.2-1.2,0.3c-0.8,0.2-1.5,0.4-2,0.5
			c-0.3,0-0.5,0.1-0.8,0.1c-0.8,0-1.6-0.2-2.2-0.5c0.7,0.4,1.6,0.7,2.6,0.7c0.3,0,0.5,0,0.8-0.1c0.6-0.1,1.3-0.3,2-0.5
			C-260.4-167.3-260.2-167.3-260-167.4z"/>
	</g>
	<g display="inline">
		<path fill="#AA8561" d="M-262.7-168.5c0.5-0.1,1.1-0.2,1.8-0.4c3.6-0.9,9.6-2.5,18.6,0.5c0.7-0.1,2.9-0.4,3.3-2.3
			c0.1-0.5,0.6-0.9,1.2-0.8c0.1,0,0.1,0.1,0.2,0.1c-0.1-0.1-0.3-0.2-0.5-0.3c-0.5-0.1-1.1,0.2-1.2,0.8c-0.4,1.9-2.6,2.3-3.3,2.3
			c-9-3-15-1.4-18.6-0.5c-0.7,0.2-1.4,0.4-1.8,0.4c-0.8,0.1-1.5-0.1-2.1-0.4C-264.4-168.7-263.7-168.4-262.7-168.5z"/>
		<path fill="#AA8561" d="M-268.1-169.6c-0.3-0.5-0.1-1.1,0.4-1.4c0.3-0.2,0.6-0.2,0.9,0c-0.3-0.3-0.8-0.4-1.2-0.2
			c-0.5,0.3-0.6,0.9-0.4,1.4c0.1,0.1,0.8,1.4,2.2,2.3C-267.4-168.4-268.1-169.5-268.1-169.6z"/>
	</g>
	<path display="inline" fill="#8C6239" d="M-103.5-160.8c-0.5-0.2-1.2-0.2-2.1,0c-7.8,1.6-8.9,14.3-9,15.8l-0.4,5.7l3.9-4.2
		c1.6-1.8,2.9-3.3,4.1-4.7c0.9,0.5,2,0.7,3.1,0.7c3.7,0,6.7-3,6.7-6.7C-97.4-157.6-100.1-160.5-103.5-160.8z"/>
	<path display="inline" fill="#744D28" d="M-97.7-156.2c0.1,0.4,0.1,0.7,0.1,1.1c0,3.7-3,6.7-6.7,6.7c-1.1,0-2.1-0.3-3.1-0.7
		c-0.7,0.9-2.4,3.6-3.9,5.8l0.1-0.1c1.6-1.8,2.9-3.3,4.1-4.7c0.9,0.5,2,0.7,3.1,0.7c3.7,0,6.7-3,6.7-6.7
		C-97.4-154.8-97.5-155.6-97.7-156.2z"/>
	<path display="inline" fill="#AA8561" d="M-104.7-158.4c0.9-0.2,1.6-0.1,2.1,0c2.1,0.2,3.9,1.3,5,2.9c-0.6-2.9-3-5.1-6-5.3
		c-0.5-0.2-1.2-0.2-2.1,0c-7.8,1.6-8.9,14.3-9,15.8l-0.1,1.7C-114.3-146.3-111.8-157-104.7-158.4z"/>
	<path display="inline" fill="#8C6239" d="M-51.5-129.2c4.2-9.1,5.2-18.4,3.1-24.6l0,0c-0.1-1.4-2.6-3.6-6.1-5.2
		c-3.5-1.6-6.8-2.1-7.9-1.3l0,0c-6.1,2.5-12.5,9.2-16.7,18.4c-4.2,9.1-5.2,18.4-3.1,24.6l14,6.5C-62.1-113.3-55.7-120-51.5-129.2z"
		/>
	<path display="inline" fill="#AA8561" d="M-74.8-137.4c4.2-9.1,10.6-15.9,16.7-18.4l0,0c1.1-0.8,4.4-0.3,7.9,1.3
		c0.7,0.3,1.3,0.6,1.9,1c0-0.1-0.1-0.2-0.1-0.3l0,0c-0.1-1.4-2.6-3.6-6.1-5.2s-6.8-2.1-7.9-1.3l0,0c-6.1,2.5-12.5,9.2-16.7,18.4
		s-5.2,18.4-3.1,24.6l3.7,1.7C-79.6-121.6-78.4-129.5-74.8-137.4z"/>
	<g display="inline">
		<path fill="#C7B299" d="M-67.7-152.8c-0.1-0.2-0.1-0.4,0-0.6c1.9-3,5.8-4.9,5.9-5c0.2-0.1,0.5,0,0.7,0.2c0.1,0.2,0,0.5-0.2,0.7
			c0,0-3.8,1.9-5.5,4.7c-0.1,0.2-0.5,0.3-0.7,0.2C-67.6-152.7-67.6-152.7-67.7-152.8z"/>
	</g>
	<g display="inline">
		<path fill="#C7B299" d="M-69.5-149.9c-0.1-0.2-0.1-0.4,0-0.6l0.9-1.3c0.2-0.2,0.5-0.3,0.7-0.1c0.2,0.2,0.3,0.5,0.1,0.7l-0.9,1.3
			c-0.2,0.2-0.5,0.3-0.7,0.1C-69.4-149.8-69.4-149.9-69.5-149.9z"/>
	</g>
	
		<ellipse transform="matrix(-0.3992 0.9169 -0.9169 -0.3992 -209.667 -91.2887)" display="inline" fill="#B18451" cx="-74.9" cy="-114.3" rx="2.6" ry="7.8"/>
	<path display="inline" fill="#F0F5F6" d="M-2-185.6c0-0.1,0-0.2,0-0.2c0-0.1,0-0.2-0.1-0.3c0-0.1,0-0.2,0-0.3
		c-0.1-0.6-0.2-1.3-0.2-1.9c0,0,0,0,0,0c-0.2-2.1-0.2-4.4,0-6.9l0,0c0-0.2,0-0.3,0-0.5c0-0.2,0-0.3,0-0.5c0-0.2,0-0.3,0-0.5
		c0.2-1.9,0.5-3.9,0.9-5.9c0.1-0.3,0.1-0.6,0.2-0.9c0,0,0-0.1,0-0.1c0.5-2.3,1-4.5,1.7-6.5c0.1-0.2,0.1-0.3,0.2-0.5
		c0.1-0.2,0.1-0.3,0.2-0.5c0.1-0.2,0.1-0.3,0.2-0.5l0,0c0.1-0.2,0.2-0.4,0.2-0.6c0.2-0.5,0.4-1.1,0.6-1.6c0.1-0.2,0.2-0.5,0.3-0.7
		c0.2-0.5,0.4-1,0.6-1.5c0.1-0.2,0.2-0.5,0.3-0.7c0.2-0.4,0.4-0.9,0.6-1.3c0.2-0.3,0.3-0.6,0.5-0.9c0.2-0.3,0.3-0.6,0.5-0.9
		c0,0,0,0,0-0.1c0.3-0.4,0.5-0.8,0.8-1.2c0-0.1,0.1-0.1,0.1-0.2c0.3-0.4,0.5-0.7,0.8-1c0-0.1,0.1-0.1,0.1-0.2
		c0.3-0.3,0.5-0.6,0.8-0.9c0,0,0.1-0.1,0.1-0.1c0.3-0.3,0.6-0.5,0.8-0.8c0,0,0,0,0,0c0.9-0.7,1.8-1.2,2.7-1.4c0,0,0,0,0,0
		c0.6-0.1,1.1-0.1,1.6,0c0.9,0.2,1.8,0.7,2.5,1.6c-0.9-2.9-2.4-4.7-4.2-5.1c-0.5-0.1-1.1-0.1-1.6,0c0,0,0,0,0,0
		c-0.9,0.2-1.8,0.7-2.7,1.4c0,0,0,0,0,0c-0.3,0.2-0.6,0.5-0.8,0.8c0,0-0.1,0.1-0.1,0.1c-0.3,0.3-0.5,0.6-0.8,0.9
		c0,0.1-0.1,0.1-0.1,0.2c-0.3,0.3-0.5,0.7-0.8,1c0,0.1-0.1,0.1-0.1,0.2c-0.3,0.4-0.5,0.8-0.8,1.2c0,0,0,0,0,0.1
		c-0.2,0.3-0.3,0.6-0.5,0.9c-0.2,0.3-0.4,0.6-0.5,0.9c-0.2,0.4-0.4,0.9-0.6,1.3c-0.1,0.2-0.2,0.5-0.3,0.7c-0.2,0.5-0.4,1-0.6,1.5
		c-0.1,0.2-0.2,0.5-0.3,0.7c-0.2,0.5-0.4,1-0.6,1.6c-0.1,0.2-0.2,0.4-0.2,0.6l0,0c-0.1,0.2-0.1,0.3-0.2,0.5
		c-0.1,0.2-0.1,0.3-0.2,0.5c-0.1,0.2-0.1,0.3-0.2,0.5c-0.7,2.1-1.2,4.3-1.7,6.5c0,0,0,0.1,0,0.1c-0.1,0.3-0.1,0.6-0.2,0.9
		c-0.4,2-0.7,4-0.9,5.9c0,0.2,0,0.3,0,0.5c0,0.2,0,0.3,0,0.5c0,0.2,0,0.3,0,0.5l0,0c-0.2,2.5-0.2,4.8,0,6.9c0,0,0,0,0,0
		c0.1,0.7,0.1,1.3,0.2,1.9c0,0.1,0,0.2,0,0.3c0,0.1,0,0.2,0.1,0.3c0,0.1,0,0.2,0,0.2c0.5,2.8,1.3,5,2.4,6.3
		C-1.6-183.6-1.8-184.5-2-185.6z"/>
	<path display="inline" fill="#4381A9" d="M4.1-213.5L4.1-213.5l-3.8-1.3l-0.5-0.2l-0.5-0.2l-14.7-4.8c0.7,0.7,1.2,1.7,1.5,2.9
		c0.6,2.2,0.7,4.9,0.1,7.7c-0.9,4.6-3.2,8-5.7,9.1l15.4,1.4l0.5,0l0.5,0l4,0.4l0,0c2.2,0.3,4.5-2.7,5.4-6.8
		C7.2-209.3,6.2-212.9,4.1-213.5z"/>
	<path display="inline" fill="#2B688F" d="M1.2-200.1L1.2-200.1l-4-0.3l-0.5,0l-0.5,0l-13.5-1.2c-0.7,0.7-1.4,1.3-2.1,1.6l15.4,1.4
		l0.5,0l0.5,0l4,0.4l0,0c2.2,0.3,4.5-2.7,5.4-6.8c0.1-0.6,0.2-1.2,0.2-1.7C5.8-202.8,3.4-199.8,1.2-200.1z"/>
	<path display="inline" fill="#D4E1E4" d="M-13.8-217c-0.4-1.2-0.9-2.2-1.5-2.9c-0.6-0.6-1.2-1-2-1.2c-3.2-0.7-6.7,3.5-8,9.4
		c-1.2,6,0.4,11.1,3.6,11.8c0.2,0,0.5,0.1,0.7,0.1c0.5,0,1.1-0.1,1.6-0.4c2.5-1.1,4.7-4.6,5.7-9.1C-13.2-212-13.2-214.8-13.8-217z"
		/>
	<g display="inline">
		<path fill="#F0F5F6" d="M-24.7-209.9c1.2-5.9,4.7-10.1,8-9.4c0.3,0.1,0.5,0.1,0.7,0.3c-0.2-0.3-0.5-0.6-0.8-0.8
			c0.3,0.2,0.6,0.5,0.8,0.8c0.5,0.2,0.9,0.5,1.2,0.9c0.3,0.3,0.6,0.7,0.8,1.1c0,0,0-0.1,0-0.1c-0.4-1.2-0.9-2.2-1.5-2.9
			c-0.6-0.6-1.2-1-2-1.2c-3.2-0.7-6.7,3.5-8,9.4c-0.8,3.8-0.4,7.3,0.8,9.5C-25.2-204.4-25.3-207-24.7-209.9z"/>
	</g>
	<path display="inline" fill="#66A3CB" d="M-0.2-213.3l0.5,0.2l0.5,0.2l3.8,1.2l0,0c0.8,0.2,1.5,1,1.9,2c-0.3-2-1.2-3.5-2.4-3.8l0,0
		l-3.8-1.2l-0.5-0.2l-0.5-0.2l-14.7-4.8c0.5,0.5,0.9,1.2,1.3,2.1L-0.2-213.3z"/>
</g>
<g id="耳朵">
	<g id="耳朵9" display="none">
		<g display="inline">
			<polygon fill="#C69C6D" points="107.4,11.7 138.8,19.6 100.8,38.3 			"/>
			<polygon fill="#B18451" points="101.1,36.5 100.7,38.3 138.7,19.6 138.5,19.5 			"/>
			<polygon fill="#DCB890" points="109.4,15 130.4,17.4 107.4,11.7 101.3,36.3 			"/>
			<polygon fill="#C69C6D" points="42.4,11.8 11.2,20.5 49.7,38.2 			"/>
			<polygon fill="#B18451" points="47.1,36.2 41.6,34.5 49.7,38.2 42.4,11.8 41.5,12.1 			"/>
			<polygon fill="#DCB890" points="19.2,21.1 38.1,13 11.2,20.5 44.6,35.9 			"/>
		</g>
	</g>
	<g id="耳朵8" display="none">
		<g display="inline">
			<polygon fill="#C69C6D" points="84,22.2 110.3,6.1 97.6,44.5 			"/>
			<polygon fill="#B18451" points="96.4,42.5 97.6,44.4 109.2,9.4 			"/>
			<polygon fill="#DCB890" points="86.9,22.9 104.9,9.4 84,22.2 96.2,42.2 			"/>
			<polygon fill="#C69C6D" points="63.3,24.9 39.7,5.1 46.4,44.9 			"/>
			<polygon fill="#B18451" points="47.3,11.5 61.7,24.5 46.4,44.6 46.4,45 63.3,25 			"/>
			<polygon fill="#DCB890" points="42,8.3 51.9,15.3 39.7,5 44.8,35.2 			"/>
		</g>
	</g>
	<g id="耳朵7">
		<g>
			<polygon fill="#C69C6D" points="101.7,12.9 122.9,20.3 92.8,38.5 			"/>
			<polygon fill="#B18451" points="93.7,35.8 92.8,38.5 122.9,20.3 122.8,20.3 			"/>
			<polygon fill="#DCB890" points="103.1,15.3 116.6,18.1 101.8,12.9 94.6,33.6 			"/>
			<polygon fill="#C69C6D" points="48.2,11.4 27.2,11.4 48.2,38.5 			"/>
			<polygon fill="#B18451" points="47.1,35.9 42.5,31.2 48.3,38.6 48.3,17 			"/>
			<polygon fill="#DCB890" points="31.5,13.5 44.9,11.4 27.1,11.4 42.8,31.5 			"/>
		</g>
	</g>
	<g id="耳朵6" display="none">
		<g display="inline">
			<polygon fill="#C69C6D" points="16.7,10.9 9.9,42.6 43.5,16.7 			"/>
			<polygon fill="#B18451" points="10.7,38.6 9.9,42.6 43.5,16.7 43.4,16.7 			"/>
			<polygon fill="#DCB890" points="19.4,14.6 37.5,15.5 16.7,10.9 11.2,36.5 			"/>
			<polygon fill="#C69C6D" points="129.1,7.4 140.1,37.9 103.3,16.8 			"/>
			<polygon fill="#B18451" points="132.1,15.5 134.6,31.1 110.8,21 140.1,37.8 			"/>
			<polygon fill="#DCB890" points="130.4,11.2 129.1,7.5 103.3,16.8 104.2,17.4 			"/>
		</g>
	</g>
	<g id="耳朵5" display="none">
		<g display="inline">
			<polygon fill="#C69C6D" points="100.3,18 132.7,18 100.3,45.4 			"/>
			<polygon fill="#B18451" points="127,18 105.4,41.1 132.6,18 			"/>
			<polygon fill="#DCB890" points="103,19.5 117.4,18.1 100.3,18.1 100.3,45.5 101.6,44.3 			"/>
			<polygon fill="#C69C6D" points="17.3,34.4 29.8,4.5 42.6,44.9 			"/>
			<polygon fill="#B18451" points="42.6,44.9 30.3,6.2 39.4,42.1 32.2,40.6 			"/>
			<polygon fill="#DCB890" points="19.7,33.8 31.5,9.6 29.9,4.6 17.4,34.4 34.7,41.6 			"/>
		</g>
	</g>
	<g id="耳朵3" display="none">
		<g display="inline">
			<polygon fill="#C69C6D" points="37.9,13.2 10.1,29.8 51.9,36.7 			"/>
			<polygon fill="#DCB890" points="38.2,14.6 47.2,28.8 37.9,13.2 10.1,29.8 12.2,30.1 			"/>
			<polygon fill="#B18451" points="44.1,23.6 50.7,35.9 10.7,29.9 51.9,36.7 			"/>
			<polygon fill="#C69C6D" points="112.1,13.2 139.9,29.7 98.1,36.8 			"/>
			<polygon fill="#B18451" points="124,20.3 136.3,28.9 108.2,35.1 139.9,29.7 			"/>
			<polygon fill="#DCB890" points="112.7,15.5 130.5,24.1 112.1,13.3 99.5,34.6 			"/>
		</g>
	</g>
	<g id="耳朵2" display="none">
		<g display="inline">
			<polygon fill="#C69C6D" points="103.5,11.3 135.8,11.3 103.5,38.7 			"/>
			<polygon fill="#C69C6D" points="46.5,11.3 14.2,11.3 46.5,38.7 			"/>
			<polygon fill="#B18451" points="103.5,36.8 103.5,33.6 103.5,38.7 129,17.1 			"/>
			<polygon fill="#DCB890" points="105.3,13 127.1,11.3 103.5,11.3 103.5,38.2 			"/>
			<polygon fill="#B18451" points="45.4,37.3 36.1,29.9 46.5,38.7 46.5,15.2 			"/>
			<polygon fill="#DCB890" points="17.7,12.4 41.9,11.3 14.2,11.3 38.9,32.3 			"/>
		</g>
	</g>
	<g id="耳朵1" display="none">
		<g display="inline">
			<polygon fill="#C69C6D" points="103.5,11.3 135.8,11.3 103.5,38.7 			"/>
			<polygon fill="#B18451" points="103.6,36.8 103.5,33.6 103.5,38.7 129,17.1 			"/>
			<polygon fill="#DCB890" points="105.3,13 127.1,11.3 103.5,11.3 103.5,38.2 			"/>
			<polygon fill="#C69C6D" points="46.5,11.3 14.2,11.3 46.5,38.7 			"/>
			<polygon fill="#B18451" points="45.4,37.3 36.1,29.8 46.5,38.7 46.5,15.2 			"/>
			<polygon fill="#DCB890" points="17.7,12.4 41.9,11.3 14.2,11.3 38.9,32.3 			"/>
		</g>
	</g>
</g>
<g id="眼睛" display="none">
	<g id="眼睛1">
		<g display="inline">
			<path fill="#F6F3F0" d="M69,26.4C69,36.9,63,44,55.7,44s-13.4-7.1-13.4-17.6S48.3,6,55.7,6S69,15.9,69,26.4z"/>
			<path fill="#E6E6E6" d="M52.7,40.5c-3.1,0-6-1.3-8.3-3.6c2.4,3.5,6,5.6,9.9,5.6c7.4,0,13.4-7.1,13.4-17.6c0-0.4,0-0.8,0-1.2
				C66.6,33.1,59.5,40.5,52.7,40.5z"/>
			<path fill="#FFFFFF" d="M45,31c0-10.5,6-20.4,13.4-20.4c3.1,0,5.9,1.7,8.2,4.5c-2.4-5.4-6.4-9.2-11-9.2
				c-7.4,0-13.4,9.9-13.4,20.4c0,5.6,1.7,10.2,4.4,13.3C45.6,37.2,45,34.2,45,31z"/>
			<path fill="#8C6239" d="M55.7,46c-8.8,0-15.4-8.4-15.4-19.6c0-12.1,7-22.4,15.4-22.4S71,14.3,71,26.4C71,37.6,64.4,46,55.7,46z
				 M55.7,8c-5.9,0-11.4,8.8-11.4,18.4c0,9,4.8,15.6,11.4,15.6C62.2,42,67,35.5,67,26.4C67,16.8,61.6,8,55.7,8z"/>
			<g>
				<path fill="#AA8561" d="M40.8,27.5c0-12.1,7-22.4,15.4-22.4c5,0,9.6,3.7,12.4,9.4C65.8,8.3,61,4,55.7,4
					c-8.3,0-15.4,10.3-15.4,22.4c0,4.2,0.9,8,2.6,11.1C41.6,34.7,40.8,31.2,40.8,27.5z"/>
				<path fill="#AA8561" d="M56.2,43.1c6.6,0,11.4-6.6,11.4-15.6c0-4.1-1-7.9-2.5-11.1c1.3,2.9,2,6.4,2,10c0,9-4.8,15.6-11.4,15.6
					c-4,0-7.3-2.4-9.3-6.3C48.3,40.2,51.8,43.1,56.2,43.1z"/>
			</g>
			<g>
				<path fill="#744D28" d="M50.5,40.4c-3.7-2.5-6.2-7.6-6.2-14C44.3,16.8,49.7,8,55.7,8c1.1,0,2.2,0.3,3.2,0.8
					c-1.2-0.8-2.6-1.3-3.9-1.3C49,7.6,43.6,16.3,43.6,26C43.6,32.8,46.3,38.2,50.5,40.4z"/>
				<path fill="#744D28" d="M61,5.5C66.4,9,70.3,17,70.3,26c0,11.2-6.6,19.6-15.4,19.6c-2.5,0-4.7-0.7-6.8-1.9
					c2.2,1.5,4.7,2.3,7.5,2.3C64.4,46,71,37.6,71,26.4C71,17,66.8,8.8,61,5.5z"/>
			</g>
			<path fill="#F6F3F0" d="M107.7,26.4c0,10.5-6,17.6-13.4,17.6C87,44,81,36.9,81,26.4S87,6,94.3,6C101.7,6,107.7,15.9,107.7,26.4z"
				/>
			<circle cx="58.5" cy="34.2" r="4.9"/>
			<circle cx="92.9" cy="34.2" r="4.9"/>
			<path fill="#FFFFFF" d="M83.8,30.9c0-10.5,6-20.4,13.4-20.4c3.1,0,5.9,1.7,8.2,4.5c-2.4-5.4-6.4-9.2-11-9.2
				C86.9,5.8,81,15.7,81,26.2c0,5.6,1.7,10.2,4.4,13.3C84.4,37,83.8,34.1,83.8,30.9z"/>
			<path fill="#E6E6E6" d="M91.7,40.8c-3.1,0-6-1.3-8.3-3.6c2.4,3.5,6,5.6,9.9,5.6c7.4,0,13.4-7.1,13.4-17.6c0-0.4,0-0.8,0-1.2
				C105.6,33.4,98.5,40.8,91.7,40.8z"/>
			<path fill="#333333" d="M94.3,46C85.6,46,79,37.6,79,26.4C79,14.3,86,4,94.3,4s15.4,10.3,15.4,22.4C109.7,37.6,103.1,46,94.3,46z
				 M94.3,8C88.4,8,83,16.8,83,26.4c0,9,4.8,15.6,11.4,15.6c6.6,0,11.4-6.6,11.4-15.6C105.7,16.8,100.3,8,94.3,8z"/>
			<ellipse fill="#FFFFFF" cx="60.8" cy="32.3" rx="2.3" ry="2.9"/>
			<ellipse fill="#FFFFFF" cx="94.5" cy="32.1" rx="2.3" ry="2.9"/>
			<g>
				<path d="M89.1,40.4c-3.7-2.5-6.2-7.6-6.2-14C82.9,16.8,88.3,8,94.3,8c1.1,0,2.2,0.3,3.2,0.8c-1.2-0.8-2.6-1.3-3.9-1.3
					c-5.9,0-11.4,8.8-11.4,18.4C82.2,32.8,84.9,38.2,89.1,40.4z"/>
				<path d="M99.7,5.5c5.4,3.5,9.2,11.5,9.2,20.5c0,11.2-6.6,19.6-15.4,19.6c-2.5,0-4.7-0.7-6.8-1.9c2.2,1.5,4.7,2.3,7.5,2.3
					c8.8,0,15.4-8.4,15.4-19.6C109.7,17,105.4,8.8,99.7,5.5z"/>
			</g>
			<g>
				<path fill="#535353" d="M79.5,27.5c0-12.1,7-22.4,15.4-22.4c5,0,9.6,3.7,12.4,9.4C104.5,8.2,99.7,4,94.3,4C86,4,79,14.3,79,26.4
					c0,4.2,0.9,8,2.6,11.1C80.2,34.6,79.5,31.2,79.5,27.5z"/>
				<path fill="#535353" d="M94.8,43c6.6,0,11.4-6.6,11.4-15.6c0-4.1-1-7.9-2.5-11.1c1.3,2.9,2,6.4,2,10c0,9-4.8,15.6-11.4,15.6
					c-4,0-7.3-2.4-9.3-6.3C87,40.2,90.5,43,94.8,43z"/>
			</g>
		</g>
	</g>
	<g id="眼睛2">
		<g display="inline">
			<path fill="#F6F3F0" d="M54,33.2c9.1,0,12.5-7.4,12.5-16.5h-33C33.5,25.8,44.9,33.2,54,33.2z"/>
			<path fill="#E6E6E6" d="M63.8,15.9c-0.2,8.6-3.7,15.5-12.5,15.5c-4.1,0-8.6-1.5-12.4-4c4,3.1,9.2,5,13.8,5
				c9.1,0,12.5-7.4,12.5-16.5H63.8z"/>
			<path fill="#FFFFFF" d="M38,19.9h28.5c0.1-0.8,0.1-1.6,0.1-2.4h-33c0,6.4,5.6,11.9,12.1,14.7C41.3,29.2,38,24.8,38,19.9z"/>
			<path fill="#8C6239" d="M54,35.2c-10.2,0-22.5-8.3-22.5-18.5v-2h37v2C68.5,28.5,63.2,35.2,54,35.2z M35.7,18.7
				c1.5,6.9,10.7,12.5,18.3,12.5c7.8,0,10.1-6.4,10.4-12.5H35.7z"/>
			<g>
				<path fill="#744D28" d="M38,23.4c-1.1-1.4-1.9-3-2.3-4.7h28c0-0.3,0-0.5,0.1-0.8H35.1C35.6,19.9,36.6,21.8,38,23.4z"/>
				<path fill="#744D28" d="M67.9,14.7V16c0,11.8-5.3,18.5-14.5,18.5c-6.5,0-13.9-3.4-18.4-8.5c4.4,5.5,12.2,9.2,19,9.2
					c9.2,0,14.5-6.7,14.5-18.5v-2H67.9z"/>
			</g>
			<path fill="#AA8561" d="M32.2,17.5v-2h36.3v-0.8h-37v2c0,3.9,1.8,7.5,4.6,10.5C33.7,24.4,32.2,21,32.2,17.5z"/>
			<path fill="#AA8561" d="M54.7,32c7.8,0,10-7,10.4-13.1l-0.6-0.2c-0.5,5.9-3,12.5-10.5,12.5c-5.2,0-11.1-2.6-14.8-6.5
				C42.8,29,49.1,32,54.7,32z"/>
			<path fill="#F6F3F0" d="M96,33.2c-9.1,0-12.5-7.4-12.5-16.5h33C116.5,25.8,105.1,33.2,96,33.2z"/>
			<path fill="#E6E6E6" d="M114,16.5c-1.2,8.4-11.8,15-20.4,15c-3.2,0-5.6-0.9-7.5-2.5c2,2.5,4.9,4,9,4c9.1,0,20.5-7.4,20.5-16.5
				H114z"/>
			<path fill="#FFFFFF" d="M86.7,19.8h30.6c0.1-0.7,0.2-1.3,0.2-2h-33c0,6.4,1.7,11.9,5.8,14.7C87.8,29.4,86.7,24.9,86.7,19.8z"/>
			<path fill="#333333" d="M96,35.2c-9.2,0-14.5-6.7-14.5-18.5v-2h37v2C118.5,27,106.2,35.2,96,35.2z M85.6,18.7
				c0.4,6.1,2.6,12.5,10.4,12.5c7.6,0,16.8-5.6,18.3-12.5H85.6z"/>
			<g>
				<path d="M89.1,28.7c-2.4-2.4-3.3-6.2-3.5-9.9h28.3c0-0.1,0.1-0.2,0.1-0.3H85.2C85.5,22.3,86.5,26.3,89.1,28.7z"/>
				<path d="M118.2,14.8v1.7c0,10.2-12.3,18.5-22.5,18.5c-3.9,0-7.1-1.2-9.5-3.6c2.4,2.5,5.8,3.9,9.9,3.9c10.2,0,22.5-8.3,22.5-18.5
					v-2H118.2z"/>
			</g>
			<path fill="#535353" d="M82.2,17.5v-2h36.3v-0.8h-37v2c0,6.6,1.7,11.7,4.8,14.8C83.6,28.3,82.2,23.6,82.2,17.5z"/>
			<path fill="#535353" d="M96.7,32c7.6,0,16.7-5.9,18.2-12.8l-0.6-0.4c-2,6.6-11,12.5-18.3,12.5c-3.1,0-5.3-1-6.9-2.6
				C90.7,30.6,93.1,32,96.7,32z"/>
		</g>
	</g>
	<g id="眼睛3">
		<g display="inline">
			<g>
				<path fill="#8C6239" d="M51.8,41.5c-3.4,0-6.2-1.4-7.8-3.4c-2.5-2.9-3.5-8.2,1.2-14.3c2.6-3.3,5.3-4.8,7.9-4.2
					c4.7,1,6.7,8,7,8.8c0.3,1.1-0.4,2.2-1.4,2.4c-1.1,0.3-2.2-0.3-2.4-1.4c-0.6-2.2-2.2-5.6-3.9-5.9c-1-0.2-2.4,0.8-3.9,2.8
					c-2.7,3.5-3.2,7-1.3,9.2c1.7,2,5.6,2.9,10.1,0.5c5.4-2.9,8-9.4,8.1-14.5c0.1-3.4-0.9-6.1-2.5-7.1C59.6,12.5,55,12,51.1,13
					c-2.6,0.7-6.2,2.3-8.6,6.5c-0.6,1-1.8,1.3-2.7,0.7c-1-0.6-1.3-1.8-0.7-2.7c2.5-4.2,6.3-7.1,11.1-8.4c5-1.3,10.6-0.6,14.7,1.9
					c2.9,1.8,4.6,5.7,4.4,10.6C69,27.9,65.8,35.8,59,39.5C56.4,41,54,41.5,51.8,41.5z"/>
			</g>
			<g>
				<path fill="#744D28" d="M59.6,27.3c0.1,0.3,0.2,0.6,0.2,0.7c0.3,1.1-0.4,2.2-1.4,2.4c-1,0.3-2-0.3-2.4-1.2
					c0,0.1,0.1,0.2,0.1,0.3c0.3,1.1,1.4,1.7,2.4,1.4c1.1-0.3,1.7-1.4,1.4-2.4C60,28.3,59.8,27.9,59.6,27.3z"/>
				<path fill="#744D28" d="M48.3,26.3c1.5-2,3-3,3.9-2.8c1.4,0.3,2.8,2.9,3.6,5c-0.7-2.2-2.2-5.2-3.8-5.5c-1-0.2-2.4,0.8-3.9,2.8
					c-2.2,2.8-2.9,5.6-2.2,7.7C45.5,31.5,46.3,29,48.3,26.3z"/>
				<path fill="#744D28" d="M42.5,19.4c2.4-4.2,6-5.8,8.6-6.5c4-1,8.5-0.4,11.6,1.4c0.8,0.5,1.4,1.4,1.8,2.5c-0.4-1.4-1.1-2.5-2-3
					c-3.1-1.9-7.6-2.4-11.6-1.4c-2.6,0.7-6.2,2.3-8.6,6.5c-0.6,1-1.8,1.3-2.7,0.7c-0.4-0.2-0.6-0.5-0.8-0.8c0.1,0.5,0.4,1,1,1.3
					C40.7,20.7,41.9,20.4,42.5,19.4z"/>
				<path fill="#744D28" d="M68.5,16.1c0.4,1.5,0.6,3.2,0.6,5c-0.2,6.3-3.4,14.2-10.2,17.9c-2.6,1.4-5,2-7.2,2
					c-3.4,0-6.2-1.4-7.8-3.4c-0.6-0.7-1.1-1.6-1.5-2.5c0.4,1.2,0.9,2.2,1.7,3c1.7,2,4.5,3.4,7.8,3.4c2.2,0,4.7-0.6,7.2-2
					c6.8-3.7,10-11.7,10.2-17.9C69.3,19.5,69,17.7,68.5,16.1z"/>
			</g>
			<g>
				<path fill="#AA8561" d="M53.7,24.7c1,1.3,1.9,3.3,2.3,4.8c0.1,0.5,0.5,1,1,1.2c-0.1-0.1-0.2-0.3-0.2-0.5
					C56.3,28.4,55.1,25.8,53.7,24.7z"/>
				<path fill="#AA8561" d="M57.8,36.8c5.4-2.9,8-9.4,8.1-14.5c0.1-3.2-0.8-5.8-2.3-6.9c1,1.3,1.6,3.5,1.5,6.2
					C65,26.6,62.4,33.1,57,36c-4,2.2-7.5,1.7-9.4,0.2c0,0,0,0.1,0.1,0.1C49.3,38.3,53.2,39.2,57.8,36.8z"/>
				<path fill="#AA8561" d="M39.7,18.2c2.5-4.2,6.3-7.1,11.1-8.4c5-1.3,10.6-0.6,14.7,1.9c0.3,0.2,0.6,0.4,0.9,0.7
					c-0.5-0.6-1.1-1.1-1.7-1.4c-4-2.4-9.6-3.2-14.7-1.9c-4.8,1.2-8.7,4.1-11.1,8.4c-0.6,1-0.2,2.2,0.7,2.7c0,0,0,0,0,0
					C39.3,19.6,39.3,18.8,39.7,18.2z"/>
				<path fill="#AA8561" d="M44.6,38.9c-2.5-2.9-3.5-8.2,1.2-14.3c2.6-3.3,5.3-4.8,7.9-4.2c1.1,0.2,2.1,0.8,2.9,1.5
					c-1-1.1-2.2-2-3.6-2.3c-2.6-0.5-5.3,0.9-7.9,4.2c-4.7,6-3.7,11.3-1.2,14.3c0.3,0.3,0.5,0.6,0.8,0.9C44.7,39,44.6,38.9,44.6,38.9
					z"/>
			</g>
			<path fill="none" stroke="#333333" stroke-width="4" stroke-linecap="round" stroke-miterlimit="10" d="M100.1,29
				c0,0-3.7-13.8-11.3-3.9s1.3,18.1,11.3,12.7s11.7-21.4,5.7-25.1s-17.7-3.5-23,5.8"/>
			<g>
				<path d="M101.8,27.3c0.1,0.3,0.2,0.6,0.2,0.7c0.3,1.1-0.4,2.2-1.4,2.4c-1,0.3-2-0.3-2.4-1.2c0,0.1,0.1,0.2,0.1,0.3
					c0.3,1.1,1.4,1.7,2.4,1.4c1.1-0.3,1.7-1.4,1.4-2.4C102.1,28.3,102,27.9,101.8,27.3z"/>
				<path d="M90.4,26.4c1.5-2,3-3,3.9-2.8c1.4,0.3,2.8,2.9,3.6,5c-0.7-2.2-2.2-5.2-3.8-5.5c-1-0.2-2.4,0.8-3.9,2.8
					c-2.2,2.8-2.9,5.6-2.2,7.7C87.6,31.5,88.4,29,90.4,26.4z"/>
				<path d="M84.6,19.5c2.4-4.2,6-5.8,8.6-6.5c4-1,8.5-0.4,11.6,1.4c0.8,0.5,1.4,1.4,1.8,2.5c-0.4-1.4-1.1-2.5-2-3
					c-3.1-1.9-7.6-2.4-11.6-1.4c-2.6,0.7-6.2,2.3-8.6,6.5c-0.6,1-1.8,1.3-2.7,0.7c-0.4-0.2-0.6-0.5-0.8-0.8c0.1,0.5,0.4,1,1,1.3
					C82.8,20.8,84,20.4,84.6,19.5z"/>
				<path d="M110.6,16.1c0.4,1.5,0.6,3.2,0.6,5c-0.2,6.3-3.4,14.2-10.2,17.9c-2.6,1.4-5,2-7.2,2c-3.4,0-6.2-1.4-7.8-3.4
					c-0.6-0.7-1.1-1.6-1.5-2.5c0.4,1.2,0.9,2.2,1.7,3c1.7,2,4.5,3.4,7.8,3.4c2.2,0,4.7-0.6,7.2-2c6.8-3.7,10-11.7,10.2-17.9
					C111.4,19.6,111.1,17.7,110.6,16.1z"/>
			</g>
			<g>
				<path fill="#535353" d="M95.9,24.8c1,1.3,1.9,3.3,2.3,4.8c0.1,0.5,0.5,1,1,1.2c-0.1-0.1-0.2-0.3-0.2-0.5
					C98.4,28.4,97.2,25.8,95.9,24.8z"/>
				<path fill="#535353" d="M99.9,36.8c5.4-2.9,8-9.4,8.1-14.5c0.1-3.2-0.8-5.8-2.3-6.9c1,1.3,1.6,3.5,1.5,6.2
					c-0.1,5.1-2.7,11.6-8.1,14.5c-4,2.2-7.5,1.7-9.4,0.2c0,0,0,0.1,0.1,0.1C91.5,38.3,95.3,39.3,99.9,36.8z"/>
				<path fill="#535353" d="M81.8,18.2c2.5-4.2,6.3-7.1,11.1-8.4c5-1.3,10.6-0.6,14.7,1.9c0.3,0.2,0.6,0.4,0.9,0.7
					c-0.5-0.6-1.1-1.1-1.7-1.4c-4-2.4-9.6-3.2-14.7-1.9c-4.8,1.2-8.7,4.1-11.1,8.4c-0.6,1-0.2,2.2,0.7,2.7c0,0,0,0,0,0
					C81.5,19.6,81.4,18.8,81.8,18.2z"/>
				<path fill="#535353" d="M86.7,38.9c-2.5-2.9-3.5-8.2,1.2-14.3c2.6-3.3,5.3-4.8,7.9-4.2c1.1,0.2,2.1,0.8,2.9,1.5
					c-1-1.1-2.2-2-3.6-2.3c-2.6-0.5-5.3,0.9-7.9,4.2c-4.7,6-3.7,11.3-1.2,14.3c0.3,0.3,0.5,0.6,0.8,0.9C86.8,39,86.8,39,86.7,38.9z"
					/>
			</g>
		</g>
	</g>
	<g id="眼睛4">
		<g display="inline">
			<path fill="#F6F3F0" d="M69,26.4c0,10.5-6,17.6-13.4,17.6s-13.4-7.1-13.4-17.6S48.3,6,55.7,6S69,15.9,69,26.4z"/>
			<path fill="#E6E6E6" d="M63.5,12.5c1.5,3.3,2.4,7.3,2.4,11.3c0,10.5-6,17.6-13.4,17.6c-4.2,0-7.9-2.2-10.3-6.1
				c2.3,5.3,6.6,8.5,11.6,8.5c7.4,0,13.4-7.1,13.4-17.6C67.2,21.2,65.8,16.3,63.5,12.5z"/>
			<path fill="#FFFFFF" d="M44.5,31c0-10.5,6-20.4,13.4-20.4c3.5,0,6.7,2.3,9.1,5.8c-2.4-5.4-6.4-9.1-11-9.1
				c-7.4,0-13.4,9.9-13.4,20.4c0,4.9,1.3,9.1,3.5,12.2C45.1,37.3,44.5,34.3,44.5,31z"/>
			<path fill="#8C6239" d="M55.7,46c-8.8,0-15.4-8.4-15.4-19.6c0-12.1,7-22.4,15.4-22.4S71,14.3,71,26.4C71,37.6,64.4,46,55.7,46z
				 M55.7,8c-5.9,0-11.4,8.8-11.4,18.4c0,9,4.8,15.6,11.4,15.6S67,35.4,67,26.4C67,16.8,61.6,8,55.7,8z"/>
			<g>
				<path fill="#744D28" d="M44.2,26.2c0-9.6,5.4-18.4,11.4-18.4c3.9,0,7.6,3.8,9.7,9.2c-1.9-6-5.9-10.3-10.1-10.3
					c-5.9,0-11.4,8.8-11.4,18.4c0,2.9,0.5,5.6,1.4,7.9C44.6,31,44.2,28.7,44.2,26.2z"/>
				<path fill="#744D28" d="M69,15.6c1,2.9,1.5,6.1,1.5,9.5c0,11.2-6.6,19.6-15.4,19.6c-6.2,0-11.4-4.3-13.8-10.8
					C43.6,41,49,45.8,55.6,45.8c8.8,0,15.4-8.4,15.4-19.6C71,22.4,70.3,18.8,69,15.6z"/>
			</g>
			<g>
				<path fill="#AA8561" d="M56.5,43c6.6,0,11.4-6.6,11.4-15.6c0-6.3-2.3-12.1-5.5-15.5c2.8,3.5,4.7,8.8,4.7,14.5
					c0,9-4.8,15.6-11.4,15.6c-2.7,0-5.1-1.1-7-3.1C50.6,41.5,53.4,43,56.5,43z"/>
				<path fill="#AA8561" d="M41.2,27.4c0-12.1,7-22.4,15.4-22.4c3.3,0,6.4,1.6,8.9,4.3C62.8,6,59.3,4,55.6,4
					c-8.3,0-15.4,10.3-15.4,22.4c0,6.3,2.1,11.7,5.5,15.3C42.9,38.2,41.2,33.1,41.2,27.4z"/>
			</g>
			<path d="M46.8,31.6C44.4,35.5,43.9,40,45,44c-2.2-4.1-2.4-9.2,0.1-13.3c2.4-4.1,6.8-6.3,11.4-6.4C52.6,25.3,49,27.8,46.8,31.6z"
				/>
			<path fill="#F6F3F0" d="M107.7,26.4c0,10.5-6,17.6-13.4,17.6C87,44,81,36.9,81,26.4S87,6,94.4,6C101.7,6,107.7,15.9,107.7,26.4z"
				/>
			<path fill="#E6E6E6" d="M102.8,11.8c1.5,3.3,2.4,7.3,2.4,11.3c0,10.5-6,17.6-13.4,17.6c-4.2,0-7.9-2.2-10.3-6.1
				c2.3,5.3,6.6,8.5,11.6,8.5c7.4,0,13.4-7.1,13.4-17.6C106.4,20.4,105,15.5,102.8,11.8z"/>
			<path fill="#FFFFFF" d="M83.8,30.3c0-10.5,6-20.4,13.4-20.4c3.5,0,6.7,2.3,9.1,5.8c-2.4-5.4-6.4-9.1-11-9.1
				c-7.4,0-13.4,9.9-13.4,20.4c0,4.9,1.3,9.1,3.5,12.2C84.4,36.6,83.8,33.6,83.8,30.3z"/>
			<path fill="#333333" d="M94.4,46C85.6,46,79,37.6,79,26.4C79,14.3,86,4,94.4,4s15.4,10.3,15.4,22.4C109.7,37.6,103.1,46,94.4,46z
				 M94.4,8C88.4,8,83,16.8,83,26.4c0,9,4.8,15.6,11.4,15.6s11.4-6.6,11.4-15.6C105.7,16.8,100.3,8,94.4,8z"/>
			<g>
				<path d="M83,26.2c0-9.6,5.4-18.4,11.4-18.4c3.9,0,7.6,3.8,9.7,9.2c-1.9-6-5.9-10.3-10.1-10.3c-5.9,0-11.4,8.8-11.4,18.4
					c0,2.9,0.5,5.6,1.4,7.9C83.3,31,83,28.7,83,26.2z"/>
				<path d="M107.8,15.6c1,2.9,1.5,6.1,1.5,9.5c0,11.2-6.6,19.6-15.4,19.6c-6.2,0-11.4-4.3-13.8-10.8c2.2,7.1,7.6,11.9,14.2,11.9
					c8.8,0,15.4-8.4,15.4-19.6C109.7,22.4,109,18.8,107.8,15.6z"/>
			</g>
			<g>
				<path fill="#535353" d="M95.3,43c6.6,0,11.4-6.6,11.4-15.6c0-6.3-2.3-12.1-5.5-15.5c2.8,3.5,4.7,8.8,4.7,14.5
					c0,9-4.8,15.6-11.4,15.6c-2.7,0-5.1-1.1-7-3.1C89.4,41.5,92.1,43,95.3,43z"/>
				<path fill="#535353" d="M79.9,27.4c0-12.1,7-22.4,15.4-22.4c3.3,0,6.4,1.6,8.9,4.3C101.5,6,98.1,4,94.4,4
					C86.1,4,79,14.3,79,26.4c0,6.3,2.1,11.7,5.5,15.3C81.7,38.2,79.9,33.1,79.9,27.4z"/>
			</g>
			<path d="M102.4,31.4c3.1,3.3,4.6,7.5,4.5,11.7c1.3-4.5,0.3-9.5-3-13c-3.3-3.4-8-4.7-12.5-3.7C95.4,26.5,99.4,28.2,102.4,31.4z"/>
		</g>
	</g>
	<g id="眼睛5">
		<g display="inline">
			<path fill="#F6F3F0" d="M73.2,24.1c0,10-7.1,19.1-15.8,19.1s-15.8-7.2-15.8-17.3S48.6,6.8,57.3,6.8S73.2,14.1,73.2,24.1z"/>
			<path fill="#E6E6E6" d="M69.6,12.8c1.1,2.3,1.7,5,1.7,7.9c0,10-7.1,19.1-15.8,19.1c-5,0-9.5-2.4-12.4-6.4c2.6,5.7,8,9.4,14.2,9.4
				c8.8,0,15.8-9,15.8-19.1C73.1,19.5,71.8,15.7,69.6,12.8z"/>
			<g>
				<path fill="#29ABE2" d="M57.9,38c-4.7,0-9.2-1-11.8-3.1c2.2,3.5,5.9,6.2,11.2,6.2c4.8,0,8.2-2.9,10.2-5.7
					C64.9,37,61.6,38,57.9,38z"/>
			</g>
			<path fill="#1498C6" d="M63.3,37.3c-2.3,1.6-4.9,2.5-7.7,2.5c-2.3,0-4.5-0.5-6.4-1.4c2.1,1.7,4.9,2.8,8.3,2.8
				c4.8,0,8.2-2.9,10.2-5.7C66.4,36.2,64.9,36.9,63.3,37.3z"/>
			<path fill="#FFFFFF" d="M43.5,32c0-10,7.1-19.1,15.8-19.1c5.6,0,10.4,2.9,13.3,7.6c-1.5-8.1-7.9-13.6-15.5-13.6
				c-8.8,0-15.8,9-15.8,19.1c0,3.7,1,7,2.6,9.7C43.6,34.5,43.5,33.3,43.5,32z"/>
			<path fill="#8C6239" d="M57.3,45.2c-10,0-17.8-8.5-17.8-19.3c0-11.4,8.2-21.1,17.8-21.1c10,0,17.8,8.5,17.8,19.3
				C75.2,35.5,67,45.2,57.3,45.2z M57.3,8.8c-7.4,0-13.8,8-13.8,17.1c0,8.7,6,15.3,13.8,15.3c7.4,0,13.8-8,13.8-17.1
				C71.2,15.4,65.2,8.8,57.3,8.8z"/>
			<g>
				<path fill="#744D28" d="M49.1,38.4c-3.5-2.7-5.7-7.2-5.7-12.5c0-9.1,6.5-17.1,13.8-17.1c2.9,0,5.5,0.9,7.7,2.5
					c-2.3-1.8-5.1-2.8-8.2-2.8c-7.4,0-13.8,8-13.8,17.1C43,31,45.4,35.7,49.1,38.4z"/>
				<path fill="#744D28" d="M67.3,8c4.5,3.5,7.4,9.2,7.4,15.7c0,11.4-8.2,21.1-17.8,21.1c-3.7,0-7.1-1.2-10-3.2
					c2.9,2.2,6.5,3.5,10.4,3.5c9.7,0,17.8-9.7,17.8-21.1C75.2,17.3,72.1,11.4,67.3,8z"/>
			</g>
			<g>
				<path fill="#AA8561" d="M40.4,26.8c0-11.4,8.2-21.1,17.8-21.1c4.2,0,8,1.5,11,4.1c-3.1-3-7.3-4.9-12-4.9
					c-9.7,0-17.8,9.7-17.8,21.1c0,6.3,2.6,11.7,6.8,15.2C42.6,37.6,40.4,32.5,40.4,26.8z"/>
				<path fill="#AA8561" d="M66.7,12.7c2.8,2.8,4.5,6.8,4.5,11.4c0,9.1-6.5,17.1-13.8,17.1c-3.2,0-6.1-1.1-8.5-3
					c2.4,2.4,5.7,3.9,9.4,3.9c7.4,0,13.8-8,13.8-17.1C72.1,19.8,70,15.4,66.7,12.7z"/>
			</g>
			<g>
				<circle cx="57.3" cy="26.5" r="1.6"/>
			</g>
			<path fill="#F6F3F0" d="M80.2,26.2c0.7,8.9,7.6,16.5,15.3,15.9c7.8-0.6,13.6-7.5,12.9-16.4S100.9,9.3,93.1,9.8
				S79.5,17.3,80.2,26.2z"/>
			<path fill="#E6E6E6" d="M107.2,25.9c-0.5-6.7-4.5-12.6-9.7-14.9c4.2,2.8,7.2,8,7.7,13.8c0.7,8.9-5.2,15.8-12.9,16.4
				c-2,0.1-3.9-0.2-5.7-1c2.3,1.5,4.9,2.4,7.7,2.2C102.1,41.7,107.9,34.8,107.2,25.9z"/>
			<path fill="#FFFFFF" d="M83.7,29.6c-0.7-8.9,5.2-15.8,12.9-16.4c3.3-0.2,6.5,1,9,3.2c-2.9-4-7.2-6.5-11.8-6.2
				c-7.8,0.6-13.6,7.5-12.9,16.4c0.4,5.1,2.8,9.8,6.3,12.7C85.2,36.6,83.9,33.2,83.7,29.6z"/>
			<path fill="#29ABE2" d="M94.7,37.6c4.2-0.3,8.1-1.5,10.3-3.5c-1.7,3.3-4.9,5.9-9.6,6.3c-4.3,0.3-7.5-2-9.5-4.4
				C88.4,37.2,91.4,37.9,94.7,37.6z"/>
			<path fill="#1498C6" d="M105.1,34.1c-0.8,0.7-1.8,1.3-3,1.8c-1.5,2-3.6,3.5-5.9,4.3C100.6,39.7,103.5,37.2,105.1,34.1z"/>
			<circle cx="94.4" cy="27.3" r="1.4"/>
			<path fill="#333333" d="M94.7,44.2c-8.3,0-15.8-7.9-16.5-17.8c-0.4-4.8,1-9.3,3.7-12.7c2.8-3.4,6.7-5.5,11-5.8
				c8.7-0.6,16.7,7.5,17.5,17.8c0.4,4.8-1,9.3-3.7,12.7c-2.8,3.4-6.7,5.5-11,5.8C95.3,44.2,95,44.2,94.7,44.2z M93.9,11.8
				c-0.2,0-0.4,0-0.7,0c-3.2,0.2-6.2,1.8-8.2,4.3c-2.1,2.6-3.2,6.2-2.9,9.9c0.6,8,6.8,14.6,13.2,14.1c3.2-0.2,6.2-1.8,8.2-4.3
				c2.1-2.6,3.2-6.2,2.9-9.9C105.9,18.2,100.1,11.8,93.9,11.8z"/>
			<g>
				<path d="M110.5,25.6c-0.4-5.9-3.3-11.1-7.2-14.3c3.7,3.3,6.2,8.2,6.7,13.8c0.4,4.8-1,9.3-3.7,12.7c-2.8,3.4-6.7,5.5-11,5.8
					c-0.3,0-0.6,0-1,0c-3.5,0-6.8-1.4-9.5-3.7c2.8,2.6,6.4,4.2,10.1,4.2c0.3,0,0.6,0,1,0c4.4-0.3,8.3-2.4,11-5.8
					C109.5,34.9,110.9,30.4,110.5,25.6z"/>
				<path d="M87.4,37.1c-2.8-2.6-4.9-6.6-5.2-11c-0.3-3.8,0.7-7.3,2.9-9.9c2.1-2.6,5-4.1,8.2-4.3c0.2,0,0.4,0,0.7,0
					c2.3,0,4.6,0.9,6.5,2.4c-2.1-1.8-4.6-2.9-7.1-2.9c-0.2,0-0.4,0-0.7,0c-3.2,0.2-6.2,1.8-8.2,4.3c-2.1,2.6-3.2,6.2-2.9,9.9
					C82,30.3,84.3,34.5,87.4,37.1z"/>
			</g>
			<g>
				<path fill="#535353" d="M100.7,14.4c3.1,2.6,5.4,6.8,5.7,11.5c0.3,3.8-0.7,7.3-2.9,9.9c-2.1,2.6-5,4.1-8.2,4.3
					c-2.3,0.2-4.5-0.6-6.5-1.9c2.2,1.8,4.8,2.8,7.5,2.6c3.2-0.2,6.2-1.8,8.2-4.3c2.1-2.6,3.2-6.2,2.9-9.9
					C107.1,21.4,104.4,16.9,100.7,14.4z"/>
				<path fill="#535353" d="M79.2,27.1c-0.4-4.8,1-9.3,3.7-12.7c2.8-3.4,6.7-5.5,11-5.8c3.2-0.2,6.4,0.7,9.1,2.6
					c-2.9-2.3-6.4-3.6-10.1-3.3c-4.4,0.3-8.3,2.4-11,5.8c-2.8,3.4-4.1,8-3.7,12.7c0.5,6.4,3.8,12,8.3,15.1
					C82.5,38.2,79.6,33,79.2,27.1z"/>
			</g>
		</g>
	</g>
	<g id="眼睛6">
		<g display="inline">
			<path fill="#F6F3F0" d="M70.8,25.5c0,8.9-6.1,14.7-13.6,14.7s-13.6-5.8-13.6-14.7S49.6,8.1,57.1,8.1S70.8,16.7,70.8,25.5z"/>
			<path fill="#E6E6E6" d="M69.4,21.2c0,0.4,0.1,0.9,0.1,1.3c0,8.9-6.7,14.7-14.9,14.7c-2.8,0-5.5-0.7-7.7-2
				c2.4,2.3,5.6,3.6,9.2,3.6c7.5,0,13.6-5.8,13.6-14.7C69.6,23.2,69.5,22.2,69.4,21.2z"/>
			<path fill="#FFFFFF" d="M46.8,28.6c0-8.9,6.1-17.4,13.6-17.4c1.6,0,3.2,0.4,4.6,1.1c-2.1-1.8-4.6-3-7.4-3
				C50.2,9.3,44,17.9,44,26.7c0,6.3,3.1,11,7.6,13.2C48.7,37.4,46.8,33.5,46.8,28.6z"/>
			<path fill="#8C6239" d="M57.1,42.2c-9,0-14.6-7-14.6-16.6c0-10.3,6.3-17.4,14.6-17.4s14.6,7.1,14.6,17.4
				C71.7,35.2,66.1,42.2,57.1,42.2z M57.1,10.1c-6.1,0-11.7,7.4-11.7,15.5c0,7.4,4.9,12.7,11.7,12.7s11.7-5.3,11.7-12.7
				C68.9,17.4,63.3,10.1,57.1,10.1z"/>
			<g>
				<path fill="#744D28" d="M67.1,12.5c2.6,3.1,4.1,7.4,4.1,12.5c0,9.6-5.6,16.6-14.6,16.6c-4.3,0-7.7-1.6-10.2-4.2
					c2.5,3,6.2,4.8,10.7,4.8c9,0,14.6-7,14.6-16.6C71.7,20.2,70,15.6,67.1,12.5z"/>
				<path fill="#744D28" d="M56.6,9.6c-6.1,0-11.7,7.4-11.7,15.5c0,3.8,1.3,7.1,3.6,9.4c-1.9-2.2-3.1-5.3-3.1-8.8
					c0-8.1,5.6-15.5,11.7-15.5c2.6,0,5,1.3,7,3.4C62.1,11.1,59.4,9.6,56.6,9.6z"/>
			</g>
			<g>
				<path fill="#AA8561" d="M57.7,38.9c6.8,0,11.7-5.3,11.7-12.7c0-4.7-1.9-9.1-4.6-12c2.4,2.9,4,7,4,11.3c0,7.4-4.9,12.7-11.7,12.7
					c-3.3,0-6.2-1.3-8.3-3.4C50.9,37.3,54,38.9,57.7,38.9z"/>
				<path fill="#AA8561" d="M43.1,26.2c0-10.3,6.3-17.4,14.6-17.4c4,0,7.4,1.6,10,4.4c-2.6-3.2-6.4-5.1-10.6-5.1
					c-8.3,0-14.6,7.1-14.6,17.4c0,5,1.5,9.3,4.3,12.3C44.4,34.9,43.1,30.8,43.1,26.2z"/>
			</g>
			<circle cx="57.5" cy="24.7" r="1.6"/>
			<path fill="#F6F3F0" d="M93.5,8.5c-6.8,0-13,8.2-13,17.1c0,8.1,5.5,14,13,14s13-5.9,13-14C106.4,16.7,100.3,8.5,93.5,8.5z"/>
			<path fill="#FFFFFF" d="M83.4,29.2c0-9,6.2-17.1,13-17.1c2.5,0,5,1.1,7.1,3c-2.4-3.5-5.8-5.8-9.4-5.8c-6.8,0-13,8.2-13,17.1
				c0,4.6,1.8,8.5,4.7,11C84.2,35.3,83.4,32.4,83.4,29.2z"/>
			<path fill="#E6E6E6" d="M102.6,15.5c1,2.3,1.6,5,1.6,7.7c0,8.1-5.7,14-13.6,14c-2.6,0-4.9-0.6-6.9-1.8c2.1,1.7,4.8,2.6,7.8,2.6
				c7.5,0,13-5.9,13-14C104.5,21,103.8,18.1,102.6,15.5z"/>
			<path fill="#333333" d="M93.5,41.1c-8.7,0-14-6.8-14-16.1c0-10.2,6-17.1,14-17.1s14,6.9,14,17.1C107.5,34.3,102.2,41.1,93.5,41.1
				z M93.5,10c-5.6,0-10.9,7.3-10.9,15c0,7,4.5,11.9,10.9,11.9S104.3,32,104.3,25C104.3,17.3,99.1,10,93.5,10z"/>
			<g>
				<path d="M85.5,33.5c-1.9-2.1-3-5.1-3-8.6c0-7.7,5.3-15,10.9-15c2,0,3.9,0.9,5.6,2.5c-1.8-2-4.1-3.2-6.4-3.2
					c-5.6,0-10.9,7.3-10.9,15C81.8,28.1,83.2,31.3,85.5,33.5z"/>
				<path d="M102.1,11.2c2.8,3,4.5,7.5,4.5,13c0,9.4-5.3,16.1-14,16.1c-3.7,0-6.8-1.2-9.1-3.3c2.4,2.6,5.7,4.1,9.8,4.1
					c8.7,0,14-6.8,14-16.1C107.4,19,105.4,14.2,102.1,11.2z"/>
			</g>
			<g>
				<path fill="#535353" d="M94,37.5c6.4,0,10.9-4.9,10.9-11.9c0-4.1-1.5-8-3.7-10.8c1.9,2.8,3.2,6.4,3.2,10.2
					c0,7-4.5,11.9-10.9,11.9c-3.4,0-6.3-1.4-8.2-3.8C87.2,35.8,90.3,37.5,94,37.5z"/>
				<path fill="#535353" d="M80,25.6c0-10.2,6-17.1,14-17.1c4.2,0,7.9,1.9,10.4,5.2C101.9,10,98,7.8,93.5,7.8c-8,0-14,6.9-14,17.1
					c0,4.4,1.2,8.3,3.4,11.1C81,33.2,80,29.6,80,25.6z"/>
			</g>
			<circle cx="93.8" cy="24.1" r="1.6"/>
		</g>
	</g>
	<g id="眼睛7" display="inline">
		<g>
			<path fill="#F6F3F0" d="M53.3,26.6c5-0.3,9.2,1.1,12.1,4.6c0.7,0.8,1.7,0,1.3-1c-2.1-5.5-6.5-11.7-14.9-12
				c-7.5-0.3-11.7,4.4-13.7,9.8c-1.1,2.8,1.8,5.5,3.8,3.5C44.9,28.6,49,26.8,53.3,26.6z"/>
			<path fill="#E6E6E6" d="M66.3,29.6c-0.7-1.7-1.6-3.5-2.7-5.2c0.9,1.5,1.7,3,2.2,4.5c0.4,1-0.7,1.8-1.3,1
				c-2.9-3.4-7.1-4.8-12.1-4.6c-4.4,0.2-8.5,2-11.4,4.8c-1.1,1-2.4,0.8-3.2-0.1c0.7,1.5,2.4,2.2,3.7,0.9c2.9-2.8,7-4.6,11.4-4.8
				c5-0.3,9.2,1.1,12.1,4.6C65.6,31.4,66.6,30.6,66.3,29.6z"/>
			<path fill="#FFFFFF" d="M39.6,29.6c2-5.4,6.2-10.2,13.7-9.8c3.1,0.1,5.6,1.1,7.7,2.4c-2.3-2-5.3-3.4-9.2-3.5
				c-7.5-0.3-11.7,4.4-13.7,9.8c-0.7,1.9,0.4,3.8,1.8,4.1C39.4,31.8,39.2,30.7,39.6,29.6z"/>
			<path fill="#8C6239" d="M40.4,33.1c-0.6,0-1.2-0.2-1.7-0.5c-1.3-0.9-2.3-2.9-1.5-5c2.6-7.1,7.9-10.8,14.7-10.5
				c7.2,0.3,12.8,4.8,15.8,12.7c0.4,0.9,0,2-0.8,2.5c-0.8,0.4-1.7,0.3-2.2-0.4c-2.5-3-6.4-4.5-11.3-4.2l0,0c-4,0.2-8,1.9-10.8,4.6
				C42,32.8,41.2,33.1,40.4,33.1z M51.1,19.1c-7.1,0-10.4,5-12,9.2c-0.4,1.1,0,2.2,0.7,2.6c0.4,0.2,0.9,0.4,1.5-0.2
				c3.1-3,7.5-4.9,12.1-5.1c5.1-0.3,9.3,1.2,12.2,4.2c-2-4.9-6-10.3-13.7-10.7C51.5,19.1,51.3,19.1,51.1,19.1z"/>
			<g>
				<path fill="#744D28" d="M39,28.3c1.6-4.2,5-9.2,12-9.2c0.2,0,0.5,0,0.7,0c7.5,0.3,11.4,5.5,13.5,10.2c0,0,0,0,0,0
					c-2-4.9-6-10.3-13.7-10.7c-0.2,0-0.5,0-0.7,0c-7.1,0-10.4,5-12,9.2c-0.3,0.7-0.2,1.4,0.1,1.9C38.8,29.3,38.8,28.8,39,28.3z"/>
				<path fill="#744D28" d="M67.7,29.8c0-0.1-0.1-0.2-0.2-0.4c0.3,0.9,0,1.9-0.8,2.4c-0.8,0.4-1.7,0.3-2.2-0.4
					c-2.5-3-6.4-4.5-11.3-4.2c-4,0.2-8,1.9-10.8,4.6c-0.7,0.6-1.4,0.9-2.2,0.9c-0.6,0-1.2-0.2-1.7-0.5c-0.6-0.4-1.1-1-1.4-1.7
					c0.3,0.9,0.9,1.7,1.6,2.1c0.5,0.4,1.1,0.5,1.7,0.5c0.8,0,1.6-0.3,2.2-0.9c2.8-2.7,6.7-4.4,10.8-4.6c4.9-0.3,8.8,1.2,11.3,4.2
					c0.6,0.7,1.5,0.9,2.2,0.4C67.7,31.7,68,30.7,67.7,29.8z"/>
			</g>
			<g>
				<path fill="#AA8561" d="M40.1,31.4c0.4,0.2,0.9,0.4,1.5-0.2c3.1-3,7.5-4.9,12.1-5.1c5.1-0.3,9.3,1.2,12.2,4.2
					c-0.8-1.9-1.9-3.9-3.4-5.7c1.3,1.6,2.3,3.4,3,5.2c-2.9-3-7.1-4.4-12.2-4.2c-4.5,0.2-8.9,2.1-12.1,5.1c-0.6,0.6-1.1,0.4-1.5,0.2
					c-0.1,0-0.1-0.1-0.1-0.1C39.7,31,39.9,31.2,40.1,31.4z"/>
				<path fill="#AA8561" d="M37.6,28c2.6-7.1,7.9-10.8,14.7-10.5c4.8,0.2,8.8,2.3,11.9,5.9c-3.1-4-7.4-6.2-12.3-6.4
					c-6.8-0.3-12.1,3.4-14.7,10.5C36.5,29.3,37,31,38,32C37.3,31,37,29.6,37.6,28z"/>
			</g>
			<path d="M42.5,22.4c0.7,1.4,2.3,2.1,3.4,1.3c1.2-0.7,1.5-2.6,0.9-4C45.4,20.1,43.7,20.8,42.5,22.4z"/>
			<path fill="#F6F3F0" d="M96.7,26.4c-5-0.3-9.2,1.1-12.1,4.6c-0.7,0.8-1.7,0-1.3-1c2.1-5.5,6.5-11.7,14.9-12
				c7.5-0.3,11.7,4.4,13.7,9.8c1.1,2.8-1.8,5.5-3.8,3.5C105.2,28.4,101.1,26.6,96.7,26.4z"/>
			<path fill="#E6E6E6" d="M112.4,27.6c-0.1-0.4-0.3-0.7-0.4-1.1c0.3,2.5-2.2,4.5-4,2.7c-2.9-2.8-7-4.6-11.4-4.8
				c-5-0.3-9.2,1.1-12.1,4.6c-0.1,0.2-0.3,0.3-0.5,0.3c-0.1,0.2-0.2,0.4-0.2,0.6c-0.4,1,0.7,1.8,1.3,1c2.9-3.4,7.1-4.8,12.1-4.6
				c4.4,0.2,8.5,2,11.4,4.8C110.6,33.1,113.5,30.5,112.4,27.6z"/>
			<path fill="#FFFFFF" d="M85,30.6c2.3-5.1,6.6-10.3,14.4-10.7c5.7-0.3,9.4,2.4,11.8,6c-2.2-4.6-6.3-8.3-12.9-8
				c-8.5,0.4-12.8,6.6-14.9,12c-0.4,1,0.7,1.8,1.3,1C84.7,30.8,84.8,30.7,85,30.6z"/>
			<path fill="#333333" d="M109.7,32.9c-0.8,0-1.6-0.3-2.2-0.9c-2.8-2.7-6.7-4.4-10.8-4.6l0,0c-4.9-0.3-8.8,1.2-11.3,4.2
				c-0.6,0.7-1.5,0.9-2.2,0.4c-0.8-0.5-1.1-1.5-0.8-2.5c3-7.9,8.6-12.4,15.8-12.7c6.9-0.3,12.1,3.4,14.7,10.5c0.8,2.1-0.1,4.1-1.5,5
				C110.8,32.7,110.2,32.9,109.7,32.9z M95.5,25.4c0.4,0,0.8,0,1.2,0l0,0c4.5,0.2,8.9,2.1,12.1,5.1c0.6,0.6,1.1,0.4,1.5,0.2
				c0.7-0.4,1.1-1.5,0.7-2.6c-1.6-4.4-5.2-9.5-12.7-9.2c-7.7,0.3-11.7,5.9-13.8,10.7C87.2,26.8,91,25.4,95.5,25.4z"/>
			<g>
				<path d="M98.2,19c7.6-0.3,11.1,4.8,12.7,9.2c0,0,0,0.1,0,0.1c0-0.3,0-0.6-0.2-0.9c-1.6-4.4-5.2-9.5-12.7-9.2
					c-7.7,0.3-11.7,5.9-13.8,10.7c0.3-0.3,0.5-0.5,0.8-0.8C87.4,23.8,91.3,19.3,98.2,19z"/>
				<path d="M113,28c0.1,1.6-0.7,3-1.7,3.7c-0.5,0.4-1.1,0.5-1.7,0.5c-0.8,0-1.6-0.3-2.2-0.9c-2.8-2.7-6.7-4.4-10.8-4.6
					c-4.9-0.3-8.8,1.2-11.3,4.2c-0.6,0.7-1.5,0.9-2.2,0.4c-0.4-0.2-0.7-0.6-0.8-1c0,0.7,0.3,1.4,0.9,1.7c0.8,0.4,1.7,0.3,2.2-0.4
					c2.5-3,6.4-4.5,11.3-4.2c4,0.2,8,1.9,10.8,4.6c0.7,0.6,1.4,0.9,2.2,0.9c0.6,0,1.2-0.2,1.7-0.5C112.6,31.7,113.5,29.9,113,28z"/>
			</g>
			<g>
				<path fill="#535353" d="M96.7,25.4c-0.4,0-0.8,0-1.2,0c-3.9,0-7.3,1.1-9.9,3.2c-0.2,0.5-0.5,1-0.7,1.5c2.7-2.8,6.5-4.2,11.1-4.2
					c0.4,0,0.8,0,1.2,0c3.9,0.2,7.7,1.6,10.7,4C104.9,27.3,100.9,25.7,96.7,25.4z"/>
				<path fill="#535353" d="M106.9,21.9c2,1.8,3.3,4.1,4.1,6.3c0.4,1.1,0,2.2-0.7,2.6c-0.3,0.2-0.8,0.3-1.3,0
					c0.1,0.1,0.2,0.1,0.3,0.2c0.6,0.6,1.1,0.4,1.5,0.2c0.7-0.4,1.1-1.5,0.7-2.6C110.6,26.2,109.2,23.7,106.9,21.9z"/>
				<path fill="#535353" d="M82.8,30c3-7.9,8.6-12.4,15.8-12.7c3.7-0.2,6.9,0.9,9.5,2.9c-2.7-2.4-6.1-3.5-10-3.4
					c-7.2,0.3-12.8,4.8-15.8,12.7c-0.4,0.9,0,2,0.8,2.5c0,0,0,0,0,0C82.7,31.6,82.5,30.8,82.8,30z"/>
				<path fill="#535353" d="M106.7,31.4c0.2,0.2,0.5,0.4,0.7,0.6c0.1,0.1,0.2,0.1,0.3,0.2C107.4,31.9,107,31.6,106.7,31.4z"/>
			</g>
			<path d="M107.5,22.2c-0.7,1.4-2.3,2.1-3.4,1.3s-1.5-2.6-0.9-4C104.6,19.9,106.4,20.6,107.5,22.2z"/>
		</g>
	</g>
</g>
</svg>
