<?xml version="1.0" encoding="utf-8"?>
<!-- Generator: Adobe Illustrator 18.0.0, SVG Export Plug-In . SVG Version: 6.00 Build 0)  -->
<!DOCTYPE svg PUBLIC "-//W3C//DTD SVG 1.1//EN" "http://www.w3.org/Graphics/SVG/1.1/DTD/svg11.dtd">
<svg version="1.1" xmlns="http://www.w3.org/2000/svg" xmlns:xlink="http://www.w3.org/1999/xlink" x="0px" y="0px"
	 viewBox="0 0 100 100" enable-background="new 0 0 100 100" xml:space="preserve">
<g id="图层_1" display="none">
	<rect x="-450" y="-450" display="inline" fill="#777676" width="1000" height="1000"/>
	<path display="inline" fill="#C69C6D" d="M-81.8-111.7"/>
</g>
<g id="身体" display="none">
	<g id="身体1">
		<g display="inline">
			<path fill="#8C6239" d="M60.1,38.5l-5.4-1.9l3.1,4.8C65.3,53.3,68.5,54.7,70,54.7c0.3,0,0.5-0.1,0.7-0.1c0.8-0.2,2.1-0.9,2.2-3.3
				C73.5,43.4,61.5,39,60.1,38.5z"/>
			<path fill="#744D28" d="M61.2,38.9c-0.5-0.2-0.9-0.3-1.1-0.4l-5.2-1.8c4,2.4,7,7.3,7.9,12.1c1.9,2.5,3.4,3.9,4.5,4.8
				c0-0.4,0.1-0.8,0.1-1.2C67.4,47.6,64.9,42.2,61.2,38.9z"/>
			<path fill="#8C6239" d="M53.3,59.1c0,2.6-0.9,4.7-3.5,4.7c-2.6,0-3.5-2.1-3.5-4.7c0-2.6,0.9-4.7,3.5-4.7
				C52.3,54.4,53.3,56.5,53.3,59.1z"/>
			<path fill="#333333" d="M32.9,55.6c-5,0-9.1,4.1-9.1,9.1H42C42,59.7,37.9,55.6,32.9,55.6z"/>
			<path d="M34.4,55.8c3.9,1.1,6.7,4.8,6.7,9H42C42,60.2,38.7,56.5,34.4,55.8z"/>
			<path fill="#C69C6D" d="M67.1,55.6c-5,0-9.1,4.1-9.1,9.1h18.3C76.3,59.7,72.2,55.6,67.1,55.6z"/>
			<path fill="#8C6239" stroke="#8C6239" stroke-width="4" stroke-miterlimit="10" d="M40,40.4c0,0-12,4.1-11.5,10.8
				C28.9,57.9,40,40.4,40,40.4z"/>
			<path fill="#744D28" d="M44.2,36.9l-2.9,4.5C33.8,53.2,30.5,54.7,29,54.7c0,0,0,0,0,0c0.2,0,0.3,0.1,0.5,0.1
				c1.5,0,4.8-1.5,12.3-13.3l3.1-4.8L44.2,36.9z"/>
			<path fill="#AA8561" d="M27.6,51.9c-0.5-8,11.5-12.3,12.9-12.8l3.5-1.2l0.8-1.2l-5.4,1.9C38,39,26,43.4,26.5,51.3
				c0.2,2.4,1.5,3.1,2.2,3.3c0,0,0,0,0.1,0C28.2,54.2,27.7,53.3,27.6,51.9z"/>
			<path fill="#AA8561" d="M60.7,39.7c1.1,0.4,8.6,3.1,11.7,8.1c-2.5-5.7-11.1-8.8-12.2-9.2l-5.4-1.9l0.8,1.2L60.7,39.7z"/>
			<path fill="#C69C6D" d="M63.1,51.7c0,7.4-6,10.3-13.4,10.3S36.4,59,36.4,51.7s6-16.4,13.4-16.4S63.1,44.3,63.1,51.7z"/>
			<path fill="#BD9261" d="M59.4,40.9c1.9,3,3,6.5,3,9.7c0,7.4-6,10.3-13.4,10.3c-4.8,0-9-1.2-11.3-4.1c2.1,3.7,6.7,5.2,12.1,5.2
				c7.4,0,13.4-2.9,13.4-10.3C63.1,48.1,61.7,44,59.4,40.9z"/>
			<path fill="#DCB890" d="M37.3,52.5c0-7.4,6-16.4,13.4-16.4c2.7,0,5.1,1.2,7.2,3c-2.2-2.3-5-3.9-8.1-3.9
				c-7.4,0-13.4,9.1-13.4,16.4c0,3.3,1.2,5.7,3.1,7.3C38.1,57.4,37.3,55.3,37.3,52.5z"/>
			<g>
				<g>
					<path fill="#333333" d="M50.3,55.3c-0.2-0.9-1.6-1.7-1.6-1.7l0-0.1c0.1,0,1.6,0.7,1.8,1.7L50.3,55.3z"/>
				</g>
				<g>
					<path fill="#333333" d="M49,55.2l-0.1,0c0.2-1.2,1.7-1.8,1.8-1.9l0.1,0.3C50.8,53.7,49.2,54.2,49,55.2z"/>
				</g>
				<g>
					<path fill="#333333" d="M49.7,56.8c-1.5,0-2.7-1.2-2.7-2.7c0-0.8,0.4-1.6,1-2.1c0.1-0.1,0.3-0.1,0.4,0c0.1,0.1,0.1,0.3,0,0.4
						c-0.5,0.4-0.8,1-0.8,1.7c0,1.2,1,2.2,2.2,2.2s2.2-1,2.2-2.2c0-0.6-0.3-1.2-0.7-1.6c-0.1-0.1-0.1-0.2,0-0.4
						c0.1-0.1,0.2-0.1,0.4,0c0.6,0.5,0.9,1.2,0.9,2C52.4,55.6,51.2,56.8,49.7,56.8z"/>
				</g>
			</g>
			<path fill="#535353" d="M33.6,55.7c-0.2,0-0.4,0-0.7,0c-5,0-9.1,4.1-9.1,9.1h1.3C25.1,60,28.8,56,33.6,55.7z"/>
			<path fill="#BD9261" d="M68.4,55.7c-0.4-0.1-0.8-0.1-1.3-0.1c-5,0-9.1,4.1-9.1,9.1h3.1C61.1,60.3,64.2,56.6,68.4,55.7z"/>
		</g>
	</g>
	<g id="身体2">
		<g display="inline">
			<path fill="#8C6239" d="M60.8,44.7l-5.4-1.9l3.1,4.8C66,59.4,69.3,60.9,70.8,60.9c0.3,0,0.5-0.1,0.7-0.1c0.8-0.2,2.1-0.9,2.2-3.3
				C74.3,49.5,62.2,45.1,60.8,44.7z"/>
			<path fill="#744D28" d="M61.9,45.1c-0.5-0.2-0.9-0.3-1.1-0.4l-5.2-1.8c4,2.4,7,7.3,7.9,12.1c1.9,2.5,3.4,3.9,4.5,4.8
				c0-0.4,0.1-0.8,0.1-1.2C68.2,53.8,65.7,48.4,61.9,45.1z"/>
			<path fill="#8C6239" d="M38.5,45.8c-1.4-2.2-2.7-4.1-3.8-5.6c1-1.2,1.7-2.7,1.7-4.4c0-3.7-3-6.7-6.7-6.7c-3.7,0-6.7,3-6.7,6.7
				c0,0.8,0.2,1.6,0.4,2.3c1.5,6.6,11.5,10.2,12.7,10.7l5.4,1.9L38.5,45.8z"/>
			<path fill="#744D28" d="M38.5,45.8c-1.4-2.2-2.7-4.1-3.8-5.6c1-1.2,1.7-2.7,1.7-4.4c0-3-2-5.5-4.7-6.4c2.3,1.1,3.9,3.4,3.9,6.1
				c0,1.7-0.6,3.2-1.7,4.4c1.1,1.5,2.4,3.4,3.8,5.6l3.1,4.8l-5.4-1.9c-0.1,0-0.2-0.1-0.3-0.1c0.5,0.2,0.9,0.4,1.1,0.4l5.4,1.9
				L38.5,45.8z"/>
			<path fill="#333333" d="M33.6,61.8c-5,0-9.1,4.1-9.1,9.1h18.3C42.8,65.9,38.7,61.8,33.6,61.8z"/>
			<path d="M35.2,61.9c3.9,1.1,6.7,4.8,6.7,9h0.8C42.8,66.4,39.5,62.6,35.2,61.9z"/>
			<path fill="#535353" d="M34.3,61.8c-0.2,0-0.4,0-0.7,0c-5,0-9.1,4.1-9.1,9.1h1.3C25.8,66.1,29.6,62.1,34.3,61.8z"/>
			<path fill="#8C6239" d="M54,65.3c0,2.6-0.9,4.7-3.5,4.7S47,67.9,47,65.3c0-2.6,0.9-4.7,3.5-4.7S54,62.7,54,65.3z"/>
			<path fill="#C69C6D" d="M67.9,61.8c-5,0-9.1,4.1-9.1,9.1H77C77,65.9,72.9,61.8,67.9,61.8z"/>
			<path fill="#AA8561" d="M60.8,44.7l-5.4-1.9l0.3,0.4l5.1,1.7c1.4,0.5,13.4,4.9,12.9,12.8c0,0.5-0.1,0.9-0.2,1.3
				c0.2-0.4,0.3-0.9,0.3-1.6C74.2,49.5,62.2,45.1,60.8,44.7z"/>
			<path fill="#C69C6D" d="M63.9,57.8c0,7.4-6,10.3-13.4,10.3s-13.4-2.9-13.4-10.3s6-16.4,13.4-16.4S63.9,50.4,63.9,57.8z"/>
			<path fill="#BD9261" d="M69.1,61.8c-0.4-0.1-0.8-0.1-1.3-0.1c-5,0-9.1,4.1-9.1,9.1h3.1C61.9,66.5,65,62.7,69.1,61.8z"/>
			<path fill="#BD9261" d="M60.1,47c1.9,3,3,6.5,3,9.7c0,7.4-6,10.3-13.4,10.3c-4.8,0-9-1.2-11.3-4.1c2.1,3.7,6.7,5.2,12.1,5.2
				c7.4,0,13.4-2.9,13.4-10.3C63.9,54.2,62.4,50.2,60.1,47z"/>
			<path fill="#DCB890" d="M38,58.7c0-7.4,6-16.4,13.4-16.4c2.7,0,5.1,1.2,7.2,3c-2.2-2.3-5-3.9-8.1-3.9c-7.4,0-13.4,9.1-13.4,16.4
				c0,3.3,1.2,5.7,3.1,7.3C38.9,63.5,38,61.4,38,58.7z"/>
			<g>
				<path fill="#333333" d="M51.1,61.4c-0.2-0.9-1.6-1.7-1.6-1.7l0-0.1c0.1,0,1.6,0.7,1.8,1.7L51.1,61.4z"/>
			</g>
			<g>
				<path fill="#333333" d="M49.7,61.4l-0.1,0c0.2-1.2,1.7-1.8,1.8-1.9l0.1,0.3C51.5,59.8,49.9,60.3,49.7,61.4z"/>
			</g>
			<g>
				<path fill="#333333" d="M50.5,63c-1.5,0-2.7-1.2-2.7-2.7c0-0.8,0.4-1.6,1-2.1c0.1-0.1,0.3-0.1,0.4,0c0.1,0.1,0.1,0.3,0,0.4
					c-0.5,0.4-0.8,1-0.8,1.7c0,1.2,1,2.2,2.2,2.2s2.2-1,2.2-2.2c0-0.6-0.3-1.2-0.7-1.6c-0.1-0.1-0.1-0.2,0-0.4
					c0.1-0.1,0.2-0.1,0.4,0c0.6,0.5,0.9,1.2,0.9,2C53.1,61.8,51.9,63,50.5,63z"/>
			</g>
			<path fill="#AA8561" d="M24.3,39.1c-0.3-0.7-0.4-1.5-0.4-2.3c0-3.7,3-6.7,6.7-6.7c1.8,0,3.4,0.7,4.6,1.8
				c-1.2-1.7-3.2-2.8-5.4-2.8c-3.7,0-6.7,3-6.7,6.7c0,0.8,0.2,1.6,0.4,2.3c0.4,1.8,1.4,3.3,2.7,4.7C25.2,41.7,24.6,40.4,24.3,39.1z"
				/>
		</g>
	</g>
	<g id="身体3">
		<g display="inline">
			<path fill="#C69C6D" d="M67.2,55.6c-5,0-9.1,4.1-9.1,9.1h18.3C76.4,59.7,72.3,55.6,67.2,55.6z"/>
			<path fill="#BD9261" d="M68.5,55.7c-0.4-0.1-0.8-0.1-1.3-0.1c-5,0-9.1,4.1-9.1,9.1h3.1C61.2,60.4,64.3,56.6,68.5,55.7z"/>
			<path fill="#333333" d="M32.8,55.6c-5,0-9.1,4.1-9.1,9.1h18.3C41.9,59.7,37.8,55.6,32.8,55.6z"/>
			<path d="M34.4,55.8c3.9,1.1,6.7,4.8,6.7,9h0.8C41.9,60.2,38.7,56.5,34.4,55.8z"/>
			<path fill="#535353" d="M33.5,55.7c-0.2,0-0.4,0-0.7,0c-5,0-9.1,4.1-9.1,9.1H25C25,59.9,28.7,56,33.5,55.7z"/>
			<path fill="#8C6239" d="M53.2,59.1c0,2.6-0.9,4.7-3.5,4.7s-3.5-2.1-3.5-4.7c0-2.6,0.9-4.7,3.5-4.7S53.2,56.6,53.2,59.1z"/>
			<path fill="#8C6239" d="M39,41.5c-1.2,0.8-11.7,8.2-9.1,15.7c0.8,2.3,2.2,2.6,3,2.6c0,0,0,0,0,0c1.1,0,4.1-0.1,9.1-16.1l1.7-5.5
				L39,41.5z"/>
			<path fill="#744D28" d="M42.4,39.3l-1.7,5.4c-3,9.6-5.3,13.5-6.9,15c1.5-0.5,4.2-3,8.3-16l1.7-5.5L42.4,39.3z"/>
			<path fill="#AA8561" d="M31.1,58.9C28.5,51.3,38,43,39.2,42.2l4.4-3.2l0.2-0.6L39,41.6c-1.2,0.8-11.7,8.2-9.1,15.7
				c0.4,1,0.9,1.7,1.4,2C31.2,59.2,31.1,59,31.1,58.9z"/>
			<path fill="#8C6239" d="M59.6,41.5l-4.7-3.2l1.7,5.5c5,16,8,16.1,9.1,16.1c0,0,0,0,0,0c0.8,0,2.2-0.3,3-2.6
				C71.3,49.7,60.8,42.4,59.6,41.5z"/>
			<path fill="#C69C6D" d="M63,51.7C63,59.1,57,62,49.6,62s-13.4-2.9-13.4-10.3s6-16.4,13.4-16.4S63,44.3,63,51.7z"/>
			<path fill="#744D28" d="M63.5,44.7c-1.6-1.5-3.1-2.6-3.7-3.1c2,3,3.2,6.7,3.2,10c0,2-0.4,3.6-1.2,5c0.2,0.4,0.5,0.7,0.7,1
				c1.5-1.6,2.4-3.8,2.4-6.6C64.9,49,64.4,46.8,63.5,44.7z"/>
			<path fill="#BD9261" d="M59.2,40.9c1.9,3,3,6.5,3,9.7c0,7.4-6,10.3-13.4,10.3c-4.8,0-9-1.2-11.3-4.1c2.1,3.7,6.7,5.2,12.1,5.2
				C57,61.9,63,59,63,51.7C63,48.1,61.6,44,59.2,40.9z"/>
			<path fill="#DCB890" d="M37.2,52.5c0-7.4,6-16.4,13.4-16.4c2.7,0,5.1,1.2,7.2,3c-2.2-2.3-5-3.9-8.1-3.9
				c-7.4,0-13.4,9.1-13.4,16.4c0,3.3,1.2,5.7,3.1,7.3C38,57.4,37.2,55.3,37.2,52.5z"/>
			<g>
				<path fill="#333333" d="M50.2,55.3c-0.2-0.9-1.6-1.7-1.6-1.7l0-0.1c0.1,0,1.6,0.7,1.8,1.7L50.2,55.3z"/>
			</g>
			<g>
				<path fill="#333333" d="M48.9,55.2l-0.1,0c0.2-1.2,1.7-1.8,1.8-1.9l0.1,0.3C50.6,53.7,49,54.2,48.9,55.2z"/>
			</g>
			<g>
				<path fill="#333333" d="M49.6,56.8c-1.5,0-2.7-1.2-2.7-2.7c0-0.8,0.4-1.6,1-2.1c0.1-0.1,0.3-0.1,0.4,0c0.1,0.1,0.1,0.3,0,0.4
					c-0.5,0.4-0.8,1-0.8,1.7c0,1.2,1,2.2,2.2,2.2s2.2-1,2.2-2.2c0-0.6-0.3-1.2-0.7-1.6c-0.1-0.1-0.1-0.2,0-0.4
					c0.1-0.1,0.2-0.1,0.4,0c0.6,0.5,0.9,1.2,0.9,2C52.3,55.6,51.1,56.8,49.6,56.8z"/>
			</g>
		</g>
	</g>
	<g id="身体4">
		<g display="inline">
			<path fill="#8C6239" d="M51.2,63.9c-0.3,2.6-1.4,4.6-4,4.3s-3.3-2.4-3-5c0.3-2.6,1.4-4.6,4-4.3C50.7,59.2,51.4,61.4,51.2,63.9z"
				/>
			<path fill="#333333" d="M30.6,59c-3.6,3.6-3.5,9.4,0,12.9l12.9-13C39.9,55.4,34.1,55.4,30.6,59z"/>
			<path fill="#0E0E0E" d="M29.7,70.8c0.3,0.4,0.6,0.8,0.9,1.1l11.6-11.6L29.7,70.8z"/>
			<path fill="#535353" d="M31.6,60.9c3-3.1,7.3-4.1,10.7-2.9c-3.6-2.6-8.6-2.2-11.8,1c-2.5,2.5-3.2,6-2.3,9.1
				C28.5,65.6,29.6,63,31.6,60.9z"/>
			<path fill="#C69C6D" d="M64.9,61.5c-4.9-1.1-9.8,2.1-10.9,7l9.9,3.6l8,0.2C72.9,67.5,69.8,62.6,64.9,61.5z"/>
			<path fill="#BD9261" d="M69.7,65.2c0.3,0.1,0.6,0.1,0.9,0.2c-1.3-1.9-3.3-3.4-5.7-3.9c-4.9-1.1-9.8,2.1-10.9,7l5.4,2
				C61.1,66.6,65.3,64.3,69.7,65.2z"/>
			<path fill="#8C6239" d="M40.9,43.8c-4.8-16.1-7.8-16.2-8.9-16.2c-0.8,0-2.2,0.3-3.1,2.6c-2.7,7.5,7.7,15,8.9,15.8l4.7,3.3
				L40.9,43.8z"/>
			<path fill="#744D28" d="M40.2,43.3l1.3,5.4l1.3,0.9L41,44.1c-1-3.4-1.9-6-2.8-8.1C38.9,38,39.5,40.4,40.2,43.3z"/>
			<path fill="#AA8561" d="M30.2,32.1c0.8-2.3,2.3-2.6,3.1-2.6c0.5,0,1.5,0,2.9,1.8c-2.1-3.7-3.4-3.7-4.1-3.7
				c-0.8,0-2.2,0.3-3.1,2.6c-1.2,3.4,0.2,6.7,2.3,9.5C29.9,37.3,29.3,34.7,30.2,32.1z"/>
			<path fill="#8C6239" d="M65.1,30.4c-1.6-1.8-3.1-1.6-3.8-1.3c-1,0.4-3.8,1.6-2.3,18.3l0.5,5.7l3.2-4.8
				C63.5,47.2,70.4,36.4,65.1,30.4z"/>
			<path fill="#744D28" d="M67,34.6c-0.7,5.4-4.8,11-5.4,11.9L59.3,50l0.3,3.4l3.2-4.8C63.4,47.7,68,40.5,67,34.6z"/>
			<path fill="#AA8561" d="M61.7,31.2c0.7-0.3,2.2-0.6,3.8,1.3c0.8,0.9,1.3,1.9,1.6,3c-0.1-1.8-0.6-3.6-1.9-5.1
				c-1.6-1.8-3.1-1.6-3.8-1.3c-0.9,0.4-3.2,1.4-2.7,13.3C58.6,32.6,60.8,31.6,61.7,31.2z"/>
			<path fill="#C69C6D" d="M62.6,55.8c-0.9,7.3-7.2,9.5-14.5,8.5s-12.9-4.5-12-11.9s8-15.6,15.3-14.6S63.5,48.4,62.6,55.8z"/>
			<path fill="#BD9261" d="M58.8,42.5c2.6,3.7,3.9,8.5,3.4,12.6c-0.9,7.5-7.7,9.6-15.5,8.6c-1.8-0.2-3.4-0.6-4.9-1.1
				c1.8,0.9,4,1.5,6.3,1.8c7.3,0.9,13.6-1.2,14.5-8.5C63.2,51.4,61.7,46.2,58.8,42.5z"/>
			<path fill="#DCB890" d="M37.8,54c0.9-7.3,8-15.6,15.3-14.6c1.8,0.2,3.4,1,4.8,2.1c-1.8-2-4-3.4-6.6-3.7
				C44,36.8,36.9,45.1,36,52.4c-0.5,4.1,1,7,3.7,9C38.1,59.5,37.4,57.1,37.8,54z"/>
			<g>
				<g>
					<path fill="#333333" d="M50.1,56.7c-0.2-0.9-1.6-1.7-1.6-1.7l0-0.1c0.1,0,1.6,0.7,1.8,1.7L50.1,56.7z"/>
				</g>
				<g>
					<path fill="#333333" d="M48.7,56.7l-0.1,0c0.2-1.2,1.7-1.8,1.8-1.9l0.1,0.3C50.5,55.1,48.9,55.7,48.7,56.7z"/>
				</g>
				<g>
					<path fill="#333333" d="M49.5,58.3c-1.5,0-2.7-1.2-2.7-2.7c0-0.8,0.4-1.6,1-2.1c0.1-0.1,0.3-0.1,0.4,0c0.1,0.1,0.1,0.3,0,0.4
						c-0.5,0.4-0.8,1-0.8,1.7c0,1.2,1,2.2,2.2,2.2s2.2-1,2.2-2.2c0-0.6-0.3-1.2-0.7-1.6c-0.1-0.1-0.1-0.2,0-0.4
						c0.1-0.1,0.2-0.1,0.4,0c0.6,0.5,0.9,1.2,0.9,2C52.2,57.1,51,58.3,49.5,58.3z"/>
				</g>
			</g>
		</g>
	</g>
	<g id="身体5">
		<g display="inline">
			<path fill="#C69C6D" d="M67.2,55.6c-5,0-9.1,4.1-9.1,9.1h18.3C76.4,59.7,72.3,55.6,67.2,55.6z"/>
			<path fill="#BD9261" d="M68.5,55.7c-0.4-0.1-0.8-0.1-1.3-0.1c-5,0-9.1,4.1-9.1,9.1h3.1C61.2,60.4,64.3,56.6,68.5,55.7z"/>
			<path fill="#333333" d="M32.8,55.6c-5,0-9.1,4.1-9.1,9.1h18.3C41.9,59.7,37.8,55.6,32.8,55.6z"/>
			<path d="M34.3,55.8c3.9,1.1,6.7,4.8,6.7,9h0.8C41.9,60.2,38.6,56.5,34.3,55.8z"/>
			<path fill="#535353" d="M33.4,55.7c-0.2,0-0.4,0-0.7,0c-5,0-9.1,4.1-9.1,9.1H25C25,60,28.7,56,33.4,55.7z"/>
			<path fill="#8C6239" d="M53.2,59.2c0,2.6-0.9,4.7-3.5,4.7s-3.5-2.1-3.5-4.7c0-2.6,0.9-4.7,3.5-4.7S53.2,56.6,53.2,59.2z"/>
			<path fill="#C69C6D" d="M63,51.7C63,59.1,57,62,49.6,62s-13.4-2.9-13.4-10.3s6-16.4,13.4-16.4S63,44.3,63,51.7z"/>
			<path fill="#B18451" d="M59.2,40.9c1.7,2.9,2.8,6.3,2.8,9.3c0,7.4-6,10.3-13.4,10.3c-4.8,0-9-1.2-11.3-4.1c2,4,6.8,5.6,12.3,5.6
				C57,62,63,59.1,63,51.7C63,48.1,61.5,44.1,59.2,40.9z"/>
			<path fill="#DCB890" d="M38.3,53.7c0-7.4,6-16.4,13.4-16.4c2.5,0,4.9,1.1,6.9,2.7c-2.4-2.8-5.5-4.7-8.9-4.7
				c-7.4,0-13.4,9.1-13.4,16.4c0,3.6,1.4,6.1,3.7,7.7C38.9,57.9,38.3,56,38.3,53.7z"/>
			<path fill="#8C6239" d="M60.8,42L56.6,38l0.8,5.7c2.4,16.6,5.3,17.1,6.4,17.3c0.1,0,0.3,0,0.5,0c0.8,0,2-0.4,2.9-2.1
				C71,51.9,61.9,43,60.8,42z"/>
			<path fill="#744D28" d="M64.5,46.2c1.9,3.9,3.6,9.2,1.4,13.3c-0.4,0.8-0.9,1.3-1.4,1.6c0.8-0.1,1.9-0.5,2.7-2.1
				C69.6,54.7,67.1,49.7,64.5,46.2z"/>
			<path fill="#AA8561" d="M59.3,43.4L58.8,40L56.6,38l0.8,5.7c1.8,12.6,3.9,16,5.3,16.9C61.8,57.7,60.6,52.5,59.3,43.4z"/>
			<path fill="#8C6239" d="M38.4,42.7c-1,1.1-9.3,10.8-4.9,17.5c1,1.5,2.1,1.9,2.9,1.9c0.3,0,0.5,0,0.7-0.1c1.1-0.3,4-1.1,4.9-17.8
				l0.3-5.7L38.4,42.7z"/>
			<path fill="#744D28" d="M35.8,61.1c-0.2,0.1-0.4,0.1-0.7,0.1c-0.3,0-0.7-0.1-1-0.2c0.8,0.8,1.6,1,2.2,1c0.3,0,0.5,0,0.7-0.1
				c1-0.3,3.5-1,4.6-14.1C39.9,57.9,36.7,60.9,35.8,61.1z"/>
			<path fill="#AA8561" d="M39.1,44l3-3.4l0.1-2.2l-3.8,4.3c-1,1.1-9.3,10.8-4.9,17.5c0,0,0.1,0.1,0.1,0.1
				C30.7,53.7,38.1,45,39.1,44z"/>
			<g>
				<g>
					<path fill="#333333" d="M50.4,54.9c-0.2-0.9-1.6-1.7-1.6-1.7l0-0.1c0.1,0,1.6,0.7,1.8,1.7L50.4,54.9z"/>
				</g>
				<g>
					<path fill="#333333" d="M49.1,54.9l-0.1,0c0.2-1.2,1.7-1.8,1.8-1.9l0.1,0.3C50.9,53.3,49.3,53.8,49.1,54.9z"/>
				</g>
				<g>
					<path fill="#333333" d="M49.8,56.5c-1.5,0-2.7-1.2-2.7-2.7c0-0.8,0.4-1.6,1-2.1c0.1-0.1,0.3-0.1,0.4,0c0.1,0.1,0.1,0.3,0,0.4
						c-0.5,0.4-0.8,1-0.8,1.7c0,1.2,1,2.2,2.2,2.2s2.2-1,2.2-2.2c0-0.6-0.3-1.2-0.7-1.6c-0.1-0.1-0.1-0.2,0-0.4
						c0.1-0.1,0.2-0.1,0.4,0c0.6,0.5,0.9,1.2,0.9,2C52.5,55.3,51.3,56.5,49.8,56.5z"/>
				</g>
			</g>
		</g>
	</g>
	<g id="身体6">
		<g display="inline">
			<path fill="#8C6239" d="M74.6,39.7c-1.4-2.4-3.9-3.1-6.3-1.7c-0.1,0-7.5,4.7-5.4,8.3c0.6,1.1,1.9,1.5,3.3,1.5
				c2.7,0,6.1-1.4,6.7-1.8c1.6-0.9,2.1-2.1,2.3-3C75.5,41.9,75.2,40.8,74.6,39.7z"/>
			<path fill="#744D28" d="M67.8,39.2c-0.4,0-0.8,0-1.2,0.1c-2.1,1.7-5,4.6-3.7,7c0.6,1.1,1.9,1.5,3.3,1.5c2.7,0,6.1-1.4,6.7-1.8
				c1.6-0.9,2.1-2.1,2.3-3c0-0.2,0-0.4,0.1-0.6C73.2,40.5,70.6,39.2,67.8,39.2z"/>
			<line fill="#B18451" x1="46" y1="29.6" x2="46.3" y2="35.8"/>
			<path fill="#C69C6D" d="M63.8,50.3c0,7.4-6,10.3-13.4,10.3s-13.4-2.9-13.4-10.3s6-16.4,13.4-16.4S63.8,43,63.8,50.3z"/>
			<g>
				<path fill="#B18451" d="M59.3,38.6c2.5,3.2,4.1,7.2,4.1,10.9c0,7.4-6.3,10.3-14.2,10.3c-2.8,0-5.5-0.4-7.7-1.2
					c2.4,1.4,5.5,2.1,8.9,2.1c7.4,0,13.4-2.9,13.4-10.3C63.8,46.4,62,41.9,59.3,38.6z"/>
				<path fill="#B18451" d="M59,38.4c-0.1-0.1-0.1-0.1-0.2-0.2C58.9,38.2,59,38.3,59,38.4z"/>
			</g>
			<path fill="#DCB890" d="M39.6,53.1c0-7.4,6-16.4,13.4-16.4c2.6,0,5.1,1.2,7.1,3c-2.4-3.3-5.8-5.7-9.6-5.7
				c-7.4,0-13.4,9.1-13.4,16.4c0,3.6,1.4,6.1,3.7,7.8C40,56.7,39.6,55.1,39.6,53.1z"/>
			
				<ellipse transform="matrix(0.9668 -0.2557 0.2557 0.9668 -13.7208 7.9357)" fill="#C69C6D" cx="23.7" cy="56.7" rx="5.7" ry="7.7"/>
			<path fill="#DCB890" d="M19.9,60.2c-1.1-4.1,0.5-8.1,3.6-8.9c1.6-0.4,3.3,0.1,4.7,1.3c-1.5-2.6-4.1-4.1-6.5-3.5
				C18.6,50,17,54,18.1,58.1c0.5,2,1.5,3.6,2.8,4.7C20.5,62,20.1,61.1,19.9,60.2z"/>
			<ellipse fill="#333333" cx="34.9" cy="70.8" rx="3.6" ry="4.9"/>
			<path fill="#535353" d="M33.2,72.2c0-2.7,1.6-4.9,3.6-4.9c0.2,0,0.4,0,0.7,0.1c-0.7-1-1.6-1.6-2.7-1.6c-2,0-3.6,2.2-3.6,4.9
				c0,2.4,1.3,4.4,3,4.8C33.5,74.6,33.2,73.4,33.2,72.2z"/>
			<ellipse transform="matrix(0.866 0.5 -0.5 0.866 43.6807 -22.5767)" fill="#333333" cx="64" cy="70.2" rx="4.6" ry="5.7"/>
			<path fill="#535353" d="M61.1,69.3c1.6-2.7,4.6-3.9,6.8-2.6c0.1,0.1,0.3,0.2,0.4,0.3c-0.3-0.7-0.8-1.3-1.5-1.7
				c-2.2-1.3-5.2-0.1-6.8,2.6c-1.5,2.5-1.1,5.5,0.7,6.9C60,73.3,60,71.2,61.1,69.3z"/>
			
				<ellipse transform="matrix(0.9851 -0.1722 0.1722 0.9851 -11.9149 9.6292)" fill="#C69C6D" cx="49.6" cy="73.5" rx="6.1" ry="8.3"/>
			<path fill="#DCB890" d="M45.4,77.1c-0.8-4.5,1.3-8.6,4.6-9.2c1.6-0.3,3.3,0.3,4.6,1.5c-1.4-2.8-3.9-4.5-6.5-4
				c-3.3,0.6-5.4,4.7-4.6,9.2c0.4,2.3,1.5,4.3,2.9,5.5C45.9,79.2,45.6,78.2,45.4,77.1z"/>
			<ellipse transform="matrix(0.99 0.1411 -0.1411 0.99 9.2714 -9.5127)" fill="#C69C6D" cx="71.7" cy="60.6" rx="2.3" ry="3.1"/>
			<path fill="#DCB890" d="M70,61c0.2-1.7,1.5-2.9,2.7-2.7c0.3,0,0.6,0.2,0.9,0.4c-0.3-0.6-0.8-1-1.5-1.1c-1.3-0.2-2.5,1-2.7,2.7
				c-0.2,1.2,0.2,2.4,1,3C70.1,62.7,69.9,61.9,70,61z"/>
			<path fill="#8C6239" d="M60.8,18.4c-0.5-0.2-1.2-0.2-2.1,0c-7.8,1.6-8.9,14.3-9,15.8l-0.4,5.7l3.9-4.2c1.6-1.8,2.9-3.3,4.1-4.7
				c0.9,0.5,2,0.7,3.1,0.7c3.7,0,6.7-3,6.7-6.7C67,21.6,64.3,18.7,60.8,18.4z"/>
			<path fill="#744D28" d="M66.6,23c0.1,0.4,0.1,0.7,0.1,1.1c0,3.7-3,6.7-6.7,6.7c-1.1,0-2.1-0.3-3.1-0.7c-0.7,0.9-2.4,3.6-3.9,5.8
				l0.1-0.1c1.6-1.8,2.9-3.3,4.1-4.7c0.9,0.5,2,0.7,3.1,0.7c3.7,0,6.7-3,6.7-6.7C67,24.4,66.8,23.6,66.6,23z"/>
			<path fill="#AA8561" d="M59.7,20.8c0.9-0.2,1.6-0.1,2.1,0c2.1,0.2,3.9,1.3,5,2.9c-0.6-2.9-3-5.1-6-5.3c-0.5-0.2-1.2-0.2-2.1,0
				c-7.8,1.6-8.9,14.3-9,15.8l-0.1,1.7C50.1,32.9,52.6,22.2,59.7,20.8z"/>
			<path fill="#8C6239" d="M82.2,62"/>
			<path fill="#AA8561" d="M82.1,61.9"/>
			<path fill="#B18451" d="M82.2,61.7"/>
		</g>
	</g>
	<g id="身体7">
		<g display="inline">
			<path fill="#333333" d="M38.4,55.6c-5,0-9,3.1-9,8.1l6,1h12.1C47.4,59.6,43.4,55.6,38.4,55.6z"/>
			<path fill="#535353" d="M40,56.5c1.2,0,2.4,0.2,3.5,0.7c-1.5-1-3.2-1.6-5.1-1.6c-5,0-9,3.1-9,8.1l1.7,0.3
				C31.3,59.3,35.2,56.5,40,56.5z"/>
			<path d="M46.9,64.6L46.9,64.6l0.5,0.1c0-2.5-1-4.8-2.7-6.4C46.2,59.9,47,62.1,46.9,64.6L46.9,64.6z"/>
			<path fill="#8C6239" d="M58.6,59c0,2.6-0.9,4.6-3.5,4.6c-2.6,0-3.5-2.1-3.5-4.6c0-2.6,0.9-4.6,3.5-4.6
				C57.7,54.4,58.6,56.5,58.6,59z"/>
			<path fill="#C69C6D" d="M63.1,55.6c-4.2,0-7.6,4.1-7.6,9h15.2C70.7,59.6,67.3,55.6,63.1,55.6z"/>
			<path fill="#8C6239" d="M44.8,39.4c-1.2,0.8-11.5,8.2-8.9,15.6c0.8,2.2,2.2,2.6,3,2.6c0,0,0,0,0.1,0c1.1,0,4.1-0.1,8.9-16
				l1.7-5.5L44.8,39.4z"/>
			<path fill="#AA8561" d="M37.3,55.6c-1.3-3.8,0.2-8.1,2.2-11.5c-2.6,3-5,6.9-3.6,10.9c0.7,2,1.9,2.5,2.7,2.6
				C38.1,57.2,37.6,56.6,37.3,55.6z"/>
			<path fill="#C69C6D" d="M64.4,51.6c0,7.3-5.9,10.2-13.2,10.2S37.9,59,37.9,51.6s5.9-16.3,13.2-16.3S64.4,44.3,64.4,51.6z"/>
			<path fill="#BD9261" d="M55.5,64.3c5.6-0.4,10-2.7,11.1-7.6c-0.9-0.6-1.9-1-3-1.1c-1.2,3.1-4,4.9-7.6,5.7
				C55.7,62.3,55.5,63.3,55.5,64.3z"/>
			<path fill="#B18451" d="M57.7,37.9c3.4,3.3,5.7,8.4,5.7,12.9c0,7.3-5.9,10.2-13.2,10.2c-3.9,0-7.3-0.8-9.7-2.6
				c2.4,2.4,6.3,3.5,10.7,3.5c7.3,0,13.2-2.9,13.2-10.2C64.4,46.8,61.7,41.1,57.7,37.9z"/>
			<path fill="#DCB890" d="M40,53.3c0-7.3,5.9-16.3,13.2-16.3c2,0,3.8,0.7,5.5,1.8c-2.2-2.1-4.8-3.4-7.6-3.4
				c-7.3,0-13.2,9-13.2,16.3c0,3.9,1.7,6.5,4.4,8.1C40.8,58.2,40,56.1,40,53.3z"/>
			<g>
				<g>
					<path fill="#333333" d="M47.2,55.2c-0.2-0.9-1.3-1.7-1.3-1.7l0-0.1c0.1,0,1.3,0.7,1.5,1.7L47.2,55.2z"/>
				</g>
				<g>
					<g>
						<path fill="#333333" d="M46.1,55.2L46.1,55.2c0.1-1.2,1.3-1.8,1.3-1.9l0.1,0.3C47.5,53.6,46.3,54.1,46.1,55.2z"/>
					</g>
					<path fill="none" stroke="#333333" stroke-width="0.5" stroke-linecap="round" stroke-miterlimit="10" d="M48,52.3
						c0.4,0.4,0.7,1.1,0.7,1.8c0,1.3-0.9,2.4-1.9,2.4s-1.9-1.1-1.9-2.4c0-0.8,0.3-1.4,0.7-1.9"/>
				</g>
			</g>
			<path fill="#8C6239" d="M58.9,40.6l-4.2-3.9l0.9,5.7c2.6,16.4,5.5,16.9,6.6,17.1c0.1,0,0.3,0,0.4,0c0.8,0,2-0.4,2.9-2.1
				C69.2,50.3,60,41.6,58.9,40.6z"/>
			<path fill="#744D28" d="M64.5,47.7c1.1,3.3,1.5,7-0.1,10c-0.5,0.9-1,1.4-1.5,1.7c0.8-0.1,1.7-0.6,2.5-2.1
				C67.1,54.2,66.2,50.7,64.5,47.7z"/>
			<path fill="#AA8561" d="M57.7,44.1l-0.8-5.4l-2.2-2l0.9,5.7C58,58,60.8,59.2,62,59.4C60.7,57.5,59.2,53.3,57.7,44.1z"/>
		</g>
	</g>
	<g id="身体8">
		<g display="inline">
			<path fill="#8C6239" d="M47.7,52.5c0,2.5-0.9,4.5-3.4,4.5S41,55,41,52.5s0.9-4.5,3.4-4.5S47.7,50.1,47.7,52.5z"/>
			<path fill="#C69C6D" d="M49.4,54.4c-2.2,0-4,7.1-4,15.9h7.9C53.3,61.5,51.6,54.4,49.4,54.4z"/>
			<path fill="#B18451" d="M50.7,55.3c1.4,2.4,2.4,8.1,2.4,14.6l-4.9,0.4h5.2C53.4,63.3,52.3,57.4,50.7,55.3z"/>
			<path fill="#DCB890" d="M50.3,54.8c-0.3-0.3-0.6-0.5-1-0.5c-2.2,0-4,7.1-4,15.9h1.2C46.6,62,48.2,55.3,50.3,54.8z"/>
			<path fill="#8C6239" d="M68.4,40.3c0-3.5-1.8-6.4-4.1-6.4c-1.6,0-3,1.4-3.6,3.5c-1.9-1.1-4.4-2.3-7.6-3.7l-5.2-2.3l2.7,5.1
				C51.2,37.7,56.3,47,63.1,47c0.5,0,1-0.1,1.6-0.2c2.1-0.5,2.7-1.6,2.8-2.4C68.1,43.3,68.4,41.9,68.4,40.3z"/>
			<path fill="#C69C6D" d="M57.1,45.4c0,7-5.7,9.8-12.7,9.8s-12.7-2.8-12.7-9.8s5.7-15.7,12.7-15.7S57.1,38.4,57.1,45.4z"/>
			<path fill="#B18451" d="M52.6,33.9c2.2,3,3.6,6.8,3.6,10.2c0,7-5.7,9.8-12.7,9.8c-4.3,0-8-1-10.3-3.4c2.1,3.3,6.4,4.6,11.3,4.6
				c7,0,12.7-2.8,12.7-9.8C57.2,41.5,55.4,37.1,52.6,33.9z"/>
			<path fill="#DCB890" d="M33.4,47.1c0-7,5.7-15.7,12.7-15.7c2.2,0,4.2,0.8,6,2.2c-2.2-2.3-4.9-3.9-7.9-3.9
				c-7,0-12.7,8.6-12.7,15.7c0,3.5,1.4,6,3.8,7.6C34.1,51.5,33.4,49.5,33.4,47.1z"/>
			<path fill="#744D28" d="M61,37.3c0,0.1-0.1,0.1-0.1,0.2c-1.9-1.1-4.4-2.3-7.6-3.7L52,33.3c3,3,5,7.4,5.2,11.4
				c1.8,1.4,3.8,2.4,6,2.4c0,0,0,0,0.1,0c0.1-0.4,0.1-0.9,0.1-1.4C63.4,43,62.5,40,61,37.3z"/>
			<g>
				<path fill="#333333" d="M44.9,48.8c-0.2-0.9-1.5-1.6-1.5-1.6l0-0.1c0.1,0,1.5,0.6,1.8,1.6L44.9,48.8z"/>
			</g>
			<g>
				<path fill="#333333" d="M43.6,48.8l-0.1,0c0.2-1.2,1.7-1.7,1.7-1.8l0.1,0.3C45.3,47.3,43.8,47.8,43.6,48.8z"/>
			</g>
			<path fill="none" stroke="#333333" stroke-width="0.5" stroke-linecap="round" stroke-miterlimit="10" d="M45.9,46.1
				c0.5,0.4,0.8,1,0.8,1.7c0,1.3-1,2.3-2.3,2.3s-2.3-1-2.3-2.3c0-0.7,0.3-1.4,0.9-1.8"/>
			<path fill="#333333" d="M35.6,45.4c-2.5,0.5-3.3,7.1-1.6,14.7l9.2-2C41.5,50.6,38.1,44.9,35.6,45.4z"/>
			<path fill="#535353" d="M36.3,46.4c0.8-0.2,1.8,0.3,2.7,1.3c-1.2-1.6-2.4-2.5-3.4-2.3c-2.5,0.5-3.3,7.1-1.6,14.7l0.5-0.1
				C33.2,52.9,33.9,46.9,36.3,46.4z"/>
			<path fill="#8C6239" d="M43.2,33.9l-5.4-1.9l3.1,4.8c7.2,11.3,10.3,12.7,11.8,12.7c0.3,0,0.5-0.1,0.7-0.1
				c0.8-0.2,2.1-0.9,2.2-3.2C56.1,38.6,44.6,34.4,43.2,33.9z"/>
			<path fill="#744D28" d="M50.8,37.9c2.3,2,4.1,4.5,3.9,7.6c-0.2,2.4-1.5,3-2.2,3.2c-0.2,0-0.4,0.1-0.7,0.1c-0.5,0-1.3-0.2-2.4-1
				c1.6,1.4,2.6,1.7,3.3,1.7c0.3,0,0.5-0.1,0.7-0.1c0.8-0.2,2.1-0.9,2.2-3.2C55.8,42.7,53.5,40,50.8,37.9z"/>
			<path fill="#AA8561" d="M42.3,37.8L39.2,33l5.4,1.9c0.6,0.2,3.6,1.3,6.5,3.2c-3.3-2.6-7.4-4.1-8.1-4.4l-5.4-1.9l3.1,4.8
				c5.2,8.1,8.3,11.1,10.1,12.2C48.9,47.2,46.2,43.9,42.3,37.8z"/>
		</g>
	</g>
	<g id="身体9">
		<g display="inline">
			<path fill="#8C6239" d="M53.2,64.2c0,2.6-0.9,4.7-3.5,4.7s-3.5-2.1-3.5-4.7c0-2.6,0.9-4.7,3.5-4.7S53.2,61.6,53.2,64.2z"/>
			<path fill="#333333" d="M32.8,60.7c-5,0-9.1,4.1-9.1,9.1h18.3C41.9,64.8,37.8,60.7,32.8,60.7z"/>
			<path d="M40.2,69.8h1.7c0-4.2-2.9-7.8-6.8-8.8C38.2,62.4,40.2,65.9,40.2,69.8z"/>
			<path fill="#535353" d="M33.6,60.7c-0.3,0-0.6,0-0.9,0c-5,0-9.1,4.1-9.1,9.1h1.8C25.4,65,29,61.1,33.6,60.7z"/>
			<path fill="#C69C6D" d="M67.2,60.7c-5,0-9.1,4.1-9.1,9.1h18.3C76.4,64.8,72.3,60.7,67.2,60.7z"/>
			<path fill="#C69C6D" d="M63,56.7C63,64.1,57,67,49.7,67s-13.4-2.9-13.4-10.3s6-16.4,13.4-16.4S63,49.3,63,56.7z"/>
			<path fill="#B18451" d="M49.7,40.5c-1,0-1.9,0.2-2.8,0.4c0.3,0,0.5-0.1,0.8-0.1c7.4,0,13.4,9.1,13.4,16.4c0,5.5-3.3,8.5-8,9.7
				c5.8-0.8,10-3.8,10-10.1C63.1,49.6,57.1,40.5,49.7,40.5z"/>
			<path fill="#DCB890" d="M39.1,58.2c0-7.4,6-16.4,13.4-16.4c1,0,2,0.2,3,0.5c-1.7-1.2-3.7-1.9-5.7-1.9c-7.4,0-13.4,9.1-13.4,16.4
				c0,4.9,2.7,7.8,6.6,9.2C40.5,64.4,39.1,61.9,39.1,58.2z"/>
			<g>
				<path fill="#333333" d="M50.2,60.3c-0.2-0.9-1.6-1.7-1.6-1.7l0-0.1c0.1,0,1.6,0.7,1.8,1.7L50.2,60.3z"/>
			</g>
			<g>
				<path fill="#333333" d="M48.9,60.3l-0.1,0c0.2-1.2,1.7-1.8,1.8-1.9l0.1,0.3C50.7,58.7,49.1,59.2,48.9,60.3z"/>
			</g>
			<path fill="none" stroke="#333333" stroke-width="0.5" stroke-linecap="round" stroke-miterlimit="10" d="M51.3,57.4
				c0.5,0.4,0.8,1.1,0.8,1.8c0,1.3-1.1,2.4-2.4,2.4s-2.4-1.1-2.4-2.4c0-0.8,0.4-1.4,0.9-1.9"/>
			<path fill="#8C6239" d="M60.4,47c-5.7-15.8-8.7-15.7-9.8-15.6c-0.8,0-2.2,0.4-2.9,2.7c-2.2,7.7,8.6,14.5,9.8,15.3l4.9,3L60.4,47z
				"/>
			<path fill="#8C6239" d="M51.2,30.2c-0.6,0-1.1,0.1-1.6,0.2c-0.3,0-0.6,0.1-1,0.3c-1.9,0.8-3.3,2.4-3.8,4.4
				c-1.4,2.3-3.1,5.6-5.1,10.5l-2.2,5.3l5-2.8c0.6-0.4,3.8-2.2,6.6-5c0.7,0.2,1.4,0.4,2.1,0.4c3.7,0,6.7-3,6.7-6.7
				S54.8,30.2,51.2,30.2z"/>
			<path fill="#744D28" d="M59.7,45c-0.8-2.2-1.6-4.1-2.3-5.6c-1,2.4-3.4,4.1-6.2,4.1c-0.2,0-0.4,0-0.6-0.1c1.1,1.4,2.4,2.5,3.6,3.5
				c0.3,0,0.5,0.1,0.8,0.1C56.8,47,58.5,46.2,59.7,45z"/>
			<path fill="#AA8561" d="M40.7,46c2-4.9,3.7-8.3,5.1-10.5c0.5-2,2-3.6,3.8-4.4c0.4-0.2,0.7-0.3,1-0.3c0.5-0.1,1-0.2,1.6-0.2
				c0.5,0,1.1,0.1,1.6,0.2c-0.8-0.4-1.7-0.6-2.7-0.6c-0.6,0-1.1,0.1-1.6,0.2c-0.3,0-0.6,0.1-1,0.3c-1.9,0.8-3.3,2.4-3.8,4.4
				c-1.4,2.3-3.1,5.6-5.1,10.5l-2.2,5.3l1.7-0.9L40.7,46z"/>
			<path fill="#744D28" d="M54.8,31.3c1.1,1.2,1.8,2.8,1.8,4.5c0,3.7-3,6.7-6.7,6.7c-0.7,0-1.5-0.1-2.1-0.4
				c-2.5,2.5-5.3,5.6-6.3,6.5l0.9-0.5c0.6-0.4,3.8-2.2,6.6-5c0.7,0.2,1.4,0.4,2.1,0.4c3.7,0,6.7-3,6.7-6.7
				C57.8,34.5,56.6,32.5,54.8,31.3z"/>
			<path fill="#BD9261" d="M68.5,60.7c-0.4-0.1-0.8-0.1-1.3-0.1c-5,0-9.1,4.1-9.1,9.1h3.1C61.2,65.4,64.3,61.6,68.5,60.7z"/>
		</g>
	</g>
</g>
<g id="武器" display="none">
	<g id="武器1">
		<g display="inline">
			<path fill="#AFC8CE" d="M75.6,44.9l-21.5,3.9c0.3,1.7,0.5,3.3,0.6,4.9l21.2-5.2"/>
			<path fill="#D5E7EB" d="M54.8,53.7c0,0.1,0,0.2,0,0.4c0,0.1,0,0.2,0,0.4l20.5-5.1c0.1-0.2,0.2-0.3,0.3-0.4
				c0.1-0.2,0.3-0.3,0.4-0.5L54.8,53.7z"/>
			<path fill="#F0F5F6" d="M72.5,40.4l-19.8,2.8c0,0.1,0.1,0.2,0.1,0.3c0,0.1,0.1,0.2,0.1,0.4L73.3,41"/>
			<path fill="#8BB3BC" d="M54.1,48.8C54.1,48.8,54.1,48.8,54.1,48.8l21.5-3.9c-0.3-0.2-0.6-0.4-0.8-0.6L54,48.1
				C54,48.4,54.1,48.6,54.1,48.8z"/>
			<path fill="#D4E1E4" d="M73.3,41l-20.3,2.9c0.4,1.4,0.7,2.8,1,4.2l20.8-3.8"/>
			<path fill="#D4E1E4" d="M50,36.8c-1.9-3.2-3.9-4.8-5.7-4.4c-1.8,0.3-3.2,2.5-3.8,6.2c-0.3,2-0.4,4.2-0.3,6.6l0.4,0l0.4,0l2.9-0.2
				l0,0c1.6-0.2,3.3,2,3.8,5.1c0.6,3-0.2,5.7-1.8,6.1l0,0l-2.8,0.9L42.7,57l-0.4,0.1c2.2,6.7,5.5,11.1,8.4,10.5
				c0.2,0,0.4-0.1,0.5-0.2c1.6-0.6,2.7-2.7,3.3-6c0.3-2.1,0.4-4.5,0.3-7c0-0.1,0-0.2,0-0.4c0-0.1,0-0.2,0-0.4
				c-0.1-1.6-0.3-3.2-0.6-4.9c0,0,0,0,0-0.1c0-0.2-0.1-0.4-0.1-0.6c-0.3-1.5-0.6-2.9-1-4.2c0-0.1-0.1-0.2-0.1-0.4
				c0-0.1-0.1-0.2-0.1-0.3C52,40.8,51,38.6,50,36.8z"/>
			<path fill="#F0F5F6" d="M47.4,65.5c0-0.1-0.1-0.1-0.1-0.2c0-0.1-0.1-0.1-0.1-0.2c0-0.1-0.1-0.1-0.1-0.2c-0.2-0.4-0.5-0.8-0.7-1.2
				c0,0,0,0,0,0c-0.7-1.4-1.3-3-1.9-4.7l0,0c0-0.1-0.1-0.2-0.1-0.3c0-0.1-0.1-0.2-0.1-0.3c0-0.1-0.1-0.2-0.1-0.4
				c-0.4-1.4-0.7-2.8-1-4.2c0-0.2-0.1-0.4-0.1-0.6c0,0,0,0,0-0.1c-0.3-1.7-0.5-3.3-0.6-4.9c0-0.1,0-0.2,0-0.4c0-0.1,0-0.2,0-0.4
				c0-0.1,0-0.2,0-0.4l0,0c0-0.2,0-0.3,0-0.5c0-0.4,0-0.8,0-1.2c0-0.2,0-0.4,0-0.5c0-0.4,0-0.8,0-1.2c0-0.2,0-0.4,0-0.6
				c0-0.4,0-0.7,0.1-1.1c0-0.3,0.1-0.5,0.1-0.8c0-0.3,0.1-0.5,0.1-0.8c0,0,0,0,0-0.1c0.1-0.3,0.1-0.7,0.2-1c0-0.1,0-0.1,0-0.2
				c0.1-0.3,0.2-0.6,0.2-0.9c0-0.1,0-0.1,0-0.2c0.1-0.3,0.2-0.6,0.3-0.8c0,0,0-0.1,0-0.1c0.1-0.3,0.2-0.5,0.4-0.8c0,0,0,0,0,0
				c0.4-0.7,0.9-1.3,1.4-1.7c0,0,0,0,0,0c0.3-0.2,0.7-0.4,1.1-0.5c0.7-0.1,1.4,0,2.1,0.4c-1.4-1.7-2.9-2.6-4.3-2.3
				c-0.4,0.1-0.8,0.2-1.1,0.5c0,0,0,0,0,0c-0.5,0.4-1,0.9-1.4,1.7c0,0,0,0,0,0c-0.1,0.2-0.2,0.5-0.4,0.8c0,0,0,0.1,0,0.1
				c-0.1,0.3-0.2,0.5-0.3,0.8c0,0.1,0,0.1,0,0.2c-0.1,0.3-0.2,0.6-0.2,0.9c0,0.1,0,0.1,0,0.2c-0.1,0.3-0.1,0.7-0.2,1c0,0,0,0,0,0.1
				c0,0.2-0.1,0.5-0.1,0.8c0,0.3-0.1,0.5-0.1,0.8c0,0.3-0.1,0.7-0.1,1.1c0,0.2,0,0.4,0,0.6c0,0.4,0,0.8,0,1.2c0,0.2,0,0.4,0,0.5
				c0,0.4,0,0.8,0,1.2c0,0.2,0,0.3,0,0.5l0,0c0,0.1,0,0.2,0,0.4c0,0.1,0,0.2,0,0.4c0,0.1,0,0.2,0,0.4c0.1,1.6,0.3,3.2,0.6,4.9
				c0,0,0,0,0,0.1c0,0.2,0.1,0.4,0.1,0.6c0.3,1.5,0.6,2.9,1,4.2c0,0.1,0.1,0.2,0.1,0.4c0,0.1,0.1,0.2,0.1,0.3c0,0.1,0.1,0.2,0.1,0.3
				l0,0c0.6,1.7,1.2,3.3,1.9,4.7c0,0,0,0,0,0c0.2,0.4,0.4,0.9,0.7,1.2c0,0.1,0.1,0.1,0.1,0.2c0,0.1,0.1,0.1,0.1,0.2
				c0,0.1,0.1,0.1,0.1,0.2c1.1,1.8,2.2,3,3.4,3.6C48.2,66.8,47.8,66.2,47.4,65.5z"/>
			<path fill="#4381A9" d="M43.8,44.9L43.8,44.9l-2.9,0.2l-0.4,0l-0.4,0l-11.3,0.8c0.6,0.3,1.3,0.8,1.8,1.6c1,1.3,1.8,3.2,2.2,5.2
				c0.6,3.3,0,6.3-1.3,7.7l10.8-3.3l0.4-0.1l0.4-0.1l2.8-0.9l0,0c1.5-0.4,2.3-3.1,1.8-6.1C47.1,47,45.4,44.8,43.8,44.9z"/>
			<path fill="#2B688F" d="M45.6,54.8L45.6,54.8l-2.8,0.9l-0.4,0.1l-0.4,0.1l-9.5,2.9c-0.3,0.7-0.6,1.2-1,1.7l10.8-3.3l0.4-0.1
				l0.4-0.1l2.8-0.9l0,0c1.5-0.4,2.3-3.1,1.8-6.1c-0.1-0.4-0.2-0.8-0.3-1.2C47.9,51.7,47.1,54.4,45.6,54.8z"/>
			<path fill="#D4E1E4" d="M30.7,47.5c-0.6-0.7-1.2-1.3-1.8-1.6c-0.6-0.3-1.1-0.3-1.7-0.2c-2.4,0.4-3.6,4.2-2.8,8.6
				c0.8,4.4,3.3,7.4,5.7,7c0.2,0,0.3-0.1,0.5-0.1c0.4-0.1,0.7-0.4,1-0.7c1.4-1.4,2-4.4,1.3-7.7C32.6,50.6,31.8,48.8,30.7,47.5z"/>
			<g>
				<path fill="#F0F5F6" d="M25.3,55.3c-0.8-4.4,0.4-8.1,2.8-8.6c0.2,0,0.4,0,0.6,0c-0.3-0.1-0.5-0.3-0.8-0.3c0.3,0,0.5,0.2,0.8,0.3
					c0.4,0,0.7,0.1,1.1,0.3c0.3,0.1,0.6,0.3,0.9,0.6c0,0,0,0,0-0.1c-0.6-0.7-1.2-1.3-1.8-1.6c-0.6-0.3-1.1-0.3-1.7-0.2
					c-2.4,0.4-3.6,4.2-2.8,8.6c0.5,2.8,1.7,5.1,3.2,6.2C26.5,59.1,25.7,57.4,25.3,55.3z"/>
			</g>
			<path fill="#66A3CB" d="M41,46.3l0.4,0l0.4,0l2.9-0.2l0,0c0.6-0.1,1.3,0.2,1.9,0.8c-0.8-1.3-1.8-2-2.7-1.9l0,0l-2.9,0.2l-0.4,0
				l-0.4,0l-11.3,0.8c0.5,0.2,1,0.6,1.4,1.1L41,46.3z"/>
		</g>
	</g>
	<g id="武器2">
		<g display="inline">
			<path fill="#8C6239" d="M22.5,36.6c0,0,32.1,11.8,32.1,11.8l1.8-4.9l-32-11.7"/>
			<path fill="#8C6239" d="M53.2,64.6l10.8,4c4.3-2.2,8.7-7.6,11.3-14.7c2.6-7.1,2.7-14,0.9-18.5l0,0c-0.1-1-2.2-2.5-4.9-3.5
				c-2.7-1-5.2-1.2-5.9-0.5l0,0c-4.3,2.2-8.7,7.6-11.3,14.7C51.5,53.2,51.3,60.1,53.2,64.6"/>
			<path fill="#AA8561" d="M53.2,64.6l2.8,1c-1.1-4.4-0.7-10.4,1.5-16.4c2.6-7.1,6.9-12.5,11.3-14.7l0,0c0.8-0.7,3.2-0.5,5.9,0.5
				c0.5,0.2,1,0.4,1.4,0.6c0-0.1-0.1-0.1-0.1-0.2l0,0c-0.1-1-2.2-2.5-4.9-3.5c-2.7-1-5.2-1.2-5.9-0.5l0,0C61,33.7,56.6,39.1,54,46.1
				S51.3,60.1,53.2,64.6"/>
			<g>
				<path fill="#C7B299" d="M61.9,37.3c-0.1-0.1-0.1-0.3,0-0.4c1.2-2.3,4-4,4.1-4.1c0.2-0.1,0.4,0,0.5,0.1c0.1,0.2,0,0.4-0.1,0.5
					c0,0-2.7,1.7-3.8,3.8c-0.1,0.2-0.3,0.3-0.5,0.2C61.9,37.4,61.9,37.3,61.9,37.3z"/>
			</g>
			<g>
				<path fill="#C7B299" d="M60.7,39.6c-0.1-0.1-0.1-0.3,0-0.4l0.6-1c0.1-0.2,0.3-0.2,0.5-0.1c0.2,0.1,0.2,0.3,0.1,0.5l-0.6,1
					C61.2,39.7,61,39.7,60.7,39.6C60.7,39.6,60.7,39.6,60.7,39.6z"/>
			</g>
			<path fill="#B18451" d="M53.3,64.4c0.3-1,3.1-1,6.2,0.1c3.1,1,5.3,2.7,4.9,3.7c-0.3,1-3.1,1-6.2-0.1
				C55.1,67.1,52.9,65.5,53.3,64.4"/>
		</g>
	</g>
</g>
<g id="脸">
	<g id="脸1" display="none">
		<polygon display="inline" fill="#C69C6D" points="3.9,10.8 96.1,10.8 53.6,89.1 		"/>
		<polygon display="inline" fill="#B18451" points="53.6,85.6 46.4,77.8 53.6,89.2 83.1,34.9 		"/>
		<polygon display="inline" fill="#DCB890" points="8.7,13.7 83.2,11 3.9,11 41.9,70.8 		"/>
	</g>
	<g id="脸2_1_">
		<polygon fill="#B18451" points="77.2,83.7 18.1,87.7 82,89.2 77.3,10.9 		"/>
		<polygon fill="#DCB890" points="24.4,14.5 78.4,10.8 21.4,10.8 18,89.2 		"/>
		<polygon fill="#C69C6D" points="24.4,14.5 77.3,10.9 77.2,83.7 18.1,87.7 		"/>
	</g>
</g>
<g id="鼻子_x2B_嘴窝" display="none">
	<g display="inline">
		<path fill="#F9F3F3" d="M63.3,57c0,7.4-6,10.3-13.4,10.3S36.6,64.4,36.6,57s6-16.4,13.4-16.4S63.3,49.7,63.3,57z"/>
		<path fill="#FFFFFF" d="M37.3,58.1c0-7.4,6-16.4,13.4-16.4c4.2,0,8,3,10.4,6.9c-2.4-4.5-6.5-8.1-11.1-8.1
			c-7.4,0-13.4,9.1-13.4,16.4c0,2.3,0.6,4.2,1.6,5.7C37.6,61.4,37.3,59.9,37.3,58.1z"/>
		<path fill="#E6E6E6" d="M59.3,45.9c1.8,2.9,2.9,6.4,2.9,9.5c0,7.4-6,10.3-13.4,10.3c-4.6,0-8.7-1.1-11.1-3.8
			c2.1,3.8,6.8,5.4,12.2,5.4c7.4,0,13.4-2.9,13.4-10.3C63.4,53.3,61.8,49.1,59.3,45.9z"/>
		<path fill="#8C6239" stroke="#8C6239" stroke-width="4" stroke-miterlimit="10" d="M43.6,38.7c0-2.9,2.8-4.1,6.3-4.1
			c3.5,0,6.3,1.1,6.3,4.1s-2.8,6.5-6.3,6.5C46.4,45.2,43.6,41.6,43.6,38.7z"/>
		<path fill="#744D28" d="M55.8,34.1c1.2,1,1.8,2.4,1.8,4.1c0,3.9-3.6,8.5-8.3,8.5c-1.6,0-3.1-0.5-4.3-1.4c1.4,1.1,3.1,1.9,5,1.9
			c4.7,0,8.3-4.6,8.3-8.5C58.3,36.7,57.4,35.1,55.8,34.1z"/>
		<path fill="#AA8561" d="M43.1,39.4c0-3.8,3.1-6.1,8.3-6.1c1.5,0,2.8,0.2,3.9,0.5c-1.4-0.8-3.2-1.2-5.5-1.2c-5.2,0-8.3,2.3-8.3,6.1
			c0,3.3,2.6,7.1,6.3,8.2C45,45.3,43.1,42.2,43.1,39.4z"/>
	</g>
</g>
<g id="害羞脸" display="none">
	<g display="inline">
		<path fill="#BC4444" d="M-79.7-156c-0.3,0.2-0.6,0.3-0.8,0.2c-2.1-1.3,1.1-7.3,1.2-7.5c0.2-0.3,0.6-0.7,0.9-0.6
			C-73.6-163-81.1-158-79.7-156z"/>
	</g>
	<g display="inline">
		<path fill="#BC4444" d="M-74.8-162.5c0.2-0.1,0.4-0.2,0.6-0.1c1.4,1,0.6,3.9-0.2,4.8c-0.6,0.7-1.4,0.8-1.6,0.8
			C-79.3-157.9-73.9-161-74.8-162.5z"/>
	</g>
	<g display="inline">
		<path fill="#BC4444" d="M-71.8-157.1c-0.1,0.1-0.2-0.3-0.3-0.5c-0.4-1-0.1-2.2,0.4-2.7c0.4-0.5,0.9-0.5,1-0.5
			C-68.6-160.4-72.4-158.1-71.8-157.1z"/>
	</g>
</g>
<g id="闪光眼" display="none">
	<g display="inline">
		<polygon fill="#F6F3F0" points="50,58 48.2,51.8 43,50 48.2,48.2 50,42 51.8,48.2 57,50 51.8,51.8 		"/>
	</g>
</g>
<g id="耳朵" display="none">
	<g id="耳朵9">
		<polygon display="inline" fill="#C69C6D" points="30.8,-226.7 62.2,-218.8 24.1,-200.1 		"/>
		<polygon display="inline" fill="#B18451" points="24.5,-201.9 24.1,-200.1 62.1,-218.8 61.9,-218.9 		"/>
		<polygon display="inline" fill="#DCB890" points="32.8,-223.4 53.8,-221 30.8,-226.8 24.7,-202.2 		"/>
		<polygon display="inline" fill="#C69C6D" points="-34.2,-226.6 -65.4,-217.9 -26.9,-200.2 		"/>
		<polygon display="inline" fill="#B18451" points="-29.6,-202.2 -35,-203.9 -26.9,-200.2 -34.2,-226.6 -35.1,-226.4 		"/>
		<polygon display="inline" fill="#DCB890" points="-57.4,-217.3 -38.5,-225.4 -65.4,-217.9 -32,-202.6 		"/>
	</g>
	<g id="耳朵8">
		<polygon display="inline" fill="#C69C6D" points="6.7,-216.5 33.1,-232.6 20.3,-194.2 		"/>
		<polygon display="inline" fill="#B18451" points="19.1,-196.2 20.3,-194.3 32,-229.3 		"/>
		<polygon display="inline" fill="#DCB890" points="9.6,-215.8 27.7,-229.2 6.7,-216.5 18.9,-196.4 		"/>
		<polygon display="inline" fill="#C69C6D" points="-14,-213.7 -37.6,-233.6 -30.8,-193.7 		"/>
		<polygon display="inline" fill="#B18451" points="-30,-227.2 -15.5,-214.1 -30.9,-194.1 -30.8,-193.7 -14,-213.7 		"/>
		<polygon display="inline" fill="#DCB890" points="-35.2,-230.4 -25.4,-223.4 -37.6,-233.7 -32.5,-203.4 		"/>
	</g>
	<g id="耳朵7">
		<polygon display="inline" fill="#C69C6D" points="25.1,-226.1 46.3,-218.7 16.2,-200.4 		"/>
		<polygon display="inline" fill="#B18451" points="17.1,-203.2 16.2,-200.4 46.3,-218.7 46.2,-218.7 		"/>
		<polygon display="inline" fill="#DCB890" points="26.5,-223.7 40,-220.9 25.2,-226.1 18,-205.4 		"/>
		<polygon display="inline" fill="#C69C6D" points="-28.4,-227.6 -49.4,-227.6 -28.4,-200.4 		"/>
		<polygon display="inline" fill="#B18451" points="-29.5,-203.1 -34.1,-207.8 -28.3,-200.4 -28.3,-222 		"/>
		<polygon display="inline" fill="#DCB890" points="-45.1,-225.5 -31.7,-227.6 -49.5,-227.6 -33.8,-207.5 		"/>
	</g>
	<g id="耳朵6">
		<polygon display="inline" fill="#C69C6D" points="-60.5,-227.9 -67.4,-196.3 -33.7,-222.1 		"/>
		<polygon display="inline" fill="#B18451" points="-66.5,-200.2 -67.4,-196.3 -33.7,-222.1 -33.9,-222.1 		"/>
		<polygon display="inline" fill="#DCB890" points="-57.8,-224.2 -39.7,-223.4 -60.5,-227.9 -66,-202.4 		"/>
		<polygon display="inline" fill="#C69C6D" points="51.9,-231.4 62.9,-201 26.1,-222 		"/>
		<polygon display="inline" fill="#B18451" points="54.9,-223.3 57.4,-207.7 33.6,-217.8 62.9,-201.1 		"/>
		<polygon display="inline" fill="#DCB890" points="53.2,-227.7 51.9,-231.4 26.1,-222 27,-221.5 		"/>
	</g>
	<g id="耳朵5">
		<polygon display="inline" fill="#C69C6D" points="23.8,-220.5 56.2,-220.5 23.8,-193.1 		"/>
		<polygon display="inline" fill="#B18451" points="50.5,-220.5 28.9,-197.4 56.1,-220.5 		"/>
		<polygon display="inline" fill="#DCB890" points="26.5,-219 40.9,-220.4 23.7,-220.4 23.7,-193 25.1,-194.2 		"/>
		<polygon display="inline" fill="#C69C6D" points="-59.2,-204.1 -46.7,-234 -33.9,-193.6 		"/>
		<polygon display="inline" fill="#B18451" points="-33.9,-193.6 -46.2,-232.3 -37.1,-196.4 -44.3,-197.9 		"/>
		<polygon display="inline" fill="#DCB890" points="-56.8,-204.7 -45,-228.9 -46.6,-233.9 -59.1,-204.1 -41.8,-196.8 		"/>
	</g>
	<g id="耳朵3">
		<polygon display="inline" fill="#C69C6D" points="-39.6,-225.8 -67.4,-209.2 -25.6,-202.3 		"/>
		<polygon display="inline" fill="#DCB890" points="-39.3,-224.4 -30.3,-210.2 -39.6,-225.8 -67.4,-209.3 -65.3,-208.9 		"/>
		<polygon display="inline" fill="#B18451" points="-33.4,-215.4 -26.8,-203.1 -66.8,-209.2 -25.6,-202.3 		"/>
		<polygon display="inline" fill="#C69C6D" points="34.6,-225.8 62.4,-209.3 20.6,-202.2 		"/>
		<polygon display="inline" fill="#B18451" points="46.5,-218.8 58.8,-210.1 30.7,-203.9 62.4,-209.4 		"/>
		<polygon display="inline" fill="#DCB890" points="35.2,-223.5 53,-214.9 34.6,-225.8 22,-204.4 		"/>
	</g>
	<g id="耳朵2">
		<polygon display="inline" fill="#C69C6D" points="27,-227.5 59.3,-227.5 27,-200.1 		"/>
		<polygon display="inline" fill="#C69C6D" points="-30,-227.5 -62.3,-227.5 -30,-200.1 		"/>
		<polygon display="inline" fill="#B18451" points="27,-202 27,-205.1 27,-200.1 52.5,-221.7 		"/>
		<polygon display="inline" fill="#DCB890" points="28.8,-225.7 50.6,-227.5 27,-227.5 27,-200.6 		"/>
		<polygon display="inline" fill="#B18451" points="-31.1,-201.5 -40.4,-208.9 -30,-200 -30,-223.5 		"/>
		<polygon display="inline" fill="#DCB890" points="-58.8,-226.4 -34.6,-227.5 -62.3,-227.5 -37.6,-206.5 		"/>
	</g>
	<g id="耳朵1">
		<polygon display="inline" fill="#C69C6D" points="67,-251.5 99.3,-251.5 67,-224.1 		"/>
		<polygon display="inline" fill="#B18451" points="67.1,-226 67,-229.1 67,-224.1 92.5,-245.7 		"/>
		<polygon display="inline" fill="#DCB890" points="68.8,-249.7 90.6,-251.5 67,-251.5 67,-224.6 		"/>
		<polygon display="inline" fill="#C69C6D" points="10,-251.5 -22.3,-251.5 10,-224.1 		"/>
		<polygon display="inline" fill="#B18451" points="8.9,-225.5 -0.4,-232.9 10,-224.1 10,-247.5 		"/>
		<polygon display="inline" fill="#DCB890" points="-18.8,-250.4 5.4,-251.5 -22.3,-251.5 2.4,-230.5 		"/>
	</g>
</g>
<g id="眼睛" display="none">
	<g id="眼睛1">
		<g display="inline">
			<path fill="#F6F3F0" d="M44,51.4C44,61.9,38,69,30.7,69s-13.4-7.1-13.4-17.6S23.3,31,30.7,31S44,40.9,44,51.4z"/>
			<path fill="#E6E6E6" d="M27.7,65.5c-3.1,0-6-1.3-8.3-3.6c2.4,3.5,6,5.6,9.9,5.6c7.4,0,13.4-7.1,13.4-17.6c0-0.4,0-0.8,0-1.2
				C41.6,58.1,34.5,65.5,27.7,65.5z"/>
			<path fill="#FFFFFF" d="M20,56c0-10.5,6-20.4,13.4-20.4c3.1,0,5.9,1.7,8.2,4.5c-2.4-5.4-6.4-9.2-11-9.2
				c-7.4,0-13.4,9.9-13.4,20.4c0,5.6,1.7,10.2,4.4,13.3C20.6,62.2,20,59.2,20,56z"/>
			<path fill="#8C6239" d="M30.7,71c-8.8,0-15.4-8.4-15.4-19.6c0-12.1,7-22.4,15.4-22.4S46,39.3,46,51.4C46,62.6,39.4,71,30.7,71z
				 M30.7,33c-5.9,0-11.4,8.8-11.4,18.4c0,9,4.8,15.6,11.4,15.6C37.2,67,42,60.4,42,51.4C42,41.8,36.6,33,30.7,33z"/>
			<g>
				<path fill="#AA8561" d="M15.8,52.5c0-12.1,7-22.4,15.4-22.4c5,0,9.6,3.7,12.4,9.4C40.8,33.2,36,29,30.7,29
					c-8.3,0-15.4,10.3-15.4,22.4c0,4.2,0.9,8,2.6,11.1C16.6,59.6,15.8,56.2,15.8,52.5z"/>
				<path fill="#AA8561" d="M31.2,68.1c6.6,0,11.4-6.6,11.4-15.6c0-4.1-1-7.9-2.5-11.1c1.3,2.9,2,6.4,2,10c0,9-4.8,15.6-11.4,15.6
					c-4,0-7.3-2.4-9.3-6.3C23.3,65.2,26.8,68.1,31.2,68.1z"/>
			</g>
			<g>
				<path fill="#744D28" d="M25.5,65.4c-3.7-2.5-6.2-7.6-6.2-14c0-9.6,5.4-18.4,11.4-18.4c1.1,0,2.2,0.3,3.2,0.8
					c-1.2-0.8-2.6-1.3-3.9-1.3c-5.9,0-11.4,8.8-11.4,18.4C18.6,57.8,21.3,63.2,25.5,65.4z"/>
				<path fill="#744D28" d="M36,30.5C41.4,34,45.3,42,45.3,51c0,11.2-6.6,19.6-15.4,19.6c-2.5,0-4.7-0.7-6.8-1.9
					c2.2,1.5,4.7,2.3,7.5,2.3C39.4,71,46,62.6,46,51.4C46,42,41.8,33.8,36,30.5z"/>
			</g>
			<path fill="#F6F3F0" d="M82.7,51.4c0,10.5-6,17.6-13.4,17.6C62,69,56,61.9,56,51.4S62,31,69.3,31C76.7,31,82.7,40.9,82.7,51.4z"
				/>
			<circle cx="33.5" cy="59.2" r="4.9"/>
			<circle cx="67.9" cy="59.2" r="4.9"/>
			<path fill="#FFFFFF" d="M58.8,55.9c0-10.5,6-20.4,13.4-20.4c3.1,0,5.9,1.7,8.2,4.5c-2.4-5.4-6.4-9.2-11-9.2
				c-7.4,0-13.4,9.9-13.4,20.4c0,5.6,1.7,10.2,4.4,13.3C59.4,62,58.8,59.1,58.8,55.9z"/>
			<path fill="#E6E6E6" d="M66.7,65.8c-3.1,0-6-1.3-8.3-3.6c2.4,3.5,6,5.6,9.9,5.6c7.4,0,13.4-7.1,13.4-17.6c0-0.4,0-0.8,0-1.2
				C80.6,58.4,73.5,65.8,66.7,65.8z"/>
			<path fill="#333333" d="M69.3,71C60.6,71,54,62.6,54,51.4C54,39.3,61,29,69.3,29s15.4,10.3,15.4,22.4C84.7,62.6,78.1,71,69.3,71z
				 M69.3,33C63.4,33,58,41.8,58,51.4c0,9,4.8,15.6,11.4,15.6c6.6,0,11.4-6.6,11.4-15.6C80.7,41.8,75.3,33,69.3,33z"/>
			<ellipse fill="#FFFFFF" cx="35.8" cy="57.3" rx="2.3" ry="2.9"/>
			<ellipse fill="#FFFFFF" cx="69.5" cy="57.1" rx="2.3" ry="2.9"/>
			<g>
				<path d="M64.1,65.4c-3.7-2.5-6.2-7.6-6.2-14c0-9.6,5.4-18.4,11.4-18.4c1.1,0,2.2,0.3,3.2,0.8c-1.2-0.8-2.6-1.3-3.9-1.3
					c-5.9,0-11.4,8.8-11.4,18.4C57.2,57.8,59.9,63.2,64.1,65.4z"/>
				<path d="M74.7,30.5C80.1,34,83.9,42,83.9,51c0,11.2-6.6,19.6-15.4,19.6c-2.5,0-4.7-0.7-6.8-1.9c2.2,1.5,4.7,2.3,7.5,2.3
					c8.8,0,15.4-8.4,15.4-19.6C84.7,42,80.4,33.8,74.7,30.5z"/>
			</g>
			<g>
				<path fill="#535353" d="M54.5,52.5c0-12.1,7-22.4,15.4-22.4c5,0,9.6,3.7,12.4,9.4C79.5,33.2,74.7,29,69.3,29
					C61,29,54,39.2,54,51.4c0,4.2,0.9,8,2.6,11.1C55.2,59.6,54.5,56.2,54.5,52.5z"/>
				<path fill="#535353" d="M69.8,68c6.6,0,11.4-6.6,11.4-15.6c0-4.1-1-7.9-2.5-11.1c1.3,2.9,2,6.4,2,10c0,9-4.8,15.6-11.4,15.6
					c-4,0-7.3-2.4-9.3-6.3C62,65.2,65.5,68,69.8,68z"/>
			</g>
		</g>
	</g>
	<g id="眼睛2">
		<path display="inline" fill="#F6F3F0" d="M-123.1-266.9c9.1,0,12.5-7.4,12.5-16.5h-33C-143.6-274.3-132.3-266.9-123.1-266.9z"/>
		<path display="inline" fill="#E6E6E6" d="M-113.3-284.2c-0.2,8.6-3.7,15.5-12.5,15.5c-4.1,0-8.6-1.5-12.4-4c4,3.1,9.2,5,13.8,5
			c9.1,0,12.5-7.4,12.5-16.5H-113.3z"/>
		<path display="inline" fill="#FFFFFF" d="M-139.1-280.2h28.5c0.1-0.8,0.1-1.6,0.1-2.4h-33c0,6.4,5.6,11.9,12.1,14.7
			C-135.8-270.9-139.1-275.3-139.1-280.2z"/>
		<path display="inline" fill="#8C6239" d="M-123.1-264.9c-10.2,0-22.5-8.3-22.5-18.5v-2h37v2C-108.6-271.6-113.9-264.9-123.1-264.9
			z M-141.4-281.4c1.5,6.9,10.7,12.5,18.3,12.5c7.8,0,10.1-6.4,10.4-12.5H-141.4z"/>
		<g display="inline">
			<path fill="#744D28" d="M-139.1-276.7c-1.1-1.4-1.9-3-2.3-4.7h28c0-0.3,0-0.5,0.1-0.8H-142C-141.6-280.1-140.5-278.3-139.1-276.7
				z"/>
			<path fill="#744D28" d="M-109.2-285.3v1.3c0,11.8-5.3,18.5-14.5,18.5c-6.5,0-13.9-3.4-18.4-8.5c4.4,5.5,12.2,9.2,19,9.2
				c9.2,0,14.5-6.7,14.5-18.5v-2H-109.2z"/>
		</g>
		<path display="inline" fill="#AA8561" d="M-145-282.6v-2h36.3v-0.8h-37v2c0,3.9,1.8,7.5,4.6,10.5
			C-143.5-275.7-145-279.1-145-282.6z"/>
		<path display="inline" fill="#AA8561" d="M-122.5-268.1c7.8,0,10-7,10.4-13.1l-0.6-0.2c-0.5,5.9-3,12.5-10.5,12.5
			c-5.2,0-11.1-2.6-14.8-6.5C-134.3-271.1-128-268.1-122.5-268.1z"/>
		<path display="inline" fill="#F6F3F0" d="M-81.1-266.9c-9.1,0-12.5-7.4-12.5-16.5h33C-60.6-274.3-72-266.9-81.1-266.9z"/>
		<path display="inline" fill="#E6E6E6" d="M-63.1-283.6c-1.2,8.4-11.8,15-20.4,15c-3.2,0-5.6-0.9-7.5-2.5c2,2.5,4.9,4,9,4
			c9.1,0,20.5-7.4,20.5-16.5H-63.1z"/>
		<path display="inline" fill="#FFFFFF" d="M-90.4-280.3h30.6c0.1-0.7,0.2-1.3,0.2-2h-33c0,6.4,1.7,11.9,5.8,14.7
			C-89.4-270.7-90.4-275.2-90.4-280.3z"/>
		<path display="inline" fill="#333333" d="M-81.1-264.9c-9.2,0-14.5-6.7-14.5-18.5v-2h37v2C-58.6-273.1-71-264.9-81.1-264.9z
			 M-91.6-281.4c0.4,6.1,2.6,12.5,10.4,12.5c7.6,0,16.8-5.6,18.3-12.5H-91.6z"/>
		<g display="inline">
			<path d="M-88-271.4c-2.4-2.4-3.3-6.2-3.5-9.9h28.3c0-0.1,0.1-0.2,0.1-0.3h-28.7C-91.7-277.8-90.7-273.8-88-271.4z"/>
			<path d="M-59-285.3v1.7c0,10.2-12.3,18.5-22.5,18.5c-3.9,0-7.1-1.2-9.5-3.6c2.4,2.5,5.8,3.9,9.9,3.9c10.2,0,22.5-8.3,22.5-18.5
				v-2H-59z"/>
		</g>
		<path display="inline" fill="#535353" d="M-95-282.6v-2h36.3v-0.8h-37v2c0,6.6,1.7,11.7,4.8,14.8C-93.5-271.7-95-276.5-95-282.6z"
			/>
		<path display="inline" fill="#535353" d="M-80.5-268.1c7.6,0,16.7-5.9,18.2-12.8l-0.6-0.4c-2,6.6-11,12.5-18.3,12.5
			c-3.1,0-5.3-1-6.9-2.6C-86.4-269.5-84-268.1-80.5-268.1z"/>
	</g>
	<g id="眼睛3">
		<g display="inline">
			<path fill="#8C6239" d="M-125.8-259.3c-3.4,0-6.2-1.4-7.8-3.4c-2.5-2.9-3.5-8.2,1.2-14.3c2.6-3.3,5.3-4.8,7.9-4.2
				c4.7,1,6.7,8,7,8.8c0.3,1.1-0.4,2.2-1.4,2.4c-1.1,0.3-2.2-0.3-2.4-1.4c-0.6-2.2-2.2-5.6-3.9-5.9c-1-0.2-2.4,0.8-3.9,2.8
				c-2.7,3.5-3.2,7-1.3,9.2c1.7,2,5.6,2.9,10.1,0.5c5.4-2.9,8-9.4,8.1-14.5c0.1-3.4-0.9-6.1-2.5-7.1c-3.1-1.9-7.6-2.4-11.6-1.4
				c-2.6,0.7-6.2,2.3-8.6,6.5c-0.6,1-1.8,1.3-2.7,0.7c-1-0.6-1.3-1.8-0.7-2.7c2.5-4.2,6.3-7.1,11.1-8.4c5-1.3,10.6-0.6,14.7,1.9
				c2.9,1.8,4.6,5.7,4.4,10.6c-0.2,6.3-3.4,14.2-10.2,17.9C-121.1-259.9-123.6-259.3-125.8-259.3z"/>
		</g>
		<g display="inline">
			<path fill="#744D28" d="M-117.9-273.5c0.1,0.3,0.2,0.6,0.2,0.7c0.3,1.1-0.4,2.2-1.4,2.4c-1,0.3-2-0.3-2.4-1.2
				c0,0.1,0.1,0.2,0.1,0.3c0.3,1.1,1.4,1.7,2.4,1.4c1.1-0.3,1.7-1.4,1.4-2.4C-117.6-272.5-117.7-272.9-117.9-273.5z"/>
			<path fill="#744D28" d="M-129.2-274.5c1.5-2,3-3,3.9-2.8c1.4,0.3,2.8,2.9,3.6,5c-0.7-2.2-2.2-5.2-3.8-5.5c-1-0.2-2.4,0.8-3.9,2.8
				c-2.2,2.8-2.9,5.6-2.2,7.7C-132-269.3-131.2-271.9-129.2-274.5z"/>
			<path fill="#744D28" d="M-135.1-281.4c2.4-4.2,6-5.8,8.6-6.5c4-1,8.5-0.4,11.6,1.4c0.8,0.5,1.4,1.4,1.8,2.5c-0.4-1.4-1.1-2.5-2-3
				c-3.1-1.9-7.6-2.4-11.6-1.4c-2.6,0.7-6.2,2.3-8.6,6.5c-0.6,1-1.8,1.3-2.7,0.7c-0.4-0.2-0.6-0.5-0.8-0.8c0.1,0.5,0.4,1,1,1.3
				C-136.9-280.1-135.6-280.4-135.1-281.4z"/>
			<path fill="#744D28" d="M-109.1-284.7c0.4,1.5,0.6,3.2,0.6,5c-0.2,6.3-3.4,14.2-10.2,17.9c-2.6,1.4-5,2-7.2,2
				c-3.4,0-6.2-1.4-7.8-3.4c-0.6-0.7-1.1-1.6-1.5-2.5c0.4,1.2,0.9,2.2,1.7,3c1.7,2,4.5,3.4,7.8,3.4c2.2,0,4.7-0.6,7.2-2
				c6.8-3.7,10-11.7,10.2-17.9C-108.3-281.3-108.5-283.1-109.1-284.7z"/>
		</g>
		<g display="inline">
			<path fill="#AA8561" d="M-123.8-276.1c1,1.3,1.9,3.3,2.3,4.8c0.1,0.5,0.5,1,1,1.2c-0.1-0.1-0.2-0.3-0.2-0.5
				C-121.2-272.4-122.5-275.1-123.8-276.1z"/>
			<path fill="#AA8561" d="M-119.8-264.1c5.4-2.9,8-9.4,8.1-14.5c0.1-3.2-0.8-5.8-2.3-6.9c1,1.3,1.6,3.5,1.5,6.2
				c-0.1,5.1-2.7,11.6-8.1,14.5c-4,2.2-7.5,1.7-9.4,0.2c0,0,0,0.1,0.1,0.1C-128.2-262.6-124.3-261.6-119.8-264.1z"/>
			<path fill="#AA8561" d="M-137.9-282.6c2.5-4.2,6.3-7.1,11.1-8.4c5-1.3,10.6-0.6,14.7,1.9c0.3,0.2,0.6,0.4,0.9,0.7
				c-0.5-0.6-1.1-1.1-1.7-1.4c-4-2.4-9.6-3.2-14.7-1.9c-4.8,1.2-8.7,4.1-11.1,8.4c-0.6,1-0.2,2.2,0.7,2.7c0,0,0,0,0,0
				C-138.2-281.3-138.3-282-137.9-282.6z"/>
			<path fill="#AA8561" d="M-132.9-261.9c-2.5-2.9-3.5-8.2,1.2-14.3c2.6-3.3,5.3-4.8,7.9-4.2c1.1,0.2,2.1,0.8,2.9,1.5
				c-1-1.1-2.2-2-3.6-2.3c-2.6-0.5-5.3,0.9-7.9,4.2c-4.7,6-3.7,11.3-1.2,14.3c0.3,0.3,0.5,0.6,0.8,0.9
				C-132.9-261.9-132.9-261.9-132.9-261.9z"/>
		</g>
		<path display="inline" fill="none" stroke="#333333" stroke-width="4" stroke-linecap="round" stroke-miterlimit="10" d="
			M-77.5-271.8c0,0-3.7-13.8-11.3-3.9c-7.7,9.9,1.3,18.1,11.3,12.7c10-5.4,11.7-21.4,5.7-25.1c-6-3.7-17.7-3.5-23,5.8"/>
		<g display="inline">
			<path d="M-75.8-273.5c0.1,0.3,0.2,0.6,0.2,0.7c0.3,1.1-0.4,2.2-1.4,2.4c-1,0.3-2-0.3-2.4-1.2c0,0.1,0.1,0.2,0.1,0.3
				c0.3,1.1,1.4,1.7,2.4,1.4c1.1-0.3,1.7-1.4,1.4-2.4C-75.5-272.5-75.6-272.9-75.8-273.5z"/>
			<path d="M-87.1-274.4c1.5-2,3-3,3.9-2.8c1.4,0.3,2.8,2.9,3.6,5c-0.7-2.2-2.2-5.2-3.8-5.5c-1-0.2-2.4,0.8-3.9,2.8
				c-2.2,2.8-2.9,5.6-2.2,7.7C-89.9-269.3-89.1-271.8-87.1-274.4z"/>
			<path d="M-93-281.3c2.4-4.2,6-5.8,8.6-6.5c4-1,8.5-0.4,11.6,1.4c0.8,0.5,1.4,1.4,1.8,2.5c-0.4-1.4-1.1-2.5-2-3
				c-3.1-1.9-7.6-2.4-11.6-1.4c-2.6,0.7-6.2,2.3-8.6,6.5c-0.6,1-1.8,1.3-2.7,0.7c-0.4-0.2-0.6-0.5-0.8-0.8c0.1,0.5,0.4,1,1,1.3
				C-94.7-280.1-93.5-280.4-93-281.3z"/>
			<path d="M-66.9-284.7c0.4,1.5,0.6,3.2,0.6,5c-0.2,6.3-3.4,14.2-10.2,17.9c-2.6,1.4-5,2-7.2,2c-3.4,0-6.2-1.4-7.8-3.4
				c-0.6-0.7-1.1-1.6-1.5-2.5c0.4,1.2,0.9,2.2,1.7,3c1.7,2,4.5,3.4,7.8,3.4c2.2,0,4.7-0.6,7.2-2c6.8-3.7,10-11.7,10.2-17.9
				C-66.2-281.3-66.4-283.1-66.9-284.7z"/>
		</g>
		<g display="inline">
			<path fill="#535353" d="M-81.7-276.1c1,1.3,1.9,3.3,2.3,4.8c0.1,0.5,0.5,1,1,1.2c-0.1-0.1-0.2-0.3-0.2-0.5
				C-79.1-272.4-80.3-275-81.7-276.1z"/>
			<path fill="#535353" d="M-77.7-264c5.4-2.9,8-9.4,8.1-14.5c0.1-3.2-0.8-5.8-2.3-6.9c1,1.3,1.6,3.5,1.5,6.2
				c-0.1,5.1-2.7,11.6-8.1,14.5c-4,2.2-7.5,1.7-9.4,0.2c0,0,0,0.1,0.1,0.1C-86.1-262.5-82.2-261.5-77.7-264z"/>
			<path fill="#535353" d="M-95.8-282.6c2.5-4.2,6.3-7.1,11.1-8.4c5-1.3,10.6-0.6,14.7,1.9c0.3,0.2,0.6,0.4,0.9,0.7
				c-0.5-0.6-1.1-1.1-1.7-1.4c-4-2.4-9.6-3.2-14.7-1.9c-4.8,1.2-8.7,4.1-11.1,8.4c-0.6,1-0.2,2.2,0.7,2.7c0,0,0,0,0,0
				C-96.1-281.2-96.1-282-95.8-282.6z"/>
			<path fill="#535353" d="M-90.8-261.9c-2.5-2.9-3.5-8.2,1.2-14.3c2.6-3.3,5.3-4.8,7.9-4.2c1.1,0.2,2.1,0.8,2.9,1.5
				c-1-1.1-2.2-2-3.6-2.3c-2.6-0.5-5.3,0.9-7.9,4.2c-4.7,6-3.7,11.3-1.2,14.3c0.3,0.3,0.5,0.6,0.8,0.9
				C-90.8-261.8-90.8-261.9-90.8-261.9z"/>
		</g>
	</g>
	<g id="眼睛4">
		<path display="inline" fill="#F6F3F0" d="M164.4-273.5c0,10.5-6,17.6-13.4,17.6c-7.4,0-13.4-7.1-13.4-17.6
			c0-10.5,6-20.4,13.4-20.4C158.4-293.9,164.4-284,164.4-273.5z"/>
		<path display="inline" fill="#E6E6E6" d="M158.8-287.4c1.5,3.3,2.4,7.3,2.4,11.3c0,10.5-6,17.6-13.4,17.6c-4.2,0-7.9-2.2-10.3-6.1
			c2.3,5.3,6.6,8.5,11.6,8.5c7.4,0,13.4-7.1,13.4-17.6C162.5-278.7,161.1-283.6,158.8-287.4z"/>
		<path display="inline" fill="#FFFFFF" d="M139.8-268.8c0-10.5,6-20.4,13.4-20.4c3.5,0,6.7,2.3,9.1,5.8c-2.4-5.4-6.4-9.1-11-9.1
			c-7.4,0-13.4,9.9-13.4,20.4c0,4.9,1.3,9.1,3.5,12.2C140.4-262.6,139.8-265.5,139.8-268.8z"/>
		<path display="inline" fill="#8C6239" d="M151-253.9c-8.8,0-15.4-8.4-15.4-19.6c0-12.1,7-22.4,15.4-22.4s15.4,10.3,15.4,22.4
			C166.4-262.3,159.8-253.9,151-253.9z M151-291.9c-5.9,0-11.4,8.8-11.4,18.4c0,9,4.8,15.6,11.4,15.6s11.4-6.6,11.4-15.6
			C162.4-283.1,157-291.9,151-291.9z"/>
		<g display="inline">
			<path fill="#744D28" d="M139.6-273.6c0-9.6,5.4-18.4,11.4-18.4c3.9,0,7.6,3.8,9.7,9.2c-1.9-6-5.9-10.3-10.1-10.3
				c-5.9,0-11.4,8.8-11.4,18.4c0,2.9,0.5,5.6,1.4,7.9C139.9-268.9,139.6-271.2,139.6-273.6z"/>
			<path fill="#744D28" d="M164.4-284.3c1,2.9,1.5,6.1,1.5,9.5c0,11.2-6.6,19.6-15.4,19.6c-6.2,0-11.4-4.3-13.8-10.8
				c2.2,7.1,7.6,11.9,14.2,11.9c8.8,0,15.4-8.4,15.4-19.6C166.3-277.5,165.6-281.1,164.4-284.3z"/>
		</g>
		<g display="inline">
			<path fill="#AA8561" d="M151.8-256.9c6.6,0,11.4-6.6,11.4-15.6c0-6.3-2.3-12.1-5.5-15.5c2.8,3.5,4.7,8.8,4.7,14.5
				c0,9-4.8,15.6-11.4,15.6c-2.7,0-5.1-1.1-7-3.1C146-258.4,148.7-256.9,151.8-256.9z"/>
			<path fill="#AA8561" d="M136.5-272.5c0-12.1,7-22.4,15.4-22.4c3.3,0,6.4,1.6,8.9,4.3c-2.7-3.3-6.1-5.3-9.8-5.3
				c-8.3,0-15.4,10.3-15.4,22.4c0,6.3,2.1,11.7,5.5,15.3C138.2-261.7,136.5-266.7,136.5-272.5z"/>
		</g>
		<path display="inline" d="M142.1-268.3c-2.3,3.9-2.8,8.3-1.8,12.4c-2.2-4.1-2.4-9.2,0.1-13.3c2.4-4.1,6.8-6.3,11.4-6.4
			C147.9-274.6,144.4-272,142.1-268.3z"/>
		<path display="inline" fill="#F6F3F0" d="M203.1-273.5c0,10.5-6,17.6-13.4,17.6s-13.4-7.1-13.4-17.6c0-10.5,6-20.4,13.4-20.4
			S203.1-284,203.1-273.5z"/>
		<path display="inline" fill="#E6E6E6" d="M198.1-288.1c1.5,3.3,2.4,7.3,2.4,11.3c0,10.5-6,17.6-13.4,17.6c-4.2,0-7.9-2.2-10.3-6.1
			c2.3,5.3,6.6,8.5,11.6,8.5c7.4,0,13.4-7.1,13.4-17.6C201.8-279.5,200.4-284.4,198.1-288.1z"/>
		<path display="inline" fill="#FFFFFF" d="M179.1-269.6c0-10.5,6-20.4,13.4-20.4c3.5,0,6.7,2.3,9.1,5.8c-2.4-5.4-6.4-9.1-11-9.1
			c-7.4,0-13.4,9.9-13.4,20.4c0,4.9,1.3,9.1,3.5,12.2C179.7-263.3,179.1-266.3,179.1-269.6z"/>
		<path display="inline" fill="#333333" d="M189.7-253.9c-8.8,0-15.4-8.4-15.4-19.6c0-12.1,7-22.4,15.4-22.4s15.4,10.3,15.4,22.4
			C205.1-262.3,198.4-253.9,189.7-253.9z M189.7-291.9c-5.9,0-11.4,8.8-11.4,18.4c0,9,4.8,15.6,11.4,15.6s11.4-6.6,11.4-15.6
			C201.1-283.1,195.6-291.9,189.7-291.9z"/>
		<g display="inline">
			<path d="M178.3-273.6c0-9.6,5.4-18.4,11.4-18.4c3.9,0,7.6,3.8,9.7,9.2c-1.9-6-5.9-10.3-10.1-10.3c-5.9,0-11.4,8.8-11.4,18.4
				c0,2.9,0.5,5.6,1.4,7.9C178.7-268.9,178.3-271.2,178.3-273.6z"/>
			<path d="M203.1-284.3c1,2.9,1.5,6.1,1.5,9.5c0,11.2-6.6,19.6-15.4,19.6c-6.2,0-11.4-4.3-13.8-10.8c2.2,7.1,7.6,11.9,14.2,11.9
				c8.8,0,15.4-8.4,15.4-19.6C205-277.5,204.3-281.1,203.1-284.3z"/>
		</g>
		<g display="inline">
			<path fill="#535353" d="M190.6-256.9c6.6,0,11.4-6.6,11.4-15.6c0-6.3-2.3-12.1-5.5-15.5c2.8,3.5,4.7,8.8,4.7,14.5
				c0,9-4.8,15.6-11.4,15.6c-2.7,0-5.1-1.1-7-3.1C184.7-258.4,187.4-256.9,190.6-256.9z"/>
			<path fill="#535353" d="M175.2-272.5c0-12.1,7-22.4,15.4-22.4c3.3,0,6.4,1.6,8.9,4.3c-2.7-3.3-6.1-5.3-9.8-5.3
				c-8.3,0-15.4,10.3-15.4,22.4c0,6.3,2.1,11.7,5.5,15.3C177-261.7,175.2-266.7,175.2-272.5z"/>
		</g>
		<path display="inline" d="M197.8-268.5c3.1,3.3,4.6,7.5,4.5,11.7c1.3-4.5,0.3-9.5-3-13c-3.3-3.4-8-4.7-12.5-3.7
			C190.7-273.4,194.7-271.7,197.8-268.5z"/>
	</g>
	<g id="眼睛5">
		<path display="inline" fill="#F6F3F0" d="M-240.6-251.9c0,10-7.1,19.1-15.8,19.1c-8.8,0-15.8-7.2-15.8-17.3
			c0-10,7.1-19.1,15.8-19.1C-247.7-269.2-240.6-262-240.6-251.9z"/>
		<path display="inline" fill="#E6E6E6" d="M-244.2-263.2c1.1,2.3,1.7,5,1.7,7.9c0,10-7.1,19.1-15.8,19.1c-5,0-9.5-2.4-12.4-6.4
			c2.6,5.7,8,9.4,14.2,9.4c8.8,0,15.8-9,15.8-19.1C-240.7-256.5-242-260.3-244.2-263.2z"/>
		<g display="inline">
			<path fill="#29ABE2" d="M-255.9-238c-4.7,0-9.2-1-11.8-3.1c2.2,3.5,5.9,6.2,11.2,6.2c4.8,0,8.2-2.9,10.2-5.7
				C-248.9-239-252.2-238-255.9-238z"/>
		</g>
		<path display="inline" fill="#1498C6" d="M-250.5-238.7c-2.3,1.6-4.9,2.5-7.7,2.5c-2.3,0-4.5-0.5-6.4-1.4c2.1,1.7,4.9,2.8,8.3,2.8
			c4.8,0,8.2-2.9,10.2-5.7C-247.4-239.8-248.9-239.1-250.5-238.7z"/>
		<path display="inline" fill="#FFFFFF" d="M-270.3-244c0-10,7.1-19.1,15.8-19.1c5.6,0,10.4,2.9,13.3,7.6
			c-1.5-8.1-7.9-13.6-15.5-13.6c-8.8,0-15.8,9-15.8,19.1c0,3.7,1,7,2.6,9.7C-270.2-241.5-270.3-242.8-270.3-244z"/>
		<path display="inline" fill="#8C6239" d="M-256.5-230.8c-10,0-17.8-8.5-17.8-19.3c0-11.4,8.2-21.1,17.8-21.1
			c10,0,17.8,8.5,17.8,19.3C-238.6-240.5-246.8-230.8-256.5-230.8z M-256.5-267.2c-7.4,0-13.8,8-13.8,17.1c0,8.7,6,15.3,13.8,15.3
			c7.4,0,13.8-8,13.8-17.1C-242.6-260.6-248.6-267.2-256.5-267.2z"/>
		<g display="inline">
			<path fill="#744D28" d="M-264.7-237.6c-3.5-2.7-5.7-7.2-5.7-12.5c0-9.1,6.5-17.1,13.8-17.1c2.9,0,5.5,0.9,7.7,2.5
				c-2.3-1.8-5.1-2.8-8.2-2.8c-7.4,0-13.8,8-13.8,17.1C-270.8-245-268.4-240.3-264.7-237.6z"/>
			<path fill="#744D28" d="M-246.5-268c4.5,3.5,7.4,9.2,7.4,15.7c0,11.4-8.2,21.1-17.8,21.1c-3.7,0-7.1-1.2-10-3.2
				c2.9,2.2,6.5,3.5,10.4,3.5c9.7,0,17.8-9.7,17.8-21.1C-238.6-258.7-241.7-264.6-246.5-268z"/>
		</g>
		<g display="inline">
			<path fill="#AA8561" d="M-273.4-249.3c0-11.4,8.2-21.1,17.8-21.1c4.2,0,8,1.5,11,4.1c-3.1-3-7.3-4.9-12-4.9
				c-9.7,0-17.8,9.7-17.8,21.1c0,6.3,2.6,11.7,6.8,15.2C-271.2-238.4-273.4-243.5-273.4-249.3z"/>
			<path fill="#AA8561" d="M-247.1-263.3c2.8,2.8,4.5,6.8,4.5,11.4c0,9.1-6.5,17.1-13.8,17.1c-3.2,0-6.1-1.1-8.5-3
				c2.4,2.4,5.7,3.9,9.4,3.9c7.4,0,13.8-8,13.8-17.1C-241.8-256.2-243.8-260.6-247.1-263.3z"/>
		</g>
		<g display="inline">
			<circle cx="-256.5" cy="-249.5" r="1.6"/>
		</g>
		<path display="inline" fill="#F6F3F0" d="M-233.6-249.8c0.7,8.9,7.6,16.5,15.3,15.9c7.8-0.6,13.6-7.5,12.9-16.4
			c-0.7-8.9-7.6-16.5-15.3-15.9S-234.3-258.7-233.6-249.8z"/>
		<path display="inline" fill="#E6E6E6" d="M-206.6-250.1c-0.5-6.7-4.5-12.6-9.7-14.9c4.2,2.8,7.2,8,7.7,13.8
			c0.7,8.9-5.2,15.8-12.9,16.4c-2,0.1-3.9-0.2-5.7-1c2.3,1.5,4.9,2.4,7.7,2.2C-211.8-234.3-205.9-241.2-206.6-250.1z"/>
		<path display="inline" fill="#FFFFFF" d="M-230.2-246.4c-0.7-8.9,5.2-15.8,12.9-16.4c3.3-0.2,6.5,1,9,3.2c-2.9-4-7.2-6.5-11.8-6.2
			c-7.8,0.6-13.6,7.5-12.9,16.4c0.4,5.1,2.8,9.8,6.3,12.7C-228.6-239.4-229.9-242.8-230.2-246.4z"/>
		<path display="inline" fill="#29ABE2" d="M-219.1-238.4c4.2-0.3,8.1-1.5,10.3-3.5c-1.7,3.3-4.9,5.9-9.6,6.3
			c-4.3,0.3-7.5-2-9.5-4.4C-225.4-238.8-222.4-238.1-219.1-238.4z"/>
		<path display="inline" fill="#1498C6" d="M-208.7-241.9c-0.8,0.7-1.8,1.3-3,1.8c-1.5,2-3.6,3.5-5.9,4.3
			C-213.2-236.3-210.3-238.8-208.7-241.9z"/>
		<circle display="inline" cx="-219.4" cy="-248.7" r="1.4"/>
		<path display="inline" fill="#333333" d="M-219.1-231.8c-8.3,0-15.8-7.9-16.5-17.8c-0.4-4.8,1-9.3,3.7-12.7
			c2.8-3.4,6.7-5.5,11-5.8c8.7-0.6,16.7,7.5,17.5,17.8c0.4,4.8-1,9.3-3.7,12.7c-2.8,3.4-6.7,5.5-11,5.8
			C-218.5-231.8-218.8-231.8-219.1-231.8z M-219.9-264.2c-0.2,0-0.4,0-0.7,0c-3.2,0.2-6.2,1.8-8.2,4.3c-2.1,2.6-3.2,6.2-2.9,9.9
			c0.6,8,6.8,14.6,13.2,14.1c3.2-0.2,6.2-1.8,8.2-4.3c2.1-2.6,3.2-6.2,2.9-9.9C-207.9-257.8-213.7-264.2-219.9-264.2z"/>
		<g display="inline">
			<path d="M-203.3-250.4c-0.4-5.9-3.3-11.1-7.2-14.3c3.7,3.3,6.2,8.2,6.7,13.8c0.4,4.8-1,9.3-3.7,12.7c-2.8,3.4-6.7,5.5-11,5.8
				c-0.3,0-0.6,0-1,0c-3.5,0-6.8-1.4-9.5-3.7c2.8,2.6,6.4,4.2,10.1,4.2c0.3,0,0.6,0,1,0c4.4-0.3,8.3-2.4,11-5.8
				C-204.3-241.1-203-245.6-203.3-250.4z"/>
			<path d="M-226.4-238.9c-2.8-2.6-4.9-6.6-5.2-11c-0.3-3.8,0.7-7.3,2.9-9.9c2.1-2.6,5-4.1,8.2-4.3c0.2,0,0.4,0,0.7,0
				c2.3,0,4.6,0.9,6.5,2.4c-2.1-1.8-4.6-2.9-7.1-2.9c-0.2,0-0.4,0-0.7,0c-3.2,0.2-6.2,1.8-8.2,4.3c-2.1,2.6-3.2,6.2-2.9,9.9
				C-231.8-245.7-229.5-241.5-226.4-238.9z"/>
		</g>
		<g display="inline">
			<path fill="#535353" d="M-213.1-261.6c3.1,2.6,5.4,6.8,5.7,11.5c0.3,3.8-0.7,7.3-2.9,9.9c-2.1,2.6-5,4.1-8.2,4.3
				c-2.3,0.2-4.5-0.6-6.5-1.9c2.2,1.8,4.8,2.8,7.5,2.6c3.2-0.2,6.2-1.8,8.2-4.3c2.1-2.6,3.2-6.2,2.9-9.9
				C-206.7-254.6-209.4-259.1-213.1-261.6z"/>
			<path fill="#535353" d="M-234.6-248.9c-0.4-4.8,1-9.3,3.7-12.7c2.8-3.4,6.7-5.5,11-5.8c3.2-0.2,6.4,0.7,9.1,2.6
				c-2.9-2.3-6.4-3.6-10.1-3.3c-4.4,0.3-8.3,2.4-11,5.8c-2.8,3.4-4.1,8-3.7,12.7c0.5,6.4,3.8,12,8.3,15.1
				C-231.3-237.8-234.2-243-234.6-248.9z"/>
		</g>
	</g>
	<g id="眼睛6">
		<path display="inline" fill="#F6F3F0" d="M-10.7-262.2c0,8.9-6.1,14.7-13.6,14.7S-38-253.3-38-262.2c0-8.9,6.1-17.4,13.6-17.4
			S-10.7-271-10.7-262.2z"/>
		<path display="inline" fill="#E6E6E6" d="M-12.1-266.5c0,0.4,0.1,0.9,0.1,1.3c0,8.9-6.7,14.7-14.9,14.7c-2.8,0-5.5-0.7-7.7-2
			c2.4,2.3,5.6,3.6,9.2,3.6c7.5,0,13.6-5.8,13.6-14.7C-11.9-264.5-12-265.5-12.1-266.5z"/>
		<path display="inline" fill="#FFFFFF" d="M-34.7-259.1c0-8.9,6.1-17.4,13.6-17.4c1.6,0,3.2,0.4,4.6,1.1c-2.1-1.8-4.6-3-7.4-3
			c-7.5,0-13.6,8.6-13.6,17.4c0,6.3,3.1,11,7.6,13.2C-32.8-250.3-34.7-254.3-34.7-259.1z"/>
		<path display="inline" fill="#8C6239" d="M-24.3-245.6c-9,0-14.6-7-14.6-16.6c0-10.3,6.3-17.4,14.6-17.4s14.6,7.1,14.6,17.4
			C-9.7-252.5-15.3-245.6-24.3-245.6z M-24.3-277.7c-6.1,0-11.7,7.4-11.7,15.5c0,7.4,4.9,12.7,11.7,12.7s11.7-5.3,11.7-12.7
			C-12.6-270.3-18.2-277.7-24.3-277.7z"/>
		<g display="inline">
			<path fill="#744D28" d="M-14.4-275.2c2.6,3.1,4.1,7.4,4.1,12.5c0,9.6-5.6,16.6-14.6,16.6c-4.3,0-7.7-1.6-10.2-4.2
				c2.5,3,6.2,4.8,10.7,4.8c9,0,14.6-7,14.6-16.6C-9.7-267.6-11.5-272.1-14.4-275.2z"/>
			<path fill="#744D28" d="M-24.8-278.1c-6.1,0-11.7,7.4-11.7,15.5c0,3.8,1.3,7.1,3.6,9.4c-1.9-2.2-3.1-5.3-3.1-8.8
				c0-8.1,5.6-15.5,11.7-15.5c2.6,0,5,1.3,7,3.4C-19.4-276.6-22.1-278.1-24.8-278.1z"/>
		</g>
		<g display="inline">
			<path fill="#AA8561" d="M-23.8-248.8c6.8,0,11.7-5.3,11.7-12.7c0-4.7-1.9-9.1-4.6-12c2.4,2.9,4,7,4,11.3
				c0,7.4-4.9,12.7-11.7,12.7c-3.3,0-6.2-1.3-8.3-3.4C-30.5-250.4-27.4-248.8-23.8-248.8z"/>
			<path fill="#AA8561" d="M-38.4-261.5c0-10.3,6.3-17.4,14.6-17.4c4,0,7.4,1.6,10,4.4c-2.6-3.2-6.4-5.1-10.6-5.1
				c-8.3,0-14.6,7.1-14.6,17.4c0,5,1.5,9.3,4.3,12.3C-37.1-252.8-38.4-256.9-38.4-261.5z"/>
		</g>
		<circle display="inline" cx="-24" cy="-263" r="1.6"/>
		<path display="inline" fill="#F6F3F0" d="M12-279.2c-6.8,0-13,8.2-13,17.1c0,8.1,5.5,14,13,14s13-5.9,13-14
			C25-271.1,18.8-279.2,12-279.2z"/>
		<path display="inline" fill="#FFFFFF" d="M1.9-258.5c0-9,6.2-17.1,13-17.1c2.5,0,5,1.1,7.1,3c-2.4-3.5-5.8-5.8-9.4-5.8
			c-6.8,0-13,8.2-13,17.1c0,4.6,1.8,8.5,4.7,11C2.8-252.5,1.9-255.3,1.9-258.5z"/>
		<path display="inline" fill="#E6E6E6" d="M21.1-272.2c1,2.3,1.6,5,1.6,7.7c0,8.1-5.7,14-13.6,14c-2.6,0-4.9-0.6-6.9-1.8
			c2.1,1.7,4.8,2.6,7.8,2.6c7.5,0,13-5.9,13-14C23.1-266.7,22.3-269.6,21.1-272.2z"/>
		<path display="inline" fill="#333333" d="M12-246.6c-8.7,0-14-6.8-14-16.1c0-10.2,6-17.1,14-17.1s14,6.9,14,17.1
			C26-253.4,20.7-246.6,12-246.6z M12-277.7c-5.6,0-10.9,7.3-10.9,15c0,7,4.5,11.9,10.9,11.9s10.9-4.9,10.9-11.9
			C22.9-270.4,17.6-277.7,12-277.7z"/>
		<g display="inline">
			<path d="M4.1-254.3c-1.9-2.1-3-5.1-3-8.6c0-7.7,5.3-15,10.9-15c2,0,3.9,0.9,5.6,2.5c-1.8-2-4.1-3.2-6.4-3.2
				c-5.6,0-10.9,7.3-10.9,15C0.3-259.6,1.7-256.4,4.1-254.3z"/>
			<path d="M20.7-276.5c2.8,3,4.5,7.5,4.5,13c0,9.4-5.3,16.1-14,16.1c-3.7,0-6.8-1.2-9.1-3.3c2.4,2.6,5.7,4.1,9.8,4.1
				c8.7,0,14-6.8,14-16.1C25.9-268.8,23.9-273.5,20.7-276.5z"/>
		</g>
		<g display="inline">
			<path fill="#535353" d="M12.5-250.2c6.4,0,10.9-4.9,10.9-11.9c0-4.1-1.5-8-3.7-10.8c1.9,2.8,3.2,6.4,3.2,10.2
				c0,7-4.5,11.9-10.9,11.9c-3.4,0-6.3-1.4-8.2-3.8C5.7-251.9,8.8-250.2,12.5-250.2z"/>
			<path fill="#535353" d="M-1.5-262.2c0-10.2,6-17.1,14-17.1c4.2,0,7.9,1.9,10.4,5.2c-2.5-3.7-6.4-5.9-10.9-5.9
				c-8,0-14,6.9-14,17.1c0,4.4,1.2,8.3,3.4,11.1C-0.5-254.5-1.5-258.1-1.5-262.2z"/>
		</g>
		<circle display="inline" cx="12.3" cy="-263.6" r="1.6"/>
	</g>
	<g id="眼睛7">
		<path display="inline" fill="#F6F3F0" d="M-27.9-260.9c5-0.3,9.2,1.1,12.1,4.6c0.7,0.8,1.7,0,1.3-1c-2.1-5.5-6.5-11.7-14.9-12
			c-7.5-0.3-11.7,4.4-13.7,9.8c-1.1,2.8,1.8,5.5,3.8,3.5C-36.3-258.9-32.2-260.7-27.9-260.9z"/>
		<path display="inline" fill="#E6E6E6" d="M-14.9-257.9c-0.7-1.7-1.6-3.5-2.7-5.2c0.9,1.5,1.7,3,2.2,4.5c0.4,1-0.7,1.8-1.3,1
			c-2.9-3.4-7.1-4.8-12.1-4.6c-4.4,0.2-8.5,2-11.4,4.8c-1.1,1-2.4,0.8-3.2-0.1c0.7,1.5,2.4,2.2,3.7,0.9c2.9-2.8,7-4.6,11.4-4.8
			c5-0.3,9.2,1.1,12.1,4.6C-15.6-256.1-14.6-256.9-14.9-257.9z"/>
		<path display="inline" fill="#FFFFFF" d="M-41.6-257.9c2-5.4,6.2-10.2,13.7-9.8c3.1,0.1,5.6,1.1,7.7,2.4c-2.3-2-5.3-3.4-9.2-3.5
			c-7.5-0.3-11.7,4.4-13.7,9.8c-0.7,1.9,0.4,3.8,1.8,4.1C-41.8-255.7-42-256.8-41.6-257.9z"/>
		<path display="inline" fill="#8C6239" d="M-40.8-254.4c-0.6,0-1.2-0.2-1.7-0.5c-1.3-0.9-2.3-2.9-1.5-5c2.6-7.1,7.9-10.8,14.7-10.5
			c7.2,0.3,12.8,4.8,15.8,12.7c0.4,0.9,0,2-0.8,2.5c-0.8,0.4-1.7,0.3-2.2-0.4c-2.5-3-6.4-4.5-11.3-4.2l0,0c-4,0.2-8,1.9-10.8,4.6
			C-39.2-254.7-40-254.4-40.8-254.4z M-30.1-268.4c-7.1,0-10.4,5-12,9.2c-0.4,1.1,0,2.2,0.7,2.6c0.4,0.2,0.9,0.4,1.5-0.2
			c3.1-3,7.5-4.9,12.1-5.1c5.1-0.3,9.3,1.2,12.2,4.2c-2-4.9-6-10.3-13.7-10.7C-29.7-268.4-29.9-268.4-30.1-268.4z"/>
		<g display="inline">
			<path fill="#744D28" d="M-42.2-259.2c1.6-4.2,5-9.2,12-9.2c0.2,0,0.5,0,0.7,0c7.5,0.3,11.4,5.5,13.5,10.2c0,0,0,0,0,0
				c-2-4.9-6-10.3-13.7-10.7c-0.2,0-0.5,0-0.7,0c-7.1,0-10.4,5-12,9.2c-0.3,0.7-0.2,1.4,0.1,1.9C-42.4-258.1-42.4-258.7-42.2-259.2z
				"/>
			<path fill="#744D28" d="M-13.5-257.7c0-0.1-0.1-0.2-0.2-0.4c0.3,0.9,0,1.9-0.8,2.4c-0.8,0.4-1.7,0.3-2.2-0.4
				c-2.5-3-6.4-4.5-11.3-4.2c-4,0.2-8,1.9-10.8,4.6c-0.7,0.6-1.4,0.9-2.2,0.9c-0.6,0-1.2-0.2-1.7-0.5c-0.6-0.4-1.1-1-1.4-1.7
				c0.3,0.9,0.9,1.7,1.6,2.1c0.5,0.4,1.1,0.5,1.7,0.5c0.8,0,1.6-0.3,2.2-0.9c2.8-2.7,6.7-4.4,10.8-4.6c4.9-0.3,8.8,1.2,11.3,4.2
				c0.6,0.7,1.5,0.9,2.2,0.4C-13.5-255.8-13.2-256.8-13.5-257.7z"/>
		</g>
		<g display="inline">
			<path fill="#AA8561" d="M-41.1-256.1c0.4,0.2,0.9,0.4,1.5-0.2c3.1-3,7.5-4.9,12.1-5.1c5.1-0.3,9.3,1.2,12.2,4.2
				c-0.8-1.9-1.9-3.9-3.4-5.7c1.3,1.6,2.3,3.4,3,5.2c-2.9-3-7.1-4.4-12.2-4.2c-4.5,0.2-8.9,2.1-12.1,5.1c-0.6,0.6-1.1,0.4-1.5,0.2
				c-0.1,0-0.1-0.1-0.1-0.1C-41.5-256.5-41.3-256.3-41.1-256.1z"/>
			<path fill="#AA8561" d="M-43.6-259.5c2.6-7.1,7.9-10.8,14.7-10.5c4.8,0.2,8.8,2.3,11.9,5.9c-3.1-4-7.4-6.2-12.3-6.4
				c-6.8-0.3-12.1,3.4-14.7,10.5c-0.7,1.8-0.1,3.5,0.9,4.5C-43.9-256.5-44.2-257.9-43.6-259.5z"/>
		</g>
		<path display="inline" d="M-38.7-265.1c0.7,1.4,2.3,2.1,3.4,1.3c1.2-0.7,1.5-2.6,0.9-4C-35.8-267.4-37.5-266.7-38.7-265.1z"/>
		<path display="inline" fill="#F6F3F0" d="M15.5-261.1c-5-0.3-9.2,1.1-12.1,4.6c-0.7,0.8-1.7,0-1.3-1c2.1-5.5,6.5-11.7,14.9-12
			c7.5-0.3,11.7,4.4,13.7,9.8c1.1,2.8-1.8,5.5-3.8,3.5C24-259.1,19.8-260.9,15.5-261.1z"/>
		<path display="inline" fill="#E6E6E6" d="M31.2-259.9c-0.1-0.4-0.3-0.7-0.4-1.1c0.3,2.5-2.2,4.5-4,2.7c-2.9-2.8-7-4.6-11.4-4.8
			c-5-0.3-9.2,1.1-12.1,4.6c-0.1,0.2-0.3,0.3-0.5,0.3c-0.1,0.2-0.2,0.4-0.2,0.6c-0.4,1,0.7,1.8,1.3,1c2.9-3.4,7.1-4.8,12.1-4.6
			c4.4,0.2,8.5,2,11.4,4.8C29.4-254.4,32.3-257,31.2-259.9z"/>
		<path display="inline" fill="#FFFFFF" d="M3.8-256.9c2.3-5.1,6.6-10.3,14.4-10.7c5.7-0.3,9.4,2.4,11.8,6c-2.2-4.6-6.3-8.3-12.9-8
			c-8.5,0.4-12.8,6.6-14.9,12c-0.4,1,0.7,1.8,1.3,1C3.5-256.7,3.6-256.8,3.8-256.9z"/>
		<path display="inline" fill="#333333" d="M28.4-254.6c-0.8,0-1.6-0.3-2.2-0.9c-2.8-2.7-6.7-4.4-10.8-4.6l0,0
			c-4.9-0.3-8.8,1.2-11.3,4.2c-0.6,0.7-1.5,0.9-2.2,0.4c-0.8-0.5-1.1-1.5-0.8-2.5c3-7.9,8.6-12.4,15.8-12.7
			c6.9-0.3,12.1,3.4,14.7,10.5c0.8,2.1-0.1,4.1-1.5,5C29.6-254.7,29-254.6,28.4-254.6z M14.3-262.1c0.4,0,0.8,0,1.2,0l0,0
			c4.5,0.2,8.9,2.1,12.1,5.1c0.6,0.6,1.1,0.4,1.5,0.2c0.7-0.4,1.1-1.5,0.7-2.6c-1.6-4.4-5.2-9.5-12.7-9.2
			c-7.7,0.3-11.7,5.9-13.8,10.7C6-260.7,9.8-262.1,14.3-262.1z"/>
		<g display="inline">
			<path d="M17-268.5c7.6-0.3,11.1,4.8,12.7,9.2c0,0,0,0.1,0,0.1c0-0.3,0-0.6-0.2-0.9c-1.6-4.4-5.2-9.5-12.7-9.2
				c-7.7,0.3-11.7,5.9-13.8,10.7c0.3-0.3,0.5-0.5,0.8-0.8C6.1-263.7,10.1-268.2,17-268.5z"/>
			<path d="M31.8-259.5c0.1,1.6-0.7,3-1.7,3.7c-0.5,0.4-1.1,0.5-1.7,0.5c-0.8,0-1.6-0.3-2.2-0.9c-2.8-2.7-6.7-4.4-10.8-4.6
				c-4.9-0.3-8.8,1.2-11.3,4.2c-0.6,0.7-1.5,0.9-2.2,0.4c-0.4-0.2-0.7-0.6-0.8-1c0,0.7,0.3,1.4,0.9,1.7c0.8,0.4,1.7,0.3,2.2-0.4
				c2.5-3,6.4-4.5,11.3-4.2c4,0.2,8,1.9,10.8,4.6c0.7,0.6,1.4,0.9,2.2,0.9c0.6,0,1.2-0.2,1.7-0.5C31.4-255.8,32.3-257.6,31.8-259.5z
				"/>
		</g>
		<g display="inline">
			<path fill="#535353" d="M15.5-262c-0.4,0-0.8,0-1.2,0c-3.9,0-7.3,1.1-9.9,3.2c-0.2,0.5-0.5,1-0.7,1.5c2.7-2.8,6.5-4.2,11.1-4.2
				c0.4,0,0.8,0,1.2,0c3.9,0.2,7.7,1.6,10.7,4C23.7-260.2,19.7-261.8,15.5-262z"/>
			<path fill="#535353" d="M25.7-265.6c2,1.8,3.3,4.1,4.1,6.3c0.4,1.1,0,2.2-0.7,2.6c-0.3,0.2-0.8,0.3-1.3,0
				c0.1,0.1,0.2,0.1,0.3,0.2c0.6,0.6,1.1,0.4,1.5,0.2c0.7-0.4,1.1-1.5,0.7-2.6C29.4-261.3,28-263.8,25.7-265.6z"/>
			<path fill="#535353" d="M1.6-257.5c3-7.9,8.6-12.4,15.8-12.7c3.7-0.2,6.9,0.9,9.5,2.9c-2.7-2.4-6.1-3.5-10-3.4
				c-7.2,0.3-12.8,4.8-15.8,12.7c-0.4,0.9,0,2,0.8,2.5c0,0,0,0,0,0C1.5-255.9,1.3-256.7,1.6-257.5z"/>
			<path fill="#535353" d="M25.5-256.1c0.2,0.2,0.5,0.4,0.7,0.6c0.1,0.1,0.2,0.1,0.3,0.2C26.2-255.6,25.8-255.8,25.5-256.1z"/>
		</g>
		<path display="inline" d="M26.3-265.3c-0.7,1.4-2.3,2.1-3.4,1.3c-1.2-0.7-1.5-2.6-0.9-4C23.4-267.5,25.2-266.9,26.3-265.3z"/>
	</g>
</g>
<g id="嘴巴" display="none">
	<g id="嘴巴1">
		<g display="inline">
			<g>
				<path fill="#8C6239" d="M50.4,56.3c-1.9,0-3.7-0.5-4.3-1.1c-0.9-0.9-0.4-2.3,0.1-3.3c-0.9-0.9-2.3-2.6-2.4-4.3
					c0-0.9,0.3-1.6,0.9-2.2c1.9-1.9,6.2-1.8,8.5-1.4c1.7,0.3,2.7,0.9,3,1.7c0.7,1.7-0.7,4.2-1.7,5.6c0.5,0.5,1.1,1.2,1.1,2
					c0,0.6-0.2,1.4-1.2,2.1C53.3,56,51.8,56.3,50.4,56.3z M47.5,53.8c0.8,0.4,4.1,0.9,5.7-0.2c0.3-0.2,0.3-0.3,0.3-0.3
					c0-0.2-0.5-0.7-1-1l-1-0.6l0.7-0.9c1.2-1.5,2.3-3.7,2-4.4c-0.2-0.2-1.5-0.7-3.6-0.7c-2.1-0.1-3.9,0.4-4.6,1
					c-0.2,0.2-0.3,0.4-0.3,0.7c0,1.1,1.5,2.7,2.3,3.4l0.7,0.6l-0.5,0.7C47.9,52.8,47.6,53.5,47.5,53.8z"/>
			</g>
			<g>
				<path fill="#744D28" d="M47.1,53.6c0.1,0.1,0.2,0.1,0.4,0.2c0.1-0.4,0.4-1,0.7-1.6l0.5-0.7l-0.7-0.6c-0.9-0.7-2.3-2.3-2.3-3.4
					c0-0.3,0.1-0.5,0.3-0.7c0.7-0.7,2.5-1.1,4.6-1c1.5,0,2.6,0.3,3.2,0.5c0,0,0,0,0,0c-0.2-0.2-1.5-0.7-3.6-0.7
					c-2.1-0.1-3.9,0.4-4.6,1c-0.2,0.2-0.3,0.4-0.3,0.7c0,1.1,1.5,2.7,2.3,3.4l0.7,0.6L47.8,52C47.5,52.6,47.2,53.3,47.1,53.6z"/>
				<path fill="#744D28" d="M56.1,45.7c-0.2-0.5-0.6-0.9-1.3-1.2c0.4,0.3,0.7,0.6,0.9,0.9c0.7,1.7-0.7,4.2-1.7,5.6
					c0.5,0.5,1.1,1.2,1.1,2c0,0.6-0.2,1.4-1.2,2.1c-1,0.7-2.5,1-4,1c-1.4,0-2.8-0.3-3.7-0.7c0.8,0.5,2.4,0.9,4.1,0.9
					c1.4,0,2.9-0.3,4-1c1-0.7,1.2-1.5,1.2-2.1c0-0.8-0.6-1.5-1.1-2C55.4,49.9,56.8,47.4,56.1,45.7z"/>
			</g>
			<path fill="#AA8561" d="M46.3,55.4c-0.9-0.9-0.4-2.3,0.1-3.3c-0.9-0.9-2.3-2.6-2.4-4.3c0-0.9,0.3-1.6,0.9-2.2
				c1.9-1.9,6.2-1.8,8.5-1.4c0.9,0.2,1.6,0.4,2.1,0.7c-0.5-0.4-1.3-0.7-2.4-1c-2.3-0.5-6.6-0.5-8.5,1.4c-0.6,0.6-0.9,1.4-0.9,2.2
				c0.1,1.7,1.5,3.4,2.4,4.3c-0.5,1-1,2.4-0.1,3.3C46.1,55.3,46.2,55.4,46.3,55.4C46.4,55.5,46.3,55.4,46.3,55.4z"/>
			<path d="M49,51.4c0,0,1-3.7,2.5-0.1C51.5,51.3,50.5,55,49,51.4z"/>
		</g>
	</g>
	<g id="嘴巴2">
		<g display="inline">
			<path fill="#8C6239" d="M38.8,52.7c0,0,19.7-2,21.4-5.4C60.2,47.3,68.4,52.5,38.8,52.7z"/>
			<path fill="#744D28" d="M60.2,47.3C60.2,47.3,60.2,47.3,60.2,47.3c1,0.9,4.8,5-20.3,5.3c-0.7,0.1-1.1,0.1-1.1,0.1
				C68.4,52.6,60.2,47.3,60.2,47.3z"/>
			<path fill="#AA8561" d="M60.4,47.5c0,0,0.2,0.2,0.5,0.4c-0.3-0.4-0.7-0.7-0.7-0.7c-1.8,3.4-21.4,5.4-21.4,5.4c0.9,0,1.8,0,2.6,0
				C46.7,52,59,50.2,60.4,47.5z"/>
		</g>
	</g>
	<g id="嘴巴3">
		<g display="inline">
			<path fill="#F6F3F0" d="M61.2,45.6c0,0-0.1,0-0.1,0c-0.6-3.2-3.4-5.5-6.8-5.5c-1.7,0-3.2,0.6-4.4,1.6c-0.6-0.4-1.3-0.7-2-0.7
				c-1.3,0-2.5,0.8-3,1.9c-0.4-0.1-0.9-0.2-1.3-0.2c-3.1,0-5.6,2.4-5.7,5.5c0,0,0,0,0,0c-2.4,0-4.3,1.9-4.3,4.3
				c0,2.4,1.9,4.3,4.3,4.3c0.3,0,0.7,0,1-0.1c0.8,0.9,2,1.5,3.3,1.5c0.6,0,1.1-0.1,1.6-0.3c1,1.2,2.5,1.9,4.2,1.9
				c1.8,0,3.4-0.9,4.5-2.2c0.6,0.3,1.2,0.5,1.9,0.5c1.6,0,3-0.9,3.7-2.3c0.9,0.6,2,1,3.2,1c3.1,0,5.6-2.5,5.6-5.6
				C66.8,48.2,64.3,45.6,61.2,45.6z"/>
			<g>
				<path fill="#FFFFFF" d="M64.8,49.1c0,0,0.1,0,0.1,0c0.4,0,0.8,0,1.2,0.1c-0.5-1.3-1.5-2.3-2.7-2.9
					C64.1,47.1,64.6,48.1,64.8,49.1z"/>
				<path fill="#FFFFFF" d="M37.2,56c0-2.4,1.9-4.3,4.3-4.3c0,0,0,0,0,0c0.1-3.1,2.6-5.5,5.7-5.5c0.5,0,0.9,0.1,1.3,0.2
					c0.5-1.1,1.7-1.9,3-1.9c0.8,0,1.4,0.3,2,0.7c1.2-1,2.7-1.6,4.4-1.6c0.8,0,1.5,0.1,2.1,0.4c-1.2-2.2-3.5-3.8-6.1-3.8
					c-1.7,0-3.2,0.6-4.4,1.6c-0.6-0.4-1.3-0.7-2-0.7c-1.3,0-2.5,0.8-3,1.9c-0.4-0.1-0.9-0.2-1.3-0.2c-3.1,0-5.6,2.4-5.7,5.5
					c0,0,0,0,0,0c-2.4,0-4.3,1.9-4.3,4.3c0,2.3,1.8,4.2,4.1,4.3C37.2,56.6,37.2,56.3,37.2,56z"/>
			</g>
			<path fill="#E6E6E6" d="M64.2,46.6c0.7,0.9,1.2,2.1,1.2,3.4c0,3.1-2.5,5.6-5.6,5.6c-1.2,0-2.3-0.4-3.2-1C55.9,56,54.4,57,52.8,57
				c-0.7,0-1.4-0.2-1.9-0.5c-1,1.3-2.6,2.2-4.5,2.2c-1.7,0-3.2-0.7-4.2-1.9c-0.5,0.2-1,0.3-1.6,0.3c-0.4,0-0.8,0.1-1.3,0.3
				c0.7,0.4,1.5,0.7,2.3,0.7c0.6,0,1.1-0.1,1.6-0.3c1,1.2,2.5,1.9,4.2,1.9c1.8,0,3.4-0.9,4.5-2.2c0.6,0.3,1.2,0.5,1.9,0.5
				c1.6,0,3-0.9,3.7-2.3c0.9,0.6,2,1,3.2,1c3.1,0,5.6-2.5,5.6-5.6C66.4,49.2,65.5,47.6,64.2,46.6z"/>
		</g>
	</g>
	<g id="嘴巴4">
		<g display="inline">
			<path fill="#8C6239" d="M68,40.5c2.3,16.7-3,38.6-12.9,39.9c-9.9,1.4-20.8-18.3-23.1-35s4.9-24.3,14.9-25.6
				C56.7,18.4,65.7,23.7,68,40.5z"/>
			<path fill="#744D28" d="M67.9,40.4c-1.3-9.7-4.9-15.6-9.6-18.6c4.3,3.1,7.6,8.8,8.9,18.1c2.3,16.7-3,38.6-12.9,39.9
				c-2,0.3-4.1-0.3-6.1-1.6c2.3,1.6,4.6,2.4,6.9,2.1C65,79,70.2,57.2,67.9,40.4z"/>
			<path fill="#AA8561" d="M32.9,46.2C30.6,29.5,37.8,22,47.8,20.6c4.8-0.7,9.3,0.3,13,3.2c-3.9-3.7-8.8-4.8-14-4.1
				c-9.9,1.4-17.1,8.9-14.9,25.6c1.7,12.4,8.1,26.3,15.3,32.2C40.4,71.2,34.5,58,32.9,46.2z"/>
			<path fill="#333333" d="M65.6,42.9c2,14.7-2.4,33.9-10.9,35S36.8,61.8,34.8,47.1s4.1-21.3,12.7-22.4
				C55.9,23.5,63.6,28.2,65.6,42.9z"/>
			<path fill="#EC5A5A" d="M51.8,54c-1.3,0-3.7,3.5-3.7,4.6c0,1.1,0.9,2,2,2c0.8,0,1.4-0.4,1.7-1.1c0.3,0.6,1,1.1,1.7,1.1
				c1.1,0,2-0.9,2-2C55.5,57.6,53.1,54.1,51.8,54z"/>
		</g>
	</g>
	<g id="嘴巴5">
		<g display="inline">
			<g>
				<g>
					<path fill="#8C6239" d="M39.4,49.5c-3.1,0-4.8-2.9-4.9-3.1c-0.3-0.5-0.1-1.1,0.4-1.4c0.5-0.3,1.1-0.1,1.4,0.4
						c0.1,0.1,1.4,2.4,3.6,2c0.5-0.1,1.1-0.2,1.8-0.4c3.6-0.9,9.6-2.5,18.6,0.5c0.7-0.1,2.9-0.4,3.3-2.3c0.1-0.5,0.6-0.9,1.2-0.8
						c0.5,0.1,0.9,0.7,0.8,1.2c-0.8,3.4-4.5,3.9-5.2,3.9c-0.2,0-0.4,0-0.5-0.1c-8.5-2.8-14.2-1.4-17.6-0.5c-0.8,0.2-1.5,0.4-2,0.5
						C39.9,49.5,39.7,49.5,39.4,49.5z"/>
				</g>
				<g>
					<g>
						<path fill="#FFFFFF" d="M44.9,47.8c0,0-3.3,2-2.7,7.5"/>
					</g>
					<g>
						<path fill="#8C6239" d="M42.5,55.6c-0.2,0-0.4-0.2-0.5-0.4c-0.6-5.7,2.8-7.9,2.9-8c0.2-0.1,0.5-0.1,0.6,0.2
							c0.1,0.2,0,0.5-0.2,0.6C41.9,51,42.8,55.6,42.5,55.6C42.5,55.6,42.5,55.6,42.5,55.6z"/>
					</g>
				</g>
				<g>
					<g>
						<path fill="#FFFFFF" d="M47,47.8c0,0-0.9,2.1-0.7,4.5"/>
					</g>
					<g>
						<path fill="#8C6239" d="M46.2,52.8c-0.2,0-0.4-0.2-0.5-0.4c-0.2-2.4,0.7-4.6,0.8-4.7c0.1-0.2,0.4-0.3,0.6-0.2
							c0.2,0.1,0.3,0.4,0.2,0.6C47.4,48,45.7,51.3,46.2,52.8C46.3,52.8,46.2,52.8,46.2,52.8z"/>
					</g>
				</g>
				<g>
					<g>
						<path fill="#FFFFFF" d="M51.7,47.3c0,0,2.1,1.8,2.6,6.2"/>
					</g>
					<g>
						<path fill="#8C6239" d="M54.3,54c-0.6-3.5-2.9-6.2-3-6.3c-0.2-0.2-0.2-0.5,0-0.6c0.2-0.2,0.5-0.2,0.6,0c0.1,0.1,2.2,2,2.8,6.4
							C54.8,53.7,54.6,53.9,54.3,54C54.3,54,54.3,54,54.3,54z"/>
					</g>
				</g>
				<g>
					<g>
						<path fill="#8C6239" d="M59,51.5C58.9,51.5,58.9,51.5,59,51.5c-0.3,0,0.4-0.6-1.7-3.1c-0.2-0.2-0.1-0.5,0.1-0.6
							c0.2-0.2,0.5-0.1,0.6,0.1c0.2,0.2,1.5,2,1.4,3.2C59.4,51.3,59.2,51.5,59,51.5z"/>
					</g>
				</g>
			</g>
			<g>
				<path fill="#744D28" d="M46,47.9c-0.2,0-0.4,0.1-0.6,0.1c-0.1,0.1-0.2,0.2-0.3,0.3c0.3-0.1,0.6-0.1,0.9-0.2
					C46,48.1,46,48,46,47.9z"/>
				<path fill="#744D28" d="M36.5,45.8c-0.1-0.2-0.2-0.3-0.2-0.3c0-0.1-0.1-0.1-0.1-0.2C36.2,45.4,36.3,45.6,36.5,45.8z"/>
				<path fill="#744D28" d="M57.3,48.6c-1.7-0.4-3.2-0.7-4.7-0.9c0,0.1,0.1,0.1,0.1,0.2c1.4,0.1,3,0.4,4.6,0.8
					C57.3,48.7,57.3,48.7,57.3,48.6z"/>
				<path fill="#744D28" d="M65.3,44.7c0.1,0.2,0.2,0.4,0.1,0.7c-0.3,1.3-1,2.2-1.8,2.8c-1.4,1-3,1.2-3.5,1.2c-0.2,0-0.4,0-0.5-0.1
					c-0.2-0.1-0.4-0.1-0.7-0.2c0,0,0,0.1,0,0.1c0.3,0.1,0.6,0.2,1,0.3c0.2,0.1,0.4,0.1,0.5,0.1c0.7-0.1,4.5-0.5,5.2-3.9
					C65.7,45.3,65.5,44.9,65.3,44.7z"/>
				<path fill="#744D28" d="M51.1,47.6c-1.4-0.1-2.6,0-3.7,0.1c0,0.1,0,0.2,0,0.2c1.2-0.1,2.5-0.2,3.9-0.1
					C51.2,47.7,51.2,47.7,51.1,47.6z"/>
				<path fill="#744D28" d="M42.9,48.8c0.1-0.1,0.1-0.2,0.2-0.3c-0.4,0.1-0.8,0.2-1.2,0.3c-0.8,0.2-1.5,0.4-2,0.5
					c-0.3,0-0.5,0.1-0.8,0.1c-0.8,0-1.6-0.2-2.2-0.5c0.7,0.4,1.6,0.7,2.6,0.7c0.3,0,0.5,0,0.8-0.1c0.6-0.1,1.3-0.3,2-0.5
					C42.4,48.9,42.7,48.9,42.9,48.8z"/>
			</g>
			<g>
				<path fill="#AA8561" d="M40.1,47.7c0.5-0.1,1.1-0.2,1.8-0.4c3.6-0.9,9.6-2.5,18.6,0.5c0.7-0.1,2.9-0.4,3.3-2.3
					c0.1-0.5,0.6-0.9,1.2-0.8c0.1,0,0.1,0.1,0.2,0.1c-0.1-0.1-0.3-0.2-0.5-0.3c-0.5-0.1-1.1,0.2-1.2,0.8c-0.4,1.9-2.6,2.3-3.3,2.3
					c-9-3-15-1.4-18.6-0.5c-0.7,0.2-1.4,0.4-1.8,0.4c-0.8,0.1-1.5-0.1-2.1-0.4C38.4,47.5,39.2,47.8,40.1,47.7z"/>
				<path fill="#AA8561" d="M34.8,46.6c-0.3-0.5-0.1-1.1,0.4-1.4c0.3-0.2,0.6-0.2,0.9,0c-0.3-0.3-0.8-0.4-1.2-0.2
					c-0.5,0.3-0.6,0.9-0.4,1.4c0.1,0.1,0.8,1.4,2.2,2.3C35.5,47.8,34.8,46.7,34.8,46.6z"/>
			</g>
		</g>
	</g>
	<g id="嘴巴6">
		<g display="inline">
			<path fill="#EC5A5A" d="M58.4,68.4H41.6c-0.6,0-1-0.4-1-1V38.5c0-3.8,3.1-7,7-7h4.9c3.8,0,7,3.1,7,7v28.9
				C59.4,68,59,68.4,58.4,68.4z"/>
			<path fill="#8C6239" d="M58.4,69.4H41.6c-1.1,0-2-0.9-2-2V38.5c0-4.4,3.6-8,8-8h4.9c4.4,0,8,3.6,8,8v28.9
				C60.4,68.5,59.5,69.4,58.4,69.4z M47.5,32.6c-3.3,0-6,2.7-6,6v28.9h16.9l0-28.9c0-3.3-2.7-6-6-6H47.5z"/>
			<g>
				<path fill="#AA8561" d="M58.4,38.6l0,28.9H42.7V68h16.9l0-28.9c0-2.7-1.7-4.9-4.1-5.7C57.2,34.4,58.4,36.3,58.4,38.6z"/>
				<path fill="#AA8561" d="M40.7,68V39.1c0-4.4,3.6-8,8-8h4.9c0.9,0,1.9,0.2,2.7,0.5c-1.1-0.6-2.4-1-3.8-1h-4.9c-4.4,0-8,3.6-8,8
					v28.9c0,1,0.8,1.9,1.8,2C40.9,69.1,40.7,68.6,40.7,68z"/>
			</g>
		</g>
	</g>
	<g id="嘴巴7">
		<g display="inline">
			<path fill="#EC5A5A" d="M50.6,49.2c-8.9,0-15.8-3.4-19.7-8.5c-0.7-0.9-2.2-0.5-2.3,0.7c-0.1,0.4-0.1,0.9-0.1,1.3
				C28.5,50.9,38.1,56,50,56s21.5-5,21.5-13.2v0c0-1.1-1.4-1.7-2.2-0.9C65.2,46.3,58.8,49.2,50.6,49.2z"/>
			<path fill="#8C6239" d="M50,57c-13.2,0-22.5-5.9-22.5-14.2c0-0.5,0-1,0.1-1.4c0.1-0.9,0.8-1.7,1.7-2c0.9-0.2,1.8,0.1,2.4,0.8
				c4,5.1,10.9,8.1,18.9,8.1c7.3,0,13.7-2.5,18-7c0.6-0.7,1.6-0.9,2.5-0.5c0.9,0.3,1.4,1.2,1.4,2.1C72.5,51.1,63.2,57,50,57z
				 M29.9,41.2C29.9,41.2,29.9,41.2,29.9,41.2c-0.2,0-0.3,0.1-0.3,0.3c-0.1,0.4-0.1,0.8-0.1,1.2C29.5,49.9,37.9,55,50,55
				s20.5-5,20.5-12.2c0-0.1-0.1-0.2-0.2-0.3c-0.1,0-0.2,0-0.3,0.1c-4.7,4.9-11.6,7.7-19.5,7.7c-8.6,0-16.1-3.2-20.5-8.9
				C30.1,41.3,30,41.2,29.9,41.2z"/>
			<g>
				<path fill="#AA8561" d="M50.4,55.9c12.1,0,20.5-5,20.5-12.2c0-0.1-0.1-0.2-0.2-0.3c-0.1,0-0.2,0-0.3,0.1
					c-0.6,6.8-8.8,11.4-20.4,11.4c-10,0-17.5-3.5-19.8-8.7C32,52,39.8,55.9,50.4,55.9z"/>
				<path fill="#AA8561" d="M27.9,43.7c0-0.5,0-1,0.1-1.4c0.1-0.9,0.8-1.7,1.7-2c0.9-0.2,1.8,0.1,2.4,0.8c4,5.1,10.9,8.1,18.9,8.1
					c7.3,0,13.7-2.5,18-7c0.6-0.7,1.6-0.9,2.5-0.5c0.4,0.2,0.8,0.4,1,0.8c-0.1-0.8-0.6-1.5-1.4-1.8c-0.9-0.3-1.8-0.1-2.5,0.5
					c-4.3,4.5-10.7,7-18,7c-8,0-14.9-2.9-18.9-8.1c-0.6-0.7-1.5-1-2.4-0.8c-0.9,0.3-1.6,1-1.7,2c-0.1,0.5-0.1,1-0.1,1.4
					c0,1.6,0.3,3.1,1,4.5C28.1,46.1,27.9,44.9,27.9,43.7z"/>
			</g>
			<g>
				<path fill="#29ABE2" d="M33,50.3c0,0,5.7,4.9,16.5,4.9S31.5,45.6,33,50.3z"/>
			</g>
			<g>
				<path fill="#29ABE2" d="M37.6,58.7c0,1.2-0.8,2.1-1.9,2.1s-1.9-0.9-1.9-2.1s0.8-7.1,1.9-7.1S37.6,57.4,37.6,58.7z"/>
			</g>
			<path fill="#4CC7F2" d="M34.8,59.5c0-1.2,0.8-6.5,1.7-7c-0.2-0.6-0.5-0.9-0.7-0.9c-1,0-1.9,5.9-1.9,7.1c0,0.9,0.5,1.7,1.1,2
				C34.9,60.3,34.8,59.9,34.8,59.5z"/>
		</g>
	</g>
	<g id="嘴巴8" display="inline">
		<g>
			<path fill="#BC4444" d="M61.6,22.5c0-0.2-0.2-0.3-0.4-0.3c-0.5,0-1.8,0.2-3.5,0.3c-6.5,0.6-12,5.7-14.3,13
				c-3.9,12.5-8.3,31.4-2.1,39.1c0.4,0.5,1.1,0.3,1.2-0.4c0.5-2.8,1.6-8.7,2.1-8.6c0.7,0.1-0.1,0.6-0.3,7.4c0,0.3-0.3,4.5,0.3,4.1
				c0.7-0.5,1.4-1.3,2.2-2.6c0.3-0.4,0.8-0.3,1,0.2c0.1,0.7,0.3,1,0.5,1.1c0.5,0,1-2.2,1.4-5.8c0.1-1.2,0.4-2.4,0.9-3.5
				c0.3-0.8,0.6-1.7,1-2.6c0.2-0.7,1.1-0.6,1.2,0.1c0.8,3.1,1.6,5,2.1,5c0.9,0,0.8-4.6,0.7-11.2c-0.1-4,0.4-8,1.4-11.8
				C60.1,34.9,62,24.6,61.6,22.5z"/>
			<path fill="#C75656" d="M48.7,37.8c2.1-6.7,7-11.5,12.8-12.7c0.1-1.1,0.1-2,0-2.4c0-0.2-0.2-0.3-0.4-0.3c-0.5,0-1.8,0.2-3.5,0.3
				c-6.5,0.6-12,5.7-14.3,13c-3.9,12.5-8.3,31.4-2.1,39.1c0.4,0.5,1.1,0.3,1.2-0.4c0.3-1.6,0.7-4.2,1.2-6.1
				C42.9,59.1,45.9,46.8,48.7,37.8z"/>
			<path fill="#BC4444" d="M60.2,69.9c0.1,4.3-0.5,5-1.3,5c-0.8,0-1.5-0.6-1.6-4.9c-0.1-4.3,0.4-10.5,1.2-10.5S60.1,65.7,60.2,69.9z
				"/>
			<path fill="#BC4444" d="M64.5,33.6c0,1.7-0.6,2-1.4,2c-0.8,0-1.4-0.2-1.5-2c0-1.7,0.5-4.2,1.3-4.3C63.7,29.4,64.4,31.9,64.5,33.6
				z"/>
			<path fill="#BC4444" d="M54.1,76.5c0,1-0.4,1.2-0.8,1.2c-0.5,0-0.9-0.1-0.9-1.2c0-1-0.3-2.6,0.2-2.6C53.1,74,54.1,75.5,54.1,76.5
				z"/>
			<path fill="#BC4444" d="M38.6,49c-1.7,5.3-2.3,6.1-2.8,5.9s-0.6-1.1,1.1-6.4s4.5-13,4.9-12.9S40.3,43.7,38.6,49z"/>
		</g>
	</g>
</g>
</svg>
