<?xml version="1.0" encoding="utf-8"?>
<!-- Generator: Adobe Illustrator 18.0.0, SVG Export Plug-In . SVG Version: 6.00 Build 0)  -->
<!DOCTYPE svg PUBLIC "-//W3C//DTD SVG 1.1//EN" "http://www.w3.org/Graphics/SVG/1.1/DTD/svg11.dtd">
<svg version="1.1" id="图层_1" xmlns="http://www.w3.org/2000/svg" xmlns:xlink="http://www.w3.org/1999/xlink" x="0px" y="0px"
	 viewBox="0 0 612 792" enable-background="new 0 0 612 792" xml:space="preserve">
<g id="图层_1_1_" display="none">
	<rect x="-3519" y="-3429" display="inline" fill="#777676" width="7650" height="7650"/>
	<path display="inline" fill="#C69C6D" d="M-702.3-841"/>
</g>
<g id="身体">
	<g id="身体1" display="none">
		<g display="inline">
			<path fill="#8C6239" d="M398.7,160.7l-41.3-14.5l23.7,36.7c57.4,91,81.9,101.7,93.3,101.7c2.3,0,3.8-0.8,5.4-0.8
				c6.1-1.5,16.1-6.9,16.8-25.2C501.2,198.2,409.4,164.5,398.7,160.7z"/>
			<path fill="#744D28" d="M407.1,163.8c-3.8-1.5-6.9-2.3-8.4-3.1l-39.8-13.8c30.6,18.4,53.6,55.8,60.4,92.6
				c14.5,19.1,26,29.8,34.4,36.7c0-3.1,0.8-6.1,0.8-9.2C454.6,230.3,435.4,189,407.1,163.8z"/>
			<path fill="#8C6239" d="M346.7,318.3c0,19.9-6.9,36-26.8,36s-26.8-16.1-26.8-36s6.9-36,26.8-36
				C339.1,282.3,346.7,298.4,346.7,318.3z"/>
			<path fill="#333333" d="M190.6,291.5c-38.3,0-69.6,31.4-69.6,69.6h139.2C260.3,322.9,228.9,291.5,190.6,291.5z"/>
			<path d="M202.1,293.1c29.8,8.4,51.3,36.7,51.3,68.8h6.9C260.3,326.7,235,298.4,202.1,293.1z"/>
			<path fill="#C69C6D" d="M452.3,291.5c-38.3,0-69.6,31.4-69.6,69.6h140C522.7,322.9,491.3,291.5,452.3,291.5z"/>
			<path fill="#8C6239" stroke="#8C6239" stroke-width="4" stroke-miterlimit="10" d="M245,175.2c0,0-91.8,31.4-88,82.6
				C160,309.1,245,175.2,245,175.2z"/>
			<path fill="#744D28" d="M277.1,148.5l-22.2,34.4c-57.4,90.3-82.6,101.7-94.1,101.7l0,0c1.5,0,2.3,0.8,3.8,0.8
				c11.5,0,36.7-11.5,94.1-101.7l23.7-36.7L277.1,148.5z"/>
			<path fill="#AA8561" d="M150.1,263.2c-3.8-61.2,88-94.1,98.7-97.9l26.8-9.2l6.1-9.2l-41.3,14.5c-10.7,3.1-102.5,36.7-98.7,97.2
				c1.5,18.4,11.5,23.7,16.8,25.2c0,0,0,0,0.8,0C154.7,280.8,150.9,273.9,150.1,263.2z"/>
			<path fill="#AA8561" d="M403.3,169.9c8.4,3.1,65.8,23.7,89.5,62c-19.1-43.6-84.9-67.3-93.3-70.4L358.2,147l6.1,9.2L403.3,169.9z"
				/>
			<path fill="#C69C6D" d="M421.7,261.7c0,56.6-45.9,78.8-102.5,78.8s-101.7-23-101.7-78.8s45.8-125.5,102.4-125.5
				S421.7,205.1,421.7,261.7z"/>
			<path fill="#BD9261" d="M393.4,179.1c14.5,23,22.9,49.7,22.9,74.2c0,56.6-45.9,78.8-102.5,78.8c-36.7,0-68.8-9.2-86.4-31.4
				c16.1,28.3,51.3,39.8,92.6,39.8c56.6,0,102.5-22.2,102.5-78.8C421.7,234.1,411,202.8,393.4,179.1z"/>
			<path fill="#DCB890" d="M224.3,267.8c0-56.6,45.9-125.5,102.5-125.5c20.7,0,39,9.2,55.1,23c-16.8-17.6-38.3-29.8-62-29.8
				c-56.6,0-102.5,69.6-102.5,125.5c0,25.2,9.2,43.6,23.7,55.8C230.4,305.3,224.3,289.2,224.3,267.8z"/>
			<g>
				<g>
					<path fill="#333333" d="M323.8,289.2c-1.5-6.9-12.2-13-12.2-13v-0.8c0.8,0,12.2,5.4,13.8,13L323.8,289.2z"/>
				</g>
				<g>
					<path fill="#333333" d="M313.8,288.5H313c1.5-9.2,13-13.8,13.8-14.5l0.8,2.3C327.6,277,315.3,280.8,313.8,288.5z"/>
				</g>
				<g>
					<path fill="#333333" d="M319.2,300.7c-11.5,0-20.7-9.2-20.7-20.7c0-6.1,3.1-12.2,7.6-16.1c0.8-0.8,2.3-0.8,3.1,0s0.8,2.3,0,3.1
						c-3.8,3.1-6.1,7.7-6.1,13c0,9.2,7.7,16.8,16.8,16.8s16.8-7.6,16.8-16.8c0-4.6-2.3-9.2-5.4-12.2c-0.8-0.8-0.8-1.5,0-3.1
						c0.8-0.8,1.5-0.8,3.1,0c4.6,3.8,6.9,9.2,6.9,15.3C339.8,291.5,330.6,300.7,319.2,300.7z"/>
				</g>
			</g>
			<path fill="#535353" d="M196,292.3c-1.5,0-3.1,0-5.4,0c-38.3,0-69.6,31.4-69.6,69.6h9.9C131,325.2,159.3,294.6,196,292.3z"/>
			<path fill="#BD9261" d="M462.2,292.3c-3.1-0.8-6.1-0.8-9.9-0.8c-38.3,0-69.6,31.4-69.6,69.6h23.7
				C406.4,327.5,430.1,299.2,462.2,292.3z"/>
		</g>
	</g>
	<g id="身体2">
		<g>
			<path fill="#8C6239" d="M404.1,208.1l-41.3-14.5l23.7,36.7c57.4,90.3,82.6,101.7,94.1,101.7c2.3,0,3.8-0.8,5.4-0.8
				c6.1-1.5,16.1-6.9,16.8-25.2C507.4,244.9,414.8,211.2,404.1,208.1z"/>
			<path fill="#744D28" d="M412.5,211.2c-3.8-1.5-6.9-2.3-8.4-3.1l-39.8-13.8c30.6,18.4,53.5,55.8,60.4,92.6
				c14.5,19.1,26,29.8,34.4,36.7c0-3.1,0.8-6.1,0.8-9.2C460.7,277.8,441.6,236.4,412.5,211.2z"/>
			<path fill="#8C6239" d="M233.5,216.6c-10.7-16.8-20.7-31.4-29.1-42.8c7.6-9.2,13-20.7,13-33.7c0-28.3-22.9-51.3-51.3-51.3
				c-28.4,0-51.3,22.9-51.3,51.3c0,6.1,1.5,12.2,3.1,17.6c11.5,50.5,88,78,97.2,81.9l41.3,14.5L233.5,216.6z"/>
			<path fill="#744D28" d="M233.5,216.6c-10.7-16.8-20.7-31.4-29.1-42.8c7.6-9.2,13-20.7,13-33.7c0-23-15.3-42.1-36-49
				c17.6,8.4,29.8,26,29.8,46.7c0,13-4.6,24.5-13,33.7c8.4,11.5,18.4,26,29.1,42.8L251,251l-41.3-14.5c-0.8,0-1.5-0.8-2.3-0.8
				c3.8,1.5,6.9,3.1,8.4,3.1l41.3,14.5L233.5,216.6z"/>
			<path fill="#333333" d="M196,339c-38.3,0-69.6,31.4-69.6,69.6h140C266.4,370.3,235,339,196,339z"/>
			<path d="M208.2,339.7c29.8,8.4,51.3,36.7,51.3,68.9h6.1C266.4,374.1,241.1,345.1,208.2,339.7z"/>
			<path fill="#535353" d="M201.4,339c-1.5,0-3.1,0-5.4,0c-38.3,0-69.6,31.4-69.6,69.6h9.9C136.3,371.8,165.4,341.2,201.4,339z"/>
			<path fill="#8C6239" d="M352.1,365.7c0,19.9-6.9,36-26.8,36s-26.8-16.1-26.8-36c0-19.9,6.9-36,26.8-36S352.1,345.8,352.1,365.7z"
				/>
			<path fill="#C69C6D" d="M458.4,339c-38.3,0-69.6,31.4-69.6,69.6h139.2C528,370.3,496.6,339,458.4,339z"/>
			<path fill="#AA8561" d="M404.1,208.1l-41.3-14.5l2.3,3.1l39,13c10.7,3.8,102.5,37.5,98.7,97.9c0,3.8-0.8,6.9-1.5,9.9
				c1.5-3.1,2.3-6.9,2.3-12.2C506.6,244.9,414.8,211.2,404.1,208.1z"/>
			<path fill="#C69C6D" d="M427.8,308.4c0,56.6-45.9,78.8-102.5,78.8S222.8,365,222.8,308.4s45.9-125.5,102.5-125.5
				S427.8,251.7,427.8,308.4z"/>
			<path fill="#BD9261" d="M467.6,339c-3.1-0.8-6.1-0.8-9.9-0.8c-38.3,0-69.6,31.4-69.6,69.6h23.7
				C412.5,374.9,436.2,345.8,467.6,339z"/>
			<path fill="#BD9261" d="M398.7,225.7c14.5,23,23,49.7,23,74.2c0,56.6-45.9,78.8-102.5,78.8c-36.7,0-68.9-9.2-86.4-31.4
				c16.1,28.3,51.3,39.8,92.6,39.8c56.6,0,102.5-22.2,102.5-78.8C427.8,280.8,416.3,250.2,398.7,225.7z"/>
			<path fill="#DCB890" d="M229.7,315.2c0-56.6,45.9-125.5,102.5-125.5c20.7,0,39,9.2,55.1,23c-16.8-17.6-38.3-29.8-62-29.8
				c-56.6,0-102.5,69.6-102.5,125.5c0,25.2,9.2,43.6,23.7,55.8C236.5,352,229.7,335.9,229.7,315.2z"/>
			<g>
				<path fill="#333333" d="M329.9,335.9c-1.5-6.9-12.2-13-12.2-13v-0.8c0.8,0,12.2,5.4,13.8,13L329.9,335.9z"/>
			</g>
			<g>
				<path fill="#333333" d="M319.2,335.9h-0.8c1.5-9.2,13-13.8,13.8-14.5l0.8,2.3C332.9,323.7,320.7,327.5,319.2,335.9z"/>
			</g>
			<g>
				<path fill="#333333" d="M325.3,348.1c-11.5,0-20.7-9.2-20.7-20.7c0-6.1,3.1-12.2,7.6-16.1c0.8-0.8,2.3-0.8,3.1,0
					c0.8,0.8,0.8,2.3,0,3.1c-3.8,3.1-6.1,7.6-6.1,13c0,9.2,7.7,16.8,16.8,16.8s16.8-7.7,16.8-16.8c0-4.6-2.3-9.2-5.4-12.2
					c-0.8-0.8-0.8-1.5,0-3.1c0.8-0.8,1.5-0.8,3.1,0c4.6,3.8,6.9,9.2,6.9,15.3C345.2,339,336,348.1,325.3,348.1z"/>
			</g>
			<path fill="#AA8561" d="M124.9,165.3c-2.3-5.4-3.1-11.5-3.1-17.6c0-28.3,23-51.3,51.3-51.3c13.8,0,26,5.4,35.2,13.8
				c-9.2-13-24.5-21.4-41.3-21.4c-28.3,0-51.3,22.9-51.3,51.3c0,6.1,1.5,12.2,3.1,17.6c3.1,13.8,10.7,25.2,20.7,36
				C131.7,185.2,127.2,175.2,124.9,165.3z"/>
		</g>
	</g>
	<g id="身体3" display="none">
		<path display="inline" fill="#C69C6D" d="M14.7-1699.8c-38.3,0-69.6,31.4-69.6,69.6h140C85.1-1668.4,53.7-1699.8,14.7-1699.8z"/>
		<path display="inline" fill="#BD9261" d="M24.6-1699c-3.1-0.8-6.1-0.8-9.9-0.8c-38.3,0-69.6,31.4-69.6,69.6h23.7
			C-31.2-1663.1-7.5-1692.1,24.6-1699z"/>
		<path display="inline" fill="#333333" d="M-248.5-1699.8c-38.3,0-69.6,31.4-69.6,69.6h140
			C-178.8-1668.4-210.3-1699.8-248.5-1699.8z"/>
		<path display="inline" d="M-237-1698.2c29.8,8.4,51.3,36.7,51.3,68.8h6.1C-178.8-1663.8-203.3-1692.9-237-1698.2z"/>
		<path display="inline" fill="#535353" d="M-243.1-1699c-1.5,0-3.1,0-5.4,0c-38.3,0-69.6,31.4-69.6,69.6h9.9
			C-308.1-1666.1-279.8-1696.7-243.1-1699z"/>
		<path display="inline" fill="#8C6239" d="M-93.2-1673c0,19.9-6.9,36-26.8,36s-26.8-16.1-26.8-36s6.9-36,26.8-36
			S-93.2-1692.1-93.2-1673z"/>
		<path display="inline" fill="#8C6239" d="M-201-1807.6c-9.2,6.1-89.5,62.7-69.6,120.1c6.1,17.6,16.8,19.9,23,19.9l0,0
			c8.4,0,31.4-0.8,69.6-123.2l13-42.1L-201-1807.6z"/>
		<path display="inline" fill="#744D28" d="M-175.8-1824.5l-13,41.3c-22.9,73.4-40.5,103.3-52.8,114.8
			c11.5-3.8,32.1-22.9,63.5-122.4l13-42.1L-175.8-1824.5z"/>
		<path display="inline" fill="#AA8561" d="M-262.2-1674.5c-19.9-57.4,52.8-120.9,62-127l33.7-24.5l1.5-4.6l-36,24.5
			c-9.2,6.1-89.5,62.7-69.6,120.1c3.1,7.6,6.9,13,10.7,15.3C-260.7-1672.2-261.5-1673.8-262.2-1674.5z"/>
		<path display="inline" fill="#8C6239" d="M-43.4-1807.6l-36-24.5l13,42.1c38.3,122.4,61.2,123.2,69.6,123.2l0,0
			c6.1,0,16.8-2.3,23-19.9C46.1-1744.9-34.3-1800.8-43.4-1807.6z"/>
		<path display="inline" fill="#C69C6D" d="M-17.4-1729.6c0,56.6-45.9,78.8-102.5,78.8s-101.7-22.2-101.7-78.8
			c0-56.6,45.9-125.5,102.5-125.5S-17.4-1786.2-17.4-1729.6z"/>
		<path display="inline" fill="#744D28" d="M-13.6-1783.2c-12.2-11.5-23.7-19.9-28.3-23.7c15.3,23,24.5,51.3,24.5,76.5
			c0,15.3-3.1,27.5-9.2,38.3c1.5,3.1,3.8,5.4,5.4,7.7c11.5-12.2,18.4-29.1,18.4-50.5C-3.7-1750.3-6.7-1767.1-13.6-1783.2z"/>
		<path display="inline" fill="#BD9261" d="M-46.5-1812.2c14.5,23,22.9,49.7,22.9,74.2c0,56.6-45.9,78.8-102.5,78.8
			c-36.7,0-68.9-9.2-86.4-31.4c16.1,28.3,51.3,39.8,92.6,39.8c56.6,0,102.5-22.2,102.5-78.8C-17.4-1757.1-28.1-1788.5-46.5-1812.2z"
			/>
		<path display="inline" fill="#DCB890" d="M-214.8-1723.5c0-56.6,45.9-125.5,102.5-125.5c20.7,0,39,9.2,55.1,22.9
			c-16.8-17.6-38.3-29.8-62-29.8c-56.6,0-102.5,69.6-102.5,125.5c0,25.2,9.2,43.6,23.7,55.8C-208.8-1686-214.8-1702.1-214.8-1723.5z
			"/>
		<g display="inline">
			<path fill="#333333" d="M-115.4-1702.1c-1.5-6.9-12.2-13-12.2-13v-0.8c0.8,0,12.2,5.4,13.8,13L-115.4-1702.1z"/>
		</g>
		<g display="inline">
			<path fill="#333333" d="M-126.1-1702.8h-0.8c1.5-9.2,13-13.8,13.8-14.5l0.8,2.3C-112.3-1714.3-124.5-1710.5-126.1-1702.8z"/>
		</g>
		<g display="inline">
			<path fill="#333333" d="M-119.9-1690.6c-11.5,0-20.7-9.2-20.7-20.7c0-6.1,3.1-12.2,7.7-16.1c0.8-0.8,2.3-0.8,3.1,0
				c0.8,0.8,0.8,2.3,0,3.1c-3.8,3.1-6.1,7.6-6.1,13c0,9.2,7.6,16.8,16.8,16.8s16.8-7.7,16.8-16.8c0-4.6-2.3-9.2-5.4-12.2
				c-0.8-0.8-0.8-1.5,0-3.1c0.8-0.8,1.5-0.8,3.1,0c4.6,3.8,6.9,9.2,6.9,15.3C-99.3-1699-108.5-1690.6-119.9-1690.6z"/>
		</g>
	</g>
	<g id="身体4" display="none">
		<path display="inline" fill="#8C6239" d="M-99.3-1639.3c-2.3,19.9-10.7,35.2-30.6,32.9s-25.2-18.4-23-38.3
			c2.3-19.9,10.7-35.2,30.6-32.9S-97-1659.2-99.3-1639.3z"/>
		<path display="inline" fill="#333333" d="M-256.9-1676.8c-27.5,27.5-26.8,71.9,0,98.7l98.7-99.4
			C-185.8-1704.4-229.3-1704.4-256.9-1676.8z"/>
		<path display="inline" fill="#0E0E0E" d="M-263.8-1586.6c2.3,3.1,4.6,6.1,6.9,8.4l88.7-88.7L-263.8-1586.6z"/>
		<path display="inline" fill="#535353" d="M-248.5-1662.3c22.9-23.7,55.8-31.4,81.9-22.2c-27.5-19.9-65.8-16.8-90.3,7.7
			c-19.1,19.1-24.5,45.9-17.6,69.6C-272.9-1627.1-264.5-1647-248.5-1662.3z"/>
		<path display="inline" fill="#C69C6D" d="M5.5-1657.7c-37.5-8.4-75,16.1-83.4,53.6l75.7,27.5l61.2,1.5
			C67.5-1612.6,43-1649.3,5.5-1657.7z"/>
		<path display="inline" fill="#BD9261" d="M42.2-1629.4c2.3,0.8,4.6,0.8,6.9,1.5c-9.9-14.5-25.2-26-43.6-29.8
			c-37.5-8.4-75,16.1-83.4,53.6l41.3,15.3C-23.6-1618.7,9.3-1637,42.2-1629.4z"/>
		<path display="inline" fill="#8C6239" d="M-178.1-1793.1c-36.7-123.2-59.7-123.9-68.1-123.9c-6.1,0-16.8,2.3-23.7,19.9
			c-20.7,57.4,58.9,114.8,68.1,120.9l36,25.2L-178.1-1793.1z"/>
		<path display="inline" fill="#744D28" d="M-183.4-1796.9l9.9,41.3l9.9,6.9l-12.2-42.1c-7.6-26-14.5-45.9-21.4-62
			C-193.4-1838.2-188-1819.9-183.4-1796.9z"/>
		<path display="inline" fill="#AA8561" d="M-259.9-1883.4c6.1-17.6,17.6-19.9,23.7-19.9c3.8,0,11.5,0,22.2,13.8
			c-16.1-28.3-26-28.3-31.4-28.3c-6.1,0-16.8,2.3-23.7,19.9c-9.2,26,1.5,51.3,17.6,72.7C-261.5-1842.8-266.8-1862.7-259.9-1883.4z"
			/>
		<path display="inline" fill="#8C6239" d="M7.8-1895.6c-12.2-13.8-23.7-12.2-29.1-9.9c-7.6,3.1-29.1,12.2-17.6,140l3.8,43.6
			l24.5-36.7C-5.2-1767.1,47.6-1849.7,7.8-1895.6z"/>
		<path display="inline" fill="#744D28" d="M21.6-1864.2c-5.4,41.3-36.7,84.2-41.3,91l-17.6,27.5l2.3,26l24.5-36.7
			C-6-1763.3,29.2-1819.1,21.6-1864.2z"/>
		<path display="inline" fill="#AA8561" d="M-19-1889.5c5.4-2.3,16.8-4.6,29.1,9.9c6.1,6.9,9.9,14.5,12.2,22.9
			c-0.8-13.8-4.6-27.5-14.5-39c-12.2-13.8-23.7-12.2-29.1-9.9c-6.9,3.1-24.5,10.7-20.7,101.7C-42.7-1878.8-25.1-1886.4-19-1889.5z"
			/>
		<path display="inline" fill="#C69C6D" d="M-12.1-1702.1c-6.9,55.8-55.1,72.7-110.9,65s-98.7-34.4-91.8-91
			c6.9-55.8,61.2-119.3,117-111.7S-5.2-1757.9-12.1-1702.1z"/>
		<path display="inline" fill="#BD9261" d="M-41.1-1803c19.9,28.3,29.8,65,26,96.4c-6.9,57.4-58.9,73.4-118.6,65.8
			c-13.8-1.5-26-4.6-37.5-8.4c13.8,6.9,30.6,11.5,48.2,13.8c55.8,6.9,104-9.2,110.9-65C-7.5-1735-19-1774.7-41.1-1803z"/>
		<path display="inline" fill="#DCB890" d="M-201.8-1715.1c6.9-55.8,61.2-119.3,117-111.7c13.8,1.5,26,7.7,36.7,16.1
			c-13.8-15.3-30.6-26-50.5-28.3c-55.8-6.9-110.2,55.8-117,111.7c-3.8,31.4,7.6,53.6,28.3,68.9
			C-198.8-1673-204.9-1692.1-201.8-1715.1z"/>
		<g display="inline">
			<g>
				<path fill="#333333" d="M-107.7-1694.4c-1.5-6.9-12.2-13-12.2-13v-0.8c0.8,0,12.2,5.4,13.8,13L-107.7-1694.4z"/>
			</g>
			<g>
				<path fill="#333333" d="M-118.4-1694.4h-0.8c1.5-9.2,13-13.8,13.8-14.5l0.8,2.3C-104.6-1706.7-116.9-1702.8-118.4-1694.4z"/>
			</g>
			<g>
				<path fill="#333333" d="M-112.3-1682.2c-11.5,0-20.7-9.2-20.7-20.7c0-6.1,3.1-12.2,7.6-16.1c0.8-0.8,2.3-0.8,3.1,0
					s0.8,2.3,0,3.1c-3.8,3.1-6.1,7.6-6.1,13c0,9.2,7.7,16.8,16.8,16.8c9.2,0,16.8-7.7,16.8-16.8c0-4.6-2.3-9.2-5.4-12.2
					c-0.8-0.8-0.8-1.5,0-3.1c0.8-0.8,1.5-0.8,3.1,0c4.6,3.8,6.9,9.2,6.9,15.3C-91.6-1691.4-100.8-1682.2-112.3-1682.2z"/>
			</g>
		</g>
	</g>
	<g id="身体5" display="none">
		<path display="inline" fill="#C69C6D" d="M17-1699.8c-38.3,0-69.6,31.4-69.6,69.6h140C87.4-1668.4,56-1699.8,17-1699.8z"/>
		<path display="inline" fill="#BD9261" d="M26.9-1699c-3.1-0.8-6.1-0.8-9.9-0.8c-38.3,0-69.6,31.4-69.6,69.6h23.7
			C-28.9-1663.1-5.2-1692.1,26.9-1699z"/>
		<path display="inline" fill="#333333" d="M-246.2-1699.8c-38.3,0-69.6,31.4-69.6,69.6h140
			C-176.6-1668.4-207.9-1699.8-246.2-1699.8z"/>
		<path display="inline" d="M-234.8-1699c29.8,8.4,51.3,36.7,51.3,68.8h6.1C-176.6-1664.6-201.8-1692.9-234.8-1699z"/>
		<path display="inline" fill="#535353" d="M-240.8-1699c-1.5,0-3.1,0-5.4,0c-38.3,0-69.6,31.4-69.6,69.6h9.9
			C-305.8-1666.1-277.5-1696.7-240.8-1699z"/>
		<path display="inline" fill="#8C6239" d="M-90.1-1673c0,19.9-6.9,36-26.8,36s-26.8-16.1-26.8-36s6.9-36,26.8-36
			S-90.1-1692.1-90.1-1673z"/>
		<path display="inline" fill="#C69C6D" d="M-15.1-1729.6c0,56.6-45.9,78.8-102.5,78.8s-102.5-22.2-102.5-78.8
			c0-56.6,45.9-125.5,102.5-125.5S-15.1-1786.2-15.1-1729.6z"/>
		<path display="inline" fill="#B18451" d="M-44.2-1812.2c13,22.2,21.4,48.2,21.4,71.1c0,56.6-45.9,78.8-102.5,78.8
			c-36.7,0-68.9-9.2-86.4-31.4c15.3,30.6,52,42.8,94.1,42.8c56.6,0,102.5-22.2,102.5-78.8C-15.1-1757.1-26.6-1788.5-44.2-1812.2z"/>
		<path display="inline" fill="#DCB890" d="M-204.1-1714.3c0-56.6,45.9-125.5,102.5-125.5c19.1,0,37.5,8.4,52.8,20.7
			c-18.4-21.4-42.1-36-68.1-36c-56.6,0-102.5,69.6-102.5,125.5c0,27.5,10.7,46.7,28.3,58.9C-199.5-1682.2-204.1-1696.7-204.1-1714.3
			z"/>
		<path display="inline" fill="#8C6239" d="M-32-1803.8l-32.1-29.8l6.1,43.6c18.4,127,40.5,130.8,49,132.3c0.8,0,2.3,0,3.8,0
			c6.1,0,15.3-3.1,22.2-16.1C46.1-1728.1-23.6-1796.2-32-1803.8z"/>
		<path display="inline" fill="#744D28" d="M-3.7-1771.7c14.5,29.8,27.5,70.4,10.7,101.7c-3.1,6.1-6.9,9.9-10.7,12.2
			c6.1-0.8,14.5-3.8,20.7-16.1C35.4-1706.7,16.2-1744.9-3.7-1771.7z"/>
		<path display="inline" fill="#AA8561" d="M-43.4-1793.1l-3.8-25.2l-16.8-16.1l6.1,43.6c13.8,96.4,29.8,122.4,40.5,129.3
			C-24.3-1683.7-33.5-1723.5-43.4-1793.1z"/>
		<path display="inline" fill="#8C6239" d="M-203.3-1798.5c-7.7,8.4-71.1,82.6-37.5,133.9c7.6,11.5,16.1,14.5,22.2,14.5
			c2.3,0,3.8,0,5.4-0.8c8.4-2.3,30.6-8.4,37.5-136.2l2.3-43.6L-203.3-1798.5z"/>
		<path display="inline" fill="#744D28" d="M-222.5-1657.7c-1.5,0.8-3.1,0.8-5.4,0.8s-5.4-0.8-7.7-1.5c6.1,6.1,12.2,7.6,16.8,7.6
			c2.3,0,3.8,0,5.4-0.8c7.7-2.3,26.8-7.7,35.2-107.9C-191.1-1682.2-216.3-1659.2-222.5-1657.7z"/>
		<path display="inline" fill="#AA8561" d="M-198-1788.5l22.9-26l0.8-16.8l-29.1,32.9c-7.7,8.4-71.1,82.6-37.5,133.9l0.8,0.8
			C-262.2-1714.3-204.9-1780.9-198-1788.5z"/>
		<g display="inline">
			<g>
				<path fill="#333333" d="M-111.5-1705.1c-1.5-6.9-12.2-13-12.2-13v-0.8c0.8,0,12.2,5.4,13.8,13L-111.5-1705.1z"/>
			</g>
			<g>
				<path fill="#333333" d="M-121.5-1705.9h-0.8c1.5-9.2,13-13.8,13.8-14.5l0.8,2.3C-107.7-1717.4-119.9-1713.5-121.5-1705.9z"/>
			</g>
			<g>
				<path fill="#333333" d="M-115.4-1692.9c-11.5,0-20.7-9.2-20.7-20.7c0-6.1,3.1-12.2,7.6-16.1c0.8-0.8,2.3-0.8,3.1,0
					s0.8,2.3,0,3.1c-3.8,3.1-6.1,7.7-6.1,13c0,9.2,7.7,16.8,16.8,16.8c9.2,0,16.8-7.7,16.8-16.8c0-4.6-2.3-9.2-5.4-12.2
					c-0.8-0.8-0.8-1.5,0-3.1c0.8-0.8,1.5-0.8,3.1,0c4.6,3.8,6.9,9.2,6.9,15.3C-95.5-1702.1-104.6-1692.9-115.4-1692.9z"/>
			</g>
		</g>
	</g>
	<g id="身体6" display="none">
		<g display="inline">
			<path fill="#8C6239" d="M509.7,169.9c-10.7-18.4-29.8-23.7-48.2-13c-0.8,0-57.4,36-41.3,63.5c4.6,8.4,14.5,11.5,25.2,11.5
				c20.7,0,46.7-10.7,51.3-13.8c12.2-6.9,16.1-16.1,17.6-23C516.5,186.7,514.2,178.3,509.7,169.9z"/>
			<path fill="#744D28" d="M457.6,166.1c-3.1,0-6.1,0-9.2,0.8c-16.1,13-38.3,35.2-28.3,53.6c4.6,8.4,14.5,11.5,25.2,11.5
				c20.7,0,46.7-10.7,51.3-13.8c12.2-6.9,16.1-16.1,17.6-23c0-1.5,0-3.1,0.8-4.6C498.9,176,479.1,166.1,457.6,166.1z"/>
			<line fill="none" x1="290.9" y1="92.6" x2="293.2" y2="140.1"/>
			<path fill="#C69C6D" d="M427,251c0,56.6-45.9,78.8-102.5,78.8S222,307.6,222,251s45.9-125.5,102.5-125.5S427,195.1,427,251z"/>
			<g>
				<path fill="#B18451" d="M392.6,161.5c19.1,24.5,31.4,55.1,31.4,83.4c0,56.6-48.2,78.8-108.6,78.8c-21.4,0-42.1-3.1-58.9-9.2
					c18.4,10.7,42.1,16.1,68.1,16.1c56.6,0,102.5-22.2,102.5-78.8C427,221.1,413.3,186.7,392.6,161.5z"/>
				<path fill="#B18451" d="M390.3,159.9c-0.8-0.8-0.8-0.8-1.5-1.5C389.5,158.4,390.3,159.2,390.3,159.9z"/>
			</g>
			<path fill="#DCB890" d="M241.9,272.4c0-56.6,45.9-125.5,102.5-125.5c19.9,0,39,9.2,54.3,23c-18.4-25.2-44.4-43.6-73.4-43.6
				c-56.6,0-102.5,69.6-102.5,125.5c0,27.5,10.7,46.7,28.3,59.7C245,299.9,241.9,287.7,241.9,272.4z"/>
			
				<ellipse transform="matrix(-0.9668 0.2557 -0.2557 -0.9668 313.0217 559.0632)" fill="#C69C6D" cx="120.2" cy="299.9" rx="43.6" ry="58.9"/>
			<path fill="#DCB890" d="M91.2,326.7c-8.4-31.4,3.8-62,27.5-68.1c12.2-3.1,25.2,0.8,36,9.9c-11.5-19.9-31.4-31.4-49.7-26.8
				c-23.7,6.9-36,37.5-27.5,68.8c3.8,15.3,11.5,27.5,21.4,36C95.8,340.5,92.7,333.6,91.2,326.7z"/>
			<ellipse fill="#333333" cx="205.9" cy="407.8" rx="27.5" ry="37.5"/>
			<path fill="#535353" d="M192.9,418.5c0-20.7,12.2-37.5,27.5-37.5c1.5,0,3.1,0,5.4,0.8c-5.4-7.7-12.2-12.2-20.7-12.2
				c-15.3,0-27.5,16.8-27.5,37.5c0,18.4,9.9,33.7,23,36.7C195.2,436.9,192.9,427.7,192.9,418.5z"/>
			
				<ellipse transform="matrix(-0.866 -0.5 0.5 -0.866 597.9131 966.8918)" fill="#333333" cx="428.5" cy="403.3" rx="35.2" ry="43.6"/>
			<path fill="#535353" d="M406.4,396.3c12.2-20.7,35.2-29.8,52-19.9c0.8,0.8,2.3,1.5,3.1,2.3c-2.3-5.4-6.1-9.9-11.5-13
				c-16.8-9.9-39.8-0.8-52,19.9c-11.5,19.1-8.4,42.1,5.4,52.8C398,426.9,398,410.9,406.4,396.3z"/>
			
				<ellipse transform="matrix(-0.9851 0.1722 -0.1722 -0.9851 705.7888 795.6255)" fill="#C69C6D" cx="318.4" cy="428.4" rx="46.7" ry="63.5"/>
			<path fill="#DCB890" d="M286.3,456c-6.1-34.4,9.9-65.8,35.2-70.4c12.2-2.3,25.2,2.3,35.2,11.5c-10.7-21.4-29.8-34.4-49.7-30.6
				c-25.2,4.6-41.3,36-35.2,70.4c3.1,17.6,11.5,32.9,22.2,42.1C290.1,472.1,287.8,464.4,286.3,456z"/>
			
				<ellipse transform="matrix(-0.99 -0.1411 0.1411 -0.99 923.573 725.0361)" fill="#C69C6D" cx="487.5" cy="329.8" rx="17.6" ry="23.7"/>
			<path fill="#DCB890" d="M474.5,332.8c1.5-13,11.5-22.2,20.7-20.7c2.3,0,4.6,1.5,6.9,3.1c-2.3-4.6-6.1-7.6-11.5-8.4
				c-9.9-1.5-19.1,7.6-20.7,20.7c-1.5,9.2,1.5,18.4,7.6,23C475.2,345.8,473.7,339.7,474.5,332.8z"/>
			<path fill="#8C6239" d="M404.1,6.9c-3.8-1.5-9.2-1.5-16.1,0c-59.7,12.2-68.1,109.4-68.9,120.9l-3.1,43.6l29.8-32.1
				c12.2-13.8,22.2-25.2,31.4-36c6.9,3.8,15.3,5.4,23.7,5.4c28.3,0,51.3-22.9,51.3-51.3C451.5,31.4,430.9,9.2,404.1,6.9z"/>
			<path fill="#744D28" d="M448.5,42.1c0.8,3.1,0.8,5.4,0.8,8.4c0,28.3-22.9,51.3-51.3,51.3c-8.4,0-16.1-2.3-23.7-5.4
				c-5.4,6.9-18.4,27.5-29.8,44.4l0.8-0.8c12.2-13.8,22.2-25.2,31.4-36c6.9,3.8,15.3,5.4,23.7,5.4c28.3,0,51.3-22.9,51.3-51.3
				C451.5,52.8,450,46.7,448.5,42.1z"/>
			<path fill="#AA8561" d="M395.7,25.3c6.9-1.5,12.2-0.8,16.1,0c16.1,1.5,29.8,9.9,38.3,22.2c-4.6-22.2-23-39-45.9-40.5
				c-3.8-1.5-9.2-1.5-16.1,0c-59.7,12.2-68.1,109.4-68.9,120.9l-0.8,13C322.2,117.9,341.4,36,395.7,25.3z"/>
			<path fill="#8C6239" d="M567.8,340.5"/>
			<path fill="#AA8561" d="M567,339.7"/>
			<path fill="#B18451" d="M567.8,338.2"/>
		</g>
	</g>
	<g id="身体7" display="none">
		<path display="inline" fill="#333333" d="M-206.4-1700.5c-38.3,0-68.9,23.7-68.9,62l45.9,7.7h92.6
			C-136.8-1669.9-168.1-1700.5-206.4-1700.5z"/>
		<path display="inline" fill="#535353" d="M-194.1-1693.7c9.2,0,18.4,1.5,26.8,5.4c-11.5-7.7-24.5-12.2-39-12.2
			c-38.3,0-68.9,23.7-68.9,62l13,2.3C-260.7-1672.2-230.1-1693.7-194.1-1693.7z"/>
		<path display="inline" d="M-141.4-1631.7L-141.4-1631.7l3.8,0.8c0-19.1-7.6-36.7-20.7-49C-146.8-1667.6-140.6-1650.8-141.4-1631.7
			L-141.4-1631.7z"/>
		<path display="inline" fill="#8C6239" d="M-51.9-1673.8c0,19.9-6.9,35.2-26.8,35.2s-26.8-16.1-26.8-35.2
			c0-19.9,6.9-35.2,26.8-35.2S-51.9-1693.7-51.9-1673.8z"/>
		<path display="inline" fill="#C69C6D" d="M-17.4-1700.5c-32.1,0-58.1,31.4-58.1,68.8H40.7C40.7-1669.9,14.7-1700.5-17.4-1700.5z"
			/>
		<path display="inline" fill="#8C6239" d="M-157.4-1824.5c-9.2,6.1-88,62.7-68.1,119.3c6.1,16.8,16.8,19.9,22.9,19.9c0,0,0,0,0.8,0
			c8.4,0,31.4-0.8,68.1-122.4l13-42.1L-157.4-1824.5z"/>
		<path display="inline" fill="#AA8561" d="M-214.8-1699.8c-9.9-29.1,1.5-62,16.8-88c-19.9,23-38.3,52.8-27.5,83.4
			c5.4,15.3,14.5,19.1,20.7,19.9C-208.8-1688.3-211.8-1692.9-214.8-1699.8z"/>
		<path display="inline" fill="#C69C6D" d="M-7.5-1730.4c0,55.8-45.1,78-101,78s-101-22.2-101-78s45.1-124.7,101-124.7
			S-7.5-1786.2-7.5-1730.4z"/>
		<path display="inline" fill="#BD9261" d="M-75.6-1634c42.8-3.1,76.5-20.7,84.9-58.1c-6.9-4.6-14.5-7.6-22.9-8.4
			c-9.2,23.7-30.6,37.5-58.1,43.6C-74-1649.3-75.6-1641.6-75.6-1634z"/>
		<path display="inline" fill="#B18451" d="M-58.7-1835.9c26,25.2,43.6,64.3,43.6,98.7c0,55.8-45.1,78-101,78
			c-29.8,0-55.8-6.1-74.2-19.9c18.4,18.4,48.2,26.8,81.9,26.8c55.8,0,101-22.2,101-78C-7.5-1767.9-28.1-1811.5-58.7-1835.9z"/>
		<path display="inline" fill="#DCB890" d="M-194.1-1717.4c0-55.8,45.1-124.7,101-124.7c15.3,0,29.1,5.4,42.1,13.8
			c-16.8-16.1-36.7-26-58.1-26c-55.8,0-101,68.8-101,124.7c0,29.8,13,49.7,33.7,62C-188-1680.6-194.1-1696.7-194.1-1717.4z"/>
		<g display="inline">
			<g>
				<path fill="#333333" d="M-139.1-1703.6c-1.5-6.9-9.9-13-9.9-13v-0.8c0.8,0,9.9,5.4,11.5,13L-139.1-1703.6z"/>
			</g>
			<g>
				<g>
					<path fill="#333333" d="M-147.5-1703.6L-147.5-1703.6c0.8-9.2,9.9-13.8,9.9-14.5l0.8,2.3
						C-136.8-1715.8-146-1711.2-147.5-1703.6z"/>
				</g>
				<path fill="none" stroke="#333333" stroke-width="0.5" stroke-linecap="round" stroke-miterlimit="10" d="M-132.9-1725
					c3.1,3.1,5.4,8.4,5.4,13.8c0,9.9-6.9,18.4-14.5,18.4c-8.4,0-14.5-8.4-14.5-18.4c0-6.1,2.3-10.7,5.4-14.5"/>
			</g>
		</g>
		<path display="inline" fill="#8C6239" d="M-49.6-1815.3l-32.1-29.8l6.9,43.6c19.9,125.5,42.1,129.3,50.5,130.8c0.8,0,2.3,0,3.1,0
			c6.1,0,15.3-3.1,22.2-16.1C29.2-1741.1-41.1-1807.6-49.6-1815.3z"/>
		<path display="inline" fill="#744D28" d="M-6-1761c8.4,25.2,11.5,53.6-0.8,76.5c-3.8,6.9-7.6,10.7-11.5,13
			c6.1-0.8,13-4.6,19.1-16.1C13.2-1711.2,6.3-1738-6-1761z"/>
		<path display="inline" fill="#AA8561" d="M-58-1788.5l-6.1-41.3l-16.8-15.3l6.9,43.6c18.4,119.3,39.8,128.5,49,130.8
			C-35.8-1686-47.3-1718.1-58-1788.5z"/>
	</g>
	<g id="身体8" display="none">
		<g display="inline">
			<path fill="#8C6239" d="M303.9,267.8c0,19.1-6.9,34.4-26,34.4s-25.3-15.3-25.3-34.4s6.9-34.4,26-34.4S303.9,249.4,303.9,267.8z"
				/>
			<path fill="#C69C6D" d="M316.9,282.3c-16.8,0-30.6,54.3-30.6,121.6h60.4C346.7,336.7,333.7,282.3,316.9,282.3z"/>
			<path fill="#B18451" d="M326.8,289.2c10.7,18.4,18.4,62,18.4,111.7l-37.5,3.1h39.8C347.5,350.4,339.1,305.3,326.8,289.2z"/>
			<path fill="#DCB890" d="M323.8,285.4c-2.3-2.3-4.6-3.8-7.7-3.8c-16.8,0-30.6,54.3-30.6,121.6h9.2
				C295.5,340.5,307.7,289.2,323.8,285.4z"/>
			<path fill="#8C6239" d="M462.2,174.5c0-26.8-13.8-49-31.4-49c-12.2,0-22.9,10.7-27.5,26.8c-14.5-8.4-33.7-17.6-58.1-28.3
				l-39.8-17.6l20.7,39c4.6,9.2,43.6,80.3,95.6,80.3c3.8,0,7.6-0.8,12.2-1.5c16.1-3.8,20.7-12.2,21.4-18.4
				C459.9,197.4,462.2,186.7,462.2,174.5z"/>
			<path fill="#C69C6D" d="M375.8,213.5c0,53.5-43.6,75-97.2,75s-97.2-21.4-97.2-75S225,93.4,278.6,93.4S375.8,159.9,375.8,213.5z"
				/>
			<path fill="#B18451" d="M341.4,125.5c16.8,22.9,27.5,52,27.5,78c0,53.5-43.6,75-97.2,75c-32.9,0-61.2-7.6-78.8-26
				c16.1,25.2,49,35.2,86.4,35.2c53.5,0,97.2-21.4,97.2-75C376.5,183.7,362.8,150,341.4,125.5z"/>
			<path fill="#DCB890" d="M194.5,226.5c0-53.5,43.6-120.1,97.2-120.1c16.8,0,32.1,6.1,45.9,16.8c-16.8-17.6-37.5-29.8-60.4-29.8
				c-53.5,0-97.2,65.8-97.2,120.1c0,26.8,10.7,45.9,29.1,58.1C199.8,260.2,194.5,244.9,194.5,226.5z"/>
			<path fill="#744D28" d="M405.6,151.5c0,0.8-0.8,0.8-0.8,1.5c-14.5-8.4-33.7-17.6-58.1-28.3l-9.9-3.8
				c22.9,22.9,38.3,56.6,39.8,87.2c13.8,10.7,29.1,18.4,45.9,18.4c0,0,0,0,0.8,0c0.8-3.1,0.8-6.9,0.8-10.7
				C424,195.1,417.1,172.2,405.6,151.5z"/>
			<g>
				<path fill="#333333" d="M282.4,239.5c-1.5-6.9-11.5-12.2-11.5-12.2v-0.8c0.8,0,11.5,4.6,13.8,12.2L282.4,239.5z"/>
			</g>
			<g>
				<path fill="#333333" d="M272.5,239.5h-0.8c1.5-9.2,13-13,13-13.8l0.8,2.3C285.5,228,274,231.9,272.5,239.5z"/>
			</g>
			<path fill="none" stroke="#333333" stroke-width="0.5" stroke-linecap="round" stroke-miterlimit="10" d="M290.1,218.8
				c3.8,3.1,6.1,7.6,6.1,13c0,9.9-7.6,17.6-17.6,17.6c-9.9,0-17.6-7.6-17.6-17.6c0-5.4,2.3-10.7,6.9-13.8"/>
			<path fill="#333333" d="M211.3,213.5c-19.1,3.8-25.2,54.3-12.2,112.5l70.4-15.3C256.4,253.3,230.4,209.7,211.3,213.5z"/>
			<path fill="#535353" d="M216.7,221.1c6.1-1.5,13.8,2.3,20.7,9.9c-9.2-12.2-18.4-19.1-26-17.6c-19.1,3.8-25.2,54.3-12.2,112.5
				l3.8-0.8C192.9,270.9,198.3,225,216.7,221.1z"/>
			<path fill="#8C6239" d="M269.4,125.5L228.1,111l23.7,36.7c55.1,86.4,78.8,97.2,90.3,97.2c2.3,0,3.8-0.8,5.4-0.8
				c6.1-1.5,16.1-6.9,16.8-24.5C368.1,161.5,280.2,129.3,269.4,125.5z"/>
			<path fill="#744D28" d="M327.6,156.1c17.6,15.3,31.4,34.4,29.8,58.1c-1.5,18.4-11.5,23-16.8,24.5c-1.5,0-3.1,0.8-5.4,0.8
				c-3.8,0-9.9-1.5-18.4-7.6c12.2,10.7,19.9,13,25.2,13c2.3,0,3.8-0.8,5.4-0.8c6.1-1.5,16.1-6.9,16.8-24.5
				C365.8,192.8,348.2,172.2,327.6,156.1z"/>
			<path fill="#AA8561" d="M262.6,155.4l-23.7-36.7l41.3,14.5c4.6,1.5,27.5,9.9,49.7,24.5c-25.2-19.9-56.6-31.4-62-33.7l-41.3-14.5
				l23.7,36.7c39.8,62,63.5,84.9,77.3,93.3C313,227.3,292.4,202,262.6,155.4z"/>
		</g>
	</g>
	<g id="身体9" display="none">
		<g display="inline">
			<path fill="#8C6239" d="M345.9,357.3c0,19.9-6.9,36-26.8,36s-26.8-16.1-26.8-36c0-19.9,6.9-36,26.8-36S345.9,337.4,345.9,357.3z"
				/>
			<path fill="#333333" d="M189.9,330.5c-38.3,0-69.6,31.4-69.6,69.6h140C259.5,361.9,228.1,330.5,189.9,330.5z"/>
			<path d="M246.5,400.2h13c0-32.1-22.2-59.7-52-67.3C231.2,343.5,246.5,370.3,246.5,400.2z"/>
			<path fill="#535353" d="M196,330.5c-2.3,0-4.6,0-6.9,0c-38.3,0-69.6,31.4-69.6,69.6h13.8C133.3,363.4,160.8,333.6,196,330.5z"/>
			<path fill="#C69C6D" d="M453,330.5c-38.3,0-69.6,31.4-69.6,69.6h140C523.3,361.9,492.1,330.5,453,330.5z"/>
			<path fill="#C69C6D" d="M420.9,299.9c0,56.6-45.9,78.8-101.7,78.8s-102.5-22.2-102.5-78.8s45.9-125.4,102.5-125.4
				S420.9,243.3,420.9,299.9z"/>
			<path fill="#B18451" d="M319.2,176c-7.6,0-14.5,1.5-21.4,3.1c2.3,0,3.8-0.8,6.1-0.8c56.6,0,102.5,69.6,102.5,125.5
				c0,42.1-25.2,65-61.2,74.2c44.4-6.1,76.5-29.1,76.5-77.3C421.7,245.6,375.8,176,319.2,176z"/>
			<path fill="#DCB890" d="M238.1,311.4c0-56.6,45.9-125.5,102.5-125.5c7.7,0,15.3,1.5,23,3.8c-13-9.2-28.3-14.5-43.6-14.5
				c-56.6,0-102.5,69.6-102.5,125.5c0,37.5,20.7,59.7,50.5,70.4C248.8,358.8,238.1,339.7,238.1,311.4z"/>
			<g>
				<path fill="#333333" d="M323,327.5c-1.5-6.9-12.2-13-12.2-13v-0.8c0.8,0,12.2,5.4,13.8,13L323,327.5z"/>
			</g>
			<g>
				<path fill="#333333" d="M313,327.5h-0.8c1.5-9.2,13-13.8,13.8-14.5l0.8,2.3C326.8,315.2,314.6,319.1,313,327.5z"/>
			</g>
			<path fill="none" stroke="#333333" stroke-width="0.5" stroke-linecap="round" stroke-miterlimit="10" d="M331.4,305.3
				c3.8,3.1,6.1,8.4,6.1,13.8c0,9.9-8.4,18.4-18.4,18.4s-18.4-8.4-18.4-18.4c0-6.1,3.1-10.7,6.9-14.5"/>
			<path fill="#8C6239" d="M401,225.7c-43.6-120.9-66.6-120.1-75-119.3c-6.1,0-16.8,3.1-22.2,20.7c-16.8,58.9,65.8,110.9,75,117
				l37.5,22.9L401,225.7z"/>
			<path fill="#8C6239" d="M330.6,97.2c-4.6,0-8.4,0.8-12.2,1.5c-2.3,0-4.6,0.8-7.6,2.3c-14.5,6.1-25.2,18.4-29.1,33.7
				c-10.7,17.6-23.7,42.8-39,80.3l-16.8,40.5l38.3-21.4c4.6-3.1,29.1-16.8,50.5-38.3c5.4,1.5,10.7,3.1,16.1,3.1
				c28.3,0,51.3-23,51.3-51.3C381.9,119.4,358.2,97.2,330.6,97.2z"/>
			<path fill="#744D28" d="M395.7,210.4c-6.1-16.8-12.2-31.4-17.6-42.8c-7.6,18.4-26,31.4-47.4,31.4c-1.5,0-3.1,0-4.6-0.8
				c8.4,10.7,18.4,19.1,27.5,26.8c2.3,0,3.8,0.8,6.1,0.8C373.5,225.7,386.5,219.6,395.7,210.4z"/>
			<path fill="#AA8561" d="M250.3,218.1c15.3-37.5,28.3-63.5,39-80.3c3.8-15.3,15.3-27.5,29.1-33.7c3.1-1.5,5.4-2.3,7.6-2.3
				c3.8-0.8,7.6-1.5,12.2-1.5c3.8,0,8.4,0.8,12.2,1.5c-6.1-3.1-13-4.6-20.7-4.6c-4.6,0-8.4,0.8-12.2,1.5c-2.3,0-4.6,0.8-7.6,2.3
				c-14.5,6.1-25.2,18.4-29.1,33.7c-10.7,17.6-23.7,42.8-39,80.3L225,255.5l13-6.9L250.3,218.1z"/>
			<path fill="#744D28" d="M358.2,105.6c8.4,9.2,13.8,21.4,13.8,34.4c0,28.3-22.9,51.3-51.3,51.3c-5.4,0-11.5-0.8-16.1-3.1
				c-19.1,19.1-40.5,42.8-48.2,49.7l6.9-3.8c4.6-3.1,29.1-16.8,50.5-38.3c5.4,1.5,10.7,3.1,16.1,3.1c28.3,0,51.3-23,51.3-51.3
				C381.1,130.1,372,114.8,358.2,105.6z"/>
			<path fill="#BD9261" d="M463,330.5c-3.1-0.8-6.1-0.8-9.9-0.8c-38.3,0-69.6,31.4-69.6,69.6h23.7
				C407.1,366.5,430.9,337.4,463,330.5z"/>
		</g>
	</g>
</g>
<g id="武器" display="none">
	<g id="武器1" display="inline">
		<path fill="#AFC8CE" d="M1624.9-1886l-224.1-45.9c-3.8,17.6-7.7,34.4-13,49.7l226.4,32.1"/>
		<path fill="#D5E7EB" d="M1387.7-1881.4c-0.8,1.5-0.8,2.3-1.5,3.8c-0.8,1.5-0.8,2.3-1.5,3.8l218.8,31.4c1.5-1.5,3.1-2.3,4.6-3.1
			c2.3-1.5,3.8-2.3,5.4-3.1L1387.7-1881.4z"/>
		<path fill="#F0F5F6" d="M1612.6-1941.8l-202.7-50.5c0,1.5,0,2.3,0,3.8s0,2.3,0,3.8l208.1,52"/>
		<path fill="#8BB3BC" d="M1400.7-1932.7C1400.7-1931.9,1400.7-1931.9,1400.7-1932.7l223.4,46.7c-2.3-2.3-3.8-5.4-5.4-8.4
			l-217.3-44.4C1401.5-1936.5,1401.5-1934.2,1400.7-1932.7z"/>
		<path fill="#D4E1E4" d="M1617.2-1932.7l-208.1-52c-1.5,14.5-3.8,29.8-6.9,45.1l217.3,44.4"/>
		<path fill="#D4E1E4" d="M1408.4-2065c-5.4-38.3-19.1-61.2-38.3-65.8c-19.1-3.8-40.5,12.2-61.2,45.1c-10.7,17.6-20.7,39-29.1,63.5
			l3.8,1.5l3.8,1.5l29.1,9.2l0,0c16.1,4.6,23.7,32.9,17.6,64.3s-24.5,54.3-41.3,52l0,0l-30.6-3.1h-3.8h-3.8
			c-5.4,73.4,9.9,128.5,39.8,135.4c1.5,0.8,3.8,0.8,5.4,0.8c17.6,0,36.7-16.1,55.1-45.9c11.5-18.4,21.4-41.3,29.8-67.3
			c0.8-1.5,0.8-2.3,1.5-3.8c0.8-1.5,0.8-2.3,1.5-3.8c5.4-16.1,9.2-32.9,13-49.7v-0.8c0.8-2.3,0.8-4.6,1.5-6.9
			c3.1-15.3,5.4-30.6,6.9-45.1c0-1.5,0-2.3,0-3.8s0-2.3,0-3.8C1411.4-2018.3,1411.4-2043.6,1408.4-2065z"/>
		<path fill="#F0F5F6" d="M1269.9-1796.5c0-0.8,0-1.5,0-1.5c0-0.8,0-1.5-0.8-2.3c0-0.8,0-1.5,0-2.3c-0.8-4.6-1.5-9.9-1.5-14.5l0,0
			c-1.5-16.1-1.5-33.7,0-52.8l0,0c0-1.5,0-2.3,0-3.8s0-2.3,0-3.8s0-2.3,0-3.8c1.5-14.5,3.8-29.8,6.9-45.1c0.8-2.3,0.8-4.6,1.5-6.9
			v-0.8c3.8-17.6,7.7-34.4,13-49.7c0.8-1.5,0.8-2.3,1.5-3.8c0.8-1.5,0.8-2.3,1.5-3.8c0.8-1.5,0.8-2.3,1.5-3.8l0,0
			c0.8-1.5,1.5-3.1,1.5-4.6c1.5-3.8,3.1-8.4,4.6-12.2c0.8-1.5,1.5-3.8,2.3-5.4c1.5-3.8,3.1-7.6,4.6-11.5c0.8-1.5,1.5-3.8,2.3-5.4
			c1.5-3.1,3.1-6.9,4.6-9.9c1.5-2.3,2.3-4.6,3.8-6.9c1.5-2.3,2.3-4.6,3.8-6.9c0,0,0,0,0-0.8c2.3-3.1,3.8-6.1,6.1-9.2
			c0-0.8,0.8-0.8,0.8-1.5c2.3-3.1,3.8-5.4,6.1-7.6c0-0.8,0.8-0.8,0.8-1.5c2.3-2.3,3.8-4.6,6.1-6.9l0.8-0.8c2.3-2.3,4.6-3.8,6.1-6.1
			l0,0c6.9-5.4,13.8-9.2,20.7-10.7l0,0c4.6-0.8,8.4-0.8,12.2,0c6.9,1.5,13.8,5.4,19.1,12.2c-6.9-22.2-18.4-36-32.1-39
			c-3.8-0.8-8.4-0.8-12.2,0l0,0c-6.9,1.5-13.8,5.4-20.7,10.7l0,0c-2.3,1.5-4.6,3.8-6.1,6.1l-0.8,0.8c-2.3,2.3-3.8,4.6-6.1,6.9
			c0,0.8-0.8,0.8-0.8,1.5c-2.3,2.3-3.8,5.4-6.1,7.7c0,0.8-0.8,0.8-0.8,1.5c-2.3,3.1-3.8,6.1-6.1,9.2c0,0,0,0,0,0.8
			c-1.5,2.3-2.3,4.6-3.8,6.9c-1.5,2.3-3.1,4.6-3.8,6.9c-1.5,3.1-3.1,6.9-4.6,9.9c-0.8,1.5-1.5,3.8-2.3,5.4
			c-1.5,3.8-3.1,7.6-4.6,11.5c-0.8,1.5-1.5,3.8-2.3,5.4c-1.5,3.8-3.1,7.6-4.6,12.2c-0.8,1.5-1.5,3.1-1.5,4.6l0,0
			c-0.8,1.5-0.8,2.3-1.5,3.8c-0.8,1.5-0.8,2.3-1.5,3.8c-0.8,1.5-0.8,2.3-1.5,3.8c-5.4,16.1-9.2,32.9-13,49.7v0.8
			c-0.8,2.3-0.8,4.6-1.5,6.9c-3.1,15.3-5.4,30.6-6.9,45.1c0,1.5,0,2.3,0,3.8s0,2.3,0,3.8s0,2.3,0,3.8l0,0c-1.5,19.1-1.5,36.7,0,52.8
			l0,0c0.8,5.4,0.8,9.9,1.5,14.5c0,0.8,0,1.5,0,2.3s0,1.5,0.8,2.3c0,0.8,0,1.5,0,1.5c3.8,21.4,9.9,38.3,18.4,48.2
			C1273-1781.2,1271.4-1788.1,1269.9-1796.5z"/>
		<path fill="#4381A9" d="M1316.6-2009.9L1316.6-2009.9l-29.1-9.9l-3.8-1.5l-3.8-1.5l-112.5-36.7c5.4,5.4,9.2,13,11.5,22.2
			c4.6,16.8,5.4,37.5,0.8,58.9c-6.9,35.2-24.5,61.2-43.6,69.6l117.8,10.7h3.8h3.8l30.6,3.1l0,0c16.8,2.3,34.4-20.7,41.3-52
			C1340.3-1977.8,1332.6-2005.3,1316.6-2009.9z"/>
		<path fill="#2B688F" d="M1294.4-1907.4L1294.4-1907.4l-30.6-2.3h-3.8h-3.8l-103.3-9.2c-5.4,5.4-10.7,9.9-16.1,12.2l117.8,10.7h3.8
			h3.8l30.6,3.1l0,0c16.8,2.3,34.4-20.7,41.3-52c0.8-4.6,1.5-9.2,1.5-13C1329.6-1928.1,1311.2-1905.1,1294.4-1907.4z"/>
		<path fill="#D4E1E4" d="M1179.6-2036.7c-3.1-9.2-6.9-16.8-11.5-22.2c-4.6-4.6-9.2-7.6-15.3-9.2c-24.5-5.4-51.3,26.8-61.2,71.9
			c-9.2,45.9,3.1,84.9,27.5,90.3c1.5,0,3.8,0.8,5.4,0.8c3.8,0,8.4-0.8,12.2-3.1c19.1-8.4,36-35.2,43.6-69.6
			C1184.2-1999.2,1184.2-2019.9,1179.6-2036.7z"/>
		<g>
			<path fill="#F0F5F6" d="M1096.2-1982.4c9.2-45.1,36-77.3,61.2-71.9c2.3,0.8,3.8,0.8,5.4,2.3c-1.5-2.3-3.8-4.6-6.1-6.1
				c2.3,1.5,4.6,3.8,6.1,6.1c3.8,1.5,6.9,3.8,9.2,6.9c2.3,2.3,4.6,5.4,6.1,8.4v-0.8c-3.1-9.2-6.9-16.8-11.5-22.2
				c-4.6-4.6-9.2-7.6-15.3-9.2c-24.5-5.4-51.3,26.8-61.2,71.9c-6.1,29.1-3.1,55.8,6.1,72.7
				C1092.4-1940.3,1091.7-1960.2,1096.2-1982.4z"/>
		</g>
		<path fill="#66A3CB" d="M1283.7-2008.4l3.8,1.5l3.8,1.5l29.1,9.2l0,0c6.1,1.5,11.5,7.7,14.5,15.3c-2.3-15.3-9.2-26.8-18.4-29.1
			l0,0l-29.1-9.2l-3.8-1.5l-3.8-1.5l-112.5-36.7c3.8,3.8,6.9,9.2,9.9,16.1L1283.7-2008.4z"/>
	</g>
	<g id="武器2" display="inline">
		<path fill="#8C6239" d="M1085.5-2105.6l318.2,146.9l22.2-49l-317.5-146.1"/>
		<path fill="#8C6239" d="M1375.5-1793.4l107.1,49.7c46.7-19.1,95.6-70.4,127.8-140.8c32.1-69.6,39.8-140.8,23.7-188.2l0,0
			c-0.8-10.7-19.9-27.5-46.7-39.8c-26.8-12.2-52-16.1-60.4-9.9l0,0c-46.7,19.1-95.6,70.4-127.8,140.8
			C1367.8-1912,1360.2-1841.6,1375.5-1793.4"/>
		<path fill="#AA8561" d="M1375.5-1794.2l28.3,13c-7.7-45.9,1.5-106.3,29.1-166.8c32.1-69.6,81.1-121.6,127.8-140.8l0,0
			c8.4-6.1,33.7-2.3,60.4,9.9c5.4,2.3,9.9,4.6,14.5,7.7c0-0.8-0.8-1.5-0.8-2.3l0,0c-0.8-10.7-19.9-27.5-46.7-39.8
			c-26.8-12.2-52-16.1-60.4-9.9l0,0c-46.7,19.1-95.6,70.4-127.8,140.8C1367.8-1912,1359.4-1841.6,1375.5-1794.2"/>
		<g>
			<path fill="#C7B299" d="M1486.4-2065.8c-0.8-1.5-0.8-3.1,0-4.6c14.5-23,44.4-37.5,45.1-38.3c1.5-0.8,3.8,0,5.4,1.5
				c0.8,1.5,0,3.8-1.5,5.4c0,0-29.1,14.5-42.1,36c-0.8,1.5-3.8,2.3-5.4,1.5C1487.2-2065,1487.2-2065.8,1486.4-2065.8z"/>
		</g>
		<g>
			<path fill="#C7B299" d="M1472.6-2043.6c-0.8-1.5-0.8-3.1,0-4.6l6.9-9.9c1.5-1.5,3.8-2.3,5.4-0.8c1.5,1.5,2.3,3.8,0.8,5.4
				l-6.9,9.9c-1.5,1.5-3.8,2.3-5.4,0.8C1473.4-2042.8,1473.4-2043.6,1472.6-2043.6z"/>
		</g>
		<path fill="#B18451" d="M1376.2-1795.7c4.6-9.9,32.9-7.7,62.7,5.4c29.8,13,51.3,32.1,46.7,42.1c-4.6,9.9-32.9,7.7-62.7-5.4
			S1371.6-1785.8,1376.2-1795.7"/>
	</g>
</g>
<g id="脸" display="none">
	<polygon display="inline" fill="#C69C6D" points="-223.4,-1450.7 482,-1450.7 156.8,-851.7 	"/>
	<polygon display="inline" fill="#B18451" points="156.8,-878.5 101.7,-938.2 156.8,-851.7 382.5,-1267.1 	"/>
	<polygon display="inline" fill="#DCB890" points="-186.7,-1428.5 383.3,-1449.2 -223.4,-1449.2 67.3,-991.7 	"/>
</g>
<g id="鼻子_x2B_嘴窝" display="none">
	<path display="inline" fill="#F9F3F3" d="M231.8-1099.6c0,56.6-45.9,78.8-102.5,78.8S26.8-1043,26.8-1099.6s45.9-125.5,102.5-125.5
		S231.8-1156.2,231.8-1099.6z"/>
	<path display="inline" fill="#FFFFFF" d="M32.9-1091.2c0-56.6,45.9-125.5,102.5-125.5c32.1,0,61.2,22.9,79.6,52.8
		c-18.4-34.4-49.7-62-84.9-62c-56.6,0-102.5,69.6-102.5,125.5c0,17.6,4.6,32.1,12.2,43.6C35.2-1066.7,32.9-1078.2,32.9-1091.2z"/>
	<path display="inline" fill="#E6E6E6" d="M201.2-1185.3c13.8,22.2,22.2,49,22.2,72.7c0,56.6-45.9,78.8-102.5,78.8
		c-35.2,0-66.6-8.4-84.9-29.1c16.1,29.1,52,41.3,93.3,41.3c56.6,0,102.5-22.2,102.5-78.8C232.6-1127.9,220.3-1160,201.2-1185.3z"/>
	<path display="inline" fill="#8C6239" stroke="#8C6239" stroke-width="4" stroke-miterlimit="10" d="M81.1-1240.3
		c0-22.2,21.4-31.4,48.2-31.4s48.2,8.4,48.2,31.4c0,22.2-21.4,49.7-48.2,49.7S81.1-1218.2,81.1-1240.3z"/>
	<path display="inline" fill="#744D28" d="M174.4-1275.5c9.2,7.7,13.8,18.4,13.8,31.4c0,29.8-27.5,65-63.5,65
		c-12.2,0-23.7-3.8-32.9-10.7c10.7,8.4,23.7,14.5,38.3,14.5c36,0,63.5-35.2,63.5-65C193.5-1255.6,186.7-1267.1,174.4-1275.5z"/>
	<path display="inline" fill="#AA8561" d="M77.3-1235c0-29.1,23.7-46.7,63.5-46.7c11.5,0,21.4,1.5,29.8,3.8
		c-10.7-6.1-24.5-9.2-42.1-9.2c-39.8,0-63.5,17.6-63.5,46.7c0,25.2,19.9,54.3,48.2,62.7C91.8-1189.1,77.3-1213.6,77.3-1235z"/>
</g>
<g id="害羞脸" display="none">
	<g display="inline">
		<path fill="#BC4444" d="M-686.2-1179.9c-2.3,1.5-4.6,2.3-6.1,1.5c-16.1-9.9,8.4-55.8,9.2-57.4c1.5-2.3,4.6-5.4,6.9-4.6
			C-639.5-1233.5-696.9-1195.2-686.2-1179.9z"/>
	</g>
	<g display="inline">
		<path fill="#BC4444" d="M-648.7-1229.6c1.5-0.8,3.1-1.5,4.6-0.8c10.7,7.6,4.6,29.8-1.5,36.7c-4.6,5.4-10.7,6.1-12.2,6.1
			C-683.1-1194.4-641.8-1218.2-648.7-1229.6z"/>
	</g>
	<g display="inline">
		<path fill="#BC4444" d="M-625.8-1188.3c-0.8,0.8-1.5-2.3-2.3-3.8c-3.1-7.7-0.8-16.8,3.1-20.7c3.1-3.8,6.9-3.8,7.7-3.8
			C-601.3-1213.6-630.4-1196-625.8-1188.3z"/>
	</g>
</g>
<g id="闪光眼" display="none">
	<g display="inline">
		<polygon fill="#F6F3F0" points="306,457.2 292.2,409.8 252.4,396 292.2,382.2 306,334.8 319.8,382.2 359.6,396 319.8,409.8 		"/>
	</g>
</g>
<g id="耳朵" display="none">
	<g id="耳朵9" display="inline">
		<polygon fill="#C69C6D" points="159.1,-1720.8 399.3,-1660.3 107.9,-1517.3 		"/>
		<polygon fill="#B18451" points="110.9,-1531 107.9,-1517.3 398.6,-1660.3 397,-1661.1 		"/>
		<polygon fill="#DCB890" points="174.4,-1695.5 335.1,-1677.2 159.1,-1721.5 112.5,-1533.3 		"/>
		<polygon fill="#C69C6D" points="-338.1,-1720 -576.8,-1653.4 -282.3,-1518 		"/>
		<polygon fill="#B18451" points="-302.9,-1533.3 -344.3,-1546.3 -282.3,-1518 -338.1,-1720 -345,-1718.5 		"/>
		<polygon fill="#DCB890" points="-515.6,-1648.8 -371,-1710.8 -576.8,-1653.4 -321.3,-1536.4 		"/>
	</g>
	<g id="耳朵8" display="inline">
		<polygon fill="#C69C6D" points="-25.2,-1642.7 176.7,-1765.9 78.8,-1472.1 		"/>
		<polygon fill="#B18451" points="69.6,-1487.4 78.8,-1472.9 168.3,-1740.6 		"/>
		<polygon fill="#DCB890" points="-3.1,-1637.4 135.4,-1739.9 -25.2,-1642.7 68.1,-1489 		"/>
		<polygon fill="#C69C6D" points="-183.6,-1621.3 -364.1,-1773.5 -312.1,-1468.3 		"/>
		<polygon fill="#B18451" points="-306,-1724.6 -195.1,-1624.4 -312.9,-1471.4 -312.1,-1468.3 -183.6,-1621.3 		"/>
		<polygon fill="#DCB890" points="-345.8,-1749.1 -270.8,-1695.5 -364.1,-1774.3 -325.1,-1542.5 		"/>
	</g>
	<g id="耳朵7" display="inline">
		<polygon fill="#C69C6D" points="115.5,-1716.2 277.7,-1659.6 47.4,-1519.6 		"/>
		<polygon fill="#B18451" points="54.3,-1541 47.4,-1519.6 277.7,-1659.6 276.9,-1659.6 		"/>
		<polygon fill="#DCB890" points="126.2,-1697.8 229.5,-1676.4 116.3,-1716.2 61.2,-1557.8 		"/>
		<polygon fill="#C69C6D" points="-293.8,-1727.6 -454.4,-1727.6 -293.8,-1519.6 		"/>
		<polygon fill="#B18451" points="-302.2,-1540.2 -337.4,-1576.2 -293,-1519.6 -293,-1684.8 		"/>
		<polygon fill="#DCB890" points="-421.5,-1711.6 -319,-1727.6 -455.2,-1727.6 -335.1,-1573.9 		"/>
	</g>
	<g id="耳朵6" display="inline">
		<polygon fill="#C69C6D" points="-539.3,-1729.9 -592.1,-1488.2 -334.3,-1685.6 		"/>
		<polygon fill="#B18451" points="-585.2,-1518 -592.1,-1488.2 -334.3,-1685.6 -335.8,-1685.6 		"/>
		<polygon fill="#DCB890" points="-518.7,-1701.6 -380.2,-1695.5 -539.3,-1729.9 -581.4,-1534.9 		"/>
		<polygon fill="#C69C6D" points="320.5,-1756.7 404.7,-1524.2 123.2,-1684.8 		"/>
		<polygon fill="#B18451" points="343.5,-1694.7 362.6,-1575.4 180.5,-1652.7 404.7,-1524.9 		"/>
		<polygon fill="#DCB890" points="330.5,-1728.4 320.5,-1756.7 123.2,-1684.8 130.1,-1681 		"/>
	</g>
	<g id="耳朵5" display="inline">
		<polygon fill="#C69C6D" points="105.6,-1673.3 353.4,-1673.3 105.6,-1463.7 		"/>
		<polygon fill="#B18451" points="309.8,-1673.3 144.6,-1496.6 352.7,-1673.3 		"/>
		<polygon fill="#DCB890" points="126.2,-1661.8 236.4,-1672.6 104.8,-1672.6 104.8,-1463 115.5,-1472.1 		"/>
		<polygon fill="#C69C6D" points="-529.4,-1547.9 -433.8,-1776.6 -335.8,-1467.5 		"/>
		<polygon fill="#B18451" points="-335.8,-1467.5 -429.9,-1763.6 -360.3,-1489 -415.4,-1500.4 		"/>
		<polygon fill="#DCB890" points="-511,-1552.5 -420.8,-1737.6 -433,-1775.8 -528.6,-1547.9 -396.3,-1492 		"/>
	</g>
	<g id="耳朵3" display="inline">
		<polygon fill="#C69C6D" points="-379.4,-1713.9 -592.1,-1586.9 -272.3,-1534.1 		"/>
		<polygon fill="#DCB890" points="-377.1,-1703.2 -308.3,-1594.5 -379.4,-1713.9 -592.1,-1587.6 -576,-1584.6 		"/>
		<polygon fill="#B18451" points="-332,-1634.3 -281.5,-1540.2 -587.5,-1586.9 -272.3,-1534.1 		"/>
		<polygon fill="#C69C6D" points="188.2,-1713.9 400.9,-1587.6 81.1,-1533.3 		"/>
		<polygon fill="#B18451" points="279.2,-1660.3 373.3,-1593.8 158.4,-1546.3 400.9,-1588.4 		"/>
		<polygon fill="#DCB890" points="192.8,-1696.3 329,-1630.5 188.2,-1713.9 91.8,-1550.2 		"/>
	</g>
	<g id="耳朵2" display="inline">
		<polygon fill="#C69C6D" points="130.1,-1726.9 377.1,-1726.9 130.1,-1517.3 		"/>
		<polygon fill="#C69C6D" points="-306,-1726.9 -553.1,-1726.9 -306,-1517.3 		"/>
		<polygon fill="#B18451" points="130.1,-1531.8 130.1,-1555.5 130.1,-1517.3 325.1,-1682.5 		"/>
		<polygon fill="#DCB890" points="143.8,-1713.1 310.6,-1726.9 130.1,-1726.9 130.1,-1521.1 		"/>
		<polygon fill="#B18451" points="-314.4,-1528 -385.6,-1584.6 -306,-1516.5 -306,-1696.3 		"/>
		<polygon fill="#DCB890" points="-526.3,-1718.5 -341.2,-1726.9 -553.1,-1726.9 -364.1,-1566.2 		"/>
	</g>
	<g id="耳朵1" display="inline">
		<polygon fill="#C69C6D" points="436.1,-1910.5 683.1,-1910.5 436.1,-1700.9 		"/>
		<polygon fill="#B18451" points="436.8,-1715.4 436.1,-1739.1 436.1,-1700.9 631.1,-1866.1 		"/>
		<polygon fill="#DCB890" points="449.8,-1896.7 616.6,-1910.5 436.1,-1910.5 436.1,-1704.7 		"/>
		<polygon fill="#C69C6D" points="0,-1910.5 -247.1,-1910.5 0,-1700.9 		"/>
		<polygon fill="#B18451" points="-8.4,-1711.6 -79.6,-1768.2 0,-1700.9 0,-1879.9 		"/>
		<polygon fill="#DCB890" points="-220.3,-1902.1 -35.2,-1910.5 -247.1,-1910.5 -58.1,-1749.8 		"/>
	</g>
</g>
<g id="眼睛" display="none">
	<g id="眼睛1" display="inline">
		<g>
			<path fill="#F6F3F0" d="M260.1,406.7c0,80.3-45.9,134.6-101.7,134.6S55.8,487,55.8,406.7s45.9-156.1,102.5-156.1
				S260.1,326.4,260.1,406.7z"/>
			<path fill="#E6E6E6" d="M135.4,514.6c-23.7,0-45.9-9.9-63.5-27.5c18.4,26.8,45.9,42.8,75.7,42.8c56.6,0,102.5-54.3,102.5-134.6
				c0-3.1,0-6.1,0-9.2C241.7,458,187.4,514.6,135.4,514.6z"/>
			<path fill="#FFFFFF" d="M76.5,441.9c0-80.3,45.9-156.1,102.5-156.1c23.7,0,45.1,13,62.7,34.4c-18.4-41.3-49-70.4-84.1-70.4
				c-56.6,0-102.5,75.7-102.5,156.1c0,42.8,13,78,33.7,101.7C81.1,489.3,76.5,466.4,76.5,441.9z"/>
			<path fill="#8C6239" d="M158.4,556.7c-67.3,0-117.8-64.3-117.8-149.9c0-92.6,53.5-171.4,117.8-171.4s117,78.8,117,171.4
				C275.4,492.4,224.9,556.7,158.4,556.7z M158.4,266c-45.1,0-87.2,67.3-87.2,140.8c0,68.9,36.7,119.3,87.2,119.3
				c49.7,0,86.4-50.5,86.4-119.3C244.8,333.3,203.5,266,158.4,266z"/>
			<g>
				<path fill="#AA8561" d="M44.4,415.1c0-92.6,53.6-171.4,117.8-171.4c38.3,0,73.4,28.3,94.9,71.9c-21.4-48.2-58.1-80.3-98.7-80.3
					c-64.3,0-117.8,78.8-117.8,171.4c0,32.1,6.9,61.2,19.9,84.9C50.5,469.4,44.4,443.4,44.4,415.1z"/>
				<path fill="#AA8561" d="M162.2,534.5c50.5,0,87.2-50.5,87.2-119.3c0-31.4-7.6-60.4-19.1-84.9c9.9,22.2,15.3,49,15.3,76.5
					c0,68.9-36.7,119.3-87.2,119.3c-30.6,0-55.8-18.4-71.1-48.2C101.7,512.3,128.5,534.5,162.2,534.5z"/>
			</g>
			<g>
				<path fill="#744D28" d="M118.6,513.8c-28.3-19.1-47.4-58.1-47.4-107.1c0-73.4,41.3-140.8,87.2-140.8c8.4,0,16.8,2.3,24.5,6.1
					c-9.2-6.1-19.9-9.9-29.8-9.9c-45.9,0.8-87.2,67.3-87.2,141.5C65.8,455.7,86.4,497,118.6,513.8z"/>
				<path fill="#744D28" d="M198.9,246.8c41.3,26.8,71.1,88,71.1,156.8c0,85.7-50.5,149.9-117.8,149.9c-19.1,0-36-5.4-52-14.5
					c16.8,11.5,36,17.6,57.4,17.6c67.3,0,117.8-64.3,117.8-149.9C275.4,334.8,243.3,272.1,198.9,246.8z"/>
			</g>
			<path fill="#F6F3F0" d="M556.2,406.7c0,80.3-45.9,134.6-102.5,134.6S351.9,487,351.9,406.7s45.9-156.1,101.7-156.1
				S556.2,326.4,556.2,406.7z"/>
			<circle cx="179.8" cy="466.4" r="37.5"/>
			<circle cx="442.9" cy="466.4" r="37.5"/>
			<path fill="#FFFFFF" d="M373.3,441.1c0-80.3,45.9-156.1,102.5-156.1c23.7,0,45.1,13,62.7,34.4c-18.4-41.3-49-70.4-84.1-70.4
				c-56.6,0-102.5,75.7-102.5,156.1c0,42.8,13,78,33.7,101.7C377.9,487.8,373.3,465.6,373.3,441.1z"/>
			<path fill="#E6E6E6" d="M433.8,516.9c-23.7,0-45.9-9.9-63.5-27.5c18.4,26.8,45.9,42.8,75.7,42.8c56.6,0,102.5-54.3,102.5-134.6
				c0-3.1,0-6.1,0-9.2C540.1,460.3,485.8,516.9,433.8,516.9z"/>
			<path fill="#333333" d="M453.6,556.7c-66.6,0-117-64.3-117-149.9c0-92.6,53.5-171.4,117-171.4s117.8,78.8,117.8,171.4
				C571.5,492.4,521,556.7,453.6,556.7z M453.6,266c-45.1,0-86.4,67.3-86.4,140.8c0,68.9,36.7,119.3,87.2,119.3
				s87.2-50.5,87.2-119.3C540.9,333.3,499.5,266,453.6,266z"/>
			<ellipse fill="#FFFFFF" cx="197.4" cy="451.8" rx="17.6" ry="22.2"/>
			<ellipse fill="#FFFFFF" cx="455.2" cy="450.3" rx="17.6" ry="22.2"/>
			<g>
				<path d="M413.9,513.8c-28.3-19.1-47.4-58.1-47.4-107.1c0-73.4,41.3-140.8,87.2-140.8c8.4,0,16.8,2.3,24.5,6.1
					c-9.2-6.1-19.9-9.9-29.8-9.9c-45.1,0-87.2,67.3-87.2,140.8C361.1,455.7,381.7,497,413.9,513.8z"/>
				<path d="M495,246.8c41.3,26.8,70.4,88,70.4,156.8c0,85.7-50.5,149.9-117.8,149.9c-19.1,0-36-5.4-52-14.5
					c16.8,11.5,36,17.6,57.4,17.6c67.3,0,117.8-64.3,117.8-149.9C571.5,334.8,538.6,272.1,495,246.8z"/>
			</g>
			<g>
				<path fill="#535353" d="M340.4,415.1c0-92.6,53.5-171.4,117.8-171.4c38.3,0,73.4,28.3,94.9,71.9c-21.4-48.2-58.1-80.3-99.5-80.3
					c-63.5,0-117,78-117,171.4c0,32.1,6.9,61.2,19.9,84.9C345.8,469.4,340.4,443.4,340.4,415.1z"/>
				<path fill="#535353" d="M457.5,533.7c50.5,0,87.2-50.5,87.2-119.3c0-31.4-7.7-60.4-19.1-84.9c9.9,22.2,15.3,49,15.3,76.5
					c0,68.8-36.7,119.3-87.2,119.3c-30.6,0-55.8-18.4-71.1-48.2C397.8,512.3,424.6,533.7,457.5,533.7z"/>
			</g>
		</g>
	</g>
	<g id="眼睛2" display="inline">
		<path fill="#F6F3F0" d="M-1018.2-2028.3c69.6,0,95.6-56.6,95.6-126.2H-1175C-1175-2084.9-1088.6-2028.3-1018.2-2028.3z"/>
		<path fill="#E6E6E6" d="M-943.2-2160.6c-1.5,65.8-28.3,118.6-95.6,118.6c-31.4,0-65.8-11.5-94.9-30.6
			c30.6,23.7,70.4,38.2,105.6,38.2c69.6,0,95.6-56.6,95.6-126.2H-943.2z"/>
		<path fill="#FFFFFF" d="M-1140.6-2130h218c0.8-6.1,0.8-12.2,0.8-18.4h-252.4c0,49,42.8,91,92.6,112.5
			C-1115.4-2058.9-1140.6-2092.5-1140.6-2130z"/>
		<path fill="#8C6239" d="M-1018.2-2013c-78,0-172.1-63.5-172.1-141.5v-15.3h283.1v15.3C-907.3-2064.2-947.8-2013-1018.2-2013z
			 M-1158.2-2139.2c11.5,52.8,81.9,95.6,140,95.6c59.7,0,77.3-49,79.6-95.6H-1158.2z"/>
		<g>
			<path fill="#744D28" d="M-1140.6-2103.3c-8.4-10.7-14.5-22.9-17.6-36H-944c0-2.3,0-3.8,0.8-6.1h-219.6
				C-1159.7-2129.3-1151.3-2115.5-1140.6-2103.3z"/>
			<path fill="#744D28" d="M-911.9-2169v9.9c0,90.3-40.5,141.5-110.9,141.5c-49.7,0-106.3-26-140.8-65
				c33.7,42.1,93.3,70.4,145.3,70.4c70.4,0,110.9-51.3,110.9-141.5v-15.3L-911.9-2169L-911.9-2169z"/>
		</g>
		<path fill="#AA8561" d="M-1185.8-2148.4v-15.3h277.7v-6.1h-283v15.3c0,29.8,13.8,57.4,35.2,80.3
			C-1174.3-2095.6-1185.8-2121.6-1185.8-2148.4z"/>
		<path fill="#AA8561" d="M-1013.6-2037.5c59.7,0,76.5-53.6,79.6-100.2l-4.6-1.5c-3.8,45.1-23,95.6-80.3,95.6
			c-39.8,0-84.9-19.9-113.2-49.7C-1103.9-2060.4-1055.7-2037.5-1013.6-2037.5z"/>
		<path fill="#F6F3F0" d="M-696.9-2028.3c-69.6,0-95.6-56.6-95.6-126.2H-540C-540.1-2084.9-627.3-2028.3-696.9-2028.3z"/>
		<path fill="#E6E6E6" d="M-559.2-2156c-9.2,64.3-90.3,114.8-156.1,114.8c-24.5,0-42.8-6.9-57.4-19.1c15.3,19.1,37.5,30.6,68.9,30.6
			c69.6,0,156.8-56.6,156.8-126.2L-559.2-2156L-559.2-2156z"/>
		<path fill="#FFFFFF" d="M-768.1-2130.8H-534c0.8-5.4,1.5-9.9,1.5-15.3H-785c0,49,13,91,44.4,112.5
			C-760.4-2057.4-768.1-2091.8-768.1-2130.8z"/>
		<path fill="#333333" d="M-696.9-2013c-70.4,0-110.9-51.3-110.9-141.5v-15.3h283.1v15.3C-524.8-2075.7-619.7-2013-696.9-2013z
			 M-777.2-2139.2c3.1,46.7,19.9,95.6,79.6,95.6c58.1,0,128.5-42.8,140-95.6H-777.2z"/>
		<g>
			<path d="M-749.7-2062.7c-18.4-18.4-25.2-47.4-26.8-75.7H-560c0-0.8,0.8-1.5,0.8-2.3h-219.6
				C-778-2111.7-770.4-2081.1-749.7-2062.7z"/>
			<path d="M-527.9-2169v13c0,78-94.1,141.5-172.1,141.5c-29.8,0-54.3-9.2-72.7-27.5c18.4,19.1,44.4,29.8,75.7,29.8
				c78,0,172.1-63.5,172.1-141.5v-15.3H-527.9z"/>
		</g>
		<path fill="#535353" d="M-803.3-2148.4v-15.3h277.7v-6.1h-283v15.3c0,50.5,13,89.5,36.7,113.2
			C-791.8-2065-803.3-2101.7-803.3-2148.4z"/>
		<path fill="#535353" d="M-692.3-2037.5c58.1,0,127.8-45.1,139.2-97.9l-4.6-3.1c-15.3,50.5-84.2,95.6-140,95.6
			c-23.7,0-40.5-7.7-52.8-19.9C-737.5-2048.2-719.1-2037.5-692.3-2037.5z"/>
	</g>
	<g id="眼睛3" display="inline">
		<g>
			<path fill="#8C6239" d="M-1038.9-1970.1c-26,0-47.4-10.7-59.7-26c-19.1-22.2-26.8-62.7,9.2-109.4c19.9-25.2,40.5-36.7,60.4-32.1
				c36,7.7,51.3,61.2,53.6,67.3c2.3,8.4-3.1,16.8-10.7,18.4c-8.4,2.3-16.8-2.3-18.4-10.7c-4.6-16.8-16.8-42.8-29.8-45.1
				c-7.6-1.5-18.4,6.1-29.8,21.4c-20.7,26.8-24.5,53.6-9.9,70.4c13,15.3,42.8,22.2,77.3,3.8c41.3-22.2,61.2-71.9,62-110.9
				c0.8-26-6.9-46.7-19.1-54.3c-23.7-14.5-58.1-18.4-88.7-10.7c-19.9,5.4-47.4,17.6-65.8,49.7c-4.6,7.6-13.8,9.9-20.7,5.4
				c-7.7-4.6-9.9-13.8-5.4-20.7c19.1-32.1,48.2-54.3,84.9-64.3c38.2-9.9,81.1-4.6,112.5,14.5c22.2,13.8,35.2,43.6,33.7,81.1
				c-1.5,48.2-26,108.6-78,136.9C-1002.9-1974.7-1022-1970.1-1038.9-1970.1z"/>
		</g>
		<g>
			<path fill="#744D28" d="M-978.4-2078.8c0.8,2.3,1.5,4.6,1.5,5.4c2.3,8.4-3.1,16.8-10.7,18.4c-7.7,2.3-15.3-2.3-18.4-9.2
				c0,0.8,0.8,1.5,0.8,2.3c2.3,8.4,10.7,13,18.4,10.7c8.4-2.3,13-10.7,10.7-18.4C-976.1-2071.1-976.9-2074.2-978.4-2078.8z"/>
			<path fill="#744D28" d="M-1064.9-2086.4c11.5-15.3,23-22.9,29.8-21.4c10.7,2.3,21.4,22.2,27.5,38.3
				c-5.4-16.8-16.8-39.8-29.1-42.1c-7.6-1.5-18.4,6.1-29.8,21.4c-16.8,21.4-22.2,42.8-16.8,58.9
				C-1086.3-2046.6-1080.2-2066.5-1064.9-2086.4z"/>
			<path fill="#744D28" d="M-1110-2139.2c18.4-32.1,45.9-44.4,65.8-49.7c30.6-7.6,65-3.1,88.7,10.7c6.1,3.8,10.7,10.7,13.8,19.1
				c-3.1-10.7-8.4-19.1-15.3-22.9c-23.7-14.5-58.1-18.4-88.7-10.7c-19.9,5.4-47.4,17.6-65.8,49.7c-4.6,7.6-13.8,9.9-20.7,5.4
				c-3.1-1.5-4.6-3.8-6.1-6.1c0.8,3.8,3.1,7.6,7.7,9.9C-1123.8-2129.3-1113.8-2131.6-1110-2139.2z"/>
			<path fill="#744D28" d="M-911.1-2164.5c3.1,11.5,4.6,24.5,4.6,38.3c-1.5,48.2-26,108.6-78,136.9c-19.9,10.7-38.3,15.3-55.1,15.3
				c-26,0-47.4-10.7-59.7-26c-4.6-5.4-8.4-12.2-11.5-19.1c3.1,9.2,6.9,16.8,13,22.9c13,15.3,34.4,26,59.7,26
				c16.8,0,36-4.6,55.1-15.3c52-28.3,76.5-89.5,78-136.9C-905-2138.4-906.5-2152.2-911.1-2164.5z"/>
		</g>
		<g>
			<path fill="#AA8561" d="M-1023.6-2098.7c7.6,9.9,14.5,25.2,17.6,36.7c0.8,3.8,3.8,7.6,7.7,9.2c-0.8-0.8-1.5-2.3-1.5-3.8
				C-1003.7-2070.4-1013.6-2091-1023.6-2098.7z"/>
			<path fill="#AA8561" d="M-993-2006.9c41.3-22.2,61.2-71.9,62-110.9c0.8-24.5-6.1-44.4-17.6-52.8c7.7,9.9,12.2,26.8,11.5,47.4
				c-0.8,39-20.7,88.7-62,110.9c-30.6,16.8-57.4,13-71.9,1.5c0,0,0,0.8,0.8,0.8C-1057.2-1995.4-1027.4-1987.7-993-2006.9z"/>
			<path fill="#AA8561" d="M-1131.4-2148.4c19.1-32.1,48.2-54.3,84.9-64.3c38.3-9.9,81.1-4.6,112.5,14.5c2.3,1.5,4.6,3.1,6.9,5.4
				c-3.8-4.6-8.4-8.4-13-10.7c-30.6-18.4-73.4-24.5-112.5-14.5c-36.7,9.2-66.6,31.4-84.9,64.3c-4.6,7.6-1.5,16.8,5.4,20.7l0,0
				C-1133.7-2138.4-1134.5-2143.8-1131.4-2148.4z"/>
			<path fill="#AA8561" d="M-1093.2-1990c-19.1-22.2-26.8-62.7,9.2-109.4c19.9-25.2,40.5-36.7,60.4-32.1c8.4,1.5,16.1,6.1,22.2,11.5
				c-7.7-8.4-16.8-15.3-27.5-17.6c-19.9-3.8-40.5,6.9-60.4,32.1c-36,45.9-28.3,86.4-9.2,109.4c2.3,2.3,3.8,4.6,6.1,6.9
				C-1093.2-1990-1093.2-1990-1093.2-1990z"/>
		</g>
		<path fill="none" stroke="#333333" stroke-width="4" stroke-linecap="round" stroke-miterlimit="10" d="M-669.4-2065.8
			c0,0-28.3-105.6-86.4-29.8c-58.9,75.7,9.9,138.5,86.4,97.2s89.5-163.7,43.6-192s-135.4-26.8-176,44.4"/>
		<g>
			<path d="M-656.4-2078.8c0.8,2.3,1.5,4.6,1.5,5.4c2.3,8.4-3.1,16.8-10.7,18.4c-7.7,2.3-15.3-2.3-18.4-9.2c0,0.8,0.8,1.5,0.8,2.3
				c2.3,8.4,10.7,13,18.4,10.7c8.4-2.3,13-10.7,10.7-18.4C-654.1-2071.1-654.8-2074.2-656.4-2078.8z"/>
			<path d="M-742.8-2085.7c11.5-15.3,23-22.9,29.8-21.4c10.7,2.3,21.4,22.2,27.5,38.3c-5.4-16.8-16.8-39.8-29.1-42.1
				c-7.7-1.5-18.4,6.1-29.8,21.4c-16.8,21.4-22.2,42.8-16.8,58.9C-764.2-2046.6-758.1-2065.8-742.8-2085.7z"/>
			<path d="M-788-2138.4c18.4-32.1,45.9-44.4,65.8-49.7c30.6-7.6,65-3.1,88.7,10.7c6.1,3.8,10.7,10.7,13.8,19.1
				c-3.1-10.7-8.4-19.1-15.3-22.9c-23.7-14.5-58.1-18.4-88.7-10.7c-19.9,5.4-47.4,17.6-65.8,49.7c-4.6,7.7-13.8,9.9-20.7,5.4
				c-3.1-1.5-4.6-3.8-6.1-6.1c0.8,3.8,3.1,7.6,7.7,9.9C-801-2129.3-791.8-2131.6-788-2138.4z"/>
			<path d="M-588.3-2164.5c3.1,11.5,4.6,24.5,4.6,38.3c-1.5,48.2-26,108.6-78,136.9c-19.9,10.7-38.3,15.3-55.1,15.3
				c-26,0-47.4-10.7-59.7-26c-4.6-5.4-8.4-12.2-11.5-19.1c3.1,9.2,6.9,16.8,13,22.9c13,15.3,34.4,26,59.7,26
				c16.8,0,36-4.6,55.1-15.3c52-28.3,76.5-89.5,78-136.9C-582.9-2138.4-584.5-2152.2-588.3-2164.5z"/>
		</g>
		<g>
			<path fill="#535353" d="M-701.5-2098.7c7.7,9.9,14.5,25.2,17.6,36.7c0.8,3.8,3.8,7.6,7.7,9.2c-0.8-0.8-1.5-2.3-1.5-3.8
				C-681.6-2070.4-690.8-2090.3-701.5-2098.7z"/>
			<path fill="#535353" d="M-670.9-2006.1c41.3-22.2,61.2-71.9,62-110.9c0.8-24.5-6.1-44.4-17.6-52.8c7.7,9.9,12.2,26.8,11.5,47.4
				c-0.8,39-20.7,88.7-62,110.9c-30.6,16.8-57.4,13-71.9,1.5c0,0,0,0.8,0.8,0.8C-735.2-1994.6-705.3-1987-670.9-2006.1z"/>
			<path fill="#535353" d="M-809.4-2148.4c19.1-32.1,48.2-54.3,84.9-64.3c38.3-9.9,81.1-4.6,112.5,14.5c2.3,1.5,4.6,3.1,6.9,5.4
				c-3.8-4.6-8.4-8.4-13-10.7c-30.6-18.4-73.4-24.5-112.5-14.5c-36.7,9.2-66.6,31.4-84.9,64.3c-4.6,7.6-1.5,16.8,5.4,20.7l0,0
				C-811.7-2137.7-811.7-2143.8-809.4-2148.4z"/>
			<path fill="#535353" d="M-771.1-1990c-19.1-22.2-26.8-62.7,9.2-109.4c19.9-25.2,40.5-36.7,60.4-32.1c8.4,1.5,16.1,6.1,22.2,11.5
				c-7.7-8.4-16.8-15.3-27.5-17.6c-19.9-3.8-40.5,6.9-60.4,32.1c-36,45.9-28.3,86.4-9.2,109.4c2.3,2.3,3.8,4.6,6.1,6.9
				C-771.1-1989.3-771.1-1990-771.1-1990z"/>
		</g>
	</g>
	<g id="眼睛4" display="inline">
		<path fill="#F6F3F0" d="M1181.2-2078.8c0,80.3-45.9,134.6-102.5,134.6s-102.5-54.3-102.5-134.6c0-80.3,45.9-156.1,102.5-156.1
			S1181.2-2159.1,1181.2-2078.8z"/>
		<path fill="#E6E6E6" d="M1138.3-2185.1c11.5,25.2,18.4,55.8,18.4,86.4c0,80.3-45.9,134.6-102.5,134.6c-32.1,0-60.4-16.8-78.8-46.7
			c17.6,40.5,50.5,65,88.7,65c56.6,0,102.5-54.3,102.5-134.6C1166.6-2118.6,1155.9-2156,1138.3-2185.1z"/>
		<path fill="#FFFFFF" d="M993-2042.8c0-80.3,45.9-156.1,102.5-156.1c26.8,0,51.3,17.6,69.6,44.4c-18.4-41.3-49-69.6-84.2-69.6
			c-56.6,0-102.5,75.7-102.5,156.1c0,37.5,9.9,69.6,26.8,93.3C997.6-1995.4,993-2017.6,993-2042.8z"/>
		<path fill="#8C6239" d="M1078.7-1928.8c-67.3,0-117.8-64.3-117.8-149.9c0-92.6,53.6-171.4,117.8-171.4s117.8,78.8,117.8,171.4
			C1196.5-1993.1,1146-1928.8,1078.7-1928.8z M1078.7-2219.5c-45.1,0-87.2,67.3-87.2,140.8c0,68.9,36.7,119.3,87.2,119.3
			s87.2-50.5,87.2-119.3C1165.9-2152.2,1124.6-2219.5,1078.7-2219.5z"/>
		<g>
			<path fill="#744D28" d="M991.4-2079.5c0-73.4,41.3-140.8,87.2-140.8c29.8,0,58.1,29.1,74.2,70.4c-14.5-45.9-45.1-78.8-77.3-78.8
				c-45.1,0-87.2,67.3-87.2,140.8c0,22.2,3.8,42.8,10.7,60.4C993.7-2043.6,991.4-2061.2,991.4-2079.5z"/>
			<path fill="#744D28" d="M1181.2-2161.4c7.7,22.2,11.5,46.7,11.5,72.7c0,85.7-50.5,149.9-117.8,149.9
				c-47.4,0-87.2-32.9-105.6-82.6c16.8,54.3,58.1,91,108.6,91c67.3,0,117.8-64.3,117.8-149.9
				C1195.7-2109.4,1190.3-2136.9,1181.2-2161.4z"/>
		</g>
		<g>
			<path fill="#AA8561" d="M1084.8-1951.8c50.5,0,87.2-50.5,87.2-119.3c0-48.2-17.6-92.6-42.1-118.6c21.4,26.8,36,67.3,36,110.9
				c0,68.9-36.7,119.3-87.2,119.3c-20.7,0-39-8.4-53.6-23.7C1040.4-1963.3,1061.1-1951.8,1084.8-1951.8z"/>
			<path fill="#AA8561" d="M967.7-2071.1c0-92.6,53.5-171.4,117.8-171.4c25.2,0,49,12.2,68.1,32.9c-20.7-25.2-46.7-40.5-75-40.5
				c-63.5,0-117.8,78.8-117.8,171.4c0,48.2,16.1,89.5,42.1,117C980.7-1988.5,967.7-2026.8,967.7-2071.1z"/>
		</g>
		<path d="M1010.6-2039c-17.6,29.8-21.4,63.5-13.8,94.9c-16.8-31.4-18.4-70.4,0.8-101.7c18.4-31.4,52-48.2,87.2-49
			C1054.9-2087.2,1028.2-2067.3,1010.6-2039z"/>
		<path fill="#F6F3F0" d="M1477.2-2078.8c0,80.3-45.9,134.6-102.5,134.6s-102.5-54.3-102.5-134.6c0-80.3,45.9-156.1,102.5-156.1
			C1431.3-2234.8,1477.2-2159.1,1477.2-2078.8z"/>
		<path fill="#E6E6E6" d="M1439-2190.5c11.5,25.2,18.4,55.8,18.4,86.4c0,80.3-45.9,134.6-102.5,134.6c-32.1,0-60.4-16.8-78.8-46.7
			c17.6,40.5,50.5,65,88.7,65c56.6,0,102.5-54.3,102.5-134.6C1467.3-2124.7,1456.6-2162.2,1439-2190.5z"/>
		<path fill="#FFFFFF" d="M1293.6-2048.9c0-80.3,45.9-156.1,102.5-156.1c26.8,0,51.3,17.6,69.6,44.4c-18.4-41.3-49-69.6-84.2-69.6
			c-56.6,0-102.5,75.7-102.5,156.1c0,37.5,9.9,69.6,26.8,93.3C1298.2-2000.7,1293.6-2023.7,1293.6-2048.9z"/>
		<path fill="#333333" d="M1374.7-1928.8c-67.3,0-117.8-64.3-117.8-149.9c0-92.6,53.6-171.4,117.8-171.4
			c64.3,0,117.8,78.8,117.8,171.4C1492.5-1993.1,1441.3-1928.8,1374.7-1928.8z M1374.7-2219.5c-45.1,0-87.2,67.3-87.2,140.8
			c0,68.9,36.7,119.3,87.2,119.3s87.2-50.5,87.2-119.3C1461.9-2152.2,1419.8-2219.5,1374.7-2219.5z"/>
		<g>
			<path d="M1287.5-2079.5c0-73.4,41.3-140.8,87.2-140.8c29.8,0,58.1,29.1,74.2,70.4c-14.5-45.9-45.1-78.8-77.3-78.8
				c-45.1,0-87.2,67.3-87.2,140.8c0,22.2,3.8,42.8,10.7,60.4C1290.6-2043.6,1287.5-2061.2,1287.5-2079.5z"/>
			<path d="M1477.2-2161.4c7.7,22.2,11.5,46.7,11.5,72.7c0,85.7-50.5,149.9-117.8,149.9c-47.4,0-87.2-32.9-105.6-82.6
				c16.8,54.3,58.1,91,108.6,91c67.3,0,117.8-64.3,117.8-149.9C1491.8-2109.4,1486.4-2136.9,1477.2-2161.4z"/>
		</g>
		<g>
			<path fill="#535353" d="M1381.6-1951.8c50.5,0,87.2-50.5,87.2-119.3c0-48.2-17.6-92.6-42.1-118.6c21.4,26.8,36,67.3,36,110.9
				c0,68.9-36.7,119.3-87.2,119.3c-20.7,0-39-8.4-53.6-23.7C1336.5-1963.3,1357.1-1951.8,1381.6-1951.8z"/>
			<path fill="#535353" d="M1263.8-2071.1c0-92.6,53.5-171.4,117.8-171.4c25.2,0,49,12.2,68.1,32.9c-20.7-25.2-46.7-40.5-75-40.5
				c-63.5,0-117.8,78.8-117.8,171.4c0,48.2,16.1,89.5,42.1,117C1277.6-1988.5,1263.8-2026.8,1263.8-2071.1z"/>
		</g>
		<path d="M1436.7-2040.5c23.7,25.2,35.2,57.4,34.4,89.5c9.9-34.4,2.3-72.7-23-99.5c-25.2-26-61.2-36-95.6-28.3
			C1382.4-2078,1413-2065,1436.7-2040.5z"/>
	</g>
	<g id="眼睛5" display="inline">
		<path fill="#F6F3F0" d="M-1917.1-1913.5c0,76.5-54.3,146.1-120.9,146.1c-67.3,0-120.9-55.1-120.9-132.3
			c0-76.5,54.3-146.1,120.9-146.1C-1971.4-2045.9-1917.1-1990.8-1917.1-1913.5z"/>
		<path fill="#E6E6E6" d="M-1944.6-2000c8.4,17.6,13,38.3,13,60.4c0,76.5-54.3,146.1-120.9,146.1c-38.3,0-72.7-18.4-94.9-49
			c19.9,43.6,61.2,71.9,108.6,71.9c67.3,0,120.9-68.8,120.9-146.1C-1917.9-1948.7-1927.8-1977.8-1944.6-2000z"/>
		<g>
			<path fill="#29ABE2" d="M-2034.1-1807.2c-36,0-70.4-7.6-90.3-23.7c16.8,26.8,45.1,47.4,85.7,47.4c36.7,0,62.7-22.2,78-43.6
				C-1980.6-1814.8-2005.8-1807.2-2034.1-1807.2z"/>
		</g>
		<path fill="#1498C6" d="M-1992.8-1812.6c-17.6,12.2-37.5,19.1-58.9,19.1c-17.6,0-34.4-3.8-49-10.7c16.1,13,37.5,21.4,63.5,21.4
			c36.7,0,62.7-22.2,78-43.6C-1969.1-1821-1980.6-1815.6-1992.8-1812.6z"/>
		<path fill="#FFFFFF" d="M-2144.3-1853.1c0-76.5,54.3-146.1,120.9-146.1c42.8,0,79.6,22.2,101.7,58.1c-11.5-62-60.4-104-118.6-104
			c-67.3,0-120.9,68.9-120.9,146.1c0,28.3,7.6,53.5,19.9,74.2C-2143.5-1834-2144.3-1843.9-2144.3-1853.1z"/>
		<path fill="#8C6239" d="M-2038.7-1752.1c-76.5,0-136.2-65-136.2-147.6c0-87.2,62.7-161.4,136.2-161.4c76.5,0,136.2,65,136.2,147.6
			C-1901.8-1826.3-1964.5-1752.1-2038.7-1752.1z M-2038.7-2030.6c-56.6,0-105.6,61.2-105.6,130.8c0,66.6,45.9,117,105.6,117
			c56.6,0,105.6-61.2,105.6-130.8C-1932.4-1980.1-1978.3-2030.6-2038.7-2030.6z"/>
		<g>
			<path fill="#744D28" d="M-2101.5-1804.1c-26.8-20.7-43.6-55.1-43.6-95.6c0-69.6,49.7-130.8,105.6-130.8
				c22.2,0,42.1,6.9,58.9,19.1c-17.6-13.8-39-21.4-62.7-21.4c-56.6,0-105.6,61.2-105.6,130.8
				C-2148.1-1860.8-2129.8-1824.8-2101.5-1804.1z"/>
			<path fill="#744D28" d="M-1962.2-2036.7c34.4,26.8,56.6,70.4,56.6,120.1c0,87.2-62.7,161.4-136.2,161.4
				c-28.3,0-54.3-9.2-76.5-24.5c22.2,16.8,49.7,26.8,79.6,26.8c74.2,0,136.2-74.2,136.2-161.4
				C-1901.8-1965.6-1925.5-2010.7-1962.2-2036.7z"/>
		</g>
		<g>
			<path fill="#AA8561" d="M-2168-1893.6c0-87.2,62.7-161.4,136.2-161.4c32.1,0,61.2,11.5,84.2,31.4c-23.7-22.9-55.8-37.5-91.8-37.5
				c-74.2,0-136.2,74.2-136.2,161.4c0,48.2,19.9,89.5,52,116.3C-2151.2-1810.3-2168-1849.3-2168-1893.6z"/>
			<path fill="#AA8561" d="M-1966.8-2000.7c21.4,21.4,34.4,52,34.4,87.2c0,69.6-49.7,130.8-105.6,130.8c-24.5,0-46.7-8.4-65-22.9
				c18.4,18.4,43.6,29.8,71.9,29.8c56.6,0,105.6-61.2,105.6-130.8C-1926.3-1946.4-1941.6-1980.1-1966.8-2000.7z"/>
		</g>
		<g>
			<circle cx="-2038.7" cy="-1895.2" r="12.2"/>
		</g>
		<path fill="#F6F3F0" d="M-1863.5-1897.5c5.4,68.1,58.1,126.2,117,121.6c59.7-4.6,104-57.4,98.7-125.5
			c-5.4-68.1-58.1-126.2-117-121.6C-1823.8-2018.3-1868.9-1965.6-1863.5-1897.5z"/>
		<path fill="#E6E6E6" d="M-1657-1899.8c-3.8-51.3-34.4-96.4-74.2-114c32.1,21.4,55.1,61.2,58.9,105.6
			c5.4,68.1-39.8,120.9-98.7,125.5c-15.3,0.8-29.8-1.5-43.6-7.6c17.6,11.5,37.5,18.4,58.9,16.8
			C-1696.8-1778.9-1651.6-1831.7-1657-1899.8z"/>
		<path fill="#FFFFFF" d="M-1837.5-1871.5c-5.4-68.1,39.8-120.9,98.7-125.5c25.2-1.5,49.7,7.7,68.9,24.5
			c-22.2-30.6-55.1-49.7-90.3-47.4c-59.7,4.6-104,57.4-98.7,125.5c3.1,39,21.4,75,48.2,97.2
			C-1825.3-1817.9-1835.2-1843.9-1837.5-1871.5z"/>
		<path fill="#29ABE2" d="M-1752.6-1810.3c32.1-2.3,62-11.5,78.8-26.8c-13,25.2-37.5,45.1-73.4,48.2c-32.9,2.3-57.4-15.3-72.7-33.7
			C-1800.8-1813.3-1777.9-1808-1752.6-1810.3z"/>
		<path fill="#1498C6" d="M-1673.1-1837c-6.1,5.4-13.8,9.9-22.9,13.8c-11.5,15.3-27.5,26.8-45.1,32.9
			C-1707.5-1794.2-1685.3-1813.3-1673.1-1837z"/>
		<circle cx="-1754.9" cy="-1889.1" r="10.7"/>
		<path fill="#333333" d="M-1752.6-1759.8c-63.5,0-120.9-60.4-126.2-136.2c-3.1-36.7,7.7-71.1,28.3-97.2
			c21.4-26,51.3-42.1,84.1-44.4c66.6-4.6,127.8,57.4,133.9,136.2c3.1,36.7-7.6,71.1-28.3,97.2c-21.4,26-51.3,42.1-84.2,44.4
			C-1748-1759.8-1750.3-1759.8-1752.6-1759.8z M-1758.7-2007.6c-1.5,0-3.1,0-5.4,0c-24.5,1.5-47.4,13.8-62.7,32.9
			c-16.1,19.9-24.5,47.4-22.2,75.7c4.6,61.2,52,111.7,101,107.9c24.5-1.5,47.4-13.8,62.7-32.9c16.1-19.9,24.5-47.4,22.2-75.7
			C-1666.9-1958.7-1711.3-2007.6-1758.7-2007.6z"/>
		<g>
			<path d="M-1631.7-1902.1c-3.1-45.1-25.2-84.9-55.1-109.4c28.3,25.2,47.4,62.7,51.3,105.6c3.1,36.7-7.7,71.1-28.3,97.2
				c-21.4,26-51.3,42.1-84.2,44.4c-2.3,0-4.6,0-7.7,0c-26.8,0-52-10.7-72.7-28.3c21.4,19.9,49,32.1,77.3,32.1c2.3,0,4.6,0,7.7,0
				c33.7-2.3,63.5-18.4,84.1-44.4C-1639.4-1830.9-1629.5-1865.3-1631.7-1902.1z"/>
			<path d="M-1808.5-1814.1c-21.4-19.9-37.5-50.5-39.8-84.2c-2.3-29.1,5.4-55.8,22.2-75.7c16.1-19.9,38.3-31.4,62.7-32.9
				c1.5,0,3.1,0,5.4,0c17.6,0,35.2,6.9,49.7,18.4c-16.1-13.8-35.2-22.2-54.3-22.2c-1.5,0-3.1,0-5.4,0c-24.5,1.5-47.4,13.8-62.7,32.9
				c-16.1,19.9-24.5,47.4-22.2,75.7C-1849.8-1866.1-1832.2-1834-1808.5-1814.1z"/>
		</g>
		<g>
			<path fill="#535353" d="M-1706.7-1987.7c23.7,19.9,41.3,52,43.6,88c2.3,29.1-5.4,55.8-22.2,75.7c-16.1,19.9-38.3,31.4-62.7,32.9
				c-17.6,1.5-34.4-4.6-49.7-14.5c16.8,13.8,36.7,21.4,57.4,19.9c24.5-1.5,47.4-13.8,62.7-32.9c16.1-19.9,24.5-47.4,22.2-75.7
				C-1657.8-1934.2-1678.4-1968.6-1706.7-1987.7z"/>
			<path fill="#535353" d="M-1871.2-1890.6c-3.1-36.7,7.7-71.1,28.3-97.2c21.4-26,51.3-42.1,84.2-44.4c24.5-1.5,49,5.4,69.6,19.9
				c-22.2-17.6-49-27.5-77.3-25.2c-33.7,2.3-63.5,18.4-84.1,44.4c-21.4,26-31.4,61.2-28.3,97.2c3.8,49,29.1,91.8,63.5,115.5
				C-1845.9-1805.7-1868.1-1845.5-1871.2-1890.6z"/>
		</g>
	</g>
	<g id="眼睛6" display="inline">
		<path fill="#F6F3F0" d="M-158.4-1992.3c0,68.1-46.7,112.5-104,112.5s-104.8-44.4-104.8-112.5c0-68.1,46.7-133.1,104-133.1
			S-158.4-2059.7-158.4-1992.3z"/>
		<path fill="#E6E6E6" d="M-169.1-2025.2c0,3.1,0.8,6.9,0.8,9.9c0,68.1-51.3,112.5-114,112.5c-21.4,0-42.1-5.4-58.9-15.3
			c18.4,17.6,42.8,27.5,70.4,27.5c57.4,0,104-44.4,104-112.5C-167.5-2009.9-168.3-2017.6-169.1-2025.2z"/>
		<path fill="#FFFFFF" d="M-342-1968.6c0-68.1,46.7-133.1,104-133.1c12.2,0,24.5,3.1,35.2,8.4c-16.1-13.8-35.2-22.9-56.6-22.9
			c-57.4,0-104,65.8-104,133.1c0,48.2,23.7,84.2,58.1,101C-327.4-1901.3-342-1931.9-342-1968.6z"/>
		<path fill="#8C6239" d="M-262.4-1865.3c-68.9,0-111.7-53.5-111.7-127c0-78.8,48.2-133.1,111.7-133.1s111.7,54.3,111.7,133.1
			C-150.7-1918.1-193.5-1865.3-262.4-1865.3z M-262.4-2110.9c-46.7,0-89.5,56.6-89.5,118.6c0,56.6,37.5,97.2,89.5,97.2
			s89.5-40.5,89.5-97.2C-172.9-2054.3-215.7-2110.9-262.4-2110.9z"/>
		<g>
			<path fill="#744D28" d="M-186.7-2091.8c19.9,23.7,31.4,56.6,31.4,95.6c0,73.4-42.8,127-111.7,127c-32.9,0-58.9-12.2-78-32.1
				c19.1,22.9,47.4,36.7,81.9,36.7c68.8,0,111.7-53.5,111.7-127C-150.7-2033.6-164.5-2068.1-186.7-2091.8z"/>
			<path fill="#744D28" d="M-266.2-2114c-46.7,0-89.5,56.6-89.5,118.6c0,29.1,9.9,54.3,27.5,71.9c-14.5-16.8-23.7-40.5-23.7-67.3
				c0-62,42.8-118.6,89.5-118.6c19.9,0,38.2,9.9,53.5,26C-224.9-2102.5-245.6-2114-266.2-2114z"/>
		</g>
		<g>
			<path fill="#AA8561" d="M-258.6-1889.8c52,0,89.5-40.5,89.5-97.2c0-36-14.5-69.6-35.2-91.8c18.4,22.2,30.6,53.6,30.6,86.4
				c0,56.6-37.5,97.2-89.5,97.2c-25.2,0-47.4-9.9-63.5-26C-309.8-1902.1-286.1-1889.8-258.6-1889.8z"/>
			<path fill="#AA8561" d="M-370.3-1987c0-78.8,48.2-133.1,111.7-133.1c30.6,0,56.6,12.2,76.5,33.7c-19.9-24.5-49-39-81.1-39
				c-63.5,0-111.7,54.3-111.7,133.1c0,38.3,11.5,71.1,32.9,94.1C-360.3-1920.4-370.3-1951.8-370.3-1987z"/>
		</g>
		<circle cx="-260.1" cy="-1998.4" r="12.2"/>
		<path fill="#F6F3F0" d="M15.3-2122.4c-52,0-99.5,62.7-99.5,130.8c0,62,42.1,107.1,99.5,107.1s99.4-45.1,99.4-107.1
			C114.8-2060.4,67.3-2122.4,15.3-2122.4z"/>
		<path fill="#FFFFFF" d="M-62-1964c0-68.8,47.4-130.8,99.4-130.8c19.1,0,38.3,8.4,54.3,22.9c-18.4-26.8-44.4-44.4-71.9-44.4
			c-52,0-99.4,62.7-99.4,130.8c0,35.2,13.8,65,36,84.2C-55.1-1918.1-62-1939.5-62-1964z"/>
		<path fill="#E6E6E6" d="M84.9-2068.8c7.7,17.6,12.2,38.3,12.2,58.9c0,62-43.6,107.1-104,107.1c-19.9,0-37.5-4.6-52.8-13.8
			c16.1,13,36.7,19.9,59.7,19.9c57.4,0,99.5-45.1,99.5-107.1C100.2-2026.8,94.1-2048.9,84.9-2068.8z"/>
		<path fill="#333333" d="M15.3-1873c-66.6,0-107.1-52-107.1-123.2c0-78,45.9-130.8,107.1-130.8s107.1,52.8,107.1,130.8
			C122.4-1925,81.9-1873,15.3-1873z M15.3-2110.9c-42.8,0-83.4,55.8-83.4,114.7c0,53.6,34.4,91,83.4,91s83.4-37.5,83.4-91
			C98.7-2055.1,58.1-2110.9,15.3-2110.9z"/>
		<g>
			<path d="M-45.1-1931.9c-14.5-16.1-22.9-39-22.9-65.8c0-58.9,40.5-114.8,83.4-114.8c15.3,0,29.8,6.9,42.8,19.1
				c-13.8-15.3-31.4-24.5-49-24.5c-42.8,0-83.4,55.8-83.4,114.8C-74.2-1972.4-63.5-1948-45.1-1931.9z"/>
			<path d="M81.9-2101.7c21.4,22.9,34.4,57.4,34.4,99.5c0,71.9-40.5,123.2-107.1,123.2c-28.3,0-52-9.2-69.6-25.2
				c18.4,19.9,43.6,31.4,75,31.4c66.6,0,107.1-52,107.1-123.2C121.6-2042.8,106.3-2078.8,81.9-2101.7z"/>
		</g>
		<g>
			<path fill="#535353" d="M19.1-1900.5c49,0,83.4-37.5,83.4-91c0-31.4-11.5-61.2-28.3-82.6c14.5,21.4,24.5,49,24.5,78
				c0,53.6-34.4,91-83.4,91c-26,0-48.2-10.7-62.7-29.1C-32.9-1913.5-9.2-1900.5,19.1-1900.5z"/>
			<path fill="#535353" d="M-88-1992.3c0-78,45.9-130.8,107.1-130.8c32.1,0,60.4,14.5,79.6,39.8c-19.1-28.3-49-45.1-83.4-45.1
				c-61.2,0-107.1,52.8-107.1,130.8c0,33.7,9.2,63.5,26,84.9C-80.3-1933.4-88-1961-88-1992.3z"/>
		</g>
		<circle cx="17.6" cy="-2003" r="12.2"/>
	</g>
	<g id="眼睛7" display="inline">
		<path fill="#F6F3F0" d="M-289.9-1982.4c38.3-2.3,70.4,8.4,92.6,35.2c5.4,6.1,13,0,9.9-7.7c-16.1-42.1-49.7-89.5-114-91.8
			c-57.4-2.3-89.5,33.7-104.8,75c-8.4,21.4,13.8,42.1,29.1,26.8C-354.2-1967.1-322.8-1980.9-289.9-1982.4z"/>
		<path fill="#E6E6E6" d="M-190.5-1959.4c-5.4-13-12.2-26.8-20.7-39.8c6.9,11.5,13,23,16.8,34.4c3.1,7.7-5.4,13.8-9.9,7.7
			c-22.2-26-54.3-36.7-92.6-35.2c-33.7,1.5-65,15.3-87.2,36.7c-8.4,7.7-18.4,6.1-24.5-0.8c5.4,11.5,18.4,16.8,28.3,6.9
			c22.2-21.4,53.6-35.2,87.2-36.7c38.3-2.3,70.4,8.4,92.6,35.2C-195.8-1945.7-188.2-1951.8-190.5-1959.4z"/>
		<path fill="#FFFFFF" d="M-394.7-1959.4c15.3-41.3,47.4-78,104.8-75c23.7,0.8,42.8,8.4,58.9,18.4c-17.6-15.3-40.5-26-70.4-26.8
			c-57.4-2.3-89.5,33.7-104.8,75c-5.4,14.5,3.1,29.1,13.8,31.4C-396.3-1942.6-397.8-1951-394.7-1959.4z"/>
		<path fill="#8C6239" d="M-388.6-1932.7c-4.6,0-9.2-1.5-13-3.8c-9.9-6.9-17.6-22.2-11.5-38.3c19.9-54.3,60.4-82.6,112.5-80.3
			c55.1,2.3,97.9,36.7,120.9,97.2c3.1,6.9,0,15.3-6.1,19.1c-6.1,3.1-13,2.3-16.8-3.1c-19.1-22.9-49-34.4-86.4-32.1l0,0
			c-30.6,1.5-61.2,14.5-82.6,35.2C-376.4-1935-382.5-1932.7-388.6-1932.7z M-306.8-2039.8c-54.3,0-79.6,38.3-91.8,70.4
			c-3.1,8.4,0,16.8,5.4,19.9c3.1,1.5,6.9,3.1,11.5-1.5c23.7-23,57.4-37.5,92.6-39c39-2.3,71.1,9.2,93.3,32.1
			c-15.3-37.5-45.9-78.8-104.8-81.9C-303.7-2039.8-305.2-2039.8-306.8-2039.8z"/>
		<g>
			<path fill="#744D28" d="M-399.3-1969.4c12.2-32.1,38.3-70.4,91.8-70.4c1.5,0,3.8,0,5.4,0c57.4,2.3,87.2,42.1,103.3,78l0,0
				c-15.3-37.5-45.9-78.8-104.8-81.9c-1.5,0-3.8,0-5.4,0c-54.3,0-79.6,38.3-91.8,70.4c-2.3,5.4-1.5,10.7,0.8,14.5
				C-400.9-1961-400.9-1965.6-399.3-1969.4z"/>
			<path fill="#744D28" d="M-179.8-1957.9c0-0.8-0.8-1.5-1.5-3.1c2.3,6.9,0,14.5-6.1,18.4c-6.1,3.1-13,2.3-16.8-3.1
				c-19.1-23-49-34.4-86.4-32.1c-30.6,1.5-61.2,14.5-82.6,35.2c-5.4,4.6-10.7,6.9-16.8,6.9c-4.6,0-9.2-1.5-13-3.8
				c-4.6-3.1-8.4-7.7-10.7-13c2.3,6.9,6.9,13,12.2,16.1c3.8,3.1,8.4,3.8,13,3.8c6.1,0,12.2-2.3,16.8-6.9
				c21.4-20.7,51.3-33.7,82.6-35.2c37.5-2.3,67.3,9.2,86.4,32.1c4.6,5.4,11.5,6.9,16.8,3.1C-179.8-1943.4-177.5-1951-179.8-1957.9z"
				/>
		</g>
		<g>
			<path fill="#AA8561" d="M-390.9-1945.7c3.1,1.5,6.9,3.1,11.5-1.5c23.7-22.9,57.4-37.5,92.6-39c39-2.3,71.1,9.2,93.3,32.1
				c-6.1-14.5-14.5-29.8-26-43.6c9.9,12.2,17.6,26,22.9,39.8c-22.2-22.9-54.3-33.7-93.3-32.1c-34.4,1.5-68.1,16.1-92.6,39
				c-4.6,4.6-8.4,3.1-11.5,1.5c-0.8,0-0.8-0.8-0.8-0.8C-394-1948.7-392.4-1947.2-390.9-1945.7z"/>
			<path fill="#AA8561" d="M-410-1971.7c19.9-54.3,60.4-82.6,112.5-80.3c36.7,1.5,67.3,17.6,91,45.1c-23.7-30.6-56.6-47.4-94.1-49
				c-52-2.3-92.6,26-112.5,80.3c-5.4,13.8-0.8,26.8,6.9,34.4C-412.3-1948.7-414.6-1959.4-410-1971.7z"/>
		</g>
		<path d="M-372.6-2014.5c5.4,10.7,17.6,16.1,26,9.9c9.2-5.4,11.5-19.9,6.9-30.6C-350.4-2032.1-363.4-2026.8-372.6-2014.5z"/>
		<path fill="#F6F3F0" d="M42.1-1983.9c-38.3-2.3-70.4,8.4-92.6,35.2c-5.4,6.1-13,0-9.9-7.7c16.1-42.1,49.7-89.5,114-91.8
			c57.4-2.3,89.5,33.7,104.8,75c8.4,21.4-13.8,42.1-29.1,26.8C107.1-1968.6,75-1982.4,42.1-1983.9z"/>
		<path fill="#E6E6E6" d="M162.2-1974.7c-0.8-3.1-2.3-5.4-3.1-8.4c2.3,19.1-16.8,34.4-30.6,20.7c-22.2-21.4-53.5-35.2-87.2-36.7
			c-38.3-2.3-70.4,8.4-92.6,35.2c-0.8,1.5-2.3,2.3-3.8,2.3c-0.8,1.5-1.5,3.1-1.5,4.6c-3.1,7.7,5.4,13.8,9.9,7.7
			c22.2-26,54.3-36.7,92.6-35.2c33.7,1.5,65,15.3,87.2,36.7C148.4-1932.7,170.6-1952.6,162.2-1974.7z"/>
		<path fill="#FFFFFF" d="M-47.4-1951.8c17.6-39,50.5-78.8,110.2-81.9c43.6-2.3,71.9,18.4,90.3,45.9c-16.8-35.2-48.2-63.5-98.7-61.2
			c-65,3.1-97.9,50.5-114,91.8c-3.1,7.6,5.4,13.8,9.9,7.6C-49.7-1950.3-49-1951-47.4-1951.8z"/>
		<path fill="#333333" d="M140.8-1934.2c-6.1,0-12.2-2.3-16.8-6.9c-21.4-20.7-51.3-33.7-82.6-35.2l0,0c-37.5-2.3-67.3,9.2-86.4,32.1
			c-4.6,5.4-11.5,6.9-16.8,3.1c-6.1-3.8-8.4-11.5-6.1-19.1c23-60.4,65.8-94.9,120.9-97.2c52.8-2.3,92.6,26,112.5,80.3
			c6.1,16.1-0.8,31.4-11.5,38.3C149.9-1935,145.4-1934.2,140.8-1934.2z M32.9-1991.6c3.1,0,6.1,0,9.2,0l0,0
			c34.4,1.5,68.1,16.1,92.6,39c4.6,4.6,8.4,3.1,11.5,1.5c5.4-3.1,8.4-11.5,5.4-19.9c-12.2-33.7-39.8-72.7-97.2-70.4
			c-58.9,2.3-89.5,45.1-105.6,81.9C-30.6-1980.9-1.5-1991.6,32.9-1991.6z"/>
		<g>
			<path d="M53.5-2040.5c58.1-2.3,84.9,36.7,97.2,70.4v0.8c0-2.3,0-4.6-1.5-6.9c-12.2-33.7-39.8-72.7-97.2-70.4
				c-58.9,2.3-89.5,45.1-105.6,81.9c2.3-2.3,3.8-3.8,6.1-6.1C-29.8-2003.8,0.8-2038.2,53.5-2040.5z"/>
			<path d="M166.8-1971.7c0.8,12.2-5.4,23-13,28.3c-3.8,3.1-8.4,3.8-13,3.8c-6.1,0-12.2-2.3-16.8-6.9
				c-21.4-20.7-51.3-33.7-82.6-35.2c-37.5-2.3-67.3,9.2-86.4,32.1c-4.6,5.4-11.5,6.9-16.8,3.1c-3.1-1.5-5.4-4.6-6.1-7.6
				c0,5.4,2.3,10.7,6.9,13c6.1,3.1,13,2.3,16.8-3.1c19.1-22.9,49-34.4,86.4-32.1c30.6,1.5,61.2,14.5,82.6,35.2
				c5.4,4.6,10.7,6.9,16.8,6.9c4.6,0,9.2-1.5,13-3.8C163.7-1943.4,170.6-1957.1,166.8-1971.7z"/>
		</g>
		<g>
			<path fill="#535353" d="M42.1-1990.8c-3.1,0-6.1,0-9.2,0c-29.8,0-55.8,8.4-75.7,24.5c-1.5,3.8-3.8,7.7-5.4,11.5
				c20.7-21.4,49.7-32.1,84.9-32.1c3.1,0,6.1,0,9.2,0c29.8,1.5,58.9,12.2,81.9,30.6C104.8-1977,74.2-1989.3,42.1-1990.8z"/>
			<path fill="#535353" d="M120.1-2018.3c15.3,13.8,25.2,31.4,31.4,48.2c3.1,8.4,0,16.8-5.4,19.9c-2.3,1.5-6.1,2.3-9.9,0
				c0.8,0.8,1.5,0.8,2.3,1.5c4.6,4.6,8.4,3.1,11.5,1.5c5.4-3.1,8.4-11.5,5.4-19.9C148.4-1985.4,137.7-2004.6,120.1-2018.3z"/>
			<path fill="#535353" d="M-64.3-1956.4c22.9-60.4,65.8-94.9,120.9-97.2c28.3-1.5,52.8,6.9,72.7,22.2c-20.7-18.4-46.7-26.8-76.5-26
				c-55.1,2.3-97.9,36.7-120.9,97.2c-3.1,6.9,0,15.3,6.1,19.1l0,0C-65-1944.1-66.6-1950.3-64.3-1956.4z"/>
			<path fill="#535353" d="M118.6-1945.7c1.5,1.5,3.8,3.1,5.4,4.6c0.8,0.8,1.5,0.8,2.3,1.5C123.9-1941.8,120.9-1943.4,118.6-1945.7z
				"/>
		</g>
		<path d="M124.7-2016c-5.4,10.7-17.6,16.1-26,9.9c-9.2-5.4-11.5-19.9-6.9-30.6C102.5-2032.9,116.3-2028.3,124.7-2016z"/>
	</g>
</g>
<g id="嘴巴" display="none">
	<g id="嘴巴1" display="inline">
		<g>
			<g>
				<path fill="#8C6239" d="M309.1,444.2c-14.5,0-28.3-3.8-32.9-8.4c-6.9-6.9-3.1-17.6,0.8-25.2c-6.9-6.9-17.6-19.9-18.4-32.9
					c0-6.9,2.3-12.2,6.9-16.8c14.5-14.5,47.4-13.8,65-10.7c13,2.3,20.7,6.9,23,13c5.4,13-5.4,32.1-13,42.8c3.8,3.8,8.4,9.2,8.4,15.3
					c0,4.6-1.5,10.7-9.2,16.1C331.2,441.9,319.8,444.2,309.1,444.2z M286.9,425.1c6.1,3.1,31.4,6.9,43.6-1.5
					c2.3-1.5,2.3-2.3,2.3-2.3c0-1.5-3.8-5.4-7.6-7.6l-7.6-4.6l5.4-6.9c9.2-11.5,17.6-28.3,15.3-33.7c-1.5-1.5-11.5-5.4-27.5-5.4
					c-16.1-0.8-29.8,3.1-35.2,7.6c-1.5,1.5-2.3,3.1-2.3,5.4c0,8.4,11.5,20.7,17.6,26l5.4,4.6l-3.8,5.4
					C289.9,417.4,287.6,422.8,286.9,425.1z"/>
			</g>
			<g>
				<path fill="#744D28" d="M283.8,423.5c0.8,0.8,1.5,0.8,3.1,1.5c0.8-3.1,3.1-7.6,5.4-12.2l3.8-5.4l-5.4-4.6
					c-6.9-5.4-17.6-17.6-17.6-26c0-2.3,0.8-3.8,2.3-5.4c5.4-5.4,19.1-8.4,35.2-7.6c11.5,0,19.9,2.3,24.5,3.8l0,0
					c-1.5-1.5-11.5-5.4-27.5-5.4c-16.1-0.8-29.8,3.1-35.2,7.6c-1.5,1.5-2.3,3.1-2.3,5.4c0,8.4,11.5,20.7,17.6,26l5.4,4.6l-3.8,5.4
					C286.9,415.9,284.6,421.2,283.8,423.5z"/>
				<path fill="#744D28" d="M352.7,363.1c-1.5-3.8-4.6-6.9-9.9-9.2c3.1,2.3,5.4,4.6,6.9,6.9c5.4,13-5.4,32.1-13,42.8
					c3.8,3.8,8.4,9.2,8.4,15.3c0,4.6-1.5,10.7-9.2,16.1c-7.6,5.4-19.1,7.6-30.6,7.6c-10.7,0-21.4-2.3-28.3-5.4
					c6.1,3.8,18.4,6.9,31.4,6.9c10.7,0,22.2-2.3,30.6-7.6c7.7-5.4,9.2-11.5,9.2-16.1c0-6.1-4.6-11.5-8.4-15.3
					C347.3,395.2,358,376.1,352.7,363.1z"/>
			</g>
			<path fill="#AA8561" d="M277.7,437.3c-6.9-6.9-3.1-17.6,0.8-25.2c-6.9-6.9-17.6-19.9-18.4-32.9c0-6.9,2.3-12.2,6.9-16.8
				c14.5-14.5,47.4-13.8,65-10.7c6.9,1.5,12.2,3.1,16.1,5.4c-3.8-3.1-9.9-5.4-18.4-7.6c-17.6-3.8-50.5-3.8-65,10.7
				c-4.6,4.6-6.9,10.7-6.9,16.8c0.8,13,11.5,26,18.4,32.9c-3.8,7.6-7.6,18.4-0.8,25.2C276.2,436.5,276.9,437.3,277.7,437.3
				C278.5,438.1,277.7,437.3,277.7,437.3z"/>
			<path d="M298.4,406.7c0,0,7.6-28.3,19.1-0.8C317.5,405.9,309.8,434.3,298.4,406.7z"/>
		</g>
	</g>
	<g id="嘴巴2" display="inline">
		<g>
			<path fill="#8C6239" d="M220.3,416.7c0,0,150.7-15.3,163.7-41.3C384,375.3,446.8,415.1,220.3,416.7z"/>
			<path fill="#744D28" d="M384,375.3L384,375.3c7.7,6.9,36.7,38.3-155.3,40.5c-5.4,0.8-8.4,0.8-8.4,0.8
				C446.8,415.9,384,375.3,384,375.3z"/>
			<path fill="#AA8561" d="M385.6,376.9c0,0,1.5,1.5,3.8,3.1c-2.3-3.1-5.4-5.4-5.4-5.4c-13.8,26-163.7,41.3-163.7,41.3
				c6.9,0,13.8,0,19.9,0C280.8,411.3,374.9,397.5,385.6,376.9z"/>
		</g>
	</g>
	<g id="嘴巴3" display="inline">
		<g>
			<path fill="#F6F3F0" d="M391.7,362.3h-0.8c-4.6-24.5-26-42.1-52-42.1c-13,0-24.5,4.6-33.7,12.2c-4.6-3.1-9.9-5.4-15.3-5.4
				c-9.9,0-19.1,6.1-23,14.5c-3.1-0.8-6.9-1.5-9.9-1.5c-23.7,0-42.8,18.4-43.6,42.1l0,0c-18.4,0-32.9,14.5-32.9,32.9
				s14.5,32.9,32.9,32.9c2.3,0,5.4,0,7.7-0.8c6.1,6.9,15.3,11.5,25.2,11.5c4.6,0,8.4-0.8,12.2-2.3c7.6,9.2,19.1,14.5,32.1,14.5
				c13.8,0,26-6.9,34.4-16.8c4.6,2.3,9.2,3.8,14.5,3.8c12.2,0,23-6.9,28.3-17.6c6.9,4.6,15.3,7.6,24.5,7.6
				c23.7,0,42.8-19.1,42.8-42.8C434.5,382.2,415.4,362.3,391.7,362.3z"/>
			<g>
				<path fill="#FFFFFF" d="M419.2,389.1h0.8c3.1,0,6.1,0,9.2,0.8c-3.8-9.9-11.5-17.6-20.7-22.2
					C413.9,373.8,417.7,381.5,419.2,389.1z"/>
				<path fill="#FFFFFF" d="M208.1,441.9c0-18.4,14.5-32.9,32.9-32.9l0,0c0.8-23.7,19.9-42.1,43.6-42.1c3.8,0,6.9,0.8,9.9,1.5
					c3.8-8.4,13-14.5,23-14.5c6.1,0,10.7,2.3,15.3,5.4c9.2-7.6,20.7-12.2,33.7-12.2c6.1,0,11.5,0.8,16.1,3.1
					c-9.2-16.8-26.8-29.1-46.7-29.1c-13,0-24.5,4.6-33.7,12.2c-4.6-3.1-9.9-5.4-15.3-5.4c-9.9,0-19.1,6.1-22.9,14.5
					c-3.1-0.8-6.9-1.5-9.9-1.5c-23.7,0-42.8,18.4-43.6,42.1l0,0c-18.4,0-32.9,14.5-32.9,32.9c0,17.6,13.8,32.1,31.4,32.9
					C208.1,446.5,208.1,444.2,208.1,441.9z"/>
			</g>
			<path fill="#E6E6E6" d="M414.6,370c5.4,6.9,9.2,16.1,9.2,26c0,23.7-19.1,42.8-42.8,42.8c-9.2,0-17.6-3.1-24.5-7.6
				c-5.4,10.7-16.8,18.4-29.1,18.4c-5.4,0-10.7-1.5-14.5-3.8c-7.6,9.9-19.9,16.8-34.4,16.8c-13,0-24.5-5.4-32.1-14.5
				c-3.8,1.5-7.7,2.3-12.2,2.3c-3.1,0-6.1,0.8-9.9,2.3c5.4,3.1,11.5,5.4,17.6,5.4c4.6,0,8.4-0.8,12.2-2.3
				c7.6,9.2,19.1,14.5,32.1,14.5c13.8,0,26-6.9,34.4-16.8c4.6,2.3,9.2,3.8,14.5,3.8c12.2,0,22.9-6.9,28.3-17.6
				c6.9,4.6,15.3,7.6,24.5,7.6c23.7,0,42.8-19.1,42.8-42.8C431.5,389.9,424.6,377.6,414.6,370z"/>
		</g>
	</g>
	<g id="嘴巴4" display="inline">
		<g>
			<path fill="#8C6239" d="M443.7,323.3c17.6,127.8-23,295.3-98.7,305.2c-75.7,10.7-159.1-140-176.7-267.7s37.5-185.9,114-195.8
				C358.8,155,426.1,194.8,443.7,323.3z"/>
			<path fill="#744D28" d="M442.9,322.6c-9.9-74.2-37.5-119.3-73.4-142.3c32.9,23.7,58.1,67.3,68.1,138.5
				c17.6,127.8-23,295.3-98.7,305.2c-15.3,2.3-31.4-2.3-46.7-12.2c17.6,12.2,35.2,18.4,52.8,16.1
				C420.8,617.9,460.5,451.1,442.9,322.6z"/>
			<path fill="#AA8561" d="M175.2,366.9c-17.6-127.8,37.5-185.1,114-195.8c36.7-5.4,71.1,2.3,99.5,24.5
				c-29.1-27.5-67.3-36.7-107.1-31.4c-75.7,10.7-130.8,68.1-114,195.8c13,94.9,62,201.2,117,246.3
				C232.6,558.2,187.4,457.2,175.2,366.9z"/>
			<path fill="#333333" d="M425.3,341.7C440.6,454.1,407,601,342,609.4S205.1,486.2,189.8,373.8s31.4-162.9,97.2-171.4
				C352.7,194,410,229.2,425.3,341.7z"/>
			<path fill="#EC5A5A" d="M319.8,426.6c-9.9,0-28.3,26.8-28.3,35.2c0,8.4,6.9,15.3,15.3,15.3c6.1,0,10.7-3.1,13-8.4
				c2.3,4.6,7.7,8.4,13,8.4c8.4,0,15.3-6.9,15.3-15.3C348.1,454.1,329.7,427.4,319.8,426.6z"/>
		</g>
	</g>
	<g id="嘴巴5" display="inline">
		<g>
			<g>
				<g>
					<path fill="#8C6239" d="M224.9,392.2c-23.7,0-36.7-22.2-37.5-23.7c-2.3-3.8-0.8-8.4,3.1-10.7c3.8-2.3,8.4-0.8,10.7,3.1
						c0.8,0.8,10.7,18.4,27.5,15.3c3.8-0.8,8.4-1.5,13.8-3.1c27.5-6.9,73.4-19.1,142.3,3.8c5.4-0.8,22.2-3.1,25.2-17.6
						c0.8-3.8,4.6-6.9,9.2-6.1c3.8,0.8,6.9,5.4,6.1,9.2c-6.1,26-34.4,29.8-39.8,29.8c-1.5,0-3.1,0-3.8-0.8
						c-65-21.4-108.6-10.7-134.6-3.8c-6.1,1.5-11.5,3.1-15.3,3.8C228.7,392.2,227.2,392.2,224.9,392.2z"/>
				</g>
				<g>
					<g>
						<path fill="#FFFFFF" d="M267,379.2c0,0-25.2,15.3-20.7,57.4"/>
					</g>
					<g>
						<path fill="#8C6239" d="M248.6,438.8c-1.5,0-3.1-1.5-3.8-3.1c-4.6-43.6,21.4-60.4,22.2-61.2c1.5-0.8,3.8-0.8,4.6,1.5
							c0.8,1.5,0,3.8-1.5,4.6C244,403.6,250.9,438.8,248.6,438.8L248.6,438.8z"/>
					</g>
				</g>
				<g>
					<g>
						<path fill="#FFFFFF" d="M283.1,379.2c0,0-6.9,16.1-5.4,34.4"/>
					</g>
					<g>
						<path fill="#8C6239" d="M276.9,417.4c-1.5,0-3.1-1.5-3.8-3.1c-1.5-18.4,5.4-35.2,6.1-36c0.8-1.5,3.1-2.3,4.6-1.5
							s2.3,3.1,1.5,4.6C286.1,380.7,273.1,405.9,276.9,417.4C277.7,417.4,276.9,417.4,276.9,417.4z"/>
					</g>
				</g>
				<g>
					<g>
						<path fill="#FFFFFF" d="M319,375.3c0,0,16.1,13.8,19.9,47.4"/>
					</g>
					<g>
						<path fill="#8C6239" d="M338.9,426.6c-4.6-26.8-22.2-47.4-22.9-48.2c-1.5-1.5-1.5-3.8,0-4.6c1.5-1.5,3.8-1.5,4.6,0
							c0.8,0.8,16.8,15.3,21.4,49C342.7,424.3,341.2,425.8,338.9,426.6L338.9,426.6z"/>
					</g>
				</g>
				<g>
					<g>
						<path fill="#8C6239" d="M374.9,407.5C374.1,407.5,374.1,407.5,374.9,407.5c-2.3,0,3.1-4.6-13-23.7c-1.5-1.5-0.8-3.8,0.8-4.6
							c1.5-1.5,3.8-0.8,4.6,0.8c1.5,1.5,11.5,15.3,10.7,24.5C377.9,405.9,376.4,407.5,374.9,407.5z"/>
					</g>
				</g>
			</g>
			<g>
				<path fill="#744D28" d="M275.4,379.9c-1.5,0-3.1,0.8-4.6,0.8c-0.8,0.8-1.5,1.5-2.3,2.3c2.3-0.8,4.6-0.8,6.9-1.5
					C275.4,381.5,275.4,380.7,275.4,379.9z"/>
				<path fill="#744D28" d="M202.7,363.9c-0.8-1.5-1.5-2.3-1.5-2.3c0-0.8-0.8-0.8-0.8-1.5C200.4,360.8,201.2,362.3,202.7,363.9z"/>
				<path fill="#744D28" d="M361.8,385.3c-13-3.1-24.5-5.4-36-6.9c0,0.8,0.8,0.8,0.8,1.5c10.7,0.8,23,3.1,35.2,6.1
					C361.8,386.1,361.8,386.1,361.8,385.3z"/>
				<path fill="#744D28" d="M423,355.5c0.8,1.5,1.5,3.1,0.8,5.4c-2.3,9.9-7.7,16.8-13.8,21.4c-10.7,7.6-23,9.2-26.8,9.2
					c-1.5,0-3.1,0-3.8-0.8c-1.5-0.8-3.1-0.8-5.4-1.5v0.8c2.3,0.8,4.6,1.5,7.6,2.3c1.5,0.8,3.1,0.8,3.8,0.8
					c5.4-0.8,34.4-3.8,39.8-29.8C426.1,360,424.6,357,423,355.5z"/>
				<path fill="#744D28" d="M314.4,377.6c-10.7-0.8-19.9,0-28.3,0.8c0,0.8,0,1.5,0,1.5c9.2-0.8,19.1-1.5,29.8-0.8
					C315.2,378.4,315.2,378.4,314.4,377.6z"/>
				<path fill="#744D28" d="M251.7,386.8c0.8-0.8,0.8-1.5,1.5-2.3c-3.1,0.8-6.1,1.5-9.2,2.3c-6.1,1.5-11.5,3.1-15.3,3.8
					c-2.3,0-3.8,0.8-6.1,0.8c-6.1,0-12.2-1.5-16.8-3.8c5.4,3.1,12.2,5.4,19.9,5.4c2.3,0,3.8,0,6.1-0.8c4.6-0.8,9.9-2.3,15.3-3.8
					C247.9,387.6,250.2,387.6,251.7,386.8z"/>
			</g>
			<g>
				<path fill="#AA8561" d="M230.3,378.4c3.8-0.8,8.4-1.5,13.8-3.1c27.5-6.9,73.4-19.1,142.3,3.8c5.4-0.8,22.2-3.1,25.2-17.6
					c0.8-3.8,4.6-6.9,9.2-6.1c0.8,0,0.8,0.8,1.5,0.8c-0.8-0.8-2.3-1.5-3.8-2.3c-3.8-0.8-8.4,1.5-9.2,6.1
					c-3.1,14.5-19.9,17.6-25.2,17.6c-68.8-22.9-114.8-10.7-142.3-3.8c-5.4,1.5-10.7,3.1-13.8,3.1c-6.1,0.8-11.5-0.8-16.1-3.1
					C217.3,376.9,223.4,379.2,230.3,378.4z"/>
				<path fill="#AA8561" d="M189.7,370c-2.3-3.8-0.8-8.4,3.1-10.7c2.3-1.5,4.6-1.5,6.9,0c-2.3-2.3-6.1-3.1-9.2-1.5
					c-3.8,2.3-4.6,6.9-3.1,10.7c0.8,0.8,6.1,10.7,16.8,17.6C195.1,379.2,189.7,370.8,189.7,370z"/>
			</g>
		</g>
	</g>
	<g id="嘴巴6" display="inline">
		<g>
			<path fill="#EC5A5A" d="M370.3,536.8H241.7c-4.6,0-7.6-3.1-7.6-7.6V308c0-29.1,23.7-53.5,53.5-53.5h37.5
				c29.1,0,53.6,23.7,53.6,53.5v221.1C377.9,533.7,374.9,536.8,370.3,536.8z"/>
			<path fill="#8C6239" d="M370.3,544.4H241.7c-8.4,0-15.3-6.9-15.3-15.3V308c0-33.7,27.5-61.2,61.2-61.2h37.5
				c33.7,0,61.2,27.5,61.2,61.2v221.1C385.6,537.5,378.7,544.4,370.3,544.4z M286.9,262.9c-25.2,0-45.9,20.7-45.9,45.9v221.1h129.3
				V308.8c0-25.2-20.7-45.9-45.9-45.9H286.9z"/>
			<g>
				<path fill="#AA8561" d="M370.3,308.8v221.1H250.2v3.8h129.3V312.6c0-20.7-13-37.5-31.4-43.6
					C361.1,276.7,370.3,291.2,370.3,308.8z"/>
				<path fill="#AA8561" d="M234.9,533.7V312.6c0-33.7,27.5-61.2,61.2-61.2h37.5c6.9,0,14.5,1.5,20.7,3.8
					c-8.4-4.6-18.4-7.6-29.1-7.6h-37.5c-33.7,0-61.2,27.5-61.2,61.2v221.1c0,7.7,6.1,14.5,13.8,15.3
					C236.4,542.1,234.9,538.3,234.9,533.7z"/>
			</g>
		</g>
	</g>
	<g id="嘴巴7" display="inline">
		<g>
			<path fill="#EC5A5A" d="M310.6,389.9c-68.1,0-120.9-26-150.7-65c-5.4-6.9-16.8-3.8-17.6,5.4c-0.8,3.1-0.8,6.9-0.8,9.9
				c0,62.7,73.4,101.7,164.5,101.7s164.5-38.3,164.5-101l0,0c0-8.4-10.7-13-16.8-6.9C422.3,367.7,373.3,389.9,310.6,389.9z"/>
			<path fill="#8C6239" d="M306,449.6c-101,0-172.1-45.1-172.1-108.6c0-3.8,0-7.6,0.8-10.7c0.8-6.9,6.1-13,13-15.3
				c6.9-1.5,13.8,0.8,18.4,6.1c30.6,39,83.4,62,144.6,62c55.8,0,104.8-19.1,137.7-53.5c4.6-5.4,12.2-6.9,19.1-3.8
				c6.9,2.3,10.7,9.2,10.7,16.1C478.1,404.4,407,449.6,306,449.6z M152.2,328.7L152.2,328.7c-1.5,0-2.3,0.8-2.3,2.3
				c-0.8,3.1-0.8,6.1-0.8,9.2c0,55.1,64.3,94.1,156.8,94.1S462.7,396,462.7,341c0-0.8-0.8-1.5-1.5-2.3c-0.8,0-1.5,0-2.3,0.8
				c-36,37.5-88.7,58.9-149.2,58.9c-65.8,0-123.2-24.5-156.8-68.1C153.8,329.4,153,328.7,152.2,328.7z"/>
			<g>
				<path fill="#AA8561" d="M309.1,441.1c92.6,0,156.8-38.3,156.8-93.3c0-0.8-0.8-1.5-1.5-2.3c-0.8,0-1.5,0-2.3,0.8
					c-4.6,52-67.3,87.2-156.1,87.2c-76.5,0-133.9-26.8-151.5-66.6C168.3,411.3,228,441.1,309.1,441.1z"/>
				<path fill="#AA8561" d="M136.9,347.8c0-3.8,0-7.7,0.8-10.7c0.8-6.9,6.1-13,13-15.3c6.9-1.5,13.8,0.8,18.4,6.1
					c30.6,39,83.4,62,144.6,62c55.8,0,104.8-19.1,137.7-53.5c4.6-5.4,12.2-6.9,19.1-3.8c3.1,1.5,6.1,3.1,7.6,6.1
					c-0.8-6.1-4.6-11.5-10.7-13.8c-6.9-2.3-13.8-0.8-19.1,3.8c-32.9,34.4-81.9,53.5-137.7,53.5c-61.2,0-114-22.2-144.6-62
					c-4.6-5.4-11.5-7.6-18.4-6.1c-6.9,2.3-12.2,7.6-13,15.3c-0.8,3.8-0.8,7.6-0.8,10.7c0,12.2,2.3,23.7,7.7,34.4
					C138.5,366.2,136.9,357,136.9,347.8z"/>
			</g>
			<g>
				<path fill="#29ABE2" d="M175.9,398.3c0,0,43.6,37.5,126.2,37.5S164.5,362.3,175.9,398.3z"/>
			</g>
			<g>
				<path fill="#29ABE2" d="M211.1,462.6c0,9.2-6.1,16.1-14.5,16.1s-14.5-6.9-14.5-16.1s6.1-54.3,14.5-54.3
					C205,408.2,211.1,452.6,211.1,462.6z"/>
			</g>
			<path fill="#4CC7F2" d="M189.7,468.7c0-9.2,6.1-49.7,13-53.6c-1.5-4.6-3.8-6.9-5.4-6.9c-7.6,0-14.5,45.1-14.5,54.3
				c0,6.9,3.8,13,8.4,15.3C190.5,474.8,189.7,471.7,189.7,468.7z"/>
		</g>
	</g>
	<g id="嘴巴8" display="inline">
		<g>
			<path fill="#BC4444" d="M394.7,185.6c0-1.5-1.5-2.3-3.1-2.3c-3.8,0-13.8,1.5-26.8,2.3c-49.7,4.6-91.8,43.6-109.4,99.5
				c-29.8,95.6-63.5,240.2-16.1,299.1c3.1,3.8,8.4,2.3,9.2-3.1c3.8-21.4,12.2-66.6,16.1-65.8c5.4,0.8-0.8,4.6-2.3,56.6
				c0,2.3-2.3,34.4,2.3,31.4c5.4-3.8,10.7-9.9,16.8-19.9c2.3-3.1,6.1-2.3,7.7,1.5c0.8,5.4,2.3,7.7,3.8,8.4c3.8,0,7.6-16.8,10.7-44.4
				c0.8-9.2,3.1-18.4,6.9-26.8c2.3-6.1,4.6-13,7.6-19.9c1.5-5.4,8.4-4.6,9.2,0.8c6.1,23.7,12.2,38.3,16.1,38.3
				c6.9,0,6.1-35.2,5.4-85.7c-0.8-30.6,3.1-61.2,10.7-90.3C383.3,280.5,397.8,201.7,394.7,185.6z"/>
			<path fill="#C75656" d="M296.1,302.7c16.1-51.3,53.5-88,97.9-97.2c0.8-8.4,0.8-15.3,0-18.4c0-1.5-1.5-2.3-3.1-2.3
				c-3.8,0-13.8,1.5-26.8,2.3c-49.7,4.6-91.8,43.6-109.4,99.4c-29.8,95.6-63.5,240.2-16.1,299.1c3.1,3.8,8.4,2.3,9.2-3.1
				c2.3-12.2,5.4-32.1,9.2-46.7C251.7,465.6,274.6,371.5,296.1,302.7z"/>
			<path fill="#BC4444" d="M384,548.2c0.8,32.9-3.8,38.3-9.9,38.3s-11.5-4.6-12.2-37.5c-0.8-32.9,3.1-80.3,9.2-80.3
				S383.3,516.1,384,548.2z"/>
			<path fill="#BC4444" d="M416.9,270.5c0,13-4.6,15.3-10.7,15.3s-10.7-1.5-11.5-15.3c0-13,3.8-32.1,9.9-32.9
				C410.8,238.4,416.2,257.5,416.9,270.5z"/>
			<path fill="#BC4444" d="M337.4,598.7c0,7.6-3.1,9.2-6.1,9.2c-3.8,0-6.9-0.8-6.9-9.2c0-7.7-2.3-19.9,1.5-19.9
				C329.7,579.6,337.4,591.1,337.4,598.7z"/>
			<path fill="#BC4444" d="M218.8,388.4c-13,40.5-17.6,46.7-21.4,45.1c-3.8-0.8-4.6-8.4,8.4-49s34.4-99.4,37.5-98.7
				C247.1,287.4,231.8,347.8,218.8,388.4z"/>
		</g>
	</g>
</g>
</svg>
