<?xml version="1.0" encoding="utf-8"?>
<!-- Generator: Adobe Illustrator 18.0.0, SVG Export Plug-In . SVG Version: 6.00 Build 0)  -->
<!DOCTYPE svg PUBLIC "-//W3C//DTD SVG 1.1//EN" "http://www.w3.org/Graphics/SVG/1.1/DTD/svg11.dtd">
<svg version="1.1" id="图层_1" xmlns="http://www.w3.org/2000/svg" xmlns:xlink="http://www.w3.org/1999/xlink" x="0px" y="0px"
	 viewBox="0 0 612 792" enable-background="new 0 0 612 792" xml:space="preserve">
<g id="图层_1_1_" display="none">
	<rect x="-3519" y="-3429" display="inline" fill="#777676" width="7650" height="7650"/>
	<path display="inline" fill="#C69C6D" d="M-702.3-841"/>
</g>
<g id="身体">
	<g id="身体1" display="none">
		<g display="inline">
			<path fill="#8C6239" d="M417.4,200l-41.3-14.5l23.7,36.7c57.4,91,81.9,101.7,93.3,101.7c2.3,0,3.8-0.8,5.4-0.8
				c6.1-1.5,16.1-6.9,16.8-25.2C520,237.5,428.2,203.8,417.4,200z"/>
			<path fill="#744D28" d="M425.9,203.1c-3.8-1.5-6.9-2.3-8.4-3.1l-39.8-13.8c30.6,18.4,53.5,55.8,60.4,92.6
				c14.5,19.1,26,29.8,34.4,36.7c0-3.1,0.8-6.1,0.8-9.2C473.3,269.6,454.2,228.3,425.9,203.1z"/>
			<path fill="#8C6239" d="M365.4,357.6c0,19.9-6.9,36-26.8,36s-26.8-16.1-26.8-36s6.9-36,26.8-36
				C357.8,321.7,365.4,337.7,365.4,357.6z"/>
			<path fill="#333333" d="M209.4,330.8c-38.3,0-69.6,31.4-69.6,69.6H279C279,362.2,247.6,330.8,209.4,330.8z"/>
			<path d="M220.8,332.4c29.8,8.4,51.3,36.7,51.3,68.9h6.9C279,366,253.7,337.7,220.8,332.4z"/>
			<path fill="#C69C6D" d="M471,330.8c-38.3,0-69.6,31.4-69.6,69.6h140C541.4,362.2,510,330.8,471,330.8z"/>
			<path fill="#8C6239" stroke="#8C6239" stroke-width="4" stroke-miterlimit="10" d="M263.7,214.6c0,0-91.8,31.4-88,82.6
				C178.8,348.4,263.7,214.6,263.7,214.6z"/>
			<path fill="#744D28" d="M295.8,187.8l-22.2,34.4C216.3,312.5,191,324,179.5,324l0,0c1.5,0,2.3,0.8,3.8,0.8
				c11.5,0,36.7-11.5,94.1-101.7l23.7-36.7L295.8,187.8z"/>
			<path fill="#AA8561" d="M168.8,302.5c-3.8-61.2,88-94.1,98.7-97.9l26.8-9.2l6.1-9.2l-41.3,14.6c-10.7,3.1-102.5,36.7-98.7,97.2
				c1.5,18.4,11.5,23.7,16.8,25.2c0,0,0,0,0.8,0C173.4,320.1,169.6,313.2,168.8,302.5z"/>
			<path fill="#AA8561" d="M422,209.2c8.4,3.1,65.8,23.7,89.5,62c-19.1-43.6-84.9-67.3-93.3-70.4l-41.3-14.5l6.1,9.2L422,209.2z"/>
			<path fill="#C69C6D" d="M440.4,301c0,56.6-45.9,78.8-102.5,78.8s-101.8-23-101.8-78.8S282,175.5,338.6,175.5
				S440.4,244.4,440.4,301z"/>
			<path fill="#BD9261" d="M412.1,218.4c14.5,23,23,49.7,23,74.2c0,56.6-45.9,78.8-102.5,78.8c-36.7,0-68.9-9.2-86.4-31.4
				c16.1,28.3,51.3,39.8,92.6,39.8c56.6,0,102.5-22.2,102.5-78.8C440.4,273.5,429.7,242.1,412.1,218.4z"/>
			<path fill="#DCB890" d="M243,307.1c0-56.6,45.9-125.5,102.5-125.5c20.7,0,39,9.2,55.1,23c-16.8-17.6-38.3-29.8-62-29.8
				c-56.6,0-102.5,69.6-102.5,125.5c0,25.2,9.2,43.6,23.7,55.8C249.1,344.6,243,328.5,243,307.1z"/>
			<g>
				<g>
					<path fill="#333333" d="M342.5,328.5c-1.5-6.9-12.2-13-12.2-13v-0.8c0.8,0,12.2,5.4,13.8,13L342.5,328.5z"/>
				</g>
				<g>
					<path fill="#333333" d="M332.5,327.8h-0.8c1.5-9.2,13-13.8,13.8-14.5l0.8,2.3C346.3,316.3,334.1,320.1,332.5,327.8z"/>
				</g>
				<g>
					<path fill="#333333" d="M337.9,340c-11.5,0-20.7-9.2-20.7-20.7c0-6.1,3.1-12.2,7.6-16.1c0.8-0.8,2.3-0.8,3.1,0
						c0.8,0.8,0.8,2.3,0,3.1c-3.8,3.1-6.1,7.6-6.1,13c0,9.2,7.6,16.8,16.8,16.8c9.2,0,16.8-7.6,16.8-16.8c0-4.6-2.3-9.2-5.4-12.2
						c-0.8-0.8-0.8-1.5,0-3.1c0.8-0.8,1.5-0.8,3.1,0c4.6,3.8,6.9,9.2,6.9,15.3C358.5,330.8,349.4,340,337.9,340z"/>
				</g>
			</g>
			<path fill="#535353" d="M214.7,331.6c-1.5,0-3.1,0-5.4,0c-38.3,0-69.6,31.4-69.6,69.6h9.9C149.7,364.5,178,333.9,214.7,331.6z"/>
			<path fill="#BD9261" d="M480.9,331.6c-3.1-0.8-6.1-0.8-9.9-0.8c-38.3,0-69.6,31.4-69.6,69.6h23.7
				C425.1,366.8,448.8,338.5,480.9,331.6z"/>
		</g>
	</g>
	<g id="身体2" display="none">
		<g display="inline">
			<path fill="#8C6239" d="M422.8,247.5L381.5,233l23.7,36.7c57.4,90.3,82.6,101.7,94.1,101.7c2.3,0,3.8-0.8,5.4-0.8
				c6.1-1.5,16.1-6.9,16.8-25.2C526.1,284.2,433.5,250.5,422.8,247.5z"/>
			<path fill="#744D28" d="M431.2,250.5c-3.8-1.5-6.9-2.3-8.4-3.1L383,233.6c30.6,18.4,53.6,55.8,60.4,92.6
				c14.5,19.1,26,29.8,34.4,36.7c0-3.1,0.8-6.1,0.8-9.2C479.4,317.1,460.3,275.8,431.2,250.5z"/>
			<path fill="#8C6239" d="M252.2,255.9c-10.7-16.9-20.6-31.4-29.1-42.9c7.6-9.2,13-20.7,13-33.7c0-28.3-22.9-51.3-51.3-51.3
				s-51.3,22.9-51.3,51.3c0,6.1,1.5,12.2,3.1,17.6c11.5,50.5,88,78,97.2,81.9l41.3,14.5L252.2,255.9z"/>
			<path fill="#744D28" d="M252.2,255.9c-10.7-16.9-20.6-31.4-29.1-42.9c7.6-9.2,13-20.7,13-33.7c0-23-15.3-42.1-36-49
				c17.6,8.4,29.8,26,29.8,46.7c0,13-4.6,24.5-13,33.7c8.4,11.5,18.4,26,29.1,42.8l23.7,36.7l-41.3-14.5c-0.8,0-1.5-0.8-2.3-0.8
				c3.8,1.5,6.9,3.1,8.4,3.1l41.3,14.5L252.2,255.9z"/>
			<path fill="#333333" d="M214.7,378.3c-38.3,0-69.6,31.4-69.6,69.6h140C285.1,409.6,253.7,378.3,214.7,378.3z"/>
			<path d="M227,379c29.8,8.4,51.3,36.7,51.3,68.8h6.1C285.1,413.5,259.9,384.4,227,379z"/>
			<path fill="#535353" d="M220.1,378.3c-1.5,0-3.1,0-5.4,0c-38.3,0-69.6,31.4-69.6,69.6h9.9C155.1,411.2,184.1,380.6,220.1,378.3z"
				/>
			<path fill="#8C6239" d="M370.8,405c0,19.9-6.9,36-26.8,36s-26.8-16.1-26.8-36s6.9-36,26.8-36S370.8,385.2,370.8,405z"/>
			<path fill="#C69C6D" d="M477.1,378.3c-38.3,0-69.6,31.4-69.6,69.6h139.2C546.7,409.6,515.4,378.3,477.1,378.3z"/>
			<path fill="#AA8561" d="M422.8,247.5L381.5,233l2.3,3.1l39,13c10.7,3.8,102.5,37.5,98.7,97.9c0,3.8-0.8,6.9-1.5,9.9
				c1.5-3.1,2.3-6.9,2.3-12.2C525.3,284.2,433.5,250.5,422.8,247.5z"/>
			<path fill="#C69C6D" d="M446.5,347.7c0,56.6-45.9,78.8-102.5,78.8s-102.5-22.2-102.5-78.8S287.4,222.2,344,222.2
				S446.5,291.1,446.5,347.7z"/>
			<path fill="#BD9261" d="M486.3,378.3c-3.1-0.8-6.1-0.8-9.9-0.8c-38.3,0-69.6,31.4-69.6,69.6h23.7
				C431.2,414.2,454.9,385.2,486.3,378.3z"/>
			<path fill="#BD9261" d="M417.4,265c14.5,23,23,49.7,23,74.2c0,56.6-45.9,78.8-102.5,78.8c-36.7,0-68.8-9.2-86.4-31.4
				c16.1,28.3,51.3,39.8,92.6,39.8c56.6,0,102.5-22.2,102.5-78.8C446.5,320.1,435,289.5,417.4,265z"/>
			<path fill="#DCB890" d="M248.4,354.6c0-56.6,45.9-125.5,102.5-125.5c20.7,0,39,9.2,55.1,23c-16.8-17.6-38.3-29.8-62-29.8
				c-56.6,0-102.5,69.6-102.5,125.5c0,25.2,9.2,43.6,23.7,55.8C255.3,391.3,248.4,375.2,248.4,354.6z"/>
			<g>
				<path fill="#333333" d="M348.6,375.2c-1.5-6.9-12.2-13-12.2-13v-0.8c0.8,0,12.2,5.4,13.8,13L348.6,375.2z"/>
			</g>
			<g>
				<path fill="#333333" d="M337.9,375.2h-0.8c1.5-9.2,13-13.8,13.8-14.5l0.8,2.3C351.7,363,339.4,366.8,337.9,375.2z"/>
			</g>
			<g>
				<path fill="#333333" d="M344,387.4c-11.5,0-20.7-9.2-20.7-20.7c0-6.1,3.1-12.2,7.6-16.1c0.8-0.8,2.3-0.8,3.1,0
					c0.8,0.8,0.8,2.3,0,3.1c-3.8,3.1-6.1,7.6-6.1,13c0,9.2,7.6,16.8,16.8,16.8c9.2,0,16.8-7.7,16.8-16.8c0-4.6-2.3-9.2-5.4-12.2
					c-0.8-0.8-0.8-1.5,0-3.1c0.8-0.8,1.5-0.8,3.1,0c4.6,3.8,6.9,9.2,6.9,15.3C363.9,378.3,354.7,387.4,344,387.4z"/>
			</g>
			<path fill="#AA8561" d="M143.6,204.6c-2.3-5.4-3.1-11.5-3.1-17.6c0-28.3,23-51.3,51.3-51.3c13.8,0,26,5.4,35.2,13.8
				c-9.2-13-24.5-21.4-41.3-21.4c-28.3,0-51.3,22.9-51.3,51.3c0,6.1,1.5,12.2,3.1,17.6c3.1,13.8,10.7,25.2,20.7,36
				C150.5,224.5,145.9,214.6,143.6,204.6z"/>
		</g>
	</g>
	<g id="身体3" display="none">
		<g display="inline">
			<path fill="#C69C6D" d="M471.8,330.8c-38.3,0-69.6,31.4-69.6,69.6h140C542.1,362.2,510.8,330.8,471.8,330.8z"/>
			<path fill="#BD9261" d="M481.7,331.6c-3.1-0.8-6.1-0.8-9.9-0.8c-38.3,0-69.6,31.4-69.6,69.6h23.7
				C425.9,367.6,449.6,338.5,481.7,331.6z"/>
			<path fill="#333333" d="M208.6,330.8c-38.3,0-69.6,31.4-69.6,69.6h140C278.2,362.2,246.9,330.8,208.6,330.8z"/>
			<path d="M220.8,332.4c29.8,8.4,51.3,36.7,51.3,68.9h6.1C278.2,366,253.7,337.7,220.8,332.4z"/>
			<path fill="#535353" d="M214,331.6c-1.5,0-3.1,0-5.4,0c-38.3,0-69.6,31.4-69.6,69.6h9.9C148.9,363.7,177.2,333.9,214,331.6z"/>
			<path fill="#8C6239" d="M364.7,357.6c0,19.9-6.9,36-26.8,36s-26.8-16.1-26.8-36s6.9-36,26.8-36
				C357.8,321.7,364.7,338.5,364.7,357.6z"/>
			<path fill="#8C6239" d="M256,223c-9.2,6.1-89.5,62.7-69.6,120.1c6.1,17.6,16.8,19.9,22.9,19.9l0,0c8.4,0,31.4-0.8,69.6-123.2
				l13-42.1L256,223z"/>
			<path fill="#744D28" d="M282,206.1l-13,41.3c-23,73.4-40.5,103.3-52.8,114.8c11.5-3.8,32.1-22.9,63.5-122.4l13-42.1L282,206.1z"
				/>
			<path fill="#AA8561" d="M195.6,356.1c-19.9-58.1,52.8-121.6,62-127.8l33.7-24.5l1.5-4.6l-36.7,24.5
				c-9.2,6.1-89.5,62.7-69.6,120.1c3.1,7.7,6.9,13,10.7,15.3C196.4,358.4,195.6,356.8,195.6,356.1z"/>
			<path fill="#8C6239" d="M413.6,223l-36-24.5l13,42.1c38.3,122.4,61.2,123.2,69.6,123.2l0,0c6.1,0,16.8-2.3,22.9-19.9
				C503.1,285.7,422.8,229.9,413.6,223z"/>
			<path fill="#C69C6D" d="M439.6,301c0,56.6-45.9,78.8-102.5,78.8S234.6,357.6,234.6,301s45.9-125.5,102.5-125.5
				S439.6,244.4,439.6,301z"/>
			<path fill="#744D28" d="M443.5,247.5c-12.2-11.5-23.7-19.9-28.3-23.7c15.3,22.9,24.5,51.3,24.5,76.5c0,15.3-3.1,27.5-9.2,38.3
				c1.5,3.1,3.8,5.4,5.4,7.6c11.5-12.2,18.4-29.1,18.4-50.5C454.2,280.3,450.3,263.5,443.5,247.5z"/>
			<path fill="#BD9261" d="M410.6,218.4c14.5,23,22.9,49.7,22.9,74.2c0,56.6-45.9,78.8-102.5,78.8c-36.7,0-68.9-9.2-86.4-31.4
				c16.1,28.3,51.3,39.8,92.6,39.8c56.6-0.8,102.5-22.9,102.5-78.8C439.6,273.5,428.9,242.1,410.6,218.4z"/>
			<path fill="#DCB890" d="M242.3,307.1c0-56.6,45.9-125.5,102.5-125.5c20.7,0,39,9.2,55.1,23c-16.8-17.6-38.3-29.8-62-29.8
				c-56.6,0-102.5,69.6-102.5,125.5c0,25.2,9.2,43.6,23.7,55.8C248.4,344.6,242.3,328.5,242.3,307.1z"/>
			<g>
				<path fill="#333333" d="M341.7,328.5c-1.5-6.9-12.2-13-12.2-13v-0.8c0.8,0,12.2,5.4,13.8,13L341.7,328.5z"/>
			</g>
			<g>
				<path fill="#333333" d="M331.8,327.8H331c1.5-9.2,13-13.8,13.8-14.5l0.8,2.3C344.8,316.3,332.5,320.1,331.8,327.8z"/>
			</g>
			<g>
				<path fill="#333333" d="M337.1,340c-11.5,0-20.7-9.2-20.7-20.7c0-6.1,3.1-12.2,7.6-16.1c0.8-0.8,2.3-0.8,3.1,0
					c0.8,0.8,0.8,2.3,0,3.1c-3.8,3.1-6.1,7.6-6.1,13c0,9.2,7.6,16.8,16.8,16.8c9.2,0,16.8-7.6,16.8-16.8c0-4.6-2.3-9.2-5.4-12.2
					c-0.8-0.8-0.8-1.5,0-3.1c0.8-0.8,1.5-0.8,3.1,0c4.6,3.8,6.9,9.2,6.9,15.3C357.8,330.8,348.6,340,337.1,340z"/>
			</g>
		</g>
	</g>
	<g id="身体4" display="none">
		<g display="inline">
			<path fill="#8C6239" d="M349.4,394.3c-2.3,19.9-10.7,35.2-30.6,32.9s-25.2-18.4-22.9-38.3c2.3-19.9,10.7-35.2,30.6-32.9
				C345.5,358.4,350.9,375.2,349.4,394.3z"/>
			<path fill="#333333" d="M191.8,356.8c-27.5,27.5-26.8,71.9,0,98.7l98.7-99.5C262.9,329.3,218.5,329.3,191.8,356.8z"/>
			<path fill="#0E0E0E" d="M184.9,447.1c2.3,3.1,4.6,6.1,6.9,8.4l88.7-88.7L184.9,447.1z"/>
			<path fill="#535353" d="M199.4,371.4c22.9-23.7,55.8-31.4,81.9-22.2c-27.5-19.9-65.8-16.8-90.3,7.7
				c-19.1,19.1-24.5,45.9-17.6,69.6C175.7,407.3,184.1,387.4,199.4,371.4z"/>
			<path fill="#C69C6D" d="M454.2,376c-37.5-8.4-75,16.1-83.4,53.5l75.7,27.5l61.2,1.5C515.4,421.9,491.7,384.4,454.2,376z"/>
			<path fill="#BD9261" d="M490.9,404.3c2.3,0.8,4.6,0.8,6.9,1.5c-9.9-14.5-25.2-26-43.6-29.8c-37.5-8.4-75,16.1-83.4,53.5
				l41.3,15.3C425.1,415,457.2,397.4,490.9,404.3z"/>
			<path fill="#8C6239" d="M270.6,240.6c-36.7-123.2-59.7-123.9-68.1-123.9c-6.1,0-16.8,2.3-23.7,19.9
				c-20.7,57.4,58.9,114.8,68.1,120.9l36,25.2L270.6,240.6z"/>
			<path fill="#744D28" d="M265.2,236.7l9.9,41.3l9.9,6.9l-13.8-42.1c-7.6-26-14.5-45.9-21.4-62
				C255.3,196.2,259.9,214.6,265.2,236.7z"/>
			<path fill="#AA8561" d="M188.7,151.1c6.1-17.6,17.6-19.9,23.7-19.9c3.8,0,11.5,0,22.2,13.8c-16.1-28.3-26-28.3-31.4-28.3
				c-6.1,0-16.8,2.3-23.7,19.9c-9.2,26,1.5,51.3,17.6,72.7C186.4,190.8,181.8,171,188.7,151.1z"/>
			<path fill="#8C6239" d="M455.7,138.1c-12.2-13.8-23.7-12.2-29.1-9.9c-7.6,3.1-29.1,12.2-17.6,140l3.8,43.6l24.5-36.7
				C443.5,266.6,496.2,184,455.7,138.1z"/>
			<path fill="#744D28" d="M470.2,170.2c-5.4,41.3-36.7,84.1-41.3,91L411.3,288l2.3,26l24.5-36.7
				C442.7,270.4,477.9,215.3,470.2,170.2z"/>
			<path fill="#AA8561" d="M429.7,144.2c5.4-2.3,16.8-4.6,29.1,9.9c6.1,6.9,9.9,14.5,12.2,22.9c-0.8-13.8-4.6-27.5-14.5-39
				c-12.2-13.8-23.7-12.2-29.1-9.9c-6.9,3.1-24.5,10.7-20.7,101.7C406,154.9,422.8,147.2,429.7,144.2z"/>
			<path fill="#C69C6D" d="M436.6,332.4c-6.9,55.8-55.1,72.7-110.9,65c-55.8-6.9-98.7-34.4-91.8-91c6.9-56.6,61.2-119.3,117-111.7
				S443.5,275.8,436.6,332.4z"/>
			<path fill="#BD9261" d="M407.5,230.6c19.9,28.3,29.8,65,26,96.4c-6.9,57.4-58.9,73.4-118.6,65.8c-13.8-1.5-26-4.6-37.5-8.4
				c13.8,6.9,30.6,11.5,48.2,13.8c55.8,6.9,104-9.2,110.9-65C441.2,298.7,429.7,258.9,407.5,230.6z"/>
			<path fill="#DCB890" d="M246.9,318.6c6.9-55.8,61.2-119.3,117-111.7c13.8,1.5,26,7.7,36.7,16.1c-13.8-15.3-30.6-26-50.5-28.3
				c-55.8-7.6-110.2,55.8-117,111.7c-3.8,31.4,7.6,53.5,28.3,68.8C249.1,360.7,243.8,342.3,246.9,318.6z"/>
			<g>
				<g>
					<path fill="#333333" d="M340.9,339.3c-1.5-6.9-12.2-13-12.2-13v-0.8c0.8,0,12.2,5.4,13.8,13L340.9,339.3z"/>
				</g>
				<g>
					<path fill="#333333" d="M330.2,339.3h-0.8c1.5-9.2,13-13.8,13.8-14.5l0.8,2.3C344,327,331.8,331.6,330.2,339.3z"/>
				</g>
				<g>
					<path fill="#333333" d="M336.4,351.5c-11.5,0-20.7-9.2-20.7-20.7c0-6.1,3.1-12.2,7.6-16.1c0.8-0.8,2.3-0.8,3.1,0
						c0.8,0.8,0.8,2.3,0,3.1c-3.8,3.1-6.1,7.7-6.1,13c0,9.2,7.6,16.8,16.8,16.8c9.2,0,16.8-7.6,16.8-16.8c0-4.6-2.3-9.2-5.4-12.2
						c-0.8-0.8-0.8-1.5,0-3.1c0.8-0.8,1.5-0.8,3.1,0c4.6,3.8,6.9,9.2,6.9,15.3C357,342.3,347.8,351.5,336.4,351.5z"/>
				</g>
			</g>
		</g>
	</g>
	<g id="身体5" display="none">
		<g display="inline">
			<path fill="#C69C6D" d="M471.8,330.8c-38.3,0-69.6,31.4-69.6,69.6h140C542.1,362.2,510.8,330.8,471.8,330.8z"/>
			<path fill="#BD9261" d="M481.7,331.6c-3.1-0.8-6.1-0.8-9.9-0.8c-38.3,0-69.6,31.4-69.6,69.6h23.7
				C425.9,367.6,449.6,338.5,481.7,331.6z"/>
			<path fill="#333333" d="M208.6,330.8c-38.3,0-69.6,31.4-69.6,69.6h140C278.2,362.2,246.9,330.8,208.6,330.8z"/>
			<path d="M220.1,332.4c29.8,8.4,51.3,36.7,51.3,68.9h6.1C278.2,366,253,337.7,220.1,332.4z"/>
			<path fill="#535353" d="M213.2,331.6c-1.5,0-3.1,0-5.4,0c-38.3,0-69.6,31.4-69.6,69.6h10.7C148.9,364.5,177.2,333.9,213.2,331.6z
				"/>
			<path fill="#8C6239" d="M364.7,358.4c0,19.9-6.9,36-26.8,36s-26.8-16.1-26.8-36s6.9-36,26.8-36
				C357.8,322.4,364.7,338.5,364.7,358.4z"/>
			<path fill="#C69C6D" d="M439.6,301c0,56.6-45.9,78.8-102.5,78.8S234.6,357.6,234.6,301s45.9-125.5,102.5-125.5
				S439.6,244.4,439.6,301z"/>
			<path fill="#B18451" d="M410.6,218.4c13,22.2,21.4,48.2,21.4,71.1c0,56.6-45.9,78.8-102.5,78.8c-36.7,0-68.9-9.2-86.4-31.4
				c15.3,30.6,52,42.8,94.1,42.8c56.6,0,102.5-22.2,102.5-78.8C439.6,273.5,428.2,242.9,410.6,218.4z"/>
			<path fill="#DCB890" d="M250.7,316.3c0-56.6,45.9-125.5,102.5-125.5c19.1,0,37.5,8.4,52.8,20.7c-18.4-21.4-42.1-36-68.1-36
				c-56.6,0-102.5,69.6-102.5,125.5c0,27.5,10.7,46.7,28.3,58.9C255.3,348.4,250.7,333.9,250.7,316.3z"/>
			<path fill="#8C6239" d="M422.8,226.8l-32.1-30.6l6.1,43.6c18.4,127,40.5,130.8,49,132.3c0.8,0,2.3,0,3.8,0
				c6.1,0,15.3-3.1,22.2-16.1C500.8,302.5,431.2,234.4,422.8,226.8z"/>
			<path fill="#744D28" d="M451.1,258.9c14.5,29.8,27.5,70.4,10.7,101.7c-3.1,6.1-6.9,9.9-10.7,12.2c6.1-0.8,14.5-3.8,20.7-16.1
				C490.1,324,471,285.7,451.1,258.9z"/>
			<path fill="#AA8561" d="M411.3,237.5l-3.8-26l-16.8-15.3l6.1,43.6c13.8,96.4,29.8,122.4,40.5,129.3
				C430.5,346.9,421.3,307.1,411.3,237.5z"/>
			<path fill="#8C6239" d="M251.4,232.2c-7.6,8.4-71.1,82.6-37.5,133.9c7.6,11.5,16.1,14.5,22.2,14.5c2.3,0,3.8,0,5.4-0.8
				c8.4-2.3,30.6-8.4,37.5-136.2l2.3-43.6L251.4,232.2z"/>
			<path fill="#744D28" d="M231.6,372.9c-1.5,0.8-3.1,0.8-5.4,0.8s-5.4-0.8-7.7-1.5c6.1,6.1,12.2,7.6,16.8,7.6c2.3,0,3.8,0,5.4-0.8
				c7.6-2.3,26.8-7.6,35.2-107.9C262.9,348.4,238.4,371.4,231.6,372.9z"/>
			<path fill="#AA8561" d="M256.8,242.1l22.9-26l0.8-16.8l-29.1,32.9c-7.6,8.4-71.1,82.6-37.5,133.9l0.8,0.8
				C192.5,316.3,249.1,249.7,256.8,242.1z"/>
			<g>
				<g>
					<path fill="#333333" d="M343.2,325.5c-1.5-6.9-12.2-13-12.2-13v-0.8c0.8,0,12.2,5.4,13.8,13L343.2,325.5z"/>
				</g>
				<g>
					<path fill="#333333" d="M333.3,325.5h-0.8c1.5-9.2,13-13.8,13.8-14.5l0.8,2.3C347.1,313.2,334.8,317.1,333.3,325.5z"/>
				</g>
				<g>
					<path fill="#333333" d="M338.7,337.7c-11.5,0-20.7-9.2-20.7-20.7c0-6.1,3.1-12.2,7.6-16.1c0.8-0.8,2.3-0.8,3.1,0
						c0.8,0.8,0.8,2.3,0,3.1c-3.8,3.1-6.1,7.6-6.1,13c0,9.2,7.6,16.8,16.8,16.8c9.2,0,16.8-7.6,16.8-16.8c0-4.6-2.3-9.2-5.4-12.2
						c-0.8-0.8-0.8-1.5,0-3.1c0.8-0.8,1.5-0.8,3.1,0c4.6,3.8,6.9,9.2,6.9,15.3C359.3,328.5,350.1,337.7,338.7,337.7z"/>
				</g>
			</g>
		</g>
	</g>
	<g id="身体6" display="none">
		<g display="inline">
			<path fill="#8C6239" d="M528.4,209.2c-10.7-18.4-29.8-23.7-48.2-13c-0.8,0-57.4,36-41.3,63.5c4.6,8.4,14.5,11.5,25.2,11.5
				c20.7,0,46.7-10.7,51.3-13.8c12.2-6.9,16.1-16.1,17.6-23C535.3,226,533,217.6,528.4,209.2z"/>
			<path fill="#744D28" d="M476.4,205.4c-3.1,0-6.1,0-9.2,0.8c-16.1,13-38.3,35.2-28.3,53.6c4.6,8.4,14.5,11.5,25.2,11.5
				c20.7,0,46.7-10.7,51.3-13.8c12.2-6.9,16.1-16.1,17.6-23c0-1.5,0-3.1,0.8-4.6C517.7,215.3,497.8,205.4,476.4,205.4z"/>
			<line fill="none" x1="309.6" y1="131.9" x2="311.9" y2="179.4"/>
			<path fill="#C69C6D" d="M445.8,290.3c0,56.6-45.9,78.8-102.5,78.8s-102.5-22.2-102.5-78.8s45.9-125.5,102.5-125.5
				S445.8,234.4,445.8,290.3z"/>
			<g>
				<path fill="#B18451" d="M411.3,200.8c19.1,24.5,31.4,55.1,31.4,83.4c0,56.6-48.2,78.8-108.6,78.8c-21.4,0-42.1-3.1-58.9-9.2
					c18.4,10.7,42.1,16.1,68.1,16.1c56.6,0,102.5-22.2,102.5-78.8C445.8,260.5,432,226,411.3,200.8z"/>
				<path fill="#B18451" d="M409,199.3c-0.8-0.8-0.8-0.8-1.5-1.5C408.3,197.7,409,198.5,409,199.3z"/>
			</g>
			<path fill="#DCB890" d="M260.6,311.7c0-56.6,45.9-125.5,102.5-125.5c19.9,0,39,9.2,54.3,23c-18.3-25.2-44.3-43.6-73.4-43.6
				c-56.6,0-102.5,69.6-102.5,125.5c0,27.5,10.7,46.7,28.3,59.7C263.7,339.3,260.6,327,260.6,311.7z"/>
			
				<ellipse transform="matrix(-0.9668 0.2557 -0.2557 -0.9668 359.8865 631.6131)" fill="#C69C6D" cx="138.9" cy="339.2" rx="43.6" ry="58.9"/>
			<path fill="#DCB890" d="M109.9,366c-8.4-31.4,3.8-62,27.5-68.1c12.2-3.1,25.2,0.8,36,9.9c-11.5-19.9-31.4-31.4-49.7-26.8
				c-23.7,6.9-36,37.5-27.5,68.8c3.8,15.3,11.5,27.5,21.4,36C114.5,379.8,111.4,372.9,109.9,366z"/>
			<ellipse fill="#333333" cx="224.7" cy="447.1" rx="27.5" ry="37.5"/>
			<path fill="#535353" d="M211.7,457.8c0-20.7,12.2-37.5,27.5-37.5c1.5,0,3.1,0,5.4,0.8c-5.4-7.6-12.2-12.2-20.7-12.2
				c-15.3,0-27.5,16.8-27.5,37.5c0,18.4,9.9,33.7,22.9,36.7C214,476.2,211.7,467,211.7,457.8z"/>
			
				<ellipse transform="matrix(-0.866 -0.5 0.5 -0.866 613.2875 1049.7361)" fill="#333333" cx="447.3" cy="442.7" rx="35.2" ry="43.6"/>
			<path fill="#535353" d="M425.1,435.6c12.2-20.7,35.2-29.8,52-19.9c0.8,0.8,2.3,1.5,3.1,2.3c-2.3-5.4-6.1-9.9-11.5-13
				c-16.8-9.9-39.8-0.8-52,19.9c-11.5,19.1-8.4,42.1,5.4,52.8C416.7,466.2,416.7,450.2,425.1,435.6z"/>
			
				<ellipse transform="matrix(-0.9851 0.1722 -0.1722 -0.9851 749.7092 870.4573)" fill="#C69C6D" cx="337.1" cy="467.7" rx="46.7" ry="63.5"/>
			<path fill="#DCB890" d="M305,495.3c-6.1-34.4,9.9-65.8,35.2-70.4c12.2-2.3,25.2,2.3,35.2,11.5c-10.7-21.4-29.8-34.4-49.7-30.6
				c-25.2,4.6-41.3,36-35.2,70.4c3.1,17.6,11.5,32.9,22.2,42.1C308.8,511.4,306.5,503.7,305,495.3z"/>
			
				<ellipse transform="matrix(-0.99 -0.1411 0.1411 -0.99 955.2525 805.9197)" fill="#C69C6D" cx="506.2" cy="369.1" rx="17.6" ry="23.7"/>
			<path fill="#DCB890" d="M493.2,372.1c1.5-13,11.5-22.2,20.7-20.7c2.3,0,4.6,1.5,6.9,3.1c-2.3-4.6-6.1-7.6-11.5-8.4
				c-9.9-1.5-19.1,7.6-20.7,20.7c-1.5,9.2,1.5,18.4,7.6,23C493.9,385.2,492.4,379,493.2,372.1z"/>
			<path fill="#8C6239" d="M422.8,46.3c-3.8-1.5-9.2-1.5-16.1,0c-59.7,12.2-68.1,109.4-68.9,120.9l-3.1,43.6l29.8-32.1
				c12.2-13.8,22.2-25.2,31.4-36c6.9,3.8,15.3,5.4,23.7,5.4c28.3,0,51.3-23,51.3-51.3C470.2,70.7,449.6,48.6,422.8,46.3z"/>
			<path fill="#744D28" d="M467.2,81.4c0.8,3.1,0.8,5.4,0.8,8.4c0,28.3-23,51.3-51.3,51.3c-8.4,0-16.1-2.3-23.7-5.4
				c-5.4,6.9-18.4,27.5-29.8,44.4l0.8-0.8c12.2-13.8,22.2-25.2,31.4-36c6.9,3.8,15.3,5.4,23.7,5.4c28.3,0,51.3-23,51.3-51.3
				C470.2,92.2,468.7,86,467.2,81.4z"/>
			<path fill="#AA8561" d="M414.4,64.6c6.9-1.5,12.2-0.8,16.1,0c16.1,1.5,29.8,9.9,38.3,22.2c-4.6-22.2-23-39-45.9-40.5
				c-3.8-1.5-9.2-1.5-16.1,0c-59.7,12.2-68.1,109.4-68.9,120.9l-0.8,13C340.9,157.2,360.1,75.3,414.4,64.6z"/>
			<path fill="#8C6239" d="M586.5,379.8"/>
			<path fill="#AA8561" d="M585.7,379"/>
			<path fill="#B18451" d="M586.5,377.5"/>
		</g>
	</g>
	<g id="身体7" display="none">
		<g display="inline">
			<path fill="#333333" d="M251.4,330.8c-38.2,0-68.8,23.7-68.8,62l45.9,7.7h92.6C320.3,361.4,289.7,330.8,251.4,330.8z"/>
			<path fill="#535353" d="M263.7,337.7c9.2,0,18.4,1.5,26.8,5.4c-11.5-7.6-24.5-12.2-39-12.2c-38.2,0-68.8,23.7-68.8,62l13,2.3
				C197.1,359.1,227,337.7,263.7,337.7z"/>
			<path d="M316.5,399.7L316.5,399.7l3.8,0.8c0-19.1-7.7-36.7-20.7-49C311.1,363.7,317.2,380.6,316.5,399.7L316.5,399.7z"/>
			<path fill="#8C6239" d="M406,356.8c0,19.9-6.9,35.2-26.8,35.2s-26.8-16.1-26.8-35.2c0-19.9,6.9-35.2,26.8-35.2
				C399.1,321.7,406,337.7,406,356.8z"/>
			<path fill="#C69C6D" d="M440.4,330.8c-32.1,0-58.1,31.4-58.1,68.9h116.3C498.5,361.4,472.5,330.8,440.4,330.8z"/>
			<path fill="#8C6239" d="M300.4,206.9c-9.2,6.1-88,62.7-68.1,119.3c6.1,16.8,16.8,19.9,23,19.9c0,0,0,0,0.8,0
				c8.4,0,31.4-0.8,68.1-122.4l13-42.1L300.4,206.9z"/>
			<path fill="#AA8561" d="M243,330.8c-9.9-29.1,1.5-62,16.8-88c-19.9,22.9-38.3,52.8-27.5,83.4c5.4,15.3,14.5,19.1,20.7,19.9
				C249.1,343.1,245.3,338.5,243,330.8z"/>
			<path fill="#C69C6D" d="M450.3,300.2c0,55.8-45.1,78-101,78s-101.7-21.4-101.7-78s45.1-124.7,101-124.7S450.3,244.4,450.3,300.2z
				"/>
			<path fill="#BD9261" d="M382.3,397.4c42.8-3.1,76.5-20.7,84.9-58.1c-6.9-4.6-14.5-7.6-23-8.4c-9.2,23.7-30.6,37.5-58.1,43.6
				C383.8,382.1,382.3,389.7,382.3,397.4z"/>
			<path fill="#B18451" d="M399.1,195.4c26,25.2,43.6,64.3,43.6,98.7c0,55.8-45.1,78-101,78c-29.8,0-55.8-6.1-74.2-19.9
				c18.4,18.4,48.2,26.8,81.9,26.8c55.8,0,101-22.2,101-78C450.3,263.5,429.7,219.9,399.1,195.4z"/>
			<path fill="#DCB890" d="M263.7,313.2c0-55.8,45.1-124.7,101-124.7c15.3,0,29.1,5.4,42.1,13.8c-16.8-16.1-36.7-26-58.1-26
				c-55.8,0-101,68.9-101,124.7c0,29.8,13,49.7,33.7,62C269.8,350.7,263.7,334.7,263.7,313.2z"/>
			<g>
				<g>
					<path fill="#333333" d="M318.8,327.8c-1.5-6.9-9.9-13-9.9-13V314c0.8,0,9.9,5.4,11.5,13L318.8,327.8z"/>
				</g>
				<g>
					<g>
						<path fill="#333333" d="M310.3,327.8L310.3,327.8c0.8-9.2,9.9-13.8,9.9-14.5l0.8,2.3C321.1,315.5,311.9,319.4,310.3,327.8z"/>
					</g>
					<path fill="none" stroke="#333333" stroke-width="0.5" stroke-linecap="round" stroke-miterlimit="10" d="M324.9,305.6
						c3.1,3.1,5.4,8.4,5.4,13.8c0,9.9-6.9,18.4-14.5,18.4s-14.5-8.4-14.5-18.4c0-6.1,2.3-10.7,5.4-14.5"/>
				</g>
			</g>
			<path fill="#8C6239" d="M408.3,216.1l-32.2-29.8l6.9,43.6c19.9,125.5,42.1,129.3,50.5,130.8c0.8,0,2.3,0,3.1,0
				c6.1,0,15.3-3.1,22.2-16.1C487.1,290.3,416.7,223.7,408.3,216.1z"/>
			<path fill="#744D28" d="M451.1,270.4c8.4,25.2,11.5,53.5-0.8,76.5c-3.8,6.9-7.6,10.7-11.5,13c6.1-0.8,13-4.6,19.1-16.1
				C471,320.1,464.1,293.4,451.1,270.4z"/>
			<path fill="#AA8561" d="M399.1,242.9l-6.1-41.3l-16.9-15.3l6.9,43.6c18.4,119.3,39.8,128.5,49,130.1
				C422,345.4,410.6,313.2,399.1,242.9z"/>
		</g>
	</g>
	<g id="身体8">
		<g>
			<path fill="#8C6239" d="M322.6,307.1c0,19.1-6.9,34.4-26,34.4s-25.2-15.3-25.2-34.4s6.9-34.4,26-34.4S322.6,288.8,322.6,307.1z"
				/>
			<path fill="#C69C6D" d="M335.6,321.7c-16.8,0-30.6,54.3-30.6,121.6h60.4C365.4,376,352.4,321.7,335.6,321.7z"/>
			<path fill="#B18451" d="M345.5,328.5c10.7,18.4,18.4,62,18.4,111.7l-37.5,3.1h39.8C366.2,389.7,357.8,344.6,345.5,328.5z"/>
			<path fill="#DCB890" d="M342.5,324.7c-2.3-2.3-4.6-3.8-7.6-3.8c-16.8,0-30.6,54.3-30.6,121.6h9.2
				C314.2,379.8,326.4,328.5,342.5,324.7z"/>
			<path fill="#8C6239" d="M480.9,213.8c0-26.8-13.8-49-31.4-49c-12.2,0-23,10.7-27.5,26.8c-14.5-8.4-33.7-17.6-58.1-28.3
				l-39.8-17.6l20.7,39c4.6,9.2,43.6,80.3,95.6,80.3c3.8,0,7.6-0.8,12.2-1.5c16.1-3.8,20.7-12.2,21.4-18.4
				C478.6,236.7,480.9,226,480.9,213.8z"/>
			<path fill="#C69C6D" d="M394.5,252.8c0,53.6-43.6,75-97.2,75s-97.2-21.4-97.2-75s43.6-120.1,97.2-120.1S394.5,199.3,394.5,252.8z
				"/>
			<path fill="#B18451" d="M360.1,164.8c16.8,22.9,27.5,52,27.5,78c0,53.5-43.6,75-97.2,75c-32.9,0-61.2-7.6-78.8-26
				c16.1,25.2,49,35.2,86.4,35.2c53.6,0,97.2-21.4,97.2-75C395.3,223,381.5,189.3,360.1,164.8z"/>
			<path fill="#DCB890" d="M213.2,265.8c0-53.5,43.6-120.1,97.2-120.1c16.8,0,32.1,6.1,45.9,16.8c-16.8-17.6-37.5-29.8-60.4-29.8
				c-53.6,0-97.2,65.8-97.2,120.1c0,26.8,10.7,45.9,29.1,58.1C218.5,299.5,213.2,284.2,213.2,265.8z"/>
			<path fill="#744D28" d="M424.3,190.8c0,0.8-0.8,0.8-0.8,1.5c-14.5-8.4-33.7-17.6-58.1-28.3l-9.9-3.8c23,22.9,38.3,56.6,39.8,87.2
				c13.8,10.7,29.1,18.4,45.9,18.4c0,0,0,0,0.8,0c0.8-3.1,0.8-6.9,0.8-10.7C442.7,234.4,435.8,211.5,424.3,190.8z"/>
			<g>
				<path fill="#333333" d="M301.2,278.8c-1.5-6.9-11.5-12.2-11.5-12.2v-0.8c0.8,0,11.5,4.6,13.8,12.2L301.2,278.8z"/>
			</g>
			<g>
				<path fill="#333333" d="M291.2,278.8h-0.8c1.5-9.2,13-13,13-13.8l0.8,2.3C304.2,267.3,292.8,271.2,291.2,278.8z"/>
			</g>
			<path fill="none" stroke="#333333" stroke-width="0.5" stroke-linecap="round" stroke-miterlimit="10" d="M308.8,258.2
				c3.8,3.1,6.1,7.6,6.1,13c0,9.9-7.6,17.6-17.6,17.6s-17.6-7.6-17.6-17.6c0-5.4,2.3-10.7,6.9-13.8"/>
			<path fill="#333333" d="M230,252.8c-19.1,3.8-25.2,54.3-12.2,112.5l70.4-15.3C275.2,292.6,249.1,249,230,252.8z"/>
			<path fill="#535353" d="M235.4,260.5c6.1-1.5,13.8,2.3,20.7,9.9c-9.2-12.2-18.4-19.1-26-17.6c-19.1,3.8-25.2,54.3-12.2,112.5
				l3.8-0.8C211.7,310.2,217,264.3,235.4,260.5z"/>
			<path fill="#8C6239" d="M288.2,164.8l-41.3-14.5l23.7,36.7c55.1,86.4,78.8,97.2,90.3,97.2c2.3,0,3.8-0.8,5.4-0.8
				c6.1-1.5,16.1-6.9,16.8-24.5C386.8,200.8,298.9,168.7,288.2,164.8z"/>
			<path fill="#744D28" d="M346.3,195.4c17.6,15.3,31.4,34.4,29.8,58.1c-1.5,18.4-11.5,23-16.8,24.5c-1.5,0-3.1,0.8-5.4,0.8
				c-3.8,0-9.9-1.5-18.4-7.6c12.2,10.7,19.9,13,25.2,13c2.3,0,3.8-0.8,5.4-0.8c6.1-1.5,16.1-6.9,16.8-24.5
				C384.6,232.2,367,211.5,346.3,195.4z"/>
			<path fill="#AA8561" d="M281.3,194.7L257.6,158l41.3,14.5c4.6,1.5,27.5,9.9,49.7,24.5c-25.2-19.9-56.6-31.4-62-33.7l-41.3-14.5
				l23.7,36.7c39.8,62,63.5,84.9,77.3,93.3C331.8,266.6,311.1,241.3,281.3,194.7z"/>
		</g>
	</g>
	<g id="身体9" display="none">
		<g display="inline">
			<path fill="#8C6239" d="M364.7,396.6c0,19.9-6.9,36-26.8,36s-26.8-16.1-26.8-36c0-19.9,6.9-36,26.8-36
				C357.8,360.7,364.7,376.7,364.7,396.6z"/>
			<path fill="#333333" d="M208.6,369.9c-38.3,0-69.6,31.4-69.6,69.6h140C278.2,401.2,246.9,369.9,208.6,369.9z"/>
			<path d="M265.2,439.5h13c0-32.1-22.2-59.7-52-67.3C249.9,382.9,265.2,409.6,265.2,439.5z"/>
			<path fill="#535353" d="M214.7,369.9c-2.3,0-4.6,0-6.9,0c-38.3,0-69.6,31.4-69.6,69.6H152C152,402.7,179.5,372.9,214.7,369.9z"/>
			<path fill="#C69C6D" d="M471.8,369.9c-38.3,0-69.6,31.4-69.6,69.6h140C542.1,401.2,510.8,369.9,471.8,369.9z"/>
			<path fill="#C69C6D" d="M439.6,339.3c0,56.6-45.9,78.8-101.7,78.8s-102.5-22.2-102.5-78.8s45.9-125.5,102.5-125.5
				S439.6,282.6,439.6,339.3z"/>
			<path fill="#B18451" d="M337.9,215.3c-7.6,0-14.5,1.5-21.4,3.1c2.3,0,3.8-0.8,6.1-0.8c56.6,0,102.5,69.6,102.5,125.5
				c0,42.1-25.2,65-61.2,74.2c44.4-6.1,76.5-29.1,76.5-77.3C440.4,284.9,394.5,215.3,337.9,215.3z"/>
			<path fill="#DCB890" d="M256.8,350.7c0-56.6,45.9-125.5,102.5-125.5c7.6,0,15.3,1.5,22.9,3.8c-13-9.2-28.3-14.5-43.6-14.5
				C282,214.6,236.1,284.2,236.1,340c0,37.5,20.7,59.7,50.5,70.4C267.5,398.2,256.8,379,256.8,350.7z"/>
			<g>
				<path fill="#333333" d="M341.7,366.8c-1.5-6.9-12.2-13-12.2-13V353c0.8,0,12.2,5.4,13.8,13L341.7,366.8z"/>
			</g>
			<g>
				<path fill="#333333" d="M331.8,366.8H331c1.5-9.2,13-13.8,13.8-14.5l0.8,2.3C345.5,354.6,333.3,358.4,331.8,366.8z"/>
			</g>
			<path fill="none" stroke="#333333" stroke-width="0.5" stroke-linecap="round" stroke-miterlimit="10" d="M350.1,344.6
				c3.8,3.1,6.1,8.4,6.1,13.8c0,9.9-8.4,18.4-18.4,18.4c-9.9,0-18.4-8.4-18.4-18.4c0-6.1,3.1-10.7,6.9-14.5"/>
			<path fill="#8C6239" d="M419.7,265c-43.6-120.9-66.6-120.1-75-119.3c-6.1,0-16.8,3.1-22.2,20.7c-16.8,58.9,65.8,110.9,75,117
				l37.5,23L419.7,265z"/>
			<path fill="#8C6239" d="M349.4,136.5c-4.6,0-8.4,0.8-12.2,1.5c-2.3,0-4.6,0.8-7.6,2.3c-14.5,6.1-25.2,18.4-29.1,33.7
				c-10.7,17.6-23.7,42.8-39,80.3l-16.8,40.5l38.3-21.4c4.6-3.1,29.1-16.8,50.5-38.3c5.4,1.5,10.7,3.1,16.1,3.1
				c28.3,0,51.3-23,51.3-51.3C400.6,158.7,376.9,136.5,349.4,136.5z"/>
			<path fill="#744D28" d="M414.4,249.7c-6.1-16.8-12.2-31.4-17.6-42.8c-7.7,18.4-26,31.4-47.4,31.4c-1.5,0-3.1,0-4.6-0.8
				c8.4,10.7,18.4,19.1,27.5,26.8c2.3,0,3.8,0.8,6.1,0.8C392.2,265,405.2,258.9,414.4,249.7z"/>
			<path fill="#AA8561" d="M269,257.4c15.3-37.5,28.3-63.5,39-80.3c3.8-15.3,15.3-27.5,29.1-33.7c3.1-1.5,5.4-2.3,7.6-2.3
				c3.8-0.8,7.7-1.5,12.2-1.5c3.8,0,8.4,0.8,12.2,1.5c-6.1-3.1-13-4.6-20.7-4.6c-4.6,0-8.4,0.8-12.2,1.5c-2.3,0-4.6,0.8-7.6,2.3
				c-14.5,6.1-25.2,18.4-29.1,33.7c-10.7,17.6-23.7,42.8-39,80.3l-16.8,40.5l13-6.9L269,257.4z"/>
			<path fill="#744D28" d="M376.9,144.9c8.4,9.2,13.8,21.4,13.8,34.4c0,28.3-23,51.3-51.3,51.3c-5.4,0-11.5-0.8-16.1-3.1
				c-19.1,19.1-40.5,42.8-48.2,49.7l6.9-3.8c4.6-3.1,29.1-16.8,50.5-38.3c5.4,1.5,10.7,3.1,16.1,3.1c28.3,0,51.3-23,51.3-51.3
				C399.9,169.4,390.7,154.1,376.9,144.9z"/>
			<path fill="#BD9261" d="M481.7,369.9c-3.1-0.8-6.1-0.8-9.9-0.8c-38.3,0-69.6,31.4-69.6,69.6h23.7
				C425.9,405.8,449.6,376.7,481.7,369.9z"/>
		</g>
	</g>
</g>
<g id="武器" display="none">
	<g id="武器1" display="inline">
		<path fill="#AFC8CE" d="M1624.9-1886l-224.1-45.9c-3.8,17.6-7.7,34.4-13,49.7l226.4,32.1"/>
		<path fill="#D5E7EB" d="M1387.7-1881.4c-0.8,1.5-0.8,2.3-1.5,3.8c-0.8,1.5-0.8,2.3-1.5,3.8l218.8,31.4c1.5-1.5,3.1-2.3,4.6-3.1
			c2.3-1.5,3.8-2.3,5.4-3.1L1387.7-1881.4z"/>
		<path fill="#F0F5F6" d="M1612.6-1941.8l-202.7-50.5c0,1.5,0,2.3,0,3.8s0,2.3,0,3.8l208.1,52"/>
		<path fill="#8BB3BC" d="M1400.7-1932.7C1400.7-1931.9,1400.7-1931.9,1400.7-1932.7l223.4,46.7c-2.3-2.3-3.8-5.4-5.4-8.4
			l-217.3-44.4C1401.5-1936.5,1401.5-1934.2,1400.7-1932.7z"/>
		<path fill="#D4E1E4" d="M1617.2-1932.7l-208.1-52c-1.5,14.5-3.8,29.8-6.9,45.1l217.3,44.4"/>
		<path fill="#D4E1E4" d="M1408.4-2065c-5.4-38.3-19.1-61.2-38.3-65.8c-19.1-3.8-40.5,12.2-61.2,45.1c-10.7,17.6-20.7,39-29.1,63.5
			l3.8,1.5l3.8,1.5l29.1,9.2l0,0c16.1,4.6,23.7,32.9,17.6,64.3s-24.5,54.3-41.3,52l0,0l-30.6-3.1h-3.8h-3.8
			c-5.4,73.4,9.9,128.5,39.8,135.4c1.5,0.8,3.8,0.8,5.4,0.8c17.6,0,36.7-16.1,55.1-45.9c11.5-18.4,21.4-41.3,29.8-67.3
			c0.8-1.5,0.8-2.3,1.5-3.8c0.8-1.5,0.8-2.3,1.5-3.8c5.4-16.1,9.2-32.9,13-49.7v-0.8c0.8-2.3,0.8-4.6,1.5-6.9
			c3.1-15.3,5.4-30.6,6.9-45.1c0-1.5,0-2.3,0-3.8s0-2.3,0-3.8C1411.4-2018.3,1411.4-2043.6,1408.4-2065z"/>
		<path fill="#F0F5F6" d="M1269.9-1796.5c0-0.8,0-1.5,0-1.5c0-0.8,0-1.5-0.8-2.3c0-0.8,0-1.5,0-2.3c-0.8-4.6-1.5-9.9-1.5-14.5l0,0
			c-1.5-16.1-1.5-33.7,0-52.8l0,0c0-1.5,0-2.3,0-3.8s0-2.3,0-3.8s0-2.3,0-3.8c1.5-14.5,3.8-29.8,6.9-45.1c0.8-2.3,0.8-4.6,1.5-6.9
			v-0.8c3.8-17.6,7.7-34.4,13-49.7c0.8-1.5,0.8-2.3,1.5-3.8c0.8-1.5,0.8-2.3,1.5-3.8c0.8-1.5,0.8-2.3,1.5-3.8l0,0
			c0.8-1.5,1.5-3.1,1.5-4.6c1.5-3.8,3.1-8.4,4.6-12.2c0.8-1.5,1.5-3.8,2.3-5.4c1.5-3.8,3.1-7.6,4.6-11.5c0.8-1.5,1.5-3.8,2.3-5.4
			c1.5-3.1,3.1-6.9,4.6-9.9c1.5-2.3,2.3-4.6,3.8-6.9c1.5-2.3,2.3-4.6,3.8-6.9c0,0,0,0,0-0.8c2.3-3.1,3.8-6.1,6.1-9.2
			c0-0.8,0.8-0.8,0.8-1.5c2.3-3.1,3.8-5.4,6.1-7.6c0-0.8,0.8-0.8,0.8-1.5c2.3-2.3,3.8-4.6,6.1-6.9l0.8-0.8c2.3-2.3,4.6-3.8,6.1-6.1
			l0,0c6.9-5.4,13.8-9.2,20.7-10.7l0,0c4.6-0.8,8.4-0.8,12.2,0c6.9,1.5,13.8,5.4,19.1,12.2c-6.9-22.2-18.4-36-32.1-39
			c-3.8-0.8-8.4-0.8-12.2,0l0,0c-6.9,1.5-13.8,5.4-20.7,10.7l0,0c-2.3,1.5-4.6,3.8-6.1,6.1l-0.8,0.8c-2.3,2.3-3.8,4.6-6.1,6.9
			c0,0.8-0.8,0.8-0.8,1.5c-2.3,2.3-3.8,5.4-6.1,7.7c0,0.8-0.8,0.8-0.8,1.5c-2.3,3.1-3.8,6.1-6.1,9.2c0,0,0,0,0,0.8
			c-1.5,2.3-2.3,4.6-3.8,6.9c-1.5,2.3-3.1,4.6-3.8,6.9c-1.5,3.1-3.1,6.9-4.6,9.9c-0.8,1.5-1.5,3.8-2.3,5.4
			c-1.5,3.8-3.1,7.6-4.6,11.5c-0.8,1.5-1.5,3.8-2.3,5.4c-1.5,3.8-3.1,7.6-4.6,12.2c-0.8,1.5-1.5,3.1-1.5,4.6l0,0
			c-0.8,1.5-0.8,2.3-1.5,3.8c-0.8,1.5-0.8,2.3-1.5,3.8c-0.8,1.5-0.8,2.3-1.5,3.8c-5.4,16.1-9.2,32.9-13,49.7v0.8
			c-0.8,2.3-0.8,4.6-1.5,6.9c-3.1,15.3-5.4,30.6-6.9,45.1c0,1.5,0,2.3,0,3.8s0,2.3,0,3.8s0,2.3,0,3.8l0,0c-1.5,19.1-1.5,36.7,0,52.8
			l0,0c0.8,5.4,0.8,9.9,1.5,14.5c0,0.8,0,1.5,0,2.3s0,1.5,0.8,2.3c0,0.8,0,1.5,0,1.5c3.8,21.4,9.9,38.3,18.4,48.2
			C1273-1781.2,1271.4-1788.1,1269.9-1796.5z"/>
		<path fill="#4381A9" d="M1316.6-2009.9L1316.6-2009.9l-29.1-9.9l-3.8-1.5l-3.8-1.5l-112.5-36.7c5.4,5.4,9.2,13,11.5,22.2
			c4.6,16.8,5.4,37.5,0.8,58.9c-6.9,35.2-24.5,61.2-43.6,69.6l117.8,10.7h3.8h3.8l30.6,3.1l0,0c16.8,2.3,34.4-20.7,41.3-52
			C1340.3-1977.8,1332.6-2005.3,1316.6-2009.9z"/>
		<path fill="#2B688F" d="M1294.4-1907.4L1294.4-1907.4l-30.6-2.3h-3.8h-3.8l-103.3-9.2c-5.4,5.4-10.7,9.9-16.1,12.2l117.8,10.7h3.8
			h3.8l30.6,3.1l0,0c16.8,2.3,34.4-20.7,41.3-52c0.8-4.6,1.5-9.2,1.5-13C1329.6-1928.1,1311.2-1905.1,1294.4-1907.4z"/>
		<path fill="#D4E1E4" d="M1179.6-2036.7c-3.1-9.2-6.9-16.8-11.5-22.2c-4.6-4.6-9.2-7.6-15.3-9.2c-24.5-5.4-51.3,26.8-61.2,71.9
			c-9.2,45.9,3.1,84.9,27.5,90.3c1.5,0,3.8,0.8,5.4,0.8c3.8,0,8.4-0.8,12.2-3.1c19.1-8.4,36-35.2,43.6-69.6
			C1184.2-1999.2,1184.2-2019.9,1179.6-2036.7z"/>
		<g>
			<path fill="#F0F5F6" d="M1096.2-1982.4c9.2-45.1,36-77.3,61.2-71.9c2.3,0.8,3.8,0.8,5.4,2.3c-1.5-2.3-3.8-4.6-6.1-6.1
				c2.3,1.5,4.6,3.8,6.1,6.1c3.8,1.5,6.9,3.8,9.2,6.9c2.3,2.3,4.6,5.4,6.1,8.4v-0.8c-3.1-9.2-6.9-16.8-11.5-22.2
				c-4.6-4.6-9.2-7.6-15.3-9.2c-24.5-5.4-51.3,26.8-61.2,71.9c-6.1,29.1-3.1,55.8,6.1,72.7
				C1092.4-1940.3,1091.7-1960.2,1096.2-1982.4z"/>
		</g>
		<path fill="#66A3CB" d="M1283.7-2008.4l3.8,1.5l3.8,1.5l29.1,9.2l0,0c6.1,1.5,11.5,7.7,14.5,15.3c-2.3-15.3-9.2-26.8-18.4-29.1
			l0,0l-29.1-9.2l-3.8-1.5l-3.8-1.5l-112.5-36.7c3.8,3.8,6.9,9.2,9.9,16.1L1283.7-2008.4z"/>
	</g>
	<g id="武器2" display="inline">
		<path fill="#8C6239" d="M1085.5-2105.6l318.2,146.9l22.2-49l-317.5-146.1"/>
		<path fill="#8C6239" d="M1375.5-1793.4l107.1,49.7c46.7-19.1,95.6-70.4,127.8-140.8c32.1-69.6,39.8-140.8,23.7-188.2l0,0
			c-0.8-10.7-19.9-27.5-46.7-39.8c-26.8-12.2-52-16.1-60.4-9.9l0,0c-46.7,19.1-95.6,70.4-127.8,140.8
			C1367.8-1912,1360.2-1841.6,1375.5-1793.4"/>
		<path fill="#AA8561" d="M1375.5-1794.2l28.3,13c-7.7-45.9,1.5-106.3,29.1-166.8c32.1-69.6,81.1-121.6,127.8-140.8l0,0
			c8.4-6.1,33.7-2.3,60.4,9.9c5.4,2.3,9.9,4.6,14.5,7.7c0-0.8-0.8-1.5-0.8-2.3l0,0c-0.8-10.7-19.9-27.5-46.7-39.8
			c-26.8-12.2-52-16.1-60.4-9.9l0,0c-46.7,19.1-95.6,70.4-127.8,140.8C1367.8-1912,1359.4-1841.6,1375.5-1794.2"/>
		<g>
			<path fill="#C7B299" d="M1486.4-2065.8c-0.8-1.5-0.8-3.1,0-4.6c14.5-23,44.4-37.5,45.1-38.3c1.5-0.8,3.8,0,5.4,1.5
				c0.8,1.5,0,3.8-1.5,5.4c0,0-29.1,14.5-42.1,36c-0.8,1.5-3.8,2.3-5.4,1.5C1487.2-2065,1487.2-2065.8,1486.4-2065.8z"/>
		</g>
		<g>
			<path fill="#C7B299" d="M1472.6-2043.6c-0.8-1.5-0.8-3.1,0-4.6l6.9-9.9c1.5-1.5,3.8-2.3,5.4-0.8c1.5,1.5,2.3,3.8,0.8,5.4
				l-6.9,9.9c-1.5,1.5-3.8,2.3-5.4,0.8C1473.4-2042.8,1473.4-2043.6,1472.6-2043.6z"/>
		</g>
		<path fill="#B18451" d="M1376.2-1795.7c4.6-9.9,32.9-7.7,62.7,5.4c29.8,13,51.3,32.1,46.7,42.1c-4.6,9.9-32.9,7.7-62.7-5.4
			S1371.6-1785.8,1376.2-1795.7"/>
	</g>
</g>
<g id="脸" display="none">
	<polygon display="inline" fill="#C69C6D" points="-223.4,-1450.7 482,-1450.7 156.8,-851.7 	"/>
	<polygon display="inline" fill="#B18451" points="156.8,-878.5 101.7,-938.2 156.8,-851.7 382.5,-1267.1 	"/>
	<polygon display="inline" fill="#DCB890" points="-186.7,-1428.5 383.3,-1449.2 -223.4,-1449.2 67.3,-991.7 	"/>
</g>
<g id="鼻子_x2B_嘴窝" display="none">
	<path display="inline" fill="#F9F3F3" d="M231.8-1099.6c0,56.6-45.9,78.8-102.5,78.8S26.8-1043,26.8-1099.6s45.9-125.5,102.5-125.5
		S231.8-1156.2,231.8-1099.6z"/>
	<path display="inline" fill="#FFFFFF" d="M32.9-1091.2c0-56.6,45.9-125.5,102.5-125.5c32.1,0,61.2,22.9,79.6,52.8
		c-18.4-34.4-49.7-62-84.9-62c-56.6,0-102.5,69.6-102.5,125.5c0,17.6,4.6,32.1,12.2,43.6C35.2-1066.7,32.9-1078.2,32.9-1091.2z"/>
	<path display="inline" fill="#E6E6E6" d="M201.2-1185.3c13.8,22.2,22.2,49,22.2,72.7c0,56.6-45.9,78.8-102.5,78.8
		c-35.2,0-66.6-8.4-84.9-29.1c16.1,29.1,52,41.3,93.3,41.3c56.6,0,102.5-22.2,102.5-78.8C232.6-1127.9,220.3-1160,201.2-1185.3z"/>
	<path display="inline" fill="#8C6239" stroke="#8C6239" stroke-width="4" stroke-miterlimit="10" d="M81.1-1240.3
		c0-22.2,21.4-31.4,48.2-31.4s48.2,8.4,48.2,31.4c0,22.2-21.4,49.7-48.2,49.7S81.1-1218.2,81.1-1240.3z"/>
	<path display="inline" fill="#744D28" d="M174.4-1275.5c9.2,7.7,13.8,18.4,13.8,31.4c0,29.8-27.5,65-63.5,65
		c-12.2,0-23.7-3.8-32.9-10.7c10.7,8.4,23.7,14.5,38.3,14.5c36,0,63.5-35.2,63.5-65C193.5-1255.6,186.7-1267.1,174.4-1275.5z"/>
	<path display="inline" fill="#AA8561" d="M77.3-1235c0-29.1,23.7-46.7,63.5-46.7c11.5,0,21.4,1.5,29.8,3.8
		c-10.7-6.1-24.5-9.2-42.1-9.2c-39.8,0-63.5,17.6-63.5,46.7c0,25.2,19.9,54.3,48.2,62.7C91.8-1189.1,77.3-1213.6,77.3-1235z"/>
</g>
<g id="害羞脸" display="none">
	<g display="inline">
		<path fill="#BC4444" d="M-686.2-1179.9c-2.3,1.5-4.6,2.3-6.1,1.5c-16.1-9.9,8.4-55.8,9.2-57.4c1.5-2.3,4.6-5.4,6.9-4.6
			C-639.5-1233.5-696.9-1195.2-686.2-1179.9z"/>
	</g>
	<g display="inline">
		<path fill="#BC4444" d="M-648.7-1229.6c1.5-0.8,3.1-1.5,4.6-0.8c10.7,7.6,4.6,29.8-1.5,36.7c-4.6,5.4-10.7,6.1-12.2,6.1
			C-683.1-1194.4-641.8-1218.2-648.7-1229.6z"/>
	</g>
	<g display="inline">
		<path fill="#BC4444" d="M-625.8-1188.3c-0.8,0.8-1.5-2.3-2.3-3.8c-3.1-7.7-0.8-16.8,3.1-20.7c3.1-3.8,6.9-3.8,7.7-3.8
			C-601.3-1213.6-630.4-1196-625.8-1188.3z"/>
	</g>
</g>
<g id="闪光眼" display="none">
	<g display="inline">
		<polygon fill="#F6F3F0" points="306,457.2 292.2,409.8 252.4,396 292.2,382.2 306,334.8 319.8,382.2 359.6,396 319.8,409.8 		"/>
	</g>
</g>
<g id="耳朵" display="none">
	<g id="耳朵9" display="inline">
		<polygon fill="#C69C6D" points="159.1,-1720.8 399.3,-1660.3 107.9,-1517.3 		"/>
		<polygon fill="#B18451" points="110.9,-1531 107.9,-1517.3 398.6,-1660.3 397,-1661.1 		"/>
		<polygon fill="#DCB890" points="174.4,-1695.5 335.1,-1677.2 159.1,-1721.5 112.5,-1533.3 		"/>
		<polygon fill="#C69C6D" points="-338.1,-1720 -576.8,-1653.4 -282.3,-1518 		"/>
		<polygon fill="#B18451" points="-302.9,-1533.3 -344.3,-1546.3 -282.3,-1518 -338.1,-1720 -345,-1718.5 		"/>
		<polygon fill="#DCB890" points="-515.6,-1648.8 -371,-1710.8 -576.8,-1653.4 -321.3,-1536.4 		"/>
	</g>
	<g id="耳朵8" display="inline">
		<polygon fill="#C69C6D" points="-25.2,-1642.7 176.7,-1765.9 78.8,-1472.1 		"/>
		<polygon fill="#B18451" points="69.6,-1487.4 78.8,-1472.9 168.3,-1740.6 		"/>
		<polygon fill="#DCB890" points="-3.1,-1637.4 135.4,-1739.9 -25.2,-1642.7 68.1,-1489 		"/>
		<polygon fill="#C69C6D" points="-183.6,-1621.3 -364.1,-1773.5 -312.1,-1468.3 		"/>
		<polygon fill="#B18451" points="-306,-1724.6 -195.1,-1624.4 -312.9,-1471.4 -312.1,-1468.3 -183.6,-1621.3 		"/>
		<polygon fill="#DCB890" points="-345.8,-1749.1 -270.8,-1695.5 -364.1,-1774.3 -325.1,-1542.5 		"/>
	</g>
	<g id="耳朵7" display="inline">
		<polygon fill="#C69C6D" points="115.5,-1716.2 277.7,-1659.6 47.4,-1519.6 		"/>
		<polygon fill="#B18451" points="54.3,-1541 47.4,-1519.6 277.7,-1659.6 276.9,-1659.6 		"/>
		<polygon fill="#DCB890" points="126.2,-1697.8 229.5,-1676.4 116.3,-1716.2 61.2,-1557.8 		"/>
		<polygon fill="#C69C6D" points="-293.8,-1727.6 -454.4,-1727.6 -293.8,-1519.6 		"/>
		<polygon fill="#B18451" points="-302.2,-1540.2 -337.4,-1576.2 -293,-1519.6 -293,-1684.8 		"/>
		<polygon fill="#DCB890" points="-421.5,-1711.6 -319,-1727.6 -455.2,-1727.6 -335.1,-1573.9 		"/>
	</g>
	<g id="耳朵6" display="inline">
		<polygon fill="#C69C6D" points="-539.3,-1729.9 -592.1,-1488.2 -334.3,-1685.6 		"/>
		<polygon fill="#B18451" points="-585.2,-1518 -592.1,-1488.2 -334.3,-1685.6 -335.8,-1685.6 		"/>
		<polygon fill="#DCB890" points="-518.7,-1701.6 -380.2,-1695.5 -539.3,-1729.9 -581.4,-1534.9 		"/>
		<polygon fill="#C69C6D" points="320.5,-1756.7 404.7,-1524.2 123.2,-1684.8 		"/>
		<polygon fill="#B18451" points="343.5,-1694.7 362.6,-1575.4 180.5,-1652.7 404.7,-1524.9 		"/>
		<polygon fill="#DCB890" points="330.5,-1728.4 320.5,-1756.7 123.2,-1684.8 130.1,-1681 		"/>
	</g>
	<g id="耳朵5" display="inline">
		<polygon fill="#C69C6D" points="105.6,-1673.3 353.4,-1673.3 105.6,-1463.7 		"/>
		<polygon fill="#B18451" points="309.8,-1673.3 144.6,-1496.6 352.7,-1673.3 		"/>
		<polygon fill="#DCB890" points="126.2,-1661.8 236.4,-1672.6 104.8,-1672.6 104.8,-1463 115.5,-1472.1 		"/>
		<polygon fill="#C69C6D" points="-529.4,-1547.9 -433.8,-1776.6 -335.8,-1467.5 		"/>
		<polygon fill="#B18451" points="-335.8,-1467.5 -429.9,-1763.6 -360.3,-1489 -415.4,-1500.4 		"/>
		<polygon fill="#DCB890" points="-511,-1552.5 -420.8,-1737.6 -433,-1775.8 -528.6,-1547.9 -396.3,-1492 		"/>
	</g>
	<g id="耳朵3" display="inline">
		<polygon fill="#C69C6D" points="-379.4,-1713.9 -592.1,-1586.9 -272.3,-1534.1 		"/>
		<polygon fill="#DCB890" points="-377.1,-1703.2 -308.3,-1594.5 -379.4,-1713.9 -592.1,-1587.6 -576,-1584.6 		"/>
		<polygon fill="#B18451" points="-332,-1634.3 -281.5,-1540.2 -587.5,-1586.9 -272.3,-1534.1 		"/>
		<polygon fill="#C69C6D" points="188.2,-1713.9 400.9,-1587.6 81.1,-1533.3 		"/>
		<polygon fill="#B18451" points="279.2,-1660.3 373.3,-1593.8 158.4,-1546.3 400.9,-1588.4 		"/>
		<polygon fill="#DCB890" points="192.8,-1696.3 329,-1630.5 188.2,-1713.9 91.8,-1550.2 		"/>
	</g>
	<g id="耳朵2" display="inline">
		<polygon fill="#C69C6D" points="130.1,-1726.9 377.1,-1726.9 130.1,-1517.3 		"/>
		<polygon fill="#C69C6D" points="-306,-1726.9 -553.1,-1726.9 -306,-1517.3 		"/>
		<polygon fill="#B18451" points="130.1,-1531.8 130.1,-1555.5 130.1,-1517.3 325.1,-1682.5 		"/>
		<polygon fill="#DCB890" points="143.8,-1713.1 310.6,-1726.9 130.1,-1726.9 130.1,-1521.1 		"/>
		<polygon fill="#B18451" points="-314.4,-1528 -385.6,-1584.6 -306,-1516.5 -306,-1696.3 		"/>
		<polygon fill="#DCB890" points="-526.3,-1718.5 -341.2,-1726.9 -553.1,-1726.9 -364.1,-1566.2 		"/>
	</g>
	<g id="耳朵1" display="inline">
		<polygon fill="#C69C6D" points="436.1,-1910.5 683.1,-1910.5 436.1,-1700.9 		"/>
		<polygon fill="#B18451" points="436.8,-1715.4 436.1,-1739.1 436.1,-1700.9 631.1,-1866.1 		"/>
		<polygon fill="#DCB890" points="449.8,-1896.7 616.6,-1910.5 436.1,-1910.5 436.1,-1704.7 		"/>
		<polygon fill="#C69C6D" points="0,-1910.5 -247.1,-1910.5 0,-1700.9 		"/>
		<polygon fill="#B18451" points="-8.4,-1711.6 -79.6,-1768.2 0,-1700.9 0,-1879.9 		"/>
		<polygon fill="#DCB890" points="-220.3,-1902.1 -35.2,-1910.5 -247.1,-1910.5 -58.1,-1749.8 		"/>
	</g>
</g>
<g id="眼睛" display="none">
	<g id="眼睛1" display="inline">
		<g>
			<path fill="#F6F3F0" d="M260.1,406.7c0,80.3-45.9,134.6-101.7,134.6S55.8,487,55.8,406.7s45.9-156.1,102.5-156.1
				S260.1,326.4,260.1,406.7z"/>
			<path fill="#E6E6E6" d="M135.4,514.6c-23.7,0-45.9-9.9-63.5-27.5c18.4,26.8,45.9,42.8,75.7,42.8c56.6,0,102.5-54.3,102.5-134.6
				c0-3.1,0-6.1,0-9.2C241.7,458,187.4,514.6,135.4,514.6z"/>
			<path fill="#FFFFFF" d="M76.5,441.9c0-80.3,45.9-156.1,102.5-156.1c23.7,0,45.1,13,62.7,34.4c-18.4-41.3-49-70.4-84.1-70.4
				c-56.6,0-102.5,75.7-102.5,156.1c0,42.8,13,78,33.7,101.7C81.1,489.3,76.5,466.4,76.5,441.9z"/>
			<path fill="#8C6239" d="M158.4,556.7c-67.3,0-117.8-64.3-117.8-149.9c0-92.6,53.5-171.4,117.8-171.4s117,78.8,117,171.4
				C275.4,492.4,224.9,556.7,158.4,556.7z M158.4,266c-45.1,0-87.2,67.3-87.2,140.8c0,68.9,36.7,119.3,87.2,119.3
				c49.7,0,86.4-50.5,86.4-119.3C244.8,333.3,203.5,266,158.4,266z"/>
			<g>
				<path fill="#AA8561" d="M44.4,415.1c0-92.6,53.6-171.4,117.8-171.4c38.3,0,73.4,28.3,94.9,71.9c-21.4-48.2-58.1-80.3-98.7-80.3
					c-64.3,0-117.8,78.8-117.8,171.4c0,32.1,6.9,61.2,19.9,84.9C50.5,469.4,44.4,443.4,44.4,415.1z"/>
				<path fill="#AA8561" d="M162.2,534.5c50.5,0,87.2-50.5,87.2-119.3c0-31.4-7.6-60.4-19.1-84.9c9.9,22.2,15.3,49,15.3,76.5
					c0,68.9-36.7,119.3-87.2,119.3c-30.6,0-55.8-18.4-71.1-48.2C101.7,512.3,128.5,534.5,162.2,534.5z"/>
			</g>
			<g>
				<path fill="#744D28" d="M118.6,513.8c-28.3-19.1-47.4-58.1-47.4-107.1c0-73.4,41.3-140.8,87.2-140.8c8.4,0,16.8,2.3,24.5,6.1
					c-9.2-6.1-19.9-9.9-29.8-9.9c-45.9,0.8-87.2,67.3-87.2,141.5C65.8,455.7,86.4,497,118.6,513.8z"/>
				<path fill="#744D28" d="M198.9,246.8c41.3,26.8,71.1,88,71.1,156.8c0,85.7-50.5,149.9-117.8,149.9c-19.1,0-36-5.4-52-14.5
					c16.8,11.5,36,17.6,57.4,17.6c67.3,0,117.8-64.3,117.8-149.9C275.4,334.8,243.3,272.1,198.9,246.8z"/>
			</g>
			<path fill="#F6F3F0" d="M556.2,406.7c0,80.3-45.9,134.6-102.5,134.6S351.9,487,351.9,406.7s45.9-156.1,101.7-156.1
				S556.2,326.4,556.2,406.7z"/>
			<circle cx="179.8" cy="466.4" r="37.5"/>
			<circle cx="442.9" cy="466.4" r="37.5"/>
			<path fill="#FFFFFF" d="M373.3,441.1c0-80.3,45.9-156.1,102.5-156.1c23.7,0,45.1,13,62.7,34.4c-18.4-41.3-49-70.4-84.1-70.4
				c-56.6,0-102.5,75.7-102.5,156.1c0,42.8,13,78,33.7,101.7C377.9,487.8,373.3,465.6,373.3,441.1z"/>
			<path fill="#E6E6E6" d="M433.8,516.9c-23.7,0-45.9-9.9-63.5-27.5c18.4,26.8,45.9,42.8,75.7,42.8c56.6,0,102.5-54.3,102.5-134.6
				c0-3.1,0-6.1,0-9.2C540.1,460.3,485.8,516.9,433.8,516.9z"/>
			<path fill="#333333" d="M453.6,556.7c-66.6,0-117-64.3-117-149.9c0-92.6,53.5-171.4,117-171.4s117.8,78.8,117.8,171.4
				C571.5,492.4,521,556.7,453.6,556.7z M453.6,266c-45.1,0-86.4,67.3-86.4,140.8c0,68.9,36.7,119.3,87.2,119.3
				s87.2-50.5,87.2-119.3C540.9,333.3,499.5,266,453.6,266z"/>
			<ellipse fill="#FFFFFF" cx="197.4" cy="451.8" rx="17.6" ry="22.2"/>
			<ellipse fill="#FFFFFF" cx="455.2" cy="450.3" rx="17.6" ry="22.2"/>
			<g>
				<path d="M413.9,513.8c-28.3-19.1-47.4-58.1-47.4-107.1c0-73.4,41.3-140.8,87.2-140.8c8.4,0,16.8,2.3,24.5,6.1
					c-9.2-6.1-19.9-9.9-29.8-9.9c-45.1,0-87.2,67.3-87.2,140.8C361.1,455.7,381.7,497,413.9,513.8z"/>
				<path d="M495,246.8c41.3,26.8,70.4,88,70.4,156.8c0,85.7-50.5,149.9-117.8,149.9c-19.1,0-36-5.4-52-14.5
					c16.8,11.5,36,17.6,57.4,17.6c67.3,0,117.8-64.3,117.8-149.9C571.5,334.8,538.6,272.1,495,246.8z"/>
			</g>
			<g>
				<path fill="#535353" d="M340.4,415.1c0-92.6,53.5-171.4,117.8-171.4c38.3,0,73.4,28.3,94.9,71.9c-21.4-48.2-58.1-80.3-99.5-80.3
					c-63.5,0-117,78-117,171.4c0,32.1,6.9,61.2,19.9,84.9C345.8,469.4,340.4,443.4,340.4,415.1z"/>
				<path fill="#535353" d="M457.5,533.7c50.5,0,87.2-50.5,87.2-119.3c0-31.4-7.7-60.4-19.1-84.9c9.9,22.2,15.3,49,15.3,76.5
					c0,68.8-36.7,119.3-87.2,119.3c-30.6,0-55.8-18.4-71.1-48.2C397.8,512.3,424.6,533.7,457.5,533.7z"/>
			</g>
		</g>
	</g>
	<g id="眼睛2" display="inline">
		<path fill="#F6F3F0" d="M-1018.2-2028.3c69.6,0,95.6-56.6,95.6-126.2H-1175C-1175-2084.9-1088.6-2028.3-1018.2-2028.3z"/>
		<path fill="#E6E6E6" d="M-943.2-2160.6c-1.5,65.8-28.3,118.6-95.6,118.6c-31.4,0-65.8-11.5-94.9-30.6
			c30.6,23.7,70.4,38.2,105.6,38.2c69.6,0,95.6-56.6,95.6-126.2H-943.2z"/>
		<path fill="#FFFFFF" d="M-1140.6-2130h218c0.8-6.1,0.8-12.2,0.8-18.4h-252.4c0,49,42.8,91,92.6,112.5
			C-1115.4-2058.9-1140.6-2092.5-1140.6-2130z"/>
		<path fill="#8C6239" d="M-1018.2-2013c-78,0-172.1-63.5-172.1-141.5v-15.3h283.1v15.3C-907.3-2064.2-947.8-2013-1018.2-2013z
			 M-1158.2-2139.2c11.5,52.8,81.9,95.6,140,95.6c59.7,0,77.3-49,79.6-95.6H-1158.2z"/>
		<g>
			<path fill="#744D28" d="M-1140.6-2103.3c-8.4-10.7-14.5-22.9-17.6-36H-944c0-2.3,0-3.8,0.8-6.1h-219.6
				C-1159.7-2129.3-1151.3-2115.5-1140.6-2103.3z"/>
			<path fill="#744D28" d="M-911.9-2169v9.9c0,90.3-40.5,141.5-110.9,141.5c-49.7,0-106.3-26-140.8-65
				c33.7,42.1,93.3,70.4,145.3,70.4c70.4,0,110.9-51.3,110.9-141.5v-15.3L-911.9-2169L-911.9-2169z"/>
		</g>
		<path fill="#AA8561" d="M-1185.8-2148.4v-15.3h277.7v-6.1h-283v15.3c0,29.8,13.8,57.4,35.2,80.3
			C-1174.3-2095.6-1185.8-2121.6-1185.8-2148.4z"/>
		<path fill="#AA8561" d="M-1013.6-2037.5c59.7,0,76.5-53.6,79.6-100.2l-4.6-1.5c-3.8,45.1-23,95.6-80.3,95.6
			c-39.8,0-84.9-19.9-113.2-49.7C-1103.9-2060.4-1055.7-2037.5-1013.6-2037.5z"/>
		<path fill="#F6F3F0" d="M-696.9-2028.3c-69.6,0-95.6-56.6-95.6-126.2H-540C-540.1-2084.9-627.3-2028.3-696.9-2028.3z"/>
		<path fill="#E6E6E6" d="M-559.2-2156c-9.2,64.3-90.3,114.8-156.1,114.8c-24.5,0-42.8-6.9-57.4-19.1c15.3,19.1,37.5,30.6,68.9,30.6
			c69.6,0,156.8-56.6,156.8-126.2L-559.2-2156L-559.2-2156z"/>
		<path fill="#FFFFFF" d="M-768.1-2130.8H-534c0.8-5.4,1.5-9.9,1.5-15.3H-785c0,49,13,91,44.4,112.5
			C-760.4-2057.4-768.1-2091.8-768.1-2130.8z"/>
		<path fill="#333333" d="M-696.9-2013c-70.4,0-110.9-51.3-110.9-141.5v-15.3h283.1v15.3C-524.8-2075.7-619.7-2013-696.9-2013z
			 M-777.2-2139.2c3.1,46.7,19.9,95.6,79.6,95.6c58.1,0,128.5-42.8,140-95.6H-777.2z"/>
		<g>
			<path d="M-749.7-2062.7c-18.4-18.4-25.2-47.4-26.8-75.7H-560c0-0.8,0.8-1.5,0.8-2.3h-219.6
				C-778-2111.7-770.4-2081.1-749.7-2062.7z"/>
			<path d="M-527.9-2169v13c0,78-94.1,141.5-172.1,141.5c-29.8,0-54.3-9.2-72.7-27.5c18.4,19.1,44.4,29.8,75.7,29.8
				c78,0,172.1-63.5,172.1-141.5v-15.3H-527.9z"/>
		</g>
		<path fill="#535353" d="M-803.3-2148.4v-15.3h277.7v-6.1h-283v15.3c0,50.5,13,89.5,36.7,113.2
			C-791.8-2065-803.3-2101.7-803.3-2148.4z"/>
		<path fill="#535353" d="M-692.3-2037.5c58.1,0,127.8-45.1,139.2-97.9l-4.6-3.1c-15.3,50.5-84.2,95.6-140,95.6
			c-23.7,0-40.5-7.7-52.8-19.9C-737.5-2048.2-719.1-2037.5-692.3-2037.5z"/>
	</g>
	<g id="眼睛3" display="inline">
		<g>
			<path fill="#8C6239" d="M-1038.9-1970.1c-26,0-47.4-10.7-59.7-26c-19.1-22.2-26.8-62.7,9.2-109.4c19.9-25.2,40.5-36.7,60.4-32.1
				c36,7.7,51.3,61.2,53.6,67.3c2.3,8.4-3.1,16.8-10.7,18.4c-8.4,2.3-16.8-2.3-18.4-10.7c-4.6-16.8-16.8-42.8-29.8-45.1
				c-7.6-1.5-18.4,6.1-29.8,21.4c-20.7,26.8-24.5,53.6-9.9,70.4c13,15.3,42.8,22.2,77.3,3.8c41.3-22.2,61.2-71.9,62-110.9
				c0.8-26-6.9-46.7-19.1-54.3c-23.7-14.5-58.1-18.4-88.7-10.7c-19.9,5.4-47.4,17.6-65.8,49.7c-4.6,7.6-13.8,9.9-20.7,5.4
				c-7.7-4.6-9.9-13.8-5.4-20.7c19.1-32.1,48.2-54.3,84.9-64.3c38.2-9.9,81.1-4.6,112.5,14.5c22.2,13.8,35.2,43.6,33.7,81.1
				c-1.5,48.2-26,108.6-78,136.9C-1002.9-1974.7-1022-1970.1-1038.9-1970.1z"/>
		</g>
		<g>
			<path fill="#744D28" d="M-978.4-2078.8c0.8,2.3,1.5,4.6,1.5,5.4c2.3,8.4-3.1,16.8-10.7,18.4c-7.7,2.3-15.3-2.3-18.4-9.2
				c0,0.8,0.8,1.5,0.8,2.3c2.3,8.4,10.7,13,18.4,10.7c8.4-2.3,13-10.7,10.7-18.4C-976.1-2071.1-976.9-2074.2-978.4-2078.8z"/>
			<path fill="#744D28" d="M-1064.9-2086.4c11.5-15.3,23-22.9,29.8-21.4c10.7,2.3,21.4,22.2,27.5,38.3
				c-5.4-16.8-16.8-39.8-29.1-42.1c-7.6-1.5-18.4,6.1-29.8,21.4c-16.8,21.4-22.2,42.8-16.8,58.9
				C-1086.3-2046.6-1080.2-2066.5-1064.9-2086.4z"/>
			<path fill="#744D28" d="M-1110-2139.2c18.4-32.1,45.9-44.4,65.8-49.7c30.6-7.6,65-3.1,88.7,10.7c6.1,3.8,10.7,10.7,13.8,19.1
				c-3.1-10.7-8.4-19.1-15.3-22.9c-23.7-14.5-58.1-18.4-88.7-10.7c-19.9,5.4-47.4,17.6-65.8,49.7c-4.6,7.6-13.8,9.9-20.7,5.4
				c-3.1-1.5-4.6-3.8-6.1-6.1c0.8,3.8,3.1,7.6,7.7,9.9C-1123.8-2129.3-1113.8-2131.6-1110-2139.2z"/>
			<path fill="#744D28" d="M-911.1-2164.5c3.1,11.5,4.6,24.5,4.6,38.3c-1.5,48.2-26,108.6-78,136.9c-19.9,10.7-38.3,15.3-55.1,15.3
				c-26,0-47.4-10.7-59.7-26c-4.6-5.4-8.4-12.2-11.5-19.1c3.1,9.2,6.9,16.8,13,22.9c13,15.3,34.4,26,59.7,26
				c16.8,0,36-4.6,55.1-15.3c52-28.3,76.5-89.5,78-136.9C-905-2138.4-906.5-2152.2-911.1-2164.5z"/>
		</g>
		<g>
			<path fill="#AA8561" d="M-1023.6-2098.7c7.6,9.9,14.5,25.2,17.6,36.7c0.8,3.8,3.8,7.6,7.7,9.2c-0.8-0.8-1.5-2.3-1.5-3.8
				C-1003.7-2070.4-1013.6-2091-1023.6-2098.7z"/>
			<path fill="#AA8561" d="M-993-2006.9c41.3-22.2,61.2-71.9,62-110.9c0.8-24.5-6.1-44.4-17.6-52.8c7.7,9.9,12.2,26.8,11.5,47.4
				c-0.8,39-20.7,88.7-62,110.9c-30.6,16.8-57.4,13-71.9,1.5c0,0,0,0.8,0.8,0.8C-1057.2-1995.4-1027.4-1987.7-993-2006.9z"/>
			<path fill="#AA8561" d="M-1131.4-2148.4c19.1-32.1,48.2-54.3,84.9-64.3c38.3-9.9,81.1-4.6,112.5,14.5c2.3,1.5,4.6,3.1,6.9,5.4
				c-3.8-4.6-8.4-8.4-13-10.7c-30.6-18.4-73.4-24.5-112.5-14.5c-36.7,9.2-66.6,31.4-84.9,64.3c-4.6,7.6-1.5,16.8,5.4,20.7l0,0
				C-1133.7-2138.4-1134.5-2143.8-1131.4-2148.4z"/>
			<path fill="#AA8561" d="M-1093.2-1990c-19.1-22.2-26.8-62.7,9.2-109.4c19.9-25.2,40.5-36.7,60.4-32.1c8.4,1.5,16.1,6.1,22.2,11.5
				c-7.7-8.4-16.8-15.3-27.5-17.6c-19.9-3.8-40.5,6.9-60.4,32.1c-36,45.9-28.3,86.4-9.2,109.4c2.3,2.3,3.8,4.6,6.1,6.9
				C-1093.2-1990-1093.2-1990-1093.2-1990z"/>
		</g>
		<path fill="none" stroke="#333333" stroke-width="4" stroke-linecap="round" stroke-miterlimit="10" d="M-669.4-2065.8
			c0,0-28.3-105.6-86.4-29.8c-58.9,75.7,9.9,138.5,86.4,97.2s89.5-163.7,43.6-192s-135.4-26.8-176,44.4"/>
		<g>
			<path d="M-656.4-2078.8c0.8,2.3,1.5,4.6,1.5,5.4c2.3,8.4-3.1,16.8-10.7,18.4c-7.7,2.3-15.3-2.3-18.4-9.2c0,0.8,0.8,1.5,0.8,2.3
				c2.3,8.4,10.7,13,18.4,10.7c8.4-2.3,13-10.7,10.7-18.4C-654.1-2071.1-654.8-2074.2-656.4-2078.8z"/>
			<path d="M-742.8-2085.7c11.5-15.3,23-22.9,29.8-21.4c10.7,2.3,21.4,22.2,27.5,38.3c-5.4-16.8-16.8-39.8-29.1-42.1
				c-7.7-1.5-18.4,6.1-29.8,21.4c-16.8,21.4-22.2,42.8-16.8,58.9C-764.2-2046.6-758.1-2065.8-742.8-2085.7z"/>
			<path d="M-788-2138.4c18.4-32.1,45.9-44.4,65.8-49.7c30.6-7.6,65-3.1,88.7,10.7c6.1,3.8,10.7,10.7,13.8,19.1
				c-3.1-10.7-8.4-19.1-15.3-22.9c-23.7-14.5-58.1-18.4-88.7-10.7c-19.9,5.4-47.4,17.6-65.8,49.7c-4.6,7.7-13.8,9.9-20.7,5.4
				c-3.1-1.5-4.6-3.8-6.1-6.1c0.8,3.8,3.1,7.6,7.7,9.9C-801-2129.3-791.8-2131.6-788-2138.4z"/>
			<path d="M-588.3-2164.5c3.1,11.5,4.6,24.5,4.6,38.3c-1.5,48.2-26,108.6-78,136.9c-19.9,10.7-38.3,15.3-55.1,15.3
				c-26,0-47.4-10.7-59.7-26c-4.6-5.4-8.4-12.2-11.5-19.1c3.1,9.2,6.9,16.8,13,22.9c13,15.3,34.4,26,59.7,26
				c16.8,0,36-4.6,55.1-15.3c52-28.3,76.5-89.5,78-136.9C-582.9-2138.4-584.5-2152.2-588.3-2164.5z"/>
		</g>
		<g>
			<path fill="#535353" d="M-701.5-2098.7c7.7,9.9,14.5,25.2,17.6,36.7c0.8,3.8,3.8,7.6,7.7,9.2c-0.8-0.8-1.5-2.3-1.5-3.8
				C-681.6-2070.4-690.8-2090.3-701.5-2098.7z"/>
			<path fill="#535353" d="M-670.9-2006.1c41.3-22.2,61.2-71.9,62-110.9c0.8-24.5-6.1-44.4-17.6-52.8c7.7,9.9,12.2,26.8,11.5,47.4
				c-0.8,39-20.7,88.7-62,110.9c-30.6,16.8-57.4,13-71.9,1.5c0,0,0,0.8,0.8,0.8C-735.2-1994.6-705.3-1987-670.9-2006.1z"/>
			<path fill="#535353" d="M-809.4-2148.4c19.1-32.1,48.2-54.3,84.9-64.3c38.3-9.9,81.1-4.6,112.5,14.5c2.3,1.5,4.6,3.1,6.9,5.4
				c-3.8-4.6-8.4-8.4-13-10.7c-30.6-18.4-73.4-24.5-112.5-14.5c-36.7,9.2-66.6,31.4-84.9,64.3c-4.6,7.6-1.5,16.8,5.4,20.7l0,0
				C-811.7-2137.7-811.7-2143.8-809.4-2148.4z"/>
			<path fill="#535353" d="M-771.1-1990c-19.1-22.2-26.8-62.7,9.2-109.4c19.9-25.2,40.5-36.7,60.4-32.1c8.4,1.5,16.1,6.1,22.2,11.5
				c-7.7-8.4-16.8-15.3-27.5-17.6c-19.9-3.8-40.5,6.9-60.4,32.1c-36,45.9-28.3,86.4-9.2,109.4c2.3,2.3,3.8,4.6,6.1,6.9
				C-771.1-1989.3-771.1-1990-771.1-1990z"/>
		</g>
	</g>
	<g id="眼睛4" display="inline">
		<path fill="#F6F3F0" d="M1181.2-2078.8c0,80.3-45.9,134.6-102.5,134.6s-102.5-54.3-102.5-134.6c0-80.3,45.9-156.1,102.5-156.1
			S1181.2-2159.1,1181.2-2078.8z"/>
		<path fill="#E6E6E6" d="M1138.3-2185.1c11.5,25.2,18.4,55.8,18.4,86.4c0,80.3-45.9,134.6-102.5,134.6c-32.1,0-60.4-16.8-78.8-46.7
			c17.6,40.5,50.5,65,88.7,65c56.6,0,102.5-54.3,102.5-134.6C1166.6-2118.6,1155.9-2156,1138.3-2185.1z"/>
		<path fill="#FFFFFF" d="M993-2042.8c0-80.3,45.9-156.1,102.5-156.1c26.8,0,51.3,17.6,69.6,44.4c-18.4-41.3-49-69.6-84.2-69.6
			c-56.6,0-102.5,75.7-102.5,156.1c0,37.5,9.9,69.6,26.8,93.3C997.6-1995.4,993-2017.6,993-2042.8z"/>
		<path fill="#8C6239" d="M1078.7-1928.8c-67.3,0-117.8-64.3-117.8-149.9c0-92.6,53.6-171.4,117.8-171.4s117.8,78.8,117.8,171.4
			C1196.5-1993.1,1146-1928.8,1078.7-1928.8z M1078.7-2219.5c-45.1,0-87.2,67.3-87.2,140.8c0,68.9,36.7,119.3,87.2,119.3
			s87.2-50.5,87.2-119.3C1165.9-2152.2,1124.6-2219.5,1078.7-2219.5z"/>
		<g>
			<path fill="#744D28" d="M991.4-2079.5c0-73.4,41.3-140.8,87.2-140.8c29.8,0,58.1,29.1,74.2,70.4c-14.5-45.9-45.1-78.8-77.3-78.8
				c-45.1,0-87.2,67.3-87.2,140.8c0,22.2,3.8,42.8,10.7,60.4C993.7-2043.6,991.4-2061.2,991.4-2079.5z"/>
			<path fill="#744D28" d="M1181.2-2161.4c7.7,22.2,11.5,46.7,11.5,72.7c0,85.7-50.5,149.9-117.8,149.9
				c-47.4,0-87.2-32.9-105.6-82.6c16.8,54.3,58.1,91,108.6,91c67.3,0,117.8-64.3,117.8-149.9
				C1195.7-2109.4,1190.3-2136.9,1181.2-2161.4z"/>
		</g>
		<g>
			<path fill="#AA8561" d="M1084.8-1951.8c50.5,0,87.2-50.5,87.2-119.3c0-48.2-17.6-92.6-42.1-118.6c21.4,26.8,36,67.3,36,110.9
				c0,68.9-36.7,119.3-87.2,119.3c-20.7,0-39-8.4-53.6-23.7C1040.4-1963.3,1061.1-1951.8,1084.8-1951.8z"/>
			<path fill="#AA8561" d="M967.7-2071.1c0-92.6,53.5-171.4,117.8-171.4c25.2,0,49,12.2,68.1,32.9c-20.7-25.2-46.7-40.5-75-40.5
				c-63.5,0-117.8,78.8-117.8,171.4c0,48.2,16.1,89.5,42.1,117C980.7-1988.5,967.7-2026.8,967.7-2071.1z"/>
		</g>
		<path d="M1010.6-2039c-17.6,29.8-21.4,63.5-13.8,94.9c-16.8-31.4-18.4-70.4,0.8-101.7c18.4-31.4,52-48.2,87.2-49
			C1054.9-2087.2,1028.2-2067.3,1010.6-2039z"/>
		<path fill="#F6F3F0" d="M1477.2-2078.8c0,80.3-45.9,134.6-102.5,134.6s-102.5-54.3-102.5-134.6c0-80.3,45.9-156.1,102.5-156.1
			C1431.3-2234.8,1477.2-2159.1,1477.2-2078.8z"/>
		<path fill="#E6E6E6" d="M1439-2190.5c11.5,25.2,18.4,55.8,18.4,86.4c0,80.3-45.9,134.6-102.5,134.6c-32.1,0-60.4-16.8-78.8-46.7
			c17.6,40.5,50.5,65,88.7,65c56.6,0,102.5-54.3,102.5-134.6C1467.3-2124.7,1456.6-2162.2,1439-2190.5z"/>
		<path fill="#FFFFFF" d="M1293.6-2048.9c0-80.3,45.9-156.1,102.5-156.1c26.8,0,51.3,17.6,69.6,44.4c-18.4-41.3-49-69.6-84.2-69.6
			c-56.6,0-102.5,75.7-102.5,156.1c0,37.5,9.9,69.6,26.8,93.3C1298.2-2000.7,1293.6-2023.7,1293.6-2048.9z"/>
		<path fill="#333333" d="M1374.7-1928.8c-67.3,0-117.8-64.3-117.8-149.9c0-92.6,53.6-171.4,117.8-171.4
			c64.3,0,117.8,78.8,117.8,171.4C1492.5-1993.1,1441.3-1928.8,1374.7-1928.8z M1374.7-2219.5c-45.1,0-87.2,67.3-87.2,140.8
			c0,68.9,36.7,119.3,87.2,119.3s87.2-50.5,87.2-119.3C1461.9-2152.2,1419.8-2219.5,1374.7-2219.5z"/>
		<g>
			<path d="M1287.5-2079.5c0-73.4,41.3-140.8,87.2-140.8c29.8,0,58.1,29.1,74.2,70.4c-14.5-45.9-45.1-78.8-77.3-78.8
				c-45.1,0-87.2,67.3-87.2,140.8c0,22.2,3.8,42.8,10.7,60.4C1290.6-2043.6,1287.5-2061.2,1287.5-2079.5z"/>
			<path d="M1477.2-2161.4c7.7,22.2,11.5,46.7,11.5,72.7c0,85.7-50.5,149.9-117.8,149.9c-47.4,0-87.2-32.9-105.6-82.6
				c16.8,54.3,58.1,91,108.6,91c67.3,0,117.8-64.3,117.8-149.9C1491.8-2109.4,1486.4-2136.9,1477.2-2161.4z"/>
		</g>
		<g>
			<path fill="#535353" d="M1381.6-1951.8c50.5,0,87.2-50.5,87.2-119.3c0-48.2-17.6-92.6-42.1-118.6c21.4,26.8,36,67.3,36,110.9
				c0,68.9-36.7,119.3-87.2,119.3c-20.7,0-39-8.4-53.6-23.7C1336.5-1963.3,1357.1-1951.8,1381.6-1951.8z"/>
			<path fill="#535353" d="M1263.8-2071.1c0-92.6,53.5-171.4,117.8-171.4c25.2,0,49,12.2,68.1,32.9c-20.7-25.2-46.7-40.5-75-40.5
				c-63.5,0-117.8,78.8-117.8,171.4c0,48.2,16.1,89.5,42.1,117C1277.6-1988.5,1263.8-2026.8,1263.8-2071.1z"/>
		</g>
		<path d="M1436.7-2040.5c23.7,25.2,35.2,57.4,34.4,89.5c9.9-34.4,2.3-72.7-23-99.5c-25.2-26-61.2-36-95.6-28.3
			C1382.4-2078,1413-2065,1436.7-2040.5z"/>
	</g>
	<g id="眼睛5" display="inline">
		<path fill="#F6F3F0" d="M-1917.1-1913.5c0,76.5-54.3,146.1-120.9,146.1c-67.3,0-120.9-55.1-120.9-132.3
			c0-76.5,54.3-146.1,120.9-146.1C-1971.4-2045.9-1917.1-1990.8-1917.1-1913.5z"/>
		<path fill="#E6E6E6" d="M-1944.6-2000c8.4,17.6,13,38.3,13,60.4c0,76.5-54.3,146.1-120.9,146.1c-38.3,0-72.7-18.4-94.9-49
			c19.9,43.6,61.2,71.9,108.6,71.9c67.3,0,120.9-68.8,120.9-146.1C-1917.9-1948.7-1927.8-1977.8-1944.6-2000z"/>
		<g>
			<path fill="#29ABE2" d="M-2034.1-1807.2c-36,0-70.4-7.6-90.3-23.7c16.8,26.8,45.1,47.4,85.7,47.4c36.7,0,62.7-22.2,78-43.6
				C-1980.6-1814.8-2005.8-1807.2-2034.1-1807.2z"/>
		</g>
		<path fill="#1498C6" d="M-1992.8-1812.6c-17.6,12.2-37.5,19.1-58.9,19.1c-17.6,0-34.4-3.8-49-10.7c16.1,13,37.5,21.4,63.5,21.4
			c36.7,0,62.7-22.2,78-43.6C-1969.1-1821-1980.6-1815.6-1992.8-1812.6z"/>
		<path fill="#FFFFFF" d="M-2144.3-1853.1c0-76.5,54.3-146.1,120.9-146.1c42.8,0,79.6,22.2,101.7,58.1c-11.5-62-60.4-104-118.6-104
			c-67.3,0-120.9,68.9-120.9,146.1c0,28.3,7.6,53.5,19.9,74.2C-2143.5-1834-2144.3-1843.9-2144.3-1853.1z"/>
		<path fill="#8C6239" d="M-2038.7-1752.1c-76.5,0-136.2-65-136.2-147.6c0-87.2,62.7-161.4,136.2-161.4c76.5,0,136.2,65,136.2,147.6
			C-1901.8-1826.3-1964.5-1752.1-2038.7-1752.1z M-2038.7-2030.6c-56.6,0-105.6,61.2-105.6,130.8c0,66.6,45.9,117,105.6,117
			c56.6,0,105.6-61.2,105.6-130.8C-1932.4-1980.1-1978.3-2030.6-2038.7-2030.6z"/>
		<g>
			<path fill="#744D28" d="M-2101.5-1804.1c-26.8-20.7-43.6-55.1-43.6-95.6c0-69.6,49.7-130.8,105.6-130.8
				c22.2,0,42.1,6.9,58.9,19.1c-17.6-13.8-39-21.4-62.7-21.4c-56.6,0-105.6,61.2-105.6,130.8
				C-2148.1-1860.8-2129.8-1824.8-2101.5-1804.1z"/>
			<path fill="#744D28" d="M-1962.2-2036.7c34.4,26.8,56.6,70.4,56.6,120.1c0,87.2-62.7,161.4-136.2,161.4
				c-28.3,0-54.3-9.2-76.5-24.5c22.2,16.8,49.7,26.8,79.6,26.8c74.2,0,136.2-74.2,136.2-161.4
				C-1901.8-1965.6-1925.5-2010.7-1962.2-2036.7z"/>
		</g>
		<g>
			<path fill="#AA8561" d="M-2168-1893.6c0-87.2,62.7-161.4,136.2-161.4c32.1,0,61.2,11.5,84.2,31.4c-23.7-22.9-55.8-37.5-91.8-37.5
				c-74.2,0-136.2,74.2-136.2,161.4c0,48.2,19.9,89.5,52,116.3C-2151.2-1810.3-2168-1849.3-2168-1893.6z"/>
			<path fill="#AA8561" d="M-1966.8-2000.7c21.4,21.4,34.4,52,34.4,87.2c0,69.6-49.7,130.8-105.6,130.8c-24.5,0-46.7-8.4-65-22.9
				c18.4,18.4,43.6,29.8,71.9,29.8c56.6,0,105.6-61.2,105.6-130.8C-1926.3-1946.4-1941.6-1980.1-1966.8-2000.7z"/>
		</g>
		<g>
			<circle cx="-2038.7" cy="-1895.2" r="12.2"/>
		</g>
		<path fill="#F6F3F0" d="M-1863.5-1897.5c5.4,68.1,58.1,126.2,117,121.6c59.7-4.6,104-57.4,98.7-125.5
			c-5.4-68.1-58.1-126.2-117-121.6C-1823.8-2018.3-1868.9-1965.6-1863.5-1897.5z"/>
		<path fill="#E6E6E6" d="M-1657-1899.8c-3.8-51.3-34.4-96.4-74.2-114c32.1,21.4,55.1,61.2,58.9,105.6
			c5.4,68.1-39.8,120.9-98.7,125.5c-15.3,0.8-29.8-1.5-43.6-7.6c17.6,11.5,37.5,18.4,58.9,16.8
			C-1696.8-1778.9-1651.6-1831.7-1657-1899.8z"/>
		<path fill="#FFFFFF" d="M-1837.5-1871.5c-5.4-68.1,39.8-120.9,98.7-125.5c25.2-1.5,49.7,7.7,68.9,24.5
			c-22.2-30.6-55.1-49.7-90.3-47.4c-59.7,4.6-104,57.4-98.7,125.5c3.1,39,21.4,75,48.2,97.2
			C-1825.3-1817.9-1835.2-1843.9-1837.5-1871.5z"/>
		<path fill="#29ABE2" d="M-1752.6-1810.3c32.1-2.3,62-11.5,78.8-26.8c-13,25.2-37.5,45.1-73.4,48.2c-32.9,2.3-57.4-15.3-72.7-33.7
			C-1800.8-1813.3-1777.9-1808-1752.6-1810.3z"/>
		<path fill="#1498C6" d="M-1673.1-1837c-6.1,5.4-13.8,9.9-22.9,13.8c-11.5,15.3-27.5,26.8-45.1,32.9
			C-1707.5-1794.2-1685.3-1813.3-1673.1-1837z"/>
		<circle cx="-1754.9" cy="-1889.1" r="10.7"/>
		<path fill="#333333" d="M-1752.6-1759.8c-63.5,0-120.9-60.4-126.2-136.2c-3.1-36.7,7.7-71.1,28.3-97.2
			c21.4-26,51.3-42.1,84.1-44.4c66.6-4.6,127.8,57.4,133.9,136.2c3.1,36.7-7.6,71.1-28.3,97.2c-21.4,26-51.3,42.1-84.2,44.4
			C-1748-1759.8-1750.3-1759.8-1752.6-1759.8z M-1758.7-2007.6c-1.5,0-3.1,0-5.4,0c-24.5,1.5-47.4,13.8-62.7,32.9
			c-16.1,19.9-24.5,47.4-22.2,75.7c4.6,61.2,52,111.7,101,107.9c24.5-1.5,47.4-13.8,62.7-32.9c16.1-19.9,24.5-47.4,22.2-75.7
			C-1666.9-1958.7-1711.3-2007.6-1758.7-2007.6z"/>
		<g>
			<path d="M-1631.7-1902.1c-3.1-45.1-25.2-84.9-55.1-109.4c28.3,25.2,47.4,62.7,51.3,105.6c3.1,36.7-7.7,71.1-28.3,97.2
				c-21.4,26-51.3,42.1-84.2,44.4c-2.3,0-4.6,0-7.7,0c-26.8,0-52-10.7-72.7-28.3c21.4,19.9,49,32.1,77.3,32.1c2.3,0,4.6,0,7.7,0
				c33.7-2.3,63.5-18.4,84.1-44.4C-1639.4-1830.9-1629.5-1865.3-1631.7-1902.1z"/>
			<path d="M-1808.5-1814.1c-21.4-19.9-37.5-50.5-39.8-84.2c-2.3-29.1,5.4-55.8,22.2-75.7c16.1-19.9,38.3-31.4,62.7-32.9
				c1.5,0,3.1,0,5.4,0c17.6,0,35.2,6.9,49.7,18.4c-16.1-13.8-35.2-22.2-54.3-22.2c-1.5,0-3.1,0-5.4,0c-24.5,1.5-47.4,13.8-62.7,32.9
				c-16.1,19.9-24.5,47.4-22.2,75.7C-1849.8-1866.1-1832.2-1834-1808.5-1814.1z"/>
		</g>
		<g>
			<path fill="#535353" d="M-1706.7-1987.7c23.7,19.9,41.3,52,43.6,88c2.3,29.1-5.4,55.8-22.2,75.7c-16.1,19.9-38.3,31.4-62.7,32.9
				c-17.6,1.5-34.4-4.6-49.7-14.5c16.8,13.8,36.7,21.4,57.4,19.9c24.5-1.5,47.4-13.8,62.7-32.9c16.1-19.9,24.5-47.4,22.2-75.7
				C-1657.8-1934.2-1678.4-1968.6-1706.7-1987.7z"/>
			<path fill="#535353" d="M-1871.2-1890.6c-3.1-36.7,7.7-71.1,28.3-97.2c21.4-26,51.3-42.1,84.2-44.4c24.5-1.5,49,5.4,69.6,19.9
				c-22.2-17.6-49-27.5-77.3-25.2c-33.7,2.3-63.5,18.4-84.1,44.4c-21.4,26-31.4,61.2-28.3,97.2c3.8,49,29.1,91.8,63.5,115.5
				C-1845.9-1805.7-1868.1-1845.5-1871.2-1890.6z"/>
		</g>
	</g>
	<g id="眼睛6" display="inline">
		<path fill="#F6F3F0" d="M-158.4-1992.3c0,68.1-46.7,112.5-104,112.5s-104.8-44.4-104.8-112.5c0-68.1,46.7-133.1,104-133.1
			S-158.4-2059.7-158.4-1992.3z"/>
		<path fill="#E6E6E6" d="M-169.1-2025.2c0,3.1,0.8,6.9,0.8,9.9c0,68.1-51.3,112.5-114,112.5c-21.4,0-42.1-5.4-58.9-15.3
			c18.4,17.6,42.8,27.5,70.4,27.5c57.4,0,104-44.4,104-112.5C-167.5-2009.9-168.3-2017.6-169.1-2025.2z"/>
		<path fill="#FFFFFF" d="M-342-1968.6c0-68.1,46.7-133.1,104-133.1c12.2,0,24.5,3.1,35.2,8.4c-16.1-13.8-35.2-22.9-56.6-22.9
			c-57.4,0-104,65.8-104,133.1c0,48.2,23.7,84.2,58.1,101C-327.4-1901.3-342-1931.9-342-1968.6z"/>
		<path fill="#8C6239" d="M-262.4-1865.3c-68.9,0-111.7-53.5-111.7-127c0-78.8,48.2-133.1,111.7-133.1s111.7,54.3,111.7,133.1
			C-150.7-1918.1-193.5-1865.3-262.4-1865.3z M-262.4-2110.9c-46.7,0-89.5,56.6-89.5,118.6c0,56.6,37.5,97.2,89.5,97.2
			s89.5-40.5,89.5-97.2C-172.9-2054.3-215.7-2110.9-262.4-2110.9z"/>
		<g>
			<path fill="#744D28" d="M-186.7-2091.8c19.9,23.7,31.4,56.6,31.4,95.6c0,73.4-42.8,127-111.7,127c-32.9,0-58.9-12.2-78-32.1
				c19.1,22.9,47.4,36.7,81.9,36.7c68.8,0,111.7-53.5,111.7-127C-150.7-2033.6-164.5-2068.1-186.7-2091.8z"/>
			<path fill="#744D28" d="M-266.2-2114c-46.7,0-89.5,56.6-89.5,118.6c0,29.1,9.9,54.3,27.5,71.9c-14.5-16.8-23.7-40.5-23.7-67.3
				c0-62,42.8-118.6,89.5-118.6c19.9,0,38.2,9.9,53.5,26C-224.9-2102.5-245.6-2114-266.2-2114z"/>
		</g>
		<g>
			<path fill="#AA8561" d="M-258.6-1889.8c52,0,89.5-40.5,89.5-97.2c0-36-14.5-69.6-35.2-91.8c18.4,22.2,30.6,53.6,30.6,86.4
				c0,56.6-37.5,97.2-89.5,97.2c-25.2,0-47.4-9.9-63.5-26C-309.8-1902.1-286.1-1889.8-258.6-1889.8z"/>
			<path fill="#AA8561" d="M-370.3-1987c0-78.8,48.2-133.1,111.7-133.1c30.6,0,56.6,12.2,76.5,33.7c-19.9-24.5-49-39-81.1-39
				c-63.5,0-111.7,54.3-111.7,133.1c0,38.3,11.5,71.1,32.9,94.1C-360.3-1920.4-370.3-1951.8-370.3-1987z"/>
		</g>
		<circle cx="-260.1" cy="-1998.4" r="12.2"/>
		<path fill="#F6F3F0" d="M15.3-2122.4c-52,0-99.5,62.7-99.5,130.8c0,62,42.1,107.1,99.5,107.1s99.4-45.1,99.4-107.1
			C114.8-2060.4,67.3-2122.4,15.3-2122.4z"/>
		<path fill="#FFFFFF" d="M-62-1964c0-68.8,47.4-130.8,99.4-130.8c19.1,0,38.3,8.4,54.3,22.9c-18.4-26.8-44.4-44.4-71.9-44.4
			c-52,0-99.4,62.7-99.4,130.8c0,35.2,13.8,65,36,84.2C-55.1-1918.1-62-1939.5-62-1964z"/>
		<path fill="#E6E6E6" d="M84.9-2068.8c7.7,17.6,12.2,38.3,12.2,58.9c0,62-43.6,107.1-104,107.1c-19.9,0-37.5-4.6-52.8-13.8
			c16.1,13,36.7,19.9,59.7,19.9c57.4,0,99.5-45.1,99.5-107.1C100.2-2026.8,94.1-2048.9,84.9-2068.8z"/>
		<path fill="#333333" d="M15.3-1873c-66.6,0-107.1-52-107.1-123.2c0-78,45.9-130.8,107.1-130.8s107.1,52.8,107.1,130.8
			C122.4-1925,81.9-1873,15.3-1873z M15.3-2110.9c-42.8,0-83.4,55.8-83.4,114.7c0,53.6,34.4,91,83.4,91s83.4-37.5,83.4-91
			C98.7-2055.1,58.1-2110.9,15.3-2110.9z"/>
		<g>
			<path d="M-45.1-1931.9c-14.5-16.1-22.9-39-22.9-65.8c0-58.9,40.5-114.8,83.4-114.8c15.3,0,29.8,6.9,42.8,19.1
				c-13.8-15.3-31.4-24.5-49-24.5c-42.8,0-83.4,55.8-83.4,114.8C-74.2-1972.4-63.5-1948-45.1-1931.9z"/>
			<path d="M81.9-2101.7c21.4,22.9,34.4,57.4,34.4,99.5c0,71.9-40.5,123.2-107.1,123.2c-28.3,0-52-9.2-69.6-25.2
				c18.4,19.9,43.6,31.4,75,31.4c66.6,0,107.1-52,107.1-123.2C121.6-2042.8,106.3-2078.8,81.9-2101.7z"/>
		</g>
		<g>
			<path fill="#535353" d="M19.1-1900.5c49,0,83.4-37.5,83.4-91c0-31.4-11.5-61.2-28.3-82.6c14.5,21.4,24.5,49,24.5,78
				c0,53.6-34.4,91-83.4,91c-26,0-48.2-10.7-62.7-29.1C-32.9-1913.5-9.2-1900.5,19.1-1900.5z"/>
			<path fill="#535353" d="M-88-1992.3c0-78,45.9-130.8,107.1-130.8c32.1,0,60.4,14.5,79.6,39.8c-19.1-28.3-49-45.1-83.4-45.1
				c-61.2,0-107.1,52.8-107.1,130.8c0,33.7,9.2,63.5,26,84.9C-80.3-1933.4-88-1961-88-1992.3z"/>
		</g>
		<circle cx="17.6" cy="-2003" r="12.2"/>
	</g>
	<g id="眼睛7" display="inline">
		<path fill="#F6F3F0" d="M-289.9-1982.4c38.3-2.3,70.4,8.4,92.6,35.2c5.4,6.1,13,0,9.9-7.7c-16.1-42.1-49.7-89.5-114-91.8
			c-57.4-2.3-89.5,33.7-104.8,75c-8.4,21.4,13.8,42.1,29.1,26.8C-354.2-1967.1-322.8-1980.9-289.9-1982.4z"/>
		<path fill="#E6E6E6" d="M-190.5-1959.4c-5.4-13-12.2-26.8-20.7-39.8c6.9,11.5,13,23,16.8,34.4c3.1,7.7-5.4,13.8-9.9,7.7
			c-22.2-26-54.3-36.7-92.6-35.2c-33.7,1.5-65,15.3-87.2,36.7c-8.4,7.7-18.4,6.1-24.5-0.8c5.4,11.5,18.4,16.8,28.3,6.9
			c22.2-21.4,53.6-35.2,87.2-36.7c38.3-2.3,70.4,8.4,92.6,35.2C-195.8-1945.7-188.2-1951.8-190.5-1959.4z"/>
		<path fill="#FFFFFF" d="M-394.7-1959.4c15.3-41.3,47.4-78,104.8-75c23.7,0.8,42.8,8.4,58.9,18.4c-17.6-15.3-40.5-26-70.4-26.8
			c-57.4-2.3-89.5,33.7-104.8,75c-5.4,14.5,3.1,29.1,13.8,31.4C-396.3-1942.6-397.8-1951-394.7-1959.4z"/>
		<path fill="#8C6239" d="M-388.6-1932.7c-4.6,0-9.2-1.5-13-3.8c-9.9-6.9-17.6-22.2-11.5-38.3c19.9-54.3,60.4-82.6,112.5-80.3
			c55.1,2.3,97.9,36.7,120.9,97.2c3.1,6.9,0,15.3-6.1,19.1c-6.1,3.1-13,2.3-16.8-3.1c-19.1-22.9-49-34.4-86.4-32.1l0,0
			c-30.6,1.5-61.2,14.5-82.6,35.2C-376.4-1935-382.5-1932.7-388.6-1932.7z M-306.8-2039.8c-54.3,0-79.6,38.3-91.8,70.4
			c-3.1,8.4,0,16.8,5.4,19.9c3.1,1.5,6.9,3.1,11.5-1.5c23.7-23,57.4-37.5,92.6-39c39-2.3,71.1,9.2,93.3,32.1
			c-15.3-37.5-45.9-78.8-104.8-81.9C-303.7-2039.8-305.2-2039.8-306.8-2039.8z"/>
		<g>
			<path fill="#744D28" d="M-399.3-1969.4c12.2-32.1,38.3-70.4,91.8-70.4c1.5,0,3.8,0,5.4,0c57.4,2.3,87.2,42.1,103.3,78l0,0
				c-15.3-37.5-45.9-78.8-104.8-81.9c-1.5,0-3.8,0-5.4,0c-54.3,0-79.6,38.3-91.8,70.4c-2.3,5.4-1.5,10.7,0.8,14.5
				C-400.9-1961-400.9-1965.6-399.3-1969.4z"/>
			<path fill="#744D28" d="M-179.8-1957.9c0-0.8-0.8-1.5-1.5-3.1c2.3,6.9,0,14.5-6.1,18.4c-6.1,3.1-13,2.3-16.8-3.1
				c-19.1-23-49-34.4-86.4-32.1c-30.6,1.5-61.2,14.5-82.6,35.2c-5.4,4.6-10.7,6.9-16.8,6.9c-4.6,0-9.2-1.5-13-3.8
				c-4.6-3.1-8.4-7.7-10.7-13c2.3,6.9,6.9,13,12.2,16.1c3.8,3.1,8.4,3.8,13,3.8c6.1,0,12.2-2.3,16.8-6.9
				c21.4-20.7,51.3-33.7,82.6-35.2c37.5-2.3,67.3,9.2,86.4,32.1c4.6,5.4,11.5,6.9,16.8,3.1C-179.8-1943.4-177.5-1951-179.8-1957.9z"
				/>
		</g>
		<g>
			<path fill="#AA8561" d="M-390.9-1945.7c3.1,1.5,6.9,3.1,11.5-1.5c23.7-22.9,57.4-37.5,92.6-39c39-2.3,71.1,9.2,93.3,32.1
				c-6.1-14.5-14.5-29.8-26-43.6c9.9,12.2,17.6,26,22.9,39.8c-22.2-22.9-54.3-33.7-93.3-32.1c-34.4,1.5-68.1,16.1-92.6,39
				c-4.6,4.6-8.4,3.1-11.5,1.5c-0.8,0-0.8-0.8-0.8-0.8C-394-1948.7-392.4-1947.2-390.9-1945.7z"/>
			<path fill="#AA8561" d="M-410-1971.7c19.9-54.3,60.4-82.6,112.5-80.3c36.7,1.5,67.3,17.6,91,45.1c-23.7-30.6-56.6-47.4-94.1-49
				c-52-2.3-92.6,26-112.5,80.3c-5.4,13.8-0.8,26.8,6.9,34.4C-412.3-1948.7-414.6-1959.4-410-1971.7z"/>
		</g>
		<path d="M-372.6-2014.5c5.4,10.7,17.6,16.1,26,9.9c9.2-5.4,11.5-19.9,6.9-30.6C-350.4-2032.1-363.4-2026.8-372.6-2014.5z"/>
		<path fill="#F6F3F0" d="M42.1-1983.9c-38.3-2.3-70.4,8.4-92.6,35.2c-5.4,6.1-13,0-9.9-7.7c16.1-42.1,49.7-89.5,114-91.8
			c57.4-2.3,89.5,33.7,104.8,75c8.4,21.4-13.8,42.1-29.1,26.8C107.1-1968.6,75-1982.4,42.1-1983.9z"/>
		<path fill="#E6E6E6" d="M162.2-1974.7c-0.8-3.1-2.3-5.4-3.1-8.4c2.3,19.1-16.8,34.4-30.6,20.7c-22.2-21.4-53.5-35.2-87.2-36.7
			c-38.3-2.3-70.4,8.4-92.6,35.2c-0.8,1.5-2.3,2.3-3.8,2.3c-0.8,1.5-1.5,3.1-1.5,4.6c-3.1,7.7,5.4,13.8,9.9,7.7
			c22.2-26,54.3-36.7,92.6-35.2c33.7,1.5,65,15.3,87.2,36.7C148.4-1932.7,170.6-1952.6,162.2-1974.7z"/>
		<path fill="#FFFFFF" d="M-47.4-1951.8c17.6-39,50.5-78.8,110.2-81.9c43.6-2.3,71.9,18.4,90.3,45.9c-16.8-35.2-48.2-63.5-98.7-61.2
			c-65,3.1-97.9,50.5-114,91.8c-3.1,7.6,5.4,13.8,9.9,7.6C-49.7-1950.3-49-1951-47.4-1951.8z"/>
		<path fill="#333333" d="M140.8-1934.2c-6.1,0-12.2-2.3-16.8-6.9c-21.4-20.7-51.3-33.7-82.6-35.2l0,0c-37.5-2.3-67.3,9.2-86.4,32.1
			c-4.6,5.4-11.5,6.9-16.8,3.1c-6.1-3.8-8.4-11.5-6.1-19.1c23-60.4,65.8-94.9,120.9-97.2c52.8-2.3,92.6,26,112.5,80.3
			c6.1,16.1-0.8,31.4-11.5,38.3C149.9-1935,145.4-1934.2,140.8-1934.2z M32.9-1991.6c3.1,0,6.1,0,9.2,0l0,0
			c34.4,1.5,68.1,16.1,92.6,39c4.6,4.6,8.4,3.1,11.5,1.5c5.4-3.1,8.4-11.5,5.4-19.9c-12.2-33.7-39.8-72.7-97.2-70.4
			c-58.9,2.3-89.5,45.1-105.6,81.9C-30.6-1980.9-1.5-1991.6,32.9-1991.6z"/>
		<g>
			<path d="M53.5-2040.5c58.1-2.3,84.9,36.7,97.2,70.4v0.8c0-2.3,0-4.6-1.5-6.9c-12.2-33.7-39.8-72.7-97.2-70.4
				c-58.9,2.3-89.5,45.1-105.6,81.9c2.3-2.3,3.8-3.8,6.1-6.1C-29.8-2003.8,0.8-2038.2,53.5-2040.5z"/>
			<path d="M166.8-1971.7c0.8,12.2-5.4,23-13,28.3c-3.8,3.1-8.4,3.8-13,3.8c-6.1,0-12.2-2.3-16.8-6.9
				c-21.4-20.7-51.3-33.7-82.6-35.2c-37.5-2.3-67.3,9.2-86.4,32.1c-4.6,5.4-11.5,6.9-16.8,3.1c-3.1-1.5-5.4-4.6-6.1-7.6
				c0,5.4,2.3,10.7,6.9,13c6.1,3.1,13,2.3,16.8-3.1c19.1-22.9,49-34.4,86.4-32.1c30.6,1.5,61.2,14.5,82.6,35.2
				c5.4,4.6,10.7,6.9,16.8,6.9c4.6,0,9.2-1.5,13-3.8C163.7-1943.4,170.6-1957.1,166.8-1971.7z"/>
		</g>
		<g>
			<path fill="#535353" d="M42.1-1990.8c-3.1,0-6.1,0-9.2,0c-29.8,0-55.8,8.4-75.7,24.5c-1.5,3.8-3.8,7.7-5.4,11.5
				c20.7-21.4,49.7-32.1,84.9-32.1c3.1,0,6.1,0,9.2,0c29.8,1.5,58.9,12.2,81.9,30.6C104.8-1977,74.2-1989.3,42.1-1990.8z"/>
			<path fill="#535353" d="M120.1-2018.3c15.3,13.8,25.2,31.4,31.4,48.2c3.1,8.4,0,16.8-5.4,19.9c-2.3,1.5-6.1,2.3-9.9,0
				c0.8,0.8,1.5,0.8,2.3,1.5c4.6,4.6,8.4,3.1,11.5,1.5c5.4-3.1,8.4-11.5,5.4-19.9C148.4-1985.4,137.7-2004.6,120.1-2018.3z"/>
			<path fill="#535353" d="M-64.3-1956.4c22.9-60.4,65.8-94.9,120.9-97.2c28.3-1.5,52.8,6.9,72.7,22.2c-20.7-18.4-46.7-26.8-76.5-26
				c-55.1,2.3-97.9,36.7-120.9,97.2c-3.1,6.9,0,15.3,6.1,19.1l0,0C-65-1944.1-66.6-1950.3-64.3-1956.4z"/>
			<path fill="#535353" d="M118.6-1945.7c1.5,1.5,3.8,3.1,5.4,4.6c0.8,0.8,1.5,0.8,2.3,1.5C123.9-1941.8,120.9-1943.4,118.6-1945.7z
				"/>
		</g>
		<path d="M124.7-2016c-5.4,10.7-17.6,16.1-26,9.9c-9.2-5.4-11.5-19.9-6.9-30.6C102.5-2032.9,116.3-2028.3,124.7-2016z"/>
	</g>
</g>
<g id="嘴巴" display="none">
	<g id="嘴巴1" display="inline">
		<g>
			<g>
				<path fill="#8C6239" d="M309.1,444.2c-14.5,0-28.3-3.8-32.9-8.4c-6.9-6.9-3.1-17.6,0.8-25.2c-6.9-6.9-17.6-19.9-18.4-32.9
					c0-6.9,2.3-12.2,6.9-16.8c14.5-14.5,47.4-13.8,65-10.7c13,2.3,20.7,6.9,23,13c5.4,13-5.4,32.1-13,42.8c3.8,3.8,8.4,9.2,8.4,15.3
					c0,4.6-1.5,10.7-9.2,16.1C331.2,441.9,319.8,444.2,309.1,444.2z M286.9,425.1c6.1,3.1,31.4,6.9,43.6-1.5
					c2.3-1.5,2.3-2.3,2.3-2.3c0-1.5-3.8-5.4-7.6-7.6l-7.6-4.6l5.4-6.9c9.2-11.5,17.6-28.3,15.3-33.7c-1.5-1.5-11.5-5.4-27.5-5.4
					c-16.1-0.8-29.8,3.1-35.2,7.6c-1.5,1.5-2.3,3.1-2.3,5.4c0,8.4,11.5,20.7,17.6,26l5.4,4.6l-3.8,5.4
					C289.9,417.4,287.6,422.8,286.9,425.1z"/>
			</g>
			<g>
				<path fill="#744D28" d="M283.8,423.5c0.8,0.8,1.5,0.8,3.1,1.5c0.8-3.1,3.1-7.6,5.4-12.2l3.8-5.4l-5.4-4.6
					c-6.9-5.4-17.6-17.6-17.6-26c0-2.3,0.8-3.8,2.3-5.4c5.4-5.4,19.1-8.4,35.2-7.6c11.5,0,19.9,2.3,24.5,3.8l0,0
					c-1.5-1.5-11.5-5.4-27.5-5.4c-16.1-0.8-29.8,3.1-35.2,7.6c-1.5,1.5-2.3,3.1-2.3,5.4c0,8.4,11.5,20.7,17.6,26l5.4,4.6l-3.8,5.4
					C286.9,415.9,284.6,421.2,283.8,423.5z"/>
				<path fill="#744D28" d="M352.7,363.1c-1.5-3.8-4.6-6.9-9.9-9.2c3.1,2.3,5.4,4.6,6.9,6.9c5.4,13-5.4,32.1-13,42.8
					c3.8,3.8,8.4,9.2,8.4,15.3c0,4.6-1.5,10.7-9.2,16.1c-7.6,5.4-19.1,7.6-30.6,7.6c-10.7,0-21.4-2.3-28.3-5.4
					c6.1,3.8,18.4,6.9,31.4,6.9c10.7,0,22.2-2.3,30.6-7.6c7.7-5.4,9.2-11.5,9.2-16.1c0-6.1-4.6-11.5-8.4-15.3
					C347.3,395.2,358,376.1,352.7,363.1z"/>
			</g>
			<path fill="#AA8561" d="M277.7,437.3c-6.9-6.9-3.1-17.6,0.8-25.2c-6.9-6.9-17.6-19.9-18.4-32.9c0-6.9,2.3-12.2,6.9-16.8
				c14.5-14.5,47.4-13.8,65-10.7c6.9,1.5,12.2,3.1,16.1,5.4c-3.8-3.1-9.9-5.4-18.4-7.6c-17.6-3.8-50.5-3.8-65,10.7
				c-4.6,4.6-6.9,10.7-6.9,16.8c0.8,13,11.5,26,18.4,32.9c-3.8,7.6-7.6,18.4-0.8,25.2C276.2,436.5,276.9,437.3,277.7,437.3
				C278.5,438.1,277.7,437.3,277.7,437.3z"/>
			<path d="M298.4,406.7c0,0,7.6-28.3,19.1-0.8C317.5,405.9,309.8,434.3,298.4,406.7z"/>
		</g>
	</g>
	<g id="嘴巴2" display="inline">
		<g>
			<path fill="#8C6239" d="M220.3,416.7c0,0,150.7-15.3,163.7-41.3C384,375.3,446.8,415.1,220.3,416.7z"/>
			<path fill="#744D28" d="M384,375.3L384,375.3c7.7,6.9,36.7,38.3-155.3,40.5c-5.4,0.8-8.4,0.8-8.4,0.8
				C446.8,415.9,384,375.3,384,375.3z"/>
			<path fill="#AA8561" d="M385.6,376.9c0,0,1.5,1.5,3.8,3.1c-2.3-3.1-5.4-5.4-5.4-5.4c-13.8,26-163.7,41.3-163.7,41.3
				c6.9,0,13.8,0,19.9,0C280.8,411.3,374.9,397.5,385.6,376.9z"/>
		</g>
	</g>
	<g id="嘴巴3" display="inline">
		<g>
			<path fill="#F6F3F0" d="M391.7,362.3h-0.8c-4.6-24.5-26-42.1-52-42.1c-13,0-24.5,4.6-33.7,12.2c-4.6-3.1-9.9-5.4-15.3-5.4
				c-9.9,0-19.1,6.1-23,14.5c-3.1-0.8-6.9-1.5-9.9-1.5c-23.7,0-42.8,18.4-43.6,42.1l0,0c-18.4,0-32.9,14.5-32.9,32.9
				s14.5,32.9,32.9,32.9c2.3,0,5.4,0,7.7-0.8c6.1,6.9,15.3,11.5,25.2,11.5c4.6,0,8.4-0.8,12.2-2.3c7.6,9.2,19.1,14.5,32.1,14.5
				c13.8,0,26-6.9,34.4-16.8c4.6,2.3,9.2,3.8,14.5,3.8c12.2,0,23-6.9,28.3-17.6c6.9,4.6,15.3,7.6,24.5,7.6
				c23.7,0,42.8-19.1,42.8-42.8C434.5,382.2,415.4,362.3,391.7,362.3z"/>
			<g>
				<path fill="#FFFFFF" d="M419.2,389.1h0.8c3.1,0,6.1,0,9.2,0.8c-3.8-9.9-11.5-17.6-20.7-22.2
					C413.9,373.8,417.7,381.5,419.2,389.1z"/>
				<path fill="#FFFFFF" d="M208.1,441.9c0-18.4,14.5-32.9,32.9-32.9l0,0c0.8-23.7,19.9-42.1,43.6-42.1c3.8,0,6.9,0.8,9.9,1.5
					c3.8-8.4,13-14.5,23-14.5c6.1,0,10.7,2.3,15.3,5.4c9.2-7.6,20.7-12.2,33.7-12.2c6.1,0,11.5,0.8,16.1,3.1
					c-9.2-16.8-26.8-29.1-46.7-29.1c-13,0-24.5,4.6-33.7,12.2c-4.6-3.1-9.9-5.4-15.3-5.4c-9.9,0-19.1,6.1-22.9,14.5
					c-3.1-0.8-6.9-1.5-9.9-1.5c-23.7,0-42.8,18.4-43.6,42.1l0,0c-18.4,0-32.9,14.5-32.9,32.9c0,17.6,13.8,32.1,31.4,32.9
					C208.1,446.5,208.1,444.2,208.1,441.9z"/>
			</g>
			<path fill="#E6E6E6" d="M414.6,370c5.4,6.9,9.2,16.1,9.2,26c0,23.7-19.1,42.8-42.8,42.8c-9.2,0-17.6-3.1-24.5-7.6
				c-5.4,10.7-16.8,18.4-29.1,18.4c-5.4,0-10.7-1.5-14.5-3.8c-7.6,9.9-19.9,16.8-34.4,16.8c-13,0-24.5-5.4-32.1-14.5
				c-3.8,1.5-7.7,2.3-12.2,2.3c-3.1,0-6.1,0.8-9.9,2.3c5.4,3.1,11.5,5.4,17.6,5.4c4.6,0,8.4-0.8,12.2-2.3
				c7.6,9.2,19.1,14.5,32.1,14.5c13.8,0,26-6.9,34.4-16.8c4.6,2.3,9.2,3.8,14.5,3.8c12.2,0,22.9-6.9,28.3-17.6
				c6.9,4.6,15.3,7.6,24.5,7.6c23.7,0,42.8-19.1,42.8-42.8C431.5,389.9,424.6,377.6,414.6,370z"/>
		</g>
	</g>
	<g id="嘴巴4" display="inline">
		<g>
			<path fill="#8C6239" d="M443.7,323.3c17.6,127.8-23,295.3-98.7,305.2c-75.7,10.7-159.1-140-176.7-267.7s37.5-185.9,114-195.8
				C358.8,155,426.1,194.8,443.7,323.3z"/>
			<path fill="#744D28" d="M442.9,322.6c-9.9-74.2-37.5-119.3-73.4-142.3c32.9,23.7,58.1,67.3,68.1,138.5
				c17.6,127.8-23,295.3-98.7,305.2c-15.3,2.3-31.4-2.3-46.7-12.2c17.6,12.2,35.2,18.4,52.8,16.1
				C420.8,617.9,460.5,451.1,442.9,322.6z"/>
			<path fill="#AA8561" d="M175.2,366.9c-17.6-127.8,37.5-185.1,114-195.8c36.7-5.4,71.1,2.3,99.5,24.5
				c-29.1-27.5-67.3-36.7-107.1-31.4c-75.7,10.7-130.8,68.1-114,195.8c13,94.9,62,201.2,117,246.3
				C232.6,558.2,187.4,457.2,175.2,366.9z"/>
			<path fill="#333333" d="M425.3,341.7C440.6,454.1,407,601,342,609.4S205.1,486.2,189.8,373.8s31.4-162.9,97.2-171.4
				C352.7,194,410,229.2,425.3,341.7z"/>
			<path fill="#EC5A5A" d="M319.8,426.6c-9.9,0-28.3,26.8-28.3,35.2c0,8.4,6.9,15.3,15.3,15.3c6.1,0,10.7-3.1,13-8.4
				c2.3,4.6,7.7,8.4,13,8.4c8.4,0,15.3-6.9,15.3-15.3C348.1,454.1,329.7,427.4,319.8,426.6z"/>
		</g>
	</g>
	<g id="嘴巴5" display="inline">
		<g>
			<g>
				<g>
					<path fill="#8C6239" d="M224.9,392.2c-23.7,0-36.7-22.2-37.5-23.7c-2.3-3.8-0.8-8.4,3.1-10.7c3.8-2.3,8.4-0.8,10.7,3.1
						c0.8,0.8,10.7,18.4,27.5,15.3c3.8-0.8,8.4-1.5,13.8-3.1c27.5-6.9,73.4-19.1,142.3,3.8c5.4-0.8,22.2-3.1,25.2-17.6
						c0.8-3.8,4.6-6.9,9.2-6.1c3.8,0.8,6.9,5.4,6.1,9.2c-6.1,26-34.4,29.8-39.8,29.8c-1.5,0-3.1,0-3.8-0.8
						c-65-21.4-108.6-10.7-134.6-3.8c-6.1,1.5-11.5,3.1-15.3,3.8C228.7,392.2,227.2,392.2,224.9,392.2z"/>
				</g>
				<g>
					<g>
						<path fill="#FFFFFF" d="M267,379.2c0,0-25.2,15.3-20.7,57.4"/>
					</g>
					<g>
						<path fill="#8C6239" d="M248.6,438.8c-1.5,0-3.1-1.5-3.8-3.1c-4.6-43.6,21.4-60.4,22.2-61.2c1.5-0.8,3.8-0.8,4.6,1.5
							c0.8,1.5,0,3.8-1.5,4.6C244,403.6,250.9,438.8,248.6,438.8L248.6,438.8z"/>
					</g>
				</g>
				<g>
					<g>
						<path fill="#FFFFFF" d="M283.1,379.2c0,0-6.9,16.1-5.4,34.4"/>
					</g>
					<g>
						<path fill="#8C6239" d="M276.9,417.4c-1.5,0-3.1-1.5-3.8-3.1c-1.5-18.4,5.4-35.2,6.1-36c0.8-1.5,3.1-2.3,4.6-1.5
							s2.3,3.1,1.5,4.6C286.1,380.7,273.1,405.9,276.9,417.4C277.7,417.4,276.9,417.4,276.9,417.4z"/>
					</g>
				</g>
				<g>
					<g>
						<path fill="#FFFFFF" d="M319,375.3c0,0,16.1,13.8,19.9,47.4"/>
					</g>
					<g>
						<path fill="#8C6239" d="M338.9,426.6c-4.6-26.8-22.2-47.4-22.9-48.2c-1.5-1.5-1.5-3.8,0-4.6c1.5-1.5,3.8-1.5,4.6,0
							c0.8,0.8,16.8,15.3,21.4,49C342.7,424.3,341.2,425.8,338.9,426.6L338.9,426.6z"/>
					</g>
				</g>
				<g>
					<g>
						<path fill="#8C6239" d="M374.9,407.5C374.1,407.5,374.1,407.5,374.9,407.5c-2.3,0,3.1-4.6-13-23.7c-1.5-1.5-0.8-3.8,0.8-4.6
							c1.5-1.5,3.8-0.8,4.6,0.8c1.5,1.5,11.5,15.3,10.7,24.5C377.9,405.9,376.4,407.5,374.9,407.5z"/>
					</g>
				</g>
			</g>
			<g>
				<path fill="#744D28" d="M275.4,379.9c-1.5,0-3.1,0.8-4.6,0.8c-0.8,0.8-1.5,1.5-2.3,2.3c2.3-0.8,4.6-0.8,6.9-1.5
					C275.4,381.5,275.4,380.7,275.4,379.9z"/>
				<path fill="#744D28" d="M202.7,363.9c-0.8-1.5-1.5-2.3-1.5-2.3c0-0.8-0.8-0.8-0.8-1.5C200.4,360.8,201.2,362.3,202.7,363.9z"/>
				<path fill="#744D28" d="M361.8,385.3c-13-3.1-24.5-5.4-36-6.9c0,0.8,0.8,0.8,0.8,1.5c10.7,0.8,23,3.1,35.2,6.1
					C361.8,386.1,361.8,386.1,361.8,385.3z"/>
				<path fill="#744D28" d="M423,355.5c0.8,1.5,1.5,3.1,0.8,5.4c-2.3,9.9-7.7,16.8-13.8,21.4c-10.7,7.6-23,9.2-26.8,9.2
					c-1.5,0-3.1,0-3.8-0.8c-1.5-0.8-3.1-0.8-5.4-1.5v0.8c2.3,0.8,4.6,1.5,7.6,2.3c1.5,0.8,3.1,0.8,3.8,0.8
					c5.4-0.8,34.4-3.8,39.8-29.8C426.1,360,424.6,357,423,355.5z"/>
				<path fill="#744D28" d="M314.4,377.6c-10.7-0.8-19.9,0-28.3,0.8c0,0.8,0,1.5,0,1.5c9.2-0.8,19.1-1.5,29.8-0.8
					C315.2,378.4,315.2,378.4,314.4,377.6z"/>
				<path fill="#744D28" d="M251.7,386.8c0.8-0.8,0.8-1.5,1.5-2.3c-3.1,0.8-6.1,1.5-9.2,2.3c-6.1,1.5-11.5,3.1-15.3,3.8
					c-2.3,0-3.8,0.8-6.1,0.8c-6.1,0-12.2-1.5-16.8-3.8c5.4,3.1,12.2,5.4,19.9,5.4c2.3,0,3.8,0,6.1-0.8c4.6-0.8,9.9-2.3,15.3-3.8
					C247.9,387.6,250.2,387.6,251.7,386.8z"/>
			</g>
			<g>
				<path fill="#AA8561" d="M230.3,378.4c3.8-0.8,8.4-1.5,13.8-3.1c27.5-6.9,73.4-19.1,142.3,3.8c5.4-0.8,22.2-3.1,25.2-17.6
					c0.8-3.8,4.6-6.9,9.2-6.1c0.8,0,0.8,0.8,1.5,0.8c-0.8-0.8-2.3-1.5-3.8-2.3c-3.8-0.8-8.4,1.5-9.2,6.1
					c-3.1,14.5-19.9,17.6-25.2,17.6c-68.8-22.9-114.8-10.7-142.3-3.8c-5.4,1.5-10.7,3.1-13.8,3.1c-6.1,0.8-11.5-0.8-16.1-3.1
					C217.3,376.9,223.4,379.2,230.3,378.4z"/>
				<path fill="#AA8561" d="M189.7,370c-2.3-3.8-0.8-8.4,3.1-10.7c2.3-1.5,4.6-1.5,6.9,0c-2.3-2.3-6.1-3.1-9.2-1.5
					c-3.8,2.3-4.6,6.9-3.1,10.7c0.8,0.8,6.1,10.7,16.8,17.6C195.1,379.2,189.7,370.8,189.7,370z"/>
			</g>
		</g>
	</g>
	<g id="嘴巴6" display="inline">
		<g>
			<path fill="#EC5A5A" d="M370.3,536.8H241.7c-4.6,0-7.6-3.1-7.6-7.6V308c0-29.1,23.7-53.5,53.5-53.5h37.5
				c29.1,0,53.6,23.7,53.6,53.5v221.1C377.9,533.7,374.9,536.8,370.3,536.8z"/>
			<path fill="#8C6239" d="M370.3,544.4H241.7c-8.4,0-15.3-6.9-15.3-15.3V308c0-33.7,27.5-61.2,61.2-61.2h37.5
				c33.7,0,61.2,27.5,61.2,61.2v221.1C385.6,537.5,378.7,544.4,370.3,544.4z M286.9,262.9c-25.2,0-45.9,20.7-45.9,45.9v221.1h129.3
				V308.8c0-25.2-20.7-45.9-45.9-45.9H286.9z"/>
			<g>
				<path fill="#AA8561" d="M370.3,308.8v221.1H250.2v3.8h129.3V312.6c0-20.7-13-37.5-31.4-43.6
					C361.1,276.7,370.3,291.2,370.3,308.8z"/>
				<path fill="#AA8561" d="M234.9,533.7V312.6c0-33.7,27.5-61.2,61.2-61.2h37.5c6.9,0,14.5,1.5,20.7,3.8
					c-8.4-4.6-18.4-7.6-29.1-7.6h-37.5c-33.7,0-61.2,27.5-61.2,61.2v221.1c0,7.7,6.1,14.5,13.8,15.3
					C236.4,542.1,234.9,538.3,234.9,533.7z"/>
			</g>
		</g>
	</g>
	<g id="嘴巴7" display="inline">
		<g>
			<path fill="#EC5A5A" d="M310.6,389.9c-68.1,0-120.9-26-150.7-65c-5.4-6.9-16.8-3.8-17.6,5.4c-0.8,3.1-0.8,6.9-0.8,9.9
				c0,62.7,73.4,101.7,164.5,101.7s164.5-38.3,164.5-101l0,0c0-8.4-10.7-13-16.8-6.9C422.3,367.7,373.3,389.9,310.6,389.9z"/>
			<path fill="#8C6239" d="M306,449.6c-101,0-172.1-45.1-172.1-108.6c0-3.8,0-7.6,0.8-10.7c0.8-6.9,6.1-13,13-15.3
				c6.9-1.5,13.8,0.8,18.4,6.1c30.6,39,83.4,62,144.6,62c55.8,0,104.8-19.1,137.7-53.5c4.6-5.4,12.2-6.9,19.1-3.8
				c6.9,2.3,10.7,9.2,10.7,16.1C478.1,404.4,407,449.6,306,449.6z M152.2,328.7L152.2,328.7c-1.5,0-2.3,0.8-2.3,2.3
				c-0.8,3.1-0.8,6.1-0.8,9.2c0,55.1,64.3,94.1,156.8,94.1S462.7,396,462.7,341c0-0.8-0.8-1.5-1.5-2.3c-0.8,0-1.5,0-2.3,0.8
				c-36,37.5-88.7,58.9-149.2,58.9c-65.8,0-123.2-24.5-156.8-68.1C153.8,329.4,153,328.7,152.2,328.7z"/>
			<g>
				<path fill="#AA8561" d="M309.1,441.1c92.6,0,156.8-38.3,156.8-93.3c0-0.8-0.8-1.5-1.5-2.3c-0.8,0-1.5,0-2.3,0.8
					c-4.6,52-67.3,87.2-156.1,87.2c-76.5,0-133.9-26.8-151.5-66.6C168.3,411.3,228,441.1,309.1,441.1z"/>
				<path fill="#AA8561" d="M136.9,347.8c0-3.8,0-7.7,0.8-10.7c0.8-6.9,6.1-13,13-15.3c6.9-1.5,13.8,0.8,18.4,6.1
					c30.6,39,83.4,62,144.6,62c55.8,0,104.8-19.1,137.7-53.5c4.6-5.4,12.2-6.9,19.1-3.8c3.1,1.5,6.1,3.1,7.6,6.1
					c-0.8-6.1-4.6-11.5-10.7-13.8c-6.9-2.3-13.8-0.8-19.1,3.8c-32.9,34.4-81.9,53.5-137.7,53.5c-61.2,0-114-22.2-144.6-62
					c-4.6-5.4-11.5-7.6-18.4-6.1c-6.9,2.3-12.2,7.6-13,15.3c-0.8,3.8-0.8,7.6-0.8,10.7c0,12.2,2.3,23.7,7.7,34.4
					C138.5,366.2,136.9,357,136.9,347.8z"/>
			</g>
			<g>
				<path fill="#29ABE2" d="M175.9,398.3c0,0,43.6,37.5,126.2,37.5S164.5,362.3,175.9,398.3z"/>
			</g>
			<g>
				<path fill="#29ABE2" d="M211.1,462.6c0,9.2-6.1,16.1-14.5,16.1s-14.5-6.9-14.5-16.1s6.1-54.3,14.5-54.3
					C205,408.2,211.1,452.6,211.1,462.6z"/>
			</g>
			<path fill="#4CC7F2" d="M189.7,468.7c0-9.2,6.1-49.7,13-53.6c-1.5-4.6-3.8-6.9-5.4-6.9c-7.6,0-14.5,45.1-14.5,54.3
				c0,6.9,3.8,13,8.4,15.3C190.5,474.8,189.7,471.7,189.7,468.7z"/>
		</g>
	</g>
	<g id="嘴巴8" display="inline">
		<g>
			<path fill="#BC4444" d="M394.7,185.6c0-1.5-1.5-2.3-3.1-2.3c-3.8,0-13.8,1.5-26.8,2.3c-49.7,4.6-91.8,43.6-109.4,99.5
				c-29.8,95.6-63.5,240.2-16.1,299.1c3.1,3.8,8.4,2.3,9.2-3.1c3.8-21.4,12.2-66.6,16.1-65.8c5.4,0.8-0.8,4.6-2.3,56.6
				c0,2.3-2.3,34.4,2.3,31.4c5.4-3.8,10.7-9.9,16.8-19.9c2.3-3.1,6.1-2.3,7.7,1.5c0.8,5.4,2.3,7.7,3.8,8.4c3.8,0,7.6-16.8,10.7-44.4
				c0.8-9.2,3.1-18.4,6.9-26.8c2.3-6.1,4.6-13,7.6-19.9c1.5-5.4,8.4-4.6,9.2,0.8c6.1,23.7,12.2,38.3,16.1,38.3
				c6.9,0,6.1-35.2,5.4-85.7c-0.8-30.6,3.1-61.2,10.7-90.3C383.3,280.5,397.8,201.7,394.7,185.6z"/>
			<path fill="#C75656" d="M296.1,302.7c16.1-51.3,53.5-88,97.9-97.2c0.8-8.4,0.8-15.3,0-18.4c0-1.5-1.5-2.3-3.1-2.3
				c-3.8,0-13.8,1.5-26.8,2.3c-49.7,4.6-91.8,43.6-109.4,99.4c-29.8,95.6-63.5,240.2-16.1,299.1c3.1,3.8,8.4,2.3,9.2-3.1
				c2.3-12.2,5.4-32.1,9.2-46.7C251.7,465.6,274.6,371.5,296.1,302.7z"/>
			<path fill="#BC4444" d="M384,548.2c0.8,32.9-3.8,38.3-9.9,38.3s-11.5-4.6-12.2-37.5c-0.8-32.9,3.1-80.3,9.2-80.3
				S383.3,516.1,384,548.2z"/>
			<path fill="#BC4444" d="M416.9,270.5c0,13-4.6,15.3-10.7,15.3s-10.7-1.5-11.5-15.3c0-13,3.8-32.1,9.9-32.9
				C410.8,238.4,416.2,257.5,416.9,270.5z"/>
			<path fill="#BC4444" d="M337.4,598.7c0,7.6-3.1,9.2-6.1,9.2c-3.8,0-6.9-0.8-6.9-9.2c0-7.7-2.3-19.9,1.5-19.9
				C329.7,579.6,337.4,591.1,337.4,598.7z"/>
			<path fill="#BC4444" d="M218.8,388.4c-13,40.5-17.6,46.7-21.4,45.1c-3.8-0.8-4.6-8.4,8.4-49s34.4-99.4,37.5-98.7
				C247.1,287.4,231.8,347.8,218.8,388.4z"/>
		</g>
	</g>
</g>
</svg>
