<?xml version="1.0" encoding="utf-8"?>
<!-- Generator: Adobe Illustrator 18.0.0, SVG Export Plug-In . SVG Version: 6.00 Build 0)  -->
<!DOCTYPE svg PUBLIC "-//W3C//DTD SVG 1.1//EN" "http://www.w3.org/Graphics/SVG/1.1/DTD/svg11.dtd">
<svg version="1.1" id="图层_1" xmlns="http://www.w3.org/2000/svg" xmlns:xlink="http://www.w3.org/1999/xlink" x="0px" y="0px"
	 viewBox="0 0 612 792" enable-background="new 0 0 612 792" xml:space="preserve">
<g id="图层_1_1_" display="none">
	<rect x="-5814" y="-5724" display="inline" fill="#777676" width="12240" height="12240"/>
	<path display="inline" fill="#C69C6D" d="M-1307.2-1583.2"/>
</g>
<g id="身体" display="none">
	<g id="身体1" display="inline">
		<g>
			<path fill="#8C6239" d="M429.6,255.2L363.5,232l37.9,58.8c91.8,145.7,131,162.8,149.3,162.8c3.7,0,6.1-1.2,8.6-1.2
				c9.8-2.4,25.7-11,26.9-40.4C593.6,315.2,446.8,261.4,429.6,255.2z"/>
			<path fill="#744D28" d="M443.1,260.1c-6.1-2.4-11-3.7-13.5-4.9l-63.6-22c49,29.4,85.7,89.4,96.7,148.1
				c23.3,30.6,41.6,47.7,55.1,58.8c0-4.9,1.2-9.8,1.2-14.7C519,366.6,488.4,300.5,443.1,260.1z"/>
			<path fill="#8C6239" d="M346.4,507.4c0,31.8-11,57.5-42.8,57.5s-42.8-25.7-42.8-57.5s11-57.5,42.8-57.5S346.4,475.6,346.4,507.4z
				"/>
			<path fill="#333333" d="M96.7,464.5c-61.2,0-111.4,50.2-111.4,111.4h222.8C208.1,514.7,157.9,464.5,96.7,464.5z"/>
			<path d="M115.1,467c47.7,13.5,82,58.8,82,110.2h11C208.1,520.8,167.7,475.6,115.1,467z"/>
			<path fill="#C69C6D" d="M515.3,464.5c-61.2,0-111.4,50.2-111.4,111.4h224C627.9,514.7,577.7,464.5,515.3,464.5z"/>
			<path fill="#8C6239" stroke="#8C6239" stroke-width="4" stroke-miterlimit="10" d="M183.6,278.5c0,0-146.9,50.2-140.8,132.2
				S183.6,278.5,183.6,278.5z"/>
			<path fill="#744D28" d="M235,235.7l-35.5,55.1C107.7,435.2,67.3,453.5,49,453.5l0,0c2.4,0,3.7,1.2,6.1,1.2
				c18.4,0,58.8-18.4,150.6-162.8l37.9-58.8L235,235.7z"/>
			<path fill="#AA8561" d="M31.8,419.3c-6.1-97.9,140.8-150.6,157.9-156.7l42.8-14.7l9.8-14.7l-66.1,23.3
				c-17.1,4.9-164,58.8-157.9,155.4c2.4,29.4,18.4,37.9,26.9,40.4c0,0,0,0,1.2,0C39.2,447.4,33,436.4,31.8,419.3z"/>
			<path fill="#AA8561" d="M437,269.9c13.5,4.9,105.3,37.9,143.2,99.1c-30.6-69.8-135.9-107.7-149.3-112.6l-66.1-23.3l9.8,14.7
				L437,269.9z"/>
			<path fill="#C69C6D" d="M466.3,416.8c0,90.6-73.4,126.1-164,126.1s-162.8-36.7-162.8-126.1s73.4-200.7,164-200.7
				S466.3,326.2,466.3,416.8z"/>
			<path fill="#BD9261" d="M421.1,284.6c23.3,36.7,36.7,79.6,36.7,118.7c0,90.6-73.4,126.1-164,126.1c-58.8,0-110.2-14.7-138.3-50.2
				c25.7,45.3,82,63.6,148.1,63.6c90.6,0,164-35.5,164-126.1C466.3,372.7,449.2,322.6,421.1,284.6z"/>
			<path fill="#DCB890" d="M150.6,426.6c0-90.6,73.4-200.7,164-200.7c33,0,62.4,14.7,88.1,36.7c-26.9-28.2-61.2-47.7-99.1-47.7
				c-90.6,0-164,111.4-164,200.7c0,40.4,14.7,69.8,37.9,89.4C160.3,486.6,150.6,460.9,150.6,426.6z"/>
			<g>
				<g>
					<path fill="#333333" d="M309.7,460.9c-2.4-11-19.6-20.8-19.6-20.8v-1.2c1.2,0,19.6,8.6,22,20.8L309.7,460.9z"/>
				</g>
				<g>
					<path fill="#333333" d="M293.8,459.6h-1.2c2.4-14.7,20.8-22,22-23.3l1.2,3.7C315.8,441.3,296.2,447.4,293.8,459.6z"/>
				</g>
				<g>
					<path fill="#333333" d="M302.3,479.2c-18.4,0-33-14.7-33-33c0-9.8,4.9-19.6,12.2-25.7c1.2-1.2,3.7-1.2,4.9,0
						c1.2,1.2,1.2,3.7,0,4.9c-6.1,4.9-9.8,12.2-9.8,20.8c0,14.7,12.2,26.9,26.9,26.9c14.7,0,26.9-12.2,26.9-26.9
						c0-7.3-3.7-14.7-8.6-19.6c-1.2-1.2-1.2-2.4,0-4.9c1.2-1.2,2.4-1.2,4.9,0c7.3,6.1,11,14.7,11,24.5
						C335.4,464.5,320.7,479.2,302.3,479.2z"/>
				</g>
			</g>
			<path fill="#535353" d="M105.3,465.8c-2.4,0-4.9,0-8.6,0c-61.2,0-111.4,50.2-111.4,111.4H1.2C1.2,518.4,46.5,469.4,105.3,465.8z"
				/>
			<path fill="#BD9261" d="M531.2,465.8c-4.9-1.2-9.8-1.2-15.9-1.2c-61.2,0-111.4,50.2-111.4,111.4h37.9
				C441.9,522.1,479.8,476.8,531.2,465.8z"/>
		</g>
	</g>
	<g id="身体2" display="inline">
		<g>
			<path fill="#8C6239" d="M438.2,331.1l-66.1-23.3l37.9,58.8c91.8,144.4,132.2,162.8,150.6,162.8c3.7,0,6.1-1.2,8.6-1.2
				c9.8-2.4,25.7-11,26.9-40.4C603.4,389.9,455.3,336,438.2,331.1z"/>
			<path fill="#744D28" d="M451.7,336c-6.1-2.4-11-3.7-13.5-4.9l-63.6-22c49,29.4,85.7,89.4,96.7,148.1
				c23.3,30.6,41.6,47.7,55.1,58.8c0-4.9,1.2-9.8,1.2-14.7C528.8,442.5,498.2,376.4,451.7,336z"/>
			<path fill="#8C6239" d="M165.2,344.6c-17.1-26.9-33-50.2-46.5-68.5c12.2-14.7,20.8-33,20.8-53.9c0-45.3-36.7-82-82-82
				s-82,36.7-82,82c0,9.8,2.4,19.6,4.9,28.2c18.4,80.8,140.8,124.8,155.4,131l66.1,23.3L165.2,344.6z"/>
			<path fill="#744D28" d="M165.2,344.6c-17.1-26.9-33-50.2-46.5-68.5c12.2-14.7,20.8-33,20.8-53.9c0-36.7-24.5-67.3-57.5-78.3
				c28.2,13.5,47.7,41.6,47.7,74.7c0,20.8-7.3,39.2-20.8,53.9c13.5,18.4,29.4,41.6,46.5,68.5l37.9,58.8l-66.1-23.3
				c-1.2,0-2.4-1.2-3.7-1.2c6.1,2.4,11,4.9,13.5,4.9l66.1,23.3L165.2,344.6z"/>
			<path fill="#333333" d="M105.3,540.4c-61.2,0-111.4,50.2-111.4,111.4h224C217.9,590.6,167.7,540.4,105.3,540.4z"/>
			<path d="M124.8,541.7c47.7,13.5,82,58.8,82,110.2h9.8C217.9,596.7,177.5,550.2,124.8,541.7z"/>
			<path fill="#535353" d="M113.8,540.4c-2.4,0-4.9,0-8.6,0c-61.2,0-111.4,50.2-111.4,111.4H9.8C9.8,593.1,56.3,544.1,113.8,540.4z"
				/>
			<path fill="#8C6239" d="M355,583.3c0,31.8-11,57.5-42.8,57.5s-42.8-25.7-42.8-57.5c0-31.8,11-57.5,42.8-57.5S355,551.4,355,583.3
				z"/>
			<path fill="#C69C6D" d="M525.1,540.4c-61.2,0-111.4,50.2-111.4,111.4h222.8C636.5,590.6,586.3,540.4,525.1,540.4z"/>
			<path fill="#AA8561" d="M438.2,331.1l-66.1-23.3l3.7,4.9l62.4,20.8c17.1,6.1,164,60,157.9,156.7c0,6.1-1.2,11-2.4,15.9
				c2.4-4.9,3.7-11,3.7-19.6C602.2,389.9,455.3,336,438.2,331.1z"/>
			<path fill="#C69C6D" d="M476.1,491.5c0,90.6-73.4,126.1-164,126.1s-164-35.5-164-126.1s73.4-200.7,164-200.7
				S476.1,400.9,476.1,491.5z"/>
			<path fill="#BD9261" d="M539.8,540.4c-4.9-1.2-9.8-1.2-15.9-1.2c-61.2,0-111.4,50.2-111.4,111.4h37.9
				C451.7,598,489.6,551.4,539.8,540.4z"/>
			<path fill="#BD9261" d="M429.6,359.3c23.3,36.7,36.7,79.6,36.7,118.7c0,90.6-73.4,126.1-164,126.1c-58.8,0-110.2-14.7-138.3-50.2
				c25.7,45.3,82,63.6,148.1,63.6c90.6,0,164-35.5,164-126.1C476.1,447.4,457.8,398.4,429.6,359.3z"/>
			<path fill="#DCB890" d="M159.1,502.5c0-90.6,73.4-200.7,164-200.7c33,0,62.4,14.7,88.1,36.7c-26.9-28.2-61.2-47.7-99.1-47.7
				c-90.6,0-164,111.4-164,200.7c0,40.4,14.7,69.8,37.9,89.4C170.1,561.2,159.1,535.5,159.1,502.5z"/>
			<g>
				<path fill="#333333" d="M319.5,535.5c-2.4-11-19.6-20.8-19.6-20.8v-1.2c1.2,0,19.6,8.6,22,20.8L319.5,535.5z"/>
			</g>
			<g>
				<path fill="#333333" d="M302.3,535.5h-1.2c2.4-14.7,20.8-22,22-23.3l1.2,3.7C324.4,516,304.8,522.1,302.3,535.5z"/>
			</g>
			<g>
				<path fill="#333333" d="M312.1,555.1c-18.4,0-33-14.7-33-33c0-9.8,4.9-19.6,12.2-25.7c1.2-1.2,3.7-1.2,4.9,0
					c1.2,1.2,1.2,3.7,0,4.9c-6.1,4.9-9.8,12.2-9.8,20.8c0,14.7,12.2,26.9,26.9,26.9s26.9-12.2,26.9-26.9c0-7.3-3.7-14.7-8.6-19.6
					c-1.2-1.2-1.2-2.4,0-4.9c1.2-1.2,2.4-1.2,4.9,0c7.3,6.1,11,14.7,11,24.5C343.9,540.4,329.3,555.1,312.1,555.1z"/>
			</g>
			<path fill="#AA8561" d="M-8.6,262.6c-3.7-8.6-4.9-18.4-4.9-28.2c0-45.3,36.7-82,82-82c22,0,41.6,8.6,56.3,22
				c-15.9-20.8-40.4-34.3-68.5-34.3c-44.1,0-80.8,36.7-80.8,82c0,9.8,2.4,19.6,4.9,28.2c4.9,22,17.1,40.4,33,57.5
				C2.4,294.4-4.9,278.5-8.6,262.6z"/>
		</g>
	</g>
	<g id="身体3" display="inline">
		<g>
			<path fill="#C69C6D" d="M516.5,464.5c-61.2,0-111.4,50.2-111.4,111.4h224C629.1,514.7,579,464.5,516.5,464.5z"/>
			<path fill="#BD9261" d="M532.4,465.8c-4.9-1.2-9.8-1.2-15.9-1.2c-61.2,0-111.4,50.2-111.4,111.4h37.9
				C443.1,523.3,481,476.8,532.4,465.8z"/>
			<path fill="#333333" d="M95.5,464.5c-61.2,0-111.4,50.2-111.4,111.4h224C206.9,514.7,156.7,464.5,95.5,464.5z"/>
			<path d="M115.1,467c47.7,13.5,82,58.8,82,110.2h9.8C206.9,520.8,167.7,475.6,115.1,467z"/>
			<path fill="#535353" d="M104,465.8c-2.4,0-4.9,0-8.6,0c-61.2,0-111.4,50.2-111.4,111.4H0C0,517.2,45.3,469.4,104,465.8z"/>
			<path fill="#8C6239" d="M345.2,507.4c0,31.8-11,57.5-42.8,57.5s-42.8-25.7-42.8-57.5s11-57.5,42.8-57.5S345.2,476.8,345.2,507.4z
				"/>
			<path fill="#8C6239" d="M171.4,292C156.7,301.8,28.2,392.3,60,484.1c9.8,28.2,26.9,31.8,36.7,31.8l0,0
				c13.5,0,50.2-1.2,111.4-197.1l20.8-67.3L171.4,292z"/>
			<path fill="#744D28" d="M213,265l-20.8,66.1c-36.7,117.5-64.9,165.2-84.5,183.6c18.4-6.1,51.4-36.7,101.6-195.8l20.8-67.3
				L213,265z"/>
			<path fill="#AA8561" d="M74.7,504.9c-31.8-93,84.5-194.6,99.1-204.4l53.9-39.2l2.4-7.3l-58.8,39.2C156.7,303,28.2,393.6,60,485.4
				c4.9,12.2,11,20.8,17.1,24.5C75.9,508.6,74.7,506.2,74.7,504.9z"/>
			<path fill="#8C6239" d="M423.5,292L366,252.8l20.8,67.3C448,516,484.7,517.2,498.2,517.2l0,0c9.8,0,26.9-3.7,36.7-31.8
				C566.7,392.3,438.2,303,423.5,292z"/>
			<path fill="#C69C6D" d="M465.1,416.8c0,90.6-73.4,126.1-164,126.1s-164-35.5-164-126.1s73.4-200.7,164-200.7
				S465.1,326.2,465.1,416.8z"/>
			<path fill="#744D28" d="M471.2,331.1c-19.6-18.4-37.9-31.8-45.3-37.9c24.5,36.7,39.2,82,39.2,122.4c0,24.5-4.9,44.1-14.7,61.2
				c2.4,4.9,6.1,8.6,8.6,12.2c18.4-19.6,29.4-46.5,29.4-80.8C488.4,383.8,482.3,356.8,471.2,331.1z"/>
			<path fill="#BD9261" d="M418.6,284.6c23.3,36.7,36.7,79.6,36.7,118.7c0,90.6-73.4,126.1-164,126.1c-58.8,0-110.2-14.7-138.3-50.2
				c25.7,45.3,82,63.6,148.1,63.6c90.6-1.2,164-36.7,164-126.1C465.1,372.7,448,322.6,418.6,284.6z"/>
			<path fill="#DCB890" d="M149.3,426.6c0-90.6,73.4-200.7,164-200.7c33,0,62.4,14.7,88.1,36.7c-26.9-28.2-61.2-47.7-99.1-47.7
				c-90.6,0-164,111.4-164,200.7c0,40.4,14.7,69.8,37.9,89.4C159.1,486.6,149.3,460.9,149.3,426.6z"/>
			<g>
				<path fill="#333333" d="M308.4,460.9c-2.4-11-19.6-20.8-19.6-20.8v-1.2c1.2,0,19.6,8.6,22,20.8L308.4,460.9z"/>
			</g>
			<g>
				<path fill="#333333" d="M292.5,459.6h-1.2c2.4-14.7,20.8-22,22-23.3l1.2,3.7C313.3,441.3,293.8,447.4,292.5,459.6z"/>
			</g>
			<g>
				<path fill="#333333" d="M301.1,479.2c-18.4,0-33-14.7-33-33c0-9.8,4.9-19.6,12.2-25.7c1.2-1.2,3.7-1.2,4.9,0
					c1.2,1.2,1.2,3.7,0,4.9c-6.1,4.9-9.8,12.2-9.8,20.8c0,14.7,12.2,26.9,26.9,26.9s26.9-12.2,26.9-26.9c0-7.3-3.7-14.7-8.6-19.6
					c-1.2-1.2-1.2-2.4,0-4.9c1.2-1.2,2.4-1.2,4.9,0c7.3,6.1,11,14.7,11,24.5C334.2,464.5,319.5,479.2,301.1,479.2z"/>
			</g>
		</g>
	</g>
	<g id="身体4" display="inline">
		<g>
			<path fill="#8C6239" d="M320.7,566.1c-3.7,31.8-17.1,56.3-49,52.6s-40.4-29.4-36.7-61.2c3.7-31.8,17.1-56.3,49-52.6
				S323.1,535.5,320.7,566.1z"/>
			<path fill="#333333" d="M68.5,506.2c-44.1,44.1-44.1,113.8,0,157.9l157.9-159.1C182.4,462.1,111.4,462.1,68.5,506.2z"/>
			<path fill="#0E0E0E" d="M57.5,650.6c3.7,4.9,7.3,9.8,11,13.5l142-142L57.5,650.6z"/>
			<path fill="#535353" d="M80.8,529.4c36.7-37.9,89.4-50.2,131-35.5c-44.1-31.8-105.3-26.9-144.4,12.2
				c-30.6,30.6-39.2,73.4-28.2,111.4C42.8,586.9,56.3,555.1,80.8,529.4z"/>
			<path fill="#C69C6D" d="M488.4,536.8c-60-13.5-120,25.7-133.4,85.7l121.2,44.1l97.9,2.4C586.3,610.2,548.4,550.2,488.4,536.8z"/>
			<path fill="#BD9261" d="M547.1,582c3.7,1.2,7.3,1.2,11,2.4c-15.9-23.3-40.4-41.6-69.8-47.7c-60-13.5-120,25.7-133.4,85.7
				l66.1,24.5C441.9,599.2,493.3,571,547.1,582z"/>
			<path fill="#8C6239" d="M194.6,320.1C135.9,123,99.1,121.8,85.7,121.8c-9.8,0-26.9,3.7-37.9,31.8C14.7,245.4,142,337.2,156.7,347
				l57.5,40.4L194.6,320.1z"/>
			<path fill="#744D28" d="M186,314l15.9,66.1l15.9,11l-22-67.3c-12.2-41.6-23.3-73.4-34.3-99.1C170.1,249.1,177.5,278.5,186,314z"
				/>
			<path fill="#AA8561" d="M63.6,176.9c9.8-28.2,28.2-31.8,36.7-31.8c6.1,0,18.4,0,35.5,22c-24.5-45.3-41.6-45.3-50.2-45.3
				c-9.8,0-26.9,3.7-37.9,31.8c-14.7,41.6,2.4,82,28.2,116.3C60,240.6,52.6,208.7,63.6,176.9z"/>
			<path fill="#8C6239" d="M490.8,156.1c-19.6-22-37.9-19.6-46.5-15.9c-12.2,4.9-46.5,19.6-28.2,224l6.1,69.8l39.2-58.8
				C471.2,361.7,555.7,229.5,490.8,156.1z"/>
			<path fill="#744D28" d="M514.1,207.5c-8.6,66.1-58.8,134.6-66.1,145.7L419.8,396l3.7,41.6l39.2-58.8
				C470,367.8,526.3,279.7,514.1,207.5z"/>
			<path fill="#AA8561" d="M449.2,165.9c8.6-3.7,26.9-7.3,46.5,15.9c9.8,11,15.9,23.3,19.6,36.7c-1.2-22-7.3-44.1-23.3-62.4
				c-19.6-22-37.9-19.6-46.5-15.9c-11,4.9-39.2,17.1-33,162.8C411.3,183,438.2,170.8,449.2,165.9z"/>
			<path fill="#C69C6D" d="M460.2,467c-11,89.4-88.1,116.3-177.5,104c-89.4-11-157.9-55.1-146.9-145.7
				c11-89.4,97.9-190.9,187.3-178.7C412.5,257.7,471.2,376.4,460.2,467z"/>
			<path fill="#BD9261" d="M413.7,304.2c31.8,45.3,47.7,104,41.6,154.2c-11,91.8-94.2,117.5-189.7,105.3c-22-2.4-41.6-7.3-60-13.5
				c22,11,49,18.4,77.1,22c89.4,11,166.5-14.7,177.5-104C467.6,413.1,449.2,349.5,413.7,304.2z"/>
			<path fill="#DCB890" d="M156.7,445c11-89.4,97.9-190.9,187.3-178.7c22,2.4,41.6,12.2,58.8,25.7c-22-24.5-49-41.6-80.8-45.3
				c-89.4-12.2-176.3,89.4-187.3,178.7c-6.1,50.2,12.2,85.7,45.3,110.2C160.3,512.3,151.8,482.9,156.7,445z"/>
			<g>
				<g>
					<path fill="#333333" d="M307.2,478c-2.4-11-19.6-20.8-19.6-20.8V456c1.2,0,19.6,8.6,22,20.8L307.2,478z"/>
				</g>
				<g>
					<path fill="#333333" d="M290.1,478h-1.2c2.4-14.7,20.8-22,22-23.3l1.2,3.7C312.1,458.4,292.5,465.8,290.1,478z"/>
				</g>
				<g>
					<path fill="#333333" d="M299.9,497.6c-18.4,0-33-14.7-33-33c0-9.8,4.9-19.6,12.2-25.7c1.2-1.2,3.7-1.2,4.9,0s1.2,3.7,0,4.9
						c-6.1,4.9-9.8,12.2-9.8,20.8c0,14.7,12.2,26.9,26.9,26.9s26.9-12.2,26.9-26.9c0-7.3-3.7-14.7-8.6-19.6c-1.2-1.2-1.2-2.4,0-4.9
						c1.2-1.2,2.4-1.2,4.9,0c7.3,6.1,11,14.7,11,24.5C332.9,482.9,318.2,497.6,299.9,497.6z"/>
				</g>
			</g>
		</g>
	</g>
	<g id="身体5" display="inline">
		<g>
			<path fill="#C69C6D" d="M516.5,464.5c-61.2,0-111.4,50.2-111.4,111.4h224C629.1,514.7,579,464.5,516.5,464.5z"/>
			<path fill="#BD9261" d="M532.4,465.8c-4.9-1.2-9.8-1.2-15.9-1.2c-61.2,0-111.4,50.2-111.4,111.4h37.9
				C443.1,523.3,481,476.8,532.4,465.8z"/>
			<path fill="#333333" d="M95.5,464.5c-61.2,0-111.4,50.2-111.4,111.4h224C206.9,514.7,156.7,464.5,95.5,464.5z"/>
			<path d="M113.8,467c47.7,13.5,82,58.8,82,110.2h9.8C206.9,520.8,166.5,475.6,113.8,467z"/>
			<path fill="#535353" d="M102.8,465.8c-2.4,0-4.9,0-8.6,0C33,465.8-17.1,516-17.1,577.2H0C0,518.4,45.3,469.4,102.8,465.8z"/>
			<path fill="#8C6239" d="M345.2,508.6c0,31.8-11,57.5-42.8,57.5s-42.8-25.7-42.8-57.5s11-57.5,42.8-57.5S345.2,476.8,345.2,508.6z
				"/>
			<path fill="#C69C6D" d="M465.1,416.8c0,90.6-73.4,126.1-164,126.1s-164-35.5-164-126.1s73.4-200.7,164-200.7
				S465.1,326.2,465.1,416.8z"/>
			<path fill="#B18451" d="M418.6,284.6c20.8,35.5,34.3,77.1,34.3,113.8c0,90.6-73.4,126.1-164,126.1c-58.8,0-110.2-14.7-138.3-50.2
				c24.5,49,83.2,68.5,150.6,68.5c90.6,0,164-35.5,164-126.1C465.1,372.7,446.8,323.8,418.6,284.6z"/>
			<path fill="#DCB890" d="M162.8,441.3c0-90.6,73.4-200.7,164-200.7c30.6,0,60,13.5,84.5,33c-29.4-34.3-67.3-57.5-108.9-57.5
				c-90.6,0-164,111.4-164,200.7c0,44.1,17.1,74.7,45.3,94.2C170.1,492.7,162.8,469.4,162.8,441.3z"/>
			<path fill="#8C6239" d="M438.2,298.1l-51.4-49l9.8,69.8c29.4,203.2,64.9,209.3,78.3,211.8c1.2,0,3.7,0,6.1,0
				c9.8,0,24.5-4.9,35.5-25.7C563,419.3,451.7,310.3,438.2,298.1z"/>
			<path fill="#744D28" d="M483.5,349.5c23.3,47.7,44.1,112.6,17.1,162.8c-4.9,9.8-11,15.9-17.1,19.6c9.8-1.2,23.3-6.1,33-25.7
				C545.9,453.5,515.3,392.3,483.5,349.5z"/>
			<path fill="#AA8561" d="M419.8,315.2l-6.1-41.6l-26.9-24.5l9.8,69.8c22,154.2,47.7,195.8,64.9,206.9
				C450.4,490.2,435.7,426.6,419.8,315.2z"/>
			<path fill="#8C6239" d="M164,306.6c-12.2,13.5-113.8,132.2-60,214.2c12.2,18.4,25.7,23.3,35.5,23.3c3.7,0,6.1,0,8.6-1.2
				c13.5-3.7,49-13.5,60-217.9l3.7-69.8L164,306.6z"/>
			<path fill="#744D28" d="M132.2,531.9c-2.4,1.2-4.9,1.2-8.6,1.2c-3.7,0-8.6-1.2-12.2-2.4c9.8,9.8,19.6,12.2,26.9,12.2
				c3.7,0,6.1,0,8.6-1.2c12.2-3.7,42.8-12.2,56.3-172.6C182.4,492.7,143.2,529.4,132.2,531.9z"/>
			<path fill="#AA8561" d="M172.6,322.6l36.7-41.6l1.2-26.9L164,306.6c-12.2,13.5-113.8,132.2-60,214.2l1.2,1.2
				C69.8,441.3,160.3,334.8,172.6,322.6z"/>
			<g>
				<g>
					<path fill="#333333" d="M310.9,456c-2.4-11-19.6-20.8-19.6-20.8v-1.2c1.2,0,19.6,8.6,22,20.8L310.9,456z"/>
				</g>
				<g>
					<path fill="#333333" d="M295,456h-1.2c2.4-14.7,20.8-22,22-23.3l1.2,3.7C317,436.4,297.4,442.5,295,456z"/>
				</g>
				<g>
					<path fill="#333333" d="M303.6,475.6c-18.4,0-33-14.7-33-33c0-9.8,4.9-19.6,12.2-25.7c1.2-1.2,3.7-1.2,4.9,0
						c1.2,1.2,1.2,3.7,0,4.9c-6.1,4.9-9.8,12.2-9.8,20.8c0,14.7,12.2,26.9,26.9,26.9c14.7,0,26.9-12.2,26.9-26.9
						c0-7.3-3.7-14.7-8.6-19.6c-1.2-1.2-1.2-2.4,0-4.9c1.2-1.2,2.4-1.2,4.9,0c7.3,6.1,11,14.7,11,24.5
						C336.6,460.9,321.9,475.6,303.6,475.6z"/>
				</g>
			</g>
		</g>
	</g>
	<g id="身体6" display="inline">
		<g>
			<path fill="#8C6239" d="M607.1,269.9C590,240.6,559.4,232,530,249.1c-1.2,0-91.8,57.5-66.1,101.6c7.3,13.5,23.3,18.4,40.4,18.4
				c33,0,74.7-17.1,82-22c19.6-11,25.7-25.7,28.2-36.7C618.1,296.9,614.4,283.4,607.1,269.9z"/>
			<path fill="#744D28" d="M523.9,263.8c-4.9,0-9.8,0-14.7,1.2c-25.7,20.8-61.2,56.3-45.3,85.7c7.3,13.5,23.3,18.4,40.4,18.4
				c33,0,74.7-17.1,82-22c19.6-11,25.7-25.7,28.2-36.7c0-2.4,0-4.9,1.2-7.3C590,279.7,558.1,263.8,523.9,263.8z"/>
			<line fill="none" x1="257" y1="146.3" x2="260.7" y2="222.2"/>
			<path fill="#C69C6D" d="M474.9,399.7c0,90.6-73.4,126.1-164,126.1s-164-35.5-164-126.1s73.4-200.7,164-200.7
				S474.9,310.3,474.9,399.7z"/>
			<g>
				<path fill="#B18451" d="M419.8,256.5c30.6,39.2,50.2,88.1,50.2,133.4c0,90.6-77.1,126.1-173.8,126.1c-34.3,0-67.3-4.9-94.2-14.7
					c29.4,17.1,67.3,25.7,108.9,25.7c90.6,0,164-35.5,164-126.1C474.9,351.9,452.9,296.9,419.8,256.5z"/>
				<path fill="#B18451" d="M416.2,254c-1.2-1.2-1.2-1.2-2.4-2.4C414.9,251.6,416.2,252.8,416.2,254z"/>
			</g>
			<path fill="#DCB890" d="M178.7,433.9c0-90.6,73.4-200.7,164-200.7c31.8,0,62.4,14.7,86.9,36.7c-29.4-40.4-71-69.8-117.5-69.8
				c-91.8-1.2-164,110.2-164,199.5c0,44.1,17.1,74.7,45.3,95.5C183.6,478,178.7,458.4,178.7,433.9z"/>
			
				<ellipse transform="matrix(-0.2557 -0.9668 0.9668 -0.2557 -482.1791 584.6053)" fill="#C69C6D" cx="-16" cy="477.9" rx="94.3" ry="69.8"/>
			<path fill="#DCB890" d="M-62.4,520.8c-13.5-50.2,6.1-99.1,44.1-108.9c19.6-4.9,40.4,1.2,57.5,15.9C20.8,396-11,377.6-40.4,385
				c-37.9,11-57.5,60-44.1,110.2c6.1,24.5,18.4,44.1,34.3,57.5C-55.1,542.9-60,531.9-62.4,520.8z"/>
			<ellipse fill="#333333" cx="121.2" cy="650.6" rx="44.1" ry="60"/>
			<path fill="#535353" d="M100.4,667.7c0-33,19.6-60,44.1-60c2.4,0,4.9,0,8.6,1.2c-8.6-12.2-19.6-19.6-33-19.6
				c-24.5,0-44.1,26.9-44.1,60c0,29.4,15.9,53.9,36.7,58.8C104,697.1,100.4,682.4,100.4,667.7z"/>
			
				<ellipse transform="matrix(0.5 -0.866 0.866 0.5 -318.5385 735.1816)" fill="#333333" cx="477.4" cy="643.5" rx="69.8" ry="56.3"/>
			<path fill="#535353" d="M441.9,632.2c19.6-33,56.3-47.7,83.2-31.8c1.2,1.2,3.7,2.4,4.9,3.7c-3.7-8.6-9.8-15.9-18.4-20.8
				c-26.9-15.9-63.6-1.2-83.2,31.8c-18.4,30.6-13.5,67.3,8.6,84.5C428.4,681.2,428.4,655.5,441.9,632.2z"/>
			
				<ellipse transform="matrix(-0.1722 -0.9851 0.9851 -0.1722 -320.3759 1097.8762)" fill="#C69C6D" cx="301.1" cy="683.6" rx="101.6" ry="74.7"/>
			<path fill="#DCB890" d="M249.7,727.7c-9.8-55.1,15.9-105.3,56.3-112.6c19.6-3.7,40.4,3.7,56.3,18.4c-17.1-34.3-47.7-55.1-79.6-49
				c-40.4,7.3-66.1,57.5-56.3,112.6c4.9,28.2,18.4,52.6,35.5,67.3C255.8,753.4,252.1,741.2,249.7,727.7z"/>
			
				<ellipse transform="matrix(0.1411 -0.99 0.99 0.1411 -29.4625 1017.4765)" fill="#C69C6D" cx="571.7" cy="525.7" rx="37.9" ry="28.2"/>
			<path fill="#DCB890" d="M550.8,530.6c2.4-20.8,18.4-35.5,33-33c3.7,0,7.3,2.4,11,4.9c-3.7-7.3-9.8-12.2-18.4-13.5
				c-15.9-2.4-30.6,12.2-33,33c-2.4,14.7,2.4,29.4,12.2,36.7C552,551.4,549.6,541.7,550.8,530.6z"/>
			<path fill="#8C6239" d="M438.2,9.2c-6.1-2.4-14.7-2.4-25.7,0c-95.5,19.6-108.9,175-110.2,193.4l-4.9,69.8l47.7-51.4
				c19.6-22,35.5-40.4,50.2-57.5c11,6.1,24.5,8.6,37.9,8.6c45.3,0,82-36.7,82-82C514.1,48.4,481,12.9,438.2,9.2z"/>
			<path fill="#744D28" d="M509.2,65.5c1.2,4.9,1.2,8.6,1.2,13.5c0,45.3-36.7,82-82,82c-13.5,0-25.7-3.7-37.9-8.6
				c-8.6,11-29.4,44.1-47.7,71l1.2-1.2c20.8-22,36.7-41.6,50.2-58.8c11,6.1,24.5,8.6,37.9,8.6c45.3,0,82-36.7,82-82
				C514.1,82.7,511.6,72.9,509.2,65.5z"/>
			<path fill="#AA8561" d="M424.7,38.6c11-2.4,19.6-1.2,25.7,0c25.7,2.4,47.7,15.9,61.2,35.5c-7.3-35.5-36.7-62.4-73.4-64.9
				c-6.1-2.4-14.7-2.4-25.7,0c-95.5,19.6-108.9,175-110.2,193.4l-1.2,20.8C307.2,186.7,337.8,55.7,424.7,38.6z"/>
			<path fill="#8C6239" d="M700.1,542.9"/>
			<path fill="#AA8561" d="M698.9,541.7"/>
			<path fill="#B18451" d="M700.1,539.2"/>
		</g>
	</g>
	<g id="身体7" display="inline">
		<g>
			<path fill="#333333" d="M164,464.5c-61.2,0-110.2,37.9-110.2,99.1l73.4,12.2h148.1C274.2,513.5,225.2,464.5,164,464.5z"/>
			<path fill="#535353" d="M183.6,475.6c14.7,0,29.4,2.4,42.8,8.6c-18.4-12.2-39.2-19.6-62.4-19.6c-61.2,0-110.2,37.9-110.2,99.1
				l19.6,2.4C77.1,509.8,124.8,475.6,183.6,475.6z"/>
			<path d="M268.1,574.7L268.1,574.7l6.1,1.2c0-30.6-12.2-58.8-33-78.3C259.5,517.2,269.3,544.1,268.1,574.7L268.1,574.7z"/>
			<path fill="#8C6239" d="M411.3,506.2c0,31.8-11,56.3-42.8,56.3s-42.8-25.7-42.8-56.3c0-31.8,11-56.3,42.8-56.3
				S411.3,475.6,411.3,506.2z"/>
			<path fill="#C69C6D" d="M466.3,464.5c-51.4,0-93,50.2-93,110.2h186C559.4,513.5,517.8,464.5,466.3,464.5z"/>
			<path fill="#8C6239" d="M242.4,266.3c-14.7,9.8-140.8,100.4-108.9,190.9c9.8,26.9,26.9,31.8,36.7,31.8c0,0,0,0,1.2,0
				c13.5,0,50.2-1.2,108.9-195.8l20.8-67.3L242.4,266.3z"/>
			<path fill="#AA8561" d="M150.6,464.5c-15.9-46.5,2.4-99.1,26.9-140.8c-31.8,36.7-61.2,84.5-44.1,133.4
				c8.6,24.5,23.3,30.6,33,31.8C160.3,484.1,154.2,476.8,150.6,464.5z"/>
			<path fill="#C69C6D" d="M482.3,415.6c0,89.4-72.2,124.8-161.6,124.8s-162.8-34.3-162.8-124.8s72.2-199.5,161.6-199.5
				S482.3,326.2,482.3,415.6z"/>
			<path fill="#BD9261" d="M373.3,571c68.5-4.9,122.4-33,135.9-93c-11-7.3-23.3-12.2-36.7-13.5c-14.7,37.9-49,60-93,69.8
				C375.8,546.6,373.3,558.8,373.3,571z"/>
			<path fill="#B18451" d="M400.2,247.9c41.6,40.4,69.8,102.8,69.8,157.9c0,89.4-72.2,124.8-161.6,124.8
				c-47.7,0-89.4-9.8-118.7-31.8c29.4,29.4,77.1,42.8,131,42.8c89.4,0,161.6-35.5,161.6-124.8C482.3,356.8,449.2,287.1,400.2,247.9z
				"/>
			<path fill="#DCB890" d="M183.6,436.4c0-89.4,72.2-199.5,161.6-199.5c24.5,0,46.5,8.6,67.3,22c-26.9-25.7-58.8-41.6-93-41.6
				c-89.4,0-161.6,110.2-161.6,199.5c0,47.7,20.8,79.6,53.9,99.1C193.4,496.4,183.6,470.7,183.6,436.4z"/>
			<g>
				<g>
					<path fill="#333333" d="M271.7,459.6c-2.4-11-15.9-20.8-15.9-20.8v-1.2c1.2,0,15.9,8.6,18.4,20.8L271.7,459.6z"/>
				</g>
				<g>
					<g>
						<path fill="#333333" d="M258.3,459.6L258.3,459.6c1.2-14.7,15.9-22,15.9-23.3l1.2,3.7C275.4,440.1,260.7,446.2,258.3,459.6z"
							/>
					</g>
					<path fill="none" stroke="#333333" stroke-width="0.5" stroke-linecap="round" stroke-miterlimit="10" d="M281.5,424.2
						c4.9,4.9,8.6,13.5,8.6,22c0,15.9-11,29.4-23.3,29.4c-13.5,0-23.3-13.5-23.3-29.4c0-9.8,3.7-17.1,8.6-23.3"/>
				</g>
			</g>
			<path fill="#8C6239" d="M414.9,280.9l-51.4-47.7l11,69.8c31.8,200.7,67.3,206.9,80.8,209.3c1.2,0,3.7,0,4.9,0
				c9.8,0,24.5-4.9,35.5-25.7C541,399.7,428.4,293.2,414.9,280.9z"/>
			<path fill="#744D28" d="M483.5,367.8c13.5,40.4,18.4,85.7-1.2,122.4c-6.1,11-12.2,17.1-18.4,20.8c9.8-1.2,20.8-7.3,30.6-25.7
				C515.3,447.4,504.3,404.6,483.5,367.8z"/>
			<path fill="#AA8561" d="M400.2,323.8l-9.8-66.1l-26.9-24.5l11,69.8c29.4,190.9,63.6,205.6,78.3,208.1
				C437,487.8,418.6,436.4,400.2,323.8z"/>
		</g>
	</g>
	<g id="身体8" display="inline">
		<g>
			<path fill="#8C6239" d="M277.8,426.6c0,30.6-11,55.1-41.6,55.1s-40.4-24.5-40.4-55.1s11-55.1,41.6-55.1S277.8,397.2,277.8,426.6z
				"/>
			<path fill="#C69C6D" d="M298.7,449.9c-26.9,0-49,86.9-49,194.6h96.7C346.4,536.8,325.6,449.9,298.7,449.9z"/>
			<path fill="#B18451" d="M314.6,460.9c17.1,29.4,29.4,99.1,29.4,178.7l-60,4.9h63.6C347.6,558.8,334.2,486.6,314.6,460.9z"/>
			<path fill="#DCB890" d="M309.7,454.8c-3.7-3.7-7.3-6.1-12.2-6.1c-26.9,0-49,86.9-49,194.6h14.7
				C264.4,542.9,284,460.9,309.7,454.8z"/>
			<path fill="#8C6239" d="M531.2,277.3c0-42.8-22-78.3-50.2-78.3c-19.6,0-36.7,17.1-44.1,42.8c-23.3-13.5-53.9-28.2-93-45.3
				l-63.6-28.2l33,62.4c7.3,14.7,69.8,128.5,153,128.5c6.1,0,12.2-1.2,19.6-2.4c25.7-6.1,33-19.6,34.3-29.4
				C527.5,314,531.2,296.9,531.2,277.3z"/>
			<path fill="#C69C6D" d="M392.9,339.7c0,85.7-69.8,120-155.4,120s-156.7-34.3-156.7-120s69.8-192.2,155.4-192.2
				S392.9,254,392.9,339.7z"/>
			<path fill="#B18451" d="M337.8,198.9c26.9,36.7,44.1,83.2,44.1,124.8c0,85.7-69.8,120-155.4,120c-52.6,0-97.9-12.2-126.1-41.6
				c25.7,40.4,78.3,56.3,138.3,56.3c85.7,0,155.4-34.3,155.4-120C394.1,292,372.1,238.1,337.8,198.9z"/>
			<path fill="#DCB890" d="M102.8,360.5c0-85.7,69.8-192.2,155.4-192.2c26.9,0,51.4,9.8,73.4,26.9c-26.9-28.2-60-47.7-96.7-47.7
				c-85.7,0-155.4,105.3-155.4,192.2c0,42.8,17.1,73.4,46.5,93C111.4,414.4,102.8,389.9,102.8,360.5z"/>
			<path fill="#744D28" d="M440.6,240.6c0,1.2-1.2,1.2-1.2,2.4c-23.3-13.5-53.9-28.2-93-45.3l-15.9-6.1
				c36.7,36.7,61.2,90.6,63.6,139.5c22,17.1,46.5,29.4,73.4,29.4c0,0,0,0,1.2,0c1.2-4.9,1.2-11,1.2-17.1
				C470,310.3,459,273.6,440.6,240.6z"/>
			<g>
				<path fill="#333333" d="M243.6,381.3c-2.4-11-18.4-19.6-18.4-19.6v-1.2c1.2,0,18.4,7.3,22,19.6L243.6,381.3z"/>
			</g>
			<g>
				<path fill="#333333" d="M227.7,381.3h-1.2c2.4-14.7,20.8-20.8,20.8-22l1.2,3.7C248.5,363,230.1,369.1,227.7,381.3z"/>
			</g>
			<path fill="none" stroke="#333333" stroke-width="0.5" stroke-linecap="round" stroke-miterlimit="10" d="M255.8,348.3
				c6.1,4.9,9.8,12.2,9.8,20.8c0,15.9-12.2,28.2-28.2,28.2s-28.2-12.2-28.2-28.2c0-8.6,3.7-17.1,11-22"/>
			<path fill="#333333" d="M129.7,339.7c-30.6,7.3-40.4,86.9-19.6,179.9l112.6-24.5C202,403.3,160.3,333.6,129.7,339.7z"/>
			<path fill="#535353" d="M138.3,351.9c9.8-2.4,22,3.7,33,15.9c-14.7-19.6-29.4-30.6-41.6-28.2c-30.6,7.3-40.4,86.9-19.6,179.9
				l6.1-1.2C100.4,431.5,108.9,358.1,138.3,351.9z"/>
			<path fill="#8C6239" d="M222.8,198.9l-66.1-23.3l37.9,58.8C282.7,372.7,320.7,389.9,339,389.9c3.7,0,6.1-1.2,8.6-1.2
				c9.8-2.4,25.7-11,26.9-39.2C380.7,256.5,239.9,205.1,222.8,198.9z"/>
			<path fill="#744D28" d="M315.8,247.9c28.2,24.5,50.2,55.1,47.7,93c-2.4,29.4-18.4,36.7-26.9,39.2c-2.4,0-4.9,1.2-8.6,1.2
				c-6.1,0-15.9-2.4-29.4-12.2c19.6,17.1,31.8,20.8,40.4,20.8c3.7,0,6.1-1.2,8.6-1.2c9.8-2.4,25.7-11,26.9-39.2
				C377,306.6,348.8,273.6,315.8,247.9z"/>
			<path fill="#AA8561" d="M211.8,246.7l-37.9-58.8l66.1,23.3c7.3,2.4,44.1,15.9,79.6,39.2c-40.4-31.8-90.6-50.2-99.1-53.9
				l-66.1-23.3l37.9,58.8c63.6,99.1,101.6,135.9,123.6,149.3C292.5,361.7,259.5,321.3,211.8,246.7z"/>
		</g>
	</g>
	<g id="身体9" display="inline">
		<g>
			<path fill="#8C6239" d="M345.2,569.8c0,31.8-11,57.5-42.8,57.5s-42.8-25.7-42.8-57.5c0-31.8,11-57.5,42.8-57.5
				S345.2,538,345.2,569.8z"/>
			<path fill="#333333" d="M95.5,527c-61.2,0-111.4,50.2-111.4,111.4h224C206.9,577.2,156.7,527,95.5,527z"/>
			<path d="M186,638.4h20.8c0-51.4-35.5-95.5-83.2-107.7C161.6,547.8,186,590.6,186,638.4z"/>
			<path fill="#535353" d="M105.3,527c-3.7,0-7.3,0-11,0C33,527-17.1,577.2-17.1,638.4h22C4.9,579.6,49,531.9,105.3,527z"/>
			<path fill="#C69C6D" d="M516.5,527c-61.2,0-111.4,50.2-111.4,111.4h224C629.1,577.2,579,527,516.5,527z"/>
			<path fill="#C69C6D" d="M465.1,478c0,90.6-73.4,126.1-162.8,126.1s-164-35.5-164-126.1s73.4-200.7,164-200.7
				S465.1,387.4,465.1,478z"/>
			<path fill="#B18451" d="M302.3,279.7c-12.2,0-23.3,2.4-34.3,4.9c3.7,0,6.1-1.2,9.8-1.2c90.6,0,164,111.4,164,200.7
				c0,67.3-40.4,104-97.9,118.7c71-9.8,122.4-46.5,122.4-123.6C466.3,391.1,392.9,279.7,302.3,279.7z"/>
			<path fill="#DCB890" d="M172.6,496.4c0-90.6,73.4-200.7,164-200.7c12.2,0,24.5,2.4,36.7,6.1c-20.8-14.7-45.3-23.3-69.8-23.3
				c-90.6,0-164,111.4-164,200.7c0,60,33,95.5,80.8,112.6C189.7,572.3,172.6,541.7,172.6,496.4z"/>
			<g>
				<path fill="#333333" d="M308.4,522.1c-2.4-11-19.6-20.8-19.6-20.8V500c1.2,0,19.6,8.6,22,20.8L308.4,522.1z"/>
			</g>
			<g>
				<path fill="#333333" d="M292.5,522.1h-1.2c2.4-14.7,20.8-22,22-23.3l1.2,3.7C314.6,502.5,295,508.6,292.5,522.1z"/>
			</g>
			<path fill="none" stroke="#333333" stroke-width="0.5" stroke-linecap="round" stroke-miterlimit="10" d="M321.9,486.6
				c6.1,4.9,9.8,13.5,9.8,22c0,15.9-13.5,29.4-29.4,29.4S273,524.5,273,508.6c0-9.8,4.9-17.1,11-23.3"/>
			<path fill="#8C6239" d="M433.3,359.3c-69.8-193.4-106.5-192.2-120-192.2c-9.8,0-26.9,4.9-35.5,33
				c-26.9,94.2,105.3,177.5,120,187.3l60,36.7L433.3,359.3z"/>
			<path fill="#8C6239" d="M320.7,153.6c-7.3,0-13.5,1.2-19.6,2.4c-3.7,0-7.3,1.2-12.2,3.7c-23.3,9.8-40.4,29.4-46.5,53.9
				c-17.1,28.2-37.9,68.5-62.4,128.5L153,407l61.2-34.3c7.3-4.9,46.5-26.9,80.8-61.2c8.6,2.4,17.1,4.9,25.7,4.9
				c45.3,0,82-36.7,82-82S364.8,153.6,320.7,153.6z"/>
			<path fill="#744D28" d="M424.7,334.8c-9.8-26.9-19.6-50.2-28.2-68.5c-12.2,29.4-41.6,50.2-75.9,50.2c-2.4,0-4.9,0-7.3-1.2
				c13.5,17.1,29.4,30.6,44.1,42.8c3.7,0,6.1,1.2,9.8,1.2C389.2,359.3,410,349.5,424.7,334.8z"/>
			<path fill="#AA8561" d="M192.2,347c24.5-60,45.3-101.6,62.4-128.5c6.1-24.5,24.5-44.1,46.5-53.9c4.9-2.4,8.6-3.7,12.2-3.7
				c6.1-1.2,12.2-2.4,19.6-2.4c6.1,0,13.5,1.2,19.6,2.4c-9.8-4.9-20.8-7.3-33-7.3c-7.3,0-13.5,1.2-19.6,2.4c-3.7,0-7.3,1.2-12.2,3.7
				c-23.3,9.8-40.4,29.4-46.5,53.9c-17.1,28.2-37.9,68.5-62.4,128.5L151.8,407l20.8-11L192.2,347z"/>
			<path fill="#744D28" d="M364.8,167.1c13.5,14.7,22,34.3,22,55.1c0,45.3-36.7,82-82,82c-8.6,0-18.4-1.2-25.7-4.9
				c-30.6,30.6-64.9,68.5-77.1,79.6l11-6.1c7.3-4.9,46.5-26.9,80.8-61.2c8.6,2.4,17.1,4.9,25.7,4.9c45.3,0,82-36.7,82-82
				C401.5,206.3,386.8,181.8,364.8,167.1z"/>
			<path fill="#BD9261" d="M532.4,527c-4.9-1.2-9.8-1.2-15.9-1.2c-61.2,0-111.4,50.2-111.4,111.4h37.9
				C443.1,584.5,481,538,532.4,527z"/>
		</g>
	</g>
</g>
<g id="武器" display="none">
	<g id="武器1" display="inline">
		<g>
			<path fill="#AFC8CE" d="M619.3,333.6l-263.2,47.7c3.7,20.8,6.1,40.4,7.3,60L623,377.6"/>
			<path fill="#D5E7EB" d="M364.8,441.3c0,1.2,0,2.4,0,4.9c0,1.2,0,2.4,0,4.9l250.9-62.4c1.2-2.4,2.4-3.7,3.7-4.9
				c1.2-2.4,3.7-3.7,4.9-6.1L364.8,441.3z"/>
			<path fill="#F0F5F6" d="M581.4,278.5L339,312.8c0,1.2,1.2,2.4,1.2,3.7c0,1.2,1.2,2.4,1.2,4.9l249.7-35.5"/>
			<path fill="#8BB3BC" d="M356.2,381.3L356.2,381.3l263.2-47.7c-3.7-2.4-7.3-4.9-9.8-7.3L355,372.7
				C355,376.4,356.2,378.9,356.2,381.3z"/>
			<path fill="#D4E1E4" d="M591.2,285.8l-248.5,35.5c4.9,17.1,8.6,34.3,12.2,51.4l254.6-46.5"/>
			<path fill="#D4E1E4" d="M306,234.4c-23.3-39.2-47.7-58.8-69.8-53.9c-22,3.7-39.2,30.6-46.5,75.9c-3.7,24.5-4.9,51.4-3.7,80.8h4.9
				h4.9l35.5-2.4l0,0c19.6-2.4,40.4,24.5,46.5,62.4c7.3,36.7-2.4,69.8-22,74.7l0,0l-34.3,11l-4.9-1.2l-4.9,1.2
				c26.9,82,67.3,135.9,102.8,128.5c2.4,0,4.9-1.2,6.1-2.4c19.6-7.3,33-33,40.4-73.4c3.7-25.7,4.9-55.1,3.7-85.7c0-1.2,0-2.4,0-4.9
				c0-1.2,0-2.4,0-4.9c-1.2-19.6-3.7-39.2-7.3-60c0,0,0,0,0-1.2c0-2.4-1.2-4.9-1.2-7.3c-3.7-18.4-7.3-35.5-12.2-51.4
				c0-1.2-1.2-2.4-1.2-4.9c0-1.2-1.2-2.4-1.2-3.7C330.5,283.4,318.2,256.5,306,234.4z"/>
			<path fill="#F0F5F6" d="M274.2,585.7c0-1.2-1.2-1.2-1.2-2.4c0-1.2-1.2-1.2-1.2-2.4s-1.2-1.2-1.2-2.4c-2.4-4.9-6.1-9.8-8.6-14.7
				l0,0c-8.6-17.1-15.9-36.7-23.3-57.5l0,0c0-1.2-1.2-2.4-1.2-3.7c0-1.2-1.2-2.4-1.2-3.7c0-1.2-1.2-2.4-1.2-4.9
				c-4.9-17.1-8.6-34.3-12.2-51.4c0-2.4-1.2-4.9-1.2-7.3c0,0,0,0,0-1.2c-3.7-20.8-6.1-40.4-7.3-60c0-1.2,0-2.4,0-4.9
				c0-1.2,0-2.4,0-4.9c0-1.2,0-2.4,0-4.9l0,0c0-2.4,0-3.7,0-6.1c0-4.9,0-9.8,0-14.7c0-2.4,0-4.9,0-6.1c0-4.9,0-9.8,0-14.7
				c0-2.4,0-4.9,0-7.3c0-4.9,0-8.6,1.2-13.5c0-3.7,1.2-6.1,1.2-9.8s1.2-6.1,1.2-9.8c0,0,0,0,0-1.2c1.2-3.7,1.2-8.6,2.4-12.2
				c0-1.2,0-1.2,0-2.4c1.2-3.7,2.4-7.3,2.4-11c0-1.2,0-1.2,0-2.4c1.2-3.7,2.4-7.3,3.7-9.8v-1.2c1.2-3.7,2.4-6.1,4.9-9.8l0,0
				c4.9-8.6,11-15.9,17.1-20.8l0,0c3.7-2.4,8.6-4.9,13.5-6.1c8.6-1.2,17.1,0,25.7,4.9c-17.1-20.8-35.5-31.8-52.6-28.2
				c-4.9,1.2-9.8,2.4-13.5,6.1l0,0c-6.1,4.9-12.2,11-17.1,20.8l0,0c-1.2,2.4-2.4,6.1-4.9,9.8v1.2c-1.2,3.7-2.4,6.1-3.7,9.8
				c0,1.2,0,1.2,0,2.4c-1.2,3.7-2.4,7.3-2.4,11c0,1.2,0,1.2,0,2.4c-1.2,3.7-1.2,8.6-2.4,12.2c0,0,0,0,0,1.2c0,2.4-1.2,6.1-1.2,9.8
				s-1.2,6.1-1.2,9.8c0,3.7-1.2,8.6-1.2,13.5c0,2.4,0,4.9,0,7.3c0,4.9,0,9.8,0,14.7c0,2.4,0,4.9,0,6.1c0,4.9,0,9.8,0,14.7
				c0,2.4,0,3.7,0,6.1l0,0c0,1.2,0,2.4,0,4.9c0,1.2,0,2.4,0,4.9c0,1.2,0,2.4,0,4.9c1.2,19.6,3.7,39.2,7.3,60c0,0,0,0,0,1.2
				c0,2.4,1.2,4.9,1.2,7.3c3.7,18.4,7.3,35.5,12.2,51.4c0,1.2,1.2,2.4,1.2,4.9c0,1.2,1.2,2.4,1.2,3.7c0,1.2,1.2,2.4,1.2,3.7l0,0
				c7.3,20.8,14.7,40.4,23.3,57.5l0,0c2.4,4.9,4.9,11,8.6,14.7c0,1.2,1.2,1.2,1.2,2.4s1.2,1.2,1.2,2.4c0,1.2,1.2,1.2,1.2,2.4
				c13.5,22,26.9,36.7,41.6,44.1C284,601.6,279.1,594.3,274.2,585.7z"/>
			<path fill="#4381A9" d="M230.1,333.6L230.1,333.6l-35.5,2.4h-4.9h-4.9l-137.1,9.8c7.3,3.7,15.9,9.8,22,19.6
				c12.2,15.9,22,39.2,26.9,63.6c7.3,40.4,0,77.1-15.9,94.2L213,482.9l4.9-1.2l4.9-1.2l34.3-11l0,0c18.4-4.9,28.2-37.9,22-74.7
				C270.5,359.3,249.7,332.4,230.1,333.6z"/>
			<path fill="#2B688F" d="M252.1,454.8L252.1,454.8l-34.3,11L213,467l-4.9,1.2L91.8,503.7c-3.7,8.6-7.3,14.7-12.2,20.8l132.2-40.4
				l4.9-1.2l4.9-1.2l34.3-11l0,0c18.4-4.9,28.2-37.9,22-74.7c-1.2-4.9-2.4-9.8-3.7-14.7C280.3,416.8,270.5,449.9,252.1,454.8z"/>
			<path fill="#D4E1E4" d="M69.8,365.4c-7.3-8.6-14.7-15.9-22-19.6c-7.3-3.7-13.5-3.7-20.8-2.4c-29.4,4.9-44.1,51.4-34.3,105.3
				s40.4,90.6,69.8,85.7c2.4,0,3.7-1.2,6.1-1.2c4.9-1.2,8.6-4.9,12.2-8.6c17.1-18.4,23.3-55.1,15.9-95.5
				C93,403.3,83.2,381.3,69.8,365.4z"/>
			<g>
				<path fill="#F0F5F6" d="M3.7,460.9c-9.8-53.9,4.9-99.1,34.3-105.3c2.4,0,4.9,0,7.3,0c-3.7-1.2-6.1-3.7-9.8-3.7
					c3.7,0,6.1,2.4,9.8,3.7c4.9,0,8.6,1.2,13.5,3.7c3.7,1.2,7.3,3.7,11,7.3c0,0,0,0,0-1.2c-7.3-8.6-14.7-15.9-22-19.6
					s-13.5-3.7-20.8-2.4c-29.4,4.9-44.1,51.4-34.3,105.3c6.1,34.3,20.8,62.4,39.2,75.9C18.4,507.4,8.6,486.6,3.7,460.9z"/>
			</g>
			<path fill="#66A3CB" d="M195.8,350.7h4.9h4.9l35.5-2.4l0,0c7.3-1.2,15.9,2.4,23.3,9.8c-9.8-15.9-22-24.5-33-23.3l0,0l-35.5,2.4
				h-4.9H186l-138.3,8.6c6.1,2.4,12.2,7.3,17.1,13.5L195.8,350.7z"/>
		</g>
	</g>
	<g id="武器2" display="inline">
		<g>
			<path fill="#8C6239" d="M-30.6,232l392.9,144.4l22-60L-7.3,173.2"/>
			<path fill="#8C6239" d="M345.2,574.7l132.2,49c52.6-26.9,106.5-93,138.3-179.9s33-171.4,11-226.4l0,0
				c-1.2-12.2-26.9-30.6-60-42.8c-33-12.2-63.6-14.7-72.2-6.1l0,0c-52.6,26.9-106.5,93-138.3,179.9S321.9,519.6,345.2,574.7"/>
			<path fill="#AA8561" d="M345.2,574.7l34.3,12.2c-13.5-53.9-8.6-127.3,18.4-200.7c31.8-86.9,84.5-153,138.3-179.9l0,0
				c9.8-8.6,39.2-6.1,72.2,6.1c6.1,2.4,12.2,4.9,17.1,7.3c0-1.2-1.2-1.2-1.2-2.4l0,0c-1.2-12.2-26.9-30.6-60-42.8
				c-33-12.2-63.6-14.7-72.2-6.1l0,0c-51.4,28.2-105.3,94.2-137.1,179.9S321.9,519.6,345.2,574.7"/>
			<g>
				<path fill="#C7B299" d="M451.7,240.6c-1.2-1.2-1.2-3.7,0-4.9c14.7-28.2,49-49,50.2-50.2c2.4-1.2,4.9,0,6.1,1.2
					c1.2,2.4,0,4.9-1.2,6.1c0,0-33,20.8-46.5,46.5c-1.2,2.4-3.7,3.7-6.1,2.4C451.7,241.8,451.7,240.6,451.7,240.6z"/>
			</g>
			<g>
				<path fill="#C7B299" d="M437,268.7c-1.2-1.2-1.2-3.7,0-4.9l7.3-12.2c1.2-2.4,3.7-2.4,6.1-1.2c2.4,1.2,2.4,3.7,1.2,6.1l-7.3,12.2
					C443.1,269.9,440.6,269.9,437,268.7L437,268.7z"/>
			</g>
			<path fill="#B18451" d="M346.4,572.3c3.7-12.2,37.9-12.2,75.9,1.2s64.9,33,60,45.3c-3.7,12.2-37.9,12.2-75.9-1.2
				S341.5,585.7,346.4,572.3"/>
		</g>
	</g>
</g>
<g id="脸" display="none">
	<g display="inline">
		<polygon fill="#C69C6D" points="-258.3,-83.8 870.3,-83.8 350.1,874.6 		"/>
		<polygon fill="#B18451" points="350.1,831.7 261.9,736.3 350.1,875.8 711.1,211.2 		"/>
		<polygon fill="#DCB890" points="-199.5,-48.3 712.4,-81.4 -258.3,-81.4 206.9,650.6 		"/>
	</g>
</g>
<g id="鼻子_x2B_嘴窝">
	<g>
		<path fill="#F9F3F3" d="M469.4,482.3c0,90.6-73.4,126.1-164,126.1s-162.8-35.5-162.8-126.1s73.4-200.7,164-200.7
			S469.4,392.9,469.4,482.3z"/>
		<path fill="#FFFFFF" d="M151.1,495.8c0-90.6,73.4-200.7,164-200.7c51.4,0,97.9,36.7,127.3,84.5c-29.4-55.1-79.6-99.1-135.9-99.1
			c-90.6,0-164,111.4-164,200.7c0,28.2,7.3,51.4,19.6,69.8C154.8,536.1,151.1,517.8,151.1,495.8z"/>
		<path fill="#E6E6E6" d="M420.4,346.4c22,35.5,35.5,78.3,35.5,116.3c0,90.6-73.4,126.1-164,126.1c-56.3,0-106.5-13.5-135.9-46.5
			c25.7,46.5,83.2,66.1,149.3,66.1c90.6,0,164-35.5,164-126.1C470.6,437,451,385.6,420.4,346.4z"/>
		<path fill="#8C6239" stroke="#8C6239" stroke-width="4" stroke-miterlimit="10" d="M228.2,258.3c0-35.5,34.3-50.2,77.1-50.2
			s77.1,13.5,77.1,50.2s-34.3,79.6-77.1,79.6S228.2,293.8,228.2,258.3z"/>
		<path fill="#744D28" d="M377.6,202c14.7,12.2,22,29.4,22,50.2c0,47.7-44.1,104-101.6,104c-19.6,0-37.9-6.1-52.6-17.1
			c17.1,13.5,37.9,23.3,61.2,23.3c57.5,0,101.6-56.3,101.6-104C408.2,233.8,397.2,214.2,377.6,202z"/>
		<path fill="#AA8561" d="M222.1,266.9c0-46.5,37.9-74.7,101.6-74.7c18.4,0,34.3,2.4,47.7,6.1c-17.1-9.8-39.2-14.7-67.3-14.7
			c-63.6,0-101.6,28.2-101.6,74.7c0,40.4,31.8,86.9,77.1,100.4C245.4,339.1,222.1,301.1,222.1,266.9z"/>
	</g>
</g>
<g id="害羞脸" display="none">
	<g display="inline">
		<path fill="#BC4444" d="M-1281.5-2125.4c-3.7,2.4-7.3,3.7-9.8,2.4c-25.7-15.9,13.5-89.4,14.7-91.8c2.4-3.7,7.3-8.6,11-7.3
			C-1206.9-2211.1-1298.7-2149.9-1281.5-2125.4z"/>
	</g>
	<g display="inline">
		<path fill="#BC4444" d="M-1221.6-2205c2.4-1.2,4.9-2.4,7.3-1.2c17.1,12.2,7.3,47.7-2.4,58.8c-7.3,8.6-17.1,9.8-19.6,9.8
			C-1276.6-2148.7-1210.5-2186.6-1221.6-2205z"/>
	</g>
	<g display="inline">
		<path fill="#BC4444" d="M-1184.8-2138.9c-1.2,1.2-2.4-3.7-3.7-6.1c-4.9-12.2-1.2-26.9,4.9-33c4.9-6.1,11-6.1,12.2-6.1
			C-1145.7-2179.3-1192.2-2151.1-1184.8-2138.9z"/>
	</g>
</g>
<g id="闪光眼" display="none">
	<g display="inline">
		<polygon fill="#F6F3F0" points="306,493.9 284,418 220.3,396 284,374 306,298.1 328,374 391.7,396 328,418 		"/>
	</g>
</g>
<g id="耳朵" display="none">
	<g id="耳朵9" display="inline">
		<polygon fill="#C69C6D" points="71,-2990.8 455.3,-2894.1 -11,-2665.2 		"/>
		<polygon fill="#B18451" points="-6.1,-2687.3 -11,-2665.2 454.1,-2894.1 451.7,-2895.3 		"/>
		<polygon fill="#DCB890" points="95.5,-2950.4 352.5,-2921 71,-2992 -3.7,-2690.9 		"/>
		<polygon fill="#C69C6D" points="-724.6,-2989.6 -1106.5,-2883.1 -635.3,-2666.4 		"/>
		<polygon fill="#B18451" points="-668.3,-2690.9 -734.4,-2711.7 -635.3,-2666.4 -724.6,-2989.6 -735.6,-2987.1 		"/>
		<polygon fill="#DCB890" points="-1008.6,-2875.8 -777.2,-2974.9 -1106.5,-2883.1 -697.7,-2695.8 		"/>
	</g>
	<g id="耳朵8" display="inline">
		<polygon fill="#C69C6D" points="-224,-2866 99.1,-3063 -57.5,-2593 		"/>
		<polygon fill="#B18451" points="-72.2,-2617.5 -57.5,-2594.2 85.7,-3022.6 		"/>
		<polygon fill="#DCB890" points="-188.5,-2857.4 33,-3021.4 -224,-2866 -74.7,-2619.9 		"/>
		<polygon fill="#C69C6D" points="-477.4,-2831.7 -766.2,-3075.3 -683,-2586.9 		"/>
		<polygon fill="#B18451" points="-673.2,-2996.9 -495.7,-2836.6 -684.2,-2591.8 -683,-2586.9 -477.4,-2831.7 		"/>
		<polygon fill="#DCB890" points="-736.8,-3036.1 -616.9,-2950.4 -766.2,-3076.5 -703.8,-2705.6 		"/>
	</g>
	<g id="耳朵7" display="inline">
		<polygon fill="#C69C6D" points="1.2,-2983.5 260.7,-2892.9 -107.7,-2668.9 		"/>
		<polygon fill="#B18451" points="-96.7,-2703.2 -107.7,-2668.9 260.7,-2892.9 259.5,-2892.9 		"/>
		<polygon fill="#DCB890" points="18.4,-2954.1 183.6,-2919.8 2.4,-2983.5 -85.7,-2730.1 		"/>
		<polygon fill="#C69C6D" points="-653.6,-3001.8 -910.7,-3001.8 -653.6,-2668.9 		"/>
		<polygon fill="#B18451" points="-667.1,-2701.9 -723.4,-2759.5 -652.4,-2668.9 -652.4,-2933.3 		"/>
		<polygon fill="#DCB890" points="-858,-2976.1 -694,-3001.8 -911.9,-3001.8 -719.7,-2755.8 		"/>
	</g>
	<g id="耳朵6" display="inline">
		<polygon fill="#C69C6D" points="-1046.5,-3005.5 -1131,-2618.7 -718.5,-2934.5 		"/>
		<polygon fill="#B18451" points="-1120,-2666.4 -1131,-2618.7 -718.5,-2934.5 -720.9,-2934.5 		"/>
		<polygon fill="#DCB890" points="-1013.5,-2960.2 -791.9,-2950.4 -1046.5,-3005.5 -1113.8,-2693.4 		"/>
		<polygon fill="#C69C6D" points="329.3,-3048.3 463.9,-2676.2 13.5,-2933.3 		"/>
		<polygon fill="#B18451" points="366,-2949.2 396.6,-2758.2 105.3,-2881.9 463.9,-2677.5 		"/>
		<polygon fill="#DCB890" points="345.2,-3003 329.3,-3048.3 13.5,-2933.3 24.5,-2927.2 		"/>
	</g>
	<g id="耳朵5" display="inline">
		<polygon fill="#C69C6D" points="-14.7,-2914.9 381.9,-2914.9 -14.7,-2579.5 		"/>
		<polygon fill="#B18451" points="312.1,-2914.9 47.7,-2632.2 380.7,-2914.9 		"/>
		<polygon fill="#DCB890" points="18.4,-2896.6 194.6,-2913.7 -15.9,-2913.7 -15.9,-2578.3 1.2,-2593 		"/>
		<polygon fill="#C69C6D" points="-1030.6,-2714.2 -877.6,-3080.2 -720.9,-2585.7 		"/>
		<polygon fill="#B18451" points="-720.9,-2585.7 -871.5,-3059.4 -760.1,-2619.9 -848.2,-2638.3 		"/>
		<polygon fill="#DCB890" points="-1001.2,-2721.5 -856.8,-3017.7 -876.4,-3078.9 -1029.4,-2714.2 -817.6,-2624.8 		"/>
	</g>
	<g id="耳朵3" display="inline">
		<polygon fill="#C69C6D" points="-790.7,-2979.8 -1131,-2776.6 -619.3,-2692.2 		"/>
		<polygon fill="#DCB890" points="-787,-2962.7 -676.9,-2788.8 -790.7,-2979.8 -1131,-2777.8 -1105.3,-2772.9 		"/>
		<polygon fill="#B18451" points="-714.8,-2852.5 -634,-2701.9 -1123.6,-2776.6 -619.3,-2692.2 		"/>
		<polygon fill="#C69C6D" points="117.5,-2979.8 457.8,-2777.8 -53.9,-2690.9 		"/>
		<polygon fill="#B18451" points="263.2,-2894.1 413.7,-2787.6 69.8,-2711.7 457.8,-2779.1 		"/>
		<polygon fill="#DCB890" points="124.8,-2951.6 342.7,-2846.4 117.5,-2979.8 -36.7,-2717.9 		"/>
	</g>
	<g id="耳朵2" display="inline">
		<polygon fill="#C69C6D" points="24.5,-3000.6 419.8,-3000.6 24.5,-2665.2 		"/>
		<polygon fill="#C69C6D" points="-673.2,-3000.6 -1068.6,-3000.6 -673.2,-2665.2 		"/>
		<polygon fill="#B18451" points="24.5,-2688.5 24.5,-2726.4 24.5,-2665.2 336.6,-2929.6 		"/>
		<polygon fill="#DCB890" points="46.5,-2978.6 313.3,-3000.6 24.5,-3000.6 24.5,-2671.3 		"/>
		<polygon fill="#B18451" points="-686.7,-2682.4 -800.5,-2772.9 -673.2,-2664 -673.2,-2951.6 		"/>
		<polygon fill="#DCB890" points="-1025.7,-2987.1 -729.5,-3000.6 -1068.6,-3000.6 -766.2,-2743.6 		"/>
	</g>
	<g id="耳朵1" display="inline">
		<polygon fill="#C69C6D" points="514.1,-3294.4 909.4,-3294.4 514.1,-2959 		"/>
		<polygon fill="#B18451" points="515.3,-2982.2 514.1,-3020.2 514.1,-2959 826.2,-3223.4 		"/>
		<polygon fill="#DCB890" points="536.1,-3272.3 802.9,-3294.4 514.1,-3294.4 514.1,-2965.1 		"/>
		<polygon fill="#C69C6D" points="-183.6,-3294.4 -579,-3294.4 -183.6,-2959 		"/>
		<polygon fill="#B18451" points="-197.1,-2976.1 -310.9,-3066.7 -183.6,-2959 -183.6,-3245.4 		"/>
		<polygon fill="#DCB890" points="-536.1,-3280.9 -239.9,-3294.4 -579,-3294.4 -276.6,-3037.3 		"/>
	</g>
</g>
<g id="眼睛" display="none">
	<g id="眼睛1" display="inline">
		<g>
			<path fill="#F6F3F0" d="M232.6,413.1c0,128.5-73.4,215.4-162.8,215.4s-164-86.9-164-215.4s73.4-249.7,164-249.7
				S232.6,284.6,232.6,413.1z"/>
			<path fill="#E6E6E6" d="M33,585.7c-37.9,0-73.4-15.9-101.6-44.1c29.4,42.8,73.4,68.5,121.2,68.5c90.6,0,164-86.9,164-215.4
				c0-4.9,0-9.8,0-14.7C203.2,495.1,116.3,585.7,33,585.7z"/>
			<path fill="#FFFFFF" d="M-61.2,469.4c0-128.5,73.4-249.7,164-249.7c37.9,0,72.2,20.8,100.4,55.1
				c-29.4-66.1-78.3-112.6-134.6-112.6c-90.6,0-164,121.2-164,249.7c0,68.5,20.8,124.8,53.9,162.8
				C-53.9,545.3-61.2,508.6-61.2,469.4z"/>
			<path fill="#8C6239" d="M69.8,653c-107.7,0-188.5-102.8-188.5-239.9C-118.7,265-33,139,69.8,139S257,265,257,413.1
				C257,550.2,176.3,653,69.8,653z M69.8,187.9c-73.4,0-139.5,107.7-139.5,225.2c0,110.2,58.8,190.9,139.5,190.9
				c79.6,0,138.3-80.8,138.3-190.9C208.1,295.6,142,187.9,69.8,187.9z"/>
			<g>
				<path fill="#AA8561" d="M-112.6,426.6c0-148.1,85.7-274.2,188.5-274.2c61.2,0,117.5,45.3,151.8,115.1
					C193.4,190.4,134.6,139,69.8,139C-33,139-118.7,265-118.7,413.1c0,51.4,11,97.9,31.8,135.9
					C-102.8,513.5-112.6,471.9-112.6,426.6z"/>
				<path fill="#AA8561" d="M75.9,617.5c80.8,0,139.5-80.8,139.5-190.9c0-50.2-12.2-96.7-30.6-135.9c15.9,35.5,24.5,78.3,24.5,122.4
					c0,110.2-58.8,190.9-139.5,190.9c-49,0-89.4-29.4-113.8-77.1C-20.8,582,22,617.5,75.9,617.5z"/>
			</g>
			<g>
				<path fill="#744D28" d="M6.1,584.5c-45.3-30.6-75.9-93-75.9-171.4c0-117.5,66.1-225.2,139.5-225.2c13.5,0,26.9,3.7,39.2,9.8
					C93,187.9,77.1,183,60,183c-72.2,0-138.3,106.5-138.3,225.2C-78.3,491.5-45.3,557.6,6.1,584.5z"/>
				<path fill="#744D28" d="M134.6,157.3c66.1,42.8,113.8,140.8,113.8,250.9c0,137.1-80.8,239.9-188.5,239.9
					c-30.6,0-57.5-8.6-83.2-23.3c28.2,18.4,58.8,28.2,93,28.2C176.3,653,257,550.2,257,413.1C257,298.1,205.6,197.7,134.6,157.3z"/>
			</g>
			<path fill="#F6F3F0" d="M706.2,413.1c0,128.5-73.4,215.4-164,215.4s-162.8-86.9-162.8-215.4s73.4-249.7,162.8-249.7
				S706.2,284.6,706.2,413.1z"/>
			<circle cx="104" cy="508.6" r="60"/>
			<circle cx="525.1" cy="508.6" r="60"/>
			<path fill="#FFFFFF" d="M413.7,468.2c0-128.5,73.4-249.7,164-249.7c37.9,0,72.2,20.8,100.4,55.1C648.7,207.5,599.8,161,543.5,161
				c-91.8,0-164,121.2-164,249.7c0,68.5,20.8,124.8,53.9,162.8C421.1,542.9,413.7,507.4,413.7,468.2z"/>
			<path fill="#E6E6E6" d="M510.4,589.4c-37.9,0-73.4-15.9-101.6-44.1c29.4,42.8,73.4,68.5,121.2,68.5c90.6,0,164-86.9,164-215.4
				c0-4.9,0-9.8,0-14.7C680.5,498.8,593.6,589.4,510.4,589.4z"/>
			<path fill="#333333" d="M542.2,653C435.7,653,355,550.2,355,413.1C355,265,440.6,139,542.2,139S730.7,265,730.7,413.1
				C730.7,550.2,649.9,653,542.2,653z M542.2,187.9c-72.2,0-138.3,107.7-138.3,225.2c0,110.2,58.8,190.9,139.5,190.9
				S683,523.3,683,413.1C681.8,295.6,615.7,187.9,542.2,187.9z"/>
			<ellipse fill="#FFFFFF" cx="132.2" cy="485.4" rx="28.2" ry="35.5"/>
			<ellipse fill="#FFFFFF" cx="544.7" cy="482.9" rx="28.2" ry="35.5"/>
			<g>
				<path d="M478.6,584.5c-45.3-30.6-75.9-93-75.9-171.4c0-117.5,66.1-225.2,139.5-225.2c13.5,0,26.9,3.7,39.2,9.8
					c-14.7-9.8-31.8-15.9-47.7-15.9c-72.2,0-139.5,107.7-139.5,225.2C394.1,491.5,427.2,557.6,478.6,584.5z"/>
				<path d="M608.3,157.3c66.1,42.8,112.6,140.8,112.6,250.9c0,137.1-80.8,239.9-188.5,239.9c-30.6,0-57.5-8.6-83.2-23.3
					c26.9,18.4,57.5,28.2,91.8,28.2c107.7,0,188.5-102.8,188.5-239.9C730.7,298.1,678.1,197.7,608.3,157.3z"/>
			</g>
			<g>
				<path fill="#535353" d="M361.1,426.6c0-148.1,85.7-274.2,188.5-274.2c61.2,0,117.5,45.3,151.8,115.1
					c-34.3-77.1-93-128.5-159.1-128.5C440.6,139,355,263.8,355,413.1c0,51.4,11,97.9,31.8,135.9
					C369.6,513.5,361.1,471.9,361.1,426.6z"/>
				<path fill="#535353" d="M548.4,616.3c80.8,0,139.5-80.8,139.5-190.9c0-50.2-12.2-96.7-30.6-135.9
					c15.9,35.5,24.5,78.3,24.5,122.4c0,110.2-58.8,190.9-139.5,190.9c-49,0-89.4-29.4-113.8-77.1C452.9,582,495.7,616.3,548.4,616.3
					z"/>
			</g>
		</g>
	</g>
	<g id="眼睛2" display="inline">
		<path fill="#F6F3F0" d="M-1812.7-3482.9c111.4,0,153-90.6,153-202h-403.9C-2063.7-3573.4-1925.4-3482.9-1812.7-3482.9z"/>
		<path fill="#E6E6E6" d="M-1692.8-3694.6c-2.4,105.3-45.3,189.7-153,189.7c-50.2,0-105.3-18.4-151.8-49
			c49,37.9,112.6,61.2,168.9,61.2c111.4,0,153-90.6,153-202H-1692.8z"/>
		<path fill="#FFFFFF" d="M-2008.6-3645.6h348.8c1.2-9.8,1.2-19.6,1.2-29.4h-403.9c0,78.3,68.5,145.7,148.1,179.9
			C-1968.2-3531.8-2008.6-3585.7-2008.6-3645.6z"/>
		<path fill="#8C6239" d="M-1812.7-3458.4c-124.8,0-275.4-101.6-275.4-226.4v-24.5h452.9v24.5
			C-1635.3-3540.4-1700.1-3458.4-1812.7-3458.4z M-2036.7-3660.3c18.4,84.5,131,153,224,153c95.5,0,123.6-78.3,127.3-153H-2036.7z"
			/>
		<g>
			<path fill="#744D28" d="M-2008.6-3602.8c-13.5-17.1-23.3-36.7-28.2-57.5h342.7c0-3.7,0-6.1,1.2-9.8h-351.3
				C-2039.2-3644.4-2025.7-3622.4-2008.6-3602.8z"/>
			<path fill="#744D28" d="M-1642.6-3708.1v15.9c0,144.4-64.9,226.4-177.5,226.4c-79.6,0-170.1-41.6-225.2-104
				c53.9,67.3,149.3,112.6,232.6,112.6c112.6,0,177.5-82,177.5-226.4v-24.5H-1642.6z"/>
		</g>
		<path fill="#AA8561" d="M-2080.8-3675v-24.5h444.3v-9.8h-452.9v24.5c0,47.7,22,91.8,56.3,128.5
			C-2062.4-3590.6-2080.8-3632.2-2080.8-3675z"/>
		<path fill="#AA8561" d="M-1805.4-3497.5c95.5,0,122.4-85.7,127.3-160.3l-7.3-2.4c-6.1,72.2-36.7,153-128.5,153
			c-63.6,0-135.9-31.8-181.2-79.6C-1949.8-3534.3-1872.7-3497.5-1805.4-3497.5z"/>
		<path fill="#F6F3F0" d="M-1298.7-3482.9c-111.4,0-153-90.6-153-202h403.9C-1047.7-3573.4-1187.3-3482.9-1298.7-3482.9z"/>
		<path fill="#E6E6E6" d="M-1078.3-3687.3c-14.7,102.8-144.4,183.6-249.7,183.6c-39.2,0-68.5-11-91.8-30.6c24.5,30.6,60,49,110.2,49
			c111.4,0,250.9-90.6,250.9-202H-1078.3z"/>
		<path fill="#FFFFFF" d="M-1412.5-3646.9h374.5c1.2-8.6,2.4-15.9,2.4-24.5h-403.9c0,78.3,20.8,145.7,71,179.9
			C-1400.3-3529.4-1412.5-3584.4-1412.5-3646.9z"/>
		<path fill="#333333" d="M-1298.7-3458.4c-112.6,0-177.5-82-177.5-226.4v-24.5h452.9v24.5
			C-1023.3-3558.7-1175-3458.4-1298.7-3458.4z M-1427.2-3660.3c4.9,74.7,31.8,153,127.3,153c93,0,205.6-68.5,224-153H-1427.2z"/>
		<g>
			<path d="M-1383.1-3537.9c-29.4-29.4-40.4-75.9-42.8-121.2h346.4c0-1.2,1.2-2.4,1.2-3.7h-351.3
				C-1428.4-3616.3-1416.2-3567.3-1383.1-3537.9z"/>
			<path d="M-1028.2-3708.1v20.8c0,124.8-150.6,226.4-275.4,226.4c-47.7,0-86.9-14.7-116.3-44.1c29.4,30.6,71,47.7,121.2,47.7
				c124.8,0,275.4-101.6,275.4-226.4v-24.5H-1028.2z"/>
		</g>
		<path fill="#535353" d="M-1468.8-3675v-24.5h444.3v-9.8h-452.9v24.5c0,80.8,20.8,143.2,58.8,181.2
			C-1450.4-3541.6-1468.8-3600.4-1468.8-3675z"/>
		<path fill="#535353" d="M-1291.3-3497.5c93,0,204.4-72.2,222.8-156.7l-7.3-4.9c-24.5,80.8-134.6,153-224,153
			c-37.9,0-64.9-12.2-84.5-31.8C-1363.5-3514.7-1334.2-3497.5-1291.3-3497.5z"/>
	</g>
	<g id="眼睛3" display="inline">
		<g>
			<path fill="#8C6239" d="M-1845.8-3389.8c-41.6,0-75.9-17.1-95.5-41.6c-30.6-35.5-42.8-100.4,14.7-175
				c31.8-40.4,64.9-58.8,96.7-51.4c57.5,12.2,82,97.9,85.7,107.7c3.7,13.5-4.9,26.9-17.1,29.4c-13.5,3.7-26.9-3.7-29.4-17.1
				c-7.3-26.9-26.9-68.5-47.7-72.2c-12.2-2.4-29.4,9.8-47.7,34.3c-33,42.8-39.2,85.7-15.9,112.6c20.8,24.5,68.5,35.5,123.6,6.1
				c66.1-35.5,97.9-115.1,99.1-177.5c1.2-41.6-11-74.7-30.6-86.9c-37.9-23.3-93-29.4-142-17.1c-31.8,8.6-75.9,28.2-105.3,79.6
				c-7.3,12.2-22,15.9-33,8.6c-12.2-7.3-15.9-22-8.6-33c30.6-51.4,77.1-86.9,135.9-102.8c61.2-15.9,129.7-7.3,179.9,23.3
				c35.5,22,56.3,69.8,53.9,129.7c-2.4,77.1-41.6,173.8-124.8,219.1C-1788.3-3397.2-1818.9-3389.8-1845.8-3389.8z"/>
		</g>
		<g>
			<path fill="#744D28" d="M-1749.1-3563.6c1.2,3.7,2.4,7.3,2.4,8.6c3.7,13.5-4.9,26.9-17.1,29.4c-12.2,3.7-24.5-3.7-29.4-14.7
				c0,1.2,1.2,2.4,1.2,3.7c3.7,13.5,17.1,20.8,29.4,17.1c13.5-3.7,20.8-17.1,17.1-29.4C-1745.4-3551.4-1746.6-3556.3-1749.1-3563.6z
				"/>
			<path fill="#744D28" d="M-1887.4-3575.9c18.4-24.5,36.7-36.7,47.7-34.3c17.1,3.7,34.3,35.5,44.1,61.2
				c-8.6-26.9-26.9-63.6-46.5-67.3c-12.2-2.4-29.4,9.8-47.7,34.3c-26.9,34.3-35.5,68.5-26.9,94.2
				C-1921.7-3512.2-1911.9-3544.1-1887.4-3575.9z"/>
			<path fill="#744D28" d="M-1959.6-3660.3c29.4-51.4,73.4-71,105.3-79.6c49-12.2,104-4.9,142,17.1c9.8,6.1,17.1,17.1,22,30.6
				c-4.9-17.1-13.5-30.6-24.5-36.7c-37.9-23.3-93-29.4-142-17.1c-31.8,8.6-75.9,28.2-105.3,79.6c-7.3,12.2-22,15.9-33,8.6
				c-4.9-2.4-7.3-6.1-9.8-9.8c1.2,6.1,4.9,12.2,12.2,15.9C-1981.7-3644.4-1965.7-3648.1-1959.6-3660.3z"/>
			<path fill="#744D28" d="M-1641.4-3700.7c4.9,18.4,7.3,39.2,7.3,61.2c-2.4,77.1-41.6,173.8-124.8,219.1
				c-31.8,17.1-61.2,24.5-88.1,24.5c-41.6,0-75.9-17.1-95.5-41.6c-7.3-8.6-13.5-19.6-18.4-30.6c4.9,14.7,11,26.9,20.8,36.7
				c20.8,24.5,55.1,41.6,95.5,41.6c26.9,0,57.5-7.3,88.1-24.5c83.2-45.3,122.4-143.2,124.8-219.1
				C-1631.6-3659.1-1634-3681.1-1641.4-3700.7z"/>
		</g>
		<g>
			<path fill="#AA8561" d="M-1821.3-3595.5c12.2,15.9,23.3,40.4,28.2,58.8c1.2,6.1,6.1,12.2,12.2,14.7c-1.2-1.2-2.4-3.7-2.4-6.1
				C-1789.5-3550.2-1805.4-3583.2-1821.3-3595.5z"/>
			<path fill="#AA8561" d="M-1772.4-3448.6c66.1-35.5,97.9-115.1,99.1-177.5c1.2-39.2-9.8-71-28.2-84.5
				c12.2,15.9,19.6,42.8,18.4,75.9c-1.2,62.4-33,142-99.1,177.5c-49,26.9-91.8,20.8-115.1,2.4c0,0,0,1.2,1.2,1.2
				C-1875.2-3430.2-1827.4-3418-1772.4-3448.6z"/>
			<path fill="#AA8561" d="M-1993.9-3675c30.6-51.4,77.1-86.9,135.9-102.8c61.2-15.9,129.7-7.3,179.9,23.3c3.7,2.4,7.3,4.9,11,8.6
				c-6.1-7.3-13.5-13.5-20.8-17.1c-49-29.4-117.5-39.2-179.9-23.3c-58.8,14.7-106.5,50.2-135.9,102.8c-7.3,12.2-2.4,26.9,8.6,33l0,0
				C-1997.6-3659.1-1998.8-3667.7-1993.9-3675z"/>
			<path fill="#AA8561" d="M-1932.7-3421.7c-30.6-35.5-42.8-100.4,14.7-175c31.8-40.4,64.9-58.8,96.7-51.4
				c13.5,2.4,25.7,9.8,35.5,18.4c-12.2-13.5-26.9-24.5-44.1-28.2c-31.8-6.1-64.9,11-96.7,51.4c-57.5,73.4-45.3,138.3-14.7,175
				c3.7,3.7,6.1,7.3,9.8,11C-1932.7-3421.7-1932.7-3421.7-1932.7-3421.7z"/>
		</g>
		<path fill="none" stroke="#333333" stroke-width="4" stroke-linecap="round" stroke-miterlimit="10" d="M-1254.6-3542.8
			c0,0-45.3-168.9-138.3-47.7c-94.2,121.2,15.9,221.5,138.3,155.4s143.2-261.9,69.8-307.2c-73.4-45.3-216.6-42.8-281.5,71"/>
		<g>
			<path d="M-1233.8-3563.6c1.2,3.7,2.4,7.3,2.4,8.6c3.7,13.5-4.9,26.9-17.1,29.4c-12.2,3.7-24.5-3.7-29.4-14.7
				c0,1.2,1.2,2.4,1.2,3.7c3.7,13.5,17.1,20.8,29.4,17.1c13.5-3.7,20.8-17.1,17.1-29.4C-1230.1-3551.4-1231.3-3556.3-1233.8-3563.6z
				"/>
			<path d="M-1372.1-3574.7c18.4-24.5,36.7-36.7,47.7-34.3c17.1,3.7,34.3,35.5,44.1,61.2c-8.6-26.9-26.9-63.6-46.5-67.3
				c-12.2-2.4-29.4,9.8-47.7,34.3c-26.9,34.3-35.5,68.5-26.9,94.2C-1406.4-3512.2-1396.6-3542.8-1372.1-3574.7z"/>
			<path d="M-1444.3-3659.1c29.4-51.4,73.4-71,105.3-79.6c49-12.2,104-4.9,142,17.1c9.8,6.1,17.1,17.1,22,30.6
				c-4.9-17.1-13.5-30.6-24.5-36.7c-37.9-23.3-93-29.4-142-17.1c-31.8,8.6-75.9,28.2-105.3,79.6c-7.3,12.2-22,15.9-33,8.6
				c-4.9-2.4-7.3-6.1-9.8-9.8c1.2,6.1,4.9,12.2,12.2,15.9C-1465.1-3644.4-1450.4-3648.1-1444.3-3659.1z"/>
			<path d="M-1124.9-3700.7c4.9,18.4,7.3,39.2,7.3,61.2c-2.4,77.1-41.6,173.8-124.8,219.1c-31.8,17.1-61.2,24.5-88.1,24.5
				c-41.6,0-75.9-17.1-95.5-41.6c-7.3-8.6-13.5-19.6-18.4-30.6c4.9,14.7,11,26.9,20.8,36.7c20.8,24.5,55.1,41.6,95.5,41.6
				c26.9,0,57.5-7.3,88.1-24.5c83.2-45.3,122.4-143.2,124.8-219.1C-1116.3-3659.1-1118.7-3681.1-1124.9-3700.7z"/>
		</g>
		<g>
			<path fill="#535353" d="M-1306-3595.5c12.2,15.9,23.3,40.4,28.2,58.8c1.2,6.1,6.1,12.2,12.2,14.7c-1.2-1.2-2.4-3.7-2.4-6.1
				C-1274.2-3550.2-1288.9-3582-1306-3595.5z"/>
			<path fill="#535353" d="M-1257-3447.4c66.1-35.5,97.9-115.1,99.1-177.5c1.2-39.2-9.8-71-28.2-84.5c12.2,15.9,19.6,42.8,18.4,75.9
				c-1.2,62.4-33,142-99.1,177.5c-49,26.9-91.8,20.8-115.1,2.4c0,0,0,1.2,1.2,1.2C-1359.9-3429-1312.1-3416.8-1257-3447.4z"/>
			<path fill="#535353" d="M-1478.6-3675c30.6-51.4,77.1-86.9,135.9-102.8c61.2-15.9,129.7-7.3,179.9,23.3c3.7,2.4,7.3,4.9,11,8.6
				c-6.1-7.3-13.5-13.5-20.8-17.1c-49-29.4-117.5-39.2-179.9-23.3c-58.8,14.7-106.5,50.2-135.9,102.8c-7.3,12.2-2.4,26.9,8.6,33l0,0
				C-1482.3-3657.9-1482.3-3667.7-1478.6-3675z"/>
			<path fill="#535353" d="M-1417.4-3421.7c-30.6-35.5-42.8-100.4,14.7-175c31.8-40.4,64.9-58.8,96.7-51.4
				c13.5,2.4,25.7,9.8,35.5,18.4c-12.2-13.5-26.9-24.5-44.1-28.2c-31.8-6.1-64.9,11-96.7,51.4c-57.5,73.4-45.3,138.3-14.7,175
				c3.7,3.7,6.1,7.3,9.8,11C-1417.4-3420.4-1417.4-3421.7-1417.4-3421.7z"/>
		</g>
	</g>
	<g id="眼睛4" display="inline">
		<path fill="#F6F3F0" d="M1706.3-3563.6c0,128.5-73.4,215.4-164,215.4s-164-86.9-164-215.4s73.4-249.7,164-249.7
			S1706.3-3692.2,1706.3-3563.6z"/>
		<path fill="#E6E6E6" d="M1637.7-3733.8c18.4,40.4,29.4,89.4,29.4,138.3c0,128.5-73.4,215.4-164,215.4
			c-51.4,0-96.7-26.9-126.1-74.7c28.2,64.9,80.8,104,142,104c90.6,0,164-86.9,164-215.4C1683-3627.3,1665.9-3687.3,1637.7-3733.8z"
			/>
		<path fill="#FFFFFF" d="M1405.2-3506.1c0-128.5,73.4-249.7,164-249.7c42.8,0,82,28.2,111.4,71c-29.4-66.1-78.3-111.4-134.6-111.4
			c-90.6,0-164,121.2-164,249.7c0,60,15.9,111.4,42.8,149.3C1412.5-3430.2,1405.2-3465.7,1405.2-3506.1z"/>
		<path fill="#8C6239" d="M1542.2-3323.7c-107.7,0-188.5-102.8-188.5-239.9c0-148.1,85.7-274.2,188.5-274.2
			c102.8,0,188.5,126.1,188.5,274.2C1730.7-3426.6,1650-3323.7,1542.2-3323.7z M1542.2-3788.9c-72.2,0-139.5,107.7-139.5,225.2
			c0,110.2,58.8,190.9,139.5,190.9s139.5-80.8,139.5-190.9C1681.8-3681.1,1615.7-3788.9,1542.2-3788.9z"/>
		<g>
			<path fill="#744D28" d="M1402.7-3564.9c0-117.5,66.1-225.2,139.5-225.2c47.7,0,93,46.5,118.7,112.6
				c-23.3-73.4-72.2-126.1-123.6-126.1c-72.2,0-139.5,107.7-139.5,225.2c0,35.5,6.1,68.5,17.1,96.7
				C1406.4-3507.3,1402.7-3535.5,1402.7-3564.9z"/>
			<path fill="#744D28" d="M1706.3-3695.8c12.2,35.5,18.4,74.7,18.4,116.3c0,137.1-80.8,239.9-188.5,239.9
				c-75.9,0-139.5-52.6-168.9-132.2c26.9,86.9,93,145.7,173.8,145.7c107.7,0,188.5-102.8,188.5-239.9
				C1729.5-3612.6,1720.9-3656.7,1706.3-3695.8z"/>
		</g>
		<g>
			<path fill="#AA8561" d="M1552-3360.5c80.8,0,139.5-80.8,139.5-190.9c0-77.1-28.2-148.1-67.3-189.7
				c34.3,42.8,57.5,107.7,57.5,177.5c0,110.2-58.8,190.9-139.5,190.9c-33,0-62.4-13.5-85.7-37.9
				C1481-3378.8,1514.1-3360.5,1552-3360.5z"/>
			<path fill="#AA8561" d="M1364.8-3551.4c0-148.1,85.7-274.2,188.5-274.2c40.4,0,78.3,19.6,108.9,52.6c-33-40.4-74.7-64.9-120-64.9
				c-101.6,0-188.5,126.1-188.5,274.2c0,77.1,25.7,143.2,67.3,187.3C1385.6-3419.2,1364.8-3480.4,1364.8-3551.4z"/>
		</g>
		<path d="M1433.3-3500c-28.2,47.7-34.3,101.6-22,151.8c-26.9-50.2-29.4-112.6,1.2-162.8c29.4-50.2,83.2-77.1,139.5-78.3
			C1504.3-3577.1,1461.5-3545.3,1433.3-3500z"/>
		<path fill="#F6F3F0" d="M2179.9-3563.6c0,128.5-73.4,215.4-164,215.4c-90.6,0-164-86.9-164-215.4s73.4-249.7,164-249.7
			C2106.5-3813.3,2179.9-3692.2,2179.9-3563.6z"/>
		<path fill="#E6E6E6" d="M2118.7-3742.3c18.4,40.4,29.4,89.4,29.4,138.3c0,128.5-73.4,215.4-164,215.4
			c-51.4,0-96.7-26.9-126.1-74.7c28.2,64.9,80.8,104,142,104c90.6,0,164-86.9,164-215.4C2164-3637.1,2146.9-3697.1,2118.7-3742.3z"
			/>
		<path fill="#FFFFFF" d="M1886.2-3515.9c0-128.5,73.4-249.7,164-249.7c42.8,0,82,28.2,111.4,71c-29.4-66.1-78.3-111.4-134.6-111.4
			c-90.6,0-164,121.2-164,249.7c0,60,15.9,111.4,42.8,149.3C1893.5-3438.8,1886.2-3475.5,1886.2-3515.9z"/>
		<path fill="#333333" d="M2015.9-3323.7c-107.7,0-188.5-102.8-188.5-239.9c0-148.1,85.7-274.2,188.5-274.2s188.5,126.1,188.5,274.2
			C2204.4-3426.6,2122.4-3323.7,2015.9-3323.7z M2015.9-3788.9c-72.2,0-139.5,107.7-139.5,225.2c0,110.2,58.8,190.9,139.5,190.9
			s139.5-80.8,139.5-190.9C2155.5-3681.1,2088.1-3788.9,2015.9-3788.9z"/>
		<g>
			<path d="M1876.4-3564.9c0-117.5,66.1-225.2,139.5-225.2c47.7,0,93,46.5,118.7,112.6c-23.3-73.4-72.2-126.1-123.6-126.1
				c-72.2,0-139.5,107.7-139.5,225.2c0,35.5,6.1,68.5,17.1,96.7C1881.3-3507.3,1876.4-3535.5,1876.4-3564.9z"/>
			<path d="M2179.9-3695.8c12.2,35.5,18.4,74.7,18.4,116.3c0,137.1-80.8,239.9-188.5,239.9c-75.9,0-139.5-52.6-168.9-132.2
				c26.9,86.9,93,145.7,173.8,145.7c107.7,0,188.5-102.8,188.5-239.9C2203.2-3612.6,2194.6-3656.7,2179.9-3695.8z"/>
		</g>
		<g>
			<path fill="#535353" d="M2026.9-3360.5c80.8,0,139.5-80.8,139.5-190.9c0-77.1-28.2-148.1-67.3-189.7
				c34.3,42.8,57.5,107.7,57.5,177.5c0,110.2-58.8,190.9-139.5,190.9c-33,0-62.4-13.5-85.7-37.9
				C1954.7-3378.8,1987.8-3360.5,2026.9-3360.5z"/>
			<path fill="#535353" d="M1838.4-3551.4c0-148.1,85.7-274.2,188.5-274.2c40.4,0,78.3,19.6,108.9,52.6c-33-40.4-74.7-64.9-120-64.9
				c-101.6,0-188.5,126.1-188.5,274.2c0,77.1,25.7,143.2,67.3,187.3C1860.5-3419.2,1838.4-3480.4,1838.4-3551.4z"/>
		</g>
		<path d="M2115.1-3502.4c37.9,40.4,56.3,91.8,55.1,143.2c15.9-55.1,3.7-116.3-36.7-159.1c-40.4-41.6-97.9-57.5-153-45.3
			C2028.2-3562.4,2077.1-3541.6,2115.1-3502.4z"/>
	</g>
	<g id="眼睛5" display="inline">
		<path fill="#F6F3F0" d="M-3250.9-3299.3c0,122.4-86.9,233.8-193.4,233.8c-107.7,0-193.4-88.1-193.4-211.8s86.9-233.8,193.4-233.8
			C-3337.8-3511-3250.9-3422.9-3250.9-3299.3z"/>
		<path fill="#E6E6E6" d="M-3295-3437.6c13.5,28.2,20.8,61.2,20.8,96.7c0,122.4-86.9,233.8-193.4,233.8
			c-61.2,0-116.3-29.4-151.8-78.3c31.8,69.8,97.9,115.1,173.8,115.1c107.7,0,193.4-110.2,193.4-233.8
			C-3252.2-3355.6-3268.1-3402.1-3295-3437.6z"/>
		<g>
			<path fill="#29ABE2" d="M-3438.2-3129.1c-57.5,0-112.6-12.2-144.4-37.9c26.9,42.8,72.2,75.9,137.1,75.9
				c58.8,0,100.4-35.5,124.8-69.8C-3352.5-3141.4-3392.9-3129.1-3438.2-3129.1z"/>
		</g>
		<path fill="#1498C6" d="M-3372.1-3137.7c-28.2,19.6-60,30.6-94.2,30.6c-28.2,0-55.1-6.1-78.3-17.1c25.7,20.8,60,34.3,101.6,34.3
			c58.8,0,100.4-35.5,124.8-69.8C-3334.2-3151.2-3352.5-3142.6-3372.1-3137.7z"/>
		<path fill="#FFFFFF" d="M-3614.5-3202.6c0-122.4,86.9-233.8,193.4-233.8c68.5,0,127.3,35.5,162.8,93
			c-18.4-99.1-96.7-166.5-189.7-166.5c-107.7,0-193.4,110.2-193.4,233.8c0,45.3,12.2,85.7,31.8,118.7
			C-3613.2-3172-3614.5-3187.9-3614.5-3202.6z"/>
		<path fill="#8C6239" d="M-3445.6-3041c-122.4,0-217.9-104-217.9-236.2c0-139.5,100.4-258.3,217.9-258.3
			c122.4,0,217.9,104,217.9,236.2C-3226.5-3159.7-3326.8-3041-3445.6-3041z M-3445.6-3486.5c-90.6,0-168.9,97.9-168.9,209.3
			c0,106.5,73.4,187.3,168.9,187.3c90.6,0,168.9-97.9,168.9-209.3C-3275.4-3405.7-3348.9-3486.5-3445.6-3486.5z"/>
		<g>
			<path fill="#744D28" d="M-3545.9-3124.2c-42.8-33-69.8-88.1-69.8-153c0-111.4,79.6-209.3,168.9-209.3c35.5,0,67.3,11,94.2,30.6
				c-28.2-22-62.4-34.3-100.4-34.3c-90.6,0-168.9,97.9-168.9,209.3C-3620.6-3214.8-3591.2-3157.3-3545.9-3124.2z"/>
			<path fill="#744D28" d="M-3323.2-3496.3c55.1,42.8,90.6,112.6,90.6,192.2c0,139.5-100.4,258.3-217.9,258.3
				c-45.3,0-86.9-14.7-122.4-39.2c35.5,26.9,79.6,42.8,127.3,42.8c118.7,0,217.9-118.7,217.9-258.3
				C-3226.5-3382.5-3264.4-3454.7-3323.2-3496.3z"/>
		</g>
		<g>
			<path fill="#AA8561" d="M-3652.4-3267.4c0-139.5,100.4-258.3,217.9-258.3c51.4,0,97.9,18.4,134.6,50.2
				c-37.9-36.7-89.4-60-146.9-60c-118.7,0-217.9,118.7-217.9,258.3c0,77.1,31.8,143.2,83.2,186
				C-3625.5-3134-3652.4-3196.4-3652.4-3267.4z"/>
			<path fill="#AA8561" d="M-3330.5-3438.8c34.3,34.3,55.1,83.2,55.1,139.5c0,111.4-79.6,209.3-168.9,209.3
				c-39.2,0-74.7-13.5-104-36.7c29.4,29.4,69.8,47.7,115.1,47.7c90.6,0,168.9-97.9,168.9-209.3
				C-3265.6-3351.9-3290.1-3405.7-3330.5-3438.8z"/>
		</g>
		<g>
			<circle cx="-3445.6" cy="-3269.9" r="19.6"/>
		</g>
		<path fill="#F6F3F0" d="M-3165.3-3273.6c8.6,108.9,93,202,187.3,194.6c95.5-7.3,166.5-91.8,157.9-200.7
			c-8.6-108.9-93-202-187.3-194.6C-3101.6-3466.9-3173.8-3382.5-3165.3-3273.6z"/>
		<path fill="#E6E6E6" d="M-2834.8-3277.2c-6.1-82-55.1-154.2-118.7-182.4c51.4,34.3,88.1,97.9,94.2,168.9
			c8.6,108.9-63.6,193.4-157.9,200.7c-24.5,1.2-47.7-2.4-69.8-12.2c28.2,18.4,60,29.4,94.2,26.9
			C-2898.4-3083.8-2826.2-3168.3-2834.8-3277.2z"/>
		<path fill="#FFFFFF" d="M-3123.6-3231.9c-8.6-108.9,63.6-193.4,157.9-200.7c40.4-2.4,79.6,12.2,110.2,39.2
			c-35.5-49-88.1-79.6-144.4-75.9c-95.5,7.3-166.5,91.8-157.9,200.7c4.9,62.4,34.3,120,77.1,155.4
			C-3104.1-3146.3-3120-3187.9-3123.6-3231.9z"/>
		<path fill="#29ABE2" d="M-2987.8-3134c51.4-3.7,99.1-18.4,126.1-42.8c-20.8,40.4-60,72.2-117.5,77.1
			c-52.6,3.7-91.8-24.5-116.3-53.9C-3064.9-3138.9-3028.2-3130.3-2987.8-3134z"/>
		<path fill="#1498C6" d="M-2860.5-3176.9c-9.8,8.6-22,15.9-36.7,22c-18.4,24.5-44.1,42.8-72.2,52.6
			C-2915.6-3108.3-2880.1-3138.9-2860.5-3176.9z"/>
		<circle cx="-2991.5" cy="-3260.1" r="17.1"/>
		<path fill="#333333" d="M-2987.8-3053.2c-101.6,0-193.4-96.7-202-217.9c-4.9-58.8,12.2-113.8,45.3-155.4
			c34.3-41.6,82-67.3,134.6-71c106.5-7.3,204.4,91.8,214.2,217.9c4.9,58.8-12.2,113.8-45.3,155.4c-34.3,41.6-82,67.3-134.6,71
			C-2980.4-3053.2-2984.1-3053.2-2987.8-3053.2z M-2997.6-3449.8c-2.4,0-4.9,0-8.6,0c-39.2,2.4-75.9,22-100.4,52.6
			c-25.7,31.8-39.2,75.9-35.5,121.2c7.3,97.9,83.2,178.7,161.6,172.6c39.2-2.4,75.9-22,100.4-52.6c25.7-31.8,39.2-75.9,35.5-121.2
			C-2850.7-3371.5-2921.7-3449.8-2997.6-3449.8z"/>
		<g>
			<path d="M-2794.4-3280.9c-4.9-72.2-40.4-135.9-88.1-175c45.3,40.4,75.9,100.4,82,168.9c4.9,58.8-12.2,113.8-45.3,155.4
				c-34.3,41.6-82,67.3-134.6,71c-3.7,0-7.3,0-12.2,0c-42.8,0-83.2-17.1-116.3-45.3c34.3,31.8,78.3,51.4,123.6,51.4
				c3.7,0,7.3,0,12.2,0c53.9-3.7,101.6-29.4,134.6-71C-2806.6-3167.1-2790.7-3222.1-2794.4-3280.9z"/>
			<path d="M-3077.1-3140.1c-34.3-31.8-60-80.8-63.6-134.6c-3.7-46.5,8.6-89.4,35.5-121.2c25.7-31.8,61.2-50.2,100.4-52.6
				c2.4,0,4.9,0,8.6,0c28.2,0,56.3,11,79.6,29.4c-25.7-22-56.3-35.5-86.9-35.5c-2.4,0-4.9,0-8.6,0c-39.2,2.4-75.9,22-100.4,52.6
				c-25.7,31.8-39.2,75.9-35.5,121.2C-3143.2-3223.4-3115.1-3172-3077.1-3140.1z"/>
		</g>
		<g>
			<path fill="#535353" d="M-2914.3-3418c37.9,31.8,66.1,83.2,69.8,140.8c3.7,46.5-8.6,89.4-35.5,121.2
				c-25.7,31.8-61.2,50.2-100.4,52.6c-28.2,2.4-55.1-7.3-79.6-23.3c26.9,22,58.8,34.3,91.8,31.8c39.2-2.4,75.9-22,100.4-52.6
				c25.7-31.8,39.2-75.9,35.5-121.2C-2836-3332.3-2869.1-3387.4-2914.3-3418z"/>
			<path fill="#535353" d="M-3177.5-3262.5c-4.9-58.8,12.2-113.8,45.3-155.4c34.3-41.6,82-67.3,134.6-71
				c39.2-2.4,78.3,8.6,111.4,31.8c-35.5-28.2-78.3-44.1-123.6-40.4c-53.9,3.7-101.6,29.4-134.6,71c-34.3,41.6-50.2,97.9-45.3,155.4
				c6.1,78.3,46.5,146.9,101.6,184.8C-3137.1-3126.7-3172.6-3190.3-3177.5-3262.5z"/>
		</g>
	</g>
	<g id="眼睛6" display="inline">
		<path fill="#F6F3F0" d="M-437-3425.3c0,108.9-74.7,179.9-166.5,179.9s-167.7-71-167.7-179.9s74.7-213,166.5-213
			S-437-3533-437-3425.3z"/>
		<path fill="#E6E6E6" d="M-454.1-3478c0,4.9,1.2,11,1.2,15.9c0,108.9-82,179.9-182.4,179.9c-34.3,0-67.3-8.6-94.2-24.5
			c29.4,28.2,68.5,44.1,112.6,44.1c91.8,0,166.5-71,166.5-179.9C-451.7-3453.5-452.9-3465.7-454.1-3478z"/>
		<path fill="#FFFFFF" d="M-730.7-3387.4c0-108.9,74.7-213,166.5-213c19.6,0,39.2,4.9,56.3,13.5c-25.7-22-56.3-36.7-90.6-36.7
			c-91.8,0-166.5,105.3-166.5,213c0,77.1,37.9,134.6,93,161.6C-707.5-3279.7-730.7-3328.6-730.7-3387.4z"/>
		<path fill="#8C6239" d="M-603.4-3222.1c-110.2,0-178.7-85.7-178.7-203.2c0-126.1,77.1-213,178.7-213s178.7,86.9,178.7,213
			C-424.7-3306.6-493.3-3222.1-603.4-3222.1z M-603.4-3615c-74.7,0-143.2,90.6-143.2,189.7c0,90.6,60,155.4,143.2,155.4
			s143.2-64.9,143.2-155.4C-460.2-3524.5-528.8-3615-603.4-3615z"/>
		<g>
			<path fill="#744D28" d="M-482.3-3584.4c31.8,37.9,50.2,90.6,50.2,153c0,117.5-68.5,203.2-178.7,203.2
				c-52.6,0-94.2-19.6-124.8-51.4c30.6,36.7,75.9,58.8,131,58.8c110.2,0,178.7-85.7,178.7-203.2
				C-424.7-3491.4-446.8-3546.5-482.3-3584.4z"/>
			<path fill="#744D28" d="M-609.6-3619.9c-74.7,0-143.2,90.6-143.2,189.7c0,46.5,15.9,86.9,44.1,115.1
				c-23.3-26.9-37.9-64.9-37.9-107.7c0-99.1,68.5-189.7,143.2-189.7c31.8,0,61.2,15.9,85.7,41.6
				C-543.5-3601.6-576.5-3619.9-609.6-3619.9z"/>
		</g>
		<g>
			<path fill="#AA8561" d="M-597.3-3261.3c83.2,0,143.2-64.9,143.2-155.4c0-57.5-23.3-111.4-56.3-146.9c29.4,35.5,49,85.7,49,138.3
				c0,90.6-60,155.4-143.2,155.4c-40.4,0-75.9-15.9-101.6-41.6C-679.3-3280.9-641.4-3261.3-597.3-3261.3z"/>
			<path fill="#AA8561" d="M-776-3416.8c0-126.1,77.1-213,178.7-213c49,0,90.6,19.6,122.4,53.9c-31.8-39.2-78.3-62.4-129.7-62.4
				c-101.6,0-178.7,86.9-178.7,213c0,61.2,18.4,113.8,52.6,150.6C-760.1-3310.3-776-3360.5-776-3416.8z"/>
		</g>
		<circle cx="-599.8" cy="-3435.1" r="19.6"/>
		<path fill="#F6F3F0" d="M-159.1-3633.4c-83.2,0-159.1,100.4-159.1,209.3c0,99.1,67.3,171.4,159.1,171.4S0-3325,0-3424.1
			C0-3534.3-75.9-3633.4-159.1-3633.4z"/>
		<path fill="#FFFFFF" d="M-282.7-3380c0-110.2,75.9-209.3,159.1-209.3c30.6,0,61.2,13.5,86.9,36.7c-29.4-42.8-71-71-115.1-71
			c-83.2,0-159.1,100.4-159.1,209.3c0,56.3,22,104,57.5,134.6C-271.7-3306.6-282.7-3340.9-282.7-3380z"/>
		<path fill="#E6E6E6" d="M-47.7-3547.7c12.2,28.2,19.6,61.2,19.6,94.2c0,99.1-69.8,171.4-166.5,171.4c-31.8,0-60-7.3-84.5-22
			c25.7,20.8,58.8,31.8,95.5,31.8c91.8,0,159.1-72.2,159.1-171.4C-23.3-3480.4-33-3515.9-47.7-3547.7z"/>
		<path fill="#333333" d="M-159.1-3234.4c-106.5,0-171.4-83.2-171.4-197.1c0-124.8,73.4-209.3,171.4-209.3s171.4,83.2,171.4,209.3
			C12.2-3317.6-52.6-3234.4-159.1-3234.4z M-159.1-3615c-68.5,0-133.4,89.4-133.4,183.6c0,85.7,55.1,145.7,133.4,145.7
			s133.4-60,133.4-145.7C-25.7-3525.7-90.6-3615-159.1-3615z"/>
		<g>
			<path d="M-255.8-3328.6c-23.3-25.7-36.7-62.4-36.7-105.3c0-94.2,64.9-183.6,133.4-183.6c24.5,0,47.7,11,68.5,30.6
				c-22-24.5-50.2-39.2-78.3-39.2c-68.5,0-133.4,89.4-133.4,183.6C-302.3-3393.5-285.2-3354.3-255.8-3328.6z"/>
			<path d="M-52.6-3600.4c34.3,36.7,55.1,91.8,55.1,159.1c0,115.1-64.9,197.1-171.4,197.1c-45.3,0-83.2-14.7-111.4-40.4
				c29.4,31.8,69.8,50.2,120,50.2c106.5,0,171.4-83.2,171.4-197.1C11-3506.1-13.5-3563.6-52.6-3600.4z"/>
		</g>
		<g>
			<path fill="#535353" d="M-153-3278.4c78.3,0,133.4-60,133.4-145.7c0-50.2-18.4-97.9-45.3-132.2c23.3,34.3,39.2,78.3,39.2,124.8
				c0,85.7-55.1,145.7-133.4,145.7c-41.6,0-77.1-17.1-100.4-46.5C-236.2-3299.3-198.3-3278.4-153-3278.4z"/>
			<path fill="#535353" d="M-324.4-3425.3c0-124.8,73.4-209.3,171.4-209.3c51.4,0,96.7,23.3,127.3,63.6
				c-30.6-45.3-78.3-72.2-133.4-72.2c-97.9,0-171.4,84.5-171.4,209.3c0,53.9,14.7,101.6,41.6,135.9
				C-312.1-3331.1-324.4-3375.1-324.4-3425.3z"/>
		</g>
		<circle cx="-155.4" cy="-3442.5" r="19.6"/>
	</g>
	<g id="眼睛7" display="inline">
		<path fill="#F6F3F0" d="M-647.5-3409.4c61.2-3.7,112.6,13.5,148.1,56.3c8.6,9.8,20.8,0,15.9-12.2
			c-25.7-67.3-79.6-143.2-182.4-146.9c-91.8-3.7-143.2,53.9-167.7,120c-13.5,34.3,22,67.3,46.5,42.8
			C-750.3-3384.9-700.1-3407-647.5-3409.4z"/>
		<path fill="#E6E6E6" d="M-488.4-3372.7c-8.6-20.8-19.6-42.8-33-63.6c11,18.4,20.8,36.7,26.9,55.1c4.9,12.2-8.6,22-15.9,12.2
			c-35.5-41.6-86.9-58.8-148.1-56.3c-53.9,2.4-104,24.5-139.5,58.8c-13.5,12.2-29.4,9.8-39.2-1.2c8.6,18.4,29.4,26.9,45.3,11
			c35.5-34.3,85.7-56.3,139.5-58.8c61.2-3.7,112.6,13.5,148.1,56.3C-496.9-3350.7-484.7-3360.5-488.4-3372.7z"/>
		<path fill="#FFFFFF" d="M-815.2-3372.7c24.5-66.1,75.9-124.8,167.7-120c37.9,1.2,68.5,13.5,94.2,29.4
			c-28.2-24.5-64.9-41.6-112.6-42.8c-91.8-3.7-143.2,53.9-167.7,120c-8.6,23.3,4.9,46.5,22,50.2
			C-817.6-3345.8-820.1-3359.2-815.2-3372.7z"/>
		<path fill="#8C6239" d="M-805.4-3329.9c-7.3,0-14.7-2.4-20.8-6.1c-15.9-11-28.2-35.5-18.4-61.2c31.8-86.9,96.7-132.2,179.9-128.5
			c88.1,3.7,156.7,58.8,193.4,155.4c4.9,11,0,24.5-9.8,30.6c-9.8,4.9-20.8,3.7-26.9-4.9c-30.6-36.7-78.3-55.1-138.3-51.4l0,0
			c-49,2.4-97.9,23.3-132.2,56.3C-785.8-3333.5-795.6-3329.9-805.4-3329.9z M-674.4-3501.2c-86.9,0-127.3,61.2-146.9,112.6
			c-4.9,13.5,0,26.9,8.6,31.8c4.9,2.4,11,4.9,18.4-2.4c37.9-36.7,91.8-60,148.1-62.4c62.4-3.7,113.8,14.7,149.3,51.4
			c-24.5-60-73.4-126.1-167.7-131C-669.5-3501.2-672-3501.2-674.4-3501.2z"/>
		<g>
			<path fill="#744D28" d="M-822.5-3388.6c19.6-51.4,61.2-112.6,146.9-112.6c2.4,0,6.1,0,8.6,0c91.8,3.7,139.5,67.3,165.2,124.8l0,0
				c-24.5-60-73.4-126.1-167.7-131c-2.4,0-6.1,0-8.6,0c-86.9,0-127.3,61.2-146.9,112.6c-3.7,8.6-2.4,17.1,1.2,23.3
				C-825-3375.1-825-3382.5-822.5-3388.6z"/>
			<path fill="#744D28" d="M-471.2-3370.2c0-1.2-1.2-2.4-2.4-4.9c3.7,11,0,23.3-9.8,29.4c-9.8,4.9-20.8,3.7-26.9-4.9
				c-30.6-36.7-78.3-55.1-138.3-51.4c-49,2.4-97.9,23.3-132.2,56.3c-8.6,7.3-17.1,11-26.9,11c-7.3,0-14.7-2.4-20.8-6.1
				c-7.3-4.9-13.5-12.2-17.1-20.8c3.7,11,11,20.8,19.6,25.7c6.1,4.9,13.5,6.1,20.8,6.1c9.8,0,19.6-3.7,26.9-11
				c34.3-33,82-53.9,132.2-56.3c60-3.7,107.7,14.7,138.3,51.4c7.3,8.6,18.4,11,26.9,4.9C-471.2-3347-467.6-3359.2-471.2-3370.2z"/>
		</g>
		<g>
			<path fill="#AA8561" d="M-809.1-3350.7c4.9,2.4,11,4.9,18.4-2.4c37.9-36.7,91.8-60,148.1-62.4c62.4-3.7,113.8,14.7,149.3,51.4
				c-9.8-23.3-23.3-47.7-41.6-69.8c15.9,19.6,28.2,41.6,36.7,63.6c-35.5-36.7-86.9-53.9-149.3-51.4c-55.1,2.4-108.9,25.7-148.1,62.4
				c-7.3,7.3-13.5,4.9-18.4,2.4c-1.2,0-1.2-1.2-1.2-1.2C-814-3355.6-811.5-3353.1-809.1-3350.7z"/>
			<path fill="#AA8561" d="M-839.7-3392.3c31.8-86.9,96.7-132.2,179.9-128.5c58.8,2.4,107.7,28.2,145.7,72.2
				c-37.9-49-90.6-75.9-150.6-78.3c-83.2-3.7-148.1,41.6-179.9,128.5c-8.6,22-1.2,42.8,11,55.1
				C-843.3-3355.6-847-3372.7-839.7-3392.3z"/>
		</g>
		<path d="M-779.7-3460.8c8.6,17.1,28.2,25.7,41.6,15.9c14.7-8.6,18.4-31.8,11-49C-744.2-3489-765-3480.4-779.7-3460.8z"/>
		<path fill="#F6F3F0" d="M-116.3-3411.9c-61.2-3.7-112.6,13.5-148.1,56.3c-8.6,9.8-20.8,0-15.9-12.2
			c25.7-67.3,79.6-143.2,182.4-146.9c91.8-3.7,143.2,53.9,167.7,120c13.5,34.3-22,67.3-46.5,42.8
			C-12.2-3387.4-63.6-3409.4-116.3-3411.9z"/>
		<path fill="#E6E6E6" d="M75.9-3397.2c-1.2-4.9-3.7-8.6-4.9-13.5c3.7,30.6-26.9,55.1-49,33c-35.5-34.3-85.7-56.3-139.5-58.8
			c-61.2-3.7-112.6,13.5-148.1,56.3c-1.2,2.4-3.7,3.7-6.1,3.7c-1.2,2.4-2.4,4.9-2.4,7.3c-4.9,12.2,8.6,22,15.9,12.2
			c35.5-41.6,86.9-58.8,148.1-56.3c53.9,2.4,104,24.5,139.5,58.8C53.9-3329.9,89.4-3361.7,75.9-3397.2z"/>
		<path fill="#FFFFFF" d="M-259.5-3360.5c28.2-62.4,80.8-126.1,176.3-131c69.8-3.7,115.1,29.4,144.4,73.4
			c-26.9-56.3-77.1-101.6-157.9-97.9c-104,4.9-156.7,80.8-182.4,146.9c-4.9,12.2,8.6,22,15.9,12.2
			C-263.2-3358-261.9-3359.2-259.5-3360.5z"/>
		<path fill="#333333" d="M41.6-3332.3c-9.8,0-19.6-3.7-26.9-11c-34.3-33-82-53.9-132.2-56.3l0,0c-60-3.7-107.7,14.7-138.3,51.4
			c-7.3,8.6-18.4,11-26.9,4.9c-9.8-6.1-13.5-18.4-9.8-30.6c36.7-96.7,105.3-151.8,193.4-155.4c84.5-3.7,148.1,41.6,179.9,128.5
			c9.8,25.7-1.2,50.2-18.4,61.2C56.3-3333.5,49-3332.3,41.6-3332.3z M-131-3424.1c4.9,0,9.8,0,14.7,0l0,0
			c55.1,2.4,108.9,25.7,148.1,62.4c7.3,7.3,13.5,4.9,18.4,2.4c8.6-4.9,13.5-18.4,8.6-31.8c-19.6-53.9-63.6-116.3-155.4-112.6
			c-94.2,3.7-143.2,72.2-168.9,131C-232.6-3407-186-3424.1-131-3424.1z"/>
		<g>
			<path d="M-97.9-3502.4c93-3.7,135.9,58.8,155.4,112.6v1.2c0-3.7,0-7.3-2.4-11c-19.6-53.9-63.6-116.3-155.4-112.6
				c-94.2,3.7-143.2,72.2-168.9,131c3.7-3.7,6.1-6.1,9.8-9.8C-231.3-3443.7-182.4-3498.8-97.9-3502.4z"/>
			<path d="M83.2-3392.3c1.2,19.6-8.6,36.7-20.8,45.3c-6.1,4.9-13.5,6.1-20.8,6.1c-9.8,0-19.6-3.7-26.9-11
				c-34.3-33-82-53.9-132.2-56.3c-60-3.7-107.7,14.7-138.3,51.4c-7.3,8.6-18.4,11-26.9,4.9c-4.9-2.4-8.6-7.3-9.8-12.2
				c0,8.6,3.7,17.1,11,20.8c9.8,4.9,20.8,3.7,26.9-4.9c30.6-36.7,78.3-55.1,138.3-51.4c49,2.4,97.9,23.3,132.2,56.3
				c8.6,7.3,17.1,11,26.9,11c7.3,0,14.7-2.4,20.8-6.1C78.3-3347,89.4-3369,83.2-3392.3z"/>
		</g>
		<g>
			<path fill="#535353" d="M-116.3-3422.9c-4.9,0-9.8,0-14.7,0c-47.7,0-89.4,13.5-121.2,39.2c-2.4,6.1-6.1,12.2-8.6,18.4
				c33-34.3,79.6-51.4,135.9-51.4c4.9,0,9.8,0,14.7,0c47.7,2.4,94.2,19.6,131,49C-15.9-3400.8-64.9-3420.4-116.3-3422.9z"/>
			<path fill="#535353" d="M8.6-3466.9c24.5,22,40.4,50.2,50.2,77.1c4.9,13.5,0,26.9-8.6,31.8c-3.7,2.4-9.8,3.7-15.9,0
				c1.2,1.2,2.4,1.2,3.7,2.4c7.3,7.3,13.5,4.9,18.4,2.4c8.6-4.9,13.5-18.4,8.6-31.8C53.9-3414.3,36.7-3444.9,8.6-3466.9z"/>
			<path fill="#535353" d="M-286.4-3367.8c36.7-96.7,105.3-151.8,193.4-155.4c45.3-2.4,84.5,11,116.3,35.5
				c-33-29.4-74.7-42.8-122.4-41.6c-88.1,3.7-156.7,58.8-193.4,155.4c-4.9,11,0,24.5,9.8,30.6l0,0
				C-287.6-3348.2-290.1-3358-286.4-3367.8z"/>
			<path fill="#535353" d="M6.1-3350.7c2.4,2.4,6.1,4.9,8.6,7.3c1.2,1.2,2.4,1.2,3.7,2.4C14.7-3344.5,9.8-3347,6.1-3350.7z"/>
		</g>
		<path d="M15.9-3463.3c-8.6,17.1-28.2,25.7-41.6,15.9c-14.7-8.6-18.4-31.8-11-49C-19.6-3490.2,2.4-3482.9,15.9-3463.3z"/>
	</g>
</g>
<g id="嘴巴" display="none">
	<g id="嘴巴1" display="inline">
		<g>
			<g>
				<path fill="#8C6239" d="M310.9,473.1c-23.3,0-45.3-6.1-52.6-13.5c-11-11-4.9-28.2,1.2-40.4c-11-11-28.2-31.8-29.4-52.6
					c0-11,3.7-19.6,11-26.9c23.3-23.3,75.9-22,104-17.1c20.8,3.7,33,11,36.7,20.8c8.6,20.8-8.6,51.4-20.8,68.5
					c6.1,6.1,13.5,14.7,13.5,24.5c0,7.3-2.4,17.1-14.7,25.7C346.4,469.4,328,473.1,310.9,473.1z M275.4,442.5
					c9.8,4.9,50.2,11,69.8-2.4c3.7-2.4,3.7-3.7,3.7-3.7c0-2.4-6.1-8.6-12.2-12.2l-12.2-7.3l8.6-11c14.7-18.4,28.2-45.3,24.5-53.9
					c-2.4-2.4-18.4-8.6-44.1-8.6c-25.7-1.2-47.7,4.9-56.3,12.2c-2.4,2.4-3.7,4.9-3.7,8.6c0,13.5,18.4,33,28.2,41.6l8.6,7.3l-6.1,8.6
					C280.3,430.3,276.6,438.8,275.4,442.5z"/>
			</g>
			<g>
				<path fill="#744D28" d="M270.5,440.1c1.2,1.2,2.4,1.2,4.9,2.4c1.2-4.9,4.9-12.2,8.6-19.6l6.1-8.6l-8.6-7.3
					c-11-8.6-28.2-28.2-28.2-41.6c0-3.7,1.2-6.1,3.7-8.6c8.6-8.6,30.6-13.5,56.3-12.2c18.4,0,31.8,3.7,39.2,6.1l0,0
					c-2.4-2.4-18.4-8.6-44.1-8.6c-25.7-1.2-47.7,4.9-56.3,12.2c-2.4,2.4-3.7,4.9-3.7,8.6c0,13.5,18.4,33,28.2,41.6l8.6,7.3l-6.1,8.6
					C275.4,427.8,271.7,436.4,270.5,440.1z"/>
				<path fill="#744D28" d="M380.7,343.4c-2.4-6.1-7.3-11-15.9-14.7c4.9,3.7,8.6,7.3,11,11c8.6,20.8-8.6,51.4-20.8,68.5
					c6.1,6.1,13.5,14.7,13.5,24.5c0,7.3-2.4,17.1-14.7,25.7c-12.2,8.6-30.6,12.2-49,12.2c-17.1,0-34.3-3.7-45.3-8.6
					c9.8,6.1,29.4,11,50.2,11c17.1,0,35.5-3.7,49-12.2c12.2-8.6,14.7-18.4,14.7-25.7c0-9.8-7.3-18.4-13.5-24.5
					C372.1,394.8,389.2,364.2,380.7,343.4z"/>
			</g>
			<path fill="#AA8561" d="M260.7,462.1c-11-11-4.9-28.2,1.2-40.4c-11-11-28.2-31.8-29.4-52.6c0-11,3.7-19.6,11-26.9
				c23.3-23.3,75.9-22,104-17.1c11,2.4,19.6,4.9,25.7,8.6c-6.1-4.9-15.9-8.6-29.4-12.2c-28.2-6.1-80.8-6.1-104,17.1
				c-7.3,7.3-11,17.1-11,26.9c1.2,20.8,18.4,41.6,29.4,52.6c-6.1,12.2-12.2,29.4-1.2,40.4C258.3,460.9,259.5,462.1,260.7,462.1
				C261.9,463.3,260.7,462.1,260.7,462.1z"/>
			<path d="M293.8,413.1c0,0,12.2-45.3,30.6-1.2C324.4,411.9,312.1,457.2,293.8,413.1z"/>
		</g>
	</g>
	<g id="嘴巴2" display="inline">
		<g>
			<path fill="#8C6239" d="M168.9,429c0,0,241.1-24.5,261.9-66.1C430.8,363,531.2,426.6,168.9,429z"/>
			<path fill="#744D28" d="M430.8,363L430.8,363c12.2,11,58.8,61.2-248.5,64.9c-8.6,1.2-13.5,1.2-13.5,1.2
				C531.2,427.8,430.8,363,430.8,363z"/>
			<path fill="#AA8561" d="M433.3,365.4c0,0,2.4,2.4,6.1,4.9c-3.7-4.9-8.6-8.6-8.6-8.6c-22,41.6-261.9,66.1-261.9,66.1
				c11,0,22,0,31.8,0C265.6,420.5,416.2,398.4,433.3,365.4z"/>
		</g>
	</g>
	<g id="嘴巴3" display="inline">
		<g>
			<path fill="#F6F3F0" d="M443.1,342.1h-1.2c-7.3-39.2-41.6-67.3-83.2-67.3c-20.8,0-39.2,7.3-53.9,19.6c-7.3-4.9-15.9-8.6-24.5-8.6
				c-15.9,0-30.6,9.8-36.7,23.3c-4.9-1.2-11-2.4-15.9-2.4c-37.9,0-68.5,29.4-69.8,67.3l0,0c-29.4,0-52.6,23.3-52.6,52.6
				c0,29.4,23.3,52.6,52.6,52.6c3.7,0,8.6,0,12.2-1.2c9.8,11,24.5,18.4,40.4,18.4c7.3,0,13.5-1.2,19.6-3.7
				c12.2,14.7,30.6,23.3,51.4,23.3c22,0,41.6-11,55.1-26.9c7.3,3.7,14.7,6.1,23.3,6.1c19.6,0,36.7-11,45.3-28.2
				c11,7.3,24.5,12.2,39.2,12.2c37.9,0,68.5-30.6,68.5-68.5C511.6,374,481,342.1,443.1,342.1z"/>
			<g>
				<path fill="#FFFFFF" d="M487.2,385h1.2c4.9,0,9.8,0,14.7,1.2c-6.1-15.9-18.4-28.2-33-35.5C478.6,360.5,484.7,372.7,487.2,385z"
					/>
				<path fill="#FFFFFF" d="M149.3,469.4c0-29.4,23.3-52.6,52.6-52.6l0,0c1.2-37.9,31.8-67.3,69.8-67.3c6.1,0,11,1.2,15.9,2.4
					c6.1-13.5,20.8-23.3,36.7-23.3c9.8,0,17.1,3.7,24.5,8.6c14.7-12.2,33-19.6,53.9-19.6c9.8,0,18.4,1.2,25.7,4.9
					c-14.7-26.9-42.8-46.5-74.7-46.5c-20.8,0-39.2,7.3-53.9,19.6c-7.3-4.9-15.9-8.6-24.5-8.6c-15.9,0-30.6,9.8-36.7,23.3
					c-4.9-1.2-11-2.4-15.9-2.4c-37.9,0-68.5,29.4-69.8,67.3l0,0c-29.4,0-52.6,23.3-52.6,52.6c0,28.2,22,51.4,50.2,52.6
					C149.3,476.8,149.3,473.1,149.3,469.4z"/>
			</g>
			<path fill="#E6E6E6" d="M479.8,354.4c8.6,11,14.7,25.7,14.7,41.6c0,37.9-30.6,68.5-68.5,68.5c-14.7,0-28.2-4.9-39.2-12.2
				c-8.6,17.1-26.9,29.4-46.5,29.4c-8.6,0-17.1-2.4-23.3-6.1c-12.2,15.9-31.8,26.9-55.1,26.9c-20.8,0-39.2-8.6-51.4-23.3
				c-6.1,2.4-12.2,3.7-19.6,3.7c-4.9,0-9.8,1.2-15.9,3.7c8.6,4.9,18.4,8.6,28.2,8.6c7.3,0,13.5-1.2,19.6-3.7
				c12.2,14.7,30.6,23.3,51.4,23.3c22,0,41.6-11,55.1-26.9c7.3,3.7,14.7,6.1,23.3,6.1c19.6,0,36.7-11,45.3-28.2
				c11,7.3,24.5,12.2,39.2,12.2c37.9,0,68.5-30.6,68.5-68.5C506.7,386.2,495.7,366.6,479.8,354.4z"/>
		</g>
	</g>
	<g id="嘴巴4" display="inline">
		<g>
			<path fill="#8C6239" d="M526.3,279.7c28.2,204.4-36.7,472.5-157.9,488.4c-121.2,17.1-254.6-224-282.7-428.4s60-297.4,181.2-314.6
				S498.2,74.1,526.3,279.7z"/>
			<path fill="#744D28" d="M525.1,278.5c-15.9-118.7-60-190.9-117.5-226.4c52.6,37.9,93,107.7,108.9,221.5
				C544.7,478,479.8,746.1,358.6,762c-24.5,3.7-50.2-3.7-74.7-19.6c28.2,19.6,56.3,29.4,84.5,25.7
				C489.6,751,553.2,484.1,525.1,278.5z"/>
			<path fill="#AA8561" d="M96.7,349.5c-28.2-204.4,60-296.2,182.4-313.3c58.8-8.6,113.8,3.7,159.1,39.2
				c-46.5-44.1-107.7-58.8-171.4-50.2C144.4,42.3,56.3,134.1,84.5,339.7c20.8,150.6,99.1,320.7,187.3,392.9
				C188.5,655.5,116.3,493.9,96.7,349.5z"/>
			<path fill="#333333" d="M496.9,309.1C521.4,489,467.6,724,363.5,737.5c-104,13.5-219.1-197.1-243.6-377S170.1,99.8,274.2,85.1
				S472.5,129.2,496.9,309.1z"/>
			<path fill="#EC5A5A" d="M328,445c-15.9,0-45.3,42.8-45.3,56.3s11,24.5,24.5,24.5c9.8,0,17.1-4.9,20.8-13.5
				c3.7,7.3,12.2,13.5,20.8,13.5c13.5,0,24.5-11,24.5-24.5C373.3,489,343.9,446.2,328,445z"/>
		</g>
	</g>
	<g id="嘴巴5" display="inline">
		<g>
			<g>
				<g>
					<path fill="#8C6239" d="M176.3,389.9c-37.9,0-58.8-35.5-60-37.9c-3.7-6.1-1.2-13.5,4.9-17.1c6.1-3.7,13.5-1.2,17.1,4.9
						c1.2,1.2,17.1,29.4,44.1,24.5c6.1-1.2,13.5-2.4,22-4.9c44.1-11,117.5-30.6,227.7,6.1c8.6-1.2,35.5-4.9,40.4-28.2
						c1.2-6.1,7.3-11,14.7-9.8c6.1,1.2,11,8.6,9.8,14.7c-9.8,41.6-55.1,47.7-63.6,47.7c-2.4,0-4.9,0-6.1-1.2
						c-104-34.3-173.8-17.1-215.4-6.1c-9.8,2.4-18.4,4.9-24.5,6.1C182.4,389.9,179.9,389.9,176.3,389.9z"/>
				</g>
				<g>
					<g>
						<path fill="#FFFFFF" d="M243.6,369.1c0,0-40.4,24.5-33,91.8"/>
					</g>
					<g>
						<path fill="#8C6239" d="M214.2,464.5c-2.4,0-4.9-2.4-6.1-4.9c-7.3-69.8,34.3-96.7,35.5-97.9c2.4-1.2,6.1-1.2,7.3,2.4
							c1.2,2.4,0,6.1-2.4,7.3C206.9,408.2,217.9,464.5,214.2,464.5L214.2,464.5z"/>
					</g>
				</g>
				<g>
					<g>
						<path fill="#FFFFFF" d="M269.3,369.1c0,0-11,25.7-8.6,55.1"/>
					</g>
					<g>
						<path fill="#8C6239" d="M259.5,430.3c-2.4,0-4.9-2.4-6.1-4.9c-2.4-29.4,8.6-56.3,9.8-57.5c1.2-2.4,4.9-3.7,7.3-2.4
							c2.4,1.2,3.7,4.9,2.4,7.3C274.2,371.5,253.4,411.9,259.5,430.3C260.7,430.3,259.5,430.3,259.5,430.3z"/>
					</g>
				</g>
				<g>
					<g>
						<path fill="#FFFFFF" d="M326.8,363c0,0,25.7,22,31.8,75.9"/>
					</g>
					<g>
						<path fill="#8C6239" d="M358.6,445c-7.3-42.8-35.5-75.9-36.7-77.1c-2.4-2.4-2.4-6.1,0-7.3c2.4-2.4,6.1-2.4,7.3,0
							c1.2,1.2,26.9,24.5,34.3,78.3C364.8,441.3,362.3,443.7,358.6,445L358.6,445z"/>
					</g>
				</g>
				<g>
					<g>
						<path fill="#8C6239" d="M416.2,414.4C414.9,414.4,414.9,414.4,416.2,414.4c-3.7,0,4.9-7.3-20.8-37.9c-2.4-2.4-1.2-6.1,1.2-7.3
							c2.4-2.4,6.1-1.2,7.3,1.2c2.4,2.4,18.4,24.5,17.1,39.2C421.1,411.9,418.6,414.4,416.2,414.4z"/>
					</g>
				</g>
			</g>
			<g>
				<path fill="#744D28" d="M257,370.3c-2.4,0-4.9,1.2-7.3,1.2c-1.2,1.2-2.4,2.4-3.7,3.7c3.7-1.2,7.3-1.2,11-2.4
					C257,372.7,257,371.5,257,370.3z"/>
				<path fill="#744D28" d="M140.8,344.6c-1.2-2.4-2.4-3.7-2.4-3.7c0-1.2-1.2-1.2-1.2-2.4C137.1,339.7,138.3,342.1,140.8,344.6z"/>
				<path fill="#744D28" d="M395.4,378.9c-20.8-4.9-39.2-8.6-57.5-11c0,1.2,1.2,1.2,1.2,2.4c17.1,1.2,36.7,4.9,56.3,9.8
					C395.4,380.1,395.4,380.1,395.4,378.9z"/>
				<path fill="#744D28" d="M493.3,331.1c1.2,2.4,2.4,4.9,1.2,8.6c-3.7,15.9-12.2,26.9-22,34.3c-17.1,12.2-36.7,14.7-42.8,14.7
					c-2.4,0-4.9,0-6.1-1.2c-2.4-1.2-4.9-1.2-8.6-2.4v1.2c3.7,1.2,7.3,2.4,12.2,3.7c2.4,1.2,4.9,1.2,6.1,1.2
					c8.6-1.2,55.1-6.1,63.6-47.7C498.2,338.5,495.7,333.6,493.3,331.1z"/>
				<path fill="#744D28" d="M319.5,366.6c-17.1-1.2-31.8,0-45.3,1.2c0,1.2,0,2.4,0,2.4c14.7-1.2,30.6-2.4,47.7-1.2
					C320.7,367.8,320.7,367.8,319.5,366.6z"/>
				<path fill="#744D28" d="M219.1,381.3c1.2-1.2,1.2-2.4,2.4-3.7c-4.9,1.2-9.8,2.4-14.7,3.7c-9.8,2.4-18.4,4.9-24.5,6.1
					c-3.7,0-6.1,1.2-9.8,1.2c-9.8,0-19.6-2.4-26.9-6.1c8.6,4.9,19.6,8.6,31.8,8.6c3.7,0,6.1,0,9.8-1.2c7.3-1.2,15.9-3.7,24.5-6.1
					C213,382.5,216.6,382.5,219.1,381.3z"/>
			</g>
			<g>
				<path fill="#AA8561" d="M184.8,367.8c6.1-1.2,13.5-2.4,22-4.9c44.1-11,117.5-30.6,227.7,6.1c8.6-1.2,35.5-4.9,40.4-28.2
					c1.2-6.1,7.3-11,14.7-9.8c1.2,0,1.2,1.2,2.4,1.2c-1.2-1.2-3.7-2.4-6.1-3.7c-6.1-1.2-13.5,2.4-14.7,9.8
					c-4.9,23.3-31.8,28.2-40.4,28.2c-110.2-36.7-183.6-17.1-227.7-6.1c-8.6,2.4-17.1,4.9-22,4.9c-9.8,1.2-18.4-1.2-25.7-4.9
					C164,365.4,173.8,369.1,184.8,367.8z"/>
				<path fill="#AA8561" d="M120,354.4c-3.7-6.1-1.2-13.5,4.9-17.1c3.7-2.4,7.3-2.4,11,0c-3.7-3.7-9.8-4.9-14.7-2.4
					c-6.1,3.7-7.3,11-4.9,17.1c1.2,1.2,9.8,17.1,26.9,28.2C128.5,369.1,120,355.6,120,354.4z"/>
			</g>
		</g>
	</g>
	<g id="嘴巴6" display="inline">
		<g>
			<path fill="#EC5A5A" d="M408.8,621.2H203.2c-7.3,0-12.2-4.9-12.2-12.2V255.2c0-46.5,37.9-85.7,85.7-85.7h60
				c46.5,0,85.7,37.9,85.7,85.7V609C421.1,616.3,416.2,621.2,408.8,621.2z"/>
			<path fill="#8C6239" d="M408.8,633.5H203.2c-13.5,0-24.5-11-24.5-24.5V255.2c0-53.9,44.1-97.9,97.9-97.9h60
				c53.9,0,97.9,44.1,97.9,97.9V609C433.3,622.4,422.3,633.5,408.8,633.5z M275.4,183c-40.4,0-73.4,33-73.4,73.4v353.7h206.9V256.5
				c0-40.4-33-73.4-73.4-73.4C335.4,183,275.4,183,275.4,183z"/>
			<g>
				<path fill="#AA8561" d="M408.8,256.5v353.7H216.6v6.1h206.9V262.6c0-33-20.8-60-50.2-69.8C394.1,205.1,408.8,228.3,408.8,256.5z
					"/>
				<path fill="#AA8561" d="M192.2,616.3V262.6c0-53.9,44.1-97.9,97.9-97.9h60c11,0,23.3,2.4,33,6.1c-13.5-7.3-29.4-12.2-46.5-12.2
					h-60c-53.9,0-97.9,44.1-97.9,97.9v353.7c0,12.2,9.8,23.3,22,24.5C194.6,629.8,192.2,623.7,192.2,616.3z"/>
			</g>
		</g>
	</g>
	<g id="嘴巴7" display="inline">
		<g>
			<path fill="#EC5A5A" d="M313.3,386.2c-108.9,0-193.4-41.6-241.1-104c-8.6-11-26.9-6.1-28.2,8.6c-1.2,4.9-1.2,11-1.2,15.9
				C42.8,407,160.3,469.4,306,469.4s263.2-61.2,263.2-161.6l0,0c0-13.5-17.1-20.8-26.9-11C492,350.7,413.7,386.2,313.3,386.2z"/>
			<path fill="#8C6239" d="M306,481.7c-161.6,0-275.4-72.2-275.4-175c0-6.1,0-12.2,1.2-17.1c1.2-11,9.8-20.8,20.8-24.5
				c11-2.4,22,1.2,29.4,9.8c49,62.4,133.4,99.1,231.3,99.1c89.4,0,167.7-30.6,220.3-85.7c7.3-8.6,19.6-11,30.6-6.1
				c11,3.7,17.1,14.7,17.1,25.7C581.4,409.5,467.6,481.7,306,481.7z M60,288.3L60,288.3c-2.4,0-3.7,1.2-3.7,3.7
				c-1.2,4.9-1.2,9.8-1.2,14.7c0,88.1,102.8,150.6,250.9,150.6S556.9,396,556.9,307.9c0-1.2-1.2-2.4-2.4-3.7c-1.2,0-2.4,0-3.7,1.2
				c-57.5,60-142,94.2-238.7,94.2c-104-1.2-195.8-40.4-249.7-110.2C62.4,289.5,61.2,288.3,60,288.3z"/>
			<g>
				<path fill="#AA8561" d="M310.9,468.2c148.1,0,250.9-61.2,250.9-149.3c0-1.2-1.2-2.4-2.4-3.7c-1.2,0-2.4,0-3.7,1.2
					C548.4,399.7,448,456,306,456c-122.4,0-214.2-42.8-242.4-106.5C85.7,420.5,181.2,468.2,310.9,468.2z"/>
				<path fill="#AA8561" d="M35.5,318.9c0-6.1,0-12.2,1.2-17.1c1.2-11,9.8-20.8,20.8-24.5c11-2.4,22,1.2,29.4,9.8
					c49,62.4,133.4,99.1,231.3,99.1c89.4,0,167.7-30.6,220.3-85.7c7.3-8.6,19.6-11,30.6-6.1c4.9,2.4,9.8,4.9,12.2,9.8
					c-1.2-9.8-7.3-18.4-17.1-22c-11-3.7-22-1.2-30.6,6.1C481,343.4,402.7,374,313.3,374C215.4,374,131,338.5,82,274.8
					c-7.3-8.6-18.4-12.2-29.4-9.8c-11,3.7-19.6,12.2-20.8,24.5c-1.2,6.1-1.2,12.2-1.2,17.1c0,19.6,3.7,37.9,12.2,55.1
					C37.9,348.3,35.5,333.6,35.5,318.9z"/>
			</g>
			<g>
				<path fill="#29ABE2" d="M97.9,399.7c0,0,69.8,60,202,60S79.6,342.1,97.9,399.7z"/>
			</g>
			<g>
				<path fill="#29ABE2" d="M154.2,502.5c0,14.7-9.8,25.7-23.3,25.7c-13.5,0-23.3-11-23.3-25.7s9.8-86.9,23.3-86.9
					C144.4,415.6,154.2,486.6,154.2,502.5z"/>
			</g>
			<path fill="#4CC7F2" d="M120,512.3c0-14.7,9.8-79.6,20.8-85.7c-2.4-7.3-6.1-11-8.6-11c-12.2,0-23.3,72.2-23.3,86.9
				c0,11,6.1,20.8,13.5,24.5C121.2,522.1,120,517.2,120,512.3z"/>
		</g>
	</g>
	<g id="嘴巴8" display="inline">
		<g>
			<path fill="#BC4444" d="M448,59.4c0-2.4-2.4-3.7-4.9-3.7c-6.1,0-22,2.4-42.8,3.7c-79.6,7.3-146.9,69.8-175,159.1
				c-47.7,153-101.6,384.3-25.7,478.6c4.9,6.1,13.5,3.7,14.7-4.9c6.1-34.3,19.6-106.5,25.7-105.3c8.6,1.2-1.2,7.3-3.7,90.6
				c0,3.7-3.7,55.1,3.7,50.2c8.6-6.1,17.1-15.9,26.9-31.8c3.7-4.9,9.8-3.7,12.2,2.4c1.2,8.6,3.7,12.2,6.1,13.5
				c6.1,0,12.2-26.9,17.1-71c1.2-14.7,4.9-29.4,11-42.8c3.7-9.8,7.3-20.8,12.2-31.8c2.4-8.6,13.5-7.3,14.7,1.2
				c9.8,37.9,19.6,61.2,25.7,61.2c11,0,9.8-56.3,8.6-137.1c-1.2-49,4.9-97.9,17.1-144.4C429.6,211.2,452.9,85.1,448,59.4z"/>
			<path fill="#C75656" d="M290.1,246.7c25.7-82,85.7-140.8,156.7-155.4c1.2-13.5,1.2-24.5,0-29.4c0-2.4-2.4-3.7-4.9-3.7
				c-6.1,0-22,2.4-42.8,3.7c-79.6,7.3-146.9,69.8-175,159.1c-47.7,153-101.6,384.3-25.7,478.6c4.9,6.1,13.5,3.7,14.7-4.9
				c3.7-19.6,8.6-51.4,14.7-74.7C219.1,507.4,255.8,356.8,290.1,246.7z"/>
			<path fill="#BC4444" d="M430.8,639.6c1.2,52.6-6.1,61.2-15.9,61.2s-18.4-7.3-19.6-60c-1.2-52.6,4.9-128.5,14.7-128.5
				S429.6,588.2,430.8,639.6z"/>
			<path fill="#BC4444" d="M483.5,195.3c0,20.8-7.3,24.5-17.1,24.5c-9.8,0-17.1-2.4-18.4-24.5c-1.2-22,6.1-51.4,15.9-52.6
				C473.7,143.9,482.3,174.5,483.5,195.3z"/>
			<path fill="#BC4444" d="M356.2,720.4c0,12.2-4.9,14.7-9.8,14.7s-11-1.2-11-14.7c0-12.2-3.7-31.8,2.4-31.8
				C343.9,688.5,356.2,708.1,356.2,720.4z"/>
			<path fill="#BC4444" d="M166.5,383.8c-20.8,64.9-28.2,74.7-34.3,72.2c-6.1-2.4-7.3-13.5,13.5-78.3s55.1-159.1,60-157.9
				C211.8,222.2,187.3,318.9,166.5,383.8z"/>
		</g>
	</g>
</g>
</svg>
